0, 0, Header, 1, 1, 30000
1, 0, Start_track
1, 0, Pitch_bend_c, 0, 6891
1, 0, Time_signature, 2, 3, 24, 8
1, 0, Tempo, 750000
1, 0, Marker_t, Measure 1 Length: 0:00.750 (0:00.000 - 0:00.750) endTick: 30000 Original Meter: 2/6 Spoofed Meter: 2/8
1, 0, Marker_t, Beat 1 Length: 0:00.375 (0:00.000 - 0:00.375) endTick: 15000 
1, 0, Marker_t, Division 1 Length: 0:00.125 (0:00.000 - 0:00.125) endTick: 5000 
1, 8, Note_on_c, 0, 92, 99
1, 76, Note_on_c, 0, 91, 99
1, 78, Note_on_c, 0, 37, 99
1, 127, Note_on_c, 0, 36, 99
1, 5000, Marker_t, Division 2 Length: 0:00.125 (0:00.125 - 0:00.250) endTick: 10000 
1, 5046, Note_on_c, 0, 67, 99
1, 5057, Note_on_c, 0, 113, 99
1, 5115, Note_on_c, 0, 31, 99
1, 10000, Marker_t, Division 3 Length: 0:00.125 (0:00.250 - 0:00.375) endTick: 15000 
1, 10025, Note_on_c, 0, 31, 99
1, 10120, Note_on_c, 0, 36, 99
1, 10157, Note_on_c, 0, 25, 99
1, 10158, Note_on_c, 0, 104, 99
1, 10220, Note_on_c, 0, 103, 99
1, 14027, Note_off_c, 0, 36, 0
1, 14657, Note_off_c, 0, 67, 0
1, 15000, Marker_t, Beat 2 Length: 0:00.375 (0:00.375 - 0:00.750) endTick: 30000 
1, 15000, Marker_t, Division 1 Length: 0:00.075 (0:00.375 - 0:00.450) endTick: 18000 
1, 15003, Note_on_c, 0, 44, 99
1, 15051, Note_on_c, 0, 101, 99
1, 15051, Note_on_c, 0, 96, 99
1, 15101, Note_off_c, 0, 37, 0
1, 15124, Note_on_c, 0, 108, 99
1, 16780, Note_off_c, 0, 25, 0
1, 18000, Marker_t, Division 2 Length: 0:00.075 (0:00.450 - 0:00.525) endTick: 21000 
1, 18001, Note_on_c, 0, 49, 99
1, 18080, Note_on_c, 0, 73, 99
1, 18098, Note_on_c, 0, 53, 99
1, 18098, Note_on_c, 0, 49, 99
1, 18121, Note_on_c, 0, 113, 99
1, 18125, Note_on_c, 0, 53, 99
1, 18127, Note_on_c, 0, 113, 99
1, 18141, Note_on_c, 0, 79, 99
1, 18404, Note_off_c, 0, 73, 0
1, 19059, Note_off_c, 0, 108, 0
1, 19408, Note_off_c, 0, 91, 0
1, 21000, Marker_t, Division 3 Length: 0:00.075 (0:00.525 - 0:00.600) endTick: 24000 
1, 21001, Note_on_c, 0, 108, 99
1, 21020, Note_on_c, 0, 116, 99
1, 21067, Note_on_c, 0, 53, 99
1, 21740, Note_off_c, 0, 53, 0
1, 23150, Note_off_c, 0, 103, 0
1, 23370, Note_off_c, 0, 113, 0
1, 24000, Marker_t, Division 4 Length: 0:00.075 (0:00.600 - 0:00.675) endTick: 27000 
1, 24085, Note_on_c, 0, 73, 99
1, 24106, Note_on_c, 0, 43, 99
1, 24138, Note_on_c, 0, 91, 99
1, 24256, Note_off_c, 0, 104, 0
1, 24310, Note_off_c, 0, 96, 0
1, 24722, Note_off_c, 0, 92, 0
1, 25226, Note_off_c, 0, 44, 0
1, 27000, Marker_t, Division 5 Length: 0:00.075 (0:00.675 - 0:00.750) endTick: 30000 
1, 27026, Note_on_c, 0, 32, 99
1, 27032, Note_on_c, 0, 96, 99
1, 27058, Note_on_c, 0, 68, 99
1, 27089, Note_on_c, 0, 96, 99
1, 27097, Note_off_c, 0, 31, 0
1, 27111, Note_on_c, 0, 84, 99
1, 27118, Note_off_c, 0, 79, 0
1, 27142, Note_on_c, 0, 85, 99
1, 27737, Note_off_c, 0, 113, 0
1, 27788, Note_off_c, 0, 101, 0
1, 28169, Note_off_c, 0, 49, 0
1, 28543, Note_off_c, 0, 108, 0
1, 28552, Note_off_c, 0, 49, 0
1, 29066, Note_off_c, 0, 73, 0
1, 30000, Time_signature, 7, 2, 24, 8
1, 30000, Tempo, 750000
1, 30000, Marker_t, Measure 2 Length: 0:05.250 (0:00.750 - 0:06.000) endTick: 240000 Original Meter: 7/3 Spoofed Meter: 7/4
1, 30000, Marker_t, Beat 1 Length: 0:00.750 (0:00.750 - 0:01.500) endTick: 60000 
1, 30000, Marker_t, Division 1 Length: 0:00.083 (0:00.750 - 0:00.833) endTick: 33333 
1, 30025, Note_on_c, 0, 32, 99
1, 30031, Note_on_c, 0, 82, 99
1, 30041, Note_on_c, 0, 51, 99
1, 30100, Note_on_c, 0, 104, 99
1, 30108, Note_off_c, 0, 53, 0
1, 30127, Note_on_c, 0, 87, 99
1, 30492, Note_off_c, 0, 36, 0
1, 30887, Note_off_c, 0, 91, 0
1, 31099, Note_off_c, 0, 43, 0
1, 31304, Note_off_c, 0, 85, 0
1, 31624, Note_off_c, 0, 53, 0
1, 32270, Note_off_c, 0, 113, 0
1, 33168, Note_off_c, 0, 116, 0
1, 33333, Marker_t, Division 2 Length: 0:00.083 (0:00.833 - 0:00.917) endTick: 36667 
1, 33459, Note_on_c, 0, 111, 99
1, 33466, Note_on_c, 0, 46, 99
1, 34007, Note_off_c, 0, 96, 0
1, 34440, Note_off_c, 0, 31, 0
1, 36313, Note_off_c, 0, 84, 0
1, 36667, Marker_t, Division 3 Length: 0:00.083 (0:00.917 - 0:01.000) endTick: 40000 
1, 36729, Note_on_c, 0, 82, 99
1, 36763, Note_on_c, 0, 73, 99
1, 36777, Note_on_c, 0, 56, 99
1, 36778, Note_on_c, 0, 46, 99
1, 36798, Note_on_c, 0, 32, 99
1, 36877, Note_off_c, 0, 51, 0
1, 37850, Note_off_c, 0, 96, 0
1, 39375, Note_off_c, 0, 32, 0
1, 39624, Note_off_c, 0, 68, 0
1, 40000, Marker_t, Division 4 Length: 0:00.083 (0:01.000 - 0:01.083) endTick: 43333 
1, 40013, Note_on_c, 0, 25, 99
1, 40069, Note_on_c, 0, 82, 99
1, 40100, Note_on_c, 0, 80, 99
1, 40127, Note_on_c, 0, 39, 99
1, 40141, Note_on_c, 0, 32, 99
1, 40811, Note_off_c, 0, 46, 0
1, 40854, Note_off_c, 0, 56, 0
1, 42654, Note_off_c, 0, 87, 0
1, 42852, Note_off_c, 0, 32, 0
1, 43333, Marker_t, Division 5 Length: 0:00.083 (0:01.083 - 0:01.167) endTick: 46667 
1, 43353, Note_on_c, 0, 46, 99
1, 43370, Note_on_c, 0, 114, 99
1, 43450, Note_on_c, 0, 97, 99
1, 43481, Note_on_c, 0, 49, 99
1, 43703, Note_off_c, 0, 104, 0
1, 44487, Note_off_c, 0, 46, 0
1, 44573, Note_off_c, 0, 82, 0
1, 45150, Note_off_c, 0, 82, 0
1, 45548, Note_off_c, 0, 114, 0
1, 46667, Marker_t, Division 6 Length: 0:00.083 (0:01.167 - 0:01.250) endTick: 50000 
1, 46671, Note_on_c, 0, 111, 99
1, 46766, Note_on_c, 0, 58, 99
1, 46778, Note_on_c, 0, 42, 99
1, 46808, Note_on_c, 0, 61, 99
1, 47925, Note_off_c, 0, 32, 0
1, 48545, Note_off_c, 0, 111, 0
1, 49936, Note_off_c, 0, 73, 0
1, 50000, Marker_t, Division 7 Length: 0:00.083 (0:01.250 - 0:01.333) endTick: 53333 
1, 50016, Note_off_c, 0, 42, 0
1, 50074, Note_on_c, 0, 75, 99
1, 50097, Note_on_c, 0, 68, 99
1, 50123, Note_on_c, 0, 118, 99
1, 50512, Note_off_c, 0, 58, 0
1, 50816, Note_off_c, 0, 25, 0
1, 53135, Note_off_c, 0, 82, 0
1, 53229, Note_off_c, 0, 75, 0
1, 53333, Marker_t, Division 8 Length: 0:00.083 (0:01.333 - 0:01.417) endTick: 56667 
1, 53401, Note_on_c, 0, 104, 99
1, 53461, Note_on_c, 0, 54, 99
1, 53464, Note_on_c, 0, 42, 99
1, 53475, Note_on_c, 0, 104, 99
1, 54923, Note_off_c, 0, 104, 0
1, 55112, Note_off_c, 0, 32, 0
1, 55127, Note_off_c, 0, 68, 0
1, 55380, Note_off_c, 0, 80, 0
1, 55462, Note_off_c, 0, 118, 0
1, 55864, Note_off_c, 0, 54, 0
1, 56324, Note_off_c, 0, 39, 0
1, 56667, Marker_t, Division 9 Length: 0:00.083 (0:01.417 - 0:01.500) endTick: 60000 
1, 56672, Note_on_c, 0, 32, 99
1, 56757, Note_on_c, 0, 90, 99
1, 56799, Note_on_c, 0, 30, 99
1, 57504, Note_off_c, 0, 46, 0
1, 57998, Note_off_c, 0, 49, 0
1, 59805, Note_off_c, 0, 97, 0
1, 60000, Marker_t, Beat 2 Length: 0:00.750 (0:01.500 - 0:02.250) endTick: 90000 
1, 60000, Marker_t, Division 1 Length: 0:00.375 (0:01.500 - 0:01.875) endTick: 75000 
1, 60102, Note_on_c, 0, 61, 99
1, 60353, Note_on_c, 0, 70, 99
1, 60381, Note_on_c, 0, 80, 99
1, 60403, Note_off_c, 0, 30, 0
1, 62684, Note_off_c, 0, 61, 0
1, 62816, Note_off_c, 0, 90, 0
1, 63030, Note_off_c, 0, 111, 0
1, 63742, Note_off_c, 0, 104, 0
1, 67494, Note_off_c, 0, 42, 0
1, 70712, Note_off_c, 0, 32, 0
1, 75000, Marker_t, Division 2 Length: 0:00.375 (0:01.875 - 0:02.250) endTick: 90000 
1, 75005, Note_on_c, 0, 32, 99
1, 78897, Note_off_c, 0, 80, 0
1, 81440, Note_off_c, 0, 32, 0
1, 90000, Marker_t, Beat 3 Length: 0:00.750 (0:02.250 - 0:03.000) endTick: 120000 
1, 90000, Marker_t, Division 1 Length: 0:00.083 (0:02.250 - 0:02.333) endTick: 93333 
1, 90059, Note_on_c, 0, 75, 99
1, 90105, Note_on_c, 0, 49, 99
1, 90127, Note_on_c, 0, 44, 99
1, 90160, Note_on_c, 0, 92, 99
1, 90841, Note_off_c, 0, 75, 0
1, 93333, Marker_t, Division 2 Length: 0:00.083 (0:02.333 - 0:02.417) endTick: 96667 
1, 93361, Note_on_c, 0, 63, 99
1, 96667, Marker_t, Division 3 Length: 0:00.083 (0:02.417 - 0:02.500) endTick: 100000 
1, 96740, Note_on_c, 0, 118, 99
1, 96756, Note_on_c, 0, 106, 99
1, 100000, Marker_t, Division 4 Length: 0:00.083 (0:02.500 - 0:02.583) endTick: 103333 
1, 100004, Note_on_c, 0, 63, 99
1, 100060, Note_on_c, 0, 109, 99
1, 100060, Note_on_c, 0, 94, 99
1, 100409, Note_off_c, 0, 106, 0
1, 101231, Note_off_c, 0, 61, 0
1, 101837, Note_off_c, 0, 63, 0
1, 102794, Note_off_c, 0, 49, 0
1, 103052, Note_off_c, 0, 92, 0
1, 103333, Marker_t, Division 5 Length: 0:00.083 (0:02.583 - 0:02.667) endTick: 106667 
1, 103407, Note_on_c, 0, 46, 99
1, 103453, Note_on_c, 0, 78, 99
1, 103983, Note_off_c, 0, 118, 0
1, 104980, Note_off_c, 0, 63, 0
1, 105888, Note_off_c, 0, 44, 0
1, 106667, Marker_t, Division 6 Length: 0:00.083 (0:02.667 - 0:02.750) endTick: 110000 
1, 106668, Note_on_c, 0, 118, 99
1, 107154, Note_off_c, 0, 78, 0
1, 108600, Note_off_c, 0, 109, 0
1, 108634, Note_off_c, 0, 94, 0
1, 110000, Marker_t, Division 7 Length: 0:00.083 (0:02.750 - 0:02.833) endTick: 113333 
1, 110054, Note_on_c, 0, 63, 99
1, 110081, Note_on_c, 0, 104, 99
1, 110087, Note_on_c, 0, 54, 99
1, 110124, Note_on_c, 0, 51, 99
1, 110140, Note_on_c, 0, 94, 99
1, 110853, Note_off_c, 0, 104, 0
1, 112981, Note_off_c, 0, 46, 0
1, 113333, Marker_t, Division 8 Length: 0:00.083 (0:02.833 - 0:02.917) endTick: 116667 
1, 113399, Note_on_c, 0, 114, 99
1, 113417, Note_on_c, 0, 106, 99
1, 113445, Note_on_c, 0, 49, 99
1, 113469, Note_on_c, 0, 80, 99
1, 114324, Note_off_c, 0, 118, 0
1, 114568, Note_off_c, 0, 49, 0
1, 116508, Note_off_c, 0, 51, 0
1, 116667, Marker_t, Division 9 Length: 0:00.083 (0:02.917 - 0:03.000) endTick: 120000 
1, 116791, Note_on_c, 0, 82, 99
1, 116817, Note_on_c, 0, 42, 99
1, 117197, Note_off_c, 0, 114, 0
1, 117340, Note_off_c, 0, 94, 0
1, 118283, Note_off_c, 0, 80, 0
1, 119270, Note_off_c, 0, 63, 0
1, 119452, Note_off_c, 0, 54, 0
1, 120000, Marker_t, Beat 4 Length: 0:00.750 (0:03.000 - 0:03.750) endTick: 150000 
1, 120000, Marker_t, Division 1 Length: 0:00.107 (0:03.000 - 0:03.107) endTick: 124286 
1, 120037, Note_on_c, 0, 51, 99
1, 120066, Note_on_c, 0, 116, 99
1, 120149, Note_on_c, 0, 78, 99
1, 120520, Note_off_c, 0, 42, 0
1, 124286, Marker_t, Division 2 Length: 0:00.107 (0:03.107 - 0:03.214) endTick: 128571 
1, 124299, Note_on_c, 0, 46, 99
1, 124436, Note_on_c, 0, 87, 99
1, 125279, Note_off_c, 0, 82, 0
1, 125913, Note_off_c, 0, 46, 0
1, 127583, Note_off_c, 0, 116, 0
1, 128173, Note_off_c, 0, 106, 0
1, 128571, Marker_t, Division 3 Length: 0:00.107 (0:03.214 - 0:03.321) endTick: 132857 
1, 128731, Note_on_c, 0, 99, 99
1, 129822, Note_off_c, 0, 78, 0
1, 130624, Note_off_c, 0, 51, 0
1, 132170, Note_off_c, 0, 70, 0
1, 132857, Marker_t, Division 4 Length: 0:00.107 (0:03.321 - 0:03.429) endTick: 137143 
1, 132974, Note_on_c, 0, 39, 99
1, 132977, Note_on_c, 0, 32, 99
1, 135101, Note_off_c, 0, 39, 0
1, 137143, Marker_t, Division 5 Length: 0:00.107 (0:03.429 - 0:03.536) endTick: 141429 
1, 137162, Note_on_c, 0, 82, 99
1, 139756, Note_off_c, 0, 87, 0
1, 141429, Marker_t, Division 6 Length: 0:00.107 (0:03.536 - 0:03.643) endTick: 145714 
1, 141577, Note_on_c, 0, 99, 99
1, 141633, Note_on_c, 0, 51, 99
1, 143941, Note_off_c, 0, 82, 0
1, 145714, Marker_t, Division 7 Length: 0:00.107 (0:03.643 - 0:03.750) endTick: 150000 
1, 145743, Note_on_c, 0, 102, 99
1, 145820, Note_on_c, 0, 32, 99
1, 148901, Note_off_c, 0, 32, 0
1, 149555, Note_off_c, 0, 102, 0
1, 149559, Note_off_c, 0, 99, 0
1, 150000, Marker_t, Beat 5 Length: 0:00.750 (0:03.750 - 0:04.500) endTick: 180000 
1, 150000, Marker_t, Division 1 Length: 0:00.125 (0:03.750 - 0:03.875) endTick: 155000 
1, 150054, Note_on_c, 0, 66, 99
1, 150089, Note_on_c, 0, 90, 99
1, 150215, Note_on_c, 0, 44, 99
1, 151538, Note_off_c, 0, 32, 0
1, 152397, Note_off_c, 0, 99, 0
1, 154549, Note_off_c, 0, 51, 0
1, 155000, Marker_t, Division 2 Length: 0:00.125 (0:03.875 - 0:04.000) endTick: 160000 
1, 155114, Note_on_c, 0, 66, 99
1, 156983, Note_off_c, 0, 44, 0
1, 157540, Note_off_c, 0, 66, 0
1, 160000, Marker_t, Division 3 Length: 0:00.125 (0:04.000 - 0:04.125) endTick: 165000 
1, 160082, Note_on_c, 0, 27, 99
1, 160153, Note_on_c, 0, 30, 99
1, 160178, Note_on_c, 0, 46, 99
1, 163903, Note_off_c, 0, 90, 0
1, 165000, Marker_t, Division 4 Length: 0:00.125 (0:04.125 - 0:04.250) endTick: 170000 
1, 165102, Note_on_c, 0, 61, 99
1, 165175, Note_on_c, 0, 80, 99
1, 166428, Note_off_c, 0, 27, 0
1, 166868, Note_off_c, 0, 66, 0
1, 170000, Marker_t, Division 5 Length: 0:00.125 (0:04.250 - 0:04.375) endTick: 175000 
1, 170040, Note_on_c, 0, 61, 99
1, 170057, Note_on_c, 0, 97, 99
1, 170103, Note_on_c, 0, 92, 99
1, 170198, Note_on_c, 0, 102, 99
1, 170221, Note_on_c, 0, 39, 99
1, 171318, Note_off_c, 0, 80, 0
1, 172581, Note_off_c, 0, 39, 0
1, 173164, Note_off_c, 0, 61, 0
1, 175000, Marker_t, Division 6 Length: 0:00.125 (0:04.375 - 0:04.500) endTick: 180000 
1, 175116, Note_on_c, 0, 75, 99
1, 175197, Note_on_c, 0, 30, 99
1, 177221, Note_off_c, 0, 92, 0
1, 177337, Note_off_c, 0, 75, 0
1, 178086, Note_off_c, 0, 30, 0
1, 178757, Note_off_c, 0, 46, 0
1, 180000, Marker_t, Beat 6 Length: 0:00.750 (0:04.500 - 0:05.250) endTick: 210000 
1, 180000, Marker_t, Division 1 Length: 0:00.188 (0:04.500 - 0:04.688) endTick: 187500 
1, 180113, Note_on_c, 0, 68, 99
1, 180250, Note_on_c, 0, 66, 99
1, 181884, Note_off_c, 0, 97, 0
1, 186631, Note_off_c, 0, 68, 0
1, 186769, Note_off_c, 0, 102, 0
1, 187500, Marker_t, Division 2 Length: 0:00.188 (0:04.688 - 0:04.875) endTick: 195000 
1, 187526, Note_on_c, 0, 42, 99
1, 187544, Note_on_c, 0, 25, 99
1, 187793, Note_on_c, 0, 34, 99
1, 187808, Note_on_c, 0, 25, 99
1, 187859, Note_on_c, 0, 46, 99
1, 189117, Note_off_c, 0, 61, 0
1, 194767, Note_off_c, 0, 34, 0
1, 195000, Marker_t, Division 3 Length: 0:00.188 (0:04.875 - 0:05.063) endTick: 202500 
1, 195160, Note_on_c, 0, 70, 99
1, 195327, Note_on_c, 0, 56, 99
1, 196767, Note_off_c, 0, 42, 0
1, 198535, Note_off_c, 0, 30, 0
1, 200777, Note_off_c, 0, 66, 0
1, 202500, Marker_t, Division 4 Length: 0:00.188 (0:05.063 - 0:05.250) endTick: 210000 
1, 202640, Note_on_c, 0, 44, 99
1, 202666, Note_on_c, 0, 44, 99
1, 202668, Note_on_c, 0, 58, 99
1, 202685, Note_on_c, 0, 97, 99
1, 202861, Note_on_c, 0, 66, 99
1, 202874, Note_on_c, 0, 34, 99
1, 203626, Note_off_c, 0, 44, 0
1, 207102, Note_off_c, 0, 70, 0
1, 207742, Note_off_c, 0, 25, 0
1, 210000, Marker_t, Beat 7 Length: 0:00.750 (0:05.250 - 0:06.000) endTick: 240000 
1, 210000, Marker_t, Division 1 Length: 0:00.750 (0:05.250 - 0:06.000) endTick: 240000 
1, 210424, Note_on_c, 0, 61, 99
1, 211002, Note_on_c, 0, 30, 99
1, 211249, Note_on_c, 0, 78, 99
1, 214709, Note_off_c, 0, 46, 0
1, 215887, Note_off_c, 0, 34, 0
1, 217006, Note_off_c, 0, 58, 0
1, 219622, Note_off_c, 0, 44, 0
1, 219924, Note_off_c, 0, 97, 0
1, 220470, Note_off_c, 0, 56, 0
1, 223557, Note_off_c, 0, 25, 0
1, 233465, Note_off_c, 0, 66, 0
1, 240000, Time_signature, 13, 3, 24, 8
1, 240000, Tempo, 1000000
1, 240000, Marker_t, Measure 3 Length: 0:06.500 (0:06.000 - 0:12.500) endTick: 435000 Meter: 13/8
1, 240000, Marker_t, Beat 1 Length: 0:00.500 (0:06.000 - 0:06.500) endTick: 255000 
1, 240000, Marker_t, Division 1 Length: 0:00.100 (0:06.000 - 0:06.100) endTick: 243000 
1, 240002, Note_on_c, 0, 50, 99
1, 240048, Note_on_c, 0, 100, 99
1, 240071, Note_on_c, 0, 113, 99
1, 240127, Note_on_c, 0, 71, 99
1, 243000, Marker_t, Division 2 Length: 0:00.100 (0:06.100 - 0:06.200) endTick: 246000 
1, 243090, Note_on_c, 0, 87, 99
1, 243109, Note_on_c, 0, 90, 99
1, 243118, Note_on_c, 0, 77, 99
1, 243139, Note_on_c, 0, 103, 99
1, 245628, Note_off_c, 0, 113, 0
1, 246000, Marker_t, Division 3 Length: 0:00.100 (0:06.200 - 0:06.300) endTick: 249000 
1, 246012, Note_on_c, 0, 77, 99
1, 246017, Note_on_c, 0, 105, 99
1, 246032, Note_on_c, 0, 86, 99
1, 246044, Note_on_c, 0, 29, 99
1, 246045, Note_off_c, 0, 100, 0
1, 246066, Note_on_c, 0, 115, 99
1, 247142, Note_off_c, 0, 90, 0
1, 249000, Marker_t, Division 4 Length: 0:00.100 (0:06.300 - 0:06.400) endTick: 252000 
1, 249060, Note_on_c, 0, 99, 99
1, 249439, Note_off_c, 0, 50, 0
1, 250358, Note_off_c, 0, 29, 0
1, 250442, Note_off_c, 0, 105, 0
1, 251837, Note_off_c, 0, 77, 0
1, 252000, Marker_t, Division 5 Length: 0:00.100 (0:06.400 - 0:06.500) endTick: 255000 
1, 252012, Note_on_c, 0, 113, 99
1, 252013, Note_on_c, 0, 85, 99
1, 252093, Note_on_c, 0, 79, 99
1, 252125, Note_on_c, 0, 107, 99
1, 252164, Note_off_c, 0, 71, 0
1, 254391, Note_off_c, 0, 85, 0
1, 255000, Marker_t, Beat 2 Length: 0:00.500 (0:06.500 - 0:07.000) endTick: 270000 
1, 255000, Marker_t, Division 1 Length: 0:00.056 (0:06.500 - 0:06.556) endTick: 256667 
1, 255015, Note_on_c, 0, 110, 99
1, 255025, Note_on_c, 0, 76, 99
1, 255025, Note_on_c, 0, 44, 99
1, 255074, Note_off_c, 0, 103, 0
1, 255079, Note_on_c, 0, 93, 99
1, 255142, Note_off_c, 0, 115, 0
1, 255270, Note_off_c, 0, 87, 0
1, 255349, Note_off_c, 0, 76, 0
1, 256367, Note_off_c, 0, 86, 0
1, 256667, Marker_t, Division 2 Length: 0:00.056 (0:06.556 - 0:06.611) endTick: 258333 
1, 256673, Note_on_c, 0, 24, 99
1, 256735, Note_on_c, 0, 82, 99
1, 257622, Note_off_c, 0, 77, 0
1, 257632, Note_off_c, 0, 99, 0
1, 257896, Note_off_c, 0, 61, 0
1, 258190, Note_off_c, 0, 44, 0
1, 258333, Marker_t, Division 3 Length: 0:00.056 (0:06.611 - 0:06.667) endTick: 260000 
1, 258354, Note_on_c, 0, 32, 99
1, 258368, Note_on_c, 0, 91, 99
1, 259350, Note_off_c, 0, 110, 0
1, 259618, Note_off_c, 0, 113, 0
1, 260000, Marker_t, Division 4 Length: 0:00.056 (0:06.667 - 0:06.722) endTick: 261667 
1, 260014, Note_on_c, 0, 62, 99
1, 260068, Note_on_c, 0, 25, 99
1, 260273, Note_off_c, 0, 93, 0
1, 261667, Marker_t, Division 5 Length: 0:00.056 (0:06.722 - 0:06.778) endTick: 263333 
1, 261667, Note_on_c, 0, 58, 99
1, 261680, Note_on_c, 0, 36, 99
1, 261712, Note_on_c, 0, 96, 99
1, 261715, Note_on_c, 0, 115, 99
1, 261747, Note_on_c, 0, 89, 99
1, 262237, Note_off_c, 0, 107, 0
1, 262491, Note_off_c, 0, 25, 0
1, 262651, Note_off_c, 0, 24, 0
1, 262671, Note_off_c, 0, 91, 0
1, 262885, Note_off_c, 0, 32, 0
1, 263241, Note_off_c, 0, 79, 0
1, 263250, Note_off_c, 0, 62, 0
1, 263333, Marker_t, Division 6 Length: 0:00.056 (0:06.778 - 0:06.833) endTick: 265000 
1, 263342, Note_on_c, 0, 27, 99
1, 263400, Note_on_c, 0, 37, 99
1, 263411, Note_on_c, 0, 92, 99
1, 263822, Note_off_c, 0, 82, 0
1, 264438, Note_off_c, 0, 27, 0
1, 265000, Marker_t, Division 7 Length: 0:00.056 (0:06.833 - 0:06.889) endTick: 266667 
1, 265012, Note_on_c, 0, 99, 99
1, 265066, Note_on_c, 0, 113, 99
1, 265066, Note_on_c, 0, 34, 99
1, 265071, Note_on_c, 0, 73, 99
1, 265782, Note_off_c, 0, 36, 0
1, 266120, Note_off_c, 0, 73, 0
1, 266273, Note_off_c, 0, 96, 0
1, 266667, Marker_t, Division 8 Length: 0:00.056 (0:06.889 - 0:06.944) endTick: 268333 
1, 266690, Note_on_c, 0, 59, 99
1, 266692, Note_on_c, 0, 52, 99
1, 266705, Note_on_c, 0, 107, 99
1, 266713, Note_on_c, 0, 86, 99
1, 267838, Note_off_c, 0, 59, 0
1, 267868, Note_off_c, 0, 92, 0
1, 268333, Marker_t, Division 9 Length: 0:00.056 (0:06.944 - 0:07.000) endTick: 270000 
1, 268343, Note_on_c, 0, 82, 99
1, 268361, Note_on_c, 0, 49, 99
1, 268364, Note_on_c, 0, 101, 99
1, 268376, Note_off_c, 0, 89, 0
1, 268382, Note_on_c, 0, 105, 99
1, 268402, Note_on_c, 0, 119, 99
1, 268955, Note_off_c, 0, 52, 0
1, 269077, Note_off_c, 0, 58, 0
1, 269574, Note_off_c, 0, 113, 0
1, 269873, Note_off_c, 0, 115, 0
1, 270000, Marker_t, Beat 3 Length: 0:00.500 (0:07.000 - 0:07.500) endTick: 285000 
1, 270000, Marker_t, Division 1 Length: 0:00.167 (0:07.000 - 0:07.167) endTick: 275000 
1, 270007, Note_on_c, 0, 104, 99
1, 270053, Note_off_c, 0, 37, 0
1, 270165, Note_on_c, 0, 67, 99
1, 270181, Note_on_c, 0, 109, 99
1, 271347, Note_off_c, 0, 104, 0
1, 272178, Note_off_c, 0, 99, 0
1, 272449, Note_off_c, 0, 107, 0
1, 272944, Note_off_c, 0, 34, 0
1, 272985, Note_off_c, 0, 86, 0
1, 273789, Note_off_c, 0, 101, 0
1, 275000, Marker_t, Division 2 Length: 0:00.167 (0:07.167 - 0:07.333) endTick: 280000 
1, 275156, Note_on_c, 0, 72, 99
1, 275158, Note_on_c, 0, 48, 99
1, 275295, Note_off_c, 0, 82, 0
1, 275322, Note_off_c, 0, 105, 0
1, 276331, Note_off_c, 0, 119, 0
1, 276524, Note_off_c, 0, 49, 0
1, 277611, Note_off_c, 0, 48, 0
1, 280000, Marker_t, Division 3 Length: 0:00.167 (0:07.333 - 0:07.500) endTick: 285000 
1, 280015, Note_on_c, 0, 109, 99
1, 280067, Note_on_c, 0, 75, 99
1, 280130, Note_on_c, 0, 60, 99
1, 280133, Note_on_c, 0, 59, 99
1, 282907, Note_off_c, 0, 109, 0
1, 284476, Note_off_c, 0, 75, 0
1, 285000, Marker_t, Beat 4 Length: 0:00.500 (0:07.500 - 0:08.000) endTick: 300000 
1, 285000, Marker_t, Division 1 Length: 0:00.167 (0:07.500 - 0:07.667) endTick: 290000 
1, 285005, Note_on_c, 0, 81, 99
1, 285877, Note_off_c, 0, 109, 0
1, 289353, Note_off_c, 0, 72, 0
1, 290000, Marker_t, Division 2 Length: 0:00.167 (0:07.667 - 0:07.833) endTick: 295000 
1, 290107, Note_on_c, 0, 72, 99
1, 290158, Note_on_c, 0, 26, 99
1, 290243, Note_on_c, 0, 110, 99
1, 293869, Note_off_c, 0, 59, 0
1, 294365, Note_off_c, 0, 67, 0
1, 295000, Marker_t, Division 3 Length: 0:00.167 (0:07.833 - 0:08.000) endTick: 300000 
1, 295109, Note_on_c, 0, 118, 99
1, 297575, Note_off_c, 0, 60, 0
1, 298097, Note_off_c, 0, 81, 0
1, 300000, Marker_t, Beat 5 Length: 0:00.500 (0:08.000 - 0:08.500) endTick: 315000 
1, 300000, Marker_t, Division 1 Length: 0:00.167 (0:08.000 - 0:08.167) endTick: 305000 
1, 300056, Note_on_c, 0, 95, 99
1, 300059, Note_on_c, 0, 64, 99
1, 300070, Note_on_c, 0, 43, 99
1, 300153, Note_on_c, 0, 78, 99
1, 302352, Note_off_c, 0, 118, 0
1, 302555, Note_off_c, 0, 110, 0
1, 305000, Marker_t, Division 2 Length: 0:00.167 (0:08.167 - 0:08.333) endTick: 310000 
1, 305129, Note_on_c, 0, 47, 99
1, 305542, Note_off_c, 0, 26, 0
1, 306035, Note_off_c, 0, 72, 0
1, 308476, Note_off_c, 0, 64, 0
1, 310000, Marker_t, Division 3 Length: 0:00.167 (0:08.333 - 0:08.500) endTick: 315000 
1, 310006, Note_on_c, 0, 99, 99
1, 310041, Note_on_c, 0, 103, 99
1, 310726, Note_off_c, 0, 99, 0
1, 311760, Note_off_c, 0, 43, 0
1, 313388, Note_off_c, 0, 47, 0
1, 315000, Marker_t, Beat 6 Length: 0:00.500 (0:08.500 - 0:09.000) endTick: 330000 
1, 315000, Marker_t, Division 1 Length: 0:00.167 (0:08.500 - 0:08.667) endTick: 320000 
1, 315057, Note_on_c, 0, 92, 99
1, 315094, Note_on_c, 0, 24, 99
1, 315234, Note_on_c, 0, 114, 99
1, 316012, Note_off_c, 0, 95, 0
1, 320000, Marker_t, Division 2 Length: 0:00.167 (0:08.667 - 0:08.833) endTick: 325000 
1, 320022, Note_on_c, 0, 33, 99
1, 320044, Note_on_c, 0, 117, 99
1, 320063, Note_on_c, 0, 107, 99
1, 320069, Note_on_c, 0, 29, 99
1, 320176, Note_on_c, 0, 38, 99
1, 321550, Note_off_c, 0, 78, 0
1, 325000, Marker_t, Division 3 Length: 0:00.167 (0:08.833 - 0:09.000) endTick: 330000 
1, 325094, Note_on_c, 0, 97, 99
1, 325117, Note_on_c, 0, 46, 99
1, 325122, Note_on_c, 0, 76, 99
1, 325130, Note_on_c, 0, 113, 99
1, 325289, Note_off_c, 0, 103, 0
1, 327670, Note_off_c, 0, 92, 0
1, 329086, Note_off_c, 0, 38, 0
1, 330000, Marker_t, Beat 7 Length: 0:00.500 (0:09.000 - 0:09.500) endTick: 345000 
1, 330000, Marker_t, Division 1 Length: 0:00.083 (0:09.000 - 0:09.083) endTick: 332500 
1, 330105, Note_on_c, 0, 104, 99
1, 330124, Note_on_c, 0, 117, 99
1, 332084, Note_off_c, 0, 114, 0
1, 332275, Note_off_c, 0, 113, 0
1, 332500, Marker_t, Division 2 Length: 0:00.083 (0:09.083 - 0:09.167) endTick: 335000 
1, 332520, Note_on_c, 0, 51, 99
1, 332554, Note_on_c, 0, 43, 99
1, 332592, Note_on_c, 0, 118, 99
1, 332595, Note_on_c, 0, 50, 99
1, 332619, Note_on_c, 0, 42, 99
1, 332798, Note_off_c, 0, 43, 0
1, 332851, Note_off_c, 0, 51, 0
1, 333145, Note_off_c, 0, 42, 0
1, 333157, Note_off_c, 0, 117, 0
1, 333590, Note_off_c, 0, 76, 0
1, 335000, Marker_t, Division 3 Length: 0:00.083 (0:09.167 - 0:09.250) endTick: 337500 
1, 335051, Note_on_c, 0, 51, 99
1, 335205, Note_off_c, 0, 30, 0
1, 336289, Note_off_c, 0, 104, 0
1, 336420, Note_off_c, 0, 117, 0
1, 336614, Note_off_c, 0, 24, 0
1, 336633, Note_off_c, 0, 118, 0
1, 337500, Marker_t, Division 4 Length: 0:00.083 (0:09.250 - 0:09.333) endTick: 340000 
1, 337555, Note_on_c, 0, 112, 99
1, 339553, Note_off_c, 0, 33, 0
1, 339802, Note_off_c, 0, 29, 0
1, 340000, Marker_t, Division 5 Length: 0:00.083 (0:09.333 - 0:09.417) endTick: 342500 
1, 340010, Note_on_c, 0, 46, 99
1, 340120, Note_on_c, 0, 80, 99
1, 340645, Note_off_c, 0, 112, 0
1, 341630, Note_off_c, 0, 97, 0
1, 342323, Note_off_c, 0, 50, 0
1, 342500, Marker_t, Division 6 Length: 0:00.083 (0:09.417 - 0:09.500) endTick: 345000 
1, 342500, Note_on_c, 0, 93, 99
1, 342713, Note_off_c, 0, 107, 0
1, 343343, Note_off_c, 0, 46, 0
1, 345000, Marker_t, Beat 8 Length: 0:00.500 (0:09.500 - 0:10.000) endTick: 360000 
1, 345000, Marker_t, Division 1 Length: 0:00.056 (0:09.500 - 0:09.556) endTick: 346667 
1, 345008, Note_on_c, 0, 82, 99
1, 345010, Note_on_c, 0, 65, 99
1, 345034, Note_on_c, 0, 119, 99
1, 345071, Note_on_c, 0, 28, 99
1, 345075, Note_on_c, 0, 97, 99
1, 345411, Note_off_c, 0, 51, 0
1, 346220, Note_off_c, 0, 93, 0
1, 346308, Note_off_c, 0, 119, 0
1, 346667, Marker_t, Division 2 Length: 0:00.056 (0:09.556 - 0:09.611) endTick: 348333 
1, 346715, Note_on_c, 0, 65, 99
1, 346733, Note_on_c, 0, 38, 99
1, 346734, Note_on_c, 0, 46, 99
1, 346749, Note_on_c, 0, 50, 99
1, 346750, Note_on_c, 0, 99, 99
1, 347097, Note_off_c, 0, 28, 0
1, 347406, Note_off_c, 0, 50, 0
1, 348333, Marker_t, Division 3 Length: 0:00.056 (0:09.611 - 0:09.667) endTick: 350000 
1, 348345, Note_on_c, 0, 59, 99
1, 348369, Note_on_c, 0, 28, 99
1, 348379, Note_on_c, 0, 59, 99
1, 348996, Note_off_c, 0, 59, 0
1, 349267, Note_off_c, 0, 99, 0
1, 349290, Note_off_c, 0, 38, 0
1, 349787, Note_off_c, 0, 97, 0
1, 350000, Marker_t, Division 4 Length: 0:00.056 (0:09.667 - 0:09.722) endTick: 351667 
1, 350072, Note_on_c, 0, 41, 99
1, 350194, Note_off_c, 0, 46, 0
1, 350284, Note_off_c, 0, 65, 0
1, 351152, Note_off_c, 0, 80, 0
1, 351181, Note_off_c, 0, 46, 0
1, 351667, Marker_t, Division 5 Length: 0:00.056 (0:09.722 - 0:09.778) endTick: 353333 
1, 351700, Note_on_c, 0, 67, 99
1, 351886, Note_off_c, 0, 28, 0
1, 352131, Note_off_c, 0, 82, 0
1, 352644, Note_off_c, 0, 65, 0
1, 353333, Marker_t, Division 6 Length: 0:00.056 (0:09.778 - 0:09.833) endTick: 355000 
1, 353393, Note_on_c, 0, 33, 99
1, 353399, Note_on_c, 0, 65, 99
1, 353859, Note_off_c, 0, 65, 0
1, 355000, Marker_t, Division 7 Length: 0:00.056 (0:09.833 - 0:09.889) endTick: 356667 
1, 355022, Note_on_c, 0, 63, 99
1, 355042, Note_on_c, 0, 68, 99
1, 355048, Note_on_c, 0, 28, 99
1, 355053, Note_on_c, 0, 119, 99
1, 355066, Note_on_c, 0, 25, 99
1, 355478, Note_off_c, 0, 59, 0
1, 355513, Note_off_c, 0, 78, 0
1, 356357, Note_off_c, 0, 33, 0
1, 356667, Marker_t, Division 8 Length: 0:00.056 (0:09.889 - 0:09.944) endTick: 358333 
1, 356672, Note_on_c, 0, 96, 99
1, 357555, Note_off_c, 0, 96, 0
1, 358005, Note_off_c, 0, 67, 0
1, 358240, Note_off_c, 0, 41, 0
1, 358333, Marker_t, Division 9 Length: 0:00.056 (0:09.944 - 0:10.000) endTick: 360000 
1, 358354, Note_on_c, 0, 93, 99
1, 358384, Note_on_c, 0, 96, 99
1, 358408, Note_on_c, 0, 70, 99
1, 358416, Note_on_c, 0, 89, 99
1, 358728, Note_off_c, 0, 119, 0
1, 360000, Marker_t, Beat 9 Length: 0:00.500 (0:10.000 - 0:10.500) endTick: 375000 
1, 360000, Marker_t, Division 1 Length: 0:00.125 (0:10.000 - 0:10.125) endTick: 363750 
1, 360002, Note_on_c, 0, 103, 99
1, 360008, Note_on_c, 0, 110, 99
1, 360041, Note_on_c, 0, 112, 99
1, 360041, Note_on_c, 0, 57, 99
1, 360060, Note_off_c, 0, 63, 0
1, 360070, Note_off_c, 0, 28, 0
1, 360089, Note_off_c, 0, 25, 0
1, 360406, Note_off_c, 0, 70, 0
1, 362429, Note_off_c, 0, 68, 0
1, 363046, Note_off_c, 0, 89, 0
1, 363548, Note_off_c, 0, 96, 0
1, 363750, Marker_t, Division 2 Length: 0:00.125 (0:10.125 - 0:10.250) endTick: 367500 
1, 363801, Note_on_c, 0, 108, 99
1, 363890, Note_on_c, 0, 43, 99
1, 364280, Note_off_c, 0, 93, 0
1, 364299, Note_off_c, 0, 112, 0
1, 365588, Note_off_c, 0, 103, 0
1, 367500, Marker_t, Division 3 Length: 0:00.125 (0:10.250 - 0:10.375) endTick: 371250 
1, 367661, Note_on_c, 0, 47, 99
1, 367679, Note_on_c, 0, 61, 99
1, 371250, Marker_t, Division 4 Length: 0:00.125 (0:10.375 - 0:10.500) endTick: 375000 
1, 371329, Note_on_c, 0, 75, 99
1, 371379, Note_on_c, 0, 81, 99
1, 373448, Note_off_c, 0, 110, 0
1, 373684, Note_off_c, 0, 75, 0
1, 373751, Note_off_c, 0, 43, 0
1, 375000, Marker_t, Beat 10 Length: 0:00.500 (0:10.500 - 0:11.000) endTick: 390000 
1, 375000, Marker_t, Division 1 Length: 0:00.050 (0:10.500 - 0:10.550) endTick: 376500 
1, 375023, Note_on_c, 0, 90, 99
1, 375034, Note_on_c, 0, 35, 99
1, 375047, Note_on_c, 0, 69, 99
1, 375052, Note_on_c, 0, 36, 99
1, 375068, Note_on_c, 0, 41, 99
1, 375458, Note_off_c, 0, 41, 0
1, 376096, Note_off_c, 0, 61, 0
1, 376500, Marker_t, Division 2 Length: 0:00.050 (0:10.550 - 0:10.600) endTick: 378000 
1, 376516, Note_on_c, 0, 32, 99
1, 376561, Note_on_c, 0, 47, 99
1, 376692, Note_off_c, 0, 108, 0
1, 377049, Note_off_c, 0, 47, 0
1, 377468, Note_off_c, 0, 57, 0
1, 378000, Marker_t, Division 3 Length: 0:00.050 (0:10.600 - 0:10.650) endTick: 379500 
1, 378022, Note_on_c, 0, 49, 99
1, 378060, Note_off_c, 0, 81, 0
1, 378666, Note_off_c, 0, 32, 0
1, 379227, Note_off_c, 0, 49, 0
1, 379307, Note_off_c, 0, 47, 0
1, 379500, Marker_t, Division 4 Length: 0:00.050 (0:10.650 - 0:10.700) endTick: 381000 
1, 379505, Note_on_c, 0, 29, 99
1, 379516, Note_on_c, 0, 74, 99
1, 379519, Note_on_c, 0, 96, 99
1, 379849, Note_off_c, 0, 36, 0
1, 380019, Note_off_c, 0, 35, 0
1, 380057, Note_off_c, 0, 29, 0
1, 380701, Note_off_c, 0, 96, 0
1, 381000, Marker_t, Division 5 Length: 0:00.050 (0:10.700 - 0:10.750) endTick: 382500 
1, 381001, Note_on_c, 0, 67, 99
1, 381021, Note_on_c, 0, 41, 99
1, 381031, Note_on_c, 0, 42, 99
1, 381302, Note_off_c, 0, 41, 0
1, 381853, Note_off_c, 0, 90, 0
1, 382381, Note_off_c, 0, 69, 0
1, 382500, Marker_t, Division 6 Length: 0:00.050 (0:10.750 - 0:10.800) endTick: 384000 
1, 382509, Note_on_c, 0, 99, 99
1, 382517, Note_on_c, 0, 93, 99
1, 382531, Note_on_c, 0, 70, 99
1, 382540, Note_on_c, 0, 51, 99
1, 382552, Note_on_c, 0, 59, 99
1, 383305, Note_off_c, 0, 74, 0
1, 384000, Marker_t, Division 7 Length: 0:00.050 (0:10.800 - 0:10.850) endTick: 385500 
1, 384012, Note_on_c, 0, 68, 99
1, 384015, Note_on_c, 0, 61, 99
1, 384022, Note_on_c, 0, 114, 99
1, 384034, Note_on_c, 0, 55, 99
1, 384041, Note_on_c, 0, 31, 99
1, 384587, Note_off_c, 0, 51, 0
1, 384700, Note_off_c, 0, 93, 0
1, 385105, Note_off_c, 0, 55, 0
1, 385500, Marker_t, Division 8 Length: 0:00.050 (0:10.850 - 0:10.900) endTick: 387000 
1, 385521, Note_on_c, 0, 26, 99
1, 385528, Note_on_c, 0, 31, 99
1, 386019, Note_off_c, 0, 59, 0
1, 386061, Note_off_c, 0, 42, 0
1, 386886, Note_off_c, 0, 31, 0
1, 387000, Marker_t, Division 9 Length: 0:00.050 (0:10.900 - 0:10.950) endTick: 388500 
1, 387043, Note_on_c, 0, 95, 99
1, 387054, Note_on_c, 0, 33, 99
1, 387059, Note_on_c, 0, 94, 99
1, 387062, Note_on_c, 0, 95, 99
1, 387069, Note_on_c, 0, 42, 99
1, 387072, Note_on_c, 0, 37, 99
1, 387452, Note_off_c, 0, 31, 0
1, 387636, Note_off_c, 0, 99, 0
1, 387658, Note_off_c, 0, 67, 0
1, 388031, Note_off_c, 0, 114, 0
1, 388121, Note_off_c, 0, 95, 0
1, 388500, Marker_t, Division 10 Length: 0:00.050 (0:10.950 - 0:11.000) endTick: 390000 
1, 388522, Note_on_c, 0, 83, 99
1, 388539, Note_on_c, 0, 117, 99
1, 388572, Note_on_c, 0, 77, 99
1, 388575, Note_on_c, 0, 53, 99
1, 388717, Note_off_c, 0, 33, 0
1, 388923, Note_off_c, 0, 94, 0
1, 388958, Note_off_c, 0, 42, 0
1, 389598, Note_off_c, 0, 70, 0
1, 389615, Note_off_c, 0, 26, 0
1, 390000, Marker_t, Beat 11 Length: 0:00.500 (0:11.000 - 0:11.500) endTick: 405000 
1, 390000, Marker_t, Division 1 Length: 0:00.071 (0:11.000 - 0:11.071) endTick: 392143 
1, 390056, Note_on_c, 0, 118, 99
1, 390323, Note_off_c, 0, 117, 0
1, 391008, Note_off_c, 0, 68, 0
1, 391129, Note_off_c, 0, 61, 0
1, 391549, Note_off_c, 0, 77, 0
1, 391936, Note_off_c, 0, 53, 0
1, 392143, Marker_t, Division 2 Length: 0:00.071 (0:11.071 - 0:11.143) endTick: 394286 
1, 392153, Note_on_c, 0, 89, 99
1, 392176, Note_on_c, 0, 95, 99
1, 392245, Note_on_c, 0, 74, 99
1, 392247, Note_on_c, 0, 33, 99
1, 392313, Note_off_c, 0, 118, 0
1, 392640, Note_off_c, 0, 33, 0
1, 392740, Note_off_c, 0, 95, 0
1, 393456, Note_off_c, 0, 95, 0
1, 393723, Note_off_c, 0, 37, 0
1, 394286, Marker_t, Division 3 Length: 0:00.071 (0:11.143 - 0:11.214) endTick: 396429 
1, 394327, Note_on_c, 0, 34, 99
1, 394338, Note_on_c, 0, 79, 99
1, 394365, Note_on_c, 0, 51, 99
1, 395542, Note_off_c, 0, 89, 0
1, 395855, Note_off_c, 0, 83, 0
1, 396234, Note_off_c, 0, 34, 0
1, 396429, Marker_t, Division 4 Length: 0:00.071 (0:11.214 - 0:11.286) endTick: 398571 
1, 396481, Note_on_c, 0, 44, 99
1, 396498, Note_on_c, 0, 102, 99
1, 396511, Note_on_c, 0, 28, 99
1, 397232, Note_off_c, 0, 74, 0
1, 398571, Marker_t, Division 5 Length: 0:00.071 (0:11.286 - 0:11.357) endTick: 400714 
1, 398572, Note_on_c, 0, 116, 99
1, 398600, Note_on_c, 0, 109, 99
1, 398621, Note_on_c, 0, 93, 99
1, 398671, Note_on_c, 0, 53, 99
1, 400714, Marker_t, Division 6 Length: 0:00.071 (0:11.357 - 0:11.429) endTick: 402857 
1, 400714, Note_on_c, 0, 41, 99
1, 400728, Note_on_c, 0, 24, 99
1, 400732, Note_on_c, 0, 54, 99
1, 402681, Note_off_c, 0, 41, 0
1, 402792, Note_off_c, 0, 116, 0
1, 402800, Note_off_c, 0, 28, 0
1, 402857, Marker_t, Division 7 Length: 0:00.071 (0:11.429 - 0:11.500) endTick: 405000 
1, 402963, Note_on_c, 0, 47, 99
1, 403424, Note_off_c, 0, 54, 0
1, 403867, Note_off_c, 0, 79, 0
1, 403937, Note_off_c, 0, 44, 0
1, 404479, Note_off_c, 0, 51, 0
1, 405000, Marker_t, Beat 12 Length: 0:00.500 (0:11.500 - 0:12.000) endTick: 420000 
1, 405000, Marker_t, Division 1 Length: 0:00.056 (0:11.500 - 0:11.556) endTick: 406667 
1, 405042, Note_on_c, 0, 29, 99
1, 405061, Note_on_c, 0, 49, 99
1, 405074, Note_on_c, 0, 65, 99
1, 405310, Note_off_c, 0, 65, 0
1, 406104, Note_off_c, 0, 102, 0
1, 406667, Marker_t, Division 2 Length: 0:00.056 (0:11.556 - 0:11.611) endTick: 408333 
1, 406689, Note_on_c, 0, 96, 99
1, 406726, Note_on_c, 0, 35, 99
1, 406731, Note_on_c, 0, 105, 99
1, 406744, Note_on_c, 0, 96, 99
1, 406746, Note_on_c, 0, 90, 99
1, 406746, Note_on_c, 0, 104, 99
1, 407337, Note_off_c, 0, 96, 0
1, 407480, Note_off_c, 0, 104, 0
1, 407548, Note_off_c, 0, 96, 0
1, 407720, Note_off_c, 0, 24, 0
1, 407776, Note_off_c, 0, 93, 0
1, 407815, Note_off_c, 0, 29, 0
1, 407896, Note_off_c, 0, 35, 0
1, 407979, Note_off_c, 0, 90, 0
1, 408333, Marker_t, Division 3 Length: 0:00.056 (0:11.611 - 0:11.667) endTick: 410000 
1, 408364, Note_on_c, 0, 47, 99
1, 408613, Note_off_c, 0, 109, 0
1, 408711, Note_off_c, 0, 53, 0
1, 409985, Note_off_c, 0, 105, 0
1, 410000, Marker_t, Division 4 Length: 0:00.056 (0:11.667 - 0:11.722) endTick: 411667 
1, 410007, Note_on_c, 0, 74, 99
1, 410042, Note_on_c, 0, 93, 99
1, 410783, Note_off_c, 0, 47, 0
1, 410827, Note_off_c, 0, 49, 0
1, 411190, Note_off_c, 0, 74, 0
1, 411281, Note_off_c, 0, 47, 0
1, 411667, Marker_t, Division 5 Length: 0:00.056 (0:11.722 - 0:11.778) endTick: 413333 
1, 411682, Note_on_c, 0, 52, 99
1, 411684, Note_on_c, 0, 41, 99
1, 411690, Note_on_c, 0, 82, 99
1, 411713, Note_on_c, 0, 107, 99
1, 411726, Note_on_c, 0, 95, 99
1, 413333, Marker_t, Division 6 Length: 0:00.056 (0:11.778 - 0:11.833) endTick: 415000 
1, 413340, Note_on_c, 0, 27, 99
1, 413377, Note_on_c, 0, 36, 99
1, 413407, Note_on_c, 0, 119, 99
1, 413433, Note_off_c, 0, 41, 0
1, 414504, Note_off_c, 0, 82, 0
1, 414581, Note_off_c, 0, 93, 0
1, 414803, Note_off_c, 0, 36, 0
1, 415000, Marker_t, Division 7 Length: 0:00.056 (0:11.833 - 0:11.889) endTick: 416667 
1, 415019, Note_on_c, 0, 103, 99
1, 415033, Note_on_c, 0, 43, 99
1, 415060, Note_on_c, 0, 82, 99
1, 415072, Note_on_c, 0, 65, 99
1, 416667, Marker_t, Division 8 Length: 0:00.056 (0:11.889 - 0:11.944) endTick: 418333 
1, 416673, Note_on_c, 0, 25, 99
1, 416693, Note_on_c, 0, 47, 99
1, 418333, Marker_t, Division 9 Length: 0:00.056 (0:11.944 - 0:12.000) endTick: 420000 
1, 418350, Note_on_c, 0, 91, 99
1, 418359, Note_on_c, 0, 111, 99
1, 418615, Note_off_c, 0, 119, 0
1, 418705, Note_off_c, 0, 111, 0
1, 418721, Note_off_c, 0, 47, 0
1, 418979, Note_off_c, 0, 43, 0
1, 419224, Note_off_c, 0, 52, 0
1, 419350, Note_off_c, 0, 65, 0
1, 419562, Note_off_c, 0, 107, 0
1, 419956, Note_off_c, 0, 95, 0
1, 420000, Marker_t, Beat 13 Length: 0:00.500 (0:12.000 - 0:12.500) endTick: 435000 
1, 420000, Marker_t, Division 1 Length: 0:00.056 (0:12.000 - 0:12.056) endTick: 421667 
1, 420017, Note_on_c, 0, 114, 99
1, 420072, Note_on_c, 0, 48, 99
1, 420165, Note_off_c, 0, 82, 0
1, 420192, Note_off_c, 0, 27, 0
1, 421209, Note_off_c, 0, 103, 0
1, 421667, Marker_t, Division 2 Length: 0:00.056 (0:12.056 - 0:12.111) endTick: 423333 
1, 421674, Note_on_c, 0, 65, 99
1, 421680, Note_on_c, 0, 32, 99
1, 421710, Note_on_c, 0, 110, 99
1, 421717, Note_on_c, 0, 25, 99
1, 421741, Note_on_c, 0, 107, 99
1, 423187, Note_off_c, 0, 32, 0
1, 423333, Marker_t, Division 3 Length: 0:00.056 (0:12.111 - 0:12.167) endTick: 425000 
1, 423354, Note_on_c, 0, 84, 99
1, 423413, Note_on_c, 0, 45, 99
1, 423739, Note_off_c, 0, 25, 0
1, 423961, Note_off_c, 0, 84, 0
1, 424344, Note_off_c, 0, 65, 0
1, 424605, Note_off_c, 0, 48, 0
1, 425000, Marker_t, Division 4 Length: 0:00.056 (0:12.167 - 0:12.222) endTick: 426667 
1, 425036, Note_on_c, 0, 28, 99
1, 425039, Note_on_c, 0, 73, 99
1, 425052, Note_on_c, 0, 66, 99
1, 425055, Note_on_c, 0, 107, 99
1, 425820, Note_off_c, 0, 73, 0
1, 426622, Note_off_c, 0, 91, 0
1, 426667, Marker_t, Division 5 Length: 0:00.056 (0:12.222 - 0:12.278) endTick: 428333 
1, 426697, Note_on_c, 0, 77, 99
1, 426853, Note_off_c, 0, 25, 0
1, 427378, Note_off_c, 0, 77, 0
1, 427676, Note_off_c, 0, 45, 0
1, 427699, Note_off_c, 0, 114, 0
1, 428295, Note_off_c, 0, 110, 0
1, 428333, Marker_t, Division 6 Length: 0:00.056 (0:12.278 - 0:12.333) endTick: 430000 
1, 428371, Note_on_c, 0, 62, 99
1, 428376, Note_on_c, 0, 108, 99
1, 428379, Note_on_c, 0, 96, 99
1, 429237, Note_off_c, 0, 28, 0
1, 429516, Note_off_c, 0, 107, 0
1, 429672, Note_off_c, 0, 108, 0
1, 430000, Marker_t, Division 7 Length: 0:00.056 (0:12.333 - 0:12.389) endTick: 431667 
1, 430003, Note_on_c, 0, 112, 99
1, 430025, Note_on_c, 0, 47, 99
1, 430044, Note_on_c, 0, 112, 99
1, 430052, Note_on_c, 0, 95, 99
1, 430060, Note_on_c, 0, 94, 99
1, 430197, Note_off_c, 0, 62, 0
1, 430252, Note_off_c, 0, 107, 0
1, 430336, Note_off_c, 0, 66, 0
1, 431667, Marker_t, Division 8 Length: 0:00.056 (0:12.389 - 0:12.444) endTick: 433333 
1, 431669, Note_on_c, 0, 37, 99
1, 431690, Note_on_c, 0, 113, 99
1, 431743, Note_on_c, 0, 67, 99
1, 431745, Note_on_c, 0, 57, 99
1, 432395, Note_off_c, 0, 112, 0
1, 433297, Note_off_c, 0, 96, 0
1, 433333, Marker_t, Division 9 Length: 0:00.056 (0:12.444 - 0:12.500) endTick: 435000 
1, 433368, Note_on_c, 0, 112, 99
1, 433383, Note_on_c, 0, 83, 99
1, 433548, Note_off_c, 0, 83, 0
1, 433831, Note_off_c, 0, 47, 0
1, 434287, Note_off_c, 0, 94, 0
1, 434798, Note_off_c, 0, 112, 0
1, 435000, Time_signature, 14, 3, 24, 8
1, 435000, Tempo, 750000
1, 435000, Marker_t, Measure 4 Length: 0:05.250 (0:12.500 - 0:17.750) endTick: 645000 Original Meter: 14/6 Spoofed Meter: 14/8
1, 435000, Marker_t, Beat 1 Length: 0:00.375 (0:12.500 - 0:12.875) endTick: 450000 
1, 435000, Marker_t, Division 1 Length: 0:00.188 (0:12.500 - 0:12.688) endTick: 442500 
1, 435261, Note_off_c, 0, 67, 0
1, 435357, Note_on_c, 0, 72, 99
1, 435371, Note_on_c, 0, 113, 99
1, 436807, Note_off_c, 0, 95, 0
1, 438120, Note_off_c, 0, 37, 0
1, 438674, Note_off_c, 0, 57, 0
1, 439537, Note_off_c, 0, 113, 0
1, 440306, Note_off_c, 0, 112, 0
1, 442500, Marker_t, Division 2 Length: 0:00.188 (0:12.688 - 0:12.875) endTick: 450000 
1, 442541, Note_on_c, 0, 98, 99
1, 442679, Note_on_c, 0, 53, 99
1, 442725, Note_on_c, 0, 84, 99
1, 442865, Note_on_c, 0, 115, 99
1, 450000, Marker_t, Beat 2 Length: 0:00.375 (0:12.875 - 0:13.250) endTick: 465000 
1, 450000, Marker_t, Division 1 Length: 0:00.094 (0:12.875 - 0:12.969) endTick: 453750 
1, 450079, Note_on_c, 0, 79, 99
1, 450091, Note_on_c, 0, 26, 99
1, 453750, Marker_t, Division 2 Length: 0:00.094 (0:12.969 - 0:13.063) endTick: 457500 
1, 453895, Note_on_c, 0, 67, 99
1, 453920, Note_off_c, 0, 79, 0
1, 455460, Note_off_c, 0, 115, 0
1, 457135, Note_off_c, 0, 67, 0
1, 457500, Marker_t, Division 3 Length: 0:00.094 (0:13.063 - 0:13.156) endTick: 461250 
1, 457512, Note_on_c, 0, 105, 99
1, 457634, Note_on_c, 0, 38, 99
1, 458084, Note_off_c, 0, 26, 0
1, 461250, Marker_t, Division 4 Length: 0:00.094 (0:13.156 - 0:13.250) endTick: 465000 
1, 461254, Note_on_c, 0, 36, 99
1, 461261, Note_on_c, 0, 108, 99
1, 461297, Note_on_c, 0, 41, 99
1, 461309, Note_on_c, 0, 107, 99
1, 461356, Note_off_c, 0, 72, 0
1, 461414, Note_on_c, 0, 64, 99
1, 465000, Marker_t, Beat 3 Length: 0:00.375 (0:13.250 - 0:13.625) endTick: 480000 
1, 465000, Marker_t, Division 1 Length: 0:00.125 (0:13.250 - 0:13.375) endTick: 470000 
1, 465061, Note_on_c, 0, 67, 99
1, 465231, Note_on_c, 0, 59, 99
1, 465241, Note_on_c, 0, 29, 99
1, 465625, Note_off_c, 0, 29, 0
1, 466704, Note_off_c, 0, 84, 0
1, 467297, Note_off_c, 0, 105, 0
1, 468650, Note_off_c, 0, 107, 0
1, 469111, Note_off_c, 0, 113, 0
1, 470000, Marker_t, Division 2 Length: 0:00.125 (0:13.375 - 0:13.500) endTick: 475000 
1, 470043, Note_on_c, 0, 55, 99
1, 470055, Note_on_c, 0, 48, 99
1, 470066, Note_on_c, 0, 36, 99
1, 470102, Note_on_c, 0, 110, 99
1, 471113, Note_off_c, 0, 41, 0
1, 471301, Note_off_c, 0, 36, 0
1, 472377, Note_off_c, 0, 38, 0
1, 474067, Note_off_c, 0, 64, 0
1, 474557, Note_off_c, 0, 108, 0
1, 475000, Marker_t, Division 3 Length: 0:00.125 (0:13.500 - 0:13.625) endTick: 480000 
1, 475083, Note_on_c, 0, 24, 99
1, 475111, Note_on_c, 0, 117, 99
1, 475168, Note_on_c, 0, 95, 99
1, 475189, Note_on_c, 0, 62, 99
1, 475245, Note_on_c, 0, 48, 99
1, 475660, Note_off_c, 0, 59, 0
1, 476067, Note_off_c, 0, 53, 0
1, 476764, Note_off_c, 0, 98, 0
1, 480000, Marker_t, Beat 4 Length: 0:00.375 (0:13.625 - 0:14.000) endTick: 495000 
1, 480000, Marker_t, Division 1 Length: 0:00.054 (0:13.625 - 0:13.679) endTick: 482143 
1, 480084, Note_on_c, 0, 115, 99
1, 480976, Note_off_c, 0, 48, 0
1, 481432, Note_off_c, 0, 48, 0
1, 482143, Marker_t, Division 2 Length: 0:00.054 (0:13.679 - 0:13.732) endTick: 484286 
1, 482158, Note_on_c, 0, 59, 99
1, 482187, Note_on_c, 0, 89, 99
1, 482233, Note_on_c, 0, 64, 99
1, 482240, Note_on_c, 0, 59, 99
1, 482659, Note_off_c, 0, 64, 0
1, 482929, Note_off_c, 0, 95, 0
1, 484286, Marker_t, Division 3 Length: 0:00.054 (0:13.732 - 0:13.786) endTick: 486429 
1, 484292, Note_on_c, 0, 100, 99
1, 484298, Note_on_c, 0, 28, 99
1, 484323, Note_on_c, 0, 93, 99
1, 484370, Note_on_c, 0, 74, 99
1, 485371, Note_off_c, 0, 55, 0
1, 485624, Note_off_c, 0, 59, 0
1, 485774, Note_off_c, 0, 59, 0
1, 486051, Note_off_c, 0, 67, 0
1, 486259, Note_off_c, 0, 115, 0
1, 486429, Marker_t, Division 4 Length: 0:00.054 (0:13.786 - 0:13.839) endTick: 488571 
1, 486432, Note_on_c, 0, 26, 99
1, 487132, Note_off_c, 0, 62, 0
1, 487272, Note_off_c, 0, 117, 0
1, 488513, Note_off_c, 0, 89, 0
1, 488571, Marker_t, Division 5 Length: 0:00.054 (0:13.839 - 0:13.893) endTick: 490714 
1, 488580, Note_on_c, 0, 35, 99
1, 488593, Note_on_c, 0, 95, 99
1, 488641, Note_on_c, 0, 100, 99
1, 488674, Note_on_c, 0, 29, 99
1, 488852, Note_off_c, 0, 35, 0
1, 489057, Note_off_c, 0, 95, 0
1, 489123, Note_off_c, 0, 110, 0
1, 490714, Marker_t, Division 6 Length: 0:00.054 (0:13.893 - 0:13.946) endTick: 492857 
1, 490730, Note_on_c, 0, 67, 99
1, 490794, Note_on_c, 0, 77, 99
1, 490797, Note_on_c, 0, 83, 99
1, 490811, Note_on_c, 0, 43, 99
1, 491180, Note_off_c, 0, 28, 0
1, 491481, Note_off_c, 0, 100, 0
1, 491629, Note_off_c, 0, 100, 0
1, 491947, Note_off_c, 0, 93, 0
1, 492338, Note_off_c, 0, 83, 0
1, 492857, Marker_t, Division 7 Length: 0:00.054 (0:13.946 - 0:14.000) endTick: 495000 
1, 492861, Note_on_c, 0, 77, 99
1, 492894, Note_off_c, 0, 24, 0
1, 492924, Note_on_c, 0, 91, 99
1, 492949, Note_on_c, 0, 31, 99
1, 492954, Note_on_c, 0, 79, 99
1, 493253, Note_off_c, 0, 77, 0
1, 493272, Note_off_c, 0, 43, 0
1, 493762, Note_off_c, 0, 74, 0
1, 493910, Note_off_c, 0, 36, 0
1, 493973, Note_off_c, 0, 67, 0
1, 494071, Note_off_c, 0, 79, 0
1, 494746, Note_off_c, 0, 29, 0
1, 495000, Marker_t, Beat 5 Length: 0:00.375 (0:14.000 - 0:14.375) endTick: 510000 
1, 495000, Marker_t, Division 1 Length: 0:00.375 (0:14.000 - 0:14.375) endTick: 510000 
1, 495575, Note_off_c, 0, 31, 0
1, 495643, Note_on_c, 0, 26, 99
1, 496741, Note_off_c, 0, 91, 0
1, 496928, Note_off_c, 0, 26, 0
1, 497933, Note_off_c, 0, 77, 0
1, 510000, Marker_t, Beat 6 Length: 0:00.375 (0:14.375 - 0:14.750) endTick: 525000 
1, 510000, Marker_t, Division 1 Length: 0:00.037 (0:14.375 - 0:14.412) endTick: 511500 
1, 510015, Note_on_c, 0, 76, 99
1, 510061, Note_on_c, 0, 72, 99
1, 511500, Marker_t, Division 2 Length: 0:00.037 (0:14.412 - 0:14.450) endTick: 513000 
1, 511516, Note_on_c, 0, 91, 99
1, 511521, Note_on_c, 0, 59, 99
1, 511571, Note_on_c, 0, 101, 99
1, 511575, Note_on_c, 0, 84, 99
1, 512257, Note_off_c, 0, 76, 0
1, 513000, Marker_t, Division 3 Length: 0:00.037 (0:14.450 - 0:14.487) endTick: 514500 
1, 513037, Note_on_c, 0, 41, 99
1, 513447, Note_off_c, 0, 84, 0
1, 513794, Note_off_c, 0, 72, 0
1, 514500, Marker_t, Division 4 Length: 0:00.037 (0:14.488 - 0:14.525) endTick: 516000 
1, 514507, Note_on_c, 0, 91, 99
1, 514544, Note_on_c, 0, 72, 99
1, 515424, Note_off_c, 0, 59, 0
1, 516000, Marker_t, Division 5 Length: 0:00.037 (0:14.525 - 0:14.563) endTick: 517500 
1, 516045, Note_on_c, 0, 71, 99
1, 516090, Note_off_c, 0, 41, 0
1, 517500, Marker_t, Division 6 Length: 0:00.037 (0:14.563 - 0:14.600) endTick: 519000 
1, 517512, Note_on_c, 0, 83, 99
1, 517532, Note_on_c, 0, 110, 99
1, 517537, Note_on_c, 0, 62, 99
1, 517566, Note_on_c, 0, 60, 99
1, 517575, Note_on_c, 0, 62, 99
1, 518407, Note_off_c, 0, 91, 0
1, 518996, Note_off_c, 0, 101, 0
1, 519000, Marker_t, Division 7 Length: 0:00.037 (0:14.600 - 0:14.637) endTick: 520500 
1, 519027, Note_on_c, 0, 84, 99
1, 519029, Note_on_c, 0, 119, 99
1, 519034, Note_on_c, 0, 62, 99
1, 519069, Note_on_c, 0, 95, 99
1, 519238, Note_off_c, 0, 71, 0
1, 519401, Note_off_c, 0, 72, 0
1, 520500, Marker_t, Division 8 Length: 0:00.037 (0:14.637 - 0:14.675) endTick: 522000 
1, 520505, Note_on_c, 0, 43, 99
1, 520526, Note_on_c, 0, 71, 99
1, 520572, Note_on_c, 0, 91, 99
1, 520671, Note_off_c, 0, 62, 0
1, 520839, Note_off_c, 0, 62, 0
1, 521742, Note_off_c, 0, 91, 0
1, 522000, Marker_t, Division 9 Length: 0:00.037 (0:14.675 - 0:14.713) endTick: 523500 
1, 522052, Note_on_c, 0, 86, 99
1, 522066, Note_off_c, 0, 83, 0
1, 522073, Note_on_c, 0, 50, 99
1, 522427, Note_off_c, 0, 119, 0
1, 523075, Note_off_c, 0, 62, 0
1, 523327, Note_off_c, 0, 60, 0
1, 523500, Marker_t, Division 10 Length: 0:00.037 (0:14.713 - 0:14.750) endTick: 525000 
1, 523502, Note_on_c, 0, 95, 99
1, 523504, Note_off_c, 0, 50, 0
1, 523504, Note_on_c, 0, 31, 99
1, 523525, Note_on_c, 0, 53, 99
1, 523525, Note_on_c, 0, 59, 99
1, 523629, Note_off_c, 0, 84, 0
1, 524099, Note_off_c, 0, 43, 0
1, 524126, Note_off_c, 0, 95, 0
1, 524301, Note_off_c, 0, 59, 0
1, 524469, Note_off_c, 0, 110, 0
1, 525000, Marker_t, Beat 7 Length: 0:00.375 (0:14.750 - 0:15.125) endTick: 540000 
1, 525000, Marker_t, Division 1 Length: 0:00.188 (0:14.750 - 0:14.938) endTick: 532500 
1, 525017, Note_on_c, 0, 115, 99
1, 525048, Note_on_c, 0, 55, 99
1, 525234, Note_on_c, 0, 105, 99
1, 525319, Note_off_c, 0, 53, 0
1, 525481, Note_off_c, 0, 31, 0
1, 525896, Note_off_c, 0, 71, 0
1, 527825, Note_off_c, 0, 91, 0
1, 528157, Note_off_c, 0, 86, 0
1, 529430, Note_off_c, 0, 95, 0
1, 532500, Marker_t, Division 2 Length: 0:00.188 (0:14.938 - 0:15.125) endTick: 540000 
1, 532640, Note_on_c, 0, 71, 99
1, 532729, Note_on_c, 0, 112, 99
1, 532845, Note_on_c, 0, 31, 99
1, 540000, Marker_t, Beat 8 Length: 0:00.375 (0:15.125 - 0:15.500) endTick: 555000 
1, 540000, Marker_t, Division 1 Length: 0:00.063 (0:15.125 - 0:15.188) endTick: 542500 
1, 540099, Note_on_c, 0, 53, 99
1, 542131, Note_off_c, 0, 31, 0
1, 542500, Marker_t, Division 2 Length: 0:00.063 (0:15.188 - 0:15.250) endTick: 545000 
1, 542536, Note_on_c, 0, 83, 99
1, 542572, Note_on_c, 0, 24, 99
1, 542589, Note_on_c, 0, 35, 99
1, 542891, Note_off_c, 0, 24, 0
1, 545000, Marker_t, Division 3 Length: 0:00.063 (0:15.250 - 0:15.313) endTick: 547500 
1, 545043, Note_on_c, 0, 35, 99
1, 545081, Note_on_c, 0, 24, 99
1, 545111, Note_on_c, 0, 57, 99
1, 545951, Note_off_c, 0, 105, 0
1, 547500, Marker_t, Division 4 Length: 0:00.063 (0:15.313 - 0:15.375) endTick: 550000 
1, 547533, Note_on_c, 0, 89, 99
1, 547538, Note_off_c, 0, 24, 0
1, 547594, Note_on_c, 0, 40, 99
1, 547748, Note_off_c, 0, 35, 0
1, 548177, Note_off_c, 0, 57, 0
1, 548440, Note_off_c, 0, 53, 0
1, 550000, Marker_t, Division 5 Length: 0:00.063 (0:15.375 - 0:15.438) endTick: 552500 
1, 550061, Note_on_c, 0, 47, 99
1, 550100, Note_on_c, 0, 88, 99
1, 550299, Note_off_c, 0, 55, 0
1, 551236, Note_off_c, 0, 112, 0
1, 552500, Marker_t, Division 6 Length: 0:00.063 (0:15.438 - 0:15.500) endTick: 555000 
1, 552522, Note_on_c, 0, 95, 99
1, 552610, Note_on_c, 0, 93, 99
1, 552613, Note_on_c, 0, 59, 99
1, 553083, Note_off_c, 0, 71, 0
1, 554248, Note_off_c, 0, 83, 0
1, 554742, Note_off_c, 0, 40, 0
1, 555000, Marker_t, Beat 9 Length: 0:00.375 (0:15.500 - 0:15.875) endTick: 570000 
1, 555000, Marker_t, Division 1 Length: 0:00.094 (0:15.500 - 0:15.594) endTick: 558750 
1, 555009, Note_on_c, 0, 33, 99
1, 555026, Note_on_c, 0, 107, 99
1, 555182, Note_on_c, 0, 72, 99
1, 555184, Note_on_c, 0, 115, 99
1, 555615, Note_off_c, 0, 88, 0
1, 555667, Note_off_c, 0, 89, 0
1, 555992, Note_off_c, 0, 35, 0
1, 556261, Note_off_c, 0, 93, 0
1, 558750, Marker_t, Division 2 Length: 0:00.094 (0:15.594 - 0:15.688) endTick: 562500 
1, 558795, Note_on_c, 0, 60, 99
1, 558797, Note_off_c, 0, 115, 0
1, 558831, Note_on_c, 0, 71, 99
1, 558899, Note_on_c, 0, 50, 99
1, 558903, Note_on_c, 0, 101, 99
1, 560763, Note_off_c, 0, 59, 0
1, 562268, Note_off_c, 0, 71, 0
1, 562287, Note_off_c, 0, 47, 0
1, 562500, Marker_t, Division 3 Length: 0:00.094 (0:15.688 - 0:15.781) endTick: 566250 
1, 562571, Note_on_c, 0, 96, 99
1, 562572, Note_on_c, 0, 28, 99
1, 563273, Note_off_c, 0, 33, 0
1, 564059, Note_off_c, 0, 95, 0
1, 565606, Note_off_c, 0, 107, 0
1, 566167, Note_off_c, 0, 72, 0
1, 566250, Marker_t, Division 4 Length: 0:00.094 (0:15.781 - 0:15.875) endTick: 570000 
1, 566278, Note_on_c, 0, 57, 99
1, 566634, Note_off_c, 0, 26, 0
1, 568222, Note_off_c, 0, 115, 0
1, 568709, Note_off_c, 0, 57, 0
1, 568780, Note_off_c, 0, 50, 0
1, 570000, Marker_t, Beat 10 Length: 0:00.375 (0:15.875 - 0:16.250) endTick: 585000 
1, 570000, Marker_t, Division 1 Length: 0:00.042 (0:15.875 - 0:15.917) endTick: 571667 
1, 570054, Note_on_c, 0, 43, 99
1, 570056, Note_on_c, 0, 48, 99
1, 570075, Note_on_c, 0, 83, 99
1, 570441, Note_off_c, 0, 48, 0
1, 571588, Note_off_c, 0, 83, 0
1, 571667, Marker_t, Division 2 Length: 0:00.042 (0:15.917 - 0:15.958) endTick: 573333 
1, 571671, Note_on_c, 0, 84, 99
1, 571687, Note_on_c, 0, 60, 99
1, 571696, Note_on_c, 0, 81, 99
1, 571727, Note_on_c, 0, 38, 99
1, 572603, Note_off_c, 0, 81, 0
1, 572717, Note_off_c, 0, 60, 0
1, 572992, Note_off_c, 0, 96, 0
1, 573333, Marker_t, Division 3 Length: 0:00.042 (0:15.958 - 0:16.000) endTick: 575000 
1, 573411, Note_on_c, 0, 50, 99
1, 573756, Note_off_c, 0, 43, 0
1, 575000, Marker_t, Division 4 Length: 0:00.042 (0:16.000 - 0:16.042) endTick: 576667 
1, 575001, Note_on_c, 0, 48, 99
1, 575035, Note_on_c, 0, 86, 99
1, 575050, Note_on_c, 0, 91, 99
1, 575054, Note_on_c, 0, 96, 99
1, 575055, Note_off_c, 0, 84, 0
1, 575063, Note_on_c, 0, 74, 99
1, 575658, Note_off_c, 0, 86, 0
1, 575815, Note_off_c, 0, 101, 0
1, 576220, Note_off_c, 0, 50, 0
1, 576593, Note_off_c, 0, 38, 0
1, 576667, Marker_t, Division 5 Length: 0:00.042 (0:16.042 - 0:16.083) endTick: 578333 
1, 576672, Note_on_c, 0, 50, 99
1, 576676, Note_on_c, 0, 103, 99
1, 576679, Note_on_c, 0, 117, 99
1, 576707, Note_on_c, 0, 59, 99
1, 577115, Note_off_c, 0, 59, 0
1, 577707, Note_off_c, 0, 74, 0
1, 577945, Note_off_c, 0, 28, 0
1, 578333, Marker_t, Division 6 Length: 0:00.042 (0:16.083 - 0:16.125) endTick: 580000 
1, 578344, Note_off_c, 0, 60, 0
1, 578369, Note_on_c, 0, 84, 99
1, 578385, Note_on_c, 0, 52, 99
1, 579019, Note_off_c, 0, 117, 0
1, 580000, Marker_t, Division 7 Length: 0:00.042 (0:16.125 - 0:16.167) endTick: 581667 
1, 580042, Note_on_c, 0, 81, 99
1, 580117, Note_off_c, 0, 50, 0
1, 580212, Note_off_c, 0, 96, 0
1, 580449, Note_off_c, 0, 103, 0
1, 580914, Note_off_c, 0, 48, 0
1, 581667, Marker_t, Division 8 Length: 0:00.042 (0:16.167 - 0:16.208) endTick: 583333 
1, 581676, Note_on_c, 0, 62, 99
1, 581685, Note_on_c, 0, 95, 99
1, 581707, Note_on_c, 0, 45, 99
1, 581724, Note_on_c, 0, 35, 99
1, 581727, Note_on_c, 0, 115, 99
1, 582088, Note_off_c, 0, 62, 0
1, 582298, Note_off_c, 0, 91, 0
1, 582735, Note_off_c, 0, 45, 0
1, 583146, Note_off_c, 0, 84, 0
1, 583333, Marker_t, Division 9 Length: 0:00.042 (0:16.208 - 0:16.250) endTick: 585000 
1, 583334, Note_on_c, 0, 93, 99
1, 583337, Note_on_c, 0, 76, 99
1, 583338, Note_on_c, 0, 71, 99
1, 583402, Note_on_c, 0, 88, 99
1, 583413, Note_on_c, 0, 26, 99
1, 583486, Note_off_c, 0, 81, 0
1, 583750, Note_off_c, 0, 76, 0
1, 585000, Marker_t, Beat 11 Length: 0:00.375 (0:16.250 - 0:16.625) endTick: 600000 
1, 585000, Marker_t, Division 1 Length: 0:00.075 (0:16.250 - 0:16.325) endTick: 588000 
1, 585025, Note_on_c, 0, 47, 99
1, 585115, Note_on_c, 0, 101, 99
1, 585477, Note_off_c, 0, 52, 0
1, 585852, Note_off_c, 0, 95, 0
1, 586916, Note_off_c, 0, 26, 0
1, 587235, Note_off_c, 0, 71, 0
1, 587879, Note_off_c, 0, 35, 0
1, 588000, Marker_t, Division 2 Length: 0:00.075 (0:16.325 - 0:16.400) endTick: 591000 
1, 588021, Note_on_c, 0, 84, 99
1, 588085, Note_on_c, 0, 43, 99
1, 588094, Note_on_c, 0, 112, 99
1, 588097, Note_on_c, 0, 93, 99
1, 588105, Note_on_c, 0, 86, 99
1, 588255, Note_off_c, 0, 115, 0
1, 588512, Note_off_c, 0, 93, 0
1, 588676, Note_off_c, 0, 93, 0
1, 589255, Note_off_c, 0, 47, 0
1, 590329, Note_off_c, 0, 88, 0
1, 591000, Marker_t, Division 3 Length: 0:00.075 (0:16.400 - 0:16.475) endTick: 594000 
1, 591008, Note_on_c, 0, 72, 99
1, 591010, Note_on_c, 0, 89, 99
1, 591037, Note_on_c, 0, 52, 99
1, 591093, Note_on_c, 0, 26, 99
1, 592051, Note_off_c, 0, 84, 0
1, 593726, Note_off_c, 0, 26, 0
1, 594000, Marker_t, Division 4 Length: 0:00.075 (0:16.475 - 0:16.550) endTick: 597000 
1, 594004, Note_on_c, 0, 96, 99
1, 594082, Note_on_c, 0, 74, 99
1, 594146, Note_on_c, 0, 79, 99
1, 595943, Note_off_c, 0, 96, 0
1, 596292, Note_off_c, 0, 43, 0
1, 596423, Note_off_c, 0, 86, 0
1, 596522, Note_off_c, 0, 79, 0
1, 597000, Marker_t, Division 5 Length: 0:00.075 (0:16.550 - 0:16.625) endTick: 600000 
1, 597038, Note_on_c, 0, 79, 99
1, 597085, Note_on_c, 0, 117, 99
1, 597094, Note_on_c, 0, 60, 99
1, 597141, Note_on_c, 0, 84, 99
1, 599423, Note_off_c, 0, 101, 0
1, 600000, Marker_t, Beat 12 Length: 0:00.375 (0:16.625 - 0:17.000) endTick: 615000 
1, 600000, Marker_t, Division 1 Length: 0:00.054 (0:16.625 - 0:16.679) endTick: 602143 
1, 600029, Note_on_c, 0, 43, 99
1, 600071, Note_on_c, 0, 72, 99
1, 600074, Note_on_c, 0, 53, 99
1, 600106, Note_on_c, 0, 100, 99
1, 601898, Note_off_c, 0, 89, 0
1, 602143, Marker_t, Division 2 Length: 0:00.054 (0:16.679 - 0:16.732) endTick: 604286 
1, 602157, Note_on_c, 0, 108, 99
1, 602211, Note_on_c, 0, 26, 99
1, 602308, Note_off_c, 0, 112, 0
1, 602369, Note_off_c, 0, 52, 0
1, 603381, Note_off_c, 0, 60, 0
1, 603643, Note_off_c, 0, 100, 0
1, 603926, Note_off_c, 0, 74, 0
1, 604037, Note_off_c, 0, 79, 0
1, 604286, Marker_t, Division 3 Length: 0:00.054 (0:16.732 - 0:16.786) endTick: 606429 
1, 604294, Note_on_c, 0, 98, 99
1, 604311, Note_on_c, 0, 60, 99
1, 605247, Note_off_c, 0, 72, 0
1, 606429, Marker_t, Division 4 Length: 0:00.054 (0:16.786 - 0:16.839) endTick: 608571 
1, 606488, Note_on_c, 0, 107, 99
1, 607515, Note_off_c, 0, 72, 0
1, 607885, Note_off_c, 0, 117, 0
1, 608571, Marker_t, Division 5 Length: 0:00.054 (0:16.839 - 0:16.893) endTick: 610714 
1, 608602, Note_on_c, 0, 91, 99
1, 608608, Note_on_c, 0, 62, 99
1, 608668, Note_on_c, 0, 40, 99
1, 609032, Note_off_c, 0, 53, 0
1, 609494, Note_off_c, 0, 62, 0
1, 610456, Note_off_c, 0, 43, 0
1, 610524, Note_off_c, 0, 26, 0
1, 610714, Marker_t, Division 6 Length: 0:00.054 (0:16.893 - 0:16.946) endTick: 612857 
1, 610774, Note_on_c, 0, 35, 99
1, 610775, Note_on_c, 0, 67, 99
1, 610869, Note_off_c, 0, 108, 0
1, 610875, Note_off_c, 0, 84, 0
1, 611025, Note_off_c, 0, 40, 0
1, 612857, Marker_t, Division 7 Length: 0:00.054 (0:16.946 - 0:17.000) endTick: 615000 
1, 612876, Note_on_c, 0, 89, 99
1, 612893, Note_on_c, 0, 115, 99
1, 612965, Note_off_c, 0, 60, 0
1, 613282, Note_off_c, 0, 98, 0
1, 613474, Note_off_c, 0, 67, 0
1, 614781, Note_off_c, 0, 107, 0
1, 615000, Marker_t, Beat 13 Length: 0:00.375 (0:17.000 - 0:17.375) endTick: 630000 
1, 615000, Marker_t, Division 1 Length: 0:00.047 (0:17.000 - 0:17.047) endTick: 616875 
1, 615020, Note_on_c, 0, 35, 99
1, 615064, Note_on_c, 0, 107, 99
1, 615085, Note_on_c, 0, 28, 99
1, 616875, Marker_t, Division 2 Length: 0:00.047 (0:17.047 - 0:17.094) endTick: 618750 
1, 616875, Note_on_c, 0, 77, 99
1, 616878, Note_on_c, 0, 50, 99
1, 616926, Note_on_c, 0, 67, 99
1, 617306, Note_off_c, 0, 67, 0
1, 617324, Note_off_c, 0, 91, 0
1, 617421, Note_off_c, 0, 50, 0
1, 617595, Note_off_c, 0, 35, 0
1, 618320, Note_off_c, 0, 115, 0
1, 618750, Marker_t, Division 3 Length: 0:00.047 (0:17.094 - 0:17.141) endTick: 620625 
1, 618780, Note_on_c, 0, 83, 99
1, 618820, Note_on_c, 0, 26, 99
1, 618827, Note_on_c, 0, 100, 99
1, 619057, Note_off_c, 0, 28, 0
1, 619124, Note_off_c, 0, 35, 0
1, 620625, Marker_t, Division 4 Length: 0:00.047 (0:17.141 - 0:17.188) endTick: 622500 
1, 620635, Note_on_c, 0, 35, 99
1, 621351, Note_off_c, 0, 35, 0
1, 622500, Marker_t, Division 5 Length: 0:00.047 (0:17.188 - 0:17.234) endTick: 624375 
1, 622551, Note_on_c, 0, 31, 99
1, 623364, Note_off_c, 0, 89, 0
1, 623534, Note_off_c, 0, 83, 0
1, 623910, Note_off_c, 0, 100, 0
1, 623952, Note_off_c, 0, 107, 0
1, 624375, Marker_t, Division 6 Length: 0:00.047 (0:17.234 - 0:17.281) endTick: 626250 
1, 624419, Note_on_c, 0, 55, 99
1, 624424, Note_on_c, 0, 69, 99
1, 624432, Note_on_c, 0, 84, 99
1, 625189, Note_off_c, 0, 77, 0
1, 625757, Note_off_c, 0, 26, 0
1, 626250, Marker_t, Division 7 Length: 0:00.047 (0:17.281 - 0:17.328) endTick: 628125 
1, 626324, Note_on_c, 0, 107, 99
1, 628001, Note_off_c, 0, 69, 0
1, 628125, Marker_t, Division 8 Length: 0:00.047 (0:17.328 - 0:17.375) endTick: 630000 
1, 628158, Note_on_c, 0, 74, 99
1, 628171, Note_on_c, 0, 47, 99
1, 628182, Note_on_c, 0, 110, 99
1, 628190, Note_on_c, 0, 86, 99
1, 628205, Note_on_c, 0, 40, 99
1, 628498, Note_off_c, 0, 107, 0
1, 628592, Note_off_c, 0, 110, 0
1, 629734, Note_off_c, 0, 84, 0
1, 630000, Marker_t, Beat 14 Length: 0:00.375 (0:17.375 - 0:17.750) endTick: 645000 
1, 630000, Marker_t, Division 1 Length: 0:00.075 (0:17.375 - 0:17.450) endTick: 633000 
1, 630088, Note_on_c, 0, 115, 99
1, 630904, Note_off_c, 0, 31, 0
1, 631910, Note_off_c, 0, 47, 0
1, 632223, Note_off_c, 0, 55, 0
1, 632888, Note_off_c, 0, 40, 0
1, 633000, Marker_t, Division 2 Length: 0:00.075 (0:17.450 - 0:17.525) endTick: 636000 
1, 633012, Note_on_c, 0, 41, 99
1, 633082, Note_on_c, 0, 107, 99
1, 633086, Note_on_c, 0, 107, 99
1, 633129, Note_on_c, 0, 35, 99
1, 633626, Note_off_c, 0, 86, 0
1, 633937, Note_off_c, 0, 115, 0
1, 635591, Note_off_c, 0, 74, 0
1, 635966, Note_off_c, 0, 107, 0
1, 636000, Marker_t, Division 3 Length: 0:00.075 (0:17.525 - 0:17.600) endTick: 639000 
1, 636006, Note_on_c, 0, 100, 99
1, 636027, Note_on_c, 0, 108, 99
1, 636034, Note_on_c, 0, 33, 99
1, 636066, Note_on_c, 0, 79, 99
1, 636094, Note_on_c, 0, 119, 99
1, 639000, Marker_t, Division 4 Length: 0:00.075 (0:17.600 - 0:17.675) endTick: 642000 
1, 639016, Note_on_c, 0, 28, 99
1, 639084, Note_on_c, 0, 107, 99
1, 639121, Note_on_c, 0, 57, 99
1, 639121, Note_on_c, 0, 103, 99
1, 642000, Marker_t, Division 5 Length: 0:00.075 (0:17.675 - 0:17.750) endTick: 645000 
1, 642048, Note_on_c, 0, 96, 99
1, 642467, Note_off_c, 0, 79, 0
1, 642685, Note_off_c, 0, 33, 0
1, 643729, Note_off_c, 0, 108, 0
1, 644096, Note_off_c, 0, 35, 0
1, 645000, Time_signature, 4, 3, 24, 8
1, 645000, Tempo, 1250000
1, 645000, Marker_t, Measure 5 Length: 0:02.500 (0:17.750 - 0:20.250) endTick: 705000 Original Meter: 4/10 Spoofed Meter: 4/8
1, 645000, Marker_t, Beat 1 Length: 0:00.625 (0:17.750 - 0:18.375) endTick: 660000 
1, 645000, Marker_t, Division 1 Length: 0:00.625 (0:17.750 - 0:18.375) endTick: 660000 
1, 645065, Note_off_c, 0, 28, 0
1, 645069, Note_on_c, 0, 80, 99
1, 645239, Note_on_c, 0, 44, 99
1, 645390, Note_on_c, 0, 99, 99
1, 645620, Note_on_c, 0, 109, 99
1, 645784, Note_off_c, 0, 96, 0
1, 646077, Note_off_c, 0, 100, 0
1, 647029, Note_off_c, 0, 103, 0
1, 647095, Note_off_c, 0, 107, 0
1, 647675, Note_off_c, 0, 41, 0
1, 648838, Note_off_c, 0, 119, 0
1, 650555, Note_off_c, 0, 57, 0
1, 653167, Note_off_c, 0, 107, 0
1, 660000, Marker_t, Beat 2 Length: 0:00.625 (0:18.375 - 0:19.000) endTick: 675000 
1, 660000, Marker_t, Division 1 Length: 0:00.625 (0:18.375 - 0:19.000) endTick: 675000 
1, 660188, Note_on_c, 0, 46, 99
1, 660386, Note_on_c, 0, 88, 99
1, 660437, Note_on_c, 0, 32, 99
1, 660447, Note_on_c, 0, 39, 99
1, 660594, Note_on_c, 0, 111, 99
1, 670759, Note_off_c, 0, 46, 0
1, 673904, Note_off_c, 0, 80, 0
1, 675000, Marker_t, Beat 3 Length: 0:00.625 (0:19.000 - 0:19.625) endTick: 690000 
1, 675000, Marker_t, Division 1 Length: 0:00.078 (0:19.000 - 0:19.078) endTick: 676875 
1, 675008, Note_on_c, 0, 99, 99
1, 675042, Note_on_c, 0, 112, 99
1, 675049, Note_on_c, 0, 44, 99
1, 675080, Note_on_c, 0, 87, 99
1, 675310, Note_off_c, 0, 87, 0
1, 675547, Note_off_c, 0, 44, 0
1, 676875, Marker_t, Division 2 Length: 0:00.078 (0:19.078 - 0:19.156) endTick: 678750 
1, 676890, Note_on_c, 0, 76, 99
1, 676911, Note_on_c, 0, 40, 99
1, 676931, Note_on_c, 0, 76, 99
1, 676959, Note_on_c, 0, 27, 99
1, 676969, Note_on_c, 0, 99, 99
1, 678461, Note_off_c, 0, 44, 0
1, 678750, Marker_t, Division 3 Length: 0:00.078 (0:19.156 - 0:19.234) endTick: 680625 
1, 678758, Note_on_c, 0, 51, 99
1, 678761, Note_on_c, 0, 46, 99
1, 678769, Note_on_c, 0, 100, 99
1, 679326, Note_off_c, 0, 76, 0
1, 679428, Note_off_c, 0, 76, 0
1, 679622, Note_off_c, 0, 46, 0
1, 680625, Marker_t, Division 4 Length: 0:00.078 (0:19.234 - 0:19.313) endTick: 682500 
1, 680710, Note_on_c, 0, 76, 99
1, 680774, Note_off_c, 0, 99, 0
1, 681296, Note_off_c, 0, 40, 0
1, 682256, Note_off_c, 0, 76, 0
1, 682500, Marker_t, Division 5 Length: 0:00.078 (0:19.313 - 0:19.391) endTick: 684375 
1, 682555, Note_on_c, 0, 44, 99
1, 682628, Note_off_c, 0, 112, 0
1, 683107, Note_off_c, 0, 100, 0
1, 684375, Marker_t, Division 6 Length: 0:00.078 (0:19.391 - 0:19.469) endTick: 686250 
1, 684467, Note_on_c, 0, 87, 99
1, 684992, Note_off_c, 0, 27, 0
1, 685385, Note_off_c, 0, 99, 0
1, 685964, Note_off_c, 0, 51, 0
1, 686231, Note_off_c, 0, 87, 0
1, 686250, Marker_t, Division 7 Length: 0:00.078 (0:19.469 - 0:19.547) endTick: 688125 
1, 686269, Note_on_c, 0, 80, 99
1, 686302, Note_on_c, 0, 80, 99
1, 686309, Note_on_c, 0, 37, 99
1, 687249, Note_off_c, 0, 80, 0
1, 688125, Marker_t, Division 8 Length: 0:00.078 (0:19.547 - 0:19.625) endTick: 690000 
1, 688133, Note_on_c, 0, 39, 99
1, 688186, Note_on_c, 0, 63, 99
1, 689101, Note_off_c, 0, 39, 0
1, 689517, Note_off_c, 0, 63, 0
1, 690000, Marker_t, Beat 4 Length: 0:00.625 (0:19.625 - 0:20.250) endTick: 705000 
1, 690000, Marker_t, Division 1 Length: 0:00.208 (0:19.625 - 0:19.833) endTick: 695000 
1, 690054, Note_on_c, 0, 92, 99
1, 690136, Note_on_c, 0, 70, 99
1, 690143, Note_on_c, 0, 112, 99
1, 690416, Note_off_c, 0, 44, 0
1, 691669, Note_off_c, 0, 112, 0
1, 691816, Note_off_c, 0, 80, 0
1, 692237, Note_off_c, 0, 37, 0
1, 695000, Marker_t, Division 2 Length: 0:00.208 (0:19.833 - 0:20.042) endTick: 700000 
1, 695045, Note_on_c, 0, 58, 99
1, 695094, Note_on_c, 0, 97, 99
1, 695097, Note_off_c, 0, 70, 0
1, 695217, Note_on_c, 0, 75, 99
1, 695327, Note_off_c, 0, 92, 0
1, 696168, Note_off_c, 0, 111, 0
1, 700000, Marker_t, Division 3 Length: 0:00.208 (0:20.042 - 0:20.250) endTick: 705000 
1, 700071, Note_on_c, 0, 68, 99
1, 700079, Note_on_c, 0, 25, 99
1, 700141, Note_on_c, 0, 40, 99
1, 700856, Note_off_c, 0, 109, 0
1, 702536, Note_off_c, 0, 40, 0
1, 705000, Time_signature, 13, 3, 24, 8
1, 705000, Tempo, 1000000
1, 705000, Marker_t, Measure 6 Length: 0:06.500 (0:20.250 - 0:26.750) endTick: 900000 Meter: 13/8
1, 705000, Marker_t, Beat 1 Length: 0:00.500 (0:20.250 - 0:20.750) endTick: 720000 
1, 705000, Marker_t, Division 1 Length: 0:00.100 (0:20.250 - 0:20.350) endTick: 708000 
1, 705025, Note_on_c, 0, 57, 99
1, 705084, Note_on_c, 0, 38, 99
1, 705093, Note_on_c, 0, 62, 99
1, 707323, Note_off_c, 0, 88, 0
1, 707736, Note_off_c, 0, 25, 0
1, 707826, Note_off_c, 0, 38, 0
1, 708000, Marker_t, Division 2 Length: 0:00.100 (0:20.350 - 0:20.450) endTick: 711000 
1, 708058, Note_on_c, 0, 38, 99
1, 708114, Note_on_c, 0, 57, 99
1, 708121, Note_on_c, 0, 60, 99
1, 708142, Note_on_c, 0, 93, 99
1, 708142, Note_on_c, 0, 103, 99
1, 708534, Note_off_c, 0, 62, 0
1, 709340, Note_off_c, 0, 57, 0
1, 710214, Note_off_c, 0, 97, 0
1, 710363, Note_off_c, 0, 68, 0
1, 711000, Marker_t, Division 3 Length: 0:00.100 (0:20.450 - 0:20.550) endTick: 714000 
1, 711013, Note_on_c, 0, 72, 99
1, 711060, Note_on_c, 0, 69, 99
1, 711069, Note_on_c, 0, 79, 99
1, 711130, Note_on_c, 0, 47, 99
1, 713559, Note_off_c, 0, 69, 0
1, 714000, Marker_t, Division 4 Length: 0:00.100 (0:20.550 - 0:20.650) endTick: 717000 
1, 714034, Note_on_c, 0, 108, 99
1, 714049, Note_off_c, 0, 47, 0
1, 714076, Note_on_c, 0, 74, 99
1, 715103, Note_off_c, 0, 57, 0
1, 715268, Note_off_c, 0, 58, 0
1, 715423, Note_off_c, 0, 99, 0
1, 716220, Note_off_c, 0, 103, 0
1, 717000, Marker_t, Division 5 Length: 0:00.100 (0:20.650 - 0:20.750) endTick: 720000 
1, 717002, Note_on_c, 0, 91, 99
1, 717029, Note_on_c, 0, 93, 99
1, 717095, Note_on_c, 0, 115, 99
1, 717098, Note_on_c, 0, 41, 99
1, 717755, Note_off_c, 0, 79, 0
1, 718911, Note_off_c, 0, 72, 0
1, 719013, Note_off_c, 0, 74, 0
1, 719306, Note_off_c, 0, 38, 0
1, 719858, Note_off_c, 0, 75, 0
1, 720000, Marker_t, Beat 2 Length: 0:00.500 (0:20.750 - 0:21.250) endTick: 735000 
1, 720000, Marker_t, Division 1 Length: 0:00.500 (0:20.750 - 0:21.250) endTick: 735000 
1, 720119, Note_on_c, 0, 88, 99
1, 720240, Note_on_c, 0, 103, 99
1, 720438, Note_on_c, 0, 108, 99
1, 720623, Note_off_c, 0, 60, 0
1, 721094, Note_off_c, 0, 93, 0
1, 722377, Note_off_c, 0, 93, 0
1, 726219, Note_off_c, 0, 108, 0
1, 728716, Note_off_c, 0, 115, 0
1, 729028, Note_off_c, 0, 91, 0
1, 730636, Note_off_c, 0, 41, 0
1, 732342, Note_off_c, 0, 103, 0
1, 732993, Note_off_c, 0, 32, 0
1, 734009, Note_off_c, 0, 39, 0
1, 735000, Marker_t, Beat 3 Length: 0:00.500 (0:21.250 - 0:21.750) endTick: 750000 
1, 735000, Marker_t, Division 1 Length: 0:00.050 (0:21.250 - 0:21.300) endTick: 736500 
1, 735039, Note_on_c, 0, 40, 99
1, 735047, Note_on_c, 0, 105, 99
1, 735051, Note_on_c, 0, 115, 99
1, 735057, Note_on_c, 0, 84, 99
1, 736500, Marker_t, Division 2 Length: 0:00.050 (0:21.300 - 0:21.350) endTick: 738000 
1, 736557, Note_on_c, 0, 62, 99
1, 736568, Note_on_c, 0, 101, 99
1, 736570, Note_off_c, 0, 84, 0
1, 738000, Marker_t, Division 3 Length: 0:00.050 (0:21.350 - 0:21.400) endTick: 739500 
1, 738004, Note_on_c, 0, 105, 99
1, 738004, Note_on_c, 0, 107, 99
1, 738012, Note_on_c, 0, 105, 99
1, 738014, Note_on_c, 0, 41, 99
1, 738031, Note_on_c, 0, 91, 99
1, 738034, Note_on_c, 0, 28, 99
1, 738047, Note_off_c, 0, 40, 0
1, 738412, Note_off_c, 0, 41, 0
1, 739445, Note_off_c, 0, 101, 0
1, 739500, Marker_t, Division 4 Length: 0:00.050 (0:21.400 - 0:21.450) endTick: 741000 
1, 739509, Note_on_c, 0, 47, 99
1, 739560, Note_on_c, 0, 53, 99
1, 739565, Note_on_c, 0, 35, 99
1, 740212, Note_off_c, 0, 47, 0
1, 740523, Note_off_c, 0, 105, 0
1, 740945, Note_off_c, 0, 91, 0
1, 741000, Marker_t, Division 5 Length: 0:00.050 (0:21.450 - 0:21.500) endTick: 742500 
1, 741001, Note_on_c, 0, 53, 99
1, 741034, Note_on_c, 0, 45, 99
1, 741109, Note_off_c, 0, 115, 0
1, 741207, Note_off_c, 0, 53, 0
1, 741280, Note_off_c, 0, 105, 0
1, 741536, Note_off_c, 0, 105, 0
1, 742348, Note_off_c, 0, 107, 0
1, 742497, Note_off_c, 0, 62, 0
1, 742500, Marker_t, Division 6 Length: 0:00.050 (0:21.500 - 0:21.550) endTick: 744000 
1, 742516, Note_on_c, 0, 108, 99
1, 742526, Note_on_c, 0, 69, 99
1, 742549, Note_on_c, 0, 115, 99
1, 742556, Note_on_c, 0, 113, 99
1, 742557, Note_on_c, 0, 38, 99
1, 743284, Note_off_c, 0, 53, 0
1, 744000, Marker_t, Division 7 Length: 0:00.050 (0:21.550 - 0:21.600) endTick: 745500 
1, 744032, Note_on_c, 0, 36, 99
1, 744036, Note_on_c, 0, 41, 99
1, 744294, Note_off_c, 0, 28, 0
1, 744331, Note_off_c, 0, 35, 0
1, 744358, Note_off_c, 0, 108, 0
1, 744653, Note_off_c, 0, 41, 0
1, 744700, Note_off_c, 0, 115, 0
1, 745139, Note_off_c, 0, 36, 0
1, 745500, Marker_t, Division 8 Length: 0:00.050 (0:21.600 - 0:21.650) endTick: 747000 
1, 745502, Note_on_c, 0, 115, 99
1, 745509, Note_on_c, 0, 53, 99
1, 745514, Note_on_c, 0, 71, 99
1, 745518, Note_on_c, 0, 115, 99
1, 745518, Note_on_c, 0, 33, 99
1, 745554, Note_on_c, 0, 36, 99
1, 745574, Note_on_c, 0, 115, 99
1, 746287, Note_off_c, 0, 45, 0
1, 747000, Marker_t, Division 9 Length: 0:00.050 (0:21.650 - 0:21.700) endTick: 748500 
1, 747010, Note_on_c, 0, 88, 99
1, 747083, Note_off_c, 0, 53, 0
1, 747411, Note_off_c, 0, 38, 0
1, 747788, Note_off_c, 0, 115, 0
1, 747917, Note_off_c, 0, 69, 0
1, 748093, Note_off_c, 0, 33, 0
1, 748500, Marker_t, Division 10 Length: 0:00.050 (0:21.700 - 0:21.750) endTick: 750000 
1, 748506, Note_on_c, 0, 119, 99
1, 748545, Note_on_c, 0, 50, 99
1, 749440, Note_off_c, 0, 71, 0
1, 749927, Note_off_c, 0, 113, 0
1, 750000, Marker_t, Beat 4 Length: 0:00.500 (0:21.750 - 0:22.250) endTick: 765000 
1, 750000, Marker_t, Division 1 Length: 0:00.500 (0:21.750 - 0:22.250) endTick: 765000 
1, 750012, Note_on_c, 0, 26, 99
1, 750061, Note_on_c, 0, 38, 99
1, 750340, Note_on_c, 0, 62, 99
1, 750571, Note_on_c, 0, 108, 99
1, 750572, Note_on_c, 0, 101, 99
1, 751386, Note_off_c, 0, 115, 0
1, 751754, Note_off_c, 0, 50, 0
1, 752399, Note_off_c, 0, 115, 0
1, 752754, Note_off_c, 0, 36, 0
1, 754463, Note_off_c, 0, 88, 0
1, 755017, Note_off_c, 0, 119, 0
1, 765000, Marker_t, Beat 5 Length: 0:00.500 (0:22.250 - 0:22.750) endTick: 780000 
1, 765000, Marker_t, Division 1 Length: 0:00.500 (0:22.250 - 0:22.750) endTick: 780000 
1, 765029, Note_on_c, 0, 38, 99
1, 768385, Note_off_c, 0, 26, 0
1, 771942, Note_off_c, 0, 88, 0
1, 779172, Note_off_c, 0, 38, 0
1, 780000, Marker_t, Beat 6 Length: 0:00.500 (0:22.750 - 0:23.250) endTick: 795000 
1, 780000, Marker_t, Division 1 Length: 0:00.083 (0:22.750 - 0:22.833) endTick: 782500 
1, 780090, Note_on_c, 0, 50, 99
1, 780258, Note_off_c, 0, 50, 0
1, 782500, Marker_t, Division 2 Length: 0:00.083 (0:22.833 - 0:22.917) endTick: 785000 
1, 782557, Note_on_c, 0, 77, 99
1, 785000, Marker_t, Division 3 Length: 0:00.083 (0:22.917 - 0:23.000) endTick: 787500 
1, 785022, Note_on_c, 0, 88, 99
1, 785040, Note_on_c, 0, 28, 99
1, 785051, Note_on_c, 0, 86, 99
1, 787500, Marker_t, Division 4 Length: 0:00.083 (0:23.000 - 0:23.083) endTick: 790000 
1, 787584, Note_on_c, 0, 57, 99
1, 789153, Note_off_c, 0, 108, 0
1, 789505, Note_off_c, 0, 88, 0
1, 789508, Note_off_c, 0, 28, 0
1, 790000, Marker_t, Division 5 Length: 0:00.083 (0:23.083 - 0:23.167) endTick: 792500 
1, 790088, Note_on_c, 0, 24, 99
1, 790106, Note_on_c, 0, 35, 99
1, 791397, Note_off_c, 0, 57, 0
1, 792280, Note_off_c, 0, 77, 0
1, 792500, Marker_t, Division 6 Length: 0:00.083 (0:23.167 - 0:23.250) endTick: 795000 
1, 792503, Note_on_c, 0, 43, 99
1, 792516, Note_on_c, 0, 28, 99
1, 792560, Note_on_c, 0, 105, 99
1, 792562, Note_on_c, 0, 33, 99
1, 792582, Note_on_c, 0, 76, 99
1, 793670, Note_off_c, 0, 86, 0
1, 794270, Note_off_c, 0, 28, 0
1, 794510, Note_off_c, 0, 24, 0
1, 795000, Marker_t, Beat 7 Length: 0:00.500 (0:23.250 - 0:23.750) endTick: 810000 
1, 795000, Marker_t, Division 1 Length: 0:00.063 (0:23.250 - 0:23.313) endTick: 796875 
1, 795060, Note_on_c, 0, 35, 99
1, 795086, Note_on_c, 0, 76, 99
1, 795087, Note_on_c, 0, 119, 99
1, 795750, Note_off_c, 0, 35, 0
1, 795840, Note_off_c, 0, 105, 0
1, 795856, Note_off_c, 0, 108, 0
1, 796295, Note_off_c, 0, 43, 0
1, 796875, Marker_t, Division 2 Length: 0:00.063 (0:23.313 - 0:23.375) endTick: 798750 
1, 796895, Note_on_c, 0, 119, 99
1, 796935, Note_on_c, 0, 41, 99
1, 796935, Note_on_c, 0, 89, 99
1, 796960, Note_off_c, 0, 76, 0
1, 798473, Note_off_c, 0, 35, 0
1, 798750, Marker_t, Division 3 Length: 0:00.063 (0:23.375 - 0:23.438) endTick: 800625 
1, 798772, Note_on_c, 0, 60, 99
1, 799450, Note_off_c, 0, 119, 0
1, 799762, Note_off_c, 0, 41, 0
1, 800625, Marker_t, Division 4 Length: 0:00.063 (0:23.438 - 0:23.500) endTick: 802500 
1, 800666, Note_on_c, 0, 24, 99
1, 800670, Note_on_c, 0, 77, 99
1, 800702, Note_on_c, 0, 88, 99
1, 800718, Note_on_c, 0, 38, 99
1, 801133, Note_off_c, 0, 33, 0
1, 801152, Note_off_c, 0, 77, 0
1, 801835, Note_off_c, 0, 89, 0
1, 802290, Note_off_c, 0, 38, 0
1, 802500, Marker_t, Division 5 Length: 0:00.063 (0:23.500 - 0:23.563) endTick: 804375 
1, 802527, Note_on_c, 0, 28, 99
1, 802544, Note_on_c, 0, 31, 99
1, 803455, Note_off_c, 0, 60, 0
1, 804185, Note_off_c, 0, 76, 0
1, 804375, Marker_t, Division 6 Length: 0:00.063 (0:23.563 - 0:23.625) endTick: 806250 
1, 804386, Note_on_c, 0, 86, 99
1, 804419, Note_on_c, 0, 100, 99
1, 804442, Note_on_c, 0, 72, 99
1, 804450, Note_on_c, 0, 55, 99
1, 805861, Note_off_c, 0, 31, 0
1, 805968, Note_off_c, 0, 119, 0
1, 806250, Marker_t, Division 7 Length: 0:00.063 (0:23.625 - 0:23.688) endTick: 808125 
1, 806283, Note_on_c, 0, 35, 99
1, 806283, Note_on_c, 0, 110, 99
1, 806284, Note_on_c, 0, 52, 99
1, 806291, Note_on_c, 0, 59, 99
1, 806292, Note_on_c, 0, 100, 99
1, 806561, Note_off_c, 0, 55, 0
1, 807689, Note_off_c, 0, 100, 0
1, 808125, Marker_t, Division 8 Length: 0:00.063 (0:23.688 - 0:23.750) endTick: 810000 
1, 808127, Note_on_c, 0, 95, 99
1, 808143, Note_on_c, 0, 105, 99
1, 808181, Note_on_c, 0, 117, 99
1, 809048, Note_off_c, 0, 72, 0
1, 809076, Note_off_c, 0, 100, 0
1, 809341, Note_off_c, 0, 88, 0
1, 809575, Note_off_c, 0, 59, 0
1, 809781, Note_off_c, 0, 24, 0
1, 809832, Note_off_c, 0, 95, 0
1, 810000, Marker_t, Beat 8 Length: 0:00.500 (0:23.750 - 0:24.250) endTick: 825000 
1, 810000, Marker_t, Division 1 Length: 0:00.071 (0:23.750 - 0:23.821) endTick: 812143 
1, 810013, Note_on_c, 0, 79, 99
1, 810410, Note_off_c, 0, 117, 0
1, 810711, Note_off_c, 0, 110, 0
1, 811173, Note_off_c, 0, 28, 0
1, 811725, Note_off_c, 0, 35, 0
1, 812143, Marker_t, Division 2 Length: 0:00.071 (0:23.821 - 0:23.893) endTick: 814286 
1, 812149, Note_on_c, 0, 50, 99
1, 812154, Note_on_c, 0, 43, 99
1, 812193, Note_on_c, 0, 105, 99
1, 812213, Note_on_c, 0, 74, 99
1, 812982, Note_off_c, 0, 52, 0
1, 813031, Note_off_c, 0, 86, 0
1, 814286, Marker_t, Division 3 Length: 0:00.071 (0:23.893 - 0:23.964) endTick: 816429 
1, 814343, Note_on_c, 0, 112, 99
1, 814365, Note_off_c, 0, 105, 0
1, 814853, Note_off_c, 0, 43, 0
1, 815943, Note_off_c, 0, 62, 0
1, 816429, Marker_t, Division 4 Length: 0:00.071 (0:23.964 - 0:24.036) endTick: 818571 
1, 816487, Note_on_c, 0, 100, 99
1, 816737, Note_off_c, 0, 50, 0
1, 817380, Note_off_c, 0, 79, 0
1, 818160, Note_off_c, 0, 105, 0
1, 818571, Marker_t, Division 5 Length: 0:00.071 (0:24.036 - 0:24.107) endTick: 820714 
1, 818633, Note_on_c, 0, 100, 99
1, 818641, Note_on_c, 0, 88, 99
1, 819362, Note_off_c, 0, 100, 0
1, 820714, Marker_t, Division 6 Length: 0:00.071 (0:24.107 - 0:24.179) endTick: 822857 
1, 820749, Note_on_c, 0, 76, 99
1, 820757, Note_on_c, 0, 113, 99
1, 820763, Note_on_c, 0, 115, 99
1, 820794, Note_on_c, 0, 35, 99
1, 820796, Note_on_c, 0, 76, 99
1, 820819, Note_on_c, 0, 67, 99
1, 821748, Note_off_c, 0, 88, 0
1, 822579, Note_off_c, 0, 74, 0
1, 822711, Note_off_c, 0, 112, 0
1, 822762, Note_off_c, 0, 67, 0
1, 822857, Marker_t, Division 7 Length: 0:00.071 (0:24.179 - 0:24.250) endTick: 825000 
1, 822872, Note_on_c, 0, 98, 99
1, 822914, Note_on_c, 0, 95, 99
1, 822915, Note_on_c, 0, 100, 99
1, 822937, Note_on_c, 0, 93, 99
1, 822940, Note_on_c, 0, 79, 99
1, 823129, Note_off_c, 0, 101, 0
1, 823639, Note_off_c, 0, 98, 0
1, 824502, Note_off_c, 0, 100, 0
1, 824897, Note_off_c, 0, 113, 0
1, 825000, Marker_t, Beat 9 Length: 0:00.500 (0:24.250 - 0:24.750) endTick: 840000 
1, 825000, Marker_t, Division 1 Length: 0:00.083 (0:24.250 - 0:24.333) endTick: 827500 
1, 825003, Note_on_c, 0, 47, 99
1, 825115, Note_on_c, 0, 38, 99
1, 825118, Note_on_c, 0, 35, 99
1, 825392, Note_off_c, 0, 79, 0
1, 826394, Note_off_c, 0, 35, 0
1, 826429, Note_off_c, 0, 35, 0
1, 826776, Note_off_c, 0, 93, 0
1, 827500, Marker_t, Division 2 Length: 0:00.083 (0:24.333 - 0:24.417) endTick: 830000 
1, 827505, Note_on_c, 0, 65, 99
1, 827507, Note_on_c, 0, 74, 99
1, 827510, Note_on_c, 0, 45, 99
1, 827605, Note_on_c, 0, 69, 99
1, 829392, Note_off_c, 0, 115, 0
1, 830000, Marker_t, Division 3 Length: 0:00.083 (0:24.417 - 0:24.500) endTick: 832500 
1, 830004, Note_on_c, 0, 88, 99
1, 830008, Note_off_c, 0, 45, 0
1, 830010, Note_on_c, 0, 47, 99
1, 830029, Note_on_c, 0, 57, 99
1, 830055, Note_on_c, 0, 55, 99
1, 830107, Note_on_c, 0, 59, 99
1, 830195, Note_off_c, 0, 95, 0
1, 830354, Note_off_c, 0, 76, 0
1, 830688, Note_off_c, 0, 47, 0
1, 830739, Note_off_c, 0, 69, 0
1, 831008, Note_off_c, 0, 76, 0
1, 831697, Note_off_c, 0, 100, 0
1, 832500, Marker_t, Division 4 Length: 0:00.083 (0:24.500 - 0:24.583) endTick: 835000 
1, 832511, Note_on_c, 0, 93, 99
1, 832577, Note_on_c, 0, 52, 99
1, 832598, Note_on_c, 0, 41, 99
1, 832600, Note_on_c, 0, 28, 99
1, 833035, Note_off_c, 0, 47, 0
1, 833511, Note_off_c, 0, 52, 0
1, 835000, Marker_t, Division 5 Length: 0:00.083 (0:24.583 - 0:24.667) endTick: 837500 
1, 835057, Note_on_c, 0, 41, 99
1, 835068, Note_on_c, 0, 64, 99
1, 835097, Note_on_c, 0, 103, 99
1, 835109, Note_on_c, 0, 38, 99
1, 835121, Note_on_c, 0, 69, 99
1, 835834, Note_off_c, 0, 41, 0
1, 836371, Note_off_c, 0, 64, 0
1, 836980, Note_off_c, 0, 59, 0
1, 837002, Note_off_c, 0, 38, 0
1, 837275, Note_off_c, 0, 103, 0
1, 837500, Marker_t, Division 6 Length: 0:00.083 (0:24.667 - 0:24.750) endTick: 840000 
1, 837561, Note_on_c, 0, 71, 99
1, 837598, Note_on_c, 0, 88, 99
1, 838135, Note_off_c, 0, 38, 0
1, 838231, Note_off_c, 0, 93, 0
1, 838347, Note_off_c, 0, 88, 0
1, 838349, Note_off_c, 0, 65, 0
1, 838399, Note_off_c, 0, 57, 0
1, 839302, Note_off_c, 0, 55, 0
1, 839548, Note_off_c, 0, 74, 0
1, 840000, Marker_t, Beat 10 Length: 0:00.500 (0:24.750 - 0:25.250) endTick: 855000 
1, 840000, Marker_t, Division 1 Length: 0:00.250 (0:24.750 - 0:25.000) endTick: 847500 
1, 840177, Note_on_c, 0, 77, 99
1, 840266, Note_on_c, 0, 98, 99
1, 840612, Note_off_c, 0, 41, 0
1, 841345, Note_off_c, 0, 88, 0
1, 842074, Note_off_c, 0, 71, 0
1, 842371, Note_off_c, 0, 28, 0
1, 843066, Note_off_c, 0, 38, 0
1, 846537, Note_off_c, 0, 69, 0
1, 847500, Marker_t, Division 2 Length: 0:00.250 (0:25.000 - 0:25.250) endTick: 855000 
1, 847652, Note_on_c, 0, 112, 99
1, 847711, Note_on_c, 0, 105, 99
1, 847727, Note_on_c, 0, 36, 99
1, 847754, Note_on_c, 0, 84, 99
1, 847755, Note_on_c, 0, 48, 99
1, 855000, Marker_t, Beat 11 Length: 0:00.500 (0:25.250 - 0:25.750) endTick: 870000 
1, 855000, Marker_t, Division 1 Length: 0:00.250 (0:25.250 - 0:25.500) endTick: 862500 
1, 855024, Note_on_c, 0, 24, 99
1, 855198, Note_on_c, 0, 112, 99
1, 855241, Note_on_c, 0, 50, 99
1, 855568, Note_off_c, 0, 98, 0
1, 857024, Note_off_c, 0, 112, 0
1, 858005, Note_off_c, 0, 77, 0
1, 860633, Note_off_c, 0, 112, 0
1, 862500, Marker_t, Division 2 Length: 0:00.250 (0:25.500 - 0:25.750) endTick: 870000 
1, 862800, Note_on_c, 0, 107, 99
1, 870000, Marker_t, Beat 12 Length: 0:00.500 (0:25.750 - 0:26.250) endTick: 885000 
1, 870000, Marker_t, Division 1 Length: 0:00.056 (0:25.750 - 0:25.806) endTick: 871667 
1, 870018, Note_on_c, 0, 36, 99
1, 870025, Note_on_c, 0, 81, 99
1, 870039, Note_on_c, 0, 88, 99
1, 870050, Note_on_c, 0, 65, 99
1, 870058, Note_off_c, 0, 50, 0
1, 871480, Note_off_c, 0, 81, 0
1, 871528, Note_off_c, 0, 88, 0
1, 871667, Marker_t, Division 2 Length: 0:00.056 (0:25.806 - 0:25.861) endTick: 873333 
1, 871674, Note_on_c, 0, 69, 99
1, 871704, Note_on_c, 0, 72, 99
1, 871715, Note_on_c, 0, 101, 99
1, 871854, Note_off_c, 0, 36, 0
1, 872238, Note_off_c, 0, 105, 0
1, 873333, Marker_t, Division 3 Length: 0:00.056 (0:25.861 - 0:25.917) endTick: 875000 
1, 873380, Note_on_c, 0, 53, 99
1, 873392, Note_on_c, 0, 91, 99
1, 873403, Note_on_c, 0, 81, 99
1, 873407, Note_on_c, 0, 53, 99
1, 873410, Note_on_c, 0, 41, 99
1, 873774, Note_off_c, 0, 91, 0
1, 874545, Note_off_c, 0, 72, 0
1, 874739, Note_off_c, 0, 101, 0
1, 875000, Marker_t, Division 4 Length: 0:00.056 (0:25.917 - 0:25.972) endTick: 876667 
1, 875037, Note_on_c, 0, 35, 99
1, 875208, Note_off_c, 0, 65, 0
1, 875618, Note_off_c, 0, 53, 0
1, 875993, Note_off_c, 0, 53, 0
1, 876151, Note_off_c, 0, 35, 0
1, 876667, Marker_t, Division 5 Length: 0:00.056 (0:25.972 - 0:26.028) endTick: 878333 
1, 876701, Note_on_c, 0, 112, 99
1, 876770, Note_off_c, 0, 36, 0
1, 877056, Note_off_c, 0, 48, 0
1, 877663, Note_off_c, 0, 81, 0
1, 878333, Marker_t, Division 6 Length: 0:00.056 (0:26.028 - 0:26.083) endTick: 880000 
1, 878374, Note_on_c, 0, 31, 99
1, 878405, Note_on_c, 0, 108, 99
1, 878715, Note_off_c, 0, 112, 0
1, 879211, Note_off_c, 0, 84, 0
1, 879554, Note_off_c, 0, 69, 0
1, 880000, Marker_t, Division 7 Length: 0:00.056 (0:26.083 - 0:26.139) endTick: 881667 
1, 880001, Note_on_c, 0, 72, 99
1, 880012, Note_on_c, 0, 29, 99
1, 880020, Note_on_c, 0, 74, 99
1, 880026, Note_on_c, 0, 33, 99
1, 880451, Note_off_c, 0, 31, 0
1, 880488, Note_off_c, 0, 41, 0
1, 881667, Marker_t, Division 8 Length: 0:00.056 (0:26.139 - 0:26.194) endTick: 883333 
1, 881670, Note_on_c, 0, 28, 99
1, 881687, Note_on_c, 0, 76, 99
1, 882843, Note_off_c, 0, 28, 0
1, 883333, Marker_t, Division 9 Length: 0:00.056 (0:26.194 - 0:26.250) endTick: 885000 
1, 883362, Note_off_c, 0, 107, 0
1, 883387, Note_on_c, 0, 83, 99
1, 883410, Note_on_c, 0, 72, 99
1, 883416, Note_on_c, 0, 86, 99
1, 883890, Note_off_c, 0, 108, 0
1, 885000, Marker_t, Beat 13 Length: 0:00.500 (0:26.250 - 0:26.750) endTick: 900000 
1, 885000, Marker_t, Division 1 Length: 0:00.050 (0:26.250 - 0:26.300) endTick: 886500 
1, 885014, Note_on_c, 0, 76, 99
1, 885050, Note_on_c, 0, 101, 99
1, 885369, Note_off_c, 0, 29, 0
1, 885606, Note_off_c, 0, 76, 0
1, 885752, Note_off_c, 0, 33, 0
1, 886500, Marker_t, Division 2 Length: 0:00.050 (0:26.300 - 0:26.350) endTick: 888000 
1, 886502, Note_on_c, 0, 71, 99
1, 886512, Note_on_c, 0, 57, 99
1, 886527, Note_on_c, 0, 100, 99
1, 886547, Note_on_c, 0, 110, 99
1, 886556, Note_off_c, 0, 24, 0
1, 887006, Note_off_c, 0, 72, 0
1, 887097, Note_off_c, 0, 76, 0
1, 887518, Note_off_c, 0, 101, 0
1, 888000, Marker_t, Division 3 Length: 0:00.050 (0:26.350 - 0:26.400) endTick: 889500 
1, 888022, Note_on_c, 0, 45, 99
1, 888033, Note_off_c, 0, 74, 0
1, 888060, Note_on_c, 0, 24, 99
1, 888279, Note_off_c, 0, 86, 0
1, 888707, Note_off_c, 0, 71, 0
1, 888778, Note_off_c, 0, 83, 0
1, 888905, Note_off_c, 0, 110, 0
1, 889012, Note_off_c, 0, 57, 0
1, 889500, Marker_t, Division 4 Length: 0:00.050 (0:26.400 - 0:26.450) endTick: 891000 
1, 889502, Note_on_c, 0, 91, 99
1, 890560, Note_off_c, 0, 24, 0
1, 890677, Note_off_c, 0, 100, 0
1, 890807, Note_off_c, 0, 72, 0
1, 891000, Marker_t, Division 5 Length: 0:00.050 (0:26.450 - 0:26.500) endTick: 892500 
1, 891030, Note_on_c, 0, 59, 99
1, 891046, Note_on_c, 0, 84, 99
1, 891062, Note_on_c, 0, 43, 99
1, 891064, Note_on_c, 0, 43, 99
1, 891070, Note_on_c, 0, 60, 99
1, 891685, Note_off_c, 0, 60, 0
1, 892500, Marker_t, Division 6 Length: 0:00.050 (0:26.500 - 0:26.550) endTick: 894000 
1, 892528, Note_on_c, 0, 41, 99
1, 892534, Note_on_c, 0, 89, 99
1, 892535, Note_on_c, 0, 117, 99
1, 892558, Note_on_c, 0, 86, 99
1, 892564, Note_on_c, 0, 28, 99
1, 893453, Note_off_c, 0, 43, 0
1, 894000, Marker_t, Division 7 Length: 0:00.050 (0:26.550 - 0:26.600) endTick: 895500 
1, 894036, Note_on_c, 0, 45, 99
1, 894060, Note_on_c, 0, 67, 99
1, 894161, Note_off_c, 0, 67, 0
1, 894370, Note_off_c, 0, 117, 0
1, 894698, Note_off_c, 0, 89, 0
1, 895161, Note_off_c, 0, 45, 0
1, 895500, Marker_t, Division 8 Length: 0:00.050 (0:26.600 - 0:26.650) endTick: 897000 
1, 895521, Note_on_c, 0, 26, 99
1, 895531, Note_on_c, 0, 40, 99
1, 895540, Note_on_c, 0, 33, 99
1, 895558, Note_off_c, 0, 91, 0
1, 895566, Note_on_c, 0, 29, 99
1, 895598, Note_off_c, 0, 84, 0
1, 895835, Note_off_c, 0, 40, 0
1, 896583, Note_off_c, 0, 86, 0
1, 897000, Marker_t, Division 9 Length: 0:00.050 (0:26.650 - 0:26.700) endTick: 898500 
1, 897010, Note_on_c, 0, 64, 99
1, 897033, Note_on_c, 0, 95, 99
1, 897052, Note_on_c, 0, 24, 99
1, 897071, Note_on_c, 0, 38, 99
1, 897195, Note_off_c, 0, 59, 0
1, 897326, Note_off_c, 0, 41, 0
1, 897525, Note_off_c, 0, 29, 0
1, 897974, Note_off_c, 0, 28, 0
1, 898016, Note_off_c, 0, 45, 0
1, 898388, Note_off_c, 0, 43, 0
1, 898500, Marker_t, Division 10 Length: 0:00.050 (0:26.700 - 0:26.750) endTick: 900000 
1, 898536, Note_on_c, 0, 28, 99
1, 898564, Note_on_c, 0, 86, 99
1, 898618, Note_off_c, 0, 95, 0
1, 899310, Note_off_c, 0, 64, 0
1, 899560, Note_off_c, 0, 26, 0
1, 899613, Note_off_c, 0, 24, 0
1, 900000, Time_signature, 14, 3, 24, 8
1, 900000, Tempo, 1125000
1, 900000, Marker_t, Measure 7 Length: 0:07.875 (0:26.750 - 0:34.625) endTick: 1110000 Original Meter: 14/9 Spoofed Meter: 14/8
1, 900000, Marker_t, Beat 1 Length: 0:00.563 (0:26.750 - 0:27.313) endTick: 915000 
1, 900000, Marker_t, Division 1 Length: 0:00.563 (0:26.750 - 0:27.313) endTick: 915000 
1, 900070, Note_off_c, 0, 33, 0
1, 900351, Note_on_c, 0, 62, 99
1, 903991, Note_off_c, 0, 38, 0
1, 905738, Note_off_c, 0, 86, 0
1, 905787, Note_off_c, 0, 28, 0
1, 915000, Marker_t, Beat 2 Length: 0:00.563 (0:27.313 - 0:27.875) endTick: 930000 
1, 915000, Marker_t, Division 1 Length: 0:00.113 (0:27.313 - 0:27.425) endTick: 918000 
1, 915029, Note_on_c, 0, 86, 99
1, 915030, Note_on_c, 0, 62, 99
1, 915031, Note_on_c, 0, 55, 99
1, 915044, Note_on_c, 0, 83, 99
1, 915046, Note_on_c, 0, 64, 99
1, 917960, Note_off_c, 0, 55, 0
1, 918000, Marker_t, Division 2 Length: 0:00.113 (0:27.425 - 0:27.538) endTick: 921000 
1, 918006, Note_on_c, 0, 62, 99
1, 918060, Note_on_c, 0, 47, 99
1, 918857, Note_off_c, 0, 83, 0
1, 921000, Marker_t, Division 3 Length: 0:00.113 (0:27.538 - 0:27.650) endTick: 924000 
1, 921054, Note_on_c, 0, 93, 99
1, 921108, Note_off_c, 0, 64, 0
1, 923639, Note_off_c, 0, 47, 0
1, 924000, Marker_t, Division 4 Length: 0:00.113 (0:27.650 - 0:27.762) endTick: 927000 
1, 924005, Note_on_c, 0, 62, 99
1, 924026, Note_on_c, 0, 57, 99
1, 924076, Note_on_c, 0, 24, 99
1, 924098, Note_on_c, 0, 74, 99
1, 924119, Note_on_c, 0, 107, 99
1, 924129, Note_on_c, 0, 62, 99
1, 925808, Note_off_c, 0, 62, 0
1, 927000, Marker_t, Division 5 Length: 0:00.113 (0:27.762 - 0:27.875) endTick: 930000 
1, 927016, Note_on_c, 0, 95, 99
1, 927055, Note_on_c, 0, 103, 99
1, 927068, Note_on_c, 0, 64, 99
1, 927774, Note_off_c, 0, 86, 0
1, 928986, Note_off_c, 0, 62, 0
1, 930000, Marker_t, Beat 3 Length: 0:00.563 (0:27.875 - 0:28.438) endTick: 945000 
1, 930000, Marker_t, Division 1 Length: 0:00.188 (0:27.875 - 0:28.063) endTick: 935000 
1, 930007, Note_on_c, 0, 96, 99
1, 930070, Note_off_c, 0, 62, 0
1, 930685, Note_off_c, 0, 57, 0
1, 931253, Note_off_c, 0, 64, 0
1, 931697, Note_off_c, 0, 62, 0
1, 932659, Note_off_c, 0, 74, 0
1, 932851, Note_off_c, 0, 24, 0
1, 935000, Marker_t, Division 2 Length: 0:00.188 (0:28.063 - 0:28.250) endTick: 940000 
1, 935095, Note_on_c, 0, 38, 99
1, 935102, Note_on_c, 0, 107, 99
1, 935133, Note_on_c, 0, 108, 99
1, 935166, Note_on_c, 0, 47, 99
1, 935581, Note_off_c, 0, 93, 0
1, 937349, Note_off_c, 0, 103, 0
1, 937633, Note_off_c, 0, 107, 0
1, 938826, Note_off_c, 0, 95, 0
1, 940000, Marker_t, Division 3 Length: 0:00.188 (0:28.250 - 0:28.438) endTick: 945000 
1, 940060, Note_on_c, 0, 47, 99
1, 940098, Note_on_c, 0, 35, 99
1, 940111, Note_on_c, 0, 55, 99
1, 940155, Note_on_c, 0, 98, 99
1, 940183, Note_on_c, 0, 108, 99
1, 941818, Note_off_c, 0, 96, 0
1, 943728, Note_off_c, 0, 38, 0
1, 943952, Note_off_c, 0, 55, 0
1, 945000, Marker_t, Beat 4 Length: 0:00.563 (0:28.438 - 0:29.000) endTick: 960000 
1, 945000, Marker_t, Division 1 Length: 0:00.563 (0:28.438 - 0:29.000) endTick: 960000 
1, 945483, Note_on_c, 0, 76, 99
1, 945565, Note_off_c, 0, 35, 0
1, 948626, Note_off_c, 0, 47, 0
1, 950645, Note_off_c, 0, 108, 0
1, 950651, Note_off_c, 0, 76, 0
1, 951599, Note_off_c, 0, 107, 0
1, 952386, Note_off_c, 0, 62, 0
1, 954448, Note_off_c, 0, 98, 0
1, 959610, Note_off_c, 0, 47, 0
1, 959742, Note_off_c, 0, 108, 0
1, 960000, Marker_t, Beat 5 Length: 0:00.563 (0:29.000 - 0:29.563) endTick: 975000 
1, 960000, Marker_t, Division 1 Length: 0:00.070 (0:29.000 - 0:29.070) endTick: 961875 
1, 960070, Note_on_c, 0, 88, 99
1, 961875, Marker_t, Division 2 Length: 0:00.070 (0:29.070 - 0:29.141) endTick: 963750 
1, 961912, Note_on_c, 0, 48, 99
1, 961917, Note_on_c, 0, 110, 99
1, 961934, Note_on_c, 0, 98, 99
1, 962420, Note_off_c, 0, 88, 0
1, 963750, Marker_t, Division 3 Length: 0:00.070 (0:29.141 - 0:29.211) endTick: 965625 
1, 963773, Note_on_c, 0, 69, 99
1, 963807, Note_on_c, 0, 74, 99
1, 963825, Note_on_c, 0, 47, 99
1, 963832, Note_on_c, 0, 24, 99
1, 965625, Marker_t, Division 4 Length: 0:00.070 (0:29.211 - 0:29.281) endTick: 967500 
1, 965652, Note_on_c, 0, 105, 99
1, 965683, Note_on_c, 0, 95, 99
1, 965700, Note_on_c, 0, 53, 99
1, 965714, Note_on_c, 0, 113, 99
1, 966649, Note_off_c, 0, 105, 0
1, 967500, Marker_t, Division 5 Length: 0:00.070 (0:29.281 - 0:29.352) endTick: 969375 
1, 967541, Note_on_c, 0, 36, 99
1, 967542, Note_on_c, 0, 33, 99
1, 967554, Note_on_c, 0, 72, 99
1, 967560, Note_on_c, 0, 26, 99
1, 967814, Note_off_c, 0, 53, 0
1, 968650, Note_off_c, 0, 74, 0
1, 968903, Note_off_c, 0, 113, 0
1, 969069, Note_off_c, 0, 24, 0
1, 969264, Note_off_c, 0, 110, 0
1, 969354, Note_off_c, 0, 95, 0
1, 969375, Marker_t, Division 6 Length: 0:00.070 (0:29.352 - 0:29.422) endTick: 971250 
1, 969390, Note_on_c, 0, 108, 99
1, 969411, Note_on_c, 0, 57, 99
1, 969445, Note_off_c, 0, 48, 0
1, 969446, Note_on_c, 0, 47, 99
1, 969446, Note_on_c, 0, 119, 99
1, 969488, Note_off_c, 0, 98, 0
1, 969745, Note_off_c, 0, 33, 0
1, 970019, Note_off_c, 0, 108, 0
1, 970693, Note_off_c, 0, 36, 0
1, 971030, Note_off_c, 0, 69, 0
1, 971250, Marker_t, Division 7 Length: 0:00.070 (0:29.422 - 0:29.492) endTick: 973125 
1, 971274, Note_off_c, 0, 26, 0
1, 971278, Note_on_c, 0, 26, 99
1, 971296, Note_on_c, 0, 50, 99
1, 971331, Note_on_c, 0, 100, 99
1, 971899, Note_off_c, 0, 47, 0
1, 972600, Note_off_c, 0, 47, 0
1, 972668, Note_off_c, 0, 72, 0
1, 972883, Note_off_c, 0, 50, 0
1, 973125, Marker_t, Division 8 Length: 0:00.070 (0:29.492 - 0:29.563) endTick: 975000 
1, 973158, Note_on_c, 0, 115, 99
1, 973177, Note_on_c, 0, 95, 99
1, 973180, Note_on_c, 0, 55, 99
1, 973181, Note_on_c, 0, 88, 99
1, 973192, Note_on_c, 0, 96, 99
1, 973497, Note_off_c, 0, 95, 0
1, 975000, Marker_t, Beat 6 Length: 0:00.563 (0:29.563 - 0:30.125) endTick: 990000 
1, 975000, Marker_t, Division 1 Length: 0:00.188 (0:29.563 - 0:29.750) endTick: 980000 
1, 975093, Note_on_c, 0, 41, 99
1, 975112, Note_on_c, 0, 93, 99
1, 975125, Note_on_c, 0, 65, 99
1, 975141, Note_on_c, 0, 45, 99
1, 975242, Note_on_c, 0, 47, 99
1, 975482, Note_off_c, 0, 88, 0
1, 977336, Note_off_c, 0, 96, 0
1, 977435, Note_off_c, 0, 57, 0
1, 977714, Note_off_c, 0, 119, 0
1, 979451, Note_off_c, 0, 55, 0
1, 979703, Note_off_c, 0, 100, 0
1, 979878, Note_off_c, 0, 115, 0
1, 980000, Marker_t, Division 2 Length: 0:00.188 (0:29.750 - 0:29.938) endTick: 985000 
1, 980086, Note_on_c, 0, 83, 99
1, 980113, Note_on_c, 0, 91, 99
1, 980192, Note_on_c, 0, 100, 99
1, 980225, Note_on_c, 0, 117, 99
1, 980274, Note_off_c, 0, 26, 0
1, 981018, Note_off_c, 0, 41, 0
1, 982628, Note_off_c, 0, 100, 0
1, 984387, Note_off_c, 0, 65, 0
1, 985000, Marker_t, Division 3 Length: 0:00.188 (0:29.938 - 0:30.125) endTick: 990000 
1, 985230, Note_on_c, 0, 47, 99
1, 987597, Note_off_c, 0, 47, 0
1, 989783, Note_off_c, 0, 117, 0
1, 989880, Note_off_c, 0, 93, 0
1, 990000, Marker_t, Beat 7 Length: 0:00.563 (0:30.125 - 0:30.688) endTick: 1005000 
1, 990000, Marker_t, Division 1 Length: 0:00.094 (0:30.125 - 0:30.219) endTick: 992500 
1, 990023, Note_on_c, 0, 91, 99
1, 990056, Note_on_c, 0, 48, 99
1, 991686, Note_off_c, 0, 47, 0
1, 992500, Marker_t, Division 2 Length: 0:00.094 (0:30.219 - 0:30.313) endTick: 995000 
1, 992531, Note_on_c, 0, 52, 99
1, 992536, Note_on_c, 0, 60, 99
1, 992570, Note_on_c, 0, 31, 99
1, 992611, Note_on_c, 0, 81, 99
1, 992623, Note_on_c, 0, 33, 99
1, 993130, Note_off_c, 0, 52, 0
1, 993600, Note_off_c, 0, 60, 0
1, 994248, Note_off_c, 0, 91, 0
1, 995000, Marker_t, Division 3 Length: 0:00.094 (0:30.313 - 0:30.406) endTick: 997500 
1, 995068, Note_on_c, 0, 113, 99
1, 996432, Note_off_c, 0, 48, 0
1, 997500, Marker_t, Division 4 Length: 0:00.094 (0:30.406 - 0:30.500) endTick: 1000000 
1, 997590, Note_on_c, 0, 74, 99
1, 997760, Note_off_c, 0, 83, 0
1, 998202, Note_off_c, 0, 74, 0
1, 999039, Note_off_c, 0, 45, 0
1, 999116, Note_off_c, 0, 33, 0
1, 999426, Note_off_c, 0, 31, 0
1, 999830, Note_off_c, 0, 113, 0
1, 1000000, Marker_t, Division 5 Length: 0:00.094 (0:30.500 - 0:30.594) endTick: 1002500 
1, 1000038, Note_on_c, 0, 60, 99
1, 1001908, Note_off_c, 0, 81, 0
1, 1002263, Note_off_c, 0, 91, 0
1, 1002500, Marker_t, Division 6 Length: 0:00.094 (0:30.594 - 0:30.688) endTick: 1005000 
1, 1002537, Note_on_c, 0, 110, 99
1, 1002559, Note_on_c, 0, 77, 99
1, 1002577, Note_on_c, 0, 108, 99
1, 1002622, Note_on_c, 0, 41, 99
1, 1002799, Note_off_c, 0, 60, 0
1, 1005000, Marker_t, Beat 8 Length: 0:00.563 (0:30.688 - 0:31.250) endTick: 1020000 
1, 1005000, Marker_t, Division 1 Length: 0:00.063 (0:30.688 - 0:30.750) endTick: 1006667 
1, 1005007, Note_on_c, 0, 112, 99
1, 1005043, Note_on_c, 0, 96, 99
1, 1005061, Note_on_c, 0, 26, 99
1, 1005915, Note_off_c, 0, 110, 0
1, 1006667, Marker_t, Division 2 Length: 0:00.063 (0:30.750 - 0:30.813) endTick: 1008333 
1, 1006684, Note_on_c, 0, 43, 99
1, 1006727, Note_on_c, 0, 84, 99
1, 1006746, Note_on_c, 0, 119, 99
1, 1007126, Note_off_c, 0, 108, 0
1, 1008333, Marker_t, Division 3 Length: 0:00.063 (0:30.813 - 0:30.875) endTick: 1010000 
1, 1008356, Note_on_c, 0, 98, 99
1, 1008372, Note_on_c, 0, 112, 99
1, 1008383, Note_on_c, 0, 76, 99
1, 1008394, Note_on_c, 0, 96, 99
1, 1008509, Note_off_c, 0, 26, 0
1, 1008600, Note_off_c, 0, 96, 0
1, 1008745, Note_off_c, 0, 84, 0
1, 1009601, Note_off_c, 0, 112, 0
1, 1010000, Marker_t, Division 4 Length: 0:00.063 (0:30.875 - 0:30.938) endTick: 1011667 
1, 1010015, Note_on_c, 0, 89, 99
1, 1010023, Note_on_c, 0, 55, 99
1, 1010046, Note_on_c, 0, 93, 99
1, 1010059, Note_on_c, 0, 86, 99
1, 1010116, Note_off_c, 0, 98, 0
1, 1011414, Note_off_c, 0, 43, 0
1, 1011447, Note_off_c, 0, 119, 0
1, 1011487, Note_off_c, 0, 76, 0
1, 1011667, Marker_t, Division 5 Length: 0:00.063 (0:30.938 - 0:31.000) endTick: 1013333 
1, 1011686, Note_on_c, 0, 28, 99
1, 1011746, Note_on_c, 0, 36, 99
1, 1011749, Note_on_c, 0, 113, 99
1, 1011836, Note_off_c, 0, 93, 0
1, 1012314, Note_off_c, 0, 86, 0
1, 1012357, Note_off_c, 0, 77, 0
1, 1012531, Note_off_c, 0, 36, 0
1, 1013200, Note_off_c, 0, 89, 0
1, 1013302, Note_off_c, 0, 113, 0
1, 1013333, Marker_t, Division 6 Length: 0:00.063 (0:31.000 - 0:31.063) endTick: 1015000 
1, 1013335, Note_on_c, 0, 57, 99
1, 1013345, Note_on_c, 0, 31, 99
1, 1013349, Note_on_c, 0, 40, 99
1, 1013361, Note_on_c, 0, 47, 99
1, 1013370, Note_on_c, 0, 36, 99
1, 1013519, Note_off_c, 0, 41, 0
1, 1013694, Note_off_c, 0, 47, 0
1, 1014225, Note_off_c, 0, 112, 0
1, 1014792, Note_off_c, 0, 96, 0
1, 1015000, Marker_t, Division 7 Length: 0:00.063 (0:31.063 - 0:31.125) endTick: 1016667 
1, 1015038, Note_on_c, 0, 91, 99
1, 1015039, Note_off_c, 0, 28, 0
1, 1015067, Note_on_c, 0, 81, 99
1, 1015135, Note_off_c, 0, 55, 0
1, 1015768, Note_off_c, 0, 57, 0
1, 1016667, Marker_t, Division 8 Length: 0:00.063 (0:31.125 - 0:31.188) endTick: 1018333 
1, 1016721, Note_on_c, 0, 107, 99
1, 1016722, Note_on_c, 0, 117, 99
1, 1016740, Note_on_c, 0, 101, 99
1, 1017398, Note_off_c, 0, 40, 0
1, 1017500, Note_off_c, 0, 36, 0
1, 1018000, Note_off_c, 0, 91, 0
1, 1018333, Marker_t, Division 9 Length: 0:00.063 (0:31.188 - 0:31.250) endTick: 1020000 
1, 1018338, Note_on_c, 0, 71, 99
1, 1018344, Note_on_c, 0, 108, 99
1, 1018350, Note_on_c, 0, 43, 99
1, 1018407, Note_on_c, 0, 67, 99
1, 1019133, Note_off_c, 0, 31, 0
1, 1020000, Marker_t, Beat 9 Length: 0:00.563 (0:31.250 - 0:31.813) endTick: 1035000 
1, 1020000, Marker_t, Division 1 Length: 0:00.056 (0:31.250 - 0:31.306) endTick: 1021500 
1, 1020008, Note_on_c, 0, 103, 99
1, 1020011, Note_on_c, 0, 45, 99
1, 1020026, Note_on_c, 0, 103, 99
1, 1020055, Note_on_c, 0, 100, 99
1, 1020068, Note_on_c, 0, 95, 99
1, 1020209, Note_off_c, 0, 81, 0
1, 1020575, Note_off_c, 0, 108, 0
1, 1020700, Note_off_c, 0, 103, 0
1, 1020996, Note_off_c, 0, 101, 0
1, 1021500, Marker_t, Division 2 Length: 0:00.056 (0:31.306 - 0:31.362) endTick: 1023000 
1, 1021504, Note_on_c, 0, 98, 99
1, 1021514, Note_on_c, 0, 84, 99
1, 1021550, Note_on_c, 0, 81, 99
1, 1021552, Note_on_c, 0, 41, 99
1, 1021760, Note_off_c, 0, 84, 0
1, 1022347, Note_off_c, 0, 95, 0
1, 1022606, Note_off_c, 0, 98, 0
1, 1022614, Note_off_c, 0, 107, 0
1, 1022723, Note_off_c, 0, 45, 0
1, 1022928, Note_off_c, 0, 71, 0
1, 1023000, Marker_t, Division 3 Length: 0:00.056 (0:31.363 - 0:31.419) endTick: 1024500 
1, 1023041, Note_on_c, 0, 72, 99
1, 1023346, Note_off_c, 0, 67, 0
1, 1024314, Note_off_c, 0, 81, 0
1, 1024500, Marker_t, Division 4 Length: 0:00.056 (0:31.419 - 0:31.475) endTick: 1026000 
1, 1024513, Note_on_c, 0, 29, 99
1, 1024522, Note_on_c, 0, 24, 99
1, 1024573, Note_on_c, 0, 26, 99
1, 1024659, Note_off_c, 0, 117, 0
1, 1024915, Note_off_c, 0, 103, 0
1, 1025044, Note_off_c, 0, 43, 0
1, 1025748, Note_off_c, 0, 100, 0
1, 1025846, Note_off_c, 0, 24, 0
1, 1026000, Marker_t, Division 5 Length: 0:00.056 (0:31.475 - 0:31.531) endTick: 1027500 
1, 1026050, Note_on_c, 0, 38, 99
1, 1026182, Note_off_c, 0, 26, 0
1, 1026732, Note_off_c, 0, 72, 0
1, 1027500, Marker_t, Division 6 Length: 0:00.056 (0:31.531 - 0:31.587) endTick: 1029000 
1, 1027530, Note_on_c, 0, 24, 99
1, 1027867, Note_off_c, 0, 41, 0
1, 1028570, Note_off_c, 0, 29, 0
1, 1028584, Note_off_c, 0, 24, 0
1, 1029000, Marker_t, Division 7 Length: 0:00.056 (0:31.587 - 0:31.644) endTick: 1030500 
1, 1029011, Note_on_c, 0, 69, 99
1, 1029018, Note_on_c, 0, 33, 99
1, 1029026, Note_on_c, 0, 84, 99
1, 1030500, Marker_t, Division 8 Length: 0:00.056 (0:31.644 - 0:31.700) endTick: 1032000 
1, 1030537, Note_off_c, 0, 33, 0
1, 1030572, Note_on_c, 0, 67, 99
1, 1032000, Marker_t, Division 9 Length: 0:00.056 (0:31.700 - 0:31.756) endTick: 1033500 
1, 1032005, Note_on_c, 0, 105, 99
1, 1032022, Note_on_c, 0, 88, 99
1, 1033012, Note_off_c, 0, 69, 0
1, 1033050, Note_off_c, 0, 38, 0
1, 1033500, Marker_t, Division 10 Length: 0:00.056 (0:31.756 - 0:31.813) endTick: 1035000 
1, 1033518, Note_on_c, 0, 31, 99
1, 1033532, Note_on_c, 0, 89, 99
1, 1033534, Note_on_c, 0, 47, 99
1, 1033560, Note_on_c, 0, 101, 99
1, 1034907, Note_off_c, 0, 88, 0
1, 1034999, Note_off_c, 0, 105, 0
1, 1035000, Marker_t, Beat 10 Length: 0:00.563 (0:31.813 - 0:32.375) endTick: 1050000 
1, 1035000, Marker_t, Division 1 Length: 0:00.281 (0:31.813 - 0:32.094) endTick: 1042500 
1, 1035001, Note_on_c, 0, 64, 99
1, 1035078, Note_on_c, 0, 79, 99
1, 1035194, Note_on_c, 0, 71, 99
1, 1035731, Note_off_c, 0, 101, 0
1, 1036330, Note_off_c, 0, 84, 0
1, 1036860, Note_off_c, 0, 47, 0
1, 1037327, Note_off_c, 0, 67, 0
1, 1037963, Note_off_c, 0, 31, 0
1, 1039795, Note_off_c, 0, 89, 0
1, 1042500, Marker_t, Division 2 Length: 0:00.281 (0:32.094 - 0:32.375) endTick: 1050000 
1, 1042617, Note_on_c, 0, 88, 99
1, 1050000, Marker_t, Beat 11 Length: 0:00.563 (0:32.375 - 0:32.938) endTick: 1065000 
1, 1050000, Marker_t, Division 1 Length: 0:00.070 (0:32.375 - 0:32.445) endTick: 1051875 
1, 1050031, Note_on_c, 0, 86, 99
1, 1050064, Note_on_c, 0, 100, 99
1, 1050069, Note_on_c, 0, 52, 99
1, 1051518, Note_off_c, 0, 52, 0
1, 1051875, Marker_t, Division 2 Length: 0:00.070 (0:32.445 - 0:32.516) endTick: 1053750 
1, 1051926, Note_on_c, 0, 31, 99
1, 1051928, Note_on_c, 0, 115, 99
1, 1051950, Note_on_c, 0, 108, 99
1, 1051956, Note_on_c, 0, 35, 99
1, 1051961, Note_on_c, 0, 107, 99
1, 1052307, Note_off_c, 0, 86, 0
1, 1053285, Note_off_c, 0, 64, 0
1, 1053750, Marker_t, Division 3 Length: 0:00.070 (0:32.516 - 0:32.586) endTick: 1055625 
1, 1053761, Note_on_c, 0, 24, 99
1, 1053770, Note_on_c, 0, 52, 99
1, 1053786, Note_on_c, 0, 86, 99
1, 1053805, Note_on_c, 0, 35, 99
1, 1053832, Note_on_c, 0, 65, 99
1, 1054085, Note_off_c, 0, 35, 0
1, 1054902, Note_off_c, 0, 100, 0
1, 1055315, Note_off_c, 0, 108, 0
1, 1055590, Note_off_c, 0, 71, 0
1, 1055625, Marker_t, Division 4 Length: 0:00.070 (0:32.586 - 0:32.656) endTick: 1057500 
1, 1055645, Note_on_c, 0, 103, 99
1, 1055664, Note_on_c, 0, 103, 99
1, 1055675, Note_on_c, 0, 33, 99
1, 1055677, Note_on_c, 0, 47, 99
1, 1055687, Note_on_c, 0, 31, 99
1, 1055817, Note_off_c, 0, 86, 0
1, 1056575, Note_off_c, 0, 47, 0
1, 1057500, Marker_t, Division 5 Length: 0:00.070 (0:32.656 - 0:32.727) endTick: 1059375 
1, 1057501, Note_on_c, 0, 110, 99
1, 1057508, Note_on_c, 0, 79, 99
1, 1057515, Note_on_c, 0, 53, 99
1, 1057531, Note_on_c, 0, 113, 99
1, 1058028, Note_off_c, 0, 103, 0
1, 1058517, Note_off_c, 0, 31, 0
1, 1058530, Note_off_c, 0, 35, 0
1, 1059055, Note_off_c, 0, 52, 0
1, 1059375, Marker_t, Division 6 Length: 0:00.070 (0:32.727 - 0:32.797) endTick: 1061250 
1, 1059410, Note_on_c, 0, 60, 99
1, 1059514, Note_off_c, 0, 115, 0
1, 1060424, Note_off_c, 0, 33, 0
1, 1060877, Note_off_c, 0, 79, 0
1, 1060911, Note_off_c, 0, 107, 0
1, 1060958, Note_off_c, 0, 79, 0
1, 1061250, Marker_t, Division 7 Length: 0:00.070 (0:32.797 - 0:32.867) endTick: 1063125 
1, 1061251, Note_on_c, 0, 64, 99
1, 1061275, Note_on_c, 0, 101, 99
1, 1061300, Note_on_c, 0, 50, 99
1, 1061332, Note_on_c, 0, 71, 99
1, 1061675, Note_off_c, 0, 31, 0
1, 1062204, Note_off_c, 0, 71, 0
1, 1062641, Note_off_c, 0, 24, 0
1, 1062833, Note_off_c, 0, 113, 0
1, 1062879, Note_off_c, 0, 103, 0
1, 1063061, Note_off_c, 0, 65, 0
1, 1063125, Marker_t, Division 8 Length: 0:00.070 (0:32.867 - 0:32.938) endTick: 1065000 
1, 1063149, Note_on_c, 0, 84, 99
1, 1063362, Note_off_c, 0, 53, 0
1, 1064468, Note_off_c, 0, 101, 0
1, 1064937, Note_off_c, 0, 110, 0
1, 1065000, Marker_t, Beat 12 Length: 0:00.563 (0:32.938 - 0:33.500) endTick: 1080000 
1, 1065000, Marker_t, Division 1 Length: 0:00.188 (0:32.938 - 0:33.125) endTick: 1070000 
1, 1065057, Note_on_c, 0, 62, 99
1, 1065169, Note_on_c, 0, 93, 99
1, 1065191, Note_on_c, 0, 31, 99
1, 1065230, Note_on_c, 0, 52, 99
1, 1066456, Note_off_c, 0, 52, 0
1, 1066533, Note_off_c, 0, 62, 0
1, 1066832, Note_off_c, 0, 60, 0
1, 1067943, Note_off_c, 0, 84, 0
1, 1068213, Note_off_c, 0, 64, 0
1, 1069510, Note_off_c, 0, 88, 0
1, 1070000, Marker_t, Division 2 Length: 0:00.188 (0:33.125 - 0:33.313) endTick: 1075000 
1, 1070009, Note_on_c, 0, 86, 99
1, 1070038, Note_on_c, 0, 59, 99
1, 1070051, Note_on_c, 0, 45, 99
1, 1070188, Note_on_c, 0, 24, 99
1, 1070218, Note_on_c, 0, 98, 99
1, 1070271, Note_off_c, 0, 50, 0
1, 1075000, Marker_t, Division 3 Length: 0:00.188 (0:33.313 - 0:33.500) endTick: 1080000 
1, 1075002, Note_on_c, 0, 33, 99
1, 1075065, Note_on_c, 0, 24, 99
1, 1075208, Note_on_c, 0, 38, 99
1, 1075496, Note_off_c, 0, 98, 0
1, 1080000, Marker_t, Beat 13 Length: 0:00.563 (0:33.500 - 0:34.063) endTick: 1095000 
1, 1080000, Marker_t, Division 1 Length: 0:00.112 (0:33.500 - 0:33.612) endTick: 1083000 
1, 1080023, Note_on_c, 0, 115, 99
1, 1080023, Note_on_c, 0, 86, 99
1, 1080025, Note_on_c, 0, 31, 99
1, 1080042, Note_on_c, 0, 71, 99
1, 1080052, Note_off_c, 0, 24, 0
1, 1080084, Note_on_c, 0, 52, 99
1, 1080370, Note_off_c, 0, 93, 0
1, 1080409, Note_off_c, 0, 86, 0
1, 1080491, Note_off_c, 0, 24, 0
1, 1080785, Note_off_c, 0, 71, 0
1, 1082271, Note_off_c, 0, 45, 0
1, 1082438, Note_off_c, 0, 33, 0
1, 1083000, Marker_t, Division 2 Length: 0:00.112 (0:33.612 - 0:33.725) endTick: 1086000 
1, 1083019, Note_on_c, 0, 108, 99
1, 1083053, Note_on_c, 0, 112, 99
1, 1083137, Note_on_c, 0, 95, 99
1, 1085889, Note_off_c, 0, 31, 0
1, 1086000, Marker_t, Division 3 Length: 0:00.112 (0:33.725 - 0:33.837) endTick: 1089000 
1, 1086058, Note_on_c, 0, 26, 99
1, 1086438, Note_off_c, 0, 59, 0
1, 1086507, Note_off_c, 0, 31, 0
1, 1086535, Note_off_c, 0, 115, 0
1, 1087566, Note_off_c, 0, 52, 0
1, 1089000, Marker_t, Division 4 Length: 0:00.112 (0:33.837 - 0:33.950) endTick: 1092000 
1, 1089007, Note_on_c, 0, 69, 99
1, 1089050, Note_on_c, 0, 98, 99
1, 1089059, Note_on_c, 0, 33, 99
1, 1089080, Note_on_c, 0, 96, 99
1, 1092000, Marker_t, Division 5 Length: 0:00.112 (0:33.950 - 0:34.063) endTick: 1095000 
1, 1092040, Note_on_c, 0, 47, 99
1, 1092040, Note_on_c, 0, 115, 99
1, 1092641, Note_off_c, 0, 98, 0
1, 1092645, Note_off_c, 0, 96, 0
1, 1094388, Note_off_c, 0, 33, 0
1, 1094416, Note_off_c, 0, 86, 0
1, 1095000, Marker_t, Beat 14 Length: 0:00.563 (0:34.063 - 0:34.625) endTick: 1110000 
1, 1095000, Marker_t, Division 1 Length: 0:00.080 (0:34.063 - 0:34.143) endTick: 1097143 
1, 1095017, Note_on_c, 0, 101, 99
1, 1095037, Note_on_c, 0, 65, 99
1, 1095060, Note_on_c, 0, 108, 99
1, 1095067, Note_on_c, 0, 24, 99
1, 1095082, Note_on_c, 0, 55, 99
1, 1095347, Note_off_c, 0, 112, 0
1, 1095482, Note_off_c, 0, 108, 0
1, 1095520, Note_off_c, 0, 55, 0
1, 1095796, Note_off_c, 0, 95, 0
1, 1095824, Note_off_c, 0, 65, 0
1, 1097143, Marker_t, Division 2 Length: 0:00.080 (0:34.143 - 0:34.223) endTick: 1099286 
1, 1097170, Note_on_c, 0, 101, 99
1, 1097230, Note_on_c, 0, 59, 99
1, 1097261, Note_off_c, 0, 101, 0
1, 1097429, Note_off_c, 0, 38, 0
1, 1098144, Note_off_c, 0, 108, 0
1, 1098447, Note_off_c, 0, 47, 0
1, 1099286, Marker_t, Division 3 Length: 0:00.080 (0:34.223 - 0:34.304) endTick: 1101429 
1, 1099303, Note_on_c, 0, 112, 99
1, 1099312, Note_on_c, 0, 36, 99
1, 1099316, Note_on_c, 0, 101, 99
1, 1099329, Note_on_c, 0, 110, 99
1, 1099341, Note_on_c, 0, 119, 99
1, 1099771, Note_off_c, 0, 24, 0
1, 1099817, Note_off_c, 0, 119, 0
1, 1100328, Note_off_c, 0, 26, 0
1, 1101274, Note_off_c, 0, 101, 0
1, 1101429, Marker_t, Division 4 Length: 0:00.080 (0:34.304 - 0:34.384) endTick: 1103571 
1, 1101468, Note_on_c, 0, 45, 99
1, 1101483, Note_on_c, 0, 96, 99
1, 1101518, Note_on_c, 0, 107, 99
1, 1101530, Note_on_c, 0, 76, 99
1, 1102816, Note_off_c, 0, 69, 0
1, 1103571, Marker_t, Division 5 Length: 0:00.080 (0:34.384 - 0:34.464) endTick: 1105714 
1, 1103579, Note_on_c, 0, 50, 99
1, 1103583, Note_on_c, 0, 59, 99
1, 1103627, Note_on_c, 0, 113, 99
1, 1103662, Note_on_c, 0, 105, 99
1, 1104799, Note_off_c, 0, 115, 0
1, 1104948, Note_off_c, 0, 112, 0
1, 1105714, Marker_t, Division 6 Length: 0:00.080 (0:34.464 - 0:34.545) endTick: 1107857 
1, 1105714, Note_on_c, 0, 98, 99
1, 1105772, Note_on_c, 0, 28, 99
1, 1105775, Note_on_c, 0, 41, 99
1, 1105777, Note_on_c, 0, 41, 99
1, 1106151, Note_off_c, 0, 50, 0
1, 1106262, Note_off_c, 0, 59, 0
1, 1106413, Note_off_c, 0, 28, 0
1, 1106560, Note_off_c, 0, 113, 0
1, 1106786, Note_off_c, 0, 101, 0
1, 1106873, Note_off_c, 0, 36, 0
1, 1107857, Marker_t, Division 7 Length: 0:00.080 (0:34.545 - 0:34.625) endTick: 1110000 
1, 1107867, Note_on_c, 0, 108, 99
1, 1108291, Note_off_c, 0, 98, 0
1, 1108436, Note_off_c, 0, 110, 0
1, 1108442, Note_off_c, 0, 107, 0
1, 1109109, Note_off_c, 0, 41, 0
1, 1110000, Time_signature, 13, 2, 24, 8
1, 1110000, Tempo, 750000
1, 1110000, Marker_t, Measure 8 Length: 0:09.750 (0:34.625 - 0:44.375) endTick: 1500000 Original Meter: 13/3 Spoofed Meter: 13/4
1, 1110000, Marker_t, Beat 1 Length: 0:00.750 (0:34.625 - 0:35.375) endTick: 1140000 
1, 1110000, Marker_t, Division 1 Length: 0:00.375 (0:34.625 - 0:35.000) endTick: 1125000 
1, 1110029, Note_off_c, 0, 59, 0
1, 1110083, Note_on_c, 0, 71, 99
1, 1110106, Note_on_c, 0, 79, 99
1, 1110134, Note_on_c, 0, 48, 99
1, 1110289, Note_on_c, 0, 74, 99
1, 1110369, Note_on_c, 0, 95, 99
1, 1110665, Note_off_c, 0, 45, 0
1, 1111825, Note_off_c, 0, 96, 0
1, 1111984, Note_off_c, 0, 76, 0
1, 1112770, Note_off_c, 0, 105, 0
1, 1114533, Note_off_c, 0, 79, 0
1, 1114862, Note_off_c, 0, 41, 0
1, 1116842, Note_off_c, 0, 108, 0
1, 1119200, Note_off_c, 0, 74, 0
1, 1125000, Marker_t, Division 2 Length: 0:00.375 (0:35.000 - 0:35.375) endTick: 1140000 
1, 1125056, Note_on_c, 0, 33, 99
1, 1125125, Note_on_c, 0, 93, 99
1, 1125307, Note_on_c, 0, 40, 99
1, 1125335, Note_on_c, 0, 72, 99
1, 1125394, Note_on_c, 0, 103, 99
1, 1135802, Note_off_c, 0, 33, 0
1, 1136858, Note_off_c, 0, 93, 0
1, 1137150, Note_off_c, 0, 48, 0
1, 1140000, Marker_t, Beat 2 Length: 0:00.750 (0:35.375 - 0:36.125) endTick: 1170000 
1, 1140000, Marker_t, Division 1 Length: 0:00.125 (0:35.375 - 0:35.500) endTick: 1145000 
1, 1140058, Note_on_c, 0, 76, 99
1, 1140162, Note_on_c, 0, 26, 99
1, 1145000, Marker_t, Division 2 Length: 0:00.125 (0:35.500 - 0:35.625) endTick: 1150000 
1, 1145057, Note_on_c, 0, 43, 99
1, 1145136, Note_on_c, 0, 29, 99
1, 1145225, Note_on_c, 0, 59, 99
1, 1145250, Note_on_c, 0, 55, 99
1, 1150000, Marker_t, Division 3 Length: 0:00.125 (0:35.625 - 0:35.750) endTick: 1155000 
1, 1150020, Note_on_c, 0, 84, 99
1, 1150037, Note_on_c, 0, 28, 99
1, 1150054, Note_on_c, 0, 119, 99
1, 1150062, Note_on_c, 0, 45, 99
1, 1150152, Note_on_c, 0, 71, 99
1, 1150414, Note_off_c, 0, 59, 0
1, 1152504, Note_off_c, 0, 84, 0
1, 1155000, Marker_t, Division 4 Length: 0:00.125 (0:35.750 - 0:35.875) endTick: 1160000 
1, 1155001, Note_on_c, 0, 107, 99
1, 1155070, Note_on_c, 0, 98, 99
1, 1156626, Note_off_c, 0, 76, 0
1, 1160000, Marker_t, Division 5 Length: 0:00.125 (0:35.875 - 0:36.000) endTick: 1165000 
1, 1160109, Note_on_c, 0, 83, 99
1, 1160179, Note_on_c, 0, 95, 99
1, 1163173, Note_off_c, 0, 26, 0
1, 1163857, Note_off_c, 0, 43, 0
1, 1165000, Marker_t, Division 6 Length: 0:00.125 (0:36.000 - 0:36.125) endTick: 1170000 
1, 1165013, Note_on_c, 0, 31, 99
1, 1165096, Note_on_c, 0, 43, 99
1, 1165102, Note_on_c, 0, 88, 99
1, 1165123, Note_off_c, 0, 95, 0
1, 1165138, Note_on_c, 0, 33, 99
1, 1165209, Note_on_c, 0, 89, 99
1, 1165855, Note_off_c, 0, 55, 0
1, 1166189, Note_off_c, 0, 29, 0
1, 1166737, Note_off_c, 0, 107, 0
1, 1169441, Note_off_c, 0, 83, 0
1, 1170000, Marker_t, Beat 3 Length: 0:00.750 (0:36.125 - 0:36.875) endTick: 1200000 
1, 1170000, Marker_t, Division 1 Length: 0:00.750 (0:36.125 - 0:36.875) endTick: 1200000 
1, 1170084, Note_off_c, 0, 98, 0
1, 1170491, Note_on_c, 0, 60, 99
1, 1170508, Note_off_c, 0, 45, 0
1, 1170755, Note_off_c, 0, 28, 0
1, 1171020, Note_on_c, 0, 110, 99
1, 1171570, Note_off_c, 0, 119, 0
1, 1172038, Note_off_c, 0, 71, 0
1, 1172171, Note_off_c, 0, 40, 0
1, 1172272, Note_off_c, 0, 72, 0
1, 1175689, Note_off_c, 0, 95, 0
1, 1177449, Note_off_c, 0, 33, 0
1, 1180482, Note_off_c, 0, 89, 0
1, 1181967, Note_off_c, 0, 71, 0
1, 1182157, Note_off_c, 0, 31, 0
1, 1185905, Note_off_c, 0, 88, 0
1, 1189612, Note_off_c, 0, 43, 0
1, 1192798, Note_off_c, 0, 103, 0
1, 1200000, Marker_t, Beat 4 Length: 0:00.750 (0:36.875 - 0:37.625) endTick: 1230000 
1, 1200000, Marker_t, Division 1 Length: 0:00.075 (0:36.875 - 0:36.950) endTick: 1203000 
1, 1200037, Note_on_c, 0, 115, 99
1, 1203000, Marker_t, Division 2 Length: 0:00.075 (0:36.950 - 0:37.025) endTick: 1206000 
1, 1203013, Note_on_c, 0, 107, 99
1, 1203025, Note_on_c, 0, 77, 99
1, 1203049, Note_on_c, 0, 62, 99
1, 1203104, Note_on_c, 0, 40, 99
1, 1203132, Note_on_c, 0, 52, 99
1, 1203353, Note_off_c, 0, 52, 0
1, 1204127, Note_off_c, 0, 40, 0
1, 1205914, Note_off_c, 0, 77, 0
1, 1206000, Marker_t, Division 3 Length: 0:00.075 (0:37.025 - 0:37.100) endTick: 1209000 
1, 1206057, Note_on_c, 0, 119, 99
1, 1206082, Note_on_c, 0, 108, 99
1, 1206101, Note_on_c, 0, 71, 99
1, 1206123, Note_on_c, 0, 62, 99
1, 1206142, Note_on_c, 0, 101, 99
1, 1206899, Note_off_c, 0, 107, 0
1, 1208855, Note_off_c, 0, 115, 0
1, 1209000, Marker_t, Division 4 Length: 0:00.075 (0:37.100 - 0:37.175) endTick: 1212000 
1, 1209037, Note_on_c, 0, 59, 99
1, 1209060, Note_on_c, 0, 107, 99
1, 1209064, Note_on_c, 0, 53, 99
1, 1209067, Note_on_c, 0, 96, 99
1, 1209323, Note_off_c, 0, 107, 0
1, 1209566, Note_off_c, 0, 62, 0
1, 1211551, Note_off_c, 0, 71, 0
1, 1212000, Marker_t, Division 5 Length: 0:00.075 (0:37.175 - 0:37.250) endTick: 1215000 
1, 1212103, Note_on_c, 0, 103, 99
1, 1212437, Note_off_c, 0, 110, 0
1, 1213764, Note_off_c, 0, 62, 0
1, 1214290, Note_off_c, 0, 96, 0
1, 1215000, Marker_t, Division 6 Length: 0:00.075 (0:37.250 - 0:37.325) endTick: 1218000 
1, 1215036, Note_on_c, 0, 35, 99
1, 1217047, Note_off_c, 0, 101, 0
1, 1217974, Note_off_c, 0, 35, 0
1, 1218000, Marker_t, Division 7 Length: 0:00.075 (0:37.325 - 0:37.400) endTick: 1221000 
1, 1218040, Note_on_c, 0, 105, 99
1, 1218049, Note_off_c, 0, 119, 0
1, 1218072, Note_on_c, 0, 67, 99
1, 1218377, Note_off_c, 0, 53, 0
1, 1219326, Note_off_c, 0, 59, 0
1, 1220824, Note_off_c, 0, 108, 0
1, 1221000, Marker_t, Division 8 Length: 0:00.075 (0:37.400 - 0:37.475) endTick: 1224000 
1, 1221021, Note_on_c, 0, 60, 99
1, 1221076, Note_on_c, 0, 103, 99
1, 1221841, Note_off_c, 0, 67, 0
1, 1222316, Note_off_c, 0, 103, 0
1, 1224000, Marker_t, Division 9 Length: 0:00.075 (0:37.475 - 0:37.550) endTick: 1227000 
1, 1224072, Note_on_c, 0, 107, 99
1, 1224106, Note_on_c, 0, 107, 99
1, 1224127, Note_on_c, 0, 98, 99
1, 1224131, Note_on_c, 0, 45, 99
1, 1224145, Note_on_c, 0, 86, 99
1, 1226048, Note_off_c, 0, 107, 0
1, 1226162, Note_off_c, 0, 105, 0
1, 1227000, Marker_t, Division 10 Length: 0:00.075 (0:37.550 - 0:37.625) endTick: 1230000 
1, 1227002, Note_on_c, 0, 110, 99
1, 1227043, Note_on_c, 0, 24, 99
1, 1227054, Note_on_c, 0, 35, 99
1, 1227068, Note_on_c, 0, 71, 99
1, 1227100, Note_on_c, 0, 110, 99
1, 1227113, Note_on_c, 0, 71, 99
1, 1227428, Note_off_c, 0, 71, 0
1, 1227458, Note_off_c, 0, 103, 0
1, 1227822, Note_off_c, 0, 35, 0
1, 1229746, Note_off_c, 0, 60, 0
1, 1230000, Marker_t, Beat 5 Length: 0:00.750 (0:37.625 - 0:38.375) endTick: 1260000 
1, 1230000, Marker_t, Division 1 Length: 0:00.188 (0:37.625 - 0:37.813) endTick: 1237500 
1, 1230041, Note_on_c, 0, 57, 99
1, 1230374, Note_on_c, 0, 71, 99
1, 1230677, Note_off_c, 0, 107, 0
1, 1231545, Note_off_c, 0, 71, 0
1, 1231873, Note_off_c, 0, 24, 0
1, 1231904, Note_off_c, 0, 71, 0
1, 1232601, Note_off_c, 0, 98, 0
1, 1232677, Note_off_c, 0, 86, 0
1, 1232761, Note_off_c, 0, 45, 0
1, 1235925, Note_off_c, 0, 110, 0
1, 1237500, Marker_t, Division 2 Length: 0:00.188 (0:37.813 - 0:38.000) endTick: 1245000 
1, 1237629, Note_on_c, 0, 59, 99
1, 1237738, Note_on_c, 0, 60, 99
1, 1240450, Note_off_c, 0, 110, 0
1, 1244154, Note_off_c, 0, 60, 0
1, 1245000, Marker_t, Division 3 Length: 0:00.188 (0:38.000 - 0:38.188) endTick: 1252500 
1, 1245006, Note_on_c, 0, 91, 99
1, 1245014, Note_on_c, 0, 89, 99
1, 1245101, Note_on_c, 0, 72, 99
1, 1245137, Note_on_c, 0, 43, 99
1, 1245227, Note_on_c, 0, 91, 99
1, 1251880, Note_off_c, 0, 43, 0
1, 1252500, Marker_t, Division 4 Length: 0:00.188 (0:38.188 - 0:38.375) endTick: 1260000 
1, 1252707, Note_on_c, 0, 50, 99
1, 1252750, Note_on_c, 0, 31, 99
1, 1253155, Note_off_c, 0, 89, 0
1, 1259111, Note_off_c, 0, 31, 0
1, 1260000, Marker_t, Beat 6 Length: 0:00.750 (0:38.375 - 0:39.125) endTick: 1290000 
1, 1260000, Marker_t, Division 1 Length: 0:00.250 (0:38.375 - 0:38.625) endTick: 1270000 
1, 1260152, Note_on_c, 0, 72, 99
1, 1260178, Note_on_c, 0, 98, 99
1, 1260267, Note_on_c, 0, 43, 99
1, 1260445, Note_off_c, 0, 50, 0
1, 1261877, Note_off_c, 0, 72, 0
1, 1263378, Note_off_c, 0, 72, 0
1, 1263638, Note_off_c, 0, 91, 0
1, 1267348, Note_off_c, 0, 57, 0
1, 1269893, Note_off_c, 0, 59, 0
1, 1270000, Marker_t, Division 2 Length: 0:00.250 (0:38.625 - 0:38.875) endTick: 1280000 
1, 1270107, Note_on_c, 0, 62, 99
1, 1270253, Note_on_c, 0, 72, 99
1, 1270307, Note_on_c, 0, 74, 99
1, 1270311, Note_on_c, 0, 26, 99
1, 1270320, Note_on_c, 0, 95, 99
1, 1280000, Marker_t, Division 3 Length: 0:00.250 (0:38.875 - 0:39.125) endTick: 1290000 
1, 1280303, Note_on_c, 0, 48, 99
1, 1280416, Note_on_c, 0, 107, 99
1, 1281589, Note_off_c, 0, 91, 0
1, 1288783, Note_off_c, 0, 48, 0
1, 1290000, Marker_t, Beat 7 Length: 0:00.750 (0:39.125 - 0:39.875) endTick: 1320000 
1, 1290000, Marker_t, Division 1 Length: 0:00.075 (0:39.125 - 0:39.200) endTick: 1293000 
1, 1290013, Note_on_c, 0, 95, 99
1, 1290026, Note_on_c, 0, 64, 99
1, 1290097, Note_on_c, 0, 38, 99
1, 1291313, Note_off_c, 0, 38, 0
1, 1293000, Marker_t, Division 2 Length: 0:00.075 (0:39.200 - 0:39.275) endTick: 1296000 
1, 1293063, Note_on_c, 0, 95, 99
1, 1293089, Note_on_c, 0, 64, 99
1, 1293098, Note_on_c, 0, 110, 99
1, 1293102, Note_on_c, 0, 47, 99
1, 1294528, Note_off_c, 0, 47, 0
1, 1295457, Note_off_c, 0, 95, 0
1, 1296000, Marker_t, Division 3 Length: 0:00.075 (0:39.275 - 0:39.350) endTick: 1299000 
1, 1296023, Note_on_c, 0, 93, 99
1, 1296024, Note_on_c, 0, 43, 99
1, 1296054, Note_on_c, 0, 83, 99
1, 1296055, Note_on_c, 0, 40, 99
1, 1296110, Note_on_c, 0, 48, 99
1, 1297586, Note_off_c, 0, 43, 0
1, 1299000, Marker_t, Division 4 Length: 0:00.075 (0:39.350 - 0:39.425) endTick: 1302000 
1, 1299007, Note_on_c, 0, 103, 99
1, 1299039, Note_on_c, 0, 52, 99
1, 1299056, Note_on_c, 0, 113, 99
1, 1299101, Note_on_c, 0, 50, 99
1, 1299130, Note_on_c, 0, 83, 99
1, 1299384, Note_off_c, 0, 98, 0
1, 1300971, Note_off_c, 0, 48, 0
1, 1301249, Note_off_c, 0, 95, 0
1, 1302000, Marker_t, Division 5 Length: 0:00.075 (0:39.425 - 0:39.500) endTick: 1305000 
1, 1302051, Note_on_c, 0, 115, 99
1, 1302056, Note_on_c, 0, 29, 99
1, 1302092, Note_on_c, 0, 67, 99
1, 1302125, Note_on_c, 0, 47, 99
1, 1302149, Note_on_c, 0, 91, 99
1, 1302383, Note_off_c, 0, 60, 0
1, 1302675, Note_off_c, 0, 64, 0
1, 1302773, Note_off_c, 0, 110, 0
1, 1303146, Note_off_c, 0, 103, 0
1, 1303416, Note_off_c, 0, 67, 0
1, 1303440, Note_off_c, 0, 83, 0
1, 1304392, Note_off_c, 0, 93, 0
1, 1304609, Note_off_c, 0, 40, 0
1, 1305000, Marker_t, Division 6 Length: 0:00.075 (0:39.500 - 0:39.575) endTick: 1308000 
1, 1305049, Note_on_c, 0, 96, 99
1, 1305084, Note_on_c, 0, 72, 99
1, 1305131, Note_on_c, 0, 29, 99
1, 1305319, Note_off_c, 0, 43, 0
1, 1305472, Note_off_c, 0, 83, 0
1, 1306211, Note_off_c, 0, 64, 0
1, 1307161, Note_off_c, 0, 29, 0
1, 1308000, Marker_t, Division 7 Length: 0:00.075 (0:39.575 - 0:39.650) endTick: 1311000 
1, 1308105, Note_on_c, 0, 95, 99
1, 1308115, Note_on_c, 0, 74, 99
1, 1308126, Note_on_c, 0, 24, 99
1, 1308131, Note_on_c, 0, 50, 99
1, 1308142, Note_on_c, 0, 108, 99
1, 1308885, Note_off_c, 0, 47, 0
1, 1309940, Note_off_c, 0, 50, 0
1, 1310698, Note_off_c, 0, 74, 0
1, 1310787, Note_off_c, 0, 113, 0
1, 1311000, Marker_t, Division 8 Length: 0:00.075 (0:39.650 - 0:39.725) endTick: 1314000 
1, 1311005, Note_on_c, 0, 55, 99
1, 1311048, Note_on_c, 0, 43, 99
1, 1311051, Note_on_c, 0, 59, 99
1, 1311080, Note_on_c, 0, 41, 99
1, 1311140, Note_on_c, 0, 28, 99
1, 1311179, Note_off_c, 0, 115, 0
1, 1311257, Note_off_c, 0, 29, 0
1, 1311301, Note_off_c, 0, 50, 0
1, 1311575, Note_off_c, 0, 43, 0
1, 1311649, Note_off_c, 0, 62, 0
1, 1312730, Note_off_c, 0, 72, 0
1, 1312801, Note_off_c, 0, 28, 0
1, 1313445, Note_off_c, 0, 96, 0
1, 1313882, Note_off_c, 0, 52, 0
1, 1314000, Marker_t, Division 9 Length: 0:00.075 (0:39.725 - 0:39.800) endTick: 1317000 
1, 1314118, Note_on_c, 0, 52, 99
1, 1314153, Note_off_c, 0, 74, 0
1, 1314509, Note_off_c, 0, 91, 0
1, 1315857, Note_off_c, 0, 108, 0
1, 1316468, Note_off_c, 0, 52, 0
1, 1316933, Note_off_c, 0, 72, 0
1, 1317000, Marker_t, Division 10 Length: 0:00.075 (0:39.800 - 0:39.875) endTick: 1320000 
1, 1317014, Note_on_c, 0, 89, 99
1, 1317018, Note_on_c, 0, 76, 99
1, 1317063, Note_on_c, 0, 103, 99
1, 1317135, Note_off_c, 0, 95, 0
1, 1317586, Note_off_c, 0, 95, 0
1, 1318877, Note_off_c, 0, 41, 0
1, 1319200, Note_off_c, 0, 26, 0
1, 1319783, Note_off_c, 0, 59, 0
1, 1320000, Marker_t, Beat 8 Length: 0:00.750 (0:39.875 - 0:40.625) endTick: 1350000 
1, 1320000, Marker_t, Division 1 Length: 0:00.150 (0:39.875 - 0:40.025) endTick: 1326000 
1, 1320023, Note_on_c, 0, 40, 99
1, 1320256, Note_on_c, 0, 113, 99
1, 1320652, Note_off_c, 0, 55, 0
1, 1321429, Note_off_c, 0, 24, 0
1, 1322961, Note_off_c, 0, 76, 0
1, 1326000, Marker_t, Division 2 Length: 0:00.150 (0:40.025 - 0:40.175) endTick: 1332000 
1, 1326027, Note_on_c, 0, 24, 99
1, 1326118, Note_on_c, 0, 62, 99
1, 1327964, Note_off_c, 0, 24, 0
1, 1328854, Note_off_c, 0, 107, 0
1, 1329203, Note_off_c, 0, 103, 0
1, 1329683, Note_off_c, 0, 89, 0
1, 1332000, Marker_t, Division 3 Length: 0:00.150 (0:40.175 - 0:40.325) endTick: 1338000 
1, 1332055, Note_on_c, 0, 91, 99
1, 1332074, Note_on_c, 0, 62, 99
1, 1332093, Note_on_c, 0, 113, 99
1, 1332162, Note_on_c, 0, 64, 99
1, 1332211, Note_on_c, 0, 96, 99
1, 1334991, Note_off_c, 0, 62, 0
1, 1336175, Note_off_c, 0, 113, 0
1, 1337914, Note_off_c, 0, 40, 0
1, 1338000, Marker_t, Division 4 Length: 0:00.150 (0:40.325 - 0:40.475) endTick: 1344000 
1, 1338112, Note_on_c, 0, 81, 99
1, 1338142, Note_off_c, 0, 113, 0
1, 1341976, Note_off_c, 0, 91, 0
1, 1344000, Marker_t, Division 5 Length: 0:00.150 (0:40.475 - 0:40.625) endTick: 1350000 
1, 1344043, Note_on_c, 0, 91, 99
1, 1350000, Marker_t, Beat 9 Length: 0:00.750 (0:40.625 - 0:41.375) endTick: 1380000 
1, 1350000, Marker_t, Division 1 Length: 0:00.083 (0:40.625 - 0:40.708) endTick: 1353333 
1, 1350001, Note_on_c, 0, 67, 99
1, 1350012, Note_off_c, 0, 81, 0
1, 1350124, Note_on_c, 0, 26, 99
1, 1350125, Note_on_c, 0, 95, 99
1, 1350827, Note_off_c, 0, 91, 0
1, 1352376, Note_off_c, 0, 64, 0
1, 1353333, Marker_t, Division 2 Length: 0:00.083 (0:40.708 - 0:40.792) endTick: 1356667 
1, 1353389, Note_on_c, 0, 55, 99
1, 1353499, Note_on_c, 0, 79, 99
1, 1353499, Note_on_c, 0, 95, 99
1, 1354135, Note_off_c, 0, 95, 0
1, 1355840, Note_off_c, 0, 26, 0
1, 1356204, Note_off_c, 0, 96, 0
1, 1356667, Marker_t, Division 3 Length: 0:00.083 (0:40.792 - 0:40.875) endTick: 1360000 
1, 1356669, Note_on_c, 0, 48, 99
1, 1356702, Note_on_c, 0, 65, 99
1, 1356714, Note_on_c, 0, 67, 99
1, 1357376, Note_off_c, 0, 95, 0
1, 1360000, Marker_t, Division 4 Length: 0:00.083 (0:40.875 - 0:40.958) endTick: 1363333 
1, 1360099, Note_on_c, 0, 83, 99
1, 1360677, Note_off_c, 0, 62, 0
1, 1361373, Note_off_c, 0, 83, 0
1, 1362560, Note_off_c, 0, 55, 0
1, 1363333, Marker_t, Division 5 Length: 0:00.083 (0:40.958 - 0:41.042) endTick: 1366667 
1, 1363408, Note_on_c, 0, 26, 99
1, 1363471, Note_on_c, 0, 69, 99
1, 1365545, Note_off_c, 0, 67, 0
1, 1366130, Note_off_c, 0, 79, 0
1, 1366667, Marker_t, Division 6 Length: 0:00.083 (0:41.042 - 0:41.125) endTick: 1370000 
1, 1366673, Note_on_c, 0, 26, 99
1, 1366754, Note_on_c, 0, 96, 99
1, 1366758, Note_on_c, 0, 41, 99
1, 1366794, Note_on_c, 0, 60, 99
1, 1367390, Note_off_c, 0, 65, 0
1, 1367993, Note_off_c, 0, 67, 0
1, 1370000, Marker_t, Division 7 Length: 0:00.083 (0:41.125 - 0:41.208) endTick: 1373333 
1, 1370097, Note_on_c, 0, 50, 99
1, 1370109, Note_on_c, 0, 77, 99
1, 1370121, Note_on_c, 0, 83, 99
1, 1370130, Note_on_c, 0, 83, 99
1, 1370171, Note_off_c, 0, 96, 0
1, 1370423, Note_off_c, 0, 41, 0
1, 1371255, Note_off_c, 0, 48, 0
1, 1371348, Note_off_c, 0, 26, 0
1, 1373333, Marker_t, Division 8 Length: 0:00.083 (0:41.208 - 0:41.292) endTick: 1376667 
1, 1373348, Note_on_c, 0, 36, 99
1, 1373429, Note_on_c, 0, 65, 99
1, 1373452, Note_on_c, 0, 35, 99
1, 1375891, Note_off_c, 0, 77, 0
1, 1376159, Note_off_c, 0, 83, 0
1, 1376667, Marker_t, Division 9 Length: 0:00.083 (0:41.292 - 0:41.375) endTick: 1380000 
1, 1376763, Note_off_c, 0, 26, 0
1, 1376816, Note_on_c, 0, 72, 99
1, 1376818, Note_on_c, 0, 74, 99
1, 1376829, Note_on_c, 0, 91, 99
1, 1378067, Note_off_c, 0, 74, 0
1, 1378627, Note_off_c, 0, 36, 0
1, 1379432, Note_off_c, 0, 69, 0
1, 1379629, Note_off_c, 0, 50, 0
1, 1380000, Marker_t, Beat 10 Length: 0:00.750 (0:41.375 - 0:42.125) endTick: 1410000 
1, 1380000, Marker_t, Division 1 Length: 0:00.083 (0:41.375 - 0:41.458) endTick: 1383333 
1, 1380037, Note_on_c, 0, 71, 99
1, 1380120, Note_on_c, 0, 26, 99
1, 1380138, Note_on_c, 0, 108, 99
1, 1381208, Note_off_c, 0, 65, 0
1, 1381322, Note_off_c, 0, 60, 0
1, 1381890, Note_off_c, 0, 72, 0
1, 1383333, Marker_t, Division 2 Length: 0:00.083 (0:41.458 - 0:41.542) endTick: 1386667 
1, 1383337, Note_on_c, 0, 29, 99
1, 1383367, Note_on_c, 0, 76, 99
1, 1383463, Note_on_c, 0, 71, 99
1, 1384238, Note_off_c, 0, 83, 0
1, 1385436, Note_off_c, 0, 26, 0
1, 1385580, Note_off_c, 0, 71, 0
1, 1386645, Note_off_c, 0, 91, 0
1, 1386667, Marker_t, Division 3 Length: 0:00.083 (0:41.542 - 0:41.625) endTick: 1390000 
1, 1386681, Note_on_c, 0, 60, 99
1, 1386782, Note_on_c, 0, 95, 99
1, 1387455, Note_off_c, 0, 29, 0
1, 1387899, Note_off_c, 0, 76, 0
1, 1388430, Note_off_c, 0, 35, 0
1, 1389912, Note_off_c, 0, 71, 0
1, 1390000, Marker_t, Division 4 Length: 0:00.083 (0:41.625 - 0:41.708) endTick: 1393333 
1, 1390028, Note_on_c, 0, 107, 99
1, 1390137, Note_on_c, 0, 62, 99
1, 1390162, Note_on_c, 0, 81, 99
1, 1390163, Note_on_c, 0, 31, 99
1, 1390230, Note_off_c, 0, 108, 0
1, 1393333, Marker_t, Division 5 Length: 0:00.083 (0:41.708 - 0:41.792) endTick: 1396667 
1, 1393335, Note_on_c, 0, 98, 99
1, 1393406, Note_on_c, 0, 35, 99
1, 1393410, Note_on_c, 0, 50, 99
1, 1394729, Note_off_c, 0, 31, 0
1, 1395323, Note_off_c, 0, 62, 0
1, 1396152, Note_off_c, 0, 35, 0
1, 1396667, Marker_t, Division 6 Length: 0:00.083 (0:41.792 - 0:41.875) endTick: 1400000 
1, 1396717, Note_on_c, 0, 31, 99
1, 1396748, Note_on_c, 0, 65, 99
1, 1396752, Note_on_c, 0, 112, 99
1, 1396778, Note_on_c, 0, 24, 99
1, 1397887, Note_off_c, 0, 81, 0
1, 1400000, Marker_t, Division 7 Length: 0:00.083 (0:41.875 - 0:41.958) endTick: 1403333 
1, 1400006, Note_on_c, 0, 26, 99
1, 1400056, Note_on_c, 0, 107, 99
1, 1400059, Note_off_c, 0, 112, 0
1, 1400391, Note_off_c, 0, 95, 0
1, 1400842, Note_off_c, 0, 31, 0
1, 1400954, Note_off_c, 0, 98, 0
1, 1402517, Note_off_c, 0, 60, 0
1, 1403253, Note_off_c, 0, 24, 0
1, 1403333, Marker_t, Division 8 Length: 0:00.083 (0:41.958 - 0:42.042) endTick: 1406667 
1, 1403337, Note_on_c, 0, 67, 99
1, 1403418, Note_on_c, 0, 74, 99
1, 1406566, Note_off_c, 0, 107, 0
1, 1406667, Marker_t, Division 9 Length: 0:00.083 (0:42.042 - 0:42.125) endTick: 1410000 
1, 1406710, Note_on_c, 0, 43, 99
1, 1406722, Note_on_c, 0, 33, 99
1, 1406737, Note_on_c, 0, 52, 99
1, 1406755, Note_on_c, 0, 59, 99
1, 1406790, Note_on_c, 0, 38, 99
1, 1406802, Note_on_c, 0, 52, 99
1, 1408573, Note_off_c, 0, 65, 0
1, 1409402, Note_off_c, 0, 107, 0
1, 1409931, Note_off_c, 0, 50, 0
1, 1410000, Marker_t, Beat 11 Length: 0:00.750 (0:42.125 - 0:42.875) endTick: 1440000 
1, 1410000, Marker_t, Division 1 Length: 0:00.750 (0:42.125 - 0:42.875) endTick: 1440000 
1, 1410397, Note_on_c, 0, 36, 99
1, 1410418, Note_on_c, 0, 50, 99
1, 1410488, Note_off_c, 0, 43, 0
1, 1410970, Note_on_c, 0, 43, 99
1, 1411212, Note_off_c, 0, 67, 0
1, 1411799, Note_off_c, 0, 26, 0
1, 1414205, Note_off_c, 0, 38, 0
1, 1414992, Note_off_c, 0, 52, 0
1, 1417349, Note_off_c, 0, 74, 0
1, 1417674, Note_off_c, 0, 52, 0
1, 1420802, Note_off_c, 0, 59, 0
1, 1421446, Note_off_c, 0, 33, 0
1, 1440000, Marker_t, Beat 12 Length: 0:00.750 (0:42.875 - 0:43.625) endTick: 1470000 
1, 1440000, Marker_t, Division 1 Length: 0:00.188 (0:42.875 - 0:43.063) endTick: 1447500 
1, 1440147, Note_on_c, 0, 38, 99
1, 1447500, Marker_t, Division 2 Length: 0:00.188 (0:43.063 - 0:43.250) endTick: 1455000 
1, 1447531, Note_on_c, 0, 67, 99
1, 1447677, Note_on_c, 0, 50, 99
1, 1447800, Note_on_c, 0, 86, 99
1, 1447875, Note_on_c, 0, 43, 99
1, 1455000, Marker_t, Division 3 Length: 0:00.188 (0:43.250 - 0:43.438) endTick: 1462500 
1, 1455071, Note_on_c, 0, 35, 99
1, 1455240, Note_on_c, 0, 107, 99
1, 1455328, Note_on_c, 0, 110, 99
1, 1457349, Note_off_c, 0, 43, 0
1, 1459611, Note_off_c, 0, 86, 0
1, 1460546, Note_off_c, 0, 50, 0
1, 1462500, Marker_t, Division 4 Length: 0:00.188 (0:43.438 - 0:43.625) endTick: 1470000 
1, 1462757, Note_on_c, 0, 98, 99
1, 1464546, Note_off_c, 0, 38, 0
1, 1465366, Note_off_c, 0, 98, 0
1, 1467197, Note_off_c, 0, 110, 0
1, 1470000, Marker_t, Beat 13 Length: 0:00.750 (0:43.625 - 0:44.375) endTick: 1500000 
1, 1470000, Marker_t, Division 1 Length: 0:00.075 (0:43.625 - 0:43.700) endTick: 1473000 
1, 1470021, Note_on_c, 0, 115, 99
1, 1470139, Note_on_c, 0, 79, 99
1, 1473000, Marker_t, Division 2 Length: 0:00.075 (0:43.700 - 0:43.775) endTick: 1476000 
1, 1473013, Note_on_c, 0, 95, 99
1, 1473036, Note_on_c, 0, 48, 99
1, 1473046, Note_on_c, 0, 107, 99
1, 1473065, Note_on_c, 0, 119, 99
1, 1473095, Note_on_c, 0, 57, 99
1, 1475023, Note_off_c, 0, 119, 0
1, 1475649, Note_off_c, 0, 107, 0
1, 1476000, Marker_t, Division 3 Length: 0:00.075 (0:43.775 - 0:43.850) endTick: 1479000 
1, 1476027, Note_on_c, 0, 52, 99
1, 1476047, Note_on_c, 0, 26, 99
1, 1476095, Note_on_c, 0, 84, 99
1, 1476095, Note_on_c, 0, 26, 99
1, 1476106, Note_on_c, 0, 26, 99
1, 1476131, Note_on_c, 0, 67, 99
1, 1476147, Note_on_c, 0, 77, 99
1, 1476151, Note_off_c, 0, 107, 0
1, 1476914, Note_off_c, 0, 79, 0
1, 1476917, Note_off_c, 0, 95, 0
1, 1479000, Marker_t, Division 4 Length: 0:00.075 (0:43.850 - 0:43.925) endTick: 1482000 
1, 1479002, Note_on_c, 0, 24, 99
1, 1479044, Note_off_c, 0, 67, 0
1, 1479103, Note_on_c, 0, 29, 99
1, 1479565, Note_off_c, 0, 26, 0
1, 1479884, Note_off_c, 0, 115, 0
1, 1480142, Note_off_c, 0, 67, 0
1, 1482000, Marker_t, Division 5 Length: 0:00.075 (0:43.925 - 0:44.000) endTick: 1485000 
1, 1482016, Note_on_c, 0, 95, 99
1, 1482087, Note_off_c, 0, 26, 0
1, 1483896, Note_off_c, 0, 35, 0
1, 1483977, Note_off_c, 0, 52, 0
1, 1485000, Marker_t, Division 6 Length: 0:00.075 (0:44.000 - 0:44.075) endTick: 1488000 
1, 1485077, Note_on_c, 0, 64, 99
1, 1485270, Note_off_c, 0, 84, 0
1, 1485274, Note_off_c, 0, 57, 0
1, 1486504, Note_off_c, 0, 26, 0
1, 1486978, Note_off_c, 0, 48, 0
1, 1488000, Marker_t, Division 7 Length: 0:00.075 (0:44.075 - 0:44.150) endTick: 1491000 
1, 1488029, Note_on_c, 0, 98, 99
1, 1488076, Note_on_c, 0, 108, 99
1, 1488132, Note_on_c, 0, 57, 99
1, 1489048, Note_off_c, 0, 98, 0
1, 1490155, Note_off_c, 0, 77, 0
1, 1491000, Marker_t, Division 8 Length: 0:00.075 (0:44.150 - 0:44.225) endTick: 1494000 
1, 1491094, Note_on_c, 0, 107, 99
1, 1491670, Note_off_c, 0, 29, 0
1, 1493299, Note_off_c, 0, 107, 0
1, 1493717, Note_off_c, 0, 24, 0
1, 1494000, Marker_t, Division 9 Length: 0:00.075 (0:44.225 - 0:44.300) endTick: 1497000 
1, 1494043, Note_on_c, 0, 41, 99
1, 1494129, Note_on_c, 0, 35, 99
1, 1496156, Note_off_c, 0, 43, 0
1, 1496581, Note_off_c, 0, 95, 0
1, 1496747, Note_off_c, 0, 64, 0
1, 1496916, Note_off_c, 0, 50, 0
1, 1497000, Marker_t, Division 10 Length: 0:00.075 (0:44.300 - 0:44.375) endTick: 1500000 
1, 1497084, Note_on_c, 0, 76, 99
1, 1497107, Note_on_c, 0, 83, 99
1, 1497521, Note_off_c, 0, 57, 0
1, 1498262, Note_off_c, 0, 41, 0
1, 1498863, Note_off_c, 0, 76, 0
1, 1499789, Note_off_c, 0, 108, 0
1, 1500000, Time_signature, 3, 3, 24, 8
1, 1500000, Tempo, 750000
1, 1500000, Marker_t, Measure 9 Length: 0:01.125 (0:44.375 - 0:45.500) endTick: 1545000 Original Meter: 3/6 Spoofed Meter: 3/8
1, 1500000, Marker_t, Beat 1 Length: 0:00.375 (0:44.375 - 0:44.750) endTick: 1515000 
1, 1500000, Marker_t, Division 1 Length: 0:00.047 (0:44.375 - 0:44.422) endTick: 1501875 
1, 1500043, Note_on_c, 0, 40, 99
1, 1500837, Note_off_c, 0, 35, 0
1, 1501239, Note_off_c, 0, 40, 0
1, 1501875, Marker_t, Division 2 Length: 0:00.047 (0:44.422 - 0:44.469) endTick: 1503750 
1, 1501917, Note_on_c, 0, 41, 99
1, 1503483, Note_off_c, 0, 83, 0
1, 1503750, Marker_t, Division 3 Length: 0:00.047 (0:44.469 - 0:44.516) endTick: 1505625 
1, 1503776, Note_on_c, 0, 74, 99
1, 1503829, Note_on_c, 0, 83, 99
1, 1503835, Note_on_c, 0, 52, 99
1, 1505269, Note_off_c, 0, 83, 0
1, 1505625, Marker_t, Division 4 Length: 0:00.047 (0:44.516 - 0:44.563) endTick: 1507500 
1, 1505632, Note_on_c, 0, 60, 99
1, 1505634, Note_on_c, 0, 41, 99
1, 1505681, Note_on_c, 0, 91, 99
1, 1506230, Note_off_c, 0, 91, 0
1, 1506487, Note_off_c, 0, 74, 0
1, 1507500, Marker_t, Division 5 Length: 0:00.047 (0:44.563 - 0:44.609) endTick: 1509375 
1, 1507520, Note_on_c, 0, 86, 99
1, 1507523, Note_on_c, 0, 91, 99
1, 1507557, Note_on_c, 0, 110, 99
1, 1507832, Note_off_c, 0, 41, 0
1, 1507979, Note_off_c, 0, 60, 0
1, 1508096, Note_off_c, 0, 52, 0
1, 1509375, Marker_t, Division 6 Length: 0:00.047 (0:44.609 - 0:44.656) endTick: 1511250 
1, 1509402, Note_on_c, 0, 96, 99
1, 1509424, Note_on_c, 0, 76, 99
1, 1510494, Note_off_c, 0, 91, 0
1, 1511250, Marker_t, Division 7 Length: 0:00.047 (0:44.656 - 0:44.703) endTick: 1513125 
1, 1511254, Note_on_c, 0, 79, 99
1, 1511263, Note_on_c, 0, 31, 99
1, 1511265, Note_on_c, 0, 84, 99
1, 1511306, Note_on_c, 0, 57, 99
1, 1511334, Note_off_c, 0, 76, 0
1, 1511514, Note_off_c, 0, 36, 0
1, 1511531, Note_off_c, 0, 41, 0
1, 1512388, Note_off_c, 0, 96, 0
1, 1513125, Marker_t, Division 8 Length: 0:00.047 (0:44.703 - 0:44.750) endTick: 1515000 
1, 1513128, Note_off_c, 0, 57, 0
1, 1513134, Note_on_c, 0, 112, 99
1, 1513157, Note_on_c, 0, 86, 99
1, 1513162, Note_on_c, 0, 103, 99
1, 1513175, Note_on_c, 0, 62, 99
1, 1513206, Note_off_c, 0, 79, 0
1, 1513400, Note_off_c, 0, 31, 0
1, 1513407, Note_off_c, 0, 86, 0
1, 1513814, Note_off_c, 0, 86, 0
1, 1514254, Note_off_c, 0, 110, 0
1, 1514850, Note_off_c, 0, 62, 0
1, 1515000, Marker_t, Beat 2 Length: 0:00.375 (0:44.750 - 0:45.125) endTick: 1530000 
1, 1515000, Marker_t, Division 1 Length: 0:00.042 (0:44.750 - 0:44.792) endTick: 1516667 
1, 1515012, Note_on_c, 0, 71, 99
1, 1515061, Note_on_c, 0, 101, 99
1, 1515062, Note_on_c, 0, 96, 99
1, 1516667, Marker_t, Division 2 Length: 0:00.042 (0:44.792 - 0:44.833) endTick: 1518333 
1, 1516714, Note_on_c, 0, 91, 99
1, 1517777, Note_off_c, 0, 84, 0
1, 1518185, Note_off_c, 0, 91, 0
1, 1518333, Marker_t, Division 3 Length: 0:00.042 (0:44.833 - 0:44.875) endTick: 1520000 
1, 1518379, Note_on_c, 0, 67, 99
1, 1518380, Note_on_c, 0, 117, 99
1, 1518398, Note_on_c, 0, 55, 99
1, 1519080, Note_off_c, 0, 101, 0
1, 1519681, Note_off_c, 0, 112, 0
1, 1520000, Marker_t, Division 4 Length: 0:00.042 (0:44.875 - 0:44.917) endTick: 1521667 
1, 1520047, Note_on_c, 0, 52, 99
1, 1520077, Note_on_c, 0, 29, 99
1, 1520222, Note_off_c, 0, 103, 0
1, 1521667, Marker_t, Division 5 Length: 0:00.042 (0:44.917 - 0:44.958) endTick: 1523333 
1, 1521681, Note_on_c, 0, 59, 99
1, 1521683, Note_on_c, 0, 38, 99
1, 1521746, Note_on_c, 0, 55, 99
1, 1521750, Note_on_c, 0, 79, 99
1, 1522342, Note_off_c, 0, 55, 0
1, 1522403, Note_off_c, 0, 71, 0
1, 1523275, Note_off_c, 0, 96, 0
1, 1523333, Marker_t, Division 6 Length: 0:00.042 (0:44.958 - 0:45.000) endTick: 1525000 
1, 1523391, Note_off_c, 0, 67, 0
1, 1523393, Note_on_c, 0, 79, 99
1, 1523782, Note_off_c, 0, 79, 0
1, 1524430, Note_off_c, 0, 79, 0
1, 1525000, Marker_t, Division 7 Length: 0:00.042 (0:45.000 - 0:45.042) endTick: 1526667 
1, 1525017, Note_on_c, 0, 52, 99
1, 1525048, Note_on_c, 0, 83, 99
1, 1525060, Note_on_c, 0, 62, 99
1, 1525062, Note_on_c, 0, 84, 99
1, 1525079, Note_on_c, 0, 26, 99
1, 1525788, Note_off_c, 0, 117, 0
1, 1525829, Note_off_c, 0, 38, 0
1, 1525889, Note_off_c, 0, 29, 0
1, 1525905, Note_off_c, 0, 62, 0
1, 1526667, Marker_t, Division 8 Length: 0:00.042 (0:45.042 - 0:45.083) endTick: 1528333 
1, 1526720, Note_on_c, 0, 28, 99
1, 1527615, Note_off_c, 0, 59, 0
1, 1528048, Note_off_c, 0, 52, 0
1, 1528333, Marker_t, Division 9 Length: 0:00.042 (0:45.083 - 0:45.125) endTick: 1530000 
1, 1528346, Note_on_c, 0, 89, 99
1, 1528353, Note_off_c, 0, 55, 0
1, 1528359, Note_on_c, 0, 24, 99
1, 1528371, Note_on_c, 0, 107, 99
1, 1528721, Note_off_c, 0, 84, 0
1, 1529375, Note_off_c, 0, 52, 0
1, 1529691, Note_off_c, 0, 26, 0
1, 1529817, Note_off_c, 0, 83, 0
1, 1530000, Marker_t, Beat 3 Length: 0:00.375 (0:45.125 - 0:45.500) endTick: 1545000 
1, 1530000, Marker_t, Division 1 Length: 0:00.188 (0:45.125 - 0:45.313) endTick: 1537500 
1, 1530063, Note_on_c, 0, 28, 99
1, 1530128, Note_on_c, 0, 81, 99
1, 1531235, Note_off_c, 0, 89, 0
1, 1532802, Note_off_c, 0, 28, 0
1, 1533348, Note_off_c, 0, 107, 0
1, 1534271, Note_off_c, 0, 24, 0
1, 1537500, Marker_t, Division 2 Length: 0:00.188 (0:45.313 - 0:45.500) endTick: 1545000 
1, 1537545, Note_on_c, 0, 38, 99
1, 1545000, Time_signature, 5, 2, 24, 8
1, 1545000, Tempo, 1000000
1, 1545000, Marker_t, Measure 10 Length: 0:05.000 (0:45.500 - 0:50.500) endTick: 1695000 Meter: 5/4
1, 1545000, Marker_t, Beat 1 Length: 0:01.000 (0:45.500 - 0:46.500) endTick: 1575000 
1, 1545000, Marker_t, Division 1 Length: 0:00.167 (0:45.500 - 0:45.667) endTick: 1550000 
1, 1545060, Note_on_c, 0, 37, 99
1, 1545112, Note_on_c, 0, 94, 99
1, 1545127, Note_on_c, 0, 51, 99
1, 1546005, Note_off_c, 0, 51, 0
1, 1546757, Note_off_c, 0, 37, 0
1, 1547921, Note_off_c, 0, 94, 0
1, 1550000, Marker_t, Division 2 Length: 0:00.167 (0:45.667 - 0:45.833) endTick: 1555000 
1, 1550003, Note_on_c, 0, 113, 99
1, 1550158, Note_on_c, 0, 112, 99
1, 1550187, Note_on_c, 0, 95, 99
1, 1550201, Note_on_c, 0, 34, 99
1, 1550233, Note_on_c, 0, 56, 99
1, 1550258, Note_off_c, 0, 28, 0
1, 1552751, Note_off_c, 0, 95, 0
1, 1553875, Note_off_c, 0, 81, 0
1, 1554761, Note_off_c, 0, 38, 0
1, 1555000, Marker_t, Division 3 Length: 0:00.167 (0:45.833 - 0:46.000) endTick: 1560000 
1, 1555056, Note_on_c, 0, 115, 99
1, 1555099, Note_on_c, 0, 94, 99
1, 1555160, Note_on_c, 0, 104, 99
1, 1556999, Note_off_c, 0, 104, 0
1, 1557901, Note_off_c, 0, 94, 0
1, 1560000, Marker_t, Division 4 Length: 0:00.167 (0:46.000 - 0:46.167) endTick: 1565000 
1, 1560197, Note_on_c, 0, 95, 99
1, 1561125, Note_off_c, 0, 115, 0
1, 1563085, Note_off_c, 0, 113, 0
1, 1563574, Note_off_c, 0, 112, 0
1, 1564125, Note_off_c, 0, 56, 0
1, 1564486, Note_off_c, 0, 34, 0
1, 1565000, Marker_t, Division 5 Length: 0:00.167 (0:46.167 - 0:46.333) endTick: 1570000 
1, 1565117, Note_on_c, 0, 116, 99
1, 1565148, Note_on_c, 0, 100, 99
1, 1570000, Marker_t, Division 6 Length: 0:00.167 (0:46.333 - 0:46.500) endTick: 1575000 
1, 1570008, Note_on_c, 0, 54, 99
1, 1570110, Note_on_c, 0, 94, 99
1, 1570172, Note_on_c, 0, 58, 99
1, 1570217, Note_on_c, 0, 88, 99
1, 1575000, Marker_t, Beat 2 Length: 0:01.000 (0:46.500 - 0:47.500) endTick: 1605000 
1, 1575000, Marker_t, Division 1 Length: 0:00.125 (0:46.500 - 0:46.625) endTick: 1578750 
1, 1575002, Note_on_c, 0, 118, 99
1, 1575057, Note_on_c, 0, 64, 99
1, 1575076, Note_on_c, 0, 89, 99
1, 1575172, Note_on_c, 0, 28, 99
1, 1575703, Note_off_c, 0, 54, 0
1, 1576817, Note_off_c, 0, 64, 0
1, 1578734, Note_off_c, 0, 100, 0
1, 1578750, Marker_t, Division 2 Length: 0:00.125 (0:46.625 - 0:46.750) endTick: 1582500 
1, 1578901, Note_on_c, 0, 38, 99
1, 1579011, Note_off_c, 0, 95, 0
1, 1579550, Note_off_c, 0, 88, 0
1, 1582500, Marker_t, Division 3 Length: 0:00.125 (0:46.750 - 0:46.875) endTick: 1586250 
1, 1582513, Note_on_c, 0, 119, 99
1, 1582553, Note_on_c, 0, 80, 99
1, 1582585, Note_on_c, 0, 76, 99
1, 1582602, Note_on_c, 0, 53, 99
1, 1582902, Note_off_c, 0, 116, 0
1, 1583912, Note_off_c, 0, 119, 0
1, 1584385, Note_off_c, 0, 53, 0
1, 1586250, Marker_t, Division 4 Length: 0:00.125 (0:46.875 - 0:47.000) endTick: 1590000 
1, 1586430, Note_on_c, 0, 101, 99
1, 1587969, Note_off_c, 0, 58, 0
1, 1588770, Note_off_c, 0, 89, 0
1, 1588987, Note_off_c, 0, 76, 0
1, 1590000, Marker_t, Division 5 Length: 0:00.125 (0:47.000 - 0:47.125) endTick: 1593750 
1, 1590102, Note_on_c, 0, 116, 99
1, 1590164, Note_on_c, 0, 91, 99
1, 1590238, Note_off_c, 0, 28, 0
1, 1590387, Note_off_c, 0, 94, 0
1, 1590900, Note_off_c, 0, 101, 0
1, 1592076, Note_off_c, 0, 118, 0
1, 1593750, Marker_t, Division 6 Length: 0:00.125 (0:47.125 - 0:47.250) endTick: 1597500 
1, 1593769, Note_on_c, 0, 101, 99
1, 1593798, Note_on_c, 0, 63, 99
1, 1593800, Note_on_c, 0, 56, 99
1, 1593863, Note_on_c, 0, 98, 99
1, 1593960, Note_off_c, 0, 38, 0
1, 1594820, Note_off_c, 0, 101, 0
1, 1595004, Note_off_c, 0, 116, 0
1, 1597500, Marker_t, Division 7 Length: 0:00.125 (0:47.250 - 0:47.375) endTick: 1601250 
1, 1597531, Note_on_c, 0, 109, 99
1, 1597537, Note_on_c, 0, 27, 99
1, 1597592, Note_on_c, 0, 90, 99
1, 1597672, Note_on_c, 0, 53, 99
1, 1597683, Note_on_c, 0, 28, 99
1, 1600097, Note_off_c, 0, 90, 0
1, 1600889, Note_off_c, 0, 80, 0
1, 1601250, Marker_t, Division 8 Length: 0:00.125 (0:47.375 - 0:47.500) endTick: 1605000 
1, 1601252, Note_on_c, 0, 117, 99
1, 1601292, Note_on_c, 0, 77, 99
1, 1605000, Marker_t, Beat 3 Length: 0:01.000 (0:47.500 - 0:48.500) endTick: 1635000 
1, 1605000, Marker_t, Division 1 Length: 0:00.143 (0:47.500 - 0:47.643) endTick: 1609286 
1, 1605147, Note_on_c, 0, 89, 99
1, 1605168, Note_on_c, 0, 43, 99
1, 1605986, Note_off_c, 0, 98, 0
1, 1606273, Note_off_c, 0, 91, 0
1, 1608740, Note_off_c, 0, 27, 0
1, 1609286, Marker_t, Division 2 Length: 0:00.143 (0:47.643 - 0:47.786) endTick: 1613571 
1, 1609390, Note_on_c, 0, 100, 99
1, 1609412, Note_on_c, 0, 46, 99
1, 1609418, Note_on_c, 0, 103, 99
1, 1609455, Note_on_c, 0, 80, 99
1, 1610839, Note_off_c, 0, 63, 0
1, 1611566, Note_off_c, 0, 117, 0
1, 1611627, Note_off_c, 0, 109, 0
1, 1611895, Note_off_c, 0, 103, 0
1, 1611939, Note_off_c, 0, 56, 0
1, 1611959, Note_off_c, 0, 53, 0
1, 1612501, Note_off_c, 0, 43, 0
1, 1612958, Note_off_c, 0, 77, 0
1, 1613571, Marker_t, Division 3 Length: 0:00.143 (0:47.786 - 0:47.929) endTick: 1617857 
1, 1613628, Note_on_c, 0, 32, 99
1, 1613637, Note_on_c, 0, 88, 99
1, 1615932, Note_off_c, 0, 28, 0
1, 1615951, Note_off_c, 0, 88, 0
1, 1617857, Marker_t, Division 4 Length: 0:00.143 (0:47.929 - 0:48.071) endTick: 1622143 
1, 1617937, Note_on_c, 0, 47, 99
1, 1618038, Note_on_c, 0, 99, 99
1, 1618058, Note_on_c, 0, 118, 99
1, 1619537, Note_off_c, 0, 46, 0
1, 1621476, Note_off_c, 0, 100, 0
1, 1622143, Marker_t, Division 5 Length: 0:00.143 (0:48.071 - 0:48.214) endTick: 1626429 
1, 1622206, Note_on_c, 0, 86, 99
1, 1622214, Note_on_c, 0, 32, 99
1, 1622235, Note_on_c, 0, 52, 99
1, 1622287, Note_on_c, 0, 70, 99
1, 1622335, Note_on_c, 0, 31, 99
1, 1622609, Note_off_c, 0, 118, 0
1, 1623402, Note_off_c, 0, 89, 0
1, 1626402, Note_off_c, 0, 32, 0
1, 1626429, Marker_t, Division 6 Length: 0:00.143 (0:48.214 - 0:48.357) endTick: 1630714 
1, 1626526, Note_on_c, 0, 89, 99
1, 1626605, Note_on_c, 0, 105, 99
1, 1626625, Note_on_c, 0, 80, 99
1, 1626642, Note_on_c, 0, 75, 99
1, 1626808, Note_off_c, 0, 47, 0
1, 1627896, Note_off_c, 0, 80, 0
1, 1630714, Marker_t, Division 7 Length: 0:00.143 (0:48.357 - 0:48.500) endTick: 1635000 
1, 1630723, Note_on_c, 0, 55, 99
1, 1630854, Note_on_c, 0, 82, 99
1, 1630912, Note_off_c, 0, 70, 0
1, 1631024, Note_off_c, 0, 75, 0
1, 1635000, Marker_t, Beat 4 Length: 0:01.000 (0:48.500 - 0:49.500) endTick: 1665000 
1, 1635000, Marker_t, Division 1 Length: 0:00.143 (0:48.500 - 0:48.643) endTick: 1639286 
1, 1635064, Note_on_c, 0, 104, 99
1, 1635079, Note_on_c, 0, 79, 99
1, 1635082, Note_on_c, 0, 94, 99
1, 1635115, Note_on_c, 0, 64, 99
1, 1635161, Note_on_c, 0, 68, 99
1, 1636586, Note_off_c, 0, 31, 0
1, 1638104, Note_off_c, 0, 52, 0
1, 1638477, Note_off_c, 0, 32, 0
1, 1638987, Note_off_c, 0, 99, 0
1, 1639272, Note_off_c, 0, 89, 0
1, 1639286, Marker_t, Division 2 Length: 0:00.143 (0:48.643 - 0:48.786) endTick: 1643571 
1, 1639309, Note_on_c, 0, 75, 99
1, 1639335, Note_on_c, 0, 61, 99
1, 1639346, Note_on_c, 0, 32, 99
1, 1639411, Note_on_c, 0, 56, 99
1, 1640075, Note_off_c, 0, 86, 0
1, 1643571, Marker_t, Division 3 Length: 0:00.143 (0:48.786 - 0:48.929) endTick: 1647857 
1, 1643624, Note_on_c, 0, 117, 99
1, 1643672, Note_on_c, 0, 100, 99
1, 1643680, Note_on_c, 0, 32, 99
1, 1645318, Note_off_c, 0, 32, 0
1, 1645468, Note_off_c, 0, 61, 0
1, 1645987, Note_off_c, 0, 80, 0
1, 1646248, Note_off_c, 0, 105, 0
1, 1646899, Note_off_c, 0, 104, 0
1, 1647857, Marker_t, Division 4 Length: 0:00.143 (0:48.929 - 0:49.071) endTick: 1652143 
1, 1647894, Note_on_c, 0, 75, 99
1, 1647901, Note_on_c, 0, 41, 99
1, 1647993, Note_on_c, 0, 70, 99
1, 1648197, Note_off_c, 0, 79, 0
1, 1648378, Note_off_c, 0, 55, 0
1, 1648998, Note_off_c, 0, 82, 0
1, 1649203, Note_off_c, 0, 75, 0
1, 1650695, Note_off_c, 0, 94, 0
1, 1651081, Note_off_c, 0, 100, 0
1, 1651322, Note_off_c, 0, 117, 0
1, 1652143, Marker_t, Division 5 Length: 0:00.143 (0:49.071 - 0:49.214) endTick: 1656429 
1, 1652152, Note_on_c, 0, 77, 99
1, 1652168, Note_off_c, 0, 32, 0
1, 1653200, Note_off_c, 0, 68, 0
1, 1653464, Note_off_c, 0, 70, 0
1, 1654891, Note_off_c, 0, 75, 0
1, 1655592, Note_off_c, 0, 64, 0
1, 1656429, Marker_t, Division 6 Length: 0:00.143 (0:49.214 - 0:49.357) endTick: 1660714 
1, 1656464, Note_on_c, 0, 85, 99
1, 1656562, Note_on_c, 0, 69, 99
1, 1656585, Note_on_c, 0, 31, 99
1, 1656616, Note_on_c, 0, 67, 99
1, 1657629, Note_off_c, 0, 56, 0
1, 1660714, Marker_t, Division 7 Length: 0:00.143 (0:49.357 - 0:49.500) endTick: 1665000 
1, 1660746, Note_on_c, 0, 40, 99
1, 1660816, Note_on_c, 0, 80, 99
1, 1660821, Note_off_c, 0, 77, 0
1, 1660839, Note_on_c, 0, 92, 99
1, 1663156, Note_off_c, 0, 31, 0
1, 1664306, Note_off_c, 0, 41, 0
1, 1665000, Marker_t, Beat 5 Length: 0:01.000 (0:49.500 - 0:50.500) endTick: 1695000 
1, 1665000, Marker_t, Division 1 Length: 0:00.125 (0:49.500 - 0:49.625) endTick: 1668750 
1, 1665075, Note_on_c, 0, 43, 99
1, 1665124, Note_on_c, 0, 86, 99
1, 1665276, Note_off_c, 0, 92, 0
1, 1665770, Note_off_c, 0, 40, 0
1, 1666828, Note_off_c, 0, 43, 0
1, 1668750, Marker_t, Division 2 Length: 0:00.125 (0:49.625 - 0:49.750) endTick: 1672500 
1, 1668812, Note_on_c, 0, 106, 99
1, 1668880, Note_on_c, 0, 81, 99
1, 1668883, Note_on_c, 0, 104, 99
1, 1668902, Note_on_c, 0, 83, 99
1, 1669493, Note_off_c, 0, 104, 0
1, 1672115, Note_off_c, 0, 85, 0
1, 1672500, Marker_t, Division 3 Length: 0:00.125 (0:49.750 - 0:49.875) endTick: 1676250 
1, 1672554, Note_off_c, 0, 67, 0
1, 1672667, Note_on_c, 0, 53, 99
1, 1672963, Note_off_c, 0, 69, 0
1, 1674042, Note_off_c, 0, 80, 0
1, 1675304, Note_off_c, 0, 86, 0
1, 1676250, Marker_t, Division 4 Length: 0:00.125 (0:49.875 - 0:50.000) endTick: 1680000 
1, 1676286, Note_on_c, 0, 75, 99
1, 1676334, Note_on_c, 0, 86, 99
1, 1676367, Note_on_c, 0, 57, 99
1, 1676391, Note_on_c, 0, 61, 99
1, 1676426, Note_on_c, 0, 101, 99
1, 1676928, Note_off_c, 0, 83, 0
1, 1677486, Note_off_c, 0, 81, 0
1, 1680000, Marker_t, Division 5 Length: 0:00.125 (0:50.000 - 0:50.125) endTick: 1683750 
1, 1680007, Note_on_c, 0, 113, 99
1, 1680056, Note_on_c, 0, 117, 99
1, 1680135, Note_off_c, 0, 106, 0
1, 1681703, Note_off_c, 0, 61, 0
1, 1683750, Marker_t, Division 6 Length: 0:00.125 (0:50.125 - 0:50.250) endTick: 1687500 
1, 1683765, Note_on_c, 0, 65, 99
1, 1683776, Note_on_c, 0, 75, 99
1, 1683818, Note_on_c, 0, 112, 99
1, 1683860, Note_on_c, 0, 68, 99
1, 1683895, Note_on_c, 0, 82, 99
1, 1686533, Note_off_c, 0, 57, 0
1, 1687253, Note_off_c, 0, 53, 0
1, 1687500, Marker_t, Division 7 Length: 0:00.125 (0:50.250 - 0:50.375) endTick: 1691250 
1, 1687510, Note_on_c, 0, 117, 99
1, 1687539, Note_on_c, 0, 97, 99
1, 1687591, Note_on_c, 0, 111, 99
1, 1687621, Note_on_c, 0, 82, 99
1, 1687676, Note_off_c, 0, 101, 0
1, 1687893, Note_off_c, 0, 75, 0
1, 1688462, Note_off_c, 0, 68, 0
1, 1691250, Marker_t, Division 8 Length: 0:00.125 (0:50.375 - 0:50.500) endTick: 1695000 
1, 1691330, Note_on_c, 0, 61, 99
1, 1691405, Note_on_c, 0, 87, 99
1, 1693290, Note_off_c, 0, 86, 0
1, 1694419, Note_off_c, 0, 117, 0
1, 1694674, Note_off_c, 0, 82, 0
1, 1695000, Time_signature, 9, 3, 24, 8
1, 1695000, Tempo, 1250000
1, 1695000, Marker_t, Measure 11 Length: 0:05.625 (0:50.500 - 0:56.125) endTick: 1830000 Original Meter: 9/10 Spoofed Meter: 9/8
1, 1695000, Marker_t, Beat 1 Length: 0:00.625 (0:50.500 - 0:51.125) endTick: 1710000 
1, 1695000, Marker_t, Division 1 Length: 0:00.625 (0:50.500 - 0:51.125) endTick: 1710000 
1, 1695060, Note_on_c, 0, 60, 99
1, 1696380, Note_off_c, 0, 65, 0
1, 1696381, Note_off_c, 0, 117, 0
1, 1697176, Note_off_c, 0, 112, 0
1, 1697367, Note_off_c, 0, 111, 0
1, 1698051, Note_off_c, 0, 75, 0
1, 1698619, Note_off_c, 0, 113, 0
1, 1698839, Note_off_c, 0, 97, 0
1, 1699041, Note_off_c, 0, 61, 0
1, 1705390, Note_off_c, 0, 82, 0
1, 1709735, Note_off_c, 0, 87, 0
1, 1710000, Marker_t, Beat 2 Length: 0:00.625 (0:51.125 - 0:51.750) endTick: 1725000 
1, 1710000, Marker_t, Division 1 Length: 0:00.069 (0:51.125 - 0:51.194) endTick: 1711667 
1, 1710030, Note_on_c, 0, 67, 99
1, 1710080, Note_on_c, 0, 50, 99
1, 1711667, Marker_t, Division 2 Length: 0:00.069 (0:51.194 - 0:51.264) endTick: 1713333 
1, 1711703, Note_on_c, 0, 108, 99
1, 1711721, Note_on_c, 0, 96, 99
1, 1712548, Note_off_c, 0, 96, 0
1, 1713333, Marker_t, Division 3 Length: 0:00.069 (0:51.264 - 0:51.333) endTick: 1715000 
1, 1713341, Note_on_c, 0, 53, 99
1, 1715000, Marker_t, Division 4 Length: 0:00.069 (0:51.333 - 0:51.403) endTick: 1716667 
1, 1715002, Note_on_c, 0, 112, 99
1, 1715020, Note_on_c, 0, 35, 99
1, 1715064, Note_on_c, 0, 38, 99
1, 1715075, Note_on_c, 0, 79, 99
1, 1715076, Note_on_c, 0, 35, 99
1, 1715473, Note_off_c, 0, 53, 0
1, 1715831, Note_off_c, 0, 79, 0
1, 1716420, Note_off_c, 0, 35, 0
1, 1716667, Marker_t, Division 5 Length: 0:00.069 (0:51.403 - 0:51.472) endTick: 1718333 
1, 1716680, Note_on_c, 0, 29, 99
1, 1716694, Note_on_c, 0, 67, 99
1, 1716695, Note_on_c, 0, 98, 99
1, 1716697, Note_on_c, 0, 100, 99
1, 1716703, Note_on_c, 0, 52, 99
1, 1717581, Note_off_c, 0, 67, 0
1, 1717731, Note_off_c, 0, 60, 0
1, 1717781, Note_off_c, 0, 50, 0
1, 1718333, Marker_t, Division 6 Length: 0:00.069 (0:51.472 - 0:51.542) endTick: 1720000 
1, 1718359, Note_on_c, 0, 110, 99
1, 1718360, Note_on_c, 0, 55, 99
1, 1718382, Note_on_c, 0, 86, 99
1, 1718400, Note_on_c, 0, 88, 99
1, 1718410, Note_on_c, 0, 28, 99
1, 1718969, Note_off_c, 0, 28, 0
1, 1718982, Note_off_c, 0, 108, 0
1, 1719188, Note_off_c, 0, 112, 0
1, 1719343, Note_off_c, 0, 38, 0
1, 1719545, Note_off_c, 0, 67, 0
1, 1720000, Marker_t, Division 7 Length: 0:00.069 (0:51.542 - 0:51.611) endTick: 1721667 
1, 1720003, Note_on_c, 0, 93, 99
1, 1720240, Note_off_c, 0, 110, 0
1, 1720626, Note_off_c, 0, 35, 0
1, 1721045, Note_off_c, 0, 93, 0
1, 1721667, Marker_t, Division 8 Length: 0:00.069 (0:51.611 - 0:51.681) endTick: 1723333 
1, 1721671, Note_on_c, 0, 77, 99
1, 1721699, Note_on_c, 0, 38, 99
1, 1721736, Note_on_c, 0, 24, 99
1, 1721740, Note_on_c, 0, 91, 99
1, 1722132, Note_off_c, 0, 29, 0
1, 1723333, Marker_t, Division 9 Length: 0:00.069 (0:51.681 - 0:51.750) endTick: 1725000 
1, 1723382, Note_on_c, 0, 31, 99
1, 1723397, Note_on_c, 0, 40, 99
1, 1723399, Note_on_c, 0, 95, 99
1, 1723543, Note_off_c, 0, 100, 0
1, 1723596, Note_off_c, 0, 52, 0
1, 1724167, Note_off_c, 0, 98, 0
1, 1725000, Marker_t, Beat 3 Length: 0:00.625 (0:51.750 - 0:52.375) endTick: 1740000 
1, 1725000, Marker_t, Division 1 Length: 0:00.063 (0:51.750 - 0:51.813) endTick: 1726500 
1, 1725010, Note_on_c, 0, 31, 99
1, 1725011, Note_on_c, 0, 88, 99
1, 1725016, Note_on_c, 0, 29, 99
1, 1725059, Note_on_c, 0, 26, 99
1, 1725062, Note_on_c, 0, 107, 99
1, 1725121, Note_off_c, 0, 88, 0
1, 1726436, Note_off_c, 0, 86, 0
1, 1726493, Note_off_c, 0, 55, 0
1, 1726500, Marker_t, Division 2 Length: 0:00.063 (0:51.813 - 0:51.875) endTick: 1728000 
1, 1726507, Note_on_c, 0, 89, 99
1, 1726525, Note_on_c, 0, 24, 99
1, 1726563, Note_on_c, 0, 91, 99
1, 1726563, Note_on_c, 0, 48, 99
1, 1726572, Note_off_c, 0, 31, 0
1, 1727363, Note_off_c, 0, 26, 0
1, 1727723, Note_off_c, 0, 38, 0
1, 1728000, Marker_t, Division 3 Length: 0:00.063 (0:51.875 - 0:51.938) endTick: 1729500 
1, 1728022, Note_off_c, 0, 77, 0
1, 1728029, Note_on_c, 0, 79, 99
1, 1728058, Note_off_c, 0, 91, 0
1, 1728059, Note_off_c, 0, 31, 0
1, 1728193, Note_off_c, 0, 91, 0
1, 1728921, Note_off_c, 0, 24, 0
1, 1729136, Note_off_c, 0, 40, 0
1, 1729500, Marker_t, Division 4 Length: 0:00.063 (0:51.938 - 0:52.000) endTick: 1731000 
1, 1729513, Note_on_c, 0, 62, 99
1, 1729536, Note_on_c, 0, 43, 99
1, 1729560, Note_on_c, 0, 88, 99
1, 1729565, Note_on_c, 0, 69, 99
1, 1729738, Note_off_c, 0, 79, 0
1, 1729928, Note_off_c, 0, 107, 0
1, 1730053, Note_off_c, 0, 48, 0
1, 1730524, Note_off_c, 0, 24, 0
1, 1731000, Marker_t, Division 5 Length: 0:00.063 (0:52.000 - 0:52.063) endTick: 1732500 
1, 1731035, Note_off_c, 0, 95, 0
1, 1731048, Note_off_c, 0, 88, 0
1, 1731050, Note_on_c, 0, 36, 99
1, 1731635, Note_off_c, 0, 69, 0
1, 1731949, Note_off_c, 0, 43, 0
1, 1732439, Note_off_c, 0, 29, 0
1, 1732500, Marker_t, Division 6 Length: 0:00.063 (0:52.063 - 0:52.125) endTick: 1734000 
1, 1732543, Note_on_c, 0, 60, 99
1, 1733480, Note_off_c, 0, 89, 0
1, 1733533, Note_off_c, 0, 62, 0
1, 1734000, Marker_t, Division 7 Length: 0:00.063 (0:52.125 - 0:52.188) endTick: 1735500 
1, 1734054, Note_on_c, 0, 45, 99
1, 1734794, Note_off_c, 0, 88, 0
1, 1735500, Marker_t, Division 8 Length: 0:00.063 (0:52.188 - 0:52.250) endTick: 1737000 
1, 1735563, Note_on_c, 0, 31, 99
1, 1736669, Note_off_c, 0, 45, 0
1, 1737000, Marker_t, Division 9 Length: 0:00.063 (0:52.250 - 0:52.313) endTick: 1738500 
1, 1737008, Note_on_c, 0, 84, 99
1, 1737024, Note_on_c, 0, 77, 99
1, 1737072, Note_on_c, 0, 72, 99
1, 1738248, Note_off_c, 0, 36, 0
1, 1738500, Marker_t, Division 10 Length: 0:00.063 (0:52.313 - 0:52.375) endTick: 1740000 
1, 1738518, Note_on_c, 0, 40, 99
1, 1738533, Note_on_c, 0, 108, 99
1, 1738570, Note_on_c, 0, 119, 99
1, 1739357, Note_off_c, 0, 31, 0
1, 1739390, Note_off_c, 0, 72, 0
1, 1739440, Note_off_c, 0, 108, 0
1, 1739977, Note_off_c, 0, 60, 0
1, 1740000, Marker_t, Beat 4 Length: 0:00.625 (0:52.375 - 0:53.000) endTick: 1755000 
1, 1740000, Marker_t, Division 1 Length: 0:00.156 (0:52.375 - 0:52.531) endTick: 1743750 
1, 1740063, Note_on_c, 0, 83, 99
1, 1740106, Note_on_c, 0, 86, 99
1, 1740155, Note_on_c, 0, 50, 99
1, 1740441, Note_off_c, 0, 77, 0
1, 1740466, Note_off_c, 0, 40, 0
1, 1741416, Note_off_c, 0, 84, 0
1, 1741629, Note_off_c, 0, 119, 0
1, 1743750, Marker_t, Division 2 Length: 0:00.156 (0:52.531 - 0:52.688) endTick: 1747500 
1, 1743824, Note_on_c, 0, 95, 99
1, 1743890, Note_on_c, 0, 33, 99
1, 1743896, Note_on_c, 0, 84, 99
1, 1743913, Note_on_c, 0, 86, 99
1, 1743935, Note_on_c, 0, 67, 99
1, 1744955, Note_off_c, 0, 67, 0
1, 1745650, Note_off_c, 0, 33, 0
1, 1747500, Marker_t, Division 3 Length: 0:00.156 (0:52.688 - 0:52.844) endTick: 1751250 
1, 1747502, Note_on_c, 0, 69, 99
1, 1747573, Note_on_c, 0, 59, 99
1, 1747575, Note_on_c, 0, 71, 99
1, 1747649, Note_on_c, 0, 98, 99
1, 1747679, Note_on_c, 0, 83, 99
1, 1748911, Note_off_c, 0, 83, 0
1, 1749756, Note_off_c, 0, 83, 0
1, 1750857, Note_off_c, 0, 95, 0
1, 1751250, Marker_t, Division 4 Length: 0:00.156 (0:52.844 - 0:53.000) endTick: 1755000 
1, 1751264, Note_on_c, 0, 36, 99
1, 1751365, Note_on_c, 0, 91, 99
1, 1751370, Note_on_c, 0, 115, 99
1, 1752380, Note_off_c, 0, 59, 0
1, 1752767, Note_off_c, 0, 91, 0
1, 1754206, Note_off_c, 0, 86, 0
1, 1754956, Note_off_c, 0, 115, 0
1, 1755000, Marker_t, Beat 5 Length: 0:00.625 (0:53.000 - 0:53.625) endTick: 1770000 
1, 1755000, Marker_t, Division 1 Length: 0:00.313 (0:53.000 - 0:53.313) endTick: 1762500 
1, 1755054, Note_on_c, 0, 86, 99
1, 1755234, Note_on_c, 0, 26, 99
1, 1755313, Note_on_c, 0, 119, 99
1, 1755357, Note_on_c, 0, 64, 99
1, 1756122, Note_off_c, 0, 84, 0
1, 1756302, Note_off_c, 0, 50, 0
1, 1756873, Note_off_c, 0, 86, 0
1, 1757827, Note_off_c, 0, 119, 0
1, 1757865, Note_off_c, 0, 86, 0
1, 1760392, Note_off_c, 0, 64, 0
1, 1761245, Note_off_c, 0, 69, 0
1, 1762402, Note_off_c, 0, 71, 0
1, 1762500, Marker_t, Division 2 Length: 0:00.313 (0:53.313 - 0:53.625) endTick: 1770000 
1, 1762569, Note_on_c, 0, 119, 99
1, 1762637, Note_on_c, 0, 105, 99
1, 1762650, Note_on_c, 0, 71, 99
1, 1764725, Note_off_c, 0, 36, 0
1, 1765617, Note_off_c, 0, 98, 0
1, 1770000, Marker_t, Beat 6 Length: 0:00.625 (0:53.625 - 0:54.250) endTick: 1785000 
1, 1770000, Marker_t, Division 1 Length: 0:00.156 (0:53.625 - 0:53.781) endTick: 1773750 
1, 1770003, Note_on_c, 0, 55, 99
1, 1770012, Note_on_c, 0, 81, 99
1, 1770016, Note_on_c, 0, 36, 99
1, 1770050, Note_on_c, 0, 119, 99
1, 1772631, Note_off_c, 0, 26, 0
1, 1773750, Marker_t, Division 2 Length: 0:00.156 (0:53.781 - 0:53.938) endTick: 1777500 
1, 1773784, Note_on_c, 0, 83, 99
1, 1773800, Note_on_c, 0, 117, 99
1, 1773856, Note_on_c, 0, 108, 99
1, 1773876, Note_on_c, 0, 112, 99
1, 1775615, Note_off_c, 0, 71, 0
1, 1776700, Note_off_c, 0, 119, 0
1, 1777500, Marker_t, Division 3 Length: 0:00.156 (0:53.938 - 0:54.094) endTick: 1781250 
1, 1777547, Note_on_c, 0, 77, 99
1, 1777552, Note_on_c, 0, 91, 99
1, 1777655, Note_on_c, 0, 115, 99
1, 1779273, Note_off_c, 0, 55, 0
1, 1780840, Note_off_c, 0, 119, 0
1, 1781250, Marker_t, Division 4 Length: 0:00.156 (0:54.094 - 0:54.250) endTick: 1785000 
1, 1781290, Note_on_c, 0, 48, 99
1, 1781603, Note_off_c, 0, 108, 0
1, 1781779, Note_off_c, 0, 91, 0
1, 1781930, Note_off_c, 0, 36, 0
1, 1782915, Note_off_c, 0, 81, 0
1, 1783531, Note_off_c, 0, 83, 0
1, 1785000, Marker_t, Beat 7 Length: 0:00.625 (0:54.250 - 0:54.875) endTick: 1800000 
1, 1785000, Marker_t, Division 1 Length: 0:00.156 (0:54.250 - 0:54.406) endTick: 1788750 
1, 1785042, Note_on_c, 0, 83, 99
1, 1786525, Note_off_c, 0, 117, 0
1, 1788176, Note_off_c, 0, 83, 0
1, 1788611, Note_off_c, 0, 77, 0
1, 1788750, Marker_t, Division 2 Length: 0:00.156 (0:54.406 - 0:54.563) endTick: 1792500 
1, 1788781, Note_on_c, 0, 57, 99
1, 1788792, Note_on_c, 0, 24, 99
1, 1788826, Note_on_c, 0, 100, 99
1, 1788833, Note_on_c, 0, 110, 99
1, 1789070, Note_off_c, 0, 112, 0
1, 1791621, Note_off_c, 0, 115, 0
1, 1792500, Marker_t, Division 3 Length: 0:00.156 (0:54.563 - 0:54.719) endTick: 1796250 
1, 1792580, Note_on_c, 0, 93, 99
1, 1792588, Note_on_c, 0, 29, 99
1, 1792589, Note_on_c, 0, 59, 99
1, 1792628, Note_on_c, 0, 91, 99
1, 1792686, Note_on_c, 0, 115, 99
1, 1793007, Note_off_c, 0, 24, 0
1, 1793618, Note_off_c, 0, 115, 0
1, 1796250, Marker_t, Division 4 Length: 0:00.156 (0:54.719 - 0:54.875) endTick: 1800000 
1, 1796262, Note_on_c, 0, 83, 99
1, 1796310, Note_on_c, 0, 62, 99
1, 1796381, Note_on_c, 0, 35, 99
1, 1798161, Note_off_c, 0, 105, 0
1, 1798843, Note_off_c, 0, 93, 0
1, 1799569, Note_off_c, 0, 48, 0
1, 1800000, Marker_t, Beat 8 Length: 0:00.625 (0:54.875 - 0:55.500) endTick: 1815000 
1, 1800000, Marker_t, Division 1 Length: 0:00.089 (0:54.875 - 0:54.964) endTick: 1802143 
1, 1800015, Note_on_c, 0, 69, 99
1, 1800336, Note_off_c, 0, 57, 0
1, 1800542, Note_off_c, 0, 100, 0
1, 1802143, Marker_t, Division 2 Length: 0:00.089 (0:54.964 - 0:55.054) endTick: 1804286 
1, 1802151, Note_on_c, 0, 26, 99
1, 1802161, Note_on_c, 0, 89, 99
1, 1802183, Note_on_c, 0, 112, 99
1, 1802220, Note_on_c, 0, 107, 99
1, 1802845, Note_off_c, 0, 59, 0
1, 1802970, Note_off_c, 0, 26, 0
1, 1804286, Marker_t, Division 3 Length: 0:00.089 (0:55.054 - 0:55.143) endTick: 1806429 
1, 1804307, Note_on_c, 0, 119, 99
1, 1804320, Note_off_c, 0, 110, 0
1, 1804385, Note_off_c, 0, 83, 0
1, 1806429, Marker_t, Division 4 Length: 0:00.089 (0:55.143 - 0:55.232) endTick: 1808571 
1, 1806431, Note_on_c, 0, 98, 99
1, 1806448, Note_on_c, 0, 119, 99
1, 1806458, Note_on_c, 0, 28, 99
1, 1806496, Note_on_c, 0, 74, 99
1, 1806504, Note_off_c, 0, 91, 0
1, 1806510, Note_on_c, 0, 115, 99
1, 1806849, Note_off_c, 0, 62, 0
1, 1807420, Note_off_c, 0, 107, 0
1, 1807974, Note_off_c, 0, 69, 0
1, 1808312, Note_off_c, 0, 119, 0
1, 1808571, Marker_t, Division 5 Length: 0:00.089 (0:55.232 - 0:55.321) endTick: 1810714 
1, 1808611, Note_on_c, 0, 110, 99
1, 1808630, Note_on_c, 0, 119, 99
1, 1808647, Note_on_c, 0, 72, 99
1, 1808909, Note_off_c, 0, 89, 0
1, 1809152, Note_off_c, 0, 110, 0
1, 1809692, Note_off_c, 0, 29, 0
1, 1809849, Note_off_c, 0, 74, 0
1, 1810355, Note_off_c, 0, 98, 0
1, 1810714, Marker_t, Division 6 Length: 0:00.089 (0:55.321 - 0:55.411) endTick: 1812857 
1, 1810720, Note_on_c, 0, 36, 99
1, 1810720, Note_on_c, 0, 71, 99
1, 1810731, Note_on_c, 0, 69, 99
1, 1810747, Note_on_c, 0, 64, 99
1, 1810788, Note_on_c, 0, 31, 99
1, 1811244, Note_off_c, 0, 112, 0
1, 1811581, Note_off_c, 0, 119, 0
1, 1811739, Note_off_c, 0, 64, 0
1, 1812040, Note_off_c, 0, 119, 0
1, 1812563, Note_off_c, 0, 71, 0
1, 1812857, Marker_t, Division 7 Length: 0:00.089 (0:55.411 - 0:55.500) endTick: 1815000 
1, 1812859, Note_on_c, 0, 115, 99
1, 1812860, Note_on_c, 0, 74, 99
1, 1812868, Note_on_c, 0, 65, 99
1, 1813234, Note_off_c, 0, 115, 0
1, 1813507, Note_off_c, 0, 69, 0
1, 1813744, Note_off_c, 0, 35, 0
1, 1814118, Note_off_c, 0, 36, 0
1, 1815000, Marker_t, Beat 9 Length: 0:00.625 (0:55.500 - 0:56.125) endTick: 1830000 
1, 1815000, Marker_t, Division 1 Length: 0:00.208 (0:55.500 - 0:55.708) endTick: 1820000 
1, 1815226, Note_on_c, 0, 40, 99
1, 1816808, Note_off_c, 0, 115, 0
1, 1816940, Note_off_c, 0, 72, 0
1, 1817028, Note_off_c, 0, 28, 0
1, 1818322, Note_off_c, 0, 31, 0
1, 1820000, Marker_t, Division 2 Length: 0:00.208 (0:55.708 - 0:55.917) endTick: 1825000 
1, 1820067, Note_on_c, 0, 71, 99
1, 1820158, Note_on_c, 0, 89, 99
1, 1822613, Note_off_c, 0, 74, 0
1, 1822732, Note_off_c, 0, 65, 0
1, 1825000, Marker_t, Division 3 Length: 0:00.208 (0:55.917 - 0:56.125) endTick: 1830000 
1, 1825187, Note_on_c, 0, 47, 99
1, 1825229, Note_on_c, 0, 79, 99
1, 1828015, Note_off_c, 0, 89, 0
1, 1829285, Note_off_c, 0, 40, 0
1, 1830000, Time_signature, 9, 3, 24, 8
1, 1830000, Tempo, 750000
1, 1830000, Marker_t, Measure 12 Length: 0:03.375 (0:56.125 - 0:59.500) endTick: 1965000 Original Meter: 9/6 Spoofed Meter: 9/8
1, 1830000, Marker_t, Beat 1 Length: 0:00.375 (0:56.125 - 0:56.500) endTick: 1845000 
1, 1830000, Marker_t, Division 1 Length: 0:00.038 (0:56.125 - 0:56.163) endTick: 1831500 
1, 1830012, Note_off_c, 0, 79, 0
1, 1830025, Note_on_c, 0, 71, 99
1, 1830043, Note_on_c, 0, 87, 99
1, 1830057, Note_on_c, 0, 27, 99
1, 1830062, Note_on_c, 0, 65, 99
1, 1830729, Note_off_c, 0, 65, 0
1, 1830971, Note_off_c, 0, 27, 0
1, 1831500, Marker_t, Division 2 Length: 0:00.038 (0:56.163 - 0:56.200) endTick: 1833000 
1, 1831510, Note_on_c, 0, 49, 99
1, 1831513, Note_on_c, 0, 82, 99
1, 1831540, Note_on_c, 0, 69, 99
1, 1831552, Note_on_c, 0, 33, 99
1, 1831564, Note_on_c, 0, 29, 99
1, 1831772, Note_off_c, 0, 82, 0
1, 1831914, Note_off_c, 0, 49, 0
1, 1833000, Marker_t, Division 3 Length: 0:00.038 (0:56.200 - 0:56.238) endTick: 1834500 
1, 1833037, Note_on_c, 0, 29, 99
1, 1834321, Note_off_c, 0, 87, 0
1, 1834500, Marker_t, Division 4 Length: 0:00.038 (0:56.237 - 0:56.275) endTick: 1836000 
1, 1834510, Note_on_c, 0, 37, 99
1, 1834527, Note_on_c, 0, 83, 99
1, 1834539, Note_on_c, 0, 46, 99
1, 1835584, Note_off_c, 0, 71, 0
1, 1835662, Note_off_c, 0, 71, 0
1, 1835893, Note_off_c, 0, 69, 0
1, 1836000, Marker_t, Division 5 Length: 0:00.038 (0:56.275 - 0:56.313) endTick: 1837500 
1, 1836033, Note_on_c, 0, 36, 99
1, 1836050, Note_on_c, 0, 39, 99
1, 1836062, Note_on_c, 0, 26, 99
1, 1836063, Note_on_c, 0, 45, 99
1, 1836084, Note_off_c, 0, 29, 0
1, 1836371, Note_off_c, 0, 37, 0
1, 1836976, Note_off_c, 0, 33, 0
1, 1837500, Marker_t, Division 6 Length: 0:00.038 (0:56.313 - 0:56.350) endTick: 1839000 
1, 1837502, Note_off_c, 0, 46, 0
1, 1837503, Note_on_c, 0, 101, 99
1, 1837534, Note_on_c, 0, 73, 99
1, 1837549, Note_on_c, 0, 117, 99
1, 1837554, Note_on_c, 0, 108, 99
1, 1837573, Note_on_c, 0, 84, 99
1, 1838126, Note_off_c, 0, 101, 0
1, 1838824, Note_off_c, 0, 29, 0
1, 1839000, Marker_t, Division 7 Length: 0:00.038 (0:56.350 - 0:56.388) endTick: 1840500 
1, 1839002, Note_on_c, 0, 27, 99
1, 1839019, Note_on_c, 0, 72, 99
1, 1839058, Note_on_c, 0, 81, 99
1, 1839064, Note_on_c, 0, 101, 99
1, 1839068, Note_off_c, 0, 84, 0
1, 1839073, Note_on_c, 0, 80, 99
1, 1839679, Note_off_c, 0, 36, 0
1, 1839942, Note_off_c, 0, 45, 0
1, 1840295, Note_off_c, 0, 26, 0
1, 1840310, Note_off_c, 0, 83, 0
1, 1840500, Marker_t, Division 8 Length: 0:00.038 (0:56.388 - 0:56.425) endTick: 1842000 
1, 1840502, Note_on_c, 0, 45, 99
1, 1840518, Note_on_c, 0, 101, 99
1, 1840529, Note_on_c, 0, 48, 99
1, 1840530, Note_on_c, 0, 28, 99
1, 1840568, Note_on_c, 0, 63, 99
1, 1840762, Note_off_c, 0, 27, 0
1, 1841554, Note_off_c, 0, 81, 0
1, 1841677, Note_off_c, 0, 63, 0
1, 1842000, Marker_t, Division 9 Length: 0:00.038 (0:56.425 - 0:56.462) endTick: 1843500 
1, 1842028, Note_on_c, 0, 83, 99
1, 1842054, Note_on_c, 0, 118, 99
1, 1842123, Note_off_c, 0, 108, 0
1, 1842820, Note_off_c, 0, 117, 0
1, 1842875, Note_off_c, 0, 39, 0
1, 1842980, Note_off_c, 0, 73, 0
1, 1843500, Marker_t, Division 10 Length: 0:00.038 (0:56.462 - 0:56.500) endTick: 1845000 
1, 1843511, Note_on_c, 0, 65, 99
1, 1843550, Note_on_c, 0, 85, 99
1, 1843551, Note_off_c, 0, 45, 0
1, 1844413, Note_off_c, 0, 80, 0
1, 1845000, Marker_t, Beat 2 Length: 0:00.375 (0:56.500 - 0:56.875) endTick: 1860000 
1, 1845000, Marker_t, Division 1 Length: 0:00.038 (0:56.500 - 0:56.538) endTick: 1846500 
1, 1845010, Note_on_c, 0, 36, 99
1, 1845013, Note_on_c, 0, 96, 99
1, 1845013, Note_on_c, 0, 32, 99
1, 1845028, Note_on_c, 0, 36, 99
1, 1845043, Note_on_c, 0, 81, 99
1, 1845352, Note_off_c, 0, 28, 0
1, 1845674, Note_off_c, 0, 36, 0
1, 1845678, Note_off_c, 0, 101, 0
1, 1845855, Note_off_c, 0, 72, 0
1, 1845856, Note_off_c, 0, 48, 0
1, 1845866, Note_off_c, 0, 101, 0
1, 1846500, Marker_t, Division 2 Length: 0:00.038 (0:56.538 - 0:56.575) endTick: 1848000 
1, 1846501, Note_on_c, 0, 108, 99
1, 1846530, Note_on_c, 0, 49, 99
1, 1846550, Note_off_c, 0, 118, 0
1, 1846572, Note_on_c, 0, 45, 99
1, 1846573, Note_on_c, 0, 82, 99
1, 1846574, Note_on_c, 0, 47, 99
1, 1846645, Note_off_c, 0, 32, 0
1, 1846878, Note_off_c, 0, 47, 0
1, 1847295, Note_off_c, 0, 85, 0
1, 1847658, Note_off_c, 0, 108, 0
1, 1848000, Marker_t, Division 3 Length: 0:00.038 (0:56.575 - 0:56.613) endTick: 1849500 
1, 1848037, Note_on_c, 0, 94, 99
1, 1848055, Note_on_c, 0, 59, 99
1, 1848056, Note_on_c, 0, 89, 99
1, 1848073, Note_on_c, 0, 60, 99
1, 1848084, Note_off_c, 0, 83, 0
1, 1848622, Note_off_c, 0, 65, 0
1, 1848693, Note_off_c, 0, 59, 0
1, 1848912, Note_off_c, 0, 82, 0
1, 1849326, Note_off_c, 0, 47, 0
1, 1849500, Marker_t, Division 4 Length: 0:00.038 (0:56.612 - 0:56.650) endTick: 1851000 
1, 1849522, Note_on_c, 0, 92, 99
1, 1849558, Note_on_c, 0, 26, 99
1, 1850885, Note_off_c, 0, 49, 0
1, 1851000, Marker_t, Division 5 Length: 0:00.038 (0:56.650 - 0:56.688) endTick: 1852500 
1, 1851011, Note_on_c, 0, 77, 99
1, 1851031, Note_on_c, 0, 118, 99
1, 1851199, Note_off_c, 0, 81, 0
1, 1851781, Note_off_c, 0, 89, 0
1, 1852053, Note_off_c, 0, 36, 0
1, 1852298, Note_off_c, 0, 96, 0
1, 1852500, Marker_t, Division 6 Length: 0:00.038 (0:56.688 - 0:56.725) endTick: 1854000 
1, 1852507, Note_on_c, 0, 37, 99
1, 1852513, Note_on_c, 0, 62, 99
1, 1852528, Note_on_c, 0, 102, 99
1, 1852572, Note_on_c, 0, 116, 99
1, 1852846, Note_off_c, 0, 60, 0
1, 1853769, Note_off_c, 0, 62, 0
1, 1853988, Note_off_c, 0, 45, 0
1, 1854000, Marker_t, Division 7 Length: 0:00.038 (0:56.725 - 0:56.763) endTick: 1855500 
1, 1854009, Note_on_c, 0, 73, 99
1, 1854012, Note_on_c, 0, 108, 99
1, 1854012, Note_on_c, 0, 85, 99
1, 1854017, Note_on_c, 0, 119, 99
1, 1854026, Note_on_c, 0, 82, 99
1, 1854365, Note_off_c, 0, 26, 0
1, 1854484, Note_off_c, 0, 116, 0
1, 1854988, Note_off_c, 0, 85, 0
1, 1855052, Note_off_c, 0, 94, 0
1, 1855292, Note_off_c, 0, 92, 0
1, 1855314, Note_off_c, 0, 118, 0
1, 1855500, Marker_t, Division 8 Length: 0:00.038 (0:56.763 - 0:56.800) endTick: 1857000 
1, 1855521, Note_on_c, 0, 61, 99
1, 1855526, Note_on_c, 0, 45, 99
1, 1855533, Note_on_c, 0, 105, 99
1, 1855869, Note_off_c, 0, 108, 0
1, 1856269, Note_off_c, 0, 102, 0
1, 1856481, Note_off_c, 0, 82, 0
1, 1857000, Marker_t, Division 9 Length: 0:00.038 (0:56.800 - 0:56.837) endTick: 1858500 
1, 1857035, Note_on_c, 0, 96, 99
1, 1857037, Note_on_c, 0, 88, 99
1, 1857056, Note_on_c, 0, 90, 99
1, 1857073, Note_on_c, 0, 101, 99
1, 1857120, Note_off_c, 0, 77, 0
1, 1857243, Note_off_c, 0, 119, 0
1, 1857602, Note_off_c, 0, 101, 0
1, 1857748, Note_off_c, 0, 96, 0
1, 1858500, Marker_t, Division 10 Length: 0:00.038 (0:56.837 - 0:56.875) endTick: 1860000 
1, 1858504, Note_on_c, 0, 113, 99
1, 1858523, Note_on_c, 0, 66, 99
1, 1858542, Note_on_c, 0, 85, 99
1, 1858545, Note_on_c, 0, 61, 99
1, 1858564, Note_on_c, 0, 96, 99
1, 1858723, Note_off_c, 0, 73, 0
1, 1858769, Note_off_c, 0, 88, 0
1, 1859529, Note_off_c, 0, 37, 0
1, 1859960, Note_off_c, 0, 85, 0
1, 1860000, Marker_t, Beat 3 Length: 0:00.375 (0:56.875 - 0:57.250) endTick: 1875000 
1, 1860000, Marker_t, Division 1 Length: 0:00.375 (0:56.875 - 0:57.250) endTick: 1875000 
1, 1860101, Note_off_c, 0, 61, 0
1, 1860468, Note_on_c, 0, 26, 99
1, 1860490, Note_off_c, 0, 90, 0
1, 1860519, Note_on_c, 0, 99, 99
1, 1860630, Note_off_c, 0, 45, 0
1, 1862067, Note_off_c, 0, 66, 0
1, 1862172, Note_off_c, 0, 105, 0
1, 1863809, Note_off_c, 0, 61, 0
1, 1864615, Note_off_c, 0, 113, 0
1, 1864708, Note_off_c, 0, 96, 0
1, 1875000, Marker_t, Beat 4 Length: 0:00.375 (0:57.250 - 0:57.625) endTick: 1890000 
1, 1875000, Marker_t, Division 1 Length: 0:00.042 (0:57.250 - 0:57.292) endTick: 1876667 
1, 1875066, Note_on_c, 0, 28, 99
1, 1875074, Note_on_c, 0, 72, 99
1, 1876330, Note_off_c, 0, 99, 0
1, 1876667, Marker_t, Division 2 Length: 0:00.042 (0:57.292 - 0:57.333) endTick: 1878333 
1, 1876675, Note_on_c, 0, 95, 99
1, 1876681, Note_on_c, 0, 45, 99
1, 1876704, Note_on_c, 0, 41, 99
1, 1876710, Note_on_c, 0, 24, 99
1, 1876743, Note_on_c, 0, 109, 99
1, 1876814, Note_off_c, 0, 72, 0
1, 1876852, Note_off_c, 0, 45, 0
1, 1878333, Marker_t, Division 3 Length: 0:00.042 (0:57.333 - 0:57.375) endTick: 1880000 
1, 1878378, Note_on_c, 0, 113, 99
1, 1880000, Marker_t, Division 4 Length: 0:00.042 (0:57.375 - 0:57.417) endTick: 1881667 
1, 1880001, Note_on_c, 0, 93, 99
1, 1880026, Note_on_c, 0, 82, 99
1, 1880027, Note_on_c, 0, 104, 99
1, 1880050, Note_on_c, 0, 81, 99
1, 1880081, Note_on_c, 0, 65, 99
1, 1880546, Note_off_c, 0, 28, 0
1, 1881536, Note_off_c, 0, 109, 0
1, 1881667, Marker_t, Division 5 Length: 0:00.042 (0:57.417 - 0:57.458) endTick: 1883333 
1, 1881685, Note_on_c, 0, 118, 99
1, 1881712, Note_on_c, 0, 93, 99
1, 1881714, Note_on_c, 0, 44, 99
1, 1882219, Note_off_c, 0, 24, 0
1, 1883001, Note_off_c, 0, 82, 0
1, 1883333, Marker_t, Division 6 Length: 0:00.042 (0:57.458 - 0:57.500) endTick: 1885000 
1, 1883402, Note_on_c, 0, 112, 99
1, 1883484, Note_off_c, 0, 104, 0
1, 1883904, Note_off_c, 0, 112, 0
1, 1884090, Note_off_c, 0, 41, 0
1, 1884314, Note_off_c, 0, 95, 0
1, 1884817, Note_off_c, 0, 65, 0
1, 1885000, Marker_t, Division 7 Length: 0:00.042 (0:57.500 - 0:57.542) endTick: 1886667 
1, 1885036, Note_on_c, 0, 114, 99
1, 1885041, Note_on_c, 0, 53, 99
1, 1885061, Note_on_c, 0, 44, 99
1, 1885316, Note_off_c, 0, 44, 0
1, 1885886, Note_off_c, 0, 81, 0
1, 1886116, Note_off_c, 0, 113, 0
1, 1886667, Marker_t, Division 8 Length: 0:00.042 (0:57.542 - 0:57.583) endTick: 1888333 
1, 1886668, Note_on_c, 0, 61, 99
1, 1886694, Note_on_c, 0, 53, 99
1, 1886703, Note_on_c, 0, 36, 99
1, 1886713, Note_on_c, 0, 33, 99
1, 1887703, Note_off_c, 0, 93, 0
1, 1888029, Note_off_c, 0, 93, 0
1, 1888333, Marker_t, Division 9 Length: 0:00.042 (0:57.583 - 0:57.625) endTick: 1890000 
1, 1888344, Note_on_c, 0, 84, 99
1, 1888348, Note_on_c, 0, 63, 99
1, 1888369, Note_on_c, 0, 81, 99
1, 1888395, Note_on_c, 0, 33, 99
1, 1888596, Note_off_c, 0, 114, 0
1, 1888637, Note_off_c, 0, 53, 0
1, 1888658, Note_off_c, 0, 36, 0
1, 1889433, Note_off_c, 0, 118, 0
1, 1889618, Note_off_c, 0, 44, 0
1, 1889759, Note_off_c, 0, 81, 0
1, 1890000, Marker_t, Beat 5 Length: 0:00.375 (0:57.625 - 0:58.000) endTick: 1905000 
1, 1890000, Marker_t, Division 1 Length: 0:00.054 (0:57.625 - 0:57.679) endTick: 1892143 
1, 1890002, Note_on_c, 0, 66, 99
1, 1890035, Note_on_c, 0, 56, 99
1, 1890790, Note_off_c, 0, 84, 0
1, 1892143, Marker_t, Division 2 Length: 0:00.054 (0:57.679 - 0:57.732) endTick: 1894286 
1, 1892215, Note_on_c, 0, 30, 99
1, 1892754, Note_off_c, 0, 53, 0
1, 1893202, Note_off_c, 0, 33, 0
1, 1893223, Note_off_c, 0, 63, 0
1, 1894286, Marker_t, Division 3 Length: 0:00.054 (0:57.732 - 0:57.786) endTick: 1896429 
1, 1894292, Note_off_c, 0, 66, 0
1, 1894302, Note_on_c, 0, 53, 99
1, 1894377, Note_on_c, 0, 24, 99
1, 1894392, Note_off_c, 0, 30, 0
1, 1894700, Note_off_c, 0, 33, 0
1, 1894754, Note_off_c, 0, 61, 0
1, 1895347, Note_off_c, 0, 53, 0
1, 1896429, Marker_t, Division 4 Length: 0:00.054 (0:57.786 - 0:57.839) endTick: 1898571 
1, 1896515, Note_on_c, 0, 61, 99
1, 1898398, Note_off_c, 0, 24, 0
1, 1898571, Marker_t, Division 5 Length: 0:00.054 (0:57.839 - 0:57.893) endTick: 1900714 
1, 1898580, Note_on_c, 0, 48, 99
1, 1898587, Note_on_c, 0, 38, 99
1, 1898590, Note_on_c, 0, 90, 99
1, 1898663, Note_on_c, 0, 84, 99
1, 1899820, Note_off_c, 0, 38, 0
1, 1900036, Note_off_c, 0, 56, 0
1, 1900714, Marker_t, Division 6 Length: 0:00.054 (0:57.893 - 0:57.946) endTick: 1902857 
1, 1900717, Note_on_c, 0, 80, 99
1, 1901779, Note_off_c, 0, 48, 0
1, 1902857, Marker_t, Division 7 Length: 0:00.054 (0:57.946 - 0:58.000) endTick: 1905000 
1, 1902909, Note_on_c, 0, 81, 99
1, 1902909, Note_on_c, 0, 66, 99
1, 1902957, Note_on_c, 0, 69, 99
1, 1904151, Note_off_c, 0, 66, 0
1, 1905000, Marker_t, Beat 6 Length: 0:00.375 (0:58.000 - 0:58.375) endTick: 1920000 
1, 1905000, Marker_t, Division 1 Length: 0:00.125 (0:58.000 - 0:58.125) endTick: 1910000 
1, 1905011, Note_on_c, 0, 54, 99
1, 1905013, Note_on_c, 0, 97, 99
1, 1905066, Note_on_c, 0, 89, 99
1, 1905178, Note_on_c, 0, 60, 99
1, 1905190, Note_off_c, 0, 61, 0
1, 1905247, Note_on_c, 0, 56, 99
1, 1906033, Note_off_c, 0, 69, 0
1, 1906675, Note_off_c, 0, 90, 0
1, 1907608, Note_off_c, 0, 84, 0
1, 1908204, Note_off_c, 0, 81, 0
1, 1909444, Note_off_c, 0, 26, 0
1, 1909595, Note_off_c, 0, 89, 0
1, 1909875, Note_off_c, 0, 80, 0
1, 1910000, Marker_t, Division 2 Length: 0:00.125 (0:58.125 - 0:58.250) endTick: 1915000 
1, 1910165, Note_on_c, 0, 65, 99
1, 1915000, Marker_t, Division 3 Length: 0:00.125 (0:58.250 - 0:58.375) endTick: 1920000 
1, 1915063, Note_on_c, 0, 37, 99
1, 1915076, Note_on_c, 0, 35, 99
1, 1915149, Note_on_c, 0, 118, 99
1, 1915237, Note_on_c, 0, 62, 99
1, 1915739, Note_off_c, 0, 65, 0
1, 1918439, Note_off_c, 0, 60, 0
1, 1920000, Marker_t, Beat 7 Length: 0:00.375 (0:58.375 - 0:58.750) endTick: 1935000 
1, 1920000, Marker_t, Division 1 Length: 0:00.042 (0:58.375 - 0:58.417) endTick: 1921667 
1, 1920005, Note_on_c, 0, 54, 99
1, 1920022, Note_on_c, 0, 41, 99
1, 1920030, Note_on_c, 0, 75, 99
1, 1920044, Note_on_c, 0, 33, 99
1, 1920057, Note_on_c, 0, 87, 99
1, 1921667, Marker_t, Division 2 Length: 0:00.042 (0:58.417 - 0:58.458) endTick: 1923333 
1, 1921684, Note_on_c, 0, 34, 99
1, 1921690, Note_on_c, 0, 73, 99
1, 1921692, Note_on_c, 0, 95, 99
1, 1921704, Note_on_c, 0, 71, 99
1, 1921739, Note_on_c, 0, 68, 99
1, 1922110, Note_off_c, 0, 73, 0
1, 1922886, Note_off_c, 0, 87, 0
1, 1923333, Marker_t, Division 3 Length: 0:00.042 (0:58.458 - 0:58.500) endTick: 1925000 
1, 1923346, Note_on_c, 0, 105, 99
1, 1923357, Note_on_c, 0, 56, 99
1, 1923691, Note_off_c, 0, 105, 0
1, 1923701, Note_off_c, 0, 75, 0
1, 1924094, Note_off_c, 0, 118, 0
1, 1924148, Note_off_c, 0, 33, 0
1, 1924253, Note_off_c, 0, 35, 0
1, 1924258, Note_off_c, 0, 54, 0
1, 1924633, Note_off_c, 0, 41, 0
1, 1925000, Marker_t, Division 4 Length: 0:00.042 (0:58.500 - 0:58.542) endTick: 1926667 
1, 1925018, Note_on_c, 0, 113, 99
1, 1925047, Note_on_c, 0, 25, 99
1, 1925068, Note_on_c, 0, 63, 99
1, 1925074, Note_on_c, 0, 105, 99
1, 1925079, Note_on_c, 0, 93, 99
1, 1925587, Note_off_c, 0, 71, 0
1, 1926337, Note_off_c, 0, 37, 0
1, 1926667, Marker_t, Division 5 Length: 0:00.042 (0:58.542 - 0:58.583) endTick: 1928333 
1, 1926701, Note_on_c, 0, 25, 99
1, 1926702, Note_on_c, 0, 90, 99
1, 1926712, Note_on_c, 0, 29, 99
1, 1926739, Note_on_c, 0, 88, 99
1, 1926754, Note_off_c, 0, 95, 0
1, 1927831, Note_off_c, 0, 54, 0
1, 1927968, Note_off_c, 0, 68, 0
1, 1928330, Note_off_c, 0, 97, 0
1, 1928333, Marker_t, Division 6 Length: 0:00.042 (0:58.583 - 0:58.625) endTick: 1930000 
1, 1928339, Note_on_c, 0, 98, 99
1, 1928345, Note_off_c, 0, 25, 0
1, 1928348, Note_on_c, 0, 92, 99
1, 1928651, Note_off_c, 0, 56, 0
1, 1928787, Note_off_c, 0, 56, 0
1, 1929558, Note_off_c, 0, 98, 0
1, 1929942, Note_off_c, 0, 34, 0
1, 1930000, Marker_t, Division 7 Length: 0:00.042 (0:58.625 - 0:58.667) endTick: 1931667 
1, 1930036, Note_on_c, 0, 83, 99
1, 1930042, Note_on_c, 0, 80, 99
1, 1930046, Note_on_c, 0, 66, 99
1, 1930074, Note_on_c, 0, 49, 99
1, 1930080, Note_on_c, 0, 114, 99
1, 1930232, Note_off_c, 0, 113, 0
1, 1930599, Note_off_c, 0, 88, 0
1, 1930662, Note_off_c, 0, 62, 0
1, 1931093, Note_off_c, 0, 25, 0
1, 1931588, Note_off_c, 0, 83, 0
1, 1931590, Note_off_c, 0, 105, 0
1, 1931667, Marker_t, Division 8 Length: 0:00.042 (0:58.667 - 0:58.708) endTick: 1933333 
1, 1931712, Note_on_c, 0, 99, 99
1, 1931730, Note_on_c, 0, 61, 99
1, 1931740, Note_on_c, 0, 72, 99
1, 1932085, Note_off_c, 0, 93, 0
1, 1932198, Note_off_c, 0, 90, 0
1, 1932214, Note_off_c, 0, 92, 0
1, 1932784, Note_off_c, 0, 80, 0
1, 1932888, Note_off_c, 0, 63, 0
1, 1932979, Note_off_c, 0, 114, 0
1, 1933333, Marker_t, Division 9 Length: 0:00.042 (0:58.708 - 0:58.750) endTick: 1935000 
1, 1933335, Note_on_c, 0, 25, 99
1, 1933342, Note_on_c, 0, 49, 99
1, 1933345, Note_on_c, 0, 69, 99
1, 1933358, Note_on_c, 0, 87, 99
1, 1933381, Note_on_c, 0, 47, 99
1, 1933511, Note_off_c, 0, 99, 0
1, 1933610, Note_off_c, 0, 49, 0
1, 1934198, Note_off_c, 0, 25, 0
1, 1934293, Note_off_c, 0, 72, 0
1, 1934505, Note_off_c, 0, 29, 0
1, 1934885, Note_off_c, 0, 49, 0
1, 1935000, Marker_t, Beat 8 Length: 0:00.375 (0:58.750 - 0:59.125) endTick: 1950000 
1, 1935000, Marker_t, Division 1 Length: 0:00.188 (0:58.750 - 0:58.938) endTick: 1942500 
1, 1935089, Note_on_c, 0, 73, 99
1, 1935266, Note_on_c, 0, 99, 99
1, 1935271, Note_off_c, 0, 47, 0
1, 1935996, Note_off_c, 0, 69, 0
1, 1936794, Note_off_c, 0, 61, 0
1, 1936894, Note_off_c, 0, 66, 0
1, 1939992, Note_off_c, 0, 87, 0
1, 1942500, Marker_t, Division 2 Length: 0:00.188 (0:58.938 - 0:59.125) endTick: 1950000 
1, 1942593, Note_on_c, 0, 75, 99
1, 1946734, Note_off_c, 0, 75, 0
1, 1950000, Marker_t, Beat 9 Length: 0:00.375 (0:59.125 - 0:59.500) endTick: 1965000 
1, 1950000, Marker_t, Division 1 Length: 0:00.188 (0:59.125 - 0:59.313) endTick: 1957500 
1, 1950064, Note_on_c, 0, 87, 99
1, 1950066, Note_on_c, 0, 25, 99
1, 1950161, Note_on_c, 0, 107, 99
1, 1957500, Marker_t, Division 2 Length: 0:00.188 (0:59.313 - 0:59.500) endTick: 1965000 
1, 1957557, Note_on_c, 0, 49, 99
1, 1957663, Note_on_c, 0, 34, 99
1, 1957686, Note_on_c, 0, 65, 99
1, 1957863, Note_on_c, 0, 93, 99
1, 1958168, Note_off_c, 0, 99, 0
1, 1959042, Note_off_c, 0, 25, 0
1, 1965000, Time_signature, 8, 3, 24, 8
1, 1965000, Tempo, 1250000
1, 1965000, Marker_t, Measure 13 Length: 0:05.000 (0:59.500 - 1:04.500) endTick: 2085000 Original Meter: 8/10 Spoofed Meter: 8/8
1, 1965000, Marker_t, Beat 1 Length: 0:00.625 (0:59.500 - 1:00.125) endTick: 1980000 
1, 1965000, Marker_t, Division 1 Length: 0:00.208 (0:59.500 - 0:59.708) endTick: 1970000 
1, 1965017, Note_on_c, 0, 35, 99
1, 1965097, Note_on_c, 0, 79, 99
1, 1965120, Note_on_c, 0, 95, 99
1, 1965139, Note_on_c, 0, 108, 99
1, 1965226, Note_on_c, 0, 57, 99
1, 1965300, Note_off_c, 0, 65, 0
1, 1965867, Note_off_c, 0, 34, 0
1, 1966170, Note_off_c, 0, 57, 0
1, 1968683, Note_off_c, 0, 49, 0
1, 1968774, Note_off_c, 0, 79, 0
1, 1968911, Note_off_c, 0, 107, 0
1, 1969396, Note_off_c, 0, 73, 0
1, 1970000, Marker_t, Division 2 Length: 0:00.208 (0:59.708 - 0:59.917) endTick: 1975000 
1, 1970158, Note_on_c, 0, 113, 99
1, 1972348, Note_off_c, 0, 95, 0
1, 1973687, Note_off_c, 0, 87, 0
1, 1975000, Marker_t, Division 3 Length: 0:00.208 (0:59.917 - 1:00.125) endTick: 1980000 
1, 1975183, Note_on_c, 0, 107, 99
1, 1980000, Marker_t, Beat 2 Length: 0:00.625 (1:00.125 - 1:00.750) endTick: 1995000 
1, 1980000, Marker_t, Division 1 Length: 0:00.313 (1:00.125 - 1:00.438) endTick: 1987500 
1, 1980073, Note_on_c, 0, 55, 99
1, 1980116, Note_on_c, 0, 100, 99
1, 1981900, Note_off_c, 0, 93, 0
1, 1981991, Note_off_c, 0, 107, 0
1, 1987093, Note_off_c, 0, 35, 0
1, 1987500, Marker_t, Division 2 Length: 0:00.313 (1:00.438 - 1:00.750) endTick: 1995000 
1, 1987589, Note_on_c, 0, 62, 99
1, 1987665, Note_on_c, 0, 47, 99
1, 1987802, Note_on_c, 0, 79, 99
1, 1987814, Note_on_c, 0, 57, 99
1, 1988064, Note_off_c, 0, 108, 0
1, 1989853, Note_off_c, 0, 113, 0
1, 1993804, Note_off_c, 0, 100, 0
1, 1994006, Note_off_c, 0, 55, 0
1, 1995000, Marker_t, Beat 3 Length: 0:00.625 (1:00.750 - 1:01.375) endTick: 2010000 
1, 1995000, Marker_t, Division 1 Length: 0:00.313 (1:00.750 - 1:01.063) endTick: 2002500 
1, 1995029, Note_on_c, 0, 107, 99
1, 1995049, Note_on_c, 0, 50, 99
1, 1995050, Note_on_c, 0, 31, 99
1, 1995157, Note_on_c, 0, 77, 99
1, 1995288, Note_off_c, 0, 57, 0
1, 1995343, Note_on_c, 0, 59, 99
1, 1997108, Note_off_c, 0, 59, 0
1, 1999195, Note_off_c, 0, 79, 0
1, 1999199, Note_off_c, 0, 107, 0
1, 2002437, Note_off_c, 0, 47, 0
1, 2002500, Marker_t, Division 2 Length: 0:00.313 (1:01.063 - 1:01.375) endTick: 2010000 
1, 2002539, Note_on_c, 0, 91, 99
1, 2002622, Note_on_c, 0, 50, 99
1, 2002815, Note_on_c, 0, 98, 99
1, 2002848, Note_on_c, 0, 108, 99
1, 2005554, Note_off_c, 0, 31, 0
1, 2010000, Marker_t, Beat 4 Length: 0:00.625 (1:01.375 - 1:02.000) endTick: 2025000 
1, 2010000, Marker_t, Division 1 Length: 0:00.125 (1:01.375 - 1:01.500) endTick: 2013000 
1, 2010022, Note_on_c, 0, 57, 99
1, 2010067, Note_on_c, 0, 28, 99
1, 2010125, Note_on_c, 0, 59, 99
1, 2010146, Note_on_c, 0, 108, 99
1, 2011260, Note_off_c, 0, 59, 0
1, 2011726, Note_off_c, 0, 57, 0
1, 2013000, Marker_t, Division 2 Length: 0:00.125 (1:01.500 - 1:01.625) endTick: 2016000 
1, 2013017, Note_on_c, 0, 107, 99
1, 2013059, Note_on_c, 0, 64, 99
1, 2013348, Note_off_c, 0, 108, 0
1, 2016000, Marker_t, Division 3 Length: 0:00.125 (1:01.625 - 1:01.750) endTick: 2019000 
1, 2016020, Note_on_c, 0, 74, 99
1, 2016044, Note_on_c, 0, 24, 99
1, 2016049, Note_on_c, 0, 62, 99
1, 2016640, Note_off_c, 0, 28, 0
1, 2016973, Note_off_c, 0, 64, 0
1, 2017056, Note_off_c, 0, 62, 0
1, 2019000, Marker_t, Division 4 Length: 0:00.125 (1:01.750 - 1:01.875) endTick: 2022000 
1, 2019014, Note_on_c, 0, 108, 99
1, 2019086, Note_on_c, 0, 108, 99
1, 2019104, Note_on_c, 0, 81, 99
1, 2019116, Note_on_c, 0, 59, 99
1, 2019118, Note_on_c, 0, 83, 99
1, 2019125, Note_on_c, 0, 76, 99
1, 2019482, Note_off_c, 0, 59, 0
1, 2019869, Note_off_c, 0, 50, 0
1, 2020010, Note_off_c, 0, 50, 0
1, 2020083, Note_off_c, 0, 108, 0
1, 2020613, Note_off_c, 0, 81, 0
1, 2022000, Marker_t, Division 5 Length: 0:00.125 (1:01.875 - 1:02.000) endTick: 2025000 
1, 2022041, Note_on_c, 0, 98, 99
1, 2022089, Note_on_c, 0, 89, 99
1, 2022128, Note_on_c, 0, 55, 99
1, 2022263, Note_off_c, 0, 62, 0
1, 2022370, Note_off_c, 0, 74, 0
1, 2025000, Marker_t, Beat 5 Length: 0:00.625 (1:02.000 - 1:02.625) endTick: 2040000 
1, 2025000, Marker_t, Division 1 Length: 0:00.104 (1:02.000 - 1:02.104) endTick: 2027500 
1, 2025029, Note_on_c, 0, 107, 99
1, 2025036, Note_on_c, 0, 86, 99
1, 2025056, Note_on_c, 0, 47, 99
1, 2026025, Note_off_c, 0, 107, 0
1, 2026396, Note_off_c, 0, 108, 0
1, 2027500, Marker_t, Division 2 Length: 0:00.104 (1:02.104 - 1:02.208) endTick: 2030000 
1, 2027526, Note_on_c, 0, 96, 99
1, 2027561, Note_on_c, 0, 55, 99
1, 2027567, Note_on_c, 0, 48, 99
1, 2027625, Note_on_c, 0, 29, 99
1, 2027663, Note_off_c, 0, 107, 0
1, 2028064, Note_off_c, 0, 47, 0
1, 2028258, Note_off_c, 0, 24, 0
1, 2028632, Note_off_c, 0, 48, 0
1, 2029364, Note_off_c, 0, 86, 0
1, 2029953, Note_off_c, 0, 98, 0
1, 2030000, Marker_t, Division 3 Length: 0:00.104 (1:02.208 - 1:02.313) endTick: 2032500 
1, 2030000, Note_on_c, 0, 24, 99
1, 2030043, Note_on_c, 0, 100, 99
1, 2030141, Note_off_c, 0, 76, 0
1, 2030602, Note_off_c, 0, 24, 0
1, 2030905, Note_off_c, 0, 108, 0
1, 2031312, Note_off_c, 0, 96, 0
1, 2031421, Note_off_c, 0, 77, 0
1, 2031671, Note_off_c, 0, 89, 0
1, 2032500, Marker_t, Division 4 Length: 0:00.104 (1:02.313 - 1:02.417) endTick: 2035000 
1, 2032504, Note_on_c, 0, 119, 99
1, 2032508, Note_on_c, 0, 55, 99
1, 2032552, Note_on_c, 0, 59, 99
1, 2032600, Note_on_c, 0, 77, 99
1, 2032918, Note_off_c, 0, 83, 0
1, 2033601, Note_off_c, 0, 98, 0
1, 2033724, Note_off_c, 0, 55, 0
1, 2034035, Note_off_c, 0, 77, 0
1, 2034768, Note_off_c, 0, 55, 0
1, 2035000, Marker_t, Division 5 Length: 0:00.104 (1:02.417 - 1:02.521) endTick: 2037500 
1, 2035000, Note_on_c, 0, 31, 99
1, 2035001, Note_on_c, 0, 71, 99
1, 2035028, Note_on_c, 0, 77, 99
1, 2035085, Note_on_c, 0, 65, 99
1, 2035109, Note_on_c, 0, 115, 99
1, 2036275, Note_off_c, 0, 55, 0
1, 2036586, Note_off_c, 0, 77, 0
1, 2037500, Marker_t, Division 6 Length: 0:00.104 (1:02.521 - 1:02.625) endTick: 2040000 
1, 2037573, Note_on_c, 0, 31, 99
1, 2037586, Note_off_c, 0, 59, 0
1, 2037609, Note_on_c, 0, 110, 99
1, 2037688, Note_off_c, 0, 115, 0
1, 2038419, Note_off_c, 0, 100, 0
1, 2038480, Note_off_c, 0, 71, 0
1, 2038495, Note_off_c, 0, 29, 0
1, 2038501, Note_off_c, 0, 91, 0
1, 2038991, Note_off_c, 0, 119, 0
1, 2040000, Marker_t, Beat 6 Length: 0:00.625 (1:02.625 - 1:03.250) endTick: 2055000 
1, 2040000, Marker_t, Division 1 Length: 0:00.208 (1:02.625 - 1:02.833) endTick: 2045000 
1, 2040128, Note_on_c, 0, 71, 99
1, 2042041, Note_off_c, 0, 31, 0
1, 2043076, Note_off_c, 0, 110, 0
1, 2043136, Note_off_c, 0, 65, 0
1, 2045000, Marker_t, Division 2 Length: 0:00.208 (1:02.833 - 1:03.042) endTick: 2050000 
1, 2045028, Note_on_c, 0, 53, 99
1, 2045157, Note_on_c, 0, 119, 99
1, 2045158, Note_on_c, 0, 83, 99
1, 2046362, Note_off_c, 0, 31, 0
1, 2046731, Note_off_c, 0, 119, 0
1, 2050000, Marker_t, Division 3 Length: 0:00.208 (1:03.042 - 1:03.250) endTick: 2055000 
1, 2050016, Note_on_c, 0, 119, 99
1, 2050143, Note_on_c, 0, 38, 99
1, 2050144, Note_on_c, 0, 31, 99
1, 2050208, Note_on_c, 0, 24, 99
1, 2050249, Note_on_c, 0, 67, 99
1, 2053329, Note_off_c, 0, 67, 0
1, 2055000, Marker_t, Beat 7 Length: 0:00.625 (1:03.250 - 1:03.875) endTick: 2070000 
1, 2055000, Marker_t, Division 1 Length: 0:00.078 (1:03.250 - 1:03.328) endTick: 2056875 
1, 2055002, Note_on_c, 0, 76, 99
1, 2055041, Note_on_c, 0, 110, 99
1, 2055082, Note_on_c, 0, 119, 99
1, 2055087, Note_on_c, 0, 105, 99
1, 2056538, Note_off_c, 0, 76, 0
1, 2056875, Marker_t, Division 2 Length: 0:00.078 (1:03.328 - 1:03.406) endTick: 2058750 
1, 2056894, Note_on_c, 0, 103, 99
1, 2056894, Note_on_c, 0, 113, 99
1, 2056906, Note_on_c, 0, 26, 99
1, 2056911, Note_on_c, 0, 101, 99
1, 2056913, Note_on_c, 0, 24, 99
1, 2057198, Note_off_c, 0, 101, 0
1, 2057540, Note_off_c, 0, 24, 0
1, 2057636, Note_off_c, 0, 110, 0
1, 2058173, Note_off_c, 0, 53, 0
1, 2058387, Note_off_c, 0, 24, 0
1, 2058750, Marker_t, Division 3 Length: 0:00.078 (1:03.406 - 1:03.484) endTick: 2060625 
1, 2058785, Note_on_c, 0, 31, 99
1, 2058787, Note_on_c, 0, 60, 99
1, 2059023, Note_off_c, 0, 26, 0
1, 2060530, Note_off_c, 0, 105, 0
1, 2060625, Marker_t, Division 4 Length: 0:00.078 (1:03.484 - 1:03.563) endTick: 2062500 
1, 2060639, Note_on_c, 0, 64, 99
1, 2061061, Note_off_c, 0, 64, 0
1, 2061248, Note_off_c, 0, 119, 0
1, 2061284, Note_off_c, 0, 119, 0
1, 2061429, Note_off_c, 0, 71, 0
1, 2062158, Note_off_c, 0, 113, 0
1, 2062500, Marker_t, Division 5 Length: 0:00.078 (1:03.563 - 1:03.641) endTick: 2064375 
1, 2062553, Note_on_c, 0, 41, 99
1, 2064255, Note_off_c, 0, 103, 0
1, 2064375, Marker_t, Division 6 Length: 0:00.078 (1:03.641 - 1:03.719) endTick: 2066250 
1, 2064385, Note_on_c, 0, 115, 99
1, 2064397, Note_on_c, 0, 100, 99
1, 2064861, Note_off_c, 0, 41, 0
1, 2065460, Note_off_c, 0, 100, 0
1, 2065638, Note_off_c, 0, 60, 0
1, 2066250, Marker_t, Division 7 Length: 0:00.078 (1:03.719 - 1:03.797) endTick: 2068125 
1, 2066258, Note_on_c, 0, 101, 99
1, 2066261, Note_on_c, 0, 55, 99
1, 2066314, Note_on_c, 0, 103, 99
1, 2066863, Note_off_c, 0, 101, 0
1, 2067720, Note_off_c, 0, 31, 0
1, 2067799, Note_off_c, 0, 103, 0
1, 2067987, Note_off_c, 0, 55, 0
1, 2068125, Marker_t, Division 8 Length: 0:00.078 (1:03.797 - 1:03.875) endTick: 2070000 
1, 2068152, Note_on_c, 0, 96, 99
1, 2068157, Note_on_c, 0, 89, 99
1, 2068163, Note_on_c, 0, 83, 99
1, 2068995, Note_off_c, 0, 83, 0
1, 2070000, Marker_t, Beat 8 Length: 0:00.625 (1:03.875 - 1:04.500) endTick: 2085000 
1, 2070000, Marker_t, Division 1 Length: 0:00.125 (1:03.875 - 1:04.000) endTick: 2073000 
1, 2070008, Note_on_c, 0, 95, 99
1, 2070040, Note_on_c, 0, 55, 99
1, 2070084, Note_on_c, 0, 67, 99
1, 2070772, Note_off_c, 0, 83, 0
1, 2072162, Note_off_c, 0, 31, 0
1, 2072684, Note_off_c, 0, 115, 0
1, 2073000, Marker_t, Division 2 Length: 0:00.125 (1:04.000 - 1:04.125) endTick: 2076000 
1, 2073032, Note_on_c, 0, 53, 99
1, 2074211, Note_off_c, 0, 38, 0
1, 2074867, Note_off_c, 0, 96, 0
1, 2076000, Marker_t, Division 3 Length: 0:00.125 (1:04.125 - 1:04.250) endTick: 2079000 
1, 2076051, Note_on_c, 0, 59, 99
1, 2076060, Note_on_c, 0, 71, 99
1, 2076107, Note_on_c, 0, 86, 99
1, 2076122, Note_off_c, 0, 89, 0
1, 2076139, Note_on_c, 0, 103, 99
1, 2079000, Marker_t, Division 4 Length: 0:00.125 (1:04.250 - 1:04.375) endTick: 2082000 
1, 2079025, Note_on_c, 0, 48, 99
1, 2079032, Note_on_c, 0, 103, 99
1, 2079096, Note_on_c, 0, 31, 99
1, 2079578, Note_off_c, 0, 48, 0
1, 2080479, Note_off_c, 0, 95, 0
1, 2082000, Marker_t, Division 5 Length: 0:00.125 (1:04.375 - 1:04.500) endTick: 2085000 
1, 2082076, Note_on_c, 0, 76, 99
1, 2082077, Note_on_c, 0, 43, 99
1, 2082100, Note_on_c, 0, 40, 99
1, 2082113, Note_on_c, 0, 81, 99
1, 2082687, Note_off_c, 0, 71, 0
1, 2082906, Note_off_c, 0, 67, 0
1, 2083126, Note_off_c, 0, 43, 0
1, 2083946, Note_off_c, 0, 53, 0
1, 2084927, Note_off_c, 0, 55, 0
1, 2085000, Time_signature, 5, 4, 24, 8
1, 2085000, Tempo, 687500
1, 2085000, Marker_t, Measure 14 Length: 0:00.859 (1:04.500 - 1:05.359) endTick: 2122500 Original Meter: 5/11 Spoofed Meter: 5/16
1, 2085000, Marker_t, Beat 1 Length: 0:00.172 (1:04.500 - 1:04.672) endTick: 2092500 
1, 2085000, Marker_t, Division 1 Length: 0:00.019 (1:04.500 - 1:04.519) endTick: 2085833 
1, 2085009, Note_on_c, 0, 52, 99
1, 2085023, Note_on_c, 0, 98, 99
1, 2085026, Note_on_c, 0, 28, 99
1, 2085031, Note_on_c, 0, 53, 99
1, 2085039, Note_on_c, 0, 76, 99
1, 2085833, Marker_t, Division 2 Length: 0:00.019 (1:04.519 - 1:04.538) endTick: 2086667 
1, 2085839, Note_on_c, 0, 28, 99
1, 2085858, Note_on_c, 0, 101, 99
1, 2085860, Note_on_c, 0, 95, 99
1, 2085868, Note_on_c, 0, 31, 99
1, 2085871, Note_on_c, 0, 45, 99
1, 2086001, Note_off_c, 0, 31, 0
1, 2086104, Note_off_c, 0, 101, 0
1, 2086126, Note_off_c, 0, 103, 0
1, 2086500, Note_off_c, 0, 59, 0
1, 2086667, Marker_t, Division 3 Length: 0:00.019 (1:04.538 - 1:04.557) endTick: 2087500 
1, 2086690, Note_on_c, 0, 43, 99
1, 2086704, Note_on_c, 0, 60, 99
1, 2086706, Note_on_c, 0, 28, 99
1, 2087169, Note_off_c, 0, 103, 0
1, 2087500, Marker_t, Division 4 Length: 0:00.019 (1:04.557 - 1:04.576) endTick: 2088333 
1, 2087513, Note_on_c, 0, 45, 99
1, 2087533, Note_on_c, 0, 98, 99
1, 2087542, Note_off_c, 0, 31, 0
1, 2087877, Note_off_c, 0, 52, 0
1, 2087936, Note_off_c, 0, 53, 0
1, 2088057, Note_off_c, 0, 45, 0
1, 2088227, Note_off_c, 0, 40, 0
1, 2088253, Note_off_c, 0, 60, 0
1, 2088278, Note_off_c, 0, 76, 0
1, 2088333, Marker_t, Division 5 Length: 0:00.019 (1:04.576 - 1:04.595) endTick: 2089167 
1, 2088369, Note_on_c, 0, 96, 99
1, 2088432, Note_off_c, 0, 28, 0
1, 2088477, Note_off_c, 0, 98, 0
1, 2089014, Note_off_c, 0, 28, 0
1, 2089119, Note_off_c, 0, 81, 0
1, 2089167, Marker_t, Division 6 Length: 0:00.019 (1:04.595 - 1:04.615) endTick: 2090000 
1, 2089172, Note_on_c, 0, 62, 99
1, 2089189, Note_on_c, 0, 119, 99
1, 2089366, Note_off_c, 0, 98, 0
1, 2089439, Note_off_c, 0, 28, 0
1, 2089526, Note_off_c, 0, 95, 0
1, 2090000, Marker_t, Division 7 Length: 0:00.019 (1:04.615 - 1:04.634) endTick: 2090833 
1, 2090018, Note_on_c, 0, 98, 99
1, 2090021, Note_on_c, 0, 86, 99
1, 2090023, Note_on_c, 0, 67, 99
1, 2090031, Note_on_c, 0, 79, 99
1, 2090036, Note_on_c, 0, 91, 99
1, 2090131, Note_off_c, 0, 79, 0
1, 2090202, Note_off_c, 0, 43, 0
1, 2090245, Note_off_c, 0, 96, 0
1, 2090686, Note_off_c, 0, 86, 0
1, 2090833, Marker_t, Division 8 Length: 0:00.019 (1:04.634 - 1:04.653) endTick: 2091667 
1, 2090849, Note_on_c, 0, 43, 99
1, 2090926, Note_off_c, 0, 67, 0
1, 2090956, Note_off_c, 0, 45, 0
1, 2091005, Note_off_c, 0, 119, 0
1, 2091297, Note_off_c, 0, 62, 0
1, 2091517, Note_off_c, 0, 86, 0
1, 2091667, Marker_t, Division 9 Length: 0:00.019 (1:04.653 - 1:04.672) endTick: 2092500 
1, 2091673, Note_on_c, 0, 105, 99
1, 2091692, Note_on_c, 0, 64, 99
1, 2091774, Note_off_c, 0, 91, 0
1, 2092500, Marker_t, Beat 2 Length: 0:00.172 (1:04.672 - 1:04.844) endTick: 2100000 
1, 2092500, Marker_t, Division 1 Length: 0:00.043 (1:04.672 - 1:04.715) endTick: 2094375 
1, 2092502, Note_on_c, 0, 55, 99
1, 2092517, Note_on_c, 0, 86, 99
1, 2092519, Note_on_c, 0, 88, 99
1, 2092535, Note_on_c, 0, 79, 99
1, 2092588, Note_on_c, 0, 40, 99
1, 2093191, Note_off_c, 0, 98, 0
1, 2093722, Note_off_c, 0, 105, 0
1, 2094375, Marker_t, Division 2 Length: 0:00.043 (1:04.715 - 1:04.758) endTick: 2096250 
1, 2094399, Note_on_c, 0, 79, 99
1, 2094414, Note_on_c, 0, 41, 99
1, 2094438, Note_on_c, 0, 28, 99
1, 2094439, Note_on_c, 0, 115, 99
1, 2094518, Note_off_c, 0, 43, 0
1, 2095075, Note_off_c, 0, 28, 0
1, 2095585, Note_off_c, 0, 64, 0
1, 2096250, Marker_t, Division 3 Length: 0:00.043 (1:04.758 - 1:04.801) endTick: 2098125 
1, 2096274, Note_on_c, 0, 24, 99
1, 2096292, Note_on_c, 0, 89, 99
1, 2096304, Note_on_c, 0, 55, 99
1, 2096320, Note_on_c, 0, 100, 99
1, 2096321, Note_on_c, 0, 91, 99
1, 2096975, Note_off_c, 0, 76, 0
1, 2097203, Note_off_c, 0, 40, 0
1, 2097243, Note_off_c, 0, 86, 0
1, 2097663, Note_off_c, 0, 79, 0
1, 2098125, Marker_t, Division 4 Length: 0:00.043 (1:04.801 - 1:04.844) endTick: 2100000 
1, 2098131, Note_off_c, 0, 89, 0
1, 2098217, Note_on_c, 0, 84, 99
1, 2098486, Note_off_c, 0, 84, 0
1, 2099356, Note_off_c, 0, 55, 0
1, 2099795, Note_off_c, 0, 88, 0
1, 2100000, Marker_t, Beat 3 Length: 0:00.172 (1:04.844 - 1:05.016) endTick: 2107500 
1, 2100000, Marker_t, Division 1 Length: 0:00.025 (1:04.844 - 1:04.868) endTick: 2101071 
1, 2100015, Note_on_c, 0, 81, 99
1, 2100023, Note_on_c, 0, 67, 99
1, 2100030, Note_on_c, 0, 76, 99
1, 2100053, Note_on_c, 0, 79, 99
1, 2100639, Note_off_c, 0, 79, 0
1, 2100903, Note_off_c, 0, 79, 0
1, 2101071, Marker_t, Division 2 Length: 0:00.025 (1:04.868 - 1:04.893) endTick: 2102143 
1, 2101105, Note_on_c, 0, 24, 99
1, 2101115, Note_on_c, 0, 59, 99
1, 2101117, Note_on_c, 0, 69, 99
1, 2101269, Note_off_c, 0, 59, 0
1, 2101651, Note_off_c, 0, 55, 0
1, 2101761, Note_off_c, 0, 24, 0
1, 2101881, Note_off_c, 0, 115, 0
1, 2102143, Marker_t, Division 3 Length: 0:00.025 (1:04.893 - 1:04.917) endTick: 2103214 
1, 2102155, Note_on_c, 0, 69, 99
1, 2102161, Note_on_c, 0, 64, 99
1, 2102173, Note_on_c, 0, 98, 99
1, 2102559, Note_off_c, 0, 69, 0
1, 2102809, Note_off_c, 0, 81, 0
1, 2102975, Note_off_c, 0, 41, 0
1, 2103164, Note_off_c, 0, 76, 0
1, 2103214, Marker_t, Division 4 Length: 0:00.025 (1:04.917 - 1:04.942) endTick: 2104286 
1, 2103248, Note_on_c, 0, 103, 99
1, 2103254, Note_on_c, 0, 60, 99
1, 2103659, Note_off_c, 0, 91, 0
1, 2104286, Marker_t, Division 5 Length: 0:00.025 (1:04.942 - 1:04.967) endTick: 2105357 
1, 2104298, Note_on_c, 0, 65, 99
1, 2104312, Note_on_c, 0, 26, 99
1, 2104322, Note_on_c, 0, 59, 99
1, 2104343, Note_off_c, 0, 100, 0
1, 2104448, Note_off_c, 0, 64, 0
1, 2104834, Note_off_c, 0, 60, 0
1, 2104883, Note_off_c, 0, 24, 0
1, 2105081, Note_off_c, 0, 67, 0
1, 2105357, Marker_t, Division 6 Length: 0:00.025 (1:04.967 - 1:04.991) endTick: 2106429 
1, 2105358, Note_on_c, 0, 88, 99
1, 2105361, Note_on_c, 0, 100, 99
1, 2105368, Note_on_c, 0, 79, 99
1, 2105370, Note_on_c, 0, 41, 99
1, 2105511, Note_off_c, 0, 69, 0
1, 2105748, Note_off_c, 0, 65, 0
1, 2105897, Note_off_c, 0, 79, 0
1, 2105919, Note_off_c, 0, 59, 0
1, 2106238, Note_off_c, 0, 41, 0
1, 2106321, Note_off_c, 0, 103, 0
1, 2106429, Marker_t, Division 7 Length: 0:00.025 (1:04.991 - 1:05.016) endTick: 2107500 
1, 2106450, Note_on_c, 0, 24, 99
1, 2106669, Note_off_c, 0, 98, 0
1, 2107500, Marker_t, Beat 4 Length: 0:00.172 (1:05.016 - 1:05.188) endTick: 2115000 
1, 2107500, Marker_t, Division 1 Length: 0:00.025 (1:05.016 - 1:05.040) endTick: 2108571 
1, 2107514, Note_on_c, 0, 93, 99
1, 2108208, Note_off_c, 0, 26, 0
1, 2108446, Note_off_c, 0, 100, 0
1, 2108549, Note_off_c, 0, 88, 0
1, 2108571, Marker_t, Division 2 Length: 0:00.025 (1:05.040 - 1:05.065) endTick: 2109643 
1, 2108572, Note_on_c, 0, 55, 99
1, 2108586, Note_on_c, 0, 103, 99
1, 2109643, Marker_t, Division 3 Length: 0:00.025 (1:05.065 - 1:05.089) endTick: 2110714 
1, 2109693, Note_on_c, 0, 119, 99
1, 2109868, Note_off_c, 0, 103, 0
1, 2110714, Marker_t, Division 4 Length: 0:00.025 (1:05.089 - 1:05.114) endTick: 2111786 
1, 2110757, Note_on_c, 0, 45, 99
1, 2111219, Note_off_c, 0, 24, 0
1, 2111709, Note_off_c, 0, 93, 0
1, 2111786, Marker_t, Division 5 Length: 0:00.025 (1:05.114 - 1:05.138) endTick: 2112857 
1, 2111794, Note_on_c, 0, 60, 99
1, 2111819, Note_on_c, 0, 98, 99
1, 2111822, Note_on_c, 0, 31, 99
1, 2111825, Note_on_c, 0, 117, 99
1, 2111836, Note_on_c, 0, 107, 99
1, 2112498, Note_off_c, 0, 119, 0
1, 2112857, Marker_t, Division 6 Length: 0:00.025 (1:05.138 - 1:05.163) endTick: 2113929 
1, 2112864, Note_on_c, 0, 96, 99
1, 2112877, Note_on_c, 0, 98, 99
1, 2112877, Note_on_c, 0, 59, 99
1, 2112886, Note_on_c, 0, 119, 99
1, 2112887, Note_on_c, 0, 98, 99
1, 2113259, Note_off_c, 0, 55, 0
1, 2113559, Note_off_c, 0, 59, 0
1, 2113567, Note_off_c, 0, 119, 0
1, 2113830, Note_off_c, 0, 107, 0
1, 2113873, Note_off_c, 0, 31, 0
1, 2113929, Marker_t, Division 7 Length: 0:00.025 (1:05.163 - 1:05.188) endTick: 2115000 
1, 2113934, Note_on_c, 0, 107, 99
1, 2113953, Note_on_c, 0, 119, 99
1, 2113976, Note_on_c, 0, 26, 99
1, 2114583, Note_off_c, 0, 98, 0
1, 2114674, Note_off_c, 0, 96, 0
1, 2114750, Note_off_c, 0, 45, 0
1, 2115000, Marker_t, Beat 5 Length: 0:00.172 (1:05.188 - 1:05.359) endTick: 2122500 
1, 2115000, Marker_t, Division 1 Length: 0:00.057 (1:05.188 - 1:05.245) endTick: 2117500 
1, 2115108, Note_on_c, 0, 67, 99
1, 2115196, Note_off_c, 0, 98, 0
1, 2116167, Note_off_c, 0, 117, 0
1, 2116719, Note_off_c, 0, 67, 0
1, 2116784, Note_off_c, 0, 60, 0
1, 2116960, Note_off_c, 0, 107, 0
1, 2117014, Note_off_c, 0, 119, 0
1, 2117415, Note_off_c, 0, 98, 0
1, 2117500, Marker_t, Division 2 Length: 0:00.057 (1:05.245 - 1:05.302) endTick: 2120000 
1, 2117580, Note_on_c, 0, 95, 99
1, 2119062, Note_off_c, 0, 26, 0
1, 2120000, Marker_t, Division 3 Length: 0:00.057 (1:05.302 - 1:05.359) endTick: 2122500 
1, 2120059, Note_on_c, 0, 93, 99
1, 2120502, Note_off_c, 0, 93, 0
1, 2122500, Time_signature, 5, 3, 24, 8
1, 2122500, Tempo, 1125000
1, 2122500, Marker_t, Measure 15 Length: 0:02.813 (1:05.359 - 1:08.172) endTick: 2197500 Original Meter: 5/9 Spoofed Meter: 5/8
1, 2122500, Marker_t, Beat 1 Length: 0:00.563 (1:05.359 - 1:05.922) endTick: 2137500 
1, 2122500, Marker_t, Division 1 Length: 0:00.112 (1:05.359 - 1:05.472) endTick: 2125500 
1, 2122501, Note_on_c, 0, 38, 99
1, 2122513, Note_on_c, 0, 83, 99
1, 2122518, Note_on_c, 0, 78, 99
1, 2122588, Note_on_c, 0, 30, 99
1, 2122612, Note_on_c, 0, 90, 99
1, 2124919, Note_off_c, 0, 95, 0
1, 2125500, Marker_t, Division 2 Length: 0:00.112 (1:05.472 - 1:05.584) endTick: 2128500 
1, 2125608, Note_on_c, 0, 71, 99
1, 2128500, Marker_t, Division 3 Length: 0:00.112 (1:05.584 - 1:05.697) endTick: 2131500 
1, 2128508, Note_on_c, 0, 59, 99
1, 2130385, Note_off_c, 0, 59, 0
1, 2130510, Note_off_c, 0, 30, 0
1, 2131500, Marker_t, Division 4 Length: 0:00.112 (1:05.697 - 1:05.809) endTick: 2134500 
1, 2131517, Note_on_c, 0, 71, 99
1, 2131577, Note_on_c, 0, 85, 99
1, 2131617, Note_on_c, 0, 119, 99
1, 2132335, Note_off_c, 0, 71, 0
1, 2133051, Note_off_c, 0, 78, 0
1, 2133633, Note_off_c, 0, 38, 0
1, 2134220, Note_off_c, 0, 90, 0
1, 2134500, Marker_t, Division 5 Length: 0:00.112 (1:05.809 - 1:05.922) endTick: 2137500 
1, 2134504, Note_off_c, 0, 119, 0
1, 2134526, Note_on_c, 0, 114, 99
1, 2134634, Note_on_c, 0, 110, 99
1, 2135941, Note_off_c, 0, 83, 0
1, 2137500, Marker_t, Beat 2 Length: 0:00.563 (1:05.922 - 1:06.484) endTick: 2152500 
1, 2137500, Marker_t, Division 1 Length: 0:00.112 (1:05.922 - 1:06.034) endTick: 2140500 
1, 2137561, Note_on_c, 0, 30, 99
1, 2137588, Note_on_c, 0, 66, 99
1, 2137602, Note_on_c, 0, 71, 99
1, 2137615, Note_on_c, 0, 90, 99
1, 2137630, Note_on_c, 0, 85, 99
1, 2139011, Note_off_c, 0, 71, 0
1, 2140500, Marker_t, Division 2 Length: 0:00.112 (1:06.034 - 1:06.147) endTick: 2143500 
1, 2140525, Note_on_c, 0, 37, 99
1, 2140547, Note_on_c, 0, 26, 99
1, 2140554, Note_on_c, 0, 42, 99
1, 2140625, Note_off_c, 0, 90, 0
1, 2140627, Note_on_c, 0, 26, 99
1, 2142081, Note_off_c, 0, 26, 0
1, 2143500, Marker_t, Division 3 Length: 0:00.112 (1:06.147 - 1:06.259) endTick: 2146500 
1, 2143570, Note_on_c, 0, 47, 99
1, 2143572, Note_on_c, 0, 61, 99
1, 2143872, Note_off_c, 0, 85, 0
1, 2144441, Note_off_c, 0, 110, 0
1, 2144577, Note_off_c, 0, 114, 0
1, 2144767, Note_off_c, 0, 37, 0
1, 2144993, Note_off_c, 0, 85, 0
1, 2146500, Marker_t, Division 4 Length: 0:00.112 (1:06.259 - 1:06.372) endTick: 2149500 
1, 2146562, Note_on_c, 0, 47, 99
1, 2146563, Note_on_c, 0, 37, 99
1, 2146601, Note_on_c, 0, 61, 99
1, 2146641, Note_on_c, 0, 119, 99
1, 2146706, Note_off_c, 0, 30, 0
1, 2147452, Note_off_c, 0, 119, 0
1, 2147966, Note_off_c, 0, 26, 0
1, 2148208, Note_off_c, 0, 42, 0
1, 2148218, Note_off_c, 0, 71, 0
1, 2149500, Marker_t, Division 5 Length: 0:00.112 (1:06.372 - 1:06.484) endTick: 2152500 
1, 2149504, Note_on_c, 0, 116, 99
1, 2149538, Note_on_c, 0, 73, 99
1, 2149559, Note_on_c, 0, 71, 99
1, 2149636, Note_on_c, 0, 98, 99
1, 2150064, Note_off_c, 0, 47, 0
1, 2150121, Note_off_c, 0, 66, 0
1, 2151716, Note_off_c, 0, 47, 0
1, 2152500, Marker_t, Beat 3 Length: 0:00.563 (1:06.484 - 1:07.047) endTick: 2167500 
1, 2152500, Marker_t, Division 1 Length: 0:00.188 (1:06.484 - 1:06.672) endTick: 2157500 
1, 2152526, Note_on_c, 0, 74, 99
1, 2152590, Note_on_c, 0, 47, 99
1, 2152628, Note_on_c, 0, 107, 99
1, 2152642, Note_on_c, 0, 97, 99
1, 2152654, Note_off_c, 0, 37, 0
1, 2152701, Note_on_c, 0, 37, 99
1, 2152717, Note_on_c, 0, 37, 99
1, 2155517, Note_off_c, 0, 116, 0
1, 2156307, Note_off_c, 0, 61, 0
1, 2157500, Marker_t, Division 2 Length: 0:00.188 (1:06.672 - 1:06.859) endTick: 2162500 
1, 2157644, Note_on_c, 0, 78, 99
1, 2157668, Note_on_c, 0, 92, 99
1, 2157748, Note_on_c, 0, 56, 99
1, 2158139, Note_off_c, 0, 47, 0
1, 2159510, Note_off_c, 0, 98, 0
1, 2159718, Note_off_c, 0, 37, 0
1, 2159763, Note_off_c, 0, 37, 0
1, 2160569, Note_off_c, 0, 71, 0
1, 2160641, Note_off_c, 0, 56, 0
1, 2161204, Note_off_c, 0, 61, 0
1, 2161521, Note_off_c, 0, 78, 0
1, 2162500, Marker_t, Division 3 Length: 0:00.188 (1:06.859 - 1:07.047) endTick: 2167500 
1, 2162503, Note_on_c, 0, 44, 99
1, 2162517, Note_on_c, 0, 102, 99
1, 2162535, Note_on_c, 0, 107, 99
1, 2162557, Note_on_c, 0, 74, 99
1, 2162560, Note_off_c, 0, 73, 0
1, 2162624, Note_on_c, 0, 30, 99
1, 2162731, Note_on_c, 0, 102, 99
1, 2163235, Note_off_c, 0, 74, 0
1, 2165135, Note_off_c, 0, 97, 0
1, 2165386, Note_off_c, 0, 74, 0
1, 2166933, Note_off_c, 0, 107, 0
1, 2167500, Marker_t, Beat 4 Length: 0:00.563 (1:07.047 - 1:07.609) endTick: 2182500 
1, 2167500, Marker_t, Division 1 Length: 0:00.094 (1:07.047 - 1:07.141) endTick: 2170000 
1, 2167543, Note_on_c, 0, 25, 99
1, 2167590, Note_on_c, 0, 116, 99
1, 2170000, Marker_t, Division 2 Length: 0:00.094 (1:07.141 - 1:07.234) endTick: 2172500 
1, 2170079, Note_on_c, 0, 68, 99
1, 2170098, Note_off_c, 0, 102, 0
1, 2172368, Note_off_c, 0, 68, 0
1, 2172500, Marker_t, Division 3 Length: 0:00.094 (1:07.234 - 1:07.328) endTick: 2175000 
1, 2172593, Note_on_c, 0, 107, 99
1, 2172814, Note_off_c, 0, 107, 0
1, 2174764, Note_off_c, 0, 92, 0
1, 2175000, Marker_t, Division 4 Length: 0:00.094 (1:07.328 - 1:07.422) endTick: 2177500 
1, 2175022, Note_on_c, 0, 30, 99
1, 2175044, Note_on_c, 0, 110, 99
1, 2175069, Note_on_c, 0, 37, 99
1, 2175088, Note_on_c, 0, 44, 99
1, 2175101, Note_on_c, 0, 66, 99
1, 2175705, Note_off_c, 0, 66, 0
1, 2175738, Note_off_c, 0, 110, 0
1, 2175806, Note_off_c, 0, 44, 0
1, 2176039, Note_off_c, 0, 25, 0
1, 2177500, Marker_t, Division 5 Length: 0:00.094 (1:07.422 - 1:07.516) endTick: 2180000 
1, 2177519, Note_on_c, 0, 38, 99
1, 2177871, Note_off_c, 0, 116, 0
1, 2179043, Note_off_c, 0, 102, 0
1, 2179094, Note_off_c, 0, 107, 0
1, 2179402, Note_off_c, 0, 30, 0
1, 2180000, Marker_t, Division 6 Length: 0:00.094 (1:07.516 - 1:07.609) endTick: 2182500 
1, 2180014, Note_on_c, 0, 74, 99
1, 2180042, Note_on_c, 0, 35, 99
1, 2180044, Note_on_c, 0, 109, 99
1, 2180050, Note_on_c, 0, 47, 99
1, 2180213, Note_off_c, 0, 30, 0
1, 2182500, Marker_t, Beat 5 Length: 0:00.563 (1:07.609 - 1:08.172) endTick: 2197500 
1, 2182500, Marker_t, Division 1 Length: 0:00.056 (1:07.609 - 1:07.666) endTick: 2184000 
1, 2182500, Note_on_c, 0, 56, 99
1, 2182538, Note_on_c, 0, 83, 99
1, 2182538, Note_on_c, 0, 66, 99
1, 2182559, Note_on_c, 0, 42, 99
1, 2182685, Note_off_c, 0, 44, 0
1, 2183454, Note_off_c, 0, 83, 0
1, 2184000, Marker_t, Division 2 Length: 0:00.056 (1:07.666 - 1:07.722) endTick: 2185500 
1, 2184013, Note_on_c, 0, 68, 99
1, 2184036, Note_on_c, 0, 85, 99
1, 2184066, Note_on_c, 0, 61, 99
1, 2184341, Note_off_c, 0, 38, 0
1, 2184785, Note_off_c, 0, 66, 0
1, 2185500, Marker_t, Division 3 Length: 0:00.056 (1:07.722 - 1:07.778) endTick: 2187000 
1, 2185549, Note_on_c, 0, 114, 99
1, 2185562, Note_on_c, 0, 38, 99
1, 2185568, Note_on_c, 0, 30, 99
1, 2186257, Note_off_c, 0, 37, 0
1, 2186497, Note_off_c, 0, 56, 0
1, 2187000, Marker_t, Division 4 Length: 0:00.056 (1:07.778 - 1:07.834) endTick: 2188500 
1, 2187008, Note_on_c, 0, 30, 99
1, 2187012, Note_on_c, 0, 56, 99
1, 2187039, Note_on_c, 0, 102, 99
1, 2187061, Note_on_c, 0, 78, 99
1, 2187072, Note_on_c, 0, 97, 99
1, 2187326, Note_off_c, 0, 85, 0
1, 2187451, Note_off_c, 0, 61, 0
1, 2187552, Note_off_c, 0, 47, 0
1, 2187819, Note_off_c, 0, 102, 0
1, 2188500, Marker_t, Division 5 Length: 0:00.056 (1:07.834 - 1:07.891) endTick: 2190000 
1, 2188503, Note_on_c, 0, 83, 99
1, 2188867, Note_off_c, 0, 114, 0
1, 2188900, Note_off_c, 0, 74, 0
1, 2189423, Note_off_c, 0, 78, 0
1, 2189493, Note_off_c, 0, 97, 0
1, 2189561, Note_off_c, 0, 83, 0
1, 2189690, Note_off_c, 0, 42, 0
1, 2190000, Marker_t, Division 6 Length: 0:00.056 (1:07.891 - 1:07.947) endTick: 2191500 
1, 2190035, Note_on_c, 0, 61, 99
1, 2190048, Note_on_c, 0, 30, 99
1, 2190063, Note_on_c, 0, 119, 99
1, 2190103, Note_off_c, 0, 68, 0
1, 2190265, Note_off_c, 0, 119, 0
1, 2190313, Note_off_c, 0, 61, 0
1, 2190776, Note_off_c, 0, 109, 0
1, 2190940, Note_off_c, 0, 35, 0
1, 2191184, Note_off_c, 0, 56, 0
1, 2191500, Marker_t, Division 7 Length: 0:00.056 (1:07.947 - 1:08.003) endTick: 2193000 
1, 2191503, Note_on_c, 0, 30, 99
1, 2191510, Note_on_c, 0, 71, 99
1, 2191518, Note_on_c, 0, 38, 99
1, 2191518, Note_on_c, 0, 68, 99
1, 2192909, Note_off_c, 0, 38, 0
1, 2192940, Note_off_c, 0, 30, 0
1, 2193000, Marker_t, Division 8 Length: 0:00.056 (1:08.003 - 1:08.059) endTick: 2194500 
1, 2193020, Note_on_c, 0, 59, 99
1, 2193066, Note_on_c, 0, 90, 99
1, 2193070, Note_on_c, 0, 61, 99
1, 2193247, Note_off_c, 0, 38, 0
1, 2193540, Note_off_c, 0, 61, 0
1, 2193758, Note_off_c, 0, 71, 0
1, 2193806, Note_off_c, 0, 30, 0
1, 2194500, Marker_t, Division 9 Length: 0:00.056 (1:08.059 - 1:08.116) endTick: 2196000 
1, 2194504, Note_on_c, 0, 110, 99
1, 2194507, Note_on_c, 0, 95, 99
1, 2194531, Note_on_c, 0, 71, 99
1, 2194545, Note_on_c, 0, 32, 99
1, 2194546, Note_on_c, 0, 102, 99
1, 2194984, Note_off_c, 0, 30, 0
1, 2195323, Note_off_c, 0, 102, 0
1, 2196000, Marker_t, Division 10 Length: 0:00.056 (1:08.116 - 1:08.172) endTick: 2197500 
1, 2196008, Note_on_c, 0, 30, 99
1, 2196040, Note_on_c, 0, 35, 99
1, 2196061, Note_on_c, 0, 38, 99
1, 2196071, Note_on_c, 0, 49, 99
1, 2196699, Note_off_c, 0, 30, 0
1, 2197500, Time_signature, 15, 2, 24, 8
1, 2197500, Tempo, 750000
1, 2197500, Marker_t, Measure 16 Length: 0:11.250 (1:08.172 - 1:19.422) endTick: 2647500 Original Meter: 15/3 Spoofed Meter: 15/4
1, 2197500, Marker_t, Beat 1 Length: 0:00.750 (1:08.172 - 1:08.922) endTick: 2227500 
1, 2197500, Marker_t, Division 1 Length: 0:00.375 (1:08.172 - 1:08.547) endTick: 2212500 
1, 2197699, Note_on_c, 0, 50, 99
1, 2198258, Note_off_c, 0, 32, 0
1, 2198704, Note_off_c, 0, 68, 0
1, 2198740, Note_off_c, 0, 59, 0
1, 2199379, Note_off_c, 0, 90, 0
1, 2199506, Note_off_c, 0, 95, 0
1, 2200159, Note_off_c, 0, 71, 0
1, 2200316, Note_off_c, 0, 110, 0
1, 2201090, Note_off_c, 0, 38, 0
1, 2201242, Note_off_c, 0, 49, 0
1, 2202205, Note_off_c, 0, 35, 0
1, 2203392, Note_off_c, 0, 30, 0
1, 2209080, Note_off_c, 0, 50, 0
1, 2212500, Marker_t, Division 2 Length: 0:00.375 (1:08.547 - 1:08.922) endTick: 2227500 
1, 2212802, Note_on_c, 0, 102, 99
1, 2213138, Note_on_c, 0, 54, 99
1, 2213188, Note_on_c, 0, 92, 99
1, 2224713, Note_off_c, 0, 102, 0
1, 2227500, Marker_t, Beat 2 Length: 0:00.750 (1:08.922 - 1:09.672) endTick: 2257500 
1, 2227500, Marker_t, Division 1 Length: 0:00.250 (1:08.922 - 1:09.172) endTick: 2237500 
1, 2227640, Note_on_c, 0, 73, 99
1, 2236921, Note_off_c, 0, 92, 0
1, 2237500, Marker_t, Division 2 Length: 0:00.250 (1:09.172 - 1:09.422) endTick: 2247500 
1, 2237504, Note_on_c, 0, 114, 99
1, 2237739, Note_on_c, 0, 116, 99
1, 2237953, Note_on_c, 0, 92, 99
1, 2237979, Note_on_c, 0, 45, 99
1, 2246645, Note_off_c, 0, 45, 0
1, 2247500, Marker_t, Division 3 Length: 0:00.250 (1:09.422 - 1:09.672) endTick: 2257500 
1, 2247529, Note_on_c, 0, 94, 99
1, 2247740, Note_on_c, 0, 67, 99
1, 2247756, Note_on_c, 0, 116, 99
1, 2247880, Note_on_c, 0, 34, 99
1, 2252261, Note_off_c, 0, 116, 0
1, 2255182, Note_off_c, 0, 73, 0
1, 2257500, Marker_t, Beat 3 Length: 0:00.750 (1:09.672 - 1:10.422) endTick: 2287500 
1, 2257500, Marker_t, Division 1 Length: 0:00.250 (1:09.672 - 1:09.922) endTick: 2267500 
1, 2257619, Note_on_c, 0, 76, 99
1, 2257815, Note_on_c, 0, 106, 99
1, 2257998, Note_on_c, 0, 51, 99
1, 2259048, Note_off_c, 0, 94, 0
1, 2260927, Note_off_c, 0, 114, 0
1, 2263348, Note_off_c, 0, 76, 0
1, 2265978, Note_off_c, 0, 51, 0
1, 2266394, Note_off_c, 0, 92, 0
1, 2267500, Marker_t, Division 2 Length: 0:00.250 (1:09.922 - 1:10.172) endTick: 2277500 
1, 2267553, Note_on_c, 0, 92, 99
1, 2267627, Note_on_c, 0, 37, 99
1, 2267753, Note_on_c, 0, 72, 99
1, 2267907, Note_on_c, 0, 46, 99
1, 2267931, Note_on_c, 0, 102, 99
1, 2271448, Note_off_c, 0, 116, 0
1, 2273983, Note_off_c, 0, 67, 0
1, 2274824, Note_off_c, 0, 54, 0
1, 2277500, Marker_t, Division 3 Length: 0:00.250 (1:10.172 - 1:10.422) endTick: 2287500 
1, 2277710, Note_on_c, 0, 30, 99
1, 2282713, Note_off_c, 0, 102, 0
1, 2283449, Note_off_c, 0, 106, 0
1, 2287500, Marker_t, Beat 4 Length: 0:00.750 (1:10.422 - 1:11.172) endTick: 2317500 
1, 2287500, Marker_t, Division 1 Length: 0:00.150 (1:10.422 - 1:10.572) endTick: 2293500 
1, 2287516, Note_on_c, 0, 100, 99
1, 2287551, Note_on_c, 0, 60, 99
1, 2287655, Note_on_c, 0, 70, 99
1, 2287681, Note_on_c, 0, 31, 99
1, 2288931, Note_off_c, 0, 34, 0
1, 2289796, Note_off_c, 0, 46, 0
1, 2293405, Note_off_c, 0, 37, 0
1, 2293500, Marker_t, Division 2 Length: 0:00.150 (1:10.572 - 1:10.722) endTick: 2299500 
1, 2293604, Note_on_c, 0, 104, 99
1, 2293623, Note_on_c, 0, 105, 99
1, 2293624, Note_on_c, 0, 73, 99
1, 2293713, Note_on_c, 0, 39, 99
1, 2294016, Note_off_c, 0, 92, 0
1, 2296674, Note_off_c, 0, 31, 0
1, 2297074, Note_off_c, 0, 105, 0
1, 2299500, Marker_t, Division 3 Length: 0:00.150 (1:10.722 - 1:10.872) endTick: 2305500 
1, 2299543, Note_on_c, 0, 60, 99
1, 2299610, Note_on_c, 0, 69, 99
1, 2299658, Note_on_c, 0, 102, 99
1, 2299709, Note_on_c, 0, 78, 99
1, 2301460, Note_off_c, 0, 30, 0
1, 2305500, Marker_t, Division 4 Length: 0:00.150 (1:10.872 - 1:11.022) endTick: 2311500 
1, 2305577, Note_on_c, 0, 27, 99
1, 2305581, Note_on_c, 0, 46, 99
1, 2305798, Note_on_c, 0, 57, 99
1, 2306351, Note_off_c, 0, 100, 0
1, 2309386, Note_off_c, 0, 57, 0
1, 2311161, Note_off_c, 0, 60, 0
1, 2311481, Note_off_c, 0, 72, 0
1, 2311500, Marker_t, Division 5 Length: 0:00.150 (1:11.022 - 1:11.172) endTick: 2317500 
1, 2311519, Note_on_c, 0, 118, 99
1, 2311614, Note_on_c, 0, 109, 99
1, 2311794, Note_on_c, 0, 68, 99
1, 2312013, Note_off_c, 0, 78, 0
1, 2312027, Note_off_c, 0, 39, 0
1, 2312904, Note_off_c, 0, 46, 0
1, 2313273, Note_off_c, 0, 70, 0
1, 2314177, Note_off_c, 0, 104, 0
1, 2314489, Note_off_c, 0, 68, 0
1, 2316423, Note_off_c, 0, 73, 0
1, 2317500, Marker_t, Beat 5 Length: 0:00.750 (1:11.172 - 1:11.922) endTick: 2347500 
1, 2317500, Marker_t, Division 1 Length: 0:00.375 (1:11.172 - 1:11.547) endTick: 2332500 
1, 2317641, Note_on_c, 0, 64, 99
1, 2317766, Note_on_c, 0, 87, 99
1, 2317792, Note_on_c, 0, 90, 99
1, 2317799, Note_on_c, 0, 43, 99
1, 2318100, Note_on_c, 0, 27, 99
1, 2319065, Note_off_c, 0, 60, 0
1, 2321523, Note_off_c, 0, 69, 0
1, 2324636, Note_off_c, 0, 27, 0
1, 2325178, Note_off_c, 0, 27, 0
1, 2326881, Note_off_c, 0, 102, 0
1, 2329700, Note_off_c, 0, 64, 0
1, 2331705, Note_off_c, 0, 109, 0
1, 2331737, Note_off_c, 0, 90, 0
1, 2332500, Marker_t, Division 2 Length: 0:00.375 (1:11.547 - 1:11.922) endTick: 2347500 
1, 2333023, Note_on_c, 0, 57, 99
1, 2336941, Note_off_c, 0, 43, 0
1, 2340348, Note_off_c, 0, 118, 0
1, 2347500, Marker_t, Beat 6 Length: 0:00.750 (1:11.922 - 1:12.672) endTick: 2377500 
1, 2347500, Marker_t, Division 1 Length: 0:00.083 (1:11.922 - 1:12.005) endTick: 2350833 
1, 2347562, Note_on_c, 0, 90, 99
1, 2347616, Note_on_c, 0, 116, 99
1, 2350833, Marker_t, Division 2 Length: 0:00.083 (1:12.005 - 1:12.089) endTick: 2354167 
1, 2350866, Note_on_c, 0, 70, 99
1, 2350901, Note_on_c, 0, 92, 99
1, 2350927, Note_on_c, 0, 33, 99
1, 2350931, Note_on_c, 0, 45, 99
1, 2350945, Note_on_c, 0, 61, 99
1, 2351482, Note_off_c, 0, 33, 0
1, 2353572, Note_off_c, 0, 70, 0
1, 2354167, Marker_t, Division 3 Length: 0:00.083 (1:12.089 - 1:12.172) endTick: 2357500 
1, 2354169, Note_on_c, 0, 54, 99
1, 2354219, Note_on_c, 0, 55, 99
1, 2354225, Note_on_c, 0, 104, 99
1, 2354261, Note_on_c, 0, 109, 99
1, 2354300, Note_on_c, 0, 68, 99
1, 2356606, Note_off_c, 0, 87, 0
1, 2356780, Note_off_c, 0, 109, 0
1, 2357210, Note_off_c, 0, 90, 0
1, 2357500, Marker_t, Division 4 Length: 0:00.083 (1:12.172 - 1:12.255) endTick: 2360833 
1, 2357538, Note_on_c, 0, 64, 99
1, 2360455, Note_off_c, 0, 45, 0
1, 2360743, Note_off_c, 0, 61, 0
1, 2360833, Marker_t, Division 5 Length: 0:00.083 (1:12.255 - 1:12.339) endTick: 2364167 
1, 2360892, Note_on_c, 0, 84, 99
1, 2361642, Note_off_c, 0, 116, 0
1, 2363075, Note_off_c, 0, 54, 0
1, 2364167, Marker_t, Division 6 Length: 0:00.083 (1:12.339 - 1:12.422) endTick: 2367500 
1, 2364188, Note_on_c, 0, 33, 99
1, 2364416, Note_off_c, 0, 55, 0
1, 2366643, Note_off_c, 0, 92, 0
1, 2367500, Marker_t, Division 7 Length: 0:00.083 (1:12.422 - 1:12.505) endTick: 2370833 
1, 2367502, Note_on_c, 0, 112, 99
1, 2368114, Note_off_c, 0, 68, 0
1, 2370257, Note_off_c, 0, 104, 0
1, 2370833, Marker_t, Division 8 Length: 0:00.083 (1:12.505 - 1:12.589) endTick: 2374167 
1, 2370836, Note_on_c, 0, 118, 99
1, 2370847, Note_on_c, 0, 26, 99
1, 2370927, Note_on_c, 0, 27, 99
1, 2370937, Note_on_c, 0, 96, 99
1, 2370974, Note_on_c, 0, 78, 99
1, 2372002, Note_off_c, 0, 27, 0
1, 2373007, Note_off_c, 0, 64, 0
1, 2373496, Note_off_c, 0, 112, 0
1, 2374167, Marker_t, Division 9 Length: 0:00.083 (1:12.589 - 1:12.672) endTick: 2377500 
1, 2374235, Note_on_c, 0, 111, 99
1, 2374302, Note_on_c, 0, 85, 99
1, 2374906, Note_off_c, 0, 85, 0
1, 2377117, Note_off_c, 0, 96, 0
1, 2377183, Note_off_c, 0, 84, 0
1, 2377500, Marker_t, Beat 7 Length: 0:00.750 (1:12.672 - 1:13.422) endTick: 2407500 
1, 2377500, Marker_t, Division 1 Length: 0:00.107 (1:12.672 - 1:12.779) endTick: 2381786 
1, 2377517, Note_off_c, 0, 78, 0
1, 2377517, Note_on_c, 0, 70, 99
1, 2377544, Note_on_c, 0, 117, 99
1, 2377642, Note_on_c, 0, 96, 99
1, 2377699, Note_on_c, 0, 106, 99
1, 2380498, Note_off_c, 0, 33, 0
1, 2381548, Note_off_c, 0, 26, 0
1, 2381786, Marker_t, Division 2 Length: 0:00.107 (1:12.779 - 1:12.886) endTick: 2386071 
1, 2381946, Note_on_c, 0, 102, 99
1, 2382616, Note_off_c, 0, 57, 0
1, 2383038, Note_off_c, 0, 118, 0
1, 2385549, Note_off_c, 0, 96, 0
1, 2385759, Note_off_c, 0, 70, 0
1, 2386071, Marker_t, Division 3 Length: 0:00.107 (1:12.886 - 1:12.993) endTick: 2390357 
1, 2386104, Note_on_c, 0, 48, 99
1, 2386163, Note_on_c, 0, 44, 99
1, 2386200, Note_on_c, 0, 118, 99
1, 2386264, Note_on_c, 0, 25, 99
1, 2388384, Note_off_c, 0, 111, 0
1, 2390357, Marker_t, Division 4 Length: 0:00.107 (1:12.993 - 1:13.100) endTick: 2394643 
1, 2390467, Note_on_c, 0, 76, 99
1, 2390492, Note_on_c, 0, 30, 99
1, 2390632, Note_off_c, 0, 106, 0
1, 2391702, Note_off_c, 0, 25, 0
1, 2392169, Note_off_c, 0, 30, 0
1, 2394643, Marker_t, Division 5 Length: 0:00.107 (1:13.100 - 1:13.208) endTick: 2398929 
1, 2394797, Note_on_c, 0, 90, 99
1, 2394799, Note_on_c, 0, 102, 99
1, 2394800, Note_on_c, 0, 87, 99
1, 2394825, Note_on_c, 0, 96, 99
1, 2394830, Note_on_c, 0, 73, 99
1, 2395338, Note_off_c, 0, 117, 0
1, 2396084, Note_off_c, 0, 102, 0
1, 2396224, Note_off_c, 0, 87, 0
1, 2396627, Note_off_c, 0, 44, 0
1, 2396944, Note_off_c, 0, 102, 0
1, 2398929, Marker_t, Division 6 Length: 0:00.107 (1:13.208 - 1:13.315) endTick: 2403214 
1, 2398949, Note_on_c, 0, 111, 99
1, 2399024, Note_on_c, 0, 109, 99
1, 2399530, Note_off_c, 0, 118, 0
1, 2402191, Note_off_c, 0, 111, 0
1, 2402721, Note_off_c, 0, 96, 0
1, 2402772, Note_off_c, 0, 48, 0
1, 2403214, Marker_t, Division 7 Length: 0:00.107 (1:13.315 - 1:13.422) endTick: 2407500 
1, 2403253, Note_on_c, 0, 49, 99
1, 2403308, Note_on_c, 0, 102, 99
1, 2403967, Note_off_c, 0, 49, 0
1, 2405951, Note_off_c, 0, 76, 0
1, 2407500, Marker_t, Beat 8 Length: 0:00.750 (1:13.422 - 1:14.172) endTick: 2437500 
1, 2407500, Marker_t, Division 1 Length: 0:00.125 (1:13.422 - 1:13.547) endTick: 2412500 
1, 2407678, Note_on_c, 0, 96, 99
1, 2407716, Note_on_c, 0, 46, 99
1, 2407929, Note_off_c, 0, 90, 0
1, 2408745, Note_off_c, 0, 102, 0
1, 2409683, Note_off_c, 0, 109, 0
1, 2412364, Note_off_c, 0, 73, 0
1, 2412500, Marker_t, Division 2 Length: 0:00.125 (1:13.547 - 1:13.672) endTick: 2417500 
1, 2412509, Note_on_c, 0, 85, 99
1, 2412555, Note_on_c, 0, 109, 99
1, 2412558, Note_on_c, 0, 60, 99
1, 2412610, Note_on_c, 0, 39, 99
1, 2412652, Note_on_c, 0, 90, 99
1, 2417500, Marker_t, Division 3 Length: 0:00.125 (1:13.672 - 1:13.797) endTick: 2422500 
1, 2417550, Note_on_c, 0, 90, 99
1, 2417594, Note_on_c, 0, 70, 99
1, 2417624, Note_on_c, 0, 49, 99
1, 2417668, Note_on_c, 0, 99, 99
1, 2417699, Note_on_c, 0, 40, 99
1, 2418701, Note_off_c, 0, 40, 0
1, 2418707, Note_off_c, 0, 46, 0
1, 2420805, Note_off_c, 0, 60, 0
1, 2420833, Note_off_c, 0, 39, 0
1, 2420978, Note_off_c, 0, 90, 0
1, 2421342, Note_off_c, 0, 90, 0
1, 2422500, Marker_t, Division 4 Length: 0:00.125 (1:13.797 - 1:13.922) endTick: 2427500 
1, 2422503, Note_on_c, 0, 46, 99
1, 2422556, Note_on_c, 0, 120, 99
1, 2422609, Note_on_c, 0, 58, 99
1, 2424388, Note_off_c, 0, 85, 0
1, 2424645, Note_off_c, 0, 58, 0
1, 2426104, Note_off_c, 0, 96, 0
1, 2427500, Marker_t, Division 5 Length: 0:00.125 (1:13.922 - 1:14.047) endTick: 2432500 
1, 2427517, Note_on_c, 0, 42, 99
1, 2427594, Note_on_c, 0, 66, 99
1, 2427652, Note_on_c, 0, 111, 99
1, 2427674, Note_on_c, 0, 68, 99
1, 2428039, Note_off_c, 0, 109, 0
1, 2430271, Note_off_c, 0, 46, 0
1, 2431902, Note_off_c, 0, 99, 0
1, 2432424, Note_off_c, 0, 68, 0
1, 2432500, Marker_t, Division 6 Length: 0:00.125 (1:14.047 - 1:14.172) endTick: 2437500 
1, 2432549, Note_on_c, 0, 61, 99
1, 2432685, Note_on_c, 0, 62, 99
1, 2433664, Note_off_c, 0, 66, 0
1, 2436823, Note_off_c, 0, 42, 0
1, 2436945, Note_off_c, 0, 70, 0
1, 2437500, Marker_t, Beat 9 Length: 0:00.750 (1:14.172 - 1:14.922) endTick: 2467500 
1, 2437500, Marker_t, Division 1 Length: 0:00.094 (1:14.172 - 1:14.266) endTick: 2441250 
1, 2437501, Note_on_c, 0, 106, 99
1, 2437503, Note_on_c, 0, 82, 99
1, 2437556, Note_on_c, 0, 48, 99
1, 2437597, Note_on_c, 0, 78, 99
1, 2437651, Note_on_c, 0, 72, 99
1, 2437681, Note_off_c, 0, 111, 0
1, 2438335, Note_off_c, 0, 120, 0
1, 2439137, Note_off_c, 0, 49, 0
1, 2441250, Marker_t, Division 2 Length: 0:00.094 (1:14.266 - 1:14.359) endTick: 2445000 
1, 2441264, Note_on_c, 0, 38, 99
1, 2441322, Note_on_c, 0, 100, 99
1, 2441365, Note_on_c, 0, 82, 99
1, 2441383, Note_on_c, 0, 104, 99
1, 2442920, Note_off_c, 0, 106, 0
1, 2442988, Note_off_c, 0, 62, 0
1, 2443266, Note_off_c, 0, 78, 0
1, 2444017, Note_off_c, 0, 100, 0
1, 2445000, Marker_t, Division 3 Length: 0:00.094 (1:14.359 - 1:14.453) endTick: 2448750 
1, 2445057, Note_on_c, 0, 60, 99
1, 2445095, Note_on_c, 0, 46, 99
1, 2446698, Note_off_c, 0, 72, 0
1, 2448316, Note_off_c, 0, 104, 0
1, 2448750, Marker_t, Division 4 Length: 0:00.094 (1:14.453 - 1:14.547) endTick: 2452500 
1, 2448769, Note_on_c, 0, 118, 99
1, 2448835, Note_on_c, 0, 27, 99
1, 2448845, Note_off_c, 0, 82, 0
1, 2448870, Note_on_c, 0, 63, 99
1, 2448873, Note_on_c, 0, 46, 99
1, 2448886, Note_on_c, 0, 117, 99
1, 2449162, Note_off_c, 0, 38, 0
1, 2449209, Note_off_c, 0, 61, 0
1, 2450214, Note_off_c, 0, 48, 0
1, 2452103, Note_off_c, 0, 60, 0
1, 2452500, Marker_t, Division 5 Length: 0:00.094 (1:14.547 - 1:14.641) endTick: 2456250 
1, 2452620, Note_on_c, 0, 57, 99
1, 2455761, Note_off_c, 0, 82, 0
1, 2456240, Note_off_c, 0, 46, 0
1, 2456250, Marker_t, Division 6 Length: 0:00.094 (1:14.641 - 1:14.734) endTick: 2460000 
1, 2456345, Note_on_c, 0, 64, 99
1, 2460000, Marker_t, Division 7 Length: 0:00.094 (1:14.734 - 1:14.828) endTick: 2463750 
1, 2460162, Note_on_c, 0, 63, 99
1, 2460533, Note_off_c, 0, 117, 0
1, 2460789, Note_off_c, 0, 118, 0
1, 2462044, Note_off_c, 0, 27, 0
1, 2463393, Note_off_c, 0, 57, 0
1, 2463750, Marker_t, Division 8 Length: 0:00.094 (1:14.828 - 1:14.922) endTick: 2467500 
1, 2463811, Note_on_c, 0, 62, 99
1, 2463834, Note_on_c, 0, 79, 99
1, 2463873, Note_on_c, 0, 34, 99
1, 2463892, Note_on_c, 0, 80, 99
1, 2463896, Note_on_c, 0, 73, 99
1, 2465648, Note_off_c, 0, 63, 0
1, 2467490, Note_off_c, 0, 46, 0
1, 2467500, Marker_t, Beat 10 Length: 0:00.750 (1:14.922 - 1:15.672) endTick: 2497500 
1, 2467500, Marker_t, Division 1 Length: 0:00.083 (1:14.922 - 1:15.005) endTick: 2470833 
1, 2467511, Note_on_c, 0, 45, 99
1, 2467562, Note_on_c, 0, 44, 99
1, 2467605, Note_on_c, 0, 58, 99
1, 2468459, Note_off_c, 0, 63, 0
1, 2469521, Note_off_c, 0, 34, 0
1, 2470540, Note_off_c, 0, 64, 0
1, 2470833, Marker_t, Division 2 Length: 0:00.083 (1:15.005 - 1:15.089) endTick: 2474167 
1, 2470846, Note_on_c, 0, 63, 99
1, 2470861, Note_on_c, 0, 37, 99
1, 2470866, Note_on_c, 0, 63, 99
1, 2470912, Note_on_c, 0, 43, 99
1, 2470926, Note_on_c, 0, 26, 99
1, 2470974, Note_on_c, 0, 46, 99
1, 2472483, Note_off_c, 0, 44, 0
1, 2473924, Note_off_c, 0, 79, 0
1, 2474167, Marker_t, Division 3 Length: 0:00.083 (1:15.089 - 1:15.172) endTick: 2477500 
1, 2474184, Note_on_c, 0, 42, 99
1, 2474297, Note_on_c, 0, 39, 99
1, 2474521, Note_off_c, 0, 58, 0
1, 2474784, Note_off_c, 0, 63, 0
1, 2474797, Note_off_c, 0, 80, 0
1, 2476318, Note_off_c, 0, 43, 0
1, 2476908, Note_off_c, 0, 26, 0
1, 2477500, Marker_t, Division 4 Length: 0:00.083 (1:15.172 - 1:15.255) endTick: 2480833 
1, 2477582, Note_on_c, 0, 46, 99
1, 2477618, Note_on_c, 0, 68, 99
1, 2477981, Note_off_c, 0, 45, 0
1, 2480123, Note_off_c, 0, 62, 0
1, 2480833, Marker_t, Division 5 Length: 0:00.083 (1:15.255 - 1:15.339) endTick: 2484167 
1, 2480853, Note_on_c, 0, 120, 99
1, 2480906, Note_on_c, 0, 112, 99
1, 2480977, Note_on_c, 0, 78, 99
1, 2480984, Note_on_c, 0, 82, 99
1, 2480999, Note_on_c, 0, 28, 99
1, 2481047, Note_off_c, 0, 46, 0
1, 2481799, Note_off_c, 0, 73, 0
1, 2481988, Note_off_c, 0, 63, 0
1, 2483433, Note_off_c, 0, 42, 0
1, 2484167, Marker_t, Division 6 Length: 0:00.083 (1:15.339 - 1:15.422) endTick: 2487500 
1, 2484193, Note_on_c, 0, 108, 99
1, 2484238, Note_on_c, 0, 118, 99
1, 2484249, Note_on_c, 0, 118, 99
1, 2484256, Note_on_c, 0, 103, 99
1, 2484257, Note_on_c, 0, 66, 99
1, 2484279, Note_off_c, 0, 37, 0
1, 2484297, Note_on_c, 0, 48, 99
1, 2484469, Note_off_c, 0, 28, 0
1, 2485242, Note_off_c, 0, 82, 0
1, 2486668, Note_off_c, 0, 66, 0
1, 2487500, Marker_t, Division 7 Length: 0:00.083 (1:15.422 - 1:15.505) endTick: 2490833 
1, 2487560, Note_on_c, 0, 114, 99
1, 2487596, Note_on_c, 0, 78, 99
1, 2487633, Note_on_c, 0, 84, 99
1, 2487660, Note_on_c, 0, 56, 99
1, 2488375, Note_off_c, 0, 108, 0
1, 2489445, Note_off_c, 0, 118, 0
1, 2489556, Note_off_c, 0, 118, 0
1, 2489840, Note_off_c, 0, 84, 0
1, 2490113, Note_off_c, 0, 78, 0
1, 2490227, Note_off_c, 0, 39, 0
1, 2490833, Marker_t, Division 8 Length: 0:00.083 (1:15.505 - 1:15.589) endTick: 2494167 
1, 2490896, Note_on_c, 0, 90, 99
1, 2490903, Note_on_c, 0, 49, 99
1, 2490951, Note_on_c, 0, 120, 99
1, 2490970, Note_on_c, 0, 33, 99
1, 2491647, Note_off_c, 0, 112, 0
1, 2493450, Note_off_c, 0, 46, 0
1, 2493602, Note_off_c, 0, 68, 0
1, 2493869, Note_off_c, 0, 48, 0
1, 2494167, Marker_t, Division 9 Length: 0:00.083 (1:15.589 - 1:15.672) endTick: 2497500 
1, 2494196, Note_on_c, 0, 97, 99
1, 2494217, Note_on_c, 0, 91, 99
1, 2494297, Note_on_c, 0, 27, 99
1, 2494325, Note_on_c, 0, 114, 99
1, 2495111, Note_off_c, 0, 56, 0
1, 2495291, Note_off_c, 0, 27, 0
1, 2495831, Note_off_c, 0, 90, 0
1, 2497383, Note_off_c, 0, 120, 0
1, 2497500, Marker_t, Beat 11 Length: 0:00.750 (1:15.672 - 1:16.422) endTick: 2527500 
1, 2497500, Marker_t, Division 1 Length: 0:00.188 (1:15.672 - 1:15.859) endTick: 2505000 
1, 2497506, Note_on_c, 0, 66, 99
1, 2497577, Note_on_c, 0, 55, 99
1, 2497632, Note_on_c, 0, 99, 99
1, 2497699, Note_on_c, 0, 32, 99
1, 2497748, Note_on_c, 0, 43, 99
1, 2498425, Note_off_c, 0, 103, 0
1, 2499200, Note_off_c, 0, 43, 0
1, 2499336, Note_off_c, 0, 78, 0
1, 2499447, Note_off_c, 0, 114, 0
1, 2500780, Note_off_c, 0, 91, 0
1, 2503240, Note_off_c, 0, 114, 0
1, 2503646, Note_off_c, 0, 49, 0
1, 2504752, Note_off_c, 0, 120, 0
1, 2505000, Marker_t, Division 2 Length: 0:00.188 (1:15.859 - 1:16.047) endTick: 2512500 
1, 2505059, Note_on_c, 0, 51, 99
1, 2505083, Note_on_c, 0, 97, 99
1, 2505171, Note_on_c, 0, 37, 99
1, 2505194, Note_on_c, 0, 58, 99
1, 2505209, Note_on_c, 0, 67, 99
1, 2505264, Note_off_c, 0, 97, 0
1, 2505328, Note_on_c, 0, 51, 99
1, 2505844, Note_off_c, 0, 33, 0
1, 2507782, Note_off_c, 0, 58, 0
1, 2510867, Note_off_c, 0, 51, 0
1, 2511210, Note_off_c, 0, 97, 0
1, 2512304, Note_off_c, 0, 67, 0
1, 2512500, Marker_t, Division 3 Length: 0:00.188 (1:16.047 - 1:16.234) endTick: 2520000 
1, 2512751, Note_on_c, 0, 118, 99
1, 2516256, Note_off_c, 0, 37, 0
1, 2517310, Note_off_c, 0, 32, 0
1, 2520000, Marker_t, Division 4 Length: 0:00.188 (1:16.234 - 1:16.422) endTick: 2527500 
1, 2520016, Note_on_c, 0, 58, 99
1, 2520028, Note_on_c, 0, 98, 99
1, 2520104, Note_on_c, 0, 70, 99
1, 2520179, Note_on_c, 0, 27, 99
1, 2520367, Note_on_c, 0, 44, 99
1, 2521073, Note_off_c, 0, 98, 0
1, 2521902, Note_off_c, 0, 118, 0
1, 2526924, Note_off_c, 0, 55, 0
1, 2527500, Marker_t, Beat 12 Length: 0:00.750 (1:16.422 - 1:17.172) endTick: 2557500 
1, 2527500, Marker_t, Division 1 Length: 0:00.083 (1:16.422 - 1:16.505) endTick: 2530833 
1, 2527519, Note_on_c, 0, 44, 99
1, 2527570, Note_on_c, 0, 66, 99
1, 2527624, Note_on_c, 0, 25, 99
1, 2527647, Note_on_c, 0, 73, 99
1, 2528024, Note_off_c, 0, 44, 0
1, 2528814, Note_off_c, 0, 99, 0
1, 2530405, Note_off_c, 0, 25, 0
1, 2530659, Note_off_c, 0, 66, 0
1, 2530833, Marker_t, Division 2 Length: 0:00.083 (1:16.505 - 1:16.589) endTick: 2534167 
1, 2530857, Note_on_c, 0, 58, 99
1, 2530899, Note_on_c, 0, 56, 99
1, 2530925, Note_on_c, 0, 46, 99
1, 2532960, Note_off_c, 0, 56, 0
1, 2534031, Note_off_c, 0, 46, 0
1, 2534167, Marker_t, Division 3 Length: 0:00.083 (1:16.589 - 1:16.672) endTick: 2537500 
1, 2534250, Note_on_c, 0, 42, 99
1, 2534266, Note_on_c, 0, 54, 99
1, 2534272, Note_on_c, 0, 111, 99
1, 2534306, Note_on_c, 0, 80, 99
1, 2534992, Note_off_c, 0, 73, 0
1, 2536817, Note_off_c, 0, 54, 0
1, 2537500, Marker_t, Division 4 Length: 0:00.083 (1:16.672 - 1:16.755) endTick: 2540833 
1, 2537529, Note_off_c, 0, 44, 0
1, 2537531, Note_on_c, 0, 31, 99
1, 2537543, Note_on_c, 0, 120, 99
1, 2537555, Note_on_c, 0, 118, 99
1, 2537624, Note_on_c, 0, 70, 99
1, 2537649, Note_off_c, 0, 51, 0
1, 2538959, Note_off_c, 0, 66, 0
1, 2539212, Note_off_c, 0, 70, 0
1, 2540833, Marker_t, Division 5 Length: 0:00.083 (1:16.755 - 1:16.839) endTick: 2544167 
1, 2540921, Note_on_c, 0, 112, 99
1, 2540922, Note_on_c, 0, 84, 99
1, 2540928, Note_on_c, 0, 26, 99
1, 2542763, Note_off_c, 0, 111, 0
1, 2543137, Note_off_c, 0, 58, 0
1, 2543432, Note_off_c, 0, 120, 0
1, 2544167, Marker_t, Division 6 Length: 0:00.083 (1:16.839 - 1:16.922) endTick: 2547500 
1, 2544170, Note_on_c, 0, 54, 99
1, 2544176, Note_on_c, 0, 56, 99
1, 2544231, Note_on_c, 0, 76, 99
1, 2544232, Note_on_c, 0, 63, 99
1, 2544269, Note_on_c, 0, 34, 99
1, 2544455, Note_off_c, 0, 58, 0
1, 2546070, Note_off_c, 0, 26, 0
1, 2546615, Note_off_c, 0, 54, 0
1, 2547500, Marker_t, Division 7 Length: 0:00.083 (1:16.922 - 1:17.005) endTick: 2550833 
1, 2547546, Note_on_c, 0, 64, 99
1, 2547657, Note_on_c, 0, 30, 99
1, 2548256, Note_off_c, 0, 76, 0
1, 2548757, Note_off_c, 0, 34, 0
1, 2548770, Note_off_c, 0, 42, 0
1, 2549380, Note_off_c, 0, 80, 0
1, 2549988, Note_off_c, 0, 56, 0
1, 2550192, Note_off_c, 0, 31, 0
1, 2550833, Marker_t, Division 8 Length: 0:00.083 (1:17.005 - 1:17.089) endTick: 2554167 
1, 2550861, Note_on_c, 0, 48, 99
1, 2550900, Note_on_c, 0, 100, 99
1, 2550917, Note_on_c, 0, 93, 99
1, 2550939, Note_on_c, 0, 39, 99
1, 2551023, Note_off_c, 0, 70, 0
1, 2552720, Note_off_c, 0, 39, 0
1, 2553131, Note_off_c, 0, 112, 0
1, 2554136, Note_off_c, 0, 118, 0
1, 2554167, Marker_t, Division 9 Length: 0:00.083 (1:17.089 - 1:17.172) endTick: 2557500 
1, 2554235, Note_on_c, 0, 67, 99
1, 2554257, Note_on_c, 0, 78, 99
1, 2554398, Note_off_c, 0, 27, 0
1, 2556442, Note_off_c, 0, 78, 0
1, 2556528, Note_off_c, 0, 84, 0
1, 2556649, Note_off_c, 0, 64, 0
1, 2557500, Marker_t, Beat 13 Length: 0:00.750 (1:17.172 - 1:17.922) endTick: 2587500 
1, 2557500, Marker_t, Division 1 Length: 0:00.125 (1:17.172 - 1:17.297) endTick: 2562500 
1, 2557533, Note_on_c, 0, 27, 99
1, 2557638, Note_on_c, 0, 70, 99
1, 2557639, Note_on_c, 0, 102, 99
1, 2558957, Note_off_c, 0, 63, 0
1, 2559678, Note_off_c, 0, 67, 0
1, 2560534, Note_off_c, 0, 30, 0
1, 2560549, Note_off_c, 0, 93, 0
1, 2562320, Note_off_c, 0, 102, 0
1, 2562500, Marker_t, Division 2 Length: 0:00.125 (1:17.297 - 1:17.422) endTick: 2567500 
1, 2562545, Note_off_c, 0, 48, 0
1, 2562627, Note_on_c, 0, 56, 99
1, 2565599, Note_off_c, 0, 100, 0
1, 2566175, Note_off_c, 0, 27, 0
1, 2567202, Note_off_c, 0, 56, 0
1, 2567500, Marker_t, Division 3 Length: 0:00.125 (1:17.422 - 1:17.547) endTick: 2572500 
1, 2567695, Note_on_c, 0, 110, 99
1, 2572500, Marker_t, Division 4 Length: 0:00.125 (1:17.547 - 1:17.672) endTick: 2577500 
1, 2572504, Note_on_c, 0, 105, 99
1, 2572540, Note_on_c, 0, 106, 99
1, 2572578, Note_on_c, 0, 36, 99
1, 2572617, Note_on_c, 0, 52, 99
1, 2577500, Marker_t, Division 5 Length: 0:00.125 (1:17.672 - 1:17.797) endTick: 2582500 
1, 2577520, Note_on_c, 0, 27, 99
1, 2577547, Note_on_c, 0, 66, 99
1, 2577684, Note_on_c, 0, 90, 99
1, 2578901, Note_off_c, 0, 70, 0
1, 2582500, Marker_t, Division 6 Length: 0:00.125 (1:17.797 - 1:17.922) endTick: 2587500 
1, 2582528, Note_on_c, 0, 98, 99
1, 2582562, Note_on_c, 0, 70, 99
1, 2582587, Note_on_c, 0, 68, 99
1, 2582607, Note_on_c, 0, 82, 99
1, 2582664, Note_on_c, 0, 80, 99
1, 2584115, Note_off_c, 0, 80, 0
1, 2586868, Note_off_c, 0, 70, 0
1, 2587500, Marker_t, Beat 14 Length: 0:00.750 (1:17.922 - 1:18.672) endTick: 2617500 
1, 2587500, Marker_t, Division 1 Length: 0:00.083 (1:17.922 - 1:18.005) endTick: 2590833 
1, 2587518, Note_on_c, 0, 96, 99
1, 2587660, Note_on_c, 0, 30, 99
1, 2587881, Note_off_c, 0, 110, 0
1, 2587962, Note_off_c, 0, 30, 0
1, 2588254, Note_off_c, 0, 90, 0
1, 2588959, Note_off_c, 0, 106, 0
1, 2589580, Note_off_c, 0, 98, 0
1, 2590328, Note_off_c, 0, 96, 0
1, 2590427, Note_off_c, 0, 105, 0
1, 2590786, Note_off_c, 0, 52, 0
1, 2590833, Marker_t, Division 2 Length: 0:00.083 (1:18.005 - 1:18.089) endTick: 2594167 
1, 2590842, Note_on_c, 0, 74, 99
1, 2591104, Note_off_c, 0, 66, 0
1, 2593113, Note_off_c, 0, 36, 0
1, 2594167, Marker_t, Division 3 Length: 0:00.083 (1:18.089 - 1:18.172) endTick: 2597500 
1, 2594292, Note_on_c, 0, 25, 99
1, 2596235, Note_off_c, 0, 74, 0
1, 2597500, Marker_t, Division 4 Length: 0:00.083 (1:18.172 - 1:18.255) endTick: 2600833 
1, 2597552, Note_on_c, 0, 62, 99
1, 2597565, Note_on_c, 0, 82, 99
1, 2597572, Note_on_c, 0, 80, 99
1, 2597610, Note_on_c, 0, 48, 99
1, 2597649, Note_on_c, 0, 106, 99
1, 2598931, Note_off_c, 0, 82, 0
1, 2599893, Note_off_c, 0, 25, 0
1, 2600503, Note_off_c, 0, 82, 0
1, 2600833, Marker_t, Division 5 Length: 0:00.083 (1:18.255 - 1:18.339) endTick: 2604167 
1, 2600873, Note_on_c, 0, 30, 99
1, 2600994, Note_off_c, 0, 68, 0
1, 2601642, Note_off_c, 0, 27, 0
1, 2604167, Marker_t, Division 6 Length: 0:00.083 (1:18.339 - 1:18.422) endTick: 2607500 
1, 2604182, Note_on_c, 0, 63, 99
1, 2604213, Note_on_c, 0, 57, 99
1, 2604217, Note_on_c, 0, 55, 99
1, 2604265, Note_on_c, 0, 30, 99
1, 2604270, Note_on_c, 0, 63, 99
1, 2604305, Note_on_c, 0, 34, 99
1, 2604388, Note_off_c, 0, 106, 0
1, 2605337, Note_off_c, 0, 80, 0
1, 2606335, Note_off_c, 0, 55, 0
1, 2607476, Note_off_c, 0, 48, 0
1, 2607500, Marker_t, Division 7 Length: 0:00.083 (1:18.422 - 1:18.505) endTick: 2610833 
1, 2607541, Note_on_c, 0, 99, 99
1, 2608888, Note_off_c, 0, 63, 0
1, 2610833, Marker_t, Division 8 Length: 0:00.083 (1:18.505 - 1:18.589) endTick: 2614167 
1, 2610911, Note_on_c, 0, 118, 99
1, 2610983, Note_on_c, 0, 74, 99
1, 2610987, Note_on_c, 0, 48, 99
1, 2611000, Note_on_c, 0, 49, 99
1, 2612838, Note_off_c, 0, 48, 0
1, 2613066, Note_off_c, 0, 62, 0
1, 2613149, Note_off_c, 0, 30, 0
1, 2613317, Note_off_c, 0, 30, 0
1, 2613458, Note_off_c, 0, 63, 0
1, 2614167, Marker_t, Division 9 Length: 0:00.083 (1:18.589 - 1:18.672) endTick: 2617500 
1, 2614263, Note_on_c, 0, 72, 99
1, 2614322, Note_on_c, 0, 97, 99
1, 2617500, Marker_t, Beat 15 Length: 0:00.750 (1:18.672 - 1:19.422) endTick: 2647500 
1, 2617500, Marker_t, Division 1 Length: 0:00.188 (1:18.672 - 1:18.859) endTick: 2625000 
1, 2617541, Note_on_c, 0, 108, 99
1, 2617546, Note_on_c, 0, 69, 99
1, 2617559, Note_on_c, 0, 94, 99
1, 2617750, Note_on_c, 0, 25, 99
1, 2617821, Note_on_c, 0, 114, 99
1, 2618040, Note_off_c, 0, 49, 0
1, 2619382, Note_off_c, 0, 34, 0
1, 2620693, Note_off_c, 0, 57, 0
1, 2622452, Note_off_c, 0, 97, 0
1, 2622661, Note_off_c, 0, 99, 0
1, 2623180, Note_off_c, 0, 74, 0
1, 2623411, Note_off_c, 0, 118, 0
1, 2625000, Marker_t, Division 2 Length: 0:00.188 (1:18.859 - 1:19.047) endTick: 2632500 
1, 2625078, Note_on_c, 0, 66, 99
1, 2625083, Note_on_c, 0, 48, 99
1, 2625114, Note_on_c, 0, 27, 99
1, 2625122, Note_on_c, 0, 114, 99
1, 2625258, Note_on_c, 0, 38, 99
1, 2630085, Note_off_c, 0, 72, 0
1, 2632500, Marker_t, Division 3 Length: 0:00.188 (1:19.047 - 1:19.234) endTick: 2640000 
1, 2632501, Note_on_c, 0, 109, 99
1, 2632509, Note_on_c, 0, 93, 99
1, 2632810, Note_on_c, 0, 48, 99
1, 2633163, Note_off_c, 0, 25, 0
1, 2637911, Note_off_c, 0, 114, 0
1, 2638409, Note_off_c, 0, 66, 0
1, 2639077, Note_off_c, 0, 69, 0
1, 2639647, Note_off_c, 0, 109, 0
1, 2640000, Marker_t, Division 4 Length: 0:00.188 (1:19.234 - 1:19.422) endTick: 2647500 
1, 2640048, Note_on_c, 0, 54, 99
1, 2640064, Note_on_c, 0, 82, 99
1, 2640074, Note_on_c, 0, 25, 99
1, 2640162, Note_off_c, 0, 93, 0
1, 2640213, Note_on_c, 0, 99, 99
1, 2640249, Note_on_c, 0, 92, 99
1, 2641942, Note_off_c, 0, 92, 0
1, 2643780, Note_off_c, 0, 94, 0
1, 2644019, Note_off_c, 0, 114, 0
1, 2645113, Note_off_c, 0, 48, 0
1, 2647500, Time_signature, 5, 2, 24, 8
1, 2647500, Tempo, 1000000
1, 2647500, Marker_t, Measure 17 Length: 0:05.000 (1:19.422 - 1:24.422) endTick: 2797500 Meter: 5/4
1, 2647500, Marker_t, Beat 1 Length: 0:01.000 (1:19.422 - 1:20.422) endTick: 2677500 
1, 2647500, Marker_t, Division 1 Length: 0:00.111 (1:19.422 - 1:19.533) endTick: 2650833 
1, 2647532, Note_on_c, 0, 107, 99
1, 2647613, Note_on_c, 0, 71, 99
1, 2647617, Note_on_c, 0, 59, 99
1, 2649655, Note_off_c, 0, 38, 0
1, 2650833, Marker_t, Division 2 Length: 0:00.111 (1:19.533 - 1:19.644) endTick: 2654167 
1, 2650864, Note_on_c, 0, 88, 99
1, 2651515, Note_off_c, 0, 108, 0
1, 2651941, Note_off_c, 0, 27, 0
1, 2653910, Note_off_c, 0, 71, 0
1, 2654167, Marker_t, Division 3 Length: 0:00.111 (1:19.644 - 1:19.755) endTick: 2657500 
1, 2654183, Note_on_c, 0, 72, 99
1, 2655044, Note_off_c, 0, 107, 0
1, 2656326, Note_off_c, 0, 59, 0
1, 2656669, Note_off_c, 0, 88, 0
1, 2657500, Marker_t, Division 4 Length: 0:00.111 (1:19.755 - 1:19.866) endTick: 2660833 
1, 2657543, Note_on_c, 0, 43, 99
1, 2657570, Note_on_c, 0, 29, 99
1, 2657594, Note_on_c, 0, 69, 99
1, 2657666, Note_on_c, 0, 55, 99
1, 2660833, Marker_t, Division 5 Length: 0:00.111 (1:19.866 - 1:19.977) endTick: 2664167 
1, 2660924, Note_on_c, 0, 93, 99
1, 2660940, Note_on_c, 0, 40, 99
1, 2663934, Note_off_c, 0, 48, 0
1, 2664167, Marker_t, Division 6 Length: 0:00.111 (1:19.977 - 1:20.089) endTick: 2667500 
1, 2664235, Note_on_c, 0, 62, 99
1, 2664241, Note_on_c, 0, 83, 99
1, 2664292, Note_on_c, 0, 110, 99
1, 2664314, Note_on_c, 0, 35, 99
1, 2666871, Note_off_c, 0, 69, 0
1, 2667500, Marker_t, Division 7 Length: 0:00.111 (1:20.089 - 1:20.200) endTick: 2670833 
1, 2667556, Note_on_c, 0, 67, 99
1, 2667652, Note_on_c, 0, 105, 99
1, 2667659, Note_on_c, 0, 28, 99
1, 2667752, Note_off_c, 0, 43, 0
1, 2668202, Note_off_c, 0, 40, 0
1, 2668280, Note_off_c, 0, 55, 0
1, 2668715, Note_off_c, 0, 35, 0
1, 2669329, Note_off_c, 0, 110, 0
1, 2670015, Note_off_c, 0, 72, 0
1, 2670833, Marker_t, Division 8 Length: 0:00.111 (1:20.200 - 1:20.311) endTick: 2674167 
1, 2670878, Note_on_c, 0, 76, 99
1, 2670928, Note_on_c, 0, 24, 99
1, 2670969, Note_on_c, 0, 72, 99
1, 2671673, Note_off_c, 0, 99, 0
1, 2672401, Note_off_c, 0, 25, 0
1, 2672949, Note_off_c, 0, 76, 0
1, 2673541, Note_off_c, 0, 29, 0
1, 2673837, Note_off_c, 0, 82, 0
1, 2674167, Marker_t, Division 9 Length: 0:00.111 (1:20.311 - 1:20.422) endTick: 2677500 
1, 2674330, Note_on_c, 0, 57, 99
1, 2674462, Note_off_c, 0, 93, 0
1, 2674875, Note_off_c, 0, 67, 0
1, 2676329, Note_off_c, 0, 54, 0
1, 2677500, Marker_t, Beat 2 Length: 0:01.000 (1:20.422 - 1:21.422) endTick: 2707500 
1, 2677500, Marker_t, Division 1 Length: 0:00.143 (1:20.422 - 1:20.565) endTick: 2681786 
1, 2677502, Note_off_c, 0, 28, 0
1, 2677534, Note_on_c, 0, 53, 99
1, 2677554, Note_on_c, 0, 71, 99
1, 2677567, Note_on_c, 0, 72, 99
1, 2677599, Note_on_c, 0, 35, 99
1, 2677636, Note_on_c, 0, 115, 99
1, 2678452, Note_off_c, 0, 83, 0
1, 2678467, Note_off_c, 0, 62, 0
1, 2681786, Marker_t, Division 2 Length: 0:00.143 (1:20.565 - 1:20.708) endTick: 2686071 
1, 2681824, Note_off_c, 0, 72, 0
1, 2681829, Note_on_c, 0, 105, 99
1, 2681831, Note_on_c, 0, 24, 99
1, 2683798, Note_off_c, 0, 72, 0
1, 2683910, Note_off_c, 0, 71, 0
1, 2684150, Note_off_c, 0, 105, 0
1, 2684434, Note_off_c, 0, 24, 0
1, 2686071, Marker_t, Division 3 Length: 0:00.143 (1:20.708 - 1:20.850) endTick: 2690357 
1, 2686152, Note_on_c, 0, 88, 99
1, 2686163, Note_on_c, 0, 60, 99
1, 2686226, Note_on_c, 0, 105, 99
1, 2686255, Note_on_c, 0, 72, 99
1, 2686257, Note_on_c, 0, 36, 99
1, 2686692, Note_off_c, 0, 105, 0
1, 2687403, Note_off_c, 0, 53, 0
1, 2689323, Note_off_c, 0, 57, 0
1, 2689342, Note_off_c, 0, 60, 0
1, 2689440, Note_off_c, 0, 88, 0
1, 2689579, Note_off_c, 0, 35, 0
1, 2689674, Note_off_c, 0, 115, 0
1, 2690357, Marker_t, Division 4 Length: 0:00.143 (1:20.850 - 1:20.993) endTick: 2694643 
1, 2690434, Note_on_c, 0, 52, 99
1, 2690561, Note_on_c, 0, 26, 99
1, 2694643, Marker_t, Division 5 Length: 0:00.143 (1:20.993 - 1:21.136) endTick: 2698929 
1, 2694647, Note_on_c, 0, 71, 99
1, 2694727, Note_on_c, 0, 74, 99
1, 2694734, Note_on_c, 0, 59, 99
1, 2694783, Note_off_c, 0, 52, 0
1, 2694794, Note_on_c, 0, 53, 99
1, 2695781, Note_off_c, 0, 105, 0
1, 2696636, Note_off_c, 0, 53, 0
1, 2698217, Note_off_c, 0, 24, 0
1, 2698929, Marker_t, Division 6 Length: 0:00.143 (1:21.136 - 1:21.279) endTick: 2703214 
1, 2698970, Note_on_c, 0, 117, 99
1, 2698975, Note_on_c, 0, 52, 99
1, 2698979, Note_on_c, 0, 47, 99
1, 2698994, Note_on_c, 0, 77, 99
1, 2699097, Note_on_c, 0, 24, 99
1, 2700459, Note_off_c, 0, 36, 0
1, 2700595, Note_off_c, 0, 77, 0
1, 2700639, Note_off_c, 0, 74, 0
1, 2703184, Note_off_c, 0, 52, 0
1, 2703214, Marker_t, Division 7 Length: 0:00.143 (1:21.279 - 1:21.422) endTick: 2707500 
1, 2703258, Note_on_c, 0, 84, 99
1, 2703370, Note_on_c, 0, 65, 99
1, 2703407, Note_on_c, 0, 88, 99
1, 2703428, Note_on_c, 0, 72, 99
1, 2704773, Note_off_c, 0, 88, 0
1, 2705151, Note_off_c, 0, 72, 0
1, 2705964, Note_off_c, 0, 84, 0
1, 2707500, Marker_t, Beat 3 Length: 0:01.000 (1:21.422 - 1:22.422) endTick: 2737500 
1, 2707500, Marker_t, Division 1 Length: 0:00.125 (1:21.422 - 1:21.547) endTick: 2711250 
1, 2707583, Note_on_c, 0, 35, 99
1, 2707623, Note_on_c, 0, 95, 99
1, 2708030, Note_off_c, 0, 71, 0
1, 2711250, Marker_t, Division 2 Length: 0:00.125 (1:21.547 - 1:21.672) endTick: 2715000 
1, 2711256, Note_on_c, 0, 48, 99
1, 2711312, Note_on_c, 0, 40, 99
1, 2711321, Note_off_c, 0, 59, 0
1, 2711400, Note_off_c, 0, 26, 0
1, 2711400, Note_on_c, 0, 101, 99
1, 2713156, Note_off_c, 0, 117, 0
1, 2713784, Note_off_c, 0, 24, 0
1, 2713946, Note_off_c, 0, 47, 0
1, 2714482, Note_off_c, 0, 40, 0
1, 2715000, Marker_t, Division 3 Length: 0:00.125 (1:21.672 - 1:21.797) endTick: 2718750 
1, 2715103, Note_on_c, 0, 76, 99
1, 2715145, Note_on_c, 0, 115, 99
1, 2715961, Note_off_c, 0, 72, 0
1, 2716518, Note_off_c, 0, 95, 0
1, 2717321, Note_off_c, 0, 115, 0
1, 2718750, Marker_t, Division 4 Length: 0:00.125 (1:21.797 - 1:21.922) endTick: 2722500 
1, 2718869, Note_on_c, 0, 28, 99
1, 2719446, Note_off_c, 0, 48, 0
1, 2722500, Marker_t, Division 5 Length: 0:00.125 (1:21.922 - 1:22.047) endTick: 2726250 
1, 2722530, Note_on_c, 0, 33, 99
1, 2722579, Note_on_c, 0, 53, 99
1, 2722643, Note_on_c, 0, 107, 99
1, 2722645, Note_on_c, 0, 100, 99
1, 2722654, Note_on_c, 0, 35, 99
1, 2722820, Note_off_c, 0, 101, 0
1, 2722965, Note_off_c, 0, 65, 0
1, 2725653, Note_off_c, 0, 35, 0
1, 2725676, Note_off_c, 0, 53, 0
1, 2726250, Marker_t, Division 6 Length: 0:00.125 (1:22.047 - 1:22.172) endTick: 2730000 
1, 2726288, Note_on_c, 0, 62, 99
1, 2726409, Note_on_c, 0, 24, 99
1, 2726414, Note_on_c, 0, 89, 99
1, 2728227, Note_off_c, 0, 76, 0
1, 2729969, Note_off_c, 0, 62, 0
1, 2730000, Marker_t, Division 7 Length: 0:00.125 (1:22.172 - 1:22.297) endTick: 2733750 
1, 2730059, Note_off_c, 0, 24, 0
1, 2730165, Note_on_c, 0, 103, 99
1, 2732544, Note_off_c, 0, 28, 0
1, 2733570, Note_off_c, 0, 103, 0
1, 2733750, Marker_t, Division 8 Length: 0:00.125 (1:22.297 - 1:22.422) endTick: 2737500 
1, 2733763, Note_on_c, 0, 110, 99
1, 2733921, Note_on_c, 0, 117, 99
1, 2734222, Note_off_c, 0, 100, 0
1, 2736561, Note_off_c, 0, 107, 0
1, 2736808, Note_off_c, 0, 35, 0
1, 2736816, Note_off_c, 0, 33, 0
1, 2737264, Note_off_c, 0, 89, 0
1, 2737500, Marker_t, Beat 4 Length: 0:01.000 (1:22.422 - 1:23.422) endTick: 2767500 
1, 2737500, Marker_t, Division 1 Length: 0:00.333 (1:22.422 - 1:22.755) endTick: 2747500 
1, 2737635, Note_off_c, 0, 110, 0
1, 2737885, Note_on_c, 0, 108, 99
1, 2747500, Marker_t, Division 2 Length: 0:00.333 (1:22.755 - 1:23.089) endTick: 2757500 
1, 2747583, Note_on_c, 0, 67, 99
1, 2747636, Note_on_c, 0, 76, 99
1, 2747899, Note_on_c, 0, 50, 99
1, 2749752, Note_off_c, 0, 117, 0
1, 2755912, Note_off_c, 0, 108, 0
1, 2757500, Marker_t, Division 3 Length: 0:00.333 (1:23.089 - 1:23.422) endTick: 2767500 
1, 2757996, Note_on_c, 0, 41, 99
1, 2761623, Note_off_c, 0, 76, 0
1, 2767500, Marker_t, Beat 5 Length: 0:01.000 (1:23.422 - 1:24.422) endTick: 2797500 
1, 2767500, Marker_t, Division 1 Length: 0:00.143 (1:23.422 - 1:23.565) endTick: 2771786 
1, 2767555, Note_on_c, 0, 50, 99
1, 2767624, Note_on_c, 0, 72, 99
1, 2767658, Note_on_c, 0, 95, 99
1, 2767677, Note_on_c, 0, 62, 99
1, 2768261, Note_off_c, 0, 72, 0
1, 2769470, Note_off_c, 0, 95, 0
1, 2771786, Marker_t, Division 2 Length: 0:00.143 (1:23.565 - 1:23.708) endTick: 2776071 
1, 2771987, Note_on_c, 0, 95, 99
1, 2772848, Note_off_c, 0, 41, 0
1, 2775368, Note_off_c, 0, 67, 0
1, 2776071, Marker_t, Division 3 Length: 0:00.143 (1:23.708 - 1:23.850) endTick: 2780357 
1, 2776196, Note_on_c, 0, 31, 99
1, 2776200, Note_on_c, 0, 45, 99
1, 2776258, Note_on_c, 0, 95, 99
1, 2778852, Note_off_c, 0, 95, 0
1, 2779347, Note_off_c, 0, 50, 0
1, 2780357, Marker_t, Division 4 Length: 0:00.143 (1:23.850 - 1:23.993) endTick: 2784643 
1, 2780471, Note_on_c, 0, 64, 99
1, 2782288, Note_off_c, 0, 50, 0
1, 2783346, Note_off_c, 0, 62, 0
1, 2784643, Marker_t, Division 5 Length: 0:00.143 (1:23.993 - 1:24.136) endTick: 2788929 
1, 2784698, Note_on_c, 0, 31, 99
1, 2788498, Note_off_c, 0, 31, 0
1, 2788929, Marker_t, Division 6 Length: 0:00.143 (1:24.136 - 1:24.279) endTick: 2793214 
1, 2789086, Note_on_c, 0, 59, 99
1, 2789102, Note_on_c, 0, 98, 99
1, 2789114, Note_on_c, 0, 89, 99
1, 2789837, Note_off_c, 0, 64, 0
1, 2789844, Note_off_c, 0, 45, 0
1, 2790102, Note_off_c, 0, 95, 0
1, 2792865, Note_off_c, 0, 59, 0
1, 2793214, Marker_t, Division 7 Length: 0:00.143 (1:24.279 - 1:24.422) endTick: 2797500 
1, 2793244, Note_on_c, 0, 105, 99
1, 2793284, Note_on_c, 0, 47, 99
1, 2793327, Note_on_c, 0, 64, 99
1, 2793344, Note_on_c, 0, 71, 99
1, 2793394, Note_on_c, 0, 59, 99
1, 2793424, Note_off_c, 0, 31, 0
1, 2797500, Time_signature, 8, 3, 24, 8
1, 2797500, Tempo, 1250000
1, 2797500, Marker_t, Measure 18 Length: 0:05.000 (1:24.422 - 1:29.422) endTick: 2917500 Original Meter: 8/10 Spoofed Meter: 8/8
1, 2797500, Marker_t, Beat 1 Length: 0:00.625 (1:24.422 - 1:25.047) endTick: 2812500 
1, 2797500, Marker_t, Division 1 Length: 0:00.125 (1:24.422 - 1:24.547) endTick: 2800500 
1, 2797525, Note_on_c, 0, 67, 99
1, 2797534, Note_on_c, 0, 50, 99
1, 2797569, Note_on_c, 0, 107, 99
1, 2797569, Note_on_c, 0, 53, 99
1, 2797579, Note_on_c, 0, 55, 99
1, 2797627, Note_on_c, 0, 50, 99
1, 2797845, Note_off_c, 0, 89, 0
1, 2798373, Note_off_c, 0, 107, 0
1, 2798954, Note_off_c, 0, 47, 0
1, 2799805, Note_off_c, 0, 55, 0
1, 2800500, Marker_t, Division 2 Length: 0:00.125 (1:24.547 - 1:24.672) endTick: 2803500 
1, 2800514, Note_on_c, 0, 79, 99
1, 2800552, Note_on_c, 0, 28, 99
1, 2800610, Note_on_c, 0, 107, 99
1, 2800623, Note_off_c, 0, 98, 0
1, 2801649, Note_off_c, 0, 53, 0
1, 2803142, Note_off_c, 0, 71, 0
1, 2803170, Note_off_c, 0, 50, 0
1, 2803500, Marker_t, Division 3 Length: 0:00.125 (1:24.672 - 1:24.797) endTick: 2806500 
1, 2803586, Note_on_c, 0, 53, 99
1, 2804880, Note_off_c, 0, 59, 0
1, 2806083, Note_off_c, 0, 79, 0
1, 2806500, Marker_t, Division 4 Length: 0:00.125 (1:24.797 - 1:24.922) endTick: 2809500 
1, 2806508, Note_on_c, 0, 84, 99
1, 2806528, Note_on_c, 0, 52, 99
1, 2806545, Note_on_c, 0, 45, 99
1, 2806555, Note_on_c, 0, 74, 99
1, 2806616, Note_on_c, 0, 71, 99
1, 2807538, Note_off_c, 0, 67, 0
1, 2807692, Note_off_c, 0, 28, 0
1, 2809263, Note_off_c, 0, 64, 0
1, 2809500, Marker_t, Division 5 Length: 0:00.125 (1:24.922 - 1:25.047) endTick: 2812500 
1, 2809557, Note_on_c, 0, 69, 99
1, 2809567, Note_on_c, 0, 115, 99
1, 2809569, Note_on_c, 0, 108, 99
1, 2809589, Note_on_c, 0, 107, 99
1, 2810556, Note_off_c, 0, 107, 0
1, 2810956, Note_off_c, 0, 50, 0
1, 2812437, Note_off_c, 0, 107, 0
1, 2812500, Marker_t, Beat 2 Length: 0:00.625 (1:25.047 - 1:25.672) endTick: 2827500 
1, 2812500, Marker_t, Division 1 Length: 0:00.208 (1:25.047 - 1:25.255) endTick: 2817500 
1, 2812539, Note_on_c, 0, 65, 99
1, 2812551, Note_on_c, 0, 67, 99
1, 2812671, Note_off_c, 0, 108, 0
1, 2812675, Note_on_c, 0, 43, 99
1, 2812702, Note_off_c, 0, 105, 0
1, 2812709, Note_on_c, 0, 35, 99
1, 2813214, Note_off_c, 0, 84, 0
1, 2815508, Note_off_c, 0, 69, 0
1, 2815794, Note_off_c, 0, 52, 0
1, 2817500, Marker_t, Division 2 Length: 0:00.208 (1:25.255 - 1:25.464) endTick: 2822500 
1, 2817537, Note_on_c, 0, 29, 99
1, 2817585, Note_off_c, 0, 43, 0
1, 2817597, Note_on_c, 0, 74, 99
1, 2817602, Note_on_c, 0, 95, 99
1, 2817699, Note_on_c, 0, 76, 99
1, 2817815, Note_off_c, 0, 53, 0
1, 2819042, Note_off_c, 0, 45, 0
1, 2819613, Note_off_c, 0, 74, 0
1, 2820072, Note_off_c, 0, 71, 0
1, 2822500, Marker_t, Division 3 Length: 0:00.208 (1:25.464 - 1:25.672) endTick: 2827500 
1, 2822562, Note_on_c, 0, 101, 99
1, 2822597, Note_on_c, 0, 91, 99
1, 2822686, Note_on_c, 0, 59, 99
1, 2822748, Note_on_c, 0, 76, 99
1, 2822920, Note_off_c, 0, 67, 0
1, 2823718, Note_off_c, 0, 115, 0
1, 2827500, Marker_t, Beat 3 Length: 0:00.625 (1:25.672 - 1:26.297) endTick: 2842500 
1, 2827500, Marker_t, Division 1 Length: 0:00.069 (1:25.672 - 1:25.741) endTick: 2829167 
1, 2827549, Note_on_c, 0, 110, 99
1, 2827550, Note_on_c, 0, 38, 99
1, 2827557, Note_on_c, 0, 72, 99
1, 2827557, Note_on_c, 0, 100, 99
1, 2828398, Note_off_c, 0, 65, 0
1, 2828591, Note_off_c, 0, 74, 0
1, 2829167, Marker_t, Division 2 Length: 0:00.069 (1:25.741 - 1:25.811) endTick: 2830833 
1, 2829186, Note_on_c, 0, 35, 99
1, 2829192, Note_on_c, 0, 103, 99
1, 2829220, Note_on_c, 0, 53, 99
1, 2830020, Note_off_c, 0, 100, 0
1, 2830320, Note_off_c, 0, 103, 0
1, 2830330, Note_off_c, 0, 35, 0
1, 2830369, Note_off_c, 0, 110, 0
1, 2830757, Note_off_c, 0, 38, 0
1, 2830833, Marker_t, Division 3 Length: 0:00.069 (1:25.811 - 1:25.880) endTick: 2832500 
1, 2830864, Note_on_c, 0, 91, 99
1, 2830878, Note_on_c, 0, 107, 99
1, 2830908, Note_on_c, 0, 55, 99
1, 2832028, Note_off_c, 0, 53, 0
1, 2832500, Marker_t, Division 4 Length: 0:00.069 (1:25.880 - 1:25.950) endTick: 2834167 
1, 2832516, Note_on_c, 0, 110, 99
1, 2832533, Note_on_c, 0, 101, 99
1, 2833485, Note_off_c, 0, 29, 0
1, 2833529, Note_off_c, 0, 72, 0
1, 2833967, Note_off_c, 0, 110, 0
1, 2834132, Note_off_c, 0, 55, 0
1, 2834167, Marker_t, Division 5 Length: 0:00.069 (1:25.950 - 1:26.019) endTick: 2835833 
1, 2834223, Note_on_c, 0, 35, 99
1, 2835833, Marker_t, Division 6 Length: 0:00.069 (1:26.019 - 1:26.089) endTick: 2837500 
1, 2835898, Note_on_c, 0, 41, 99
1, 2835906, Note_on_c, 0, 91, 99
1, 2836197, Note_off_c, 0, 107, 0
1, 2836519, Note_off_c, 0, 91, 0
1, 2836753, Note_off_c, 0, 95, 0
1, 2836833, Note_off_c, 0, 41, 0
1, 2837157, Note_off_c, 0, 91, 0
1, 2837495, Note_off_c, 0, 35, 0
1, 2837500, Marker_t, Division 7 Length: 0:00.069 (1:26.089 - 1:26.158) endTick: 2839167 
1, 2837522, Note_on_c, 0, 105, 99
1, 2837541, Note_on_c, 0, 103, 99
1, 2837563, Note_on_c, 0, 52, 99
1, 2837567, Note_on_c, 0, 72, 99
1, 2837758, Note_off_c, 0, 59, 0
1, 2838393, Note_off_c, 0, 76, 0
1, 2838442, Note_off_c, 0, 91, 0
1, 2839167, Marker_t, Division 8 Length: 0:00.069 (1:26.158 - 1:26.227) endTick: 2840833 
1, 2839186, Note_on_c, 0, 74, 99
1, 2839187, Note_on_c, 0, 119, 99
1, 2839199, Note_on_c, 0, 50, 99
1, 2839211, Note_on_c, 0, 48, 99
1, 2839226, Note_on_c, 0, 71, 99
1, 2839803, Note_off_c, 0, 101, 0
1, 2840167, Note_off_c, 0, 71, 0
1, 2840833, Marker_t, Division 9 Length: 0:00.069 (1:26.227 - 1:26.297) endTick: 2842500 
1, 2840844, Note_on_c, 0, 24, 99
1, 2840866, Note_on_c, 0, 76, 99
1, 2840888, Note_on_c, 0, 76, 99
1, 2840894, Note_on_c, 0, 47, 99
1, 2840907, Note_on_c, 0, 115, 99
1, 2840910, Note_on_c, 0, 105, 99
1, 2841231, Note_off_c, 0, 24, 0
1, 2841463, Note_off_c, 0, 76, 0
1, 2841583, Note_off_c, 0, 105, 0
1, 2841800, Note_off_c, 0, 72, 0
1, 2841913, Note_off_c, 0, 35, 0
1, 2842500, Marker_t, Beat 4 Length: 0:00.625 (1:26.297 - 1:26.922) endTick: 2857500 
1, 2842500, Marker_t, Division 1 Length: 0:00.313 (1:26.297 - 1:26.609) endTick: 2850000 
1, 2842703, Note_off_c, 0, 52, 0
1, 2842717, Note_on_c, 0, 38, 99
1, 2842821, Note_on_c, 0, 79, 99
1, 2842861, Note_on_c, 0, 96, 99
1, 2843340, Note_off_c, 0, 76, 0
1, 2843396, Note_off_c, 0, 119, 0
1, 2844422, Note_off_c, 0, 103, 0
1, 2844575, Note_off_c, 0, 50, 0
1, 2844617, Note_off_c, 0, 76, 0
1, 2844935, Note_off_c, 0, 47, 0
1, 2845393, Note_off_c, 0, 74, 0
1, 2845407, Note_off_c, 0, 105, 0
1, 2846198, Note_off_c, 0, 48, 0
1, 2847078, Note_off_c, 0, 101, 0
1, 2848153, Note_off_c, 0, 115, 0
1, 2850000, Marker_t, Division 2 Length: 0:00.313 (1:26.609 - 1:26.922) endTick: 2857500 
1, 2850112, Note_on_c, 0, 84, 99
1, 2850125, Note_on_c, 0, 113, 99
1, 2850276, Note_on_c, 0, 50, 99
1, 2850297, Note_on_c, 0, 57, 99
1, 2850349, Note_on_c, 0, 60, 99
1, 2850373, Note_on_c, 0, 84, 99
1, 2851810, Note_off_c, 0, 96, 0
1, 2857500, Marker_t, Beat 5 Length: 0:00.625 (1:26.922 - 1:27.547) endTick: 2872500 
1, 2857500, Marker_t, Division 1 Length: 0:00.313 (1:26.922 - 1:27.234) endTick: 2865000 
1, 2857558, Note_on_c, 0, 35, 99
1, 2857738, Note_on_c, 0, 31, 99
1, 2864607, Note_off_c, 0, 38, 0
1, 2865000, Marker_t, Division 2 Length: 0:00.313 (1:27.234 - 1:27.547) endTick: 2872500 
1, 2865183, Note_on_c, 0, 112, 99
1, 2865299, Note_on_c, 0, 81, 99
1, 2865318, Note_on_c, 0, 26, 99
1, 2866010, Note_off_c, 0, 79, 0
1, 2866514, Note_off_c, 0, 50, 0
1, 2866568, Note_off_c, 0, 35, 0
1, 2867239, Note_off_c, 0, 26, 0
1, 2872384, Note_off_c, 0, 57, 0
1, 2872500, Marker_t, Beat 6 Length: 0:00.625 (1:27.547 - 1:28.172) endTick: 2887500 
1, 2872500, Marker_t, Division 1 Length: 0:00.125 (1:27.547 - 1:27.672) endTick: 2875500 
1, 2872510, Note_on_c, 0, 38, 99
1, 2872538, Note_on_c, 0, 52, 99
1, 2872566, Note_on_c, 0, 119, 99
1, 2872569, Note_on_c, 0, 40, 99
1, 2872626, Note_on_c, 0, 103, 99
1, 2875256, Note_off_c, 0, 113, 0
1, 2875500, Marker_t, Division 2 Length: 0:00.125 (1:27.672 - 1:27.797) endTick: 2878500 
1, 2875594, Note_on_c, 0, 72, 99
1, 2875751, Note_off_c, 0, 112, 0
1, 2876273, Note_off_c, 0, 84, 0
1, 2876445, Note_off_c, 0, 52, 0
1, 2876790, Note_off_c, 0, 103, 0
1, 2877695, Note_off_c, 0, 60, 0
1, 2878500, Marker_t, Division 3 Length: 0:00.125 (1:27.797 - 1:27.922) endTick: 2881500 
1, 2878503, Note_on_c, 0, 69, 99
1, 2879093, Note_off_c, 0, 119, 0
1, 2880616, Note_off_c, 0, 69, 0
1, 2881500, Marker_t, Division 4 Length: 0:00.125 (1:27.922 - 1:28.047) endTick: 2884500 
1, 2881529, Note_on_c, 0, 119, 99
1, 2882724, Note_off_c, 0, 84, 0
1, 2884498, Note_off_c, 0, 38, 0
1, 2884500, Marker_t, Division 5 Length: 0:00.125 (1:28.047 - 1:28.172) endTick: 2887500 
1, 2884647, Note_on_c, 0, 36, 99
1, 2887234, Note_off_c, 0, 40, 0
1, 2887500, Marker_t, Beat 7 Length: 0:00.625 (1:28.172 - 1:28.797) endTick: 2902500 
1, 2887500, Marker_t, Division 1 Length: 0:00.104 (1:28.172 - 1:28.276) endTick: 2890000 
1, 2887548, Note_on_c, 0, 47, 99
1, 2887965, Note_off_c, 0, 72, 0
1, 2889396, Note_off_c, 0, 31, 0
1, 2890000, Marker_t, Division 2 Length: 0:00.104 (1:28.276 - 1:28.380) endTick: 2892500 
1, 2890057, Note_on_c, 0, 117, 99
1, 2890086, Note_on_c, 0, 55, 99
1, 2890120, Note_on_c, 0, 112, 99
1, 2890241, Note_off_c, 0, 47, 0
1, 2892500, Marker_t, Division 3 Length: 0:00.104 (1:28.380 - 1:28.484) endTick: 2895000 
1, 2892559, Note_on_c, 0, 103, 99
1, 2892598, Note_on_c, 0, 29, 99
1, 2892986, Note_off_c, 0, 112, 0
1, 2895000, Marker_t, Division 4 Length: 0:00.104 (1:28.484 - 1:28.589) endTick: 2897500 
1, 2895047, Note_on_c, 0, 47, 99
1, 2895066, Note_on_c, 0, 35, 99
1, 2895072, Note_on_c, 0, 110, 99
1, 2895110, Note_on_c, 0, 72, 99
1, 2895474, Note_off_c, 0, 55, 0
1, 2896323, Note_off_c, 0, 119, 0
1, 2897500, Marker_t, Division 5 Length: 0:00.104 (1:28.589 - 1:28.693) endTick: 2900000 
1, 2897537, Note_on_c, 0, 72, 99
1, 2897543, Note_on_c, 0, 71, 99
1, 2897620, Note_on_c, 0, 103, 99
1, 2898037, Note_off_c, 0, 81, 0
1, 2898471, Note_off_c, 0, 117, 0
1, 2898626, Note_off_c, 0, 103, 0
1, 2899269, Note_off_c, 0, 36, 0
1, 2899296, Note_off_c, 0, 35, 0
1, 2900000, Marker_t, Division 6 Length: 0:00.104 (1:28.693 - 1:28.797) endTick: 2902500 
1, 2900031, Note_on_c, 0, 93, 99
1, 2900087, Note_on_c, 0, 67, 99
1, 2900112, Note_on_c, 0, 28, 99
1, 2901176, Note_off_c, 0, 103, 0
1, 2901304, Note_off_c, 0, 47, 0
1, 2901437, Note_off_c, 0, 110, 0
1, 2902005, Note_off_c, 0, 29, 0
1, 2902344, Note_off_c, 0, 28, 0
1, 2902500, Marker_t, Beat 8 Length: 0:00.625 (1:28.797 - 1:29.422) endTick: 2917500 
1, 2902500, Marker_t, Division 1 Length: 0:00.313 (1:28.797 - 1:29.109) endTick: 2910000 
1, 2902521, Note_on_c, 0, 36, 99
1, 2902525, Note_on_c, 0, 71, 99
1, 2902669, Note_on_c, 0, 26, 99
1, 2902721, Note_on_c, 0, 43, 99
1, 2902738, Note_off_c, 0, 72, 0
1, 2902755, Note_on_c, 0, 53, 99
1, 2905845, Note_off_c, 0, 67, 0
1, 2906289, Note_off_c, 0, 71, 0
1, 2906886, Note_off_c, 0, 72, 0
1, 2907320, Note_off_c, 0, 53, 0
1, 2907850, Note_off_c, 0, 93, 0
1, 2910000, Marker_t, Division 2 Length: 0:00.313 (1:29.109 - 1:29.422) endTick: 2917500 
1, 2910012, Note_on_c, 0, 86, 99
1, 2910154, Note_on_c, 0, 57, 99
1, 2910174, Note_on_c, 0, 115, 99
1, 2910282, Note_on_c, 0, 47, 99
1, 2910325, Note_on_c, 0, 60, 99
1, 2912487, Note_off_c, 0, 86, 0
1, 2913780, Note_off_c, 0, 115, 0
1, 2915020, Note_off_c, 0, 57, 0
1, 2917655, Note_off_c, 0, 71, 0
1, 2917989, Note_off_c, 0, 60, 0
1, 2922943, Note_off_c, 0, 47, 0
1, 2923167, Note_off_c, 0, 36, 0
1, 2933183, Note_off_c, 0, 43, 0
1, 2933959, Note_off_c, 0, 26, 0
1, 3053959, End_track
0, 3053959, End_of_file