{"layer":"L1","beatKey":"0:0:0:0","timeMs":0,"snap":{"key":"D#","mode":"locrian","quality":"minor","scale":["D#","E","F#","G#","A","B","C#"],"chords":[],"tension":0.06323152070303019,"harmonicRhythm":0.091,"harmonicMutationCount":2,"excursion":0,"sectionPhase":"opening","phrasePosition":0,"phrasePhase":"opening","phraseDynamism":1,"registerBias":-6,"densityMultiplier":0.8,"voiceIndependence":0.5,"compositeIntensity":0.4009125,"playProb":0.264188203125,"stutterProb":0.22612671874999998,"flicker":1.101127457318893,"textureMode":"single","textureFatigue":0,"densityBias":0,"crossModBias":1,"emissionRatio":1,"extraDensityCorrection":1,"extraCoherenceDensityBias":1,"activeProfile":"restrained","journeyMove":"origin","journeyDistance":0,"journeyKey":"D#","journeyMode":"locrian","binauralFreqOffset":7,"binauralFlip":true,"tick":0,"updatedAt":1772748871839},"negotiation":{"playProb":0.20175055597071828,"stutterProb":0.18704641495567473,"allowCadence":false,"conflict":0.1875,"phaseConfidence":0},"trust":{"stutterContagion":{"score":0.05,"samples":1,"weight":1.0375},"cadenceAlignment":{"score":0.231768,"samples":1,"weight":1.173826},"phaseLock":{"score":0.05,"samples":1,"weight":1.0375},"convergence":{"score":0.05,"samples":1,"weight":1.0375},"feedbackOscillator":{"score":0.05,"samples":1,"weight":1.0375},"coherenceMonitor":{"score":0.0774225,"samples":1,"weight":1.058066875},"entropyRegulator":{"score":0.05,"samples":1,"weight":1.0375},"restSynchronizer":{"score":0.232767,"samples":1,"weight":1.17457525}},"regime":"initializing","coupling":{},"couplingTargets":{},"axisCouplingTotals":{"density":0,"tension":0,"flicker":0,"entropy":0,"trust":0,"phase":0},"axisEnergyShare":{"shares":{"density":0,"tension":0,"flicker":0,"entropy":0,"trust":0,"phase":0},"axisGini":0},"couplingGates":{"gateD":1,"gateT":1,"gateF":1,"floorDampen":1,"bypassD":0,"bypassT":0,"bypassF":0,"gateMinD":1,"gateMinT":1,"gateMinF":1,"gateEmaD":1,"gateEmaT":1,"gateEmaF":1,"gateBeatCount":1},"couplingHomeostasis":{"totalEnergyEma":0,"energyBudget":3.5,"peakEnergyEma":0,"totalEnergyFloor":8,"floorDampen":1,"redistributionScore":0,"nudgeableRedistributionScore":0,"globalGainMultiplier":1,"giniCoefficient":0,"energyDeltaEma":0,"pairTurbulenceEma":0,"beatCount":0,"invokeCount":1,"tickCount":1,"emptyMatrixBeats":1,"multiplierMin":1,"multiplierMax":1,"multiplierStdDev":0,"floorContactBeats":0,"ceilingContactBeats":1,"avgRecoveryDuration":0},"axisEnergyEquilibrator":{"beatCount":1,"pairAdjustments":0,"axisAdjustments":0,"smoothedShares":{"density":0,"tension":0,"flicker":0,"entropy":0,"trust":0,"phase":0},"perAxisAdj":{},"perPairAdj":{},"lastBaselines":{},"regimeBeats":{},"regimePairAdj":{},"regimeAxisAdj":{},"regimeTightenBudget":{}},"transitionReadiness":{"gap":0,"couplingStrength":0,"coherentThreshold":0,"velocity":0,"velThreshold":0.008,"thresholdScale":0.65,"velocityBlocked":false,"exploringBlock":"velocity","rawRegimeCounts":{},"rawRegimeMaxStreak":{},"effectiveDim":0},"notes":[{"pitch":20,"velocity":82,"channel":0}],"stageTiming":{"beat-setup":26.2439,"intent":0.2552,"entropy":0.1441,"phase":0.3852,"climax":0.3839,"envelope":0.3379,"silhouette":0.5256,"rest":0.2744,"complement":0.0835,"tension-cadence":0.1243,"negotiation":0.5743,"probability-adjust":0.0727,"emission":14.4405,"post-beat":0.2245},"iterBudget":{"raw":48,"capped":48,"wasCapped":false}}
{"layer":"L1","beatKey":"0:0:0:1","timeMs":166.66666666666666,"snap":{"key":"D#","mode":"locrian","quality":"minor","scale":["D#","E","F#","G#","A","B","C#"],"chords":[],"tension":0.06323152070303019,"harmonicRhythm":0.091,"harmonicMutationCount":2,"excursion":0,"sectionPhase":"opening","phrasePosition":0,"phrasePhase":"opening","phraseDynamism":1,"registerBias":-6,"densityMultiplier":0.8,"voiceIndependence":0.5,"compositeIntensity":0.3883016546708308,"playProb":0.264188203125,"stutterProb":0.22612671874999998,"flicker":1.101127457318893,"textureMode":"flurry","textureFatigue":0.06999999999999999,"densityBias":0,"crossModBias":1,"emissionRatio":1,"extraDensityCorrection":1,"extraCoherenceDensityBias":1,"activeProfile":"restrained","journeyMove":"origin","journeyDistance":0,"journeyKey":"D#","journeyMode":"locrian","binauralFreqOffset":7,"binauralFlip":true,"tick":0,"updatedAt":1772748872191},"negotiation":{"playProb":0.2146267330590713,"stutterProb":0.19787113982058224,"allowCadence":false,"conflict":0.13632599999999995,"phaseConfidence":0},"trust":{"stutterContagion":{"score":0.09134802992172923,"samples":2,"weight":1.0685110224412968},"cadenceAlignment":{"score":0.2153756088,"samples":2,"weight":1.1615317066},"phaseLock":{"score":0.05994000000000001,"samples":2,"weight":1.044955},"convergence":{"score":0.064935,"samples":2,"weight":1.04870125},"feedbackOscillator":{"score":0.05694300000000001,"samples":2,"weight":1.04270725},"coherenceMonitor":{"score":0.13389736995664112,"samples":2,"weight":1.1004230274674809},"entropyRegulator":{"score":0.10554300409216301,"samples":2,"weight":1.0791572530691222},"restSynchronizer":{"score":0.2172728097,"samples":2,"weight":1.162954607275}},"regime":"initializing","coupling":{},"couplingTargets":{},"axisCouplingTotals":{"density":0,"tension":0,"flicker":0,"entropy":0,"trust":0,"phase":0},"axisEnergyShare":{"shares":{"density":0,"tension":0,"flicker":0,"entropy":0,"trust":0,"phase":0},"axisGini":0},"couplingGates":{"gateD":1,"gateT":1,"gateF":1,"floorDampen":1,"bypassD":0,"bypassT":0,"bypassF":0,"gateMinD":1,"gateMinT":1,"gateMinF":1,"gateEmaD":1,"gateEmaT":1,"gateEmaF":1,"gateBeatCount":1},"couplingHomeostasis":{"totalEnergyEma":0,"energyBudget":3.5,"peakEnergyEma":0,"totalEnergyFloor":8,"floorDampen":1,"redistributionScore":0,"nudgeableRedistributionScore":0,"globalGainMultiplier":1,"giniCoefficient":0,"energyDeltaEma":0,"pairTurbulenceEma":0,"beatCount":0,"invokeCount":1,"tickCount":2,"emptyMatrixBeats":1,"multiplierMin":1,"multiplierMax":1,"multiplierStdDev":0,"floorContactBeats":0,"ceilingContactBeats":2,"avgRecoveryDuration":0},"axisEnergyEquilibrator":{"beatCount":1,"pairAdjustments":0,"axisAdjustments":0,"smoothedShares":{"density":0,"tension":0,"flicker":0,"entropy":0,"trust":0,"phase":0},"perAxisAdj":{},"perPairAdj":{},"lastBaselines":{},"regimeBeats":{},"regimePairAdj":{},"regimeAxisAdj":{},"regimeTightenBudget":{}},"transitionReadiness":{"gap":0,"couplingStrength":0,"coherentThreshold":0,"velocity":0,"velThreshold":0.008,"thresholdScale":0.65,"velocityBlocked":false,"exploringBlock":"velocity","rawRegimeCounts":{},"rawRegimeMaxStreak":{},"effectiveDim":0},"notes":[{"pitch":37,"velocity":63,"channel":0},{"pitch":30,"velocity":75,"channel":0},{"pitch":59,"velocity":85,"channel":0},{"pitch":35,"velocity":78,"channel":0},{"pitch":83,"velocity":55,"channel":0},{"pitch":56,"velocity":83,"channel":0},{"pitch":56,"velocity":79,"channel":0},{"pitch":56,"velocity":72,"channel":0},{"pitch":56,"velocity":74,"channel":0},{"pitch":56,"velocity":65,"channel":0},{"pitch":56,"velocity":73,"channel":0},{"pitch":59,"velocity":70,"channel":0},{"pitch":59,"velocity":79,"channel":0},{"pitch":42,"velocity":84,"channel":0},{"pitch":42,"velocity":71,"channel":0},{"pitch":42,"velocity":66,"channel":0},{"pitch":42,"velocity":86,"channel":0},{"pitch":42,"velocity":76,"channel":0},{"pitch":59,"velocity":78,"channel":0},{"pitch":27,"velocity":72,"channel":0},{"pitch":27,"velocity":72,"channel":0},{"pitch":51,"velocity":72,"channel":0},{"pitch":35,"velocity":76,"channel":0},{"pitch":59,"velocity":77,"channel":0},{"pitch":35,"velocity":85,"channel":0},{"pitch":35,"velocity":74,"channel":0},{"pitch":35,"velocity":69,"channel":0},{"pitch":47,"velocity":86,"channel":0},{"pitch":51,"velocity":72,"channel":0},{"pitch":51,"velocity":79,"channel":0},{"pitch":51,"velocity":81,"channel":0},{"pitch":51,"velocity":69,"channel":0},{"pitch":56,"velocity":67,"channel":0},{"pitch":44,"velocity":81,"channel":0},{"pitch":56,"velocity":75,"channel":0},{"pitch":78,"velocity":64,"channel":0},{"pitch":54,"velocity":75,"channel":0},{"pitch":54,"velocity":71,"channel":0},{"pitch":59,"velocity":71,"channel":0},{"pitch":59,"velocity":75,"channel":0},{"pitch":80,"velocity":73,"channel":0},{"pitch":47,"velocity":76,"channel":0},{"pitch":78,"velocity":67,"channel":0},{"pitch":42,"velocity":71,"channel":0},{"pitch":54,"velocity":76,"channel":0},{"pitch":54,"velocity":63,"channel":0},{"pitch":90,"velocity":67,"channel":0},{"pitch":47,"velocity":64,"channel":0},{"pitch":47,"velocity":71,"channel":0},{"pitch":54,"velocity":70,"channel":0},{"pitch":54,"velocity":62,"channel":0},{"pitch":54,"velocity":79,"channel":0},{"pitch":75,"velocity":84,"channel":0},{"pitch":11,"velocity":81,"channel":0}],"stageTiming":{"beat-setup":8.599,"intent":0.0493,"entropy":0.9165,"phase":0.0275,"climax":0.0315,"envelope":0.0182,"silhouette":0.0605,"rest":0.0624,"complement":0.0032,"tension-cadence":0.1714,"negotiation":0.1433,"probability-adjust":0.0114,"emission":3.2651,"post-beat":0.0632},"iterBudget":{"raw":560,"capped":392,"wasCapped":true}}
{"layer":"L1","beatKey":"0:0:0:2","timeMs":333.3333333333333,"snap":{"key":"D#","mode":"locrian","quality":"minor","scale":["D#","E","F#","G#","A","B","C#"],"chords":[],"tension":0.06323152070303019,"harmonicRhythm":0.091,"harmonicMutationCount":2,"excursion":0,"sectionPhase":"opening","phrasePosition":0,"phrasePhase":"opening","phraseDynamism":1,"registerBias":-6,"densityMultiplier":0.8,"voiceIndependence":0.5,"compositeIntensity":0.431507178171157,"playProb":0.264188203125,"stutterProb":0.22612671874999998,"flicker":1.101127457318893,"textureMode":"chordBurst","textureFatigue":0.225,"densityBias":0,"crossModBias":1,"emissionRatio":1,"extraDensityCorrection":1,"extraCoherenceDensityBias":1,"activeProfile":"restrained","journeyMove":"origin","journeyDistance":0,"journeyKey":"D#","journeyMode":"locrian","binauralFreqOffset":7,"binauralFlip":true,"tick":0,"updatedAt":1772748874906},"negotiation":{"playProb":0.21801026137440493,"stutterProb":0.20143241887031782,"allowCadence":false,"conflict":0.09302068415870313,"phaseConfidence":0},"trust":{"stutterContagion":{"score":0.12805590395373942,"samples":3,"weight":1.0960419279653046},"cadenceAlignment":{"score":0.20063720987208,"samples":3,"weight":1.15047790740406},"phaseLock":{"score":0.06887705400000001,"samples":3,"weight":1.0516577905},"convergence":{"score":0.07836305850000001,"samples":3,"weight":1.058772293875},"feedbackOscillator":{"score":0.0631854513,"samples":3,"weight":1.047389088475},"coherenceMonitor":{"score":0.18518943004587335,"samples":3,"weight":1.138892072534405},"entropyRegulator":{"score":0.1633507621420888,"samples":3,"weight":1.1225130716065665},"restSynchronizer":{"score":0.20334198320127003,"samples":3,"weight":1.1525064874009525}},"regime":"initializing","coupling":{},"couplingTargets":{},"axisCouplingTotals":{"density":0,"tension":0,"flicker":0,"entropy":0,"trust":0,"phase":0},"axisEnergyShare":{"shares":{"density":0,"tension":0,"flicker":0,"entropy":0,"trust":0,"phase":0},"axisGini":0},"couplingGates":{"gateD":1,"gateT":1,"gateF":1,"floorDampen":1,"bypassD":0,"bypassT":0,"bypassF":0,"gateMinD":1,"gateMinT":1,"gateMinF":1,"gateEmaD":1,"gateEmaT":1,"gateEmaF":1,"gateBeatCount":1},"couplingHomeostasis":{"totalEnergyEma":0,"energyBudget":3.5,"peakEnergyEma":0,"totalEnergyFloor":8,"floorDampen":1,"redistributionScore":0,"nudgeableRedistributionScore":0,"globalGainMultiplier":1,"giniCoefficient":0,"energyDeltaEma":0,"pairTurbulenceEma":0,"beatCount":0,"invokeCount":1,"tickCount":3,"emptyMatrixBeats":1,"multiplierMin":1,"multiplierMax":1,"multiplierStdDev":0,"floorContactBeats":0,"ceilingContactBeats":3,"avgRecoveryDuration":0},"axisEnergyEquilibrator":{"beatCount":1,"pairAdjustments":0,"axisAdjustments":0,"smoothedShares":{"density":0,"tension":0,"flicker":0,"entropy":0,"trust":0,"phase":0},"perAxisAdj":{},"perPairAdj":{},"lastBaselines":{},"regimeBeats":{},"regimePairAdj":{},"regimeAxisAdj":{},"regimeTightenBudget":{}},"transitionReadiness":{"gap":0,"couplingStrength":0,"coherentThreshold":0,"velocity":0,"velThreshold":0.008,"thresholdScale":0.65,"velocityBlocked":false,"exploringBlock":"velocity","rawRegimeCounts":{},"rawRegimeMaxStreak":{},"effectiveDim":0},"notes":[{"pitch":35,"velocity":74,"channel":0},{"pitch":35,"velocity":66,"channel":0},{"pitch":35,"velocity":56,"channel":0},{"pitch":73,"velocity":66,"channel":0},{"pitch":13,"velocity":74,"channel":0},{"pitch":13,"velocity":74,"channel":0},{"pitch":8,"velocity":68,"channel":0},{"pitch":25,"velocity":66,"channel":0},{"pitch":15,"velocity":75,"channel":0},{"pitch":15,"velocity":82,"channel":0},{"pitch":15,"velocity":64,"channel":0},{"pitch":15,"velocity":68,"channel":0},{"pitch":27,"velocity":65,"channel":0},{"pitch":15,"velocity":68,"channel":0},{"pitch":15,"velocity":70,"channel":0},{"pitch":15,"velocity":61,"channel":0},{"pitch":15,"velocity":78,"channel":0},{"pitch":15,"velocity":66,"channel":0},{"pitch":51,"velocity":66,"channel":0},{"pitch":15,"velocity":66,"channel":0},{"pitch":6,"velocity":70,"channel":0},{"pitch":6,"velocity":69,"channel":0},{"pitch":11,"velocity":61,"channel":0},{"pitch":11,"velocity":64,"channel":0},{"pitch":20,"velocity":73,"channel":0},{"pitch":11,"velocity":70,"channel":0},{"pitch":59,"velocity":76,"channel":0},{"pitch":6,"velocity":58,"channel":0},{"pitch":95,"velocity":72,"channel":0},{"pitch":59,"velocity":67,"channel":0},{"pitch":11,"velocity":55,"channel":0},{"pitch":59,"velocity":72,"channel":0},{"pitch":18,"velocity":66,"channel":0},{"pitch":54,"velocity":78,"channel":0},{"pitch":78,"velocity":61,"channel":0},{"pitch":83,"velocity":77,"channel":0},{"pitch":11,"velocity":70,"channel":0},{"pitch":11,"velocity":75,"channel":0},{"pitch":11,"velocity":58,"channel":0},{"pitch":11,"velocity":58,"channel":0},{"pitch":11,"velocity":64,"channel":0},{"pitch":13,"velocity":68,"channel":0},{"pitch":13,"velocity":62,"channel":0},{"pitch":13,"velocity":69,"channel":0},{"pitch":13,"velocity":55,"channel":0},{"pitch":13,"velocity":77,"channel":0},{"pitch":13,"velocity":67,"channel":0},{"pitch":11,"velocity":68,"channel":0},{"pitch":11,"velocity":70,"channel":0},{"pitch":11,"velocity":54,"channel":0},{"pitch":83,"velocity":79,"channel":0},{"pitch":11,"velocity":69,"channel":0},{"pitch":11,"velocity":68,"channel":0},{"pitch":11,"velocity":69,"channel":0},{"pitch":59,"velocity":76,"channel":0},{"pitch":18,"velocity":66,"channel":0},{"pitch":59,"velocity":80,"channel":0},{"pitch":11,"velocity":72,"channel":0},{"pitch":11,"velocity":66,"channel":0},{"pitch":11,"velocity":77,"channel":0},{"pitch":11,"velocity":61,"channel":0},{"pitch":95,"velocity":60,"channel":0},{"pitch":11,"velocity":70,"channel":0},{"pitch":11,"velocity":70,"channel":0},{"pitch":11,"velocity":72,"channel":0},{"pitch":83,"velocity":54,"channel":0},{"pitch":11,"velocity":67,"channel":0},{"pitch":23,"velocity":59,"channel":0},{"pitch":11,"velocity":74,"channel":0},{"pitch":11,"velocity":64,"channel":0},{"pitch":83,"velocity":64,"channel":0},{"pitch":11,"velocity":61,"channel":0},{"pitch":11,"velocity":67,"channel":0},{"pitch":11,"velocity":69,"channel":0},{"pitch":11,"velocity":78,"channel":0},{"pitch":11,"velocity":73,"channel":0},{"pitch":11,"velocity":68,"channel":0},{"pitch":11,"velocity":65,"channel":0},{"pitch":11,"velocity":78,"channel":0},{"pitch":11,"velocity":71,"channel":0},{"pitch":11,"velocity":69,"channel":0},{"pitch":11,"velocity":65,"channel":0},{"pitch":83,"velocity":64,"channel":0},{"pitch":23,"velocity":71,"channel":0},{"pitch":20,"velocity":62,"channel":0},{"pitch":30,"velocity":61,"channel":0},{"pitch":54,"velocity":61,"channel":0},{"pitch":30,"velocity":65,"channel":0},{"pitch":30,"velocity":79,"channel":0},{"pitch":30,"velocity":61,"channel":0},{"pitch":25,"velocity":75,"channel":0},{"pitch":30,"velocity":66,"channel":0},{"pitch":25,"velocity":70,"channel":0},{"pitch":30,"velocity":63,"channel":0},{"pitch":42,"velocity":52,"channel":0},{"pitch":49,"velocity":61,"channel":0},{"pitch":49,"velocity":68,"channel":0},{"pitch":37,"velocity":70,"channel":0},{"pitch":25,"velocity":81,"channel":0},{"pitch":30,"velocity":69,"channel":0},{"pitch":30,"velocity":72,"channel":0},{"pitch":30,"velocity":61,"channel":0},{"pitch":30,"velocity":75,"channel":0},{"pitch":30,"velocity":67,"channel":0},{"pitch":54,"velocity":62,"channel":0},{"pitch":49,"velocity":71,"channel":0},{"pitch":30,"velocity":77,"channel":0},{"pitch":30,"velocity":67,"channel":0},{"pitch":30,"velocity":67,"channel":0},{"pitch":30,"velocity":61,"channel":0},{"pitch":30,"velocity":57,"channel":0},{"pitch":25,"velocity":72,"channel":0},{"pitch":25,"velocity":72,"channel":0},{"pitch":25,"velocity":70,"channel":0},{"pitch":30,"velocity":60,"channel":0},{"pitch":25,"velocity":63,"channel":0},{"pitch":25,"velocity":80,"channel":0},{"pitch":25,"velocity":70,"channel":0},{"pitch":39,"velocity":57,"channel":0},{"pitch":87,"velocity":53,"channel":0},{"pitch":39,"velocity":61,"channel":0},{"pitch":39,"velocity":62,"channel":0},{"pitch":75,"velocity":65,"channel":0},{"pitch":39,"velocity":66,"channel":0},{"pitch":25,"velocity":66,"channel":0},{"pitch":42,"velocity":77,"channel":0},{"pitch":35,"velocity":66,"channel":0},{"pitch":23,"velocity":72,"channel":0},{"pitch":30,"velocity":50,"channel":0},{"pitch":30,"velocity":78,"channel":0},{"pitch":30,"velocity":67,"channel":0},{"pitch":30,"velocity":78,"channel":0},{"pitch":32,"velocity":83,"channel":0},{"pitch":51,"velocity":72,"channel":0},{"pitch":49,"velocity":77,"channel":0},{"pitch":73,"velocity":64,"channel":0},{"pitch":49,"velocity":63,"channel":0},{"pitch":73,"velocity":60,"channel":0},{"pitch":49,"velocity":71,"channel":0},{"pitch":49,"velocity":66,"channel":0},{"pitch":37,"velocity":56,"channel":0},{"pitch":37,"velocity":60,"channel":0},{"pitch":44,"velocity":56,"channel":0},{"pitch":92,"velocity":69,"channel":0},{"pitch":39,"velocity":66,"channel":0},{"pitch":39,"velocity":65,"channel":0},{"pitch":44,"velocity":78,"channel":0},{"pitch":44,"velocity":55,"channel":0},{"pitch":85,"velocity":77,"channel":0},{"pitch":44,"velocity":65,"channel":0},{"pitch":56,"velocity":69,"channel":0},{"pitch":51,"velocity":67,"channel":0},{"pitch":51,"velocity":67,"channel":0},{"pitch":51,"velocity":70,"channel":0},{"pitch":56,"velocity":63,"channel":0},{"pitch":37,"velocity":79,"channel":0},{"pitch":44,"velocity":68,"channel":0},{"pitch":44,"velocity":65,"channel":0},{"pitch":44,"velocity":68,"channel":0},{"pitch":44,"velocity":67,"channel":0},{"pitch":56,"velocity":74,"channel":0},{"pitch":44,"velocity":66,"channel":0},{"pitch":44,"velocity":54,"channel":0},{"pitch":56,"velocity":72,"channel":0},{"pitch":92,"velocity":66,"channel":0},{"pitch":44,"velocity":78,"channel":0},{"pitch":75,"velocity":74,"channel":0},{"pitch":44,"velocity":55,"channel":0},{"pitch":44,"velocity":59,"channel":0},{"pitch":37,"velocity":70,"channel":0},{"pitch":44,"velocity":63,"channel":0},{"pitch":44,"velocity":59,"channel":0},{"pitch":44,"velocity":64,"channel":0},{"pitch":44,"velocity":64,"channel":0},{"pitch":56,"velocity":60,"channel":0},{"pitch":44,"velocity":66,"channel":0},{"pitch":44,"velocity":71,"channel":0},{"pitch":44,"velocity":72,"channel":0},{"pitch":44,"velocity":71,"channel":0},{"pitch":44,"velocity":61,"channel":0},{"pitch":27,"velocity":72,"channel":0},{"pitch":35,"velocity":59,"channel":0},{"pitch":59,"velocity":74,"channel":0},{"pitch":42,"velocity":81,"channel":0},{"pitch":42,"velocity":65,"channel":0},{"pitch":42,"velocity":66,"channel":0},{"pitch":27,"velocity":78,"channel":0},{"pitch":39,"velocity":70,"channel":0},{"pitch":39,"velocity":72,"channel":0},{"pitch":39,"velocity":74,"channel":0},{"pitch":39,"velocity":64,"channel":0},{"pitch":39,"velocity":78,"channel":0},{"pitch":75,"velocity":72,"channel":0},{"pitch":39,"velocity":65,"channel":0},{"pitch":27,"velocity":84,"channel":0},{"pitch":39,"velocity":68,"channel":0},{"pitch":39,"velocity":70,"channel":0},{"pitch":51,"velocity":63,"channel":0},{"pitch":39,"velocity":69,"channel":0},{"pitch":75,"velocity":61,"channel":0},{"pitch":27,"velocity":66,"channel":0},{"pitch":51,"velocity":66,"channel":0},{"pitch":39,"velocity":61,"channel":0},{"pitch":39,"velocity":66,"channel":0},{"pitch":39,"velocity":74,"channel":0},{"pitch":39,"velocity":66,"channel":0},{"pitch":27,"velocity":75,"channel":0},{"pitch":75,"velocity":81,"channel":0},{"pitch":39,"velocity":76,"channel":0},{"pitch":44,"velocity":72,"channel":0},{"pitch":32,"velocity":75,"channel":0},{"pitch":44,"velocity":68,"channel":0},{"pitch":49,"velocity":64,"channel":0},{"pitch":44,"velocity":75,"channel":0},{"pitch":56,"velocity":71,"channel":0},{"pitch":49,"velocity":66,"channel":0},{"pitch":73,"velocity":58,"channel":0},{"pitch":39,"velocity":64,"channel":0},{"pitch":39,"velocity":61,"channel":0},{"pitch":39,"velocity":73,"channel":0},{"pitch":27,"velocity":68,"channel":0},{"pitch":39,"velocity":60,"channel":0},{"pitch":39,"velocity":68,"channel":0},{"pitch":39,"velocity":68,"channel":0},{"pitch":87,"velocity":69,"channel":0},{"pitch":51,"velocity":60,"channel":0},{"pitch":51,"velocity":67,"channel":0},{"pitch":39,"velocity":73,"channel":0},{"pitch":51,"velocity":70,"channel":0},{"pitch":39,"velocity":71,"channel":0},{"pitch":32,"velocity":77,"channel":0},{"pitch":49,"velocity":67,"channel":0},{"pitch":49,"velocity":65,"channel":0},{"pitch":49,"velocity":68,"channel":0},{"pitch":73,"velocity":67,"channel":0},{"pitch":49,"velocity":61,"channel":0},{"pitch":49,"velocity":72,"channel":0},{"pitch":37,"velocity":65,"channel":0},{"pitch":44,"velocity":74,"channel":0},{"pitch":44,"velocity":73,"channel":0},{"pitch":44,"velocity":66,"channel":0},{"pitch":37,"velocity":67,"channel":0},{"pitch":44,"velocity":62,"channel":0},{"pitch":44,"velocity":65,"channel":0},{"pitch":44,"velocity":66,"channel":0},{"pitch":80,"velocity":79,"channel":0},{"pitch":44,"velocity":59,"channel":0},{"pitch":44,"velocity":50,"channel":0},{"pitch":44,"velocity":68,"channel":0},{"pitch":37,"velocity":71,"channel":0},{"pitch":44,"velocity":79,"channel":0},{"pitch":44,"velocity":72,"channel":0},{"pitch":44,"velocity":55,"channel":0},{"pitch":80,"velocity":61,"channel":0},{"pitch":44,"velocity":62,"channel":0},{"pitch":44,"velocity":66,"channel":0},{"pitch":44,"velocity":59,"channel":0},{"pitch":49,"velocity":61,"channel":0},{"pitch":44,"velocity":74,"channel":0},{"pitch":80,"velocity":73,"channel":0},{"pitch":44,"velocity":68,"channel":0},{"pitch":44,"velocity":77,"channel":0},{"pitch":44,"velocity":69,"channel":0},{"pitch":44,"velocity":58,"channel":0},{"pitch":25,"velocity":72,"channel":0},{"pitch":37,"velocity":66,"channel":0},{"pitch":37,"velocity":74,"channel":0},{"pitch":85,"velocity":66,"channel":0},{"pitch":37,"velocity":83,"channel":0},{"pitch":73,"velocity":72,"channel":0},{"pitch":37,"velocity":66,"channel":0},{"pitch":37,"velocity":66,"channel":0},{"pitch":44,"velocity":61,"channel":0},{"pitch":44,"velocity":71,"channel":0},{"pitch":80,"velocity":62,"channel":0},{"pitch":44,"velocity":78,"channel":0},{"pitch":80,"velocity":63,"channel":0},{"pitch":56,"velocity":61,"channel":0},{"pitch":39,"velocity":67,"channel":0},{"pitch":39,"velocity":66,"channel":0},{"pitch":39,"velocity":66,"channel":0},{"pitch":39,"velocity":66,"channel":0},{"pitch":39,"velocity":71,"channel":0},{"pitch":39,"velocity":61,"channel":0},{"pitch":51,"velocity":75,"channel":0},{"pitch":39,"velocity":77,"channel":0},{"pitch":39,"velocity":67,"channel":0},{"pitch":39,"velocity":62,"channel":0},{"pitch":87,"velocity":72,"channel":0},{"pitch":39,"velocity":62,"channel":0},{"pitch":32,"velocity":77,"channel":0},{"pitch":35,"velocity":83,"channel":0},{"pitch":23,"velocity":72,"channel":0},{"pitch":35,"velocity":78,"channel":0},{"pitch":35,"velocity":72,"channel":0},{"pitch":95,"velocity":64,"channel":0},{"pitch":35,"velocity":62,"channel":0},{"pitch":35,"velocity":59,"channel":0},{"pitch":35,"velocity":75,"channel":0},{"pitch":35,"velocity":61,"channel":0},{"pitch":35,"velocity":73,"channel":0},{"pitch":35,"velocity":64,"channel":0},{"pitch":35,"velocity":74,"channel":0},{"pitch":32,"velocity":69,"channel":0},{"pitch":37,"velocity":58,"channel":0},{"pitch":49,"velocity":55,"channel":0},{"pitch":25,"velocity":70,"channel":0},{"pitch":37,"velocity":67,"channel":0},{"pitch":37,"velocity":72,"channel":0},{"pitch":37,"velocity":65,"channel":0},{"pitch":32,"velocity":67,"channel":0},{"pitch":37,"velocity":71,"channel":0},{"pitch":37,"velocity":64,"channel":0},{"pitch":37,"velocity":66,"channel":0},{"pitch":37,"velocity":64,"channel":0},{"pitch":37,"velocity":76,"channel":0},{"pitch":37,"velocity":72,"channel":0},{"pitch":37,"velocity":68,"channel":0},{"pitch":32,"velocity":81,"channel":0},{"pitch":35,"velocity":70,"channel":0},{"pitch":35,"velocity":69,"channel":0},{"pitch":35,"velocity":78,"channel":0},{"pitch":35,"velocity":56,"channel":0},{"pitch":35,"velocity":74,"channel":0},{"pitch":35,"velocity":61,"channel":0}],"stageTiming":{"beat-setup":10.6776,"intent":0.0356,"entropy":0.3625,"phase":0.0295,"climax":0.0327,"envelope":0.0175,"silhouette":0.0539,"rest":0.0421,"complement":0.0025,"tension-cadence":0.1985,"negotiation":0.0626,"probability-adjust":0.0108,"emission":0.898,"post-beat":0.0468},"iterBudget":{"raw":240,"capped":240,"wasCapped":false}}
{"layer":"L1","beatKey":"0:0:0:3","timeMs":500,"snap":{"key":"D#","mode":"locrian","quality":"minor","scale":["D#","E","F#","G#","A","B","C#"],"chords":[],"tension":0.06323152070303019,"harmonicRhythm":0.091,"harmonicMutationCount":2,"excursion":0,"sectionPhase":"opening","phrasePosition":0,"phrasePhase":"opening","phraseDynamism":1,"registerBias":-6,"densityMultiplier":0.8,"voiceIndependence":0.5,"compositeIntensity":0.40131658565502154,"playProb":0.264188203125,"stutterProb":0.22612671874999998,"flicker":1.101127457318893,"textureMode":"flurry","textureFatigue":0.05833333333333333,"densityBias":0,"crossModBias":1,"emissionRatio":1,"extraDensityCorrection":1,"extraCoherenceDensityBias":1,"activeProfile":"restrained","journeyMove":"origin","journeyDistance":0,"journeyKey":"D#","journeyMode":"locrian","binauralFreqOffset":7,"binauralFlip":true,"tick":0,"updatedAt":1772748876635},"negotiation":{"playProb":0.2190901153912939,"stutterProb":0.2031669775205501,"allowCadence":false,"conflict":0.054435979438755444,"phaseConfidence":0.275},"trust":{"stutterContagion":{"score":0.16026890891667084,"samples":4,"weight":1.1202016816875031},"cadenceAlignment":{"score":0.18738591539598715,"samples":4,"weight":1.15},"phaseLock":{"score":0.08652773425140001,"samples":4,"weight":1.06489580068855},"convergence":{"score":0.09043622589735001,"samples":4,"weight":1.0678271694230126},"feedbackOscillator":{"score":0.06879803926383,"samples":4,"weight":1.0515985294478725},"coherenceMonitor":{"score":0.23167862250595056,"samples":4,"weight":1.173758966879463},"entropyRegulator":{"score":0.21655682475563937,"samples":4,"weight":1.1624176185667294},"restSynchronizer":{"score":0.19081677709626188,"samples":4,"weight":1.1431125828221964}},"regime":"initializing","coupling":{},"couplingTargets":{},"axisCouplingTotals":{"density":0,"tension":0,"flicker":0,"entropy":0,"trust":0,"phase":0},"axisEnergyShare":{"shares":{"density":0,"tension":0,"flicker":0,"entropy":0,"trust":0,"phase":0},"axisGini":0},"couplingGates":{"gateD":1,"gateT":1,"gateF":1,"floorDampen":1,"bypassD":0,"bypassT":0,"bypassF":0,"gateMinD":1,"gateMinT":1,"gateMinF":1,"gateEmaD":1,"gateEmaT":1,"gateEmaF":1,"gateBeatCount":1},"couplingHomeostasis":{"totalEnergyEma":0,"energyBudget":3.5,"peakEnergyEma":0,"totalEnergyFloor":8,"floorDampen":1,"redistributionScore":0,"nudgeableRedistributionScore":0,"globalGainMultiplier":1,"giniCoefficient":0,"energyDeltaEma":0,"pairTurbulenceEma":0,"beatCount":0,"invokeCount":1,"tickCount":4,"emptyMatrixBeats":1,"multiplierMin":1,"multiplierMax":1,"multiplierStdDev":0,"floorContactBeats":0,"ceilingContactBeats":4,"avgRecoveryDuration":0},"axisEnergyEquilibrator":{"beatCount":1,"pairAdjustments":0,"axisAdjustments":0,"smoothedShares":{"density":0,"tension":0,"flicker":0,"entropy":0,"trust":0,"phase":0},"perAxisAdj":{},"perPairAdj":{},"lastBaselines":{},"regimeBeats":{},"regimePairAdj":{},"regimeAxisAdj":{},"regimeTightenBudget":{}},"transitionReadiness":{"gap":0,"couplingStrength":0,"coherentThreshold":0,"velocity":0,"velThreshold":0.008,"thresholdScale":0.65,"velocityBlocked":false,"exploringBlock":"velocity","rawRegimeCounts":{},"rawRegimeMaxStreak":{},"effectiveDim":0},"notes":[{"pitch":23,"velocity":58,"channel":0},{"pitch":23,"velocity":71,"channel":0},{"pitch":95,"velocity":63,"channel":0},{"pitch":23,"velocity":75,"channel":0},{"pitch":18,"velocity":70,"channel":0},{"pitch":20,"velocity":73,"channel":0},{"pitch":8,"velocity":75,"channel":0},{"pitch":20,"velocity":69,"channel":0},{"pitch":20,"velocity":67,"channel":0},{"pitch":18,"velocity":60,"channel":0},{"pitch":20,"velocity":60,"channel":0},{"pitch":18,"velocity":44,"channel":0},{"pitch":20,"velocity":57,"channel":0},{"pitch":20,"velocity":68,"channel":0},{"pitch":20,"velocity":56,"channel":0},{"pitch":18,"velocity":62,"channel":0},{"pitch":20,"velocity":63,"channel":0},{"pitch":20,"velocity":67,"channel":0},{"pitch":20,"velocity":61,"channel":0},{"pitch":15,"velocity":65,"channel":0},{"pitch":80,"velocity":59,"channel":0},{"pitch":11,"velocity":73,"channel":0},{"pitch":18,"velocity":65,"channel":0},{"pitch":83,"velocity":72,"channel":0},{"pitch":23,"velocity":76,"channel":0},{"pitch":83,"velocity":64,"channel":0},{"pitch":83,"velocity":61,"channel":0},{"pitch":11,"velocity":61,"channel":0},{"pitch":23,"velocity":62,"channel":0},{"pitch":23,"velocity":67,"channel":0},{"pitch":95,"velocity":61,"channel":0},{"pitch":83,"velocity":70,"channel":0},{"pitch":23,"velocity":58,"channel":0},{"pitch":23,"velocity":64,"channel":0},{"pitch":59,"velocity":70,"channel":0},{"pitch":23,"velocity":66,"channel":0},{"pitch":23,"velocity":72,"channel":0},{"pitch":83,"velocity":65,"channel":0},{"pitch":23,"velocity":69,"channel":0},{"pitch":11,"velocity":69,"channel":0},{"pitch":83,"velocity":56,"channel":0},{"pitch":59,"velocity":69,"channel":0},{"pitch":11,"velocity":57,"channel":0},{"pitch":15,"velocity":77,"channel":0},{"pitch":27,"velocity":54,"channel":0},{"pitch":27,"velocity":71,"channel":0},{"pitch":27,"velocity":57,"channel":0},{"pitch":80,"velocity":54,"channel":0},{"pitch":80,"velocity":56,"channel":0},{"pitch":20,"velocity":74,"channel":0},{"pitch":20,"velocity":57,"channel":0},{"pitch":20,"velocity":57,"channel":0},{"pitch":23,"velocity":68,"channel":0},{"pitch":23,"velocity":52,"channel":0},{"pitch":37,"velocity":56,"channel":0},{"pitch":39,"velocity":57,"channel":0},{"pitch":39,"velocity":69,"channel":0},{"pitch":51,"velocity":65,"channel":0},{"pitch":32,"velocity":67,"channel":0},{"pitch":20,"velocity":58,"channel":0},{"pitch":15,"velocity":75,"channel":0},{"pitch":25,"velocity":74,"channel":0},{"pitch":25,"velocity":57,"channel":0},{"pitch":13,"velocity":52,"channel":0},{"pitch":13,"velocity":67,"channel":0},{"pitch":20,"velocity":61,"channel":0},{"pitch":13,"velocity":68,"channel":0},{"pitch":15,"velocity":65,"channel":0},{"pitch":32,"velocity":69,"channel":0},{"pitch":15,"velocity":81,"channel":0},{"pitch":20,"velocity":63,"channel":0},{"pitch":20,"velocity":61,"channel":0},{"pitch":15,"velocity":76,"channel":0},{"pitch":15,"velocity":72,"channel":0},{"pitch":20,"velocity":61,"channel":0},{"pitch":13,"velocity":56,"channel":0},{"pitch":15,"velocity":59,"channel":0},{"pitch":78,"velocity":76,"channel":0},{"pitch":27,"velocity":70,"channel":0},{"pitch":32,"velocity":59,"channel":0},{"pitch":32,"velocity":52,"channel":0},{"pitch":80,"velocity":59,"channel":0},{"pitch":32,"velocity":65,"channel":0},{"pitch":32,"velocity":66,"channel":0},{"pitch":25,"velocity":71,"channel":0},{"pitch":27,"velocity":61,"channel":0},{"pitch":20,"velocity":55,"channel":0},{"pitch":20,"velocity":69,"channel":0},{"pitch":85,"velocity":69,"channel":0},{"pitch":15,"velocity":71,"channel":0},{"pitch":15,"velocity":73,"channel":0},{"pitch":75,"velocity":65,"channel":0},{"pitch":25,"velocity":58,"channel":0},{"pitch":30,"velocity":68,"channel":0},{"pitch":25,"velocity":61,"channel":0},{"pitch":32,"velocity":75,"channel":0},{"pitch":18,"velocity":72,"channel":0}],"stageTiming":{"beat-setup":11.1447,"intent":0.033,"entropy":0.2381,"phase":0.1406,"climax":0.0334,"envelope":0.0186,"silhouette":0.1831,"rest":0.0461,"complement":0.0024,"tension-cadence":0.1745,"negotiation":0.0779,"probability-adjust":0.0107,"emission":2.7304,"post-beat":0.0887},"iterBudget":{"raw":252,"capped":252,"wasCapped":false}}
{"layer":"L1","beatKey":"0:0:0:4","timeMs":666.6666666666666,"snap":{"key":"D#","mode":"locrian","quality":"minor","scale":["D#","E","F#","G#","A","B","C#"],"chords":[],"tension":0.06323152070303019,"harmonicRhythm":0.091,"harmonicMutationCount":2,"excursion":0,"sectionPhase":"opening","phrasePosition":0,"phrasePhase":"opening","phraseDynamism":1,"registerBias":-6,"densityMultiplier":0.8,"voiceIndependence":0.5,"compositeIntensity":0.4109040944891901,"playProb":0.264188203125,"stutterProb":0.22612671874999998,"flicker":1.101127457318893,"textureMode":"chordBurst","textureFatigue":0.14166666666666666,"densityBias":0,"crossModBias":1,"emissionRatio":1,"extraDensityCorrection":1,"extraCoherenceDensityBias":1,"activeProfile":"restrained","journeyMove":"origin","journeyDistance":0,"journeyKey":"D#","journeyMode":"locrian","binauralFreqOffset":7,"binauralFlip":true,"tick":0,"updatedAt":1772748880026},"negotiation":{"playProb":0.22298923147715843,"stutterProb":0.20693682310523692,"allowCadence":false,"conflict":0.029798318312496797,"phaseConfidence":0.275},"trust":{"stutterContagion":{"score":0.1458269506568938,"samples":5,"weight":1.1093702129926704},"cadenceAlignment":{"score":0.17547167653253207,"samples":5,"weight":1.15},"phaseLock":{"score":0.10239746086543375,"samples":5,"weight":1.0767980956490752},"convergence":{"score":0.1012912107043074,"samples":5,"weight":1.0759684080282306},"feedbackOscillator":{"score":0.07860414716231796,"samples":5,"weight":1.0589531103717384},"coherenceMonitor":{"score":0.2727628251165529,"samples":5,"weight":1.2045721188374148},"entropyRegulator":{"score":0.2744774157607654,"samples":5,"weight":1.205858061820574},"restSynchronizer":{"score":0.27146336428724904,"samples":5,"weight":1.2035975232154368}},"regime":"initializing","coupling":{},"couplingTargets":{},"axisCouplingTotals":{"density":0,"tension":0,"flicker":0,"entropy":0,"trust":0,"phase":0},"axisEnergyShare":{"shares":{"density":0,"tension":0,"flicker":0,"entropy":0,"trust":0,"phase":0},"axisGini":0},"couplingGates":{"gateD":1,"gateT":1,"gateF":1,"floorDampen":1,"bypassD":0,"bypassT":0,"bypassF":0,"gateMinD":1,"gateMinT":1,"gateMinF":1,"gateEmaD":1,"gateEmaT":1,"gateEmaF":1,"gateBeatCount":1},"couplingHomeostasis":{"totalEnergyEma":0,"energyBudget":3.5,"peakEnergyEma":0,"totalEnergyFloor":8,"floorDampen":1,"redistributionScore":0,"nudgeableRedistributionScore":0,"globalGainMultiplier":1,"giniCoefficient":0,"energyDeltaEma":0,"pairTurbulenceEma":0,"beatCount":0,"invokeCount":1,"tickCount":5,"emptyMatrixBeats":1,"multiplierMin":1,"multiplierMax":1,"multiplierStdDev":0,"floorContactBeats":0,"ceilingContactBeats":5,"avgRecoveryDuration":0},"axisEnergyEquilibrator":{"beatCount":1,"pairAdjustments":0,"axisAdjustments":0,"smoothedShares":{"density":0,"tension":0,"flicker":0,"entropy":0,"trust":0,"phase":0},"perAxisAdj":{},"perPairAdj":{},"lastBaselines":{},"regimeBeats":{},"regimePairAdj":{},"regimeAxisAdj":{},"regimeTightenBudget":{}},"transitionReadiness":{"gap":0,"couplingStrength":0,"coherentThreshold":0,"velocity":0,"velThreshold":0.008,"thresholdScale":0.65,"velocityBlocked":false,"exploringBlock":"velocity","rawRegimeCounts":{},"rawRegimeMaxStreak":{},"effectiveDim":0},"notes":[{"pitch":44,"velocity":64,"channel":0},{"pitch":44,"velocity":70,"channel":0},{"pitch":44,"velocity":58,"channel":0},{"pitch":42,"velocity":58,"channel":0},{"pitch":32,"velocity":58,"channel":0},{"pitch":25,"velocity":62,"channel":0},{"pitch":37,"velocity":65,"channel":0},{"pitch":49,"velocity":64,"channel":0},{"pitch":32,"velocity":66,"channel":0},{"pitch":59,"velocity":60,"channel":0},{"pitch":35,"velocity":60,"channel":0},{"pitch":83,"velocity":70,"channel":0},{"pitch":35,"velocity":60,"channel":0},{"pitch":25,"velocity":63,"channel":0},{"pitch":49,"velocity":59,"channel":0},{"pitch":25,"velocity":52,"channel":0},{"pitch":25,"velocity":69,"channel":0},{"pitch":73,"velocity":72,"channel":0},{"pitch":20,"velocity":60,"channel":0},{"pitch":20,"velocity":66,"channel":0},{"pitch":20,"velocity":55,"channel":0},{"pitch":20,"velocity":65,"channel":0},{"pitch":20,"velocity":61,"channel":0},{"pitch":56,"velocity":65,"channel":0},{"pitch":32,"velocity":61,"channel":0},{"pitch":32,"velocity":58,"channel":0},{"pitch":25,"velocity":72,"channel":0},{"pitch":25,"velocity":54,"channel":0},{"pitch":73,"velocity":59,"channel":0},{"pitch":20,"velocity":66,"channel":0},{"pitch":25,"velocity":52,"channel":0},{"pitch":73,"velocity":67,"channel":0},{"pitch":54,"velocity":62,"channel":0},{"pitch":47,"velocity":69,"channel":0},{"pitch":95,"velocity":62,"channel":0},{"pitch":59,"velocity":61,"channel":0},{"pitch":83,"velocity":58,"channel":0},{"pitch":35,"velocity":69,"channel":0},{"pitch":35,"velocity":60,"channel":0},{"pitch":30,"velocity":58,"channel":0},{"pitch":83,"velocity":63,"channel":0},{"pitch":35,"velocity":69,"channel":0},{"pitch":35,"velocity":69,"channel":0},{"pitch":25,"velocity":68,"channel":0},{"pitch":18,"velocity":64,"channel":0},{"pitch":25,"velocity":69,"channel":0},{"pitch":25,"velocity":67,"channel":0},{"pitch":25,"velocity":67,"channel":0},{"pitch":25,"velocity":62,"channel":0},{"pitch":30,"velocity":70,"channel":0},{"pitch":35,"velocity":66,"channel":0},{"pitch":83,"velocity":65,"channel":0},{"pitch":30,"velocity":68,"channel":0},{"pitch":35,"velocity":66,"channel":0},{"pitch":35,"velocity":70,"channel":0},{"pitch":35,"velocity":66,"channel":0},{"pitch":25,"velocity":58,"channel":0},{"pitch":15,"velocity":69,"channel":0},{"pitch":15,"velocity":69,"channel":0},{"pitch":15,"velocity":61,"channel":0},{"pitch":73,"velocity":66,"channel":0},{"pitch":20,"velocity":53,"channel":0},{"pitch":80,"velocity":68,"channel":0},{"pitch":27,"velocity":60,"channel":0},{"pitch":32,"velocity":62,"channel":0},{"pitch":11,"velocity":69,"channel":0},{"pitch":83,"velocity":58,"channel":0},{"pitch":59,"velocity":67,"channel":0},{"pitch":23,"velocity":78,"channel":0},{"pitch":25,"velocity":75,"channel":0},{"pitch":30,"velocity":72,"channel":0},{"pitch":59,"velocity":65,"channel":0},{"pitch":35,"velocity":66,"channel":0},{"pitch":35,"velocity":60,"channel":0},{"pitch":35,"velocity":64,"channel":0},{"pitch":35,"velocity":63,"channel":0},{"pitch":35,"velocity":65,"channel":0},{"pitch":54,"velocity":58,"channel":0},{"pitch":35,"velocity":73,"channel":0},{"pitch":30,"velocity":62,"channel":0},{"pitch":35,"velocity":53,"channel":0},{"pitch":59,"velocity":68,"channel":0},{"pitch":35,"velocity":65,"channel":0},{"pitch":30,"velocity":72,"channel":0},{"pitch":35,"velocity":63,"channel":0},{"pitch":35,"velocity":67,"channel":0},{"pitch":35,"velocity":69,"channel":0},{"pitch":35,"velocity":76,"channel":0},{"pitch":35,"velocity":63,"channel":0},{"pitch":35,"velocity":69,"channel":0},{"pitch":35,"velocity":61,"channel":0},{"pitch":35,"velocity":71,"channel":0},{"pitch":35,"velocity":55,"channel":0},{"pitch":83,"velocity":50,"channel":0},{"pitch":35,"velocity":69,"channel":0},{"pitch":35,"velocity":70,"channel":0},{"pitch":54,"velocity":68,"channel":0},{"pitch":35,"velocity":57,"channel":0},{"pitch":35,"velocity":57,"channel":0},{"pitch":35,"velocity":62,"channel":0},{"pitch":35,"velocity":64,"channel":0},{"pitch":35,"velocity":63,"channel":0},{"pitch":42,"velocity":63,"channel":0},{"pitch":30,"velocity":67,"channel":0},{"pitch":23,"velocity":58,"channel":0},{"pitch":83,"velocity":59,"channel":0},{"pitch":47,"velocity":63,"channel":0},{"pitch":44,"velocity":62,"channel":0},{"pitch":44,"velocity":72,"channel":0},{"pitch":73,"velocity":66,"channel":0},{"pitch":25,"velocity":61,"channel":0},{"pitch":73,"velocity":69,"channel":0},{"pitch":23,"velocity":65,"channel":0},{"pitch":59,"velocity":49,"channel":0},{"pitch":23,"velocity":55,"channel":0},{"pitch":23,"velocity":70,"channel":0},{"pitch":23,"velocity":63,"channel":0},{"pitch":59,"velocity":65,"channel":0},{"pitch":23,"velocity":58,"channel":0},{"pitch":20,"velocity":70,"channel":0},{"pitch":20,"velocity":68,"channel":0},{"pitch":20,"velocity":58,"channel":0},{"pitch":20,"velocity":61,"channel":0},{"pitch":20,"velocity":67,"channel":0},{"pitch":15,"velocity":56,"channel":0},{"pitch":20,"velocity":75,"channel":0},{"pitch":35,"velocity":65,"channel":0},{"pitch":35,"velocity":70,"channel":0},{"pitch":23,"velocity":59,"channel":0},{"pitch":20,"velocity":59,"channel":0},{"pitch":20,"velocity":50,"channel":0},{"pitch":20,"velocity":62,"channel":0},{"pitch":20,"velocity":60,"channel":0},{"pitch":20,"velocity":63,"channel":0},{"pitch":80,"velocity":63,"channel":0},{"pitch":32,"velocity":71,"channel":0},{"pitch":92,"velocity":71,"channel":0},{"pitch":20,"velocity":69,"channel":0},{"pitch":92,"velocity":66,"channel":0},{"pitch":20,"velocity":68,"channel":0},{"pitch":59,"velocity":66,"channel":0},{"pitch":35,"velocity":62,"channel":0},{"pitch":30,"velocity":54,"channel":0},{"pitch":56,"velocity":64,"channel":0},{"pitch":32,"velocity":67,"channel":0},{"pitch":44,"velocity":58,"channel":0},{"pitch":49,"velocity":73,"channel":0},{"pitch":8,"velocity":65,"channel":0},{"pitch":56,"velocity":54,"channel":0},{"pitch":56,"velocity":63,"channel":0},{"pitch":56,"velocity":54,"channel":0},{"pitch":20,"velocity":62,"channel":0},{"pitch":92,"velocity":58,"channel":0},{"pitch":30,"velocity":72,"channel":0},{"pitch":25,"velocity":54,"channel":0},{"pitch":37,"velocity":72,"channel":0},{"pitch":37,"velocity":73,"channel":0},{"pitch":37,"velocity":68,"channel":0},{"pitch":25,"velocity":56,"channel":0},{"pitch":20,"velocity":55,"channel":0},{"pitch":30,"velocity":60,"channel":0},{"pitch":35,"velocity":68,"channel":0},{"pitch":35,"velocity":60,"channel":0},{"pitch":35,"velocity":41,"channel":0},{"pitch":35,"velocity":64,"channel":0},{"pitch":59,"velocity":56,"channel":0},{"pitch":30,"velocity":72,"channel":0},{"pitch":32,"velocity":59,"channel":0},{"pitch":32,"velocity":58,"channel":0},{"pitch":32,"velocity":56,"channel":0},{"pitch":35,"velocity":67,"channel":0},{"pitch":83,"velocity":72,"channel":0},{"pitch":35,"velocity":62,"channel":0},{"pitch":35,"velocity":65,"channel":0},{"pitch":42,"velocity":57,"channel":0},{"pitch":78,"velocity":51,"channel":0},{"pitch":42,"velocity":59,"channel":0},{"pitch":90,"velocity":70,"channel":0},{"pitch":35,"velocity":64,"channel":0},{"pitch":35,"velocity":57,"channel":0},{"pitch":35,"velocity":58,"channel":0},{"pitch":35,"velocity":60,"channel":0},{"pitch":35,"velocity":70,"channel":0},{"pitch":35,"velocity":60,"channel":0}],"stageTiming":{"beat-setup":13.7999,"intent":0.0548,"entropy":0.3272,"phase":0.0502,"climax":0.0351,"envelope":0.0188,"silhouette":0.0485,"rest":0.0691,"complement":0.003,"tension-cadence":0.2035,"negotiation":0.0638,"probability-adjust":0.0132,"emission":1.4048,"post-beat":0.1651},"iterBudget":{"raw":105,"capped":105,"wasCapped":false}}
{"layer":"L1","beatKey":"0:0:0:5","timeMs":833.3333333333333,"snap":{"key":"D#","mode":"locrian","quality":"minor","scale":["D#","E","F#","G#","A","B","C#"],"chords":[],"tension":0.06323152070303019,"harmonicRhythm":0.091,"harmonicMutationCount":2,"excursion":0,"sectionPhase":"opening","phrasePosition":0,"phrasePhase":"opening","phraseDynamism":1,"registerBias":-6,"densityMultiplier":0.8,"voiceIndependence":0.5,"compositeIntensity":0.42667230882444857,"playProb":0.264188203125,"stutterProb":0.22612671874999998,"flicker":1.101127457318893,"textureMode":"flurry","textureFatigue":0.05833333333333333,"densityBias":0,"crossModBias":1,"emissionRatio":1,"extraDensityCorrection":1,"extraCoherenceDensityBias":1,"activeProfile":"restrained","journeyMove":"origin","journeyDistance":0,"journeyKey":"D#","journeyMode":"locrian","binauralFreqOffset":7,"binauralFlip":true,"tick":0,"updatedAt":1772748883115},"negotiation":{"playProb":0.22656614828179797,"stutterProb":0.20973462036890217,"allowCadence":false,"conflict":0.040629787007329554,"phaseConfidence":0.275},"trust":{"stutterContagion":{"score":0.17523753487661956,"samples":6,"weight":1.1314281511574646},"cadenceAlignment":{"score":0.1647595843703996,"samples":6,"weight":1.15},"phaseLock":{"score":0.1166659320641115,"samples":6,"weight":1.0874994490480836},"convergence":{"score":0.11105092754424278,"samples":6,"weight":1.0832881956581821},"feedbackOscillator":{"score":0.08868237240486992,"samples":6,"weight":1.0665117793036525},"coherenceMonitor":{"score":0.3042904070686346,"samples":6,"weight":1.228217805301476},"entropyRegulator":{"score":0.3368984702266884,"samples":6,"weight":1.2526738526700163},"restSynchronizer":{"score":0.25206471083066556,"samples":6,"weight":1.1890485331229992}},"regime":"initializing","coupling":{},"couplingTargets":{},"axisCouplingTotals":{"density":0,"tension":0,"flicker":0,"entropy":0,"trust":0,"phase":0},"axisEnergyShare":{"shares":{"density":0,"tension":0,"flicker":0,"entropy":0,"trust":0,"phase":0},"axisGini":0},"couplingGates":{"gateD":1,"gateT":1,"gateF":1,"floorDampen":1,"bypassD":0,"bypassT":0,"bypassF":0,"gateMinD":1,"gateMinT":1,"gateMinF":1,"gateEmaD":1,"gateEmaT":1,"gateEmaF":1,"gateBeatCount":1},"couplingHomeostasis":{"totalEnergyEma":0,"energyBudget":3.5,"peakEnergyEma":0,"totalEnergyFloor":8,"floorDampen":1,"redistributionScore":0,"nudgeableRedistributionScore":0,"globalGainMultiplier":1,"giniCoefficient":0,"energyDeltaEma":0,"pairTurbulenceEma":0,"beatCount":0,"invokeCount":1,"tickCount":6,"emptyMatrixBeats":1,"multiplierMin":1,"multiplierMax":1,"multiplierStdDev":0,"floorContactBeats":0,"ceilingContactBeats":6,"avgRecoveryDuration":0},"axisEnergyEquilibrator":{"beatCount":1,"pairAdjustments":0,"axisAdjustments":0,"smoothedShares":{"density":0,"tension":0,"flicker":0,"entropy":0,"trust":0,"phase":0},"perAxisAdj":{},"perPairAdj":{},"lastBaselines":{},"regimeBeats":{},"regimePairAdj":{},"regimeAxisAdj":{},"regimeTightenBudget":{}},"transitionReadiness":{"gap":0,"couplingStrength":0,"coherentThreshold":0,"velocity":0,"velThreshold":0.008,"thresholdScale":0.65,"velocityBlocked":false,"exploringBlock":"velocity","rawRegimeCounts":{},"rawRegimeMaxStreak":{},"effectiveDim":0},"notes":[{"pitch":35,"velocity":68,"channel":0},{"pitch":23,"velocity":63,"channel":0},{"pitch":23,"velocity":57,"channel":0},{"pitch":23,"velocity":64,"channel":0},{"pitch":23,"velocity":58,"channel":0},{"pitch":30,"velocity":59,"channel":0},{"pitch":20,"velocity":58,"channel":0},{"pitch":35,"velocity":65,"channel":0},{"pitch":92,"velocity":57,"channel":0},{"pitch":25,"velocity":55,"channel":0},{"pitch":25,"velocity":59,"channel":0},{"pitch":25,"velocity":59,"channel":0},{"pitch":25,"velocity":55,"channel":0},{"pitch":44,"velocity":63,"channel":0},{"pitch":44,"velocity":63,"channel":0},{"pitch":37,"velocity":66,"channel":0},{"pitch":92,"velocity":64,"channel":0},{"pitch":8,"velocity":56,"channel":0},{"pitch":8,"velocity":57,"channel":0},{"pitch":56,"velocity":60,"channel":0},{"pitch":20,"velocity":62,"channel":0},{"pitch":23,"velocity":62,"channel":0},{"pitch":51,"velocity":53,"channel":0},{"pitch":83,"velocity":66,"channel":0},{"pitch":30,"velocity":63,"channel":0},{"pitch":23,"velocity":62,"channel":0},{"pitch":30,"velocity":56,"channel":0},{"pitch":23,"velocity":66,"channel":0},{"pitch":59,"velocity":65,"channel":0},{"pitch":23,"velocity":70,"channel":0},{"pitch":83,"velocity":56,"channel":0},{"pitch":30,"velocity":57,"channel":0},{"pitch":30,"velocity":55,"channel":0},{"pitch":23,"velocity":60,"channel":0},{"pitch":23,"velocity":66,"channel":0},{"pitch":8,"velocity":61,"channel":0},{"pitch":3,"velocity":63,"channel":0},{"pitch":25,"velocity":58,"channel":0},{"pitch":80,"velocity":64,"channel":0},{"pitch":20,"velocity":69,"channel":0},{"pitch":20,"velocity":61,"channel":0},{"pitch":30,"velocity":60,"channel":0},{"pitch":18,"velocity":57,"channel":0},{"pitch":30,"velocity":65,"channel":0},{"pitch":30,"velocity":57,"channel":0},{"pitch":23,"velocity":72,"channel":0},{"pitch":30,"velocity":62,"channel":0},{"pitch":30,"velocity":68,"channel":0},{"pitch":30,"velocity":59,"channel":0},{"pitch":30,"velocity":53,"channel":0},{"pitch":30,"velocity":56,"channel":0},{"pitch":78,"velocity":61,"channel":0},{"pitch":90,"velocity":66,"channel":0},{"pitch":78,"velocity":53,"channel":0},{"pitch":30,"velocity":63,"channel":0},{"pitch":30,"velocity":72,"channel":0},{"pitch":78,"velocity":49,"channel":0},{"pitch":42,"velocity":57,"channel":0},{"pitch":37,"velocity":56,"channel":0},{"pitch":49,"velocity":54,"channel":0},{"pitch":83,"velocity":59,"channel":0},{"pitch":95,"velocity":66,"channel":0},{"pitch":23,"velocity":69,"channel":0},{"pitch":25,"velocity":56,"channel":0},{"pitch":25,"velocity":64,"channel":0},{"pitch":73,"velocity":57,"channel":0},{"pitch":47,"velocity":75,"channel":0},{"pitch":35,"velocity":62,"channel":0},{"pitch":27,"velocity":61,"channel":0},{"pitch":27,"velocity":57,"channel":0},{"pitch":27,"velocity":65,"channel":0},{"pitch":20,"velocity":54,"channel":0},{"pitch":27,"velocity":62,"channel":0},{"pitch":27,"velocity":54,"channel":0},{"pitch":13,"velocity":67,"channel":0},{"pitch":49,"velocity":50,"channel":0},{"pitch":20,"velocity":54,"channel":0},{"pitch":56,"velocity":57,"channel":0},{"pitch":18,"velocity":63,"channel":0},{"pitch":25,"velocity":53,"channel":0},{"pitch":25,"velocity":68,"channel":0},{"pitch":20,"velocity":63,"channel":0},{"pitch":73,"velocity":64,"channel":0},{"pitch":25,"velocity":56,"channel":0},{"pitch":13,"velocity":68,"channel":0},{"pitch":49,"velocity":63,"channel":0},{"pitch":37,"velocity":61,"channel":0},{"pitch":25,"velocity":60,"channel":0},{"pitch":20,"velocity":60,"channel":0},{"pitch":35,"velocity":57,"channel":0},{"pitch":92,"velocity":76,"channel":0},{"pitch":20,"velocity":60,"channel":0},{"pitch":30,"velocity":60,"channel":0},{"pitch":25,"velocity":55,"channel":0},{"pitch":78,"velocity":65,"channel":0},{"pitch":30,"velocity":66,"channel":0},{"pitch":30,"velocity":58,"channel":0},{"pitch":59,"velocity":60,"channel":0},{"pitch":30,"velocity":55,"channel":0},{"pitch":30,"velocity":66,"channel":0},{"pitch":30,"velocity":52,"channel":0},{"pitch":30,"velocity":59,"channel":0},{"pitch":30,"velocity":61,"channel":0},{"pitch":30,"velocity":64,"channel":0},{"pitch":73,"velocity":65,"channel":0},{"pitch":30,"velocity":66,"channel":0},{"pitch":18,"velocity":60,"channel":0},{"pitch":30,"velocity":59,"channel":0},{"pitch":95,"velocity":52,"channel":0},{"pitch":30,"velocity":54,"channel":0},{"pitch":23,"velocity":59,"channel":0},{"pitch":30,"velocity":67,"channel":0},{"pitch":30,"velocity":57,"channel":0},{"pitch":30,"velocity":54,"channel":0},{"pitch":30,"velocity":62,"channel":0},{"pitch":30,"velocity":62,"channel":0},{"pitch":30,"velocity":55,"channel":0},{"pitch":30,"velocity":62,"channel":0},{"pitch":18,"velocity":57,"channel":0},{"pitch":18,"velocity":62,"channel":0},{"pitch":20,"velocity":57,"channel":0},{"pitch":56,"velocity":60,"channel":0},{"pitch":20,"velocity":65,"channel":0},{"pitch":80,"velocity":68,"channel":0},{"pitch":20,"velocity":70,"channel":0},{"pitch":11,"velocity":70,"channel":0},{"pitch":23,"velocity":60,"channel":0},{"pitch":54,"velocity":60,"channel":0},{"pitch":18,"velocity":64,"channel":0},{"pitch":15,"velocity":50,"channel":0},{"pitch":15,"velocity":65,"channel":0},{"pitch":15,"velocity":68,"channel":0},{"pitch":27,"velocity":57,"channel":0},{"pitch":15,"velocity":65,"channel":0},{"pitch":51,"velocity":51,"channel":0},{"pitch":27,"velocity":57,"channel":0},{"pitch":15,"velocity":59,"channel":0},{"pitch":15,"velocity":63,"channel":0},{"pitch":25,"velocity":64,"channel":0},{"pitch":73,"velocity":63,"channel":0},{"pitch":13,"velocity":70,"channel":0},{"pitch":73,"velocity":54,"channel":0},{"pitch":49,"velocity":63,"channel":0},{"pitch":49,"velocity":66,"channel":0},{"pitch":13,"velocity":54,"channel":0},{"pitch":13,"velocity":57,"channel":0}],"stageTiming":{"beat-setup":13.4532,"intent":0.035,"entropy":0.2911,"phase":0.0367,"climax":0.0279,"envelope":0.0153,"silhouette":0.0333,"rest":0.0368,"complement":0.0026,"tension-cadence":0.1306,"negotiation":0.0576,"probability-adjust":0.0088,"emission":1.1487,"post-beat":0.0401},"iterBudget":{"raw":126,"capped":126,"wasCapped":false}}
{"layer":"L1","beatKey":"0:0:0:6","timeMs":1000,"snap":{"key":"D#","mode":"locrian","quality":"minor","scale":["D#","E","F#","G#","A","B","C#"],"chords":[],"tension":0.06323152070303019,"harmonicRhythm":0.091,"harmonicMutationCount":2,"excursion":0,"sectionPhase":"opening","phrasePosition":0,"phrasePhase":"opening","phraseDynamism":1,"registerBias":-6,"densityMultiplier":0.8,"voiceIndependence":0.5,"compositeIntensity":0.42095870438861777,"playProb":0.264188203125,"stutterProb":0.22612671874999998,"flicker":1.101127457318893,"textureMode":"flurry","textureFatigue":0.05833333333333333,"densityBias":0,"crossModBias":1,"emissionRatio":1,"extraDensityCorrection":1,"extraCoherenceDensityBias":1,"activeProfile":"restrained","journeyMove":"origin","journeyDistance":0,"journeyKey":"D#","journeyMode":"locrian","binauralFreqOffset":7,"binauralFlip":true,"tick":0,"updatedAt":1772748888678},"negotiation":{"playProb":0.2262850369647113,"stutterProb":0.21029973812510275,"allowCadence":false,"conflict":0.018571848842535266,"phaseConfidence":0.275},"trust":{"stutterContagion":{"score":0.20060494529209028,"samples":7,"weight":1.1504537089690676},"cadenceAlignment":{"score":0.15512834230742628,"samples":7,"weight":1.15},"phaseLock":{"score":0.12949471451884267,"samples":7,"weight":1.0971210358891321},"convergence":{"score":0.1198258889550287,"samples":7,"weight":1.0898694167162715},"feedbackOscillator":{"score":0.09993846513062403,"samples":7,"weight":1.074953848847968},"coherenceMonitor":{"score":0.33953886964498564,"samples":7,"weight":1.2546541522337393},"entropyRegulator":{"score":0.3886790109570548,"samples":7,"weight":1.2915092582177912},"restSynchronizer":{"score":0.23462338150785142,"samples":7,"weight":1.1759675361308886}},"regime":"initializing","coupling":{},"couplingTargets":{},"axisCouplingTotals":{"density":0,"tension":0,"flicker":0,"entropy":0,"trust":0,"phase":0},"axisEnergyShare":{"shares":{"density":0,"tension":0,"flicker":0,"entropy":0,"trust":0,"phase":0},"axisGini":0},"couplingGates":{"gateD":1,"gateT":1,"gateF":1,"floorDampen":1,"bypassD":0,"bypassT":0,"bypassF":0,"gateMinD":1,"gateMinT":1,"gateMinF":1,"gateEmaD":1,"gateEmaT":1,"gateEmaF":1,"gateBeatCount":1},"couplingHomeostasis":{"totalEnergyEma":0,"energyBudget":3.5,"peakEnergyEma":0,"totalEnergyFloor":8,"floorDampen":1,"redistributionScore":0,"nudgeableRedistributionScore":0,"globalGainMultiplier":1,"giniCoefficient":0,"energyDeltaEma":0,"pairTurbulenceEma":0,"beatCount":0,"invokeCount":1,"tickCount":7,"emptyMatrixBeats":1,"multiplierMin":1,"multiplierMax":1,"multiplierStdDev":0,"floorContactBeats":0,"ceilingContactBeats":7,"avgRecoveryDuration":0},"axisEnergyEquilibrator":{"beatCount":1,"pairAdjustments":0,"axisAdjustments":0,"smoothedShares":{"density":0,"tension":0,"flicker":0,"entropy":0,"trust":0,"phase":0},"perAxisAdj":{},"perPairAdj":{},"lastBaselines":{},"regimeBeats":{},"regimePairAdj":{},"regimeAxisAdj":{},"regimeTightenBudget":{}},"transitionReadiness":{"gap":0,"couplingStrength":0,"coherentThreshold":0,"velocity":0,"velThreshold":0.008,"thresholdScale":0.65,"velocityBlocked":false,"exploringBlock":"velocity","rawRegimeCounts":{},"rawRegimeMaxStreak":{},"effectiveDim":0},"notes":[{"pitch":32,"velocity":56,"channel":0},{"pitch":32,"velocity":56,"channel":0},{"pitch":32,"velocity":62,"channel":0},{"pitch":32,"velocity":64,"channel":0},{"pitch":18,"velocity":69,"channel":0},{"pitch":18,"velocity":60,"channel":0},{"pitch":18,"velocity":50,"channel":0},{"pitch":30,"velocity":70,"channel":0},{"pitch":54,"velocity":68,"channel":0},{"pitch":30,"velocity":57,"channel":0},{"pitch":23,"velocity":53,"channel":0},{"pitch":30,"velocity":62,"channel":0},{"pitch":23,"velocity":68,"channel":0},{"pitch":23,"velocity":55,"channel":0},{"pitch":30,"velocity":73,"channel":0},{"pitch":90,"velocity":68,"channel":0},{"pitch":25,"velocity":62,"channel":0},{"pitch":47,"velocity":64,"channel":0},{"pitch":30,"velocity":61,"channel":0},{"pitch":23,"velocity":55,"channel":0},{"pitch":78,"velocity":53,"channel":0},{"pitch":23,"velocity":63,"channel":0},{"pitch":54,"velocity":49,"channel":0},{"pitch":30,"velocity":74,"channel":0},{"pitch":30,"velocity":69,"channel":0},{"pitch":18,"velocity":49,"channel":0},{"pitch":78,"velocity":60,"channel":0},{"pitch":30,"velocity":57,"channel":0},{"pitch":30,"velocity":63,"channel":0},{"pitch":23,"velocity":62,"channel":0},{"pitch":30,"velocity":66,"channel":0},{"pitch":30,"velocity":59,"channel":0},{"pitch":30,"velocity":59,"channel":0},{"pitch":59,"velocity":63,"channel":0},{"pitch":30,"velocity":63,"channel":0},{"pitch":30,"velocity":61,"channel":0},{"pitch":30,"velocity":65,"channel":0},{"pitch":30,"velocity":57,"channel":0},{"pitch":30,"velocity":60,"channel":0},{"pitch":23,"velocity":62,"channel":0},{"pitch":90,"velocity":68,"channel":0},{"pitch":30,"velocity":63,"channel":0},{"pitch":30,"velocity":62,"channel":0},{"pitch":30,"velocity":56,"channel":0},{"pitch":23,"velocity":62,"channel":0},{"pitch":18,"velocity":65,"channel":0},{"pitch":18,"velocity":60,"channel":0},{"pitch":18,"velocity":57,"channel":0},{"pitch":30,"velocity":61,"channel":0},{"pitch":42,"velocity":65,"channel":0},{"pitch":18,"velocity":66,"channel":0},{"pitch":18,"velocity":78,"channel":0},{"pitch":18,"velocity":60,"channel":0},{"pitch":20,"velocity":59,"channel":0},{"pitch":18,"velocity":69,"channel":0},{"pitch":78,"velocity":62,"channel":0},{"pitch":78,"velocity":65,"channel":0},{"pitch":54,"velocity":56,"channel":0},{"pitch":18,"velocity":50,"channel":0},{"pitch":18,"velocity":70,"channel":0},{"pitch":18,"velocity":56,"channel":0},{"pitch":18,"velocity":56,"channel":0},{"pitch":11,"velocity":56,"channel":0},{"pitch":6,"velocity":59,"channel":0},{"pitch":15,"velocity":55,"channel":0},{"pitch":15,"velocity":58,"channel":0},{"pitch":15,"velocity":61,"channel":0},{"pitch":15,"velocity":62,"channel":0},{"pitch":15,"velocity":49,"channel":0},{"pitch":27,"velocity":59,"channel":0},{"pitch":15,"velocity":57,"channel":0},{"pitch":80,"velocity":59,"channel":0},{"pitch":32,"velocity":75,"channel":0},{"pitch":25,"velocity":71,"channel":0},{"pitch":20,"velocity":65,"channel":0},{"pitch":20,"velocity":60,"channel":0},{"pitch":8,"velocity":65,"channel":0},{"pitch":13,"velocity":63,"channel":0},{"pitch":18,"velocity":62,"channel":0},{"pitch":25,"velocity":64,"channel":0},{"pitch":32,"velocity":50,"channel":0},{"pitch":18,"velocity":59,"channel":0},{"pitch":18,"velocity":67,"channel":0},{"pitch":18,"velocity":56,"channel":0},{"pitch":25,"velocity":59,"channel":0},{"pitch":8,"velocity":67,"channel":0},{"pitch":49,"velocity":66,"channel":0},{"pitch":13,"velocity":72,"channel":0},{"pitch":13,"velocity":72,"channel":0},{"pitch":13,"velocity":49,"channel":0},{"pitch":13,"velocity":59,"channel":0},{"pitch":13,"velocity":61,"channel":0},{"pitch":49,"velocity":52,"channel":0},{"pitch":13,"velocity":69,"channel":0},{"pitch":13,"velocity":58,"channel":0},{"pitch":80,"velocity":59,"channel":0},{"pitch":13,"velocity":55,"channel":0},{"pitch":13,"velocity":52,"channel":0},{"pitch":13,"velocity":56,"channel":0},{"pitch":13,"velocity":52,"channel":0},{"pitch":13,"velocity":68,"channel":0},{"pitch":13,"velocity":60,"channel":0},{"pitch":1,"velocity":69,"channel":0},{"pitch":8,"velocity":68,"channel":0},{"pitch":13,"velocity":60,"channel":0},{"pitch":37,"velocity":53,"channel":0},{"pitch":8,"velocity":62,"channel":0},{"pitch":44,"velocity":56,"channel":0},{"pitch":8,"velocity":70,"channel":0},{"pitch":13,"velocity":67,"channel":0},{"pitch":13,"velocity":56,"channel":0},{"pitch":13,"velocity":66,"channel":0},{"pitch":13,"velocity":66,"channel":0},{"pitch":13,"velocity":60,"channel":0},{"pitch":13,"velocity":64,"channel":0},{"pitch":6,"velocity":66,"channel":0},{"pitch":54,"velocity":65,"channel":0},{"pitch":18,"velocity":74,"channel":0},{"pitch":23,"velocity":64,"channel":0},{"pitch":44,"velocity":70,"channel":0},{"pitch":32,"velocity":60,"channel":0},{"pitch":32,"velocity":57,"channel":0},{"pitch":32,"velocity":49,"channel":0},{"pitch":32,"velocity":69,"channel":0},{"pitch":32,"velocity":61,"channel":0},{"pitch":23,"velocity":62,"channel":0},{"pitch":47,"velocity":72,"channel":0},{"pitch":35,"velocity":51,"channel":0},{"pitch":35,"velocity":62,"channel":0},{"pitch":35,"velocity":58,"channel":0},{"pitch":23,"velocity":65,"channel":0},{"pitch":30,"velocity":45,"channel":0},{"pitch":54,"velocity":53,"channel":0},{"pitch":30,"velocity":69,"channel":0},{"pitch":30,"velocity":61,"channel":0},{"pitch":30,"velocity":74,"channel":0},{"pitch":30,"velocity":56,"channel":0},{"pitch":30,"velocity":56,"channel":0},{"pitch":30,"velocity":62,"channel":0},{"pitch":54,"velocity":72,"channel":0},{"pitch":30,"velocity":60,"channel":0},{"pitch":23,"velocity":68,"channel":0},{"pitch":35,"velocity":62,"channel":0},{"pitch":30,"velocity":60,"channel":0},{"pitch":30,"velocity":55,"channel":0},{"pitch":54,"velocity":63,"channel":0},{"pitch":30,"velocity":66,"channel":0},{"pitch":30,"velocity":50,"channel":0},{"pitch":90,"velocity":63,"channel":0},{"pitch":54,"velocity":74,"channel":0},{"pitch":30,"velocity":53,"channel":0},{"pitch":78,"velocity":66,"channel":0},{"pitch":23,"velocity":60,"channel":0},{"pitch":23,"velocity":63,"channel":0},{"pitch":54,"velocity":64,"channel":0},{"pitch":30,"velocity":56,"channel":0},{"pitch":90,"velocity":56,"channel":0},{"pitch":30,"velocity":62,"channel":0},{"pitch":30,"velocity":51,"channel":0},{"pitch":30,"velocity":72,"channel":0},{"pitch":23,"velocity":65,"channel":0},{"pitch":30,"velocity":54,"channel":0},{"pitch":30,"velocity":58,"channel":0},{"pitch":30,"velocity":66,"channel":0},{"pitch":59,"velocity":58,"channel":0},{"pitch":20,"velocity":52,"channel":0},{"pitch":56,"velocity":61,"channel":0},{"pitch":20,"velocity":63,"channel":0},{"pitch":20,"velocity":59,"channel":0},{"pitch":83,"velocity":51,"channel":0},{"pitch":18,"velocity":62,"channel":0},{"pitch":49,"velocity":61,"channel":0},{"pitch":11,"velocity":70,"channel":0},{"pitch":18,"velocity":57,"channel":0},{"pitch":18,"velocity":67,"channel":0},{"pitch":11,"velocity":58,"channel":0},{"pitch":11,"velocity":62,"channel":0},{"pitch":23,"velocity":66,"channel":0},{"pitch":23,"velocity":49,"channel":0},{"pitch":59,"velocity":70,"channel":0},{"pitch":23,"velocity":76,"channel":0},{"pitch":25,"velocity":62,"channel":0},{"pitch":25,"velocity":64,"channel":0},{"pitch":25,"velocity":49,"channel":0},{"pitch":25,"velocity":59,"channel":0},{"pitch":25,"velocity":58,"channel":0},{"pitch":18,"velocity":68,"channel":0},{"pitch":13,"velocity":59,"channel":0},{"pitch":13,"velocity":48,"channel":0},{"pitch":13,"velocity":52,"channel":0},{"pitch":13,"velocity":56,"channel":0},{"pitch":13,"velocity":60,"channel":0},{"pitch":20,"velocity":62,"channel":0},{"pitch":49,"velocity":69,"channel":0},{"pitch":23,"velocity":62,"channel":0},{"pitch":30,"velocity":64,"channel":0},{"pitch":30,"velocity":53,"channel":0},{"pitch":30,"velocity":51,"channel":0},{"pitch":59,"velocity":64,"channel":0},{"pitch":30,"velocity":52,"channel":0},{"pitch":30,"velocity":57,"channel":0},{"pitch":78,"velocity":51,"channel":0},{"pitch":59,"velocity":59,"channel":0},{"pitch":66,"velocity":60,"channel":0},{"pitch":59,"velocity":64,"channel":0},{"pitch":30,"velocity":66,"channel":0},{"pitch":30,"velocity":68,"channel":0},{"pitch":30,"velocity":67,"channel":0},{"pitch":30,"velocity":61,"channel":0},{"pitch":90,"velocity":49,"channel":0},{"pitch":59,"velocity":56,"channel":0},{"pitch":23,"velocity":62,"channel":0},{"pitch":30,"velocity":57,"channel":0},{"pitch":54,"velocity":65,"channel":0},{"pitch":30,"velocity":56,"channel":0},{"pitch":30,"velocity":53,"channel":0},{"pitch":30,"velocity":62,"channel":0},{"pitch":30,"velocity":59,"channel":0},{"pitch":30,"velocity":59,"channel":0},{"pitch":30,"velocity":63,"channel":0},{"pitch":30,"velocity":61,"channel":0},{"pitch":30,"velocity":62,"channel":0},{"pitch":30,"velocity":58,"channel":0},{"pitch":59,"velocity":61,"channel":0},{"pitch":59,"velocity":57,"channel":0},{"pitch":30,"velocity":66,"channel":0},{"pitch":30,"velocity":59,"channel":0},{"pitch":30,"velocity":62,"channel":0},{"pitch":59,"velocity":72,"channel":0},{"pitch":23,"velocity":71,"channel":0},{"pitch":30,"velocity":66,"channel":0},{"pitch":30,"velocity":69,"channel":0},{"pitch":30,"velocity":68,"channel":0},{"pitch":23,"velocity":61,"channel":0},{"pitch":78,"velocity":66,"channel":0},{"pitch":30,"velocity":67,"channel":0},{"pitch":30,"velocity":53,"channel":0},{"pitch":78,"velocity":68,"channel":0},{"pitch":35,"velocity":56,"channel":0},{"pitch":30,"velocity":50,"channel":0},{"pitch":30,"velocity":66,"channel":0},{"pitch":30,"velocity":71,"channel":0},{"pitch":54,"velocity":61,"channel":0},{"pitch":6,"velocity":75,"channel":0},{"pitch":1,"velocity":69,"channel":0},{"pitch":3,"velocity":78,"channel":0},{"pitch":39,"velocity":63,"channel":0},{"pitch":27,"velocity":61,"channel":0},{"pitch":37,"velocity":75,"channel":0},{"pitch":32,"velocity":57,"channel":0},{"pitch":30,"velocity":53,"channel":0},{"pitch":78,"velocity":66,"channel":0},{"pitch":30,"velocity":56,"channel":0},{"pitch":30,"velocity":56,"channel":0},{"pitch":8,"velocity":72,"channel":0},{"pitch":13,"velocity":54,"channel":0},{"pitch":8,"velocity":56,"channel":0},{"pitch":49,"velocity":55,"channel":0},{"pitch":8,"velocity":68,"channel":0},{"pitch":73,"velocity":60,"channel":0},{"pitch":25,"velocity":58,"channel":0},{"pitch":56,"velocity":61,"channel":0},{"pitch":20,"velocity":68,"channel":0},{"pitch":90,"velocity":56,"channel":0},{"pitch":8,"velocity":59,"channel":0},{"pitch":13,"velocity":56,"channel":0},{"pitch":49,"velocity":64,"channel":0},{"pitch":13,"velocity":43,"channel":0},{"pitch":30,"velocity":58,"channel":0},{"pitch":32,"velocity":71,"channel":0},{"pitch":32,"velocity":58,"channel":0},{"pitch":32,"velocity":68,"channel":0},{"pitch":32,"velocity":61,"channel":0},{"pitch":23,"velocity":71,"channel":0},{"pitch":30,"velocity":69,"channel":0},{"pitch":30,"velocity":57,"channel":0},{"pitch":30,"velocity":60,"channel":0}],"stageTiming":{"beat-setup":27.967,"intent":0.033,"entropy":0.6908,"phase":0.1042,"climax":0.1039,"envelope":0.0408,"silhouette":0.0867,"rest":0.1278,"complement":0.004,"tension-cadence":0.2598,"negotiation":0.2579,"probability-adjust":0.0242,"emission":1.8117,"post-beat":0.1139},"iterBudget":{"raw":240,"capped":240,"wasCapped":false}}
{"layer":"L1","beatKey":"0:0:0:7","timeMs":1166.6666666666665,"snap":{"key":"D#","mode":"locrian","quality":"minor","scale":["D#","E","F#","G#","A","B","C#"],"chords":[],"tension":0.06323152070303019,"harmonicRhythm":0.091,"harmonicMutationCount":2,"excursion":0,"sectionPhase":"opening","phrasePosition":0,"phrasePhase":"opening","phraseDynamism":1,"registerBias":-6,"densityMultiplier":0.8,"voiceIndependence":0.5,"compositeIntensity":0.46117776050686066,"playProb":0.264188203125,"stutterProb":0.22612671874999998,"flicker":1.101127457318893,"textureMode":"flurry","textureFatigue":0.11666666666666665,"densityBias":0,"crossModBias":1,"emissionRatio":1,"extraDensityCorrection":1,"extraCoherenceDensityBias":1,"activeProfile":"restrained","journeyMove":"origin","journeyDistance":0,"journeyKey":"D#","journeyMode":"locrian","binauralFreqOffset":7,"binauralFlip":true,"tick":0,"updatedAt":1772748893611},"negotiation":{"playProb":0.2269899395845074,"stutterProb":0.21158650155001613,"allowCadence":false,"conflict":0.0004537089690677121,"phaseConfidence":0.275},"trust":{"stutterContagion":{"score":0.22247118577071057,"samples":8,"weight":1.1668533893280328},"cadenceAlignment":{"score":0.14646889256860698,"samples":8,"weight":1.15},"phaseLock":{"score":0.14102907282389146,"samples":8,"weight":1.1057718046179186},"convergence":{"score":0.1277154567594663,"samples":8,"weight":1.0957865925695998},"feedbackOscillator":{"score":0.111899214954536,"samples":8,"weight":1.0839244112159019},"coherenceMonitor":{"score":0.37496773975428144,"samples":8,"weight":1.281225804815711},"entropyRegulator":{"score":0.43487081020986856,"samples":8,"weight":1.3261531076574014},"restSynchronizer":{"score":0.21894188231370923,"samples":8,"weight":1.164206411735282}},"regime":"initializing","coupling":{},"couplingTargets":{},"axisCouplingTotals":{"density":0,"tension":0,"flicker":0,"entropy":0,"trust":0,"phase":0},"axisEnergyShare":{"shares":{"density":0,"tension":0,"flicker":0,"entropy":0,"trust":0,"phase":0},"axisGini":0},"couplingGates":{"gateD":1,"gateT":1,"gateF":1,"floorDampen":1,"bypassD":0,"bypassT":0,"bypassF":0,"gateMinD":1,"gateMinT":1,"gateMinF":1,"gateEmaD":1,"gateEmaT":1,"gateEmaF":1,"gateBeatCount":1},"couplingHomeostasis":{"totalEnergyEma":0,"energyBudget":3.5,"peakEnergyEma":0,"totalEnergyFloor":8,"floorDampen":1,"redistributionScore":0,"nudgeableRedistributionScore":0,"globalGainMultiplier":1,"giniCoefficient":0,"energyDeltaEma":0,"pairTurbulenceEma":0,"beatCount":0,"invokeCount":1,"tickCount":8,"emptyMatrixBeats":1,"multiplierMin":1,"multiplierMax":1,"multiplierStdDev":0,"floorContactBeats":0,"ceilingContactBeats":8,"avgRecoveryDuration":0},"axisEnergyEquilibrator":{"beatCount":1,"pairAdjustments":0,"axisAdjustments":0,"smoothedShares":{"density":0,"tension":0,"flicker":0,"entropy":0,"trust":0,"phase":0},"perAxisAdj":{},"perPairAdj":{},"lastBaselines":{},"regimeBeats":{},"regimePairAdj":{},"regimeAxisAdj":{},"regimeTightenBudget":{}},"transitionReadiness":{"gap":0,"couplingStrength":0,"coherentThreshold":0,"velocity":0,"velThreshold":0.008,"thresholdScale":0.65,"velocityBlocked":false,"exploringBlock":"velocity","rawRegimeCounts":{},"rawRegimeMaxStreak":{},"effectiveDim":0},"notes":[{"pitch":85,"velocity":62,"channel":0},{"pitch":73,"velocity":57,"channel":0},{"pitch":25,"velocity":57,"channel":0},{"pitch":104,"velocity":62,"channel":0},{"pitch":92,"velocity":73,"channel":0},{"pitch":107,"velocity":79,"channel":0},{"pitch":102,"velocity":58,"channel":0},{"pitch":102,"velocity":63,"channel":0},{"pitch":95,"velocity":57,"channel":0},{"pitch":102,"velocity":57,"channel":0},{"pitch":102,"velocity":58,"channel":0},{"pitch":30,"velocity":54,"channel":0},{"pitch":102,"velocity":61,"channel":0},{"pitch":102,"velocity":69,"channel":0},{"pitch":102,"velocity":59,"channel":0},{"pitch":95,"velocity":62,"channel":0},{"pitch":102,"velocity":68,"channel":0},{"pitch":102,"velocity":57,"channel":0},{"pitch":54,"velocity":57,"channel":0},{"pitch":78,"velocity":56,"channel":0},{"pitch":78,"velocity":57,"channel":0},{"pitch":102,"velocity":68,"channel":0},{"pitch":95,"velocity":65,"channel":0},{"pitch":102,"velocity":62,"channel":0},{"pitch":102,"velocity":58,"channel":0},{"pitch":95,"velocity":67,"channel":0},{"pitch":102,"velocity":61,"channel":0},{"pitch":102,"velocity":59,"channel":0},{"pitch":102,"velocity":52,"channel":0},{"pitch":102,"velocity":67,"channel":0},{"pitch":102,"velocity":67,"channel":0},{"pitch":102,"velocity":70,"channel":0},{"pitch":102,"velocity":58,"channel":0},{"pitch":102,"velocity":60,"channel":0},{"pitch":102,"velocity":63,"channel":0},{"pitch":102,"velocity":70,"channel":0},{"pitch":95,"velocity":61,"channel":0},{"pitch":95,"velocity":73,"channel":0},{"pitch":95,"velocity":61,"channel":0},{"pitch":95,"velocity":62,"channel":0},{"pitch":95,"velocity":52,"channel":0},{"pitch":95,"velocity":70,"channel":0},{"pitch":95,"velocity":68,"channel":0},{"pitch":59,"velocity":57,"channel":0},{"pitch":102,"velocity":51,"channel":0},{"pitch":102,"velocity":55,"channel":0},{"pitch":102,"velocity":53,"channel":0},{"pitch":102,"velocity":61,"channel":0},{"pitch":87,"velocity":58,"channel":0},{"pitch":39,"velocity":67,"channel":0},{"pitch":39,"velocity":60,"channel":0},{"pitch":87,"velocity":64,"channel":0},{"pitch":92,"velocity":63,"channel":0},{"pitch":39,"velocity":57,"channel":0},{"pitch":39,"velocity":57,"channel":0},{"pitch":92,"velocity":53,"channel":0},{"pitch":92,"velocity":61,"channel":0},{"pitch":32,"velocity":64,"channel":0},{"pitch":92,"velocity":59,"channel":0},{"pitch":75,"velocity":59,"channel":0},{"pitch":87,"velocity":65,"channel":0},{"pitch":75,"velocity":69,"channel":0},{"pitch":95,"velocity":72,"channel":0},{"pitch":102,"velocity":55,"channel":0},{"pitch":54,"velocity":70,"channel":0},{"pitch":102,"velocity":70,"channel":0},{"pitch":20,"velocity":71,"channel":0},{"pitch":104,"velocity":58,"channel":0},{"pitch":104,"velocity":74,"channel":0},{"pitch":104,"velocity":61,"channel":0},{"pitch":80,"velocity":64,"channel":0},{"pitch":92,"velocity":62,"channel":0},{"pitch":104,"velocity":67,"channel":0},{"pitch":75,"velocity":61,"channel":0},{"pitch":15,"velocity":58,"channel":0},{"pitch":75,"velocity":61,"channel":0},{"pitch":15,"velocity":58,"channel":0},{"pitch":15,"velocity":64,"channel":0},{"pitch":32,"velocity":74,"channel":0},{"pitch":104,"velocity":64,"channel":0},{"pitch":104,"velocity":62,"channel":0},{"pitch":104,"velocity":56,"channel":0},{"pitch":104,"velocity":64,"channel":0},{"pitch":92,"velocity":55,"channel":0},{"pitch":32,"velocity":53,"channel":0},{"pitch":32,"velocity":59,"channel":0},{"pitch":80,"velocity":54,"channel":0},{"pitch":95,"velocity":61,"channel":0},{"pitch":35,"velocity":52,"channel":0},{"pitch":35,"velocity":68,"channel":0},{"pitch":8,"velocity":60,"channel":0},{"pitch":13,"velocity":67,"channel":0},{"pitch":49,"velocity":56,"channel":0},{"pitch":13,"velocity":67,"channel":0},{"pitch":13,"velocity":64,"channel":0},{"pitch":13,"velocity":67,"channel":0},{"pitch":27,"velocity":59,"channel":0},{"pitch":54,"velocity":53,"channel":0},{"pitch":51,"velocity":59,"channel":0},{"pitch":20,"velocity":59,"channel":0},{"pitch":20,"velocity":62,"channel":0},{"pitch":20,"velocity":69,"channel":0},{"pitch":15,"velocity":66,"channel":0},{"pitch":15,"velocity":51,"channel":0},{"pitch":20,"velocity":61,"channel":0},{"pitch":8,"velocity":65,"channel":0},{"pitch":49,"velocity":66,"channel":0},{"pitch":54,"velocity":54,"channel":0},{"pitch":90,"velocity":63,"channel":0},{"pitch":6,"velocity":62,"channel":0},{"pitch":6,"velocity":64,"channel":0},{"pitch":49,"velocity":64,"channel":0},{"pitch":18,"velocity":58,"channel":0},{"pitch":25,"velocity":57,"channel":0},{"pitch":18,"velocity":64,"channel":0},{"pitch":73,"velocity":57,"channel":0},{"pitch":25,"velocity":59,"channel":0},{"pitch":25,"velocity":57,"channel":0},{"pitch":8,"velocity":63,"channel":0},{"pitch":8,"velocity":53,"channel":0},{"pitch":59,"velocity":55,"channel":0},{"pitch":8,"velocity":53,"channel":0},{"pitch":8,"velocity":55,"channel":0},{"pitch":11,"velocity":64,"channel":0},{"pitch":11,"velocity":51,"channel":0},{"pitch":11,"velocity":65,"channel":0},{"pitch":8,"velocity":67,"channel":0},{"pitch":8,"velocity":56,"channel":0},{"pitch":8,"velocity":64,"channel":0},{"pitch":8,"velocity":55,"channel":0},{"pitch":8,"velocity":62,"channel":0},{"pitch":8,"velocity":54,"channel":0},{"pitch":8,"velocity":57,"channel":0},{"pitch":8,"velocity":53,"channel":0},{"pitch":8,"velocity":59,"channel":0},{"pitch":56,"velocity":54,"channel":0},{"pitch":56,"velocity":57,"channel":0},{"pitch":8,"velocity":66,"channel":0},{"pitch":8,"velocity":67,"channel":0},{"pitch":56,"velocity":61,"channel":0},{"pitch":83,"velocity":67,"channel":0},{"pitch":66,"velocity":60,"channel":0},{"pitch":66,"velocity":70,"channel":0},{"pitch":66,"velocity":57,"channel":0},{"pitch":59,"velocity":51,"channel":0},{"pitch":59,"velocity":64,"channel":0},{"pitch":59,"velocity":61,"channel":0},{"pitch":95,"velocity":58,"channel":0},{"pitch":59,"velocity":69,"channel":0},{"pitch":95,"velocity":50,"channel":0},{"pitch":59,"velocity":71,"channel":0},{"pitch":59,"velocity":51,"channel":0},{"pitch":59,"velocity":51,"channel":0},{"pitch":59,"velocity":62,"channel":0},{"pitch":59,"velocity":65,"channel":0},{"pitch":59,"velocity":61,"channel":0},{"pitch":66,"velocity":72,"channel":0},{"pitch":66,"velocity":63,"channel":0},{"pitch":66,"velocity":69,"channel":0},{"pitch":66,"velocity":60,"channel":0},{"pitch":30,"velocity":68,"channel":0},{"pitch":8,"velocity":67,"channel":0},{"pitch":8,"velocity":56,"channel":0},{"pitch":11,"velocity":59,"channel":0},{"pitch":11,"velocity":64,"channel":0},{"pitch":11,"velocity":63,"channel":0},{"pitch":11,"velocity":61,"channel":0},{"pitch":83,"velocity":58,"channel":0},{"pitch":8,"velocity":62,"channel":0},{"pitch":6,"velocity":66,"channel":0},{"pitch":6,"velocity":64,"channel":0},{"pitch":6,"velocity":64,"channel":0},{"pitch":54,"velocity":59,"channel":0},{"pitch":6,"velocity":55,"channel":0},{"pitch":6,"velocity":56,"channel":0},{"pitch":78,"velocity":63,"channel":0},{"pitch":6,"velocity":54,"channel":0},{"pitch":6,"velocity":59,"channel":0},{"pitch":11,"velocity":57,"channel":0},{"pitch":35,"velocity":51,"channel":0},{"pitch":59,"velocity":71,"channel":0},{"pitch":6,"velocity":61,"channel":0},{"pitch":27,"velocity":68,"channel":0},{"pitch":8,"velocity":64,"channel":0},{"pitch":15,"velocity":60,"channel":0},{"pitch":15,"velocity":66,"channel":0},{"pitch":15,"velocity":68,"channel":0},{"pitch":15,"velocity":51,"channel":0},{"pitch":8,"velocity":58,"channel":0},{"pitch":59,"velocity":61,"channel":0},{"pitch":37,"velocity":66,"channel":0},{"pitch":83,"velocity":69,"channel":0},{"pitch":8,"velocity":61,"channel":0},{"pitch":104,"velocity":70,"channel":0},{"pitch":104,"velocity":66,"channel":0},{"pitch":104,"velocity":64,"channel":0},{"pitch":15,"velocity":64,"channel":0},{"pitch":8,"velocity":65,"channel":0},{"pitch":13,"velocity":60,"channel":0},{"pitch":30,"velocity":67,"channel":0},{"pitch":80,"velocity":67,"channel":0},{"pitch":92,"velocity":63,"channel":0},{"pitch":13,"velocity":63,"channel":0},{"pitch":56,"velocity":72,"channel":0},{"pitch":13,"velocity":65,"channel":0},{"pitch":49,"velocity":60,"channel":0},{"pitch":13,"velocity":50,"channel":0},{"pitch":13,"velocity":61,"channel":0},{"pitch":13,"velocity":61,"channel":0},{"pitch":73,"velocity":57,"channel":0},{"pitch":13,"velocity":54,"channel":0},{"pitch":54,"velocity":71,"channel":0},{"pitch":80,"velocity":65,"channel":0},{"pitch":8,"velocity":72,"channel":0},{"pitch":32,"velocity":61,"channel":0},{"pitch":8,"velocity":53,"channel":0},{"pitch":13,"velocity":71,"channel":0},{"pitch":25,"velocity":48,"channel":0},{"pitch":13,"velocity":65,"channel":0},{"pitch":13,"velocity":65,"channel":0},{"pitch":73,"velocity":70,"channel":0},{"pitch":8,"velocity":61,"channel":0},{"pitch":13,"velocity":59,"channel":0},{"pitch":13,"velocity":53,"channel":0},{"pitch":13,"velocity":57,"channel":0},{"pitch":49,"velocity":55,"channel":0},{"pitch":13,"velocity":67,"channel":0},{"pitch":13,"velocity":57,"channel":0},{"pitch":18,"velocity":61,"channel":0},{"pitch":8,"velocity":70,"channel":0},{"pitch":11,"velocity":60,"channel":0},{"pitch":83,"velocity":62,"channel":0},{"pitch":47,"velocity":60,"channel":0},{"pitch":11,"velocity":63,"channel":0},{"pitch":80,"velocity":68,"channel":0}],"stageTiming":{"beat-setup":13.4812,"intent":0.0303,"entropy":0.3618,"phase":0.0354,"climax":0.0278,"envelope":0.0155,"silhouette":0.034,"rest":0.049,"complement":0.0038,"tension-cadence":0.1476,"negotiation":0.0518,"probability-adjust":0.0084,"emission":4.4293,"post-beat":0.0631},"iterBudget":{"raw":120,"capped":120,"wasCapped":false}}
{"layer":"L1","beatKey":"0:0:0:8","timeMs":1333.3333333333333,"snap":{"key":"D#","mode":"locrian","quality":"minor","scale":["D#","E","F#","G#","A","B","C#"],"chords":[],"tension":0.06323152070303019,"harmonicRhythm":0.091,"harmonicMutationCount":2,"excursion":0,"sectionPhase":"opening","phrasePosition":0,"phrasePhase":"opening","phraseDynamism":1,"registerBias":-6,"densityMultiplier":0.8,"voiceIndependence":0.5,"compositeIntensity":0.4489820658712894,"playProb":0.264188203125,"stutterProb":0.22612671874999998,"flicker":1.101127457318893,"textureMode":"flurry","textureFatigue":0.05833333333333333,"densityBias":0,"crossModBias":1,"emissionRatio":1,"extraDensityCorrection":1,"extraCoherenceDensityBias":1,"activeProfile":"restrained","journeyMove":"origin","journeyDistance":0,"journeyKey":"D#","journeyMode":"locrian","binauralFreqOffset":7,"binauralFlip":true,"tick":0,"updatedAt":1772748895699},"negotiation":{"playProb":0.22967697647444205,"stutterProb":0.21437784577250954,"allowCadence":false,"conflict":0.01685338932803293,"phaseConfidence":0.275},"trust":{"stutterContagion":{"score":0.24149753604617338,"samples":9,"weight":1.1811231520346301},"cadenceAlignment":{"score":0.13868318130843454,"samples":9,"weight":1.15},"phaseLock":{"score":0.15139961437596083,"samples":9,"weight":1.1135497107819705},"convergence":{"score":0.13480896717243615,"samples":9,"weight":1.1011067253793272},"feedbackOscillator":{"score":0.12413576729222157,"samples":9,"weight":1.0931018254691662},"coherenceMonitor":{"score":0.4005766231667682,"samples":9,"weight":1.3004324673750762},"entropyRegulator":{"score":0.48373134652747357,"samples":9,"weight":1.3627985098956052},"restSynchronizer":{"score":0.20484264638825597,"samples":9,"weight":1.153631984791192}},"regime":"initializing","coupling":{},"couplingTargets":{},"axisCouplingTotals":{"density":0,"tension":0,"flicker":0,"entropy":0,"trust":0,"phase":0},"axisEnergyShare":{"shares":{"density":0,"tension":0,"flicker":0,"entropy":0,"trust":0,"phase":0},"axisGini":0},"couplingGates":{"gateD":1,"gateT":1,"gateF":1,"floorDampen":1,"bypassD":0,"bypassT":0,"bypassF":0,"gateMinD":1,"gateMinT":1,"gateMinF":1,"gateEmaD":1,"gateEmaT":1,"gateEmaF":1,"gateBeatCount":1},"couplingHomeostasis":{"totalEnergyEma":0,"energyBudget":3.5,"peakEnergyEma":0,"totalEnergyFloor":8,"floorDampen":1,"redistributionScore":0,"nudgeableRedistributionScore":0,"globalGainMultiplier":1,"giniCoefficient":0,"energyDeltaEma":0,"pairTurbulenceEma":0,"beatCount":0,"invokeCount":1,"tickCount":9,"emptyMatrixBeats":1,"multiplierMin":1,"multiplierMax":1,"multiplierStdDev":0,"floorContactBeats":0,"ceilingContactBeats":9,"avgRecoveryDuration":0},"axisEnergyEquilibrator":{"beatCount":1,"pairAdjustments":0,"axisAdjustments":0,"smoothedShares":{"density":0,"tension":0,"flicker":0,"entropy":0,"trust":0,"phase":0},"perAxisAdj":{},"perPairAdj":{},"lastBaselines":{},"regimeBeats":{},"regimePairAdj":{},"regimeAxisAdj":{},"regimeTightenBudget":{}},"transitionReadiness":{"gap":0,"couplingStrength":0,"coherentThreshold":0,"velocity":0,"velThreshold":0.008,"thresholdScale":0.65,"velocityBlocked":false,"exploringBlock":"velocity","rawRegimeCounts":{},"rawRegimeMaxStreak":{},"effectiveDim":0},"notes":[{"pitch":56,"velocity":54,"channel":0},{"pitch":32,"velocity":61,"channel":0},{"pitch":59,"velocity":66,"channel":0},{"pitch":59,"velocity":60,"channel":0},{"pitch":35,"velocity":58,"channel":0},{"pitch":25,"velocity":58,"channel":0},{"pitch":42,"velocity":52,"channel":0},{"pitch":42,"velocity":69,"channel":0},{"pitch":78,"velocity":68,"channel":0},{"pitch":20,"velocity":70,"channel":0},{"pitch":25,"velocity":61,"channel":0},{"pitch":25,"velocity":50,"channel":0},{"pitch":25,"velocity":60,"channel":0},{"pitch":25,"velocity":55,"channel":0},{"pitch":32,"velocity":58,"channel":0},{"pitch":42,"velocity":67,"channel":0},{"pitch":54,"velocity":68,"channel":0},{"pitch":42,"velocity":59,"channel":0},{"pitch":42,"velocity":71,"channel":0},{"pitch":42,"velocity":65,"channel":0},{"pitch":35,"velocity":70,"channel":0},{"pitch":90,"velocity":59,"channel":0},{"pitch":42,"velocity":66,"channel":0},{"pitch":35,"velocity":71,"channel":0},{"pitch":42,"velocity":54,"channel":0},{"pitch":42,"velocity":51,"channel":0},{"pitch":42,"velocity":66,"channel":0},{"pitch":42,"velocity":58,"channel":0},{"pitch":42,"velocity":61,"channel":0},{"pitch":42,"velocity":64,"channel":0},{"pitch":35,"velocity":61,"channel":0},{"pitch":59,"velocity":65,"channel":0},{"pitch":47,"velocity":59,"channel":0},{"pitch":47,"velocity":65,"channel":0},{"pitch":47,"velocity":65,"channel":0},{"pitch":83,"velocity":59,"channel":0},{"pitch":47,"velocity":71,"channel":0},{"pitch":35,"velocity":60,"channel":0},{"pitch":35,"velocity":75,"channel":0},{"pitch":42,"velocity":68,"channel":0},{"pitch":42,"velocity":56,"channel":0},{"pitch":42,"velocity":67,"channel":0},{"pitch":54,"velocity":60,"channel":0},{"pitch":95,"velocity":72,"channel":0},{"pitch":75,"velocity":61,"channel":0},{"pitch":51,"velocity":60,"channel":0},{"pitch":63,"velocity":72,"channel":0},{"pitch":39,"velocity":65,"channel":0},{"pitch":42,"velocity":60,"channel":0},{"pitch":95,"velocity":55,"channel":0},{"pitch":78,"velocity":57,"channel":0},{"pitch":78,"velocity":70,"channel":0},{"pitch":44,"velocity":65,"channel":0},{"pitch":32,"velocity":72,"channel":0},{"pitch":25,"velocity":61,"channel":0},{"pitch":32,"velocity":72,"channel":0},{"pitch":35,"velocity":71,"channel":0},{"pitch":32,"velocity":65,"channel":0},{"pitch":37,"velocity":61,"channel":0},{"pitch":42,"velocity":66,"channel":0},{"pitch":37,"velocity":67,"channel":0},{"pitch":42,"velocity":60,"channel":0},{"pitch":42,"velocity":57,"channel":0},{"pitch":44,"velocity":69,"channel":0},{"pitch":44,"velocity":62,"channel":0},{"pitch":51,"velocity":69,"channel":0},{"pitch":63,"velocity":58,"channel":0},{"pitch":56,"velocity":65,"channel":0},{"pitch":35,"velocity":59,"channel":0},{"pitch":47,"velocity":69,"channel":0},{"pitch":47,"velocity":65,"channel":0},{"pitch":42,"velocity":60,"channel":0},{"pitch":47,"velocity":59,"channel":0},{"pitch":42,"velocity":64,"channel":0},{"pitch":42,"velocity":53,"channel":0},{"pitch":59,"velocity":62,"channel":0},{"pitch":59,"velocity":58,"channel":0},{"pitch":66,"velocity":56,"channel":0},{"pitch":66,"velocity":54,"channel":0},{"pitch":59,"velocity":61,"channel":0},{"pitch":59,"velocity":68,"channel":0},{"pitch":66,"velocity":56,"channel":0},{"pitch":25,"velocity":77,"channel":0},{"pitch":6,"velocity":74,"channel":0}],"stageTiming":{"beat-setup":12.8142,"intent":0.0332,"entropy":0.371,"phase":0.1389,"climax":0.0387,"envelope":0.0993,"silhouette":0.1205,"rest":0.0595,"complement":0.0023,"tension-cadence":0.2328,"negotiation":0.1292,"probability-adjust":0.0106,"emission":5.4048,"post-beat":0.0605},"iterBudget":{"raw":110,"capped":110,"wasCapped":false}}
{"layer":"L1","beatKey":"0:0:0:9","timeMs":1500,"snap":{"key":"D#","mode":"locrian","quality":"minor","scale":["D#","E","F#","G#","A","B","C#"],"chords":[],"tension":0.06323152070303019,"harmonicRhythm":0.091,"harmonicMutationCount":2,"excursion":0,"sectionPhase":"opening","phrasePosition":0,"phrasePhase":"opening","phraseDynamism":1,"registerBias":-6,"densityMultiplier":0.8,"voiceIndependence":0.5,"compositeIntensity":0.4787928132301202,"playProb":0.264188203125,"stutterProb":0.22612671874999998,"flicker":1.101127457318893,"textureMode":"flurry","textureFatigue":0.05833333333333333,"densityBias":0,"crossModBias":1,"emissionRatio":1,"extraDensityCorrection":1,"extraCoherenceDensityBias":1,"activeProfile":"restrained","journeyMove":"origin","journeyDistance":0,"journeyKey":"D#","journeyMode":"locrian","binauralFreqOffset":7,"binauralFlip":true,"tick":0,"updatedAt":1772748900783},"negotiation":{"playProb":0.2303930081046451,"stutterProb":0.2156165175638607,"allowCadence":false,"conflict":0.03112315203463023,"phaseConfidence":0.275},"trust":{"stutterContagion":{"score":0.25764061504818175,"samples":10,"weight":1.1932304612861362},"cadenceAlignment":{"score":0.13651873831732453,"samples":10,"weight":1.15},"phaseLock":{"score":0.1607237682854264,"samples":10,"weight":1.1205428262140698},"convergence":{"score":0.14118674238473733,"samples":10,"weight":1.105890056788553},"feedbackOscillator":{"score":0.13651873831732453,"samples":10,"weight":1.1023890537379935},"coherenceMonitor":{"score":0.42750767315695554,"samples":10,"weight":1.3206307548677167},"entropyRegulator":{"score":0.527355036869317,"samples":10,"weight":1.3955162776519878},"restSynchronizer":{"score":0.19216602336768093,"samples":10,"weight":1.1441245175257606}},"regime":"initializing","coupling":{},"couplingTargets":{},"axisCouplingTotals":{"density":0,"tension":0,"flicker":0,"entropy":0,"trust":0,"phase":0},"axisEnergyShare":{"shares":{"density":0,"tension":0,"flicker":0,"entropy":0,"trust":0,"phase":0},"axisGini":0},"couplingGates":{"gateD":1,"gateT":1,"gateF":1,"floorDampen":1,"bypassD":0,"bypassT":0,"bypassF":0,"gateMinD":1,"gateMinT":1,"gateMinF":1,"gateEmaD":1,"gateEmaT":1,"gateEmaF":1,"gateBeatCount":1},"couplingHomeostasis":{"totalEnergyEma":0,"energyBudget":3.5,"peakEnergyEma":0,"totalEnergyFloor":8,"floorDampen":1,"redistributionScore":0,"nudgeableRedistributionScore":0,"globalGainMultiplier":1,"giniCoefficient":0,"energyDeltaEma":0,"pairTurbulenceEma":0,"beatCount":0,"invokeCount":1,"tickCount":10,"emptyMatrixBeats":1,"multiplierMin":1,"multiplierMax":1,"multiplierStdDev":0,"floorContactBeats":0,"ceilingContactBeats":10,"avgRecoveryDuration":0},"axisEnergyEquilibrator":{"beatCount":1,"pairAdjustments":0,"axisAdjustments":0,"smoothedShares":{"density":0,"tension":0,"flicker":0,"entropy":0,"trust":0,"phase":0},"perAxisAdj":{},"perPairAdj":{},"lastBaselines":{},"regimeBeats":{},"regimePairAdj":{},"regimeAxisAdj":{},"regimeTightenBudget":{}},"transitionReadiness":{"gap":0,"couplingStrength":0,"coherentThreshold":0,"velocity":0,"velThreshold":0.008,"thresholdScale":0.65,"velocityBlocked":false,"exploringBlock":"velocity","rawRegimeCounts":{},"rawRegimeMaxStreak":{},"effectiveDim":0},"notes":[{"pitch":23,"velocity":61,"channel":0},{"pitch":23,"velocity":63,"channel":0},{"pitch":23,"velocity":72,"channel":0},{"pitch":25,"velocity":63,"channel":0},{"pitch":25,"velocity":60,"channel":0},{"pitch":25,"velocity":72,"channel":0},{"pitch":32,"velocity":63,"channel":0},{"pitch":20,"velocity":72,"channel":0},{"pitch":32,"velocity":58,"channel":0},{"pitch":25,"velocity":60,"channel":0},{"pitch":20,"velocity":60,"channel":0},{"pitch":20,"velocity":62,"channel":0},{"pitch":32,"velocity":64,"channel":0},{"pitch":20,"velocity":67,"channel":0},{"pitch":20,"velocity":60,"channel":0},{"pitch":32,"velocity":75,"channel":0},{"pitch":49,"velocity":60,"channel":0},{"pitch":20,"velocity":56,"channel":0},{"pitch":20,"velocity":69,"channel":0},{"pitch":32,"velocity":64,"channel":0},{"pitch":20,"velocity":67,"channel":0},{"pitch":20,"velocity":68,"channel":0},{"pitch":20,"velocity":56,"channel":0},{"pitch":23,"velocity":46,"channel":0},{"pitch":18,"velocity":51,"channel":0},{"pitch":32,"velocity":60,"channel":0},{"pitch":32,"velocity":65,"channel":0},{"pitch":32,"velocity":60,"channel":0},{"pitch":80,"velocity":75,"channel":0},{"pitch":56,"velocity":60,"channel":0},{"pitch":32,"velocity":60,"channel":0},{"pitch":20,"velocity":61,"channel":0},{"pitch":20,"velocity":73,"channel":0},{"pitch":56,"velocity":59,"channel":0},{"pitch":20,"velocity":57,"channel":0},{"pitch":56,"velocity":52,"channel":0},{"pitch":20,"velocity":67,"channel":0},{"pitch":20,"velocity":71,"channel":0},{"pitch":20,"velocity":65,"channel":0},{"pitch":20,"velocity":67,"channel":0},{"pitch":49,"velocity":62,"channel":0},{"pitch":25,"velocity":64,"channel":0},{"pitch":23,"velocity":61,"channel":0},{"pitch":11,"velocity":64,"channel":0},{"pitch":35,"velocity":52,"channel":0},{"pitch":73,"velocity":72,"channel":0},{"pitch":30,"velocity":60,"channel":0},{"pitch":35,"velocity":69,"channel":0},{"pitch":30,"velocity":60,"channel":0},{"pitch":25,"velocity":60,"channel":0},{"pitch":30,"velocity":64,"channel":0},{"pitch":78,"velocity":59,"channel":0},{"pitch":42,"velocity":68,"channel":0},{"pitch":37,"velocity":60,"channel":0},{"pitch":35,"velocity":62,"channel":0},{"pitch":30,"velocity":74,"channel":0},{"pitch":30,"velocity":58,"channel":0},{"pitch":78,"velocity":72,"channel":0},{"pitch":30,"velocity":62,"channel":0},{"pitch":30,"velocity":56,"channel":0},{"pitch":30,"velocity":68,"channel":0},{"pitch":25,"velocity":76,"channel":0},{"pitch":30,"velocity":54,"channel":0},{"pitch":30,"velocity":67,"channel":0},{"pitch":54,"velocity":62,"channel":0},{"pitch":25,"velocity":68,"channel":0},{"pitch":78,"velocity":57,"channel":0},{"pitch":25,"velocity":64,"channel":0},{"pitch":90,"velocity":61,"channel":0},{"pitch":15,"velocity":62,"channel":0},{"pitch":15,"velocity":59,"channel":0},{"pitch":25,"velocity":79,"channel":0},{"pitch":54,"velocity":60,"channel":0},{"pitch":30,"velocity":61,"channel":0},{"pitch":30,"velocity":65,"channel":0},{"pitch":23,"velocity":74,"channel":0},{"pitch":18,"velocity":56,"channel":0},{"pitch":78,"velocity":67,"channel":0},{"pitch":35,"velocity":64,"channel":0},{"pitch":30,"velocity":67,"channel":0},{"pitch":30,"velocity":63,"channel":0},{"pitch":30,"velocity":61,"channel":0},{"pitch":42,"velocity":61,"channel":0},{"pitch":37,"velocity":60,"channel":0},{"pitch":23,"velocity":63,"channel":0},{"pitch":30,"velocity":72,"channel":0},{"pitch":30,"velocity":60,"channel":0},{"pitch":30,"velocity":62,"channel":0},{"pitch":30,"velocity":64,"channel":0},{"pitch":54,"velocity":60,"channel":0},{"pitch":30,"velocity":60,"channel":0},{"pitch":30,"velocity":63,"channel":0},{"pitch":30,"velocity":64,"channel":0},{"pitch":30,"velocity":60,"channel":0},{"pitch":30,"velocity":73,"channel":0},{"pitch":35,"velocity":76,"channel":0},{"pitch":54,"velocity":68,"channel":0},{"pitch":13,"velocity":71,"channel":0},{"pitch":30,"velocity":46,"channel":0},{"pitch":23,"velocity":72,"channel":0},{"pitch":30,"velocity":59,"channel":0},{"pitch":54,"velocity":70,"channel":0},{"pitch":78,"velocity":72,"channel":0},{"pitch":30,"velocity":51,"channel":0},{"pitch":23,"velocity":60,"channel":0},{"pitch":90,"velocity":67,"channel":0},{"pitch":30,"velocity":63,"channel":0},{"pitch":30,"velocity":57,"channel":0},{"pitch":30,"velocity":63,"channel":0},{"pitch":78,"velocity":61,"channel":0},{"pitch":23,"velocity":64,"channel":0},{"pitch":90,"velocity":68,"channel":0},{"pitch":35,"velocity":63,"channel":0},{"pitch":30,"velocity":59,"channel":0},{"pitch":30,"velocity":68,"channel":0},{"pitch":30,"velocity":59,"channel":0},{"pitch":30,"velocity":76,"channel":0},{"pitch":73,"velocity":69,"channel":0},{"pitch":30,"velocity":60,"channel":0},{"pitch":54,"velocity":63,"channel":0},{"pitch":30,"velocity":58,"channel":0},{"pitch":30,"velocity":63,"channel":0},{"pitch":30,"velocity":71,"channel":0},{"pitch":30,"velocity":72,"channel":0},{"pitch":30,"velocity":64,"channel":0},{"pitch":54,"velocity":61,"channel":0},{"pitch":42,"velocity":63,"channel":0},{"pitch":37,"velocity":61,"channel":0},{"pitch":11,"velocity":54,"channel":0},{"pitch":20,"velocity":58,"channel":0},{"pitch":20,"velocity":61,"channel":0},{"pitch":20,"velocity":60,"channel":0},{"pitch":20,"velocity":59,"channel":0},{"pitch":20,"velocity":63,"channel":0},{"pitch":13,"velocity":58,"channel":0},{"pitch":56,"velocity":54,"channel":0},{"pitch":92,"velocity":60,"channel":0},{"pitch":20,"velocity":56,"channel":0},{"pitch":20,"velocity":59,"channel":0},{"pitch":20,"velocity":58,"channel":0},{"pitch":87,"velocity":56,"channel":0},{"pitch":20,"velocity":61,"channel":0},{"pitch":85,"velocity":75,"channel":0},{"pitch":20,"velocity":65,"channel":0},{"pitch":15,"velocity":75,"channel":0},{"pitch":20,"velocity":64,"channel":0},{"pitch":80,"velocity":61,"channel":0},{"pitch":13,"velocity":77,"channel":0},{"pitch":13,"velocity":69,"channel":0},{"pitch":6,"velocity":63,"channel":0},{"pitch":6,"velocity":60,"channel":0},{"pitch":30,"velocity":68,"channel":0},{"pitch":25,"velocity":63,"channel":0},{"pitch":20,"velocity":59,"channel":0},{"pitch":20,"velocity":72,"channel":0},{"pitch":56,"velocity":64,"channel":0},{"pitch":20,"velocity":59,"channel":0},{"pitch":20,"velocity":71,"channel":0},{"pitch":20,"velocity":55,"channel":0},{"pitch":32,"velocity":62,"channel":0},{"pitch":20,"velocity":70,"channel":0},{"pitch":75,"velocity":64,"channel":0},{"pitch":20,"velocity":68,"channel":0},{"pitch":20,"velocity":64,"channel":0},{"pitch":20,"velocity":64,"channel":0},{"pitch":20,"velocity":55,"channel":0},{"pitch":20,"velocity":58,"channel":0},{"pitch":20,"velocity":56,"channel":0},{"pitch":56,"velocity":59,"channel":0},{"pitch":20,"velocity":67,"channel":0},{"pitch":18,"velocity":61,"channel":0},{"pitch":30,"velocity":61,"channel":0},{"pitch":25,"velocity":56,"channel":0},{"pitch":30,"velocity":56,"channel":0},{"pitch":30,"velocity":62,"channel":0},{"pitch":30,"velocity":72,"channel":0},{"pitch":30,"velocity":57,"channel":0},{"pitch":18,"velocity":64,"channel":0},{"pitch":54,"velocity":61,"channel":0},{"pitch":18,"velocity":71,"channel":0},{"pitch":6,"velocity":64,"channel":0},{"pitch":6,"velocity":67,"channel":0},{"pitch":90,"velocity":63,"channel":0},{"pitch":6,"velocity":62,"channel":0},{"pitch":54,"velocity":72,"channel":0},{"pitch":54,"velocity":65,"channel":0},{"pitch":11,"velocity":54,"channel":0},{"pitch":11,"velocity":64,"channel":0},{"pitch":6,"velocity":67,"channel":0},{"pitch":30,"velocity":58,"channel":0},{"pitch":30,"velocity":65,"channel":0},{"pitch":54,"velocity":72,"channel":0},{"pitch":30,"velocity":60,"channel":0},{"pitch":6,"velocity":63,"channel":0},{"pitch":30,"velocity":56,"channel":0},{"pitch":30,"velocity":59,"channel":0},{"pitch":30,"velocity":61,"channel":0},{"pitch":30,"velocity":64,"channel":0},{"pitch":30,"velocity":64,"channel":0},{"pitch":78,"velocity":63,"channel":0},{"pitch":6,"velocity":63,"channel":0},{"pitch":30,"velocity":64,"channel":0},{"pitch":30,"velocity":69,"channel":0},{"pitch":85,"velocity":64,"channel":0},{"pitch":30,"velocity":64,"channel":0},{"pitch":30,"velocity":63,"channel":0},{"pitch":54,"velocity":68,"channel":0},{"pitch":54,"velocity":58,"channel":0},{"pitch":30,"velocity":62,"channel":0},{"pitch":23,"velocity":64,"channel":0},{"pitch":20,"velocity":71,"channel":0},{"pitch":23,"velocity":62,"channel":0},{"pitch":30,"velocity":60,"channel":0},{"pitch":30,"velocity":60,"channel":0},{"pitch":25,"velocity":69,"channel":0},{"pitch":83,"velocity":64,"channel":0},{"pitch":54,"velocity":64,"channel":0},{"pitch":30,"velocity":61,"channel":0},{"pitch":30,"velocity":66,"channel":0},{"pitch":30,"velocity":54,"channel":0},{"pitch":23,"velocity":78,"channel":0},{"pitch":78,"velocity":74,"channel":0},{"pitch":20,"velocity":73,"channel":0}],"stageTiming":{"beat-setup":13.9913,"intent":0.0378,"entropy":0.3874,"phase":0.0517,"climax":0.0722,"envelope":0.0308,"silhouette":0.051,"rest":0.0553,"complement":0.0044,"tension-cadence":0.312,"negotiation":0.0676,"probability-adjust":0.0117,"emission":5.6884,"post-beat":0.0664},"iterBudget":{"raw":490,"capped":385,"wasCapped":true}}
{"layer":"L1","beatKey":"0:0:0:10","timeMs":1666.6666666666665,"snap":{"key":"D#","mode":"locrian","quality":"minor","scale":["D#","E","F#","G#","A","B","C#"],"chords":[],"tension":0.06323152070303019,"harmonicRhythm":0.091,"harmonicMutationCount":2,"excursion":0,"sectionPhase":"opening","phrasePosition":0,"phrasePhase":"opening","phraseDynamism":1,"registerBias":-6,"densityMultiplier":0.8,"voiceIndependence":0.5,"compositeIntensity":0.49684841521081385,"playProb":0.264188203125,"stutterProb":0.22612671874999998,"flicker":1.101127457318893,"textureMode":"flurry","textureFatigue":0.05833333333333333,"densityBias":0,"crossModBias":1,"emissionRatio":1,"extraDensityCorrection":1,"extraCoherenceDensityBias":1,"activeProfile":"restrained","journeyMove":"origin","journeyDistance":0,"journeyKey":"D#","journeyMode":"locrian","binauralFreqOffset":7,"binauralFlip":true,"tick":0,"updatedAt":1772748908482},"negotiation":{"playProb":0.23354872074674285,"stutterProb":0.218734206575106,"allowCadence":false,"conflict":0.04323046128613628,"phaseConfidence":0.275},"trust":{"stutterContagion":{"score":0.27156902541569355,"samples":11,"weight":1.2036767690617702},"cadenceAlignment":{"score":0.1490803347029234,"samples":11,"weight":1.15},"phaseLock":{"score":0.1691071150654269,"samples":11,"weight":1.1268303362990701},"convergence":{"score":0.1490803347029234,"samples":11,"weight":1.1118102510271926},"feedbackOscillator":{"score":0.1490803347029234,"samples":11,"weight":1.1118102510271926},"coherenceMonitor":{"score":0.4482690595197916,"samples":11,"weight":1.3362017946398437},"entropyRegulator":{"score":0.5711931223310854,"samples":11,"weight":1.428394841748314},"restSynchronizer":{"score":0.18076847160988194,"samples":11,"weight":1.1355763537074115}},"regime":"initializing","coupling":{},"couplingTargets":{},"axisCouplingTotals":{"density":0,"tension":0,"flicker":0,"entropy":0,"trust":0,"phase":0},"axisEnergyShare":{"shares":{"density":0,"tension":0,"flicker":0,"entropy":0,"trust":0,"phase":0},"axisGini":0},"couplingGates":{"gateD":1,"gateT":1,"gateF":1,"floorDampen":1,"bypassD":0,"bypassT":0,"bypassF":0,"gateMinD":1,"gateMinT":1,"gateMinF":1,"gateEmaD":1,"gateEmaT":1,"gateEmaF":1,"gateBeatCount":1},"couplingHomeostasis":{"totalEnergyEma":0,"energyBudget":3.5,"peakEnergyEma":0,"totalEnergyFloor":8,"floorDampen":1,"redistributionScore":0,"nudgeableRedistributionScore":0,"globalGainMultiplier":1,"giniCoefficient":0,"energyDeltaEma":0,"pairTurbulenceEma":0,"beatCount":0,"invokeCount":1,"tickCount":11,"emptyMatrixBeats":1,"multiplierMin":1,"multiplierMax":1,"multiplierStdDev":0,"floorContactBeats":0,"ceilingContactBeats":11,"avgRecoveryDuration":0},"axisEnergyEquilibrator":{"beatCount":1,"pairAdjustments":0,"axisAdjustments":0,"smoothedShares":{"density":0,"tension":0,"flicker":0,"entropy":0,"trust":0,"phase":0},"perAxisAdj":{},"perPairAdj":{},"lastBaselines":{},"regimeBeats":{},"regimePairAdj":{},"regimeAxisAdj":{},"regimeTightenBudget":{}},"transitionReadiness":{"gap":0,"couplingStrength":0,"coherentThreshold":0,"velocity":0,"velThreshold":0.008,"thresholdScale":0.65,"velocityBlocked":false,"exploringBlock":"velocity","rawRegimeCounts":{},"rawRegimeMaxStreak":{},"effectiveDim":0},"notes":[{"pitch":18,"velocity":58,"channel":0},{"pitch":54,"velocity":64,"channel":0},{"pitch":73,"velocity":68,"channel":0},{"pitch":13,"velocity":62,"channel":0},{"pitch":18,"velocity":69,"channel":0},{"pitch":20,"velocity":76,"channel":0},{"pitch":20,"velocity":52,"channel":0},{"pitch":8,"velocity":69,"channel":0},{"pitch":20,"velocity":56,"channel":0},{"pitch":20,"velocity":69,"channel":0},{"pitch":18,"velocity":78,"channel":0},{"pitch":20,"velocity":58,"channel":0},{"pitch":20,"velocity":58,"channel":0},{"pitch":20,"velocity":69,"channel":0},{"pitch":20,"velocity":61,"channel":0},{"pitch":20,"velocity":67,"channel":0},{"pitch":80,"velocity":62,"channel":0},{"pitch":78,"velocity":61,"channel":0},{"pitch":56,"velocity":73,"channel":0},{"pitch":20,"velocity":64,"channel":0},{"pitch":20,"velocity":70,"channel":0},{"pitch":20,"velocity":64,"channel":0},{"pitch":20,"velocity":67,"channel":0},{"pitch":78,"velocity":79,"channel":0},{"pitch":20,"velocity":66,"channel":0},{"pitch":20,"velocity":54,"channel":0},{"pitch":13,"velocity":65,"channel":0},{"pitch":13,"velocity":66,"channel":0},{"pitch":13,"velocity":69,"channel":0},{"pitch":18,"velocity":65,"channel":0},{"pitch":20,"velocity":62,"channel":0},{"pitch":20,"velocity":72,"channel":0},{"pitch":20,"velocity":72,"channel":0},{"pitch":32,"velocity":55,"channel":0},{"pitch":92,"velocity":68,"channel":0},{"pitch":90,"velocity":63,"channel":0},{"pitch":20,"velocity":60,"channel":0},{"pitch":80,"velocity":64,"channel":0},{"pitch":56,"velocity":73,"channel":0},{"pitch":20,"velocity":67,"channel":0},{"pitch":20,"velocity":69,"channel":0},{"pitch":18,"velocity":76,"channel":0},{"pitch":20,"velocity":58,"channel":0},{"pitch":92,"velocity":55,"channel":0},{"pitch":8,"velocity":55,"channel":0},{"pitch":20,"velocity":70,"channel":0},{"pitch":44,"velocity":62,"channel":0},{"pitch":18,"velocity":62,"channel":0},{"pitch":20,"velocity":67,"channel":0},{"pitch":20,"velocity":60,"channel":0},{"pitch":32,"velocity":73,"channel":0},{"pitch":20,"velocity":69,"channel":0},{"pitch":20,"velocity":66,"channel":0},{"pitch":18,"velocity":67,"channel":0},{"pitch":20,"velocity":60,"channel":0},{"pitch":20,"velocity":60,"channel":0},{"pitch":20,"velocity":56,"channel":0},{"pitch":20,"velocity":60,"channel":0},{"pitch":20,"velocity":69,"channel":0},{"pitch":92,"velocity":66,"channel":0},{"pitch":18,"velocity":70,"channel":0},{"pitch":20,"velocity":66,"channel":0},{"pitch":20,"velocity":58,"channel":0},{"pitch":32,"velocity":68,"channel":0},{"pitch":32,"velocity":70,"channel":0},{"pitch":30,"velocity":69,"channel":0},{"pitch":30,"velocity":51,"channel":0},{"pitch":78,"velocity":68,"channel":0},{"pitch":30,"velocity":67,"channel":0},{"pitch":30,"velocity":70,"channel":0},{"pitch":30,"velocity":63,"channel":0},{"pitch":6,"velocity":60,"channel":0},{"pitch":39,"velocity":60,"channel":0},{"pitch":37,"velocity":71,"channel":0},{"pitch":13,"velocity":52,"channel":0},{"pitch":37,"velocity":73,"channel":0},{"pitch":78,"velocity":69,"channel":0},{"pitch":32,"velocity":64,"channel":0},{"pitch":32,"velocity":57,"channel":0},{"pitch":32,"velocity":64,"channel":0},{"pitch":44,"velocity":65,"channel":0},{"pitch":44,"velocity":72,"channel":0},{"pitch":75,"velocity":50,"channel":0},{"pitch":27,"velocity":60,"channel":0},{"pitch":25,"velocity":62,"channel":0},{"pitch":25,"velocity":68,"channel":0},{"pitch":25,"velocity":69,"channel":0},{"pitch":30,"velocity":71,"channel":0},{"pitch":30,"velocity":63,"channel":0},{"pitch":23,"velocity":59,"channel":0},{"pitch":59,"velocity":70,"channel":0},{"pitch":30,"velocity":77,"channel":0},{"pitch":25,"velocity":55,"channel":0},{"pitch":30,"velocity":56,"channel":0},{"pitch":25,"velocity":68,"channel":0},{"pitch":73,"velocity":59,"channel":0},{"pitch":25,"velocity":70,"channel":0},{"pitch":25,"velocity":63,"channel":0},{"pitch":25,"velocity":68,"channel":0},{"pitch":85,"velocity":64,"channel":0},{"pitch":30,"velocity":58,"channel":0},{"pitch":30,"velocity":64,"channel":0},{"pitch":25,"velocity":52,"channel":0},{"pitch":30,"velocity":64,"channel":0},{"pitch":30,"velocity":64,"channel":0},{"pitch":30,"velocity":71,"channel":0},{"pitch":25,"velocity":64,"channel":0},{"pitch":25,"velocity":73,"channel":0},{"pitch":73,"velocity":65,"channel":0},{"pitch":25,"velocity":72,"channel":0},{"pitch":25,"velocity":67,"channel":0},{"pitch":25,"velocity":65,"channel":0},{"pitch":49,"velocity":65,"channel":0},{"pitch":32,"velocity":63,"channel":0},{"pitch":27,"velocity":62,"channel":0},{"pitch":15,"velocity":67,"channel":0},{"pitch":32,"velocity":77,"channel":0},{"pitch":56,"velocity":62,"channel":0},{"pitch":20,"velocity":73,"channel":0},{"pitch":73,"velocity":58,"channel":0},{"pitch":13,"velocity":65,"channel":0},{"pitch":25,"velocity":62,"channel":0},{"pitch":20,"velocity":66,"channel":0},{"pitch":20,"velocity":61,"channel":0},{"pitch":20,"velocity":67,"channel":0},{"pitch":25,"velocity":63,"channel":0},{"pitch":30,"velocity":65,"channel":0},{"pitch":25,"velocity":63,"channel":0},{"pitch":30,"velocity":58,"channel":0},{"pitch":30,"velocity":60,"channel":0},{"pitch":30,"velocity":75,"channel":0},{"pitch":25,"velocity":55,"channel":0},{"pitch":35,"velocity":60,"channel":0},{"pitch":83,"velocity":65,"channel":0},{"pitch":59,"velocity":61,"channel":0},{"pitch":30,"velocity":57,"channel":0},{"pitch":30,"velocity":63,"channel":0},{"pitch":30,"velocity":61,"channel":0},{"pitch":23,"velocity":70,"channel":0},{"pitch":30,"velocity":70,"channel":0},{"pitch":30,"velocity":61,"channel":0},{"pitch":30,"velocity":74,"channel":0},{"pitch":30,"velocity":55,"channel":0},{"pitch":30,"velocity":68,"channel":0},{"pitch":54,"velocity":58,"channel":0},{"pitch":95,"velocity":57,"channel":0},{"pitch":90,"velocity":64,"channel":0},{"pitch":30,"velocity":70,"channel":0},{"pitch":30,"velocity":64,"channel":0},{"pitch":30,"velocity":64,"channel":0},{"pitch":30,"velocity":60,"channel":0},{"pitch":23,"velocity":81,"channel":0},{"pitch":27,"velocity":74,"channel":0},{"pitch":27,"velocity":58,"channel":0},{"pitch":27,"velocity":60,"channel":0},{"pitch":27,"velocity":67,"channel":0},{"pitch":27,"velocity":70,"channel":0},{"pitch":23,"velocity":76,"channel":0},{"pitch":30,"velocity":68,"channel":0},{"pitch":59,"velocity":64,"channel":0},{"pitch":78,"velocity":73,"channel":0},{"pitch":30,"velocity":71,"channel":0},{"pitch":83,"velocity":62,"channel":0},{"pitch":30,"velocity":73,"channel":0},{"pitch":30,"velocity":68,"channel":0},{"pitch":30,"velocity":72,"channel":0},{"pitch":95,"velocity":65,"channel":0},{"pitch":30,"velocity":64,"channel":0},{"pitch":54,"velocity":57,"channel":0},{"pitch":42,"velocity":60,"channel":0},{"pitch":37,"velocity":66,"channel":0},{"pitch":37,"velocity":71,"channel":0},{"pitch":35,"velocity":72,"channel":0},{"pitch":23,"velocity":76,"channel":0},{"pitch":30,"velocity":74,"channel":0},{"pitch":30,"velocity":61,"channel":0},{"pitch":78,"velocity":64,"channel":0},{"pitch":78,"velocity":67,"channel":0},{"pitch":35,"velocity":65,"channel":0},{"pitch":78,"velocity":55,"channel":0},{"pitch":30,"velocity":70,"channel":0},{"pitch":35,"velocity":67,"channel":0},{"pitch":47,"velocity":64,"channel":0},{"pitch":35,"velocity":69,"channel":0},{"pitch":35,"velocity":67,"channel":0},{"pitch":35,"velocity":64,"channel":0},{"pitch":35,"velocity":75,"channel":0},{"pitch":35,"velocity":73,"channel":0},{"pitch":23,"velocity":56,"channel":0},{"pitch":30,"velocity":60,"channel":0},{"pitch":78,"velocity":63,"channel":0},{"pitch":30,"velocity":74,"channel":0},{"pitch":30,"velocity":70,"channel":0},{"pitch":30,"velocity":70,"channel":0},{"pitch":23,"velocity":62,"channel":0},{"pitch":30,"velocity":70,"channel":0},{"pitch":59,"velocity":69,"channel":0},{"pitch":30,"velocity":73,"channel":0},{"pitch":30,"velocity":69,"channel":0},{"pitch":30,"velocity":76,"channel":0},{"pitch":35,"velocity":58,"channel":0},{"pitch":30,"velocity":71,"channel":0},{"pitch":54,"velocity":69,"channel":0},{"pitch":23,"velocity":69,"channel":0},{"pitch":30,"velocity":54,"channel":0},{"pitch":30,"velocity":58,"channel":0},{"pitch":54,"velocity":64,"channel":0},{"pitch":30,"velocity":78,"channel":0},{"pitch":32,"velocity":55,"channel":0},{"pitch":32,"velocity":63,"channel":0},{"pitch":32,"velocity":64,"channel":0},{"pitch":32,"velocity":61,"channel":0},{"pitch":32,"velocity":59,"channel":0},{"pitch":25,"velocity":69,"channel":0},{"pitch":25,"velocity":69,"channel":0},{"pitch":25,"velocity":63,"channel":0},{"pitch":25,"velocity":74,"channel":0},{"pitch":80,"velocity":70,"channel":0},{"pitch":49,"velocity":69,"channel":0},{"pitch":25,"velocity":58,"channel":0},{"pitch":25,"velocity":64,"channel":0},{"pitch":13,"velocity":74,"channel":0},{"pitch":20,"velocity":61,"channel":0},{"pitch":20,"velocity":72,"channel":0},{"pitch":49,"velocity":72,"channel":0},{"pitch":32,"velocity":60,"channel":0},{"pitch":27,"velocity":71,"channel":0},{"pitch":3,"velocity":68,"channel":0},{"pitch":20,"velocity":64,"channel":0},{"pitch":80,"velocity":62,"channel":0},{"pitch":20,"velocity":61,"channel":0},{"pitch":75,"velocity":68,"channel":0},{"pitch":27,"velocity":72,"channel":0},{"pitch":75,"velocity":68,"channel":0},{"pitch":51,"velocity":71,"channel":0},{"pitch":80,"velocity":70,"channel":0},{"pitch":25,"velocity":65,"channel":0},{"pitch":20,"velocity":78,"channel":0},{"pitch":20,"velocity":69,"channel":0},{"pitch":20,"velocity":67,"channel":0},{"pitch":92,"velocity":66,"channel":0},{"pitch":20,"velocity":66,"channel":0},{"pitch":20,"velocity":76,"channel":0},{"pitch":20,"velocity":66,"channel":0},{"pitch":92,"velocity":69,"channel":0},{"pitch":20,"velocity":64,"channel":0},{"pitch":80,"velocity":76,"channel":0},{"pitch":20,"velocity":74,"channel":0},{"pitch":20,"velocity":73,"channel":0},{"pitch":20,"velocity":68,"channel":0},{"pitch":20,"velocity":57,"channel":0},{"pitch":20,"velocity":68,"channel":0},{"pitch":20,"velocity":64,"channel":0},{"pitch":32,"velocity":63,"channel":0},{"pitch":27,"velocity":63,"channel":0},{"pitch":80,"velocity":69,"channel":0},{"pitch":20,"velocity":64,"channel":0},{"pitch":20,"velocity":63,"channel":0},{"pitch":20,"velocity":60,"channel":0},{"pitch":20,"velocity":65,"channel":0},{"pitch":32,"velocity":70,"channel":0},{"pitch":20,"velocity":55,"channel":0},{"pitch":20,"velocity":78,"channel":0},{"pitch":92,"velocity":57,"channel":0},{"pitch":20,"velocity":64,"channel":0},{"pitch":20,"velocity":62,"channel":0},{"pitch":20,"velocity":65,"channel":0},{"pitch":56,"velocity":73,"channel":0},{"pitch":20,"velocity":75,"channel":0},{"pitch":20,"velocity":65,"channel":0},{"pitch":20,"velocity":66,"channel":0},{"pitch":20,"velocity":66,"channel":0},{"pitch":92,"velocity":51,"channel":0},{"pitch":92,"velocity":64,"channel":0},{"pitch":44,"velocity":59,"channel":0},{"pitch":49,"velocity":64,"channel":0},{"pitch":85,"velocity":65,"channel":0},{"pitch":95,"velocity":69,"channel":0},{"pitch":30,"velocity":65,"channel":0},{"pitch":30,"velocity":69,"channel":0},{"pitch":54,"velocity":53,"channel":0},{"pitch":30,"velocity":77,"channel":0},{"pitch":30,"velocity":66,"channel":0},{"pitch":30,"velocity":60,"channel":0},{"pitch":23,"velocity":55,"channel":0},{"pitch":30,"velocity":69,"channel":0},{"pitch":30,"velocity":73,"channel":0},{"pitch":30,"velocity":47,"channel":0},{"pitch":30,"velocity":52,"channel":0},{"pitch":25,"velocity":64,"channel":0},{"pitch":23,"velocity":61,"channel":0},{"pitch":30,"velocity":55,"channel":0},{"pitch":30,"velocity":64,"channel":0},{"pitch":30,"velocity":61,"channel":0},{"pitch":30,"velocity":60,"channel":0},{"pitch":30,"velocity":63,"channel":0},{"pitch":30,"velocity":61,"channel":0},{"pitch":30,"velocity":70,"channel":0},{"pitch":30,"velocity":78,"channel":0},{"pitch":30,"velocity":64,"channel":0},{"pitch":30,"velocity":71,"channel":0},{"pitch":90,"velocity":49,"channel":0},{"pitch":30,"velocity":65,"channel":0},{"pitch":23,"velocity":57,"channel":0},{"pitch":47,"velocity":54,"channel":0},{"pitch":59,"velocity":71,"channel":0},{"pitch":35,"velocity":74,"channel":0},{"pitch":42,"velocity":71,"channel":0},{"pitch":23,"velocity":61,"channel":0},{"pitch":30,"velocity":66,"channel":0},{"pitch":25,"velocity":68,"channel":0},{"pitch":30,"velocity":68,"channel":0},{"pitch":90,"velocity":62,"channel":0},{"pitch":54,"velocity":63,"channel":0},{"pitch":30,"velocity":73,"channel":0},{"pitch":23,"velocity":68,"channel":0},{"pitch":30,"velocity":69,"channel":0},{"pitch":30,"velocity":59,"channel":0},{"pitch":30,"velocity":72,"channel":0},{"pitch":30,"velocity":63,"channel":0},{"pitch":30,"velocity":53,"channel":0},{"pitch":23,"velocity":73,"channel":0},{"pitch":30,"velocity":66,"channel":0},{"pitch":30,"velocity":54,"channel":0},{"pitch":23,"velocity":58,"channel":0},{"pitch":30,"velocity":69,"channel":0},{"pitch":90,"velocity":67,"channel":0},{"pitch":23,"velocity":58,"channel":0},{"pitch":30,"velocity":66,"channel":0},{"pitch":54,"velocity":45,"channel":0},{"pitch":30,"velocity":61,"channel":0},{"pitch":30,"velocity":67,"channel":0},{"pitch":30,"velocity":62,"channel":0},{"pitch":30,"velocity":58,"channel":0},{"pitch":30,"velocity":64,"channel":0},{"pitch":78,"velocity":60,"channel":0},{"pitch":25,"velocity":71,"channel":0},{"pitch":54,"velocity":75,"channel":0}],"stageTiming":{"beat-setup":20.5762,"intent":0.0219,"entropy":0.5551,"phase":0.0838,"climax":0.0653,"envelope":0.0203,"silhouette":0.0461,"rest":0.0876,"complement":0.0026,"tension-cadence":0.1673,"negotiation":0.1907,"probability-adjust":0.0417,"emission":6.1931,"post-beat":0.1064},"iterBudget":{"raw":315,"capped":315,"wasCapped":false}}
{"layer":"L1","beatKey":"0:0:0:11","timeMs":1833.3333333333333,"snap":{"key":"D#","mode":"locrian","quality":"minor","scale":["D#","E","F#","G#","A","B","C#"],"chords":[],"tension":0.06323152070303019,"harmonicRhythm":0.091,"harmonicMutationCount":2,"excursion":0,"sectionPhase":"opening","phrasePosition":0,"phrasePhase":"opening","phraseDynamism":1,"registerBias":-6,"densityMultiplier":0.8,"voiceIndependence":0.5,"compositeIntensity":0.4845298083362678,"playProb":0.264188203125,"stutterProb":0.22612671874999998,"flicker":1.101127457318893,"textureMode":"chordBurst","textureFatigue":0.08333333333333333,"densityBias":0,"crossModBias":1,"emissionRatio":1,"extraDensityCorrection":1,"extraCoherenceDensityBias":1,"activeProfile":"restrained","journeyMove":"origin","journeyDistance":0,"journeyKey":"D#","journeyMode":"locrian","binauralFreqOffset":7,"binauralFlip":true,"tick":0,"updatedAt":1772748911422},"negotiation":{"playProb":0.23671471177463815,"stutterProb":0.22184975129496456,"allowCadence":false,"conflict":0.053676769061770324,"phaseConfidence":0.275},"trust":{"stutterContagion":{"score":0.28350004246742516,"samples":12,"weight":1.212625031850569},"cadenceAlignment":{"score":0.15941792378557404,"samples":12,"weight":1.15},"phaseLock":{"score":0.17664458215532533,"samples":12,"weight":1.132483436616494},"convergence":{"score":0.15941792378557404,"samples":12,"weight":1.1195634428391805},"feedbackOscillator":{"score":0.15941792378557404,"samples":12,"weight":1.1195634428391805},"coherenceMonitor":{"score":0.4717280474773255,"samples":12,"weight":1.353796035607994},"entropyRegulator":{"score":0.5977075970195332,"samples":12,"weight":1.44828069776465},"restSynchronizer":{"score":0.17052093282444486,"samples":12,"weight":1.1278906996183338}},"regime":"initializing","coupling":{},"couplingTargets":{},"axisCouplingTotals":{"density":0,"tension":0,"flicker":0,"entropy":0,"trust":0,"phase":0},"axisEnergyShare":{"shares":{"density":0,"tension":0,"flicker":0,"entropy":0,"trust":0,"phase":0},"axisGini":0},"couplingGates":{"gateD":1,"gateT":1,"gateF":1,"floorDampen":1,"bypassD":0,"bypassT":0,"bypassF":0,"gateMinD":1,"gateMinT":1,"gateMinF":1,"gateEmaD":1,"gateEmaT":1,"gateEmaF":1,"gateBeatCount":1},"couplingHomeostasis":{"totalEnergyEma":0,"energyBudget":3.5,"peakEnergyEma":0,"totalEnergyFloor":8,"floorDampen":1,"redistributionScore":0,"nudgeableRedistributionScore":0,"globalGainMultiplier":1,"giniCoefficient":0,"energyDeltaEma":0,"pairTurbulenceEma":0,"beatCount":0,"invokeCount":1,"tickCount":12,"emptyMatrixBeats":1,"multiplierMin":1,"multiplierMax":1,"multiplierStdDev":0,"floorContactBeats":0,"ceilingContactBeats":12,"avgRecoveryDuration":0},"axisEnergyEquilibrator":{"beatCount":1,"pairAdjustments":0,"axisAdjustments":0,"smoothedShares":{"density":0,"tension":0,"flicker":0,"entropy":0,"trust":0,"phase":0},"perAxisAdj":{},"perPairAdj":{},"lastBaselines":{},"regimeBeats":{},"regimePairAdj":{},"regimeAxisAdj":{},"regimeTightenBudget":{}},"transitionReadiness":{"gap":0,"couplingStrength":0,"coherentThreshold":0,"velocity":0,"velThreshold":0.008,"thresholdScale":0.65,"velocityBlocked":false,"exploringBlock":"velocity","rawRegimeCounts":{},"rawRegimeMaxStreak":{},"effectiveDim":0},"notes":[{"pitch":42,"velocity":65,"channel":0},{"pitch":30,"velocity":56,"channel":0},{"pitch":32,"velocity":65,"channel":0},{"pitch":37,"velocity":67,"channel":0},{"pitch":37,"velocity":68,"channel":0},{"pitch":73,"velocity":75,"channel":0},{"pitch":18,"velocity":76,"channel":0},{"pitch":80,"velocity":70,"channel":0},{"pitch":13,"velocity":68,"channel":0},{"pitch":92,"velocity":66,"channel":0},{"pitch":20,"velocity":66,"channel":0},{"pitch":20,"velocity":61,"channel":0},{"pitch":32,"velocity":68,"channel":0},{"pitch":18,"velocity":76,"channel":0},{"pitch":20,"velocity":74,"channel":0},{"pitch":68,"velocity":63,"channel":0},{"pitch":68,"velocity":60,"channel":0},{"pitch":59,"velocity":70,"channel":0},{"pitch":23,"velocity":74,"channel":0},{"pitch":54,"velocity":74,"channel":0},{"pitch":30,"velocity":71,"channel":0},{"pitch":27,"velocity":70,"channel":0},{"pitch":30,"velocity":62,"channel":0},{"pitch":35,"velocity":65,"channel":0},{"pitch":25,"velocity":69,"channel":0},{"pitch":18,"velocity":74,"channel":0},{"pitch":25,"velocity":59,"channel":0},{"pitch":56,"velocity":66,"channel":0},{"pitch":20,"velocity":73,"channel":0},{"pitch":25,"velocity":63,"channel":0},{"pitch":25,"velocity":69,"channel":0},{"pitch":73,"velocity":74,"channel":0},{"pitch":56,"velocity":71,"channel":0},{"pitch":39,"velocity":67,"channel":0},{"pitch":32,"velocity":71,"channel":0},{"pitch":25,"velocity":71,"channel":0},{"pitch":25,"velocity":62,"channel":0},{"pitch":25,"velocity":65,"channel":0},{"pitch":23,"velocity":71,"channel":0},{"pitch":23,"velocity":67,"channel":0},{"pitch":23,"velocity":71,"channel":0},{"pitch":23,"velocity":78,"channel":0},{"pitch":35,"velocity":77,"channel":0},{"pitch":23,"velocity":65,"channel":0},{"pitch":23,"velocity":66,"channel":0},{"pitch":23,"velocity":66,"channel":0},{"pitch":23,"velocity":71,"channel":0},{"pitch":59,"velocity":78,"channel":0},{"pitch":23,"velocity":66,"channel":0},{"pitch":23,"velocity":68,"channel":0},{"pitch":25,"velocity":69,"channel":0},{"pitch":25,"velocity":70,"channel":0},{"pitch":25,"velocity":66,"channel":0},{"pitch":25,"velocity":70,"channel":0},{"pitch":25,"velocity":74,"channel":0},{"pitch":25,"velocity":76,"channel":0},{"pitch":80,"velocity":82,"channel":0},{"pitch":59,"velocity":66,"channel":0},{"pitch":35,"velocity":72,"channel":0},{"pitch":35,"velocity":56,"channel":0},{"pitch":35,"velocity":59,"channel":0},{"pitch":35,"velocity":63,"channel":0},{"pitch":23,"velocity":65,"channel":0},{"pitch":25,"velocity":77,"channel":0},{"pitch":56,"velocity":63,"channel":0},{"pitch":56,"velocity":58,"channel":0},{"pitch":25,"velocity":60,"channel":0},{"pitch":25,"velocity":67,"channel":0},{"pitch":25,"velocity":77,"channel":0},{"pitch":25,"velocity":78,"channel":0},{"pitch":25,"velocity":74,"channel":0},{"pitch":49,"velocity":68,"channel":0},{"pitch":13,"velocity":76,"channel":0},{"pitch":56,"velocity":68,"channel":0},{"pitch":27,"velocity":71,"channel":0},{"pitch":25,"velocity":66,"channel":0},{"pitch":25,"velocity":67,"channel":0},{"pitch":32,"velocity":77,"channel":0},{"pitch":27,"velocity":51,"channel":0},{"pitch":30,"velocity":63,"channel":0},{"pitch":30,"velocity":71,"channel":0},{"pitch":25,"velocity":63,"channel":0},{"pitch":85,"velocity":60,"channel":0},{"pitch":54,"velocity":71,"channel":0},{"pitch":25,"velocity":65,"channel":0},{"pitch":25,"velocity":62,"channel":0},{"pitch":25,"velocity":76,"channel":0},{"pitch":25,"velocity":65,"channel":0},{"pitch":27,"velocity":64,"channel":0},{"pitch":30,"velocity":66,"channel":0},{"pitch":25,"velocity":71,"channel":0},{"pitch":30,"velocity":57,"channel":0},{"pitch":54,"velocity":61,"channel":0},{"pitch":30,"velocity":80,"channel":0},{"pitch":25,"velocity":57,"channel":0},{"pitch":25,"velocity":65,"channel":0},{"pitch":25,"velocity":60,"channel":0},{"pitch":73,"velocity":65,"channel":0},{"pitch":25,"velocity":72,"channel":0},{"pitch":25,"velocity":55,"channel":0},{"pitch":25,"velocity":78,"channel":0},{"pitch":25,"velocity":76,"channel":0},{"pitch":25,"velocity":66,"channel":0},{"pitch":25,"velocity":62,"channel":0},{"pitch":25,"velocity":60,"channel":0},{"pitch":25,"velocity":76,"channel":0},{"pitch":25,"velocity":66,"channel":0},{"pitch":25,"velocity":71,"channel":0},{"pitch":73,"velocity":71,"channel":0},{"pitch":73,"velocity":72,"channel":0},{"pitch":25,"velocity":71,"channel":0},{"pitch":25,"velocity":71,"channel":0},{"pitch":25,"velocity":63,"channel":0},{"pitch":25,"velocity":78,"channel":0},{"pitch":49,"velocity":80,"channel":0},{"pitch":18,"velocity":80,"channel":0}],"stageTiming":{"beat-setup":15.4428,"intent":0.011,"entropy":0.447,"phase":0.0671,"climax":0.0294,"envelope":0.0127,"silhouette":0.0331,"rest":0.0562,"complement":0.0023,"tension-cadence":0.1319,"negotiation":0.0449,"probability-adjust":0.0111,"emission":5.1259,"post-beat":0.0526},"iterBudget":{"raw":336,"capped":150,"wasCapped":true}}
{"layer":"L1","beatKey":"0:0:1:0","timeMs":2000,"snap":{"key":"D#","mode":"locrian","quality":"minor","scale":["D#","E","F#","G#","A","B","C#"],"chords":[],"tension":0.1267008380912245,"harmonicRhythm":0.3273371111432095,"harmonicMutationCount":3,"excursion":0,"sectionPhase":"opening","phrasePosition":0,"phrasePhase":"opening","phraseDynamism":1,"registerBias":-6,"densityMultiplier":0.8,"voiceIndependence":0.5,"compositeIntensity":0.39812977562926327,"playProb":0.26361426622353556,"stutterProb":0.23292789471207534,"flicker":1.1212101942619084,"textureMode":"flurry","textureFatigue":0,"densityBias":0,"crossModBias":1,"emissionRatio":0.8185067191910367,"extraDensityCorrection":1.0362986561617926,"extraCoherenceDensityBias":1,"activeProfile":"restrained","journeyMove":"origin","journeyDistance":0,"journeyKey":"D#","journeyMode":"locrian","binauralFreqOffset":8,"binauralFlip":false,"tick":82500,"updatedAt":1772748914663},"negotiation":{"playProb":0.2353768941073543,"stutterProb":0.22849620510877383,"allowCadence":false,"conflict":0.062625031850569,"phaseConfidence":0.275},"trust":{"stutterContagion":{"score":0.2943669108192069,"samples":13,"weight":1.2207751831144051},"cadenceAlignment":{"score":0.16940943567087768,"samples":13,"weight":1.15},"phaseLock":{"score":0.183421518815853,"samples":13,"weight":1.1375661391118896},"convergence":{"score":0.16940943567087768,"samples":13,"weight":1.1270570767531582},"feedbackOscillator":{"score":0.16940943567087768,"samples":13,"weight":1.1270570767531582},"coherenceMonitor":{"score":0.4943023912288202,"samples":13,"weight":1.3707267934216152},"entropyRegulator":{"score":0.6308159336647341,"samples":13,"weight":1.4731119502485506},"restSynchronizer":{"score":0.16940943567087768,"samples":13,"weight":1.1270570767531582}},"regime":"initializing","coupling":{},"couplingTargets":{},"axisCouplingTotals":{"density":0,"tension":0,"flicker":0,"entropy":0,"trust":0,"phase":0},"axisEnergyShare":{"shares":{"density":0,"tension":0,"flicker":0,"entropy":0,"trust":0,"phase":0},"axisGini":0},"couplingGates":{"gateD":1,"gateT":1,"gateF":1,"floorDampen":1,"bypassD":0,"bypassT":0,"bypassF":0,"gateMinD":1,"gateMinT":1,"gateMinF":1,"gateEmaD":1,"gateEmaT":1,"gateEmaF":1,"gateBeatCount":2},"couplingHomeostasis":{"totalEnergyEma":0,"energyBudget":3.5,"peakEnergyEma":0,"totalEnergyFloor":8,"floorDampen":1,"redistributionScore":0,"nudgeableRedistributionScore":0,"globalGainMultiplier":1,"giniCoefficient":0,"energyDeltaEma":0,"pairTurbulenceEma":0,"beatCount":0,"invokeCount":2,"tickCount":13,"emptyMatrixBeats":2,"multiplierMin":1,"multiplierMax":1,"multiplierStdDev":0,"floorContactBeats":0,"ceilingContactBeats":13,"avgRecoveryDuration":0},"axisEnergyEquilibrator":{"beatCount":2,"pairAdjustments":0,"axisAdjustments":0,"smoothedShares":{"density":0,"tension":0,"flicker":0,"entropy":0,"trust":0,"phase":0},"perAxisAdj":{},"perPairAdj":{},"lastBaselines":{},"regimeBeats":{},"regimePairAdj":{},"regimeAxisAdj":{},"regimeTightenBudget":{}},"transitionReadiness":{"gap":0,"couplingStrength":0,"coherentThreshold":0,"velocity":0,"velThreshold":0.008,"thresholdScale":0.65,"velocityBlocked":false,"exploringBlock":"velocity","rawRegimeCounts":{},"rawRegimeMaxStreak":{},"effectiveDim":0},"notes":[{"pitch":23,"velocity":76,"channel":0},{"pitch":23,"velocity":78,"channel":0},{"pitch":59,"velocity":58,"channel":0},{"pitch":23,"velocity":76,"channel":0},{"pitch":35,"velocity":70,"channel":0},{"pitch":90,"velocity":78,"channel":0},{"pitch":80,"velocity":77,"channel":0},{"pitch":20,"velocity":74,"channel":0},{"pitch":56,"velocity":80,"channel":0},{"pitch":20,"velocity":79,"channel":0},{"pitch":32,"velocity":71,"channel":0},{"pitch":20,"velocity":76,"channel":0},{"pitch":20,"velocity":59,"channel":0},{"pitch":20,"velocity":70,"channel":0},{"pitch":32,"velocity":80,"channel":0},{"pitch":54,"velocity":70,"channel":0},{"pitch":20,"velocity":73,"channel":0},{"pitch":20,"velocity":67,"channel":0},{"pitch":20,"velocity":73,"channel":0},{"pitch":20,"velocity":77,"channel":0},{"pitch":20,"velocity":69,"channel":0},{"pitch":18,"velocity":55,"channel":0},{"pitch":23,"velocity":66,"channel":0},{"pitch":59,"velocity":65,"channel":0},{"pitch":25,"velocity":60,"channel":0},{"pitch":73,"velocity":73,"channel":0},{"pitch":20,"velocity":56,"channel":0},{"pitch":25,"velocity":71,"channel":0},{"pitch":25,"velocity":62,"channel":0},{"pitch":25,"velocity":70,"channel":0},{"pitch":49,"velocity":66,"channel":0},{"pitch":25,"velocity":71,"channel":0},{"pitch":25,"velocity":73,"channel":0},{"pitch":75,"velocity":70,"channel":0},{"pitch":27,"velocity":68,"channel":0},{"pitch":27,"velocity":60,"channel":0},{"pitch":27,"velocity":64,"channel":0},{"pitch":27,"velocity":63,"channel":0},{"pitch":20,"velocity":75,"channel":0},{"pitch":32,"velocity":69,"channel":0},{"pitch":25,"velocity":66,"channel":0},{"pitch":49,"velocity":66,"channel":0},{"pitch":25,"velocity":55,"channel":0},{"pitch":20,"velocity":61,"channel":0},{"pitch":56,"velocity":62,"channel":0},{"pitch":20,"velocity":68,"channel":0},{"pitch":35,"velocity":61,"channel":0},{"pitch":23,"velocity":80,"channel":0},{"pitch":80,"velocity":82,"channel":0},{"pitch":25,"velocity":58,"channel":0},{"pitch":42,"velocity":68,"channel":0},{"pitch":42,"velocity":56,"channel":0},{"pitch":42,"velocity":75,"channel":0},{"pitch":90,"velocity":72,"channel":0},{"pitch":73,"velocity":79,"channel":0},{"pitch":20,"velocity":75,"channel":0},{"pitch":20,"velocity":79,"channel":0},{"pitch":90,"velocity":68,"channel":0},{"pitch":20,"velocity":70,"channel":0},{"pitch":20,"velocity":77,"channel":0},{"pitch":20,"velocity":66,"channel":0},{"pitch":20,"velocity":56,"channel":0},{"pitch":20,"velocity":77,"channel":0},{"pitch":20,"velocity":65,"channel":0},{"pitch":20,"velocity":76,"channel":0},{"pitch":20,"velocity":74,"channel":0},{"pitch":37,"velocity":69,"channel":0},{"pitch":37,"velocity":70,"channel":0},{"pitch":30,"velocity":60,"channel":0},{"pitch":37,"velocity":59,"channel":0},{"pitch":37,"velocity":73,"channel":0},{"pitch":92,"velocity":75,"channel":0},{"pitch":20,"velocity":75,"channel":0},{"pitch":20,"velocity":62,"channel":0},{"pitch":20,"velocity":74,"channel":0},{"pitch":18,"velocity":66,"channel":0},{"pitch":20,"velocity":60,"channel":0},{"pitch":15,"velocity":57,"channel":0},{"pitch":20,"velocity":76,"channel":0},{"pitch":80,"velocity":71,"channel":0},{"pitch":20,"velocity":81,"channel":0},{"pitch":13,"velocity":68,"channel":0},{"pitch":56,"velocity":63,"channel":0},{"pitch":83,"velocity":61,"channel":0},{"pitch":23,"velocity":68,"channel":0},{"pitch":23,"velocity":76,"channel":0},{"pitch":23,"velocity":79,"channel":0},{"pitch":23,"velocity":61,"channel":0},{"pitch":32,"velocity":77,"channel":0},{"pitch":20,"velocity":81,"channel":0},{"pitch":56,"velocity":74,"channel":0},{"pitch":20,"velocity":69,"channel":0},{"pitch":20,"velocity":68,"channel":0},{"pitch":11,"velocity":64,"channel":0},{"pitch":35,"velocity":74,"channel":0},{"pitch":35,"velocity":69,"channel":0},{"pitch":32,"velocity":67,"channel":0},{"pitch":25,"velocity":72,"channel":0},{"pitch":25,"velocity":74,"channel":0},{"pitch":11,"velocity":65,"channel":0},{"pitch":11,"velocity":69,"channel":0},{"pitch":11,"velocity":80,"channel":0},{"pitch":35,"velocity":78,"channel":0},{"pitch":35,"velocity":56,"channel":0},{"pitch":23,"velocity":74,"channel":0},{"pitch":37,"velocity":70,"channel":0},{"pitch":37,"velocity":67,"channel":0},{"pitch":37,"velocity":68,"channel":0},{"pitch":37,"velocity":74,"channel":0},{"pitch":35,"velocity":70,"channel":0},{"pitch":35,"velocity":71,"channel":0},{"pitch":35,"velocity":69,"channel":0},{"pitch":30,"velocity":69,"channel":0},{"pitch":95,"velocity":76,"channel":0},{"pitch":35,"velocity":58,"channel":0},{"pitch":25,"velocity":76,"channel":0},{"pitch":30,"velocity":76,"channel":0},{"pitch":25,"velocity":68,"channel":0},{"pitch":30,"velocity":62,"channel":0},{"pitch":78,"velocity":85,"channel":0},{"pitch":30,"velocity":71,"channel":0},{"pitch":30,"velocity":74,"channel":0},{"pitch":59,"velocity":80,"channel":0},{"pitch":83,"velocity":70,"channel":0},{"pitch":35,"velocity":61,"channel":0},{"pitch":35,"velocity":68,"channel":0},{"pitch":35,"velocity":68,"channel":0},{"pitch":32,"velocity":69,"channel":0},{"pitch":32,"velocity":65,"channel":0},{"pitch":32,"velocity":62,"channel":0},{"pitch":32,"velocity":81,"channel":0},{"pitch":25,"velocity":61,"channel":0},{"pitch":30,"velocity":72,"channel":0},{"pitch":23,"velocity":68,"channel":0},{"pitch":30,"velocity":65,"channel":0},{"pitch":30,"velocity":72,"channel":0},{"pitch":16,"velocity":104,"channel":0},{"pitch":76,"velocity":105,"channel":0}],"stageTiming":{"beat-setup":22.7568,"intent":0.0109,"entropy":0.5899,"phase":0.0229,"climax":0.0625,"envelope":0.0143,"silhouette":0.0232,"rest":0.0527,"complement":0.0021,"tension-cadence":0.2001,"negotiation":0.0426,"probability-adjust":0.0181,"emission":5.6281,"post-beat":0.0244},"iterBudget":{"raw":72,"capped":72,"wasCapped":false}}
{"layer":"L1","beatKey":"0:0:1:1","timeMs":2166.6666666666665,"snap":{"key":"D#","mode":"locrian","quality":"minor","scale":["D#","E","F#","G#","A","B","C#"],"chords":[],"tension":0.1267008380912245,"harmonicRhythm":0.3273371111432095,"harmonicMutationCount":3,"excursion":0,"sectionPhase":"opening","phrasePosition":0,"phrasePhase":"opening","phraseDynamism":1,"registerBias":-6,"densityMultiplier":0.8,"voiceIndependence":0.5,"compositeIntensity":0.39812977562926327,"playProb":0.26361426622353556,"stutterProb":0.23292789471207534,"flicker":1.1212101942619084,"textureMode":"flurry","textureFatigue":0,"densityBias":0,"crossModBias":1,"emissionRatio":0.8185067191910367,"extraDensityCorrection":1.0362986561617926,"extraCoherenceDensityBias":1,"activeProfile":"restrained","journeyMove":"origin","journeyDistance":0,"journeyKey":"D#","journeyMode":"locrian","binauralFreqOffset":8,"binauralFlip":false,"tick":82500,"updatedAt":1772748915441},"negotiation":{"playProb":0.23560987202634084,"stutterProb":0.229317572449859,"allowCadence":false,"conflict":0.07077518311440523,"phaseConfidence":0.275},"trust":{"stutterContagion":{"score":0.303065112384982,"samples":14,"weight":1.2272988342887365},"cadenceAlignment":{"score":0.17692945743153077,"samples":14,"weight":1.15},"phaseLock":{"score":0.18951466256733343,"samples":14,"weight":1.1421359969255},"convergence":{"score":0.17692945743153077,"samples":14,"weight":1.1326970930736482},"feedbackOscillator":{"score":0.17692945743153077,"samples":14,"weight":1.1326970930736482},"coherenceMonitor":{"score":0.5094444643154808,"samples":14,"weight":1.3820833482366106},"entropyRegulator":{"score":0.6632320862150302,"samples":14,"weight":1.4974240646612726},"restSynchronizer":{"score":0.17692945743153077,"samples":14,"weight":1.1326970930736482}},"regime":"initializing","coupling":{},"couplingTargets":{},"axisCouplingTotals":{"density":0,"tension":0,"flicker":0,"entropy":0,"trust":0,"phase":0},"axisEnergyShare":{"shares":{"density":0,"tension":0,"flicker":0,"entropy":0,"trust":0,"phase":0},"axisGini":0},"couplingGates":{"gateD":1,"gateT":1,"gateF":1,"floorDampen":1,"bypassD":0,"bypassT":0,"bypassF":0,"gateMinD":1,"gateMinT":1,"gateMinF":1,"gateEmaD":1,"gateEmaT":1,"gateEmaF":1,"gateBeatCount":2},"couplingHomeostasis":{"totalEnergyEma":0,"energyBudget":3.5,"peakEnergyEma":0,"totalEnergyFloor":8,"floorDampen":1,"redistributionScore":0,"nudgeableRedistributionScore":0,"globalGainMultiplier":1,"giniCoefficient":0,"energyDeltaEma":0,"pairTurbulenceEma":0,"beatCount":0,"invokeCount":2,"tickCount":14,"emptyMatrixBeats":2,"multiplierMin":1,"multiplierMax":1,"multiplierStdDev":0,"floorContactBeats":0,"ceilingContactBeats":14,"avgRecoveryDuration":0},"axisEnergyEquilibrator":{"beatCount":2,"pairAdjustments":0,"axisAdjustments":0,"smoothedShares":{"density":0,"tension":0,"flicker":0,"entropy":0,"trust":0,"phase":0},"perAxisAdj":{},"perPairAdj":{},"lastBaselines":{},"regimeBeats":{},"regimePairAdj":{},"regimeAxisAdj":{},"regimeTightenBudget":{}},"transitionReadiness":{"gap":0,"couplingStrength":0,"coherentThreshold":0,"velocity":0,"velThreshold":0.008,"thresholdScale":0.65,"velocityBlocked":false,"exploringBlock":"velocity","rawRegimeCounts":{},"rawRegimeMaxStreak":{},"effectiveDim":0},"notes":[{"pitch":44,"velocity":89,"channel":0},{"pitch":44,"velocity":70,"channel":0},{"pitch":56,"velocity":86,"channel":0},{"pitch":92,"velocity":82,"channel":0},{"pitch":32,"velocity":86,"channel":0},{"pitch":37,"velocity":85,"channel":0},{"pitch":40,"velocity":71,"channel":0},{"pitch":16,"velocity":85,"channel":0},{"pitch":16,"velocity":86,"channel":0},{"pitch":16,"velocity":88,"channel":0},{"pitch":16,"velocity":86,"channel":0},{"pitch":88,"velocity":78,"channel":0},{"pitch":16,"velocity":87,"channel":0},{"pitch":61,"velocity":89,"channel":0},{"pitch":56,"velocity":83,"channel":0},{"pitch":44,"velocity":83,"channel":0},{"pitch":80,"velocity":89,"channel":0},{"pitch":44,"velocity":88,"channel":0},{"pitch":16,"velocity":99,"channel":0},{"pitch":16,"velocity":71,"channel":0},{"pitch":16,"velocity":96,"channel":0},{"pitch":68,"velocity":108,"channel":0},{"pitch":76,"velocity":90,"channel":0},{"pitch":37,"velocity":91,"channel":0},{"pitch":76,"velocity":89,"channel":0},{"pitch":76,"velocity":85,"channel":0},{"pitch":76,"velocity":93,"channel":0},{"pitch":76,"velocity":85,"channel":0},{"pitch":76,"velocity":94,"channel":0},{"pitch":25,"velocity":70,"channel":0},{"pitch":25,"velocity":86,"channel":0},{"pitch":28,"velocity":117,"channel":0},{"pitch":25,"velocity":93,"channel":0}],"stageTiming":{"beat-setup":18.6497,"intent":0.011,"entropy":0.1529,"phase":0.0188,"climax":0.0422,"envelope":0.0123,"silhouette":0.018,"rest":0.0391,"complement":0.0018,"tension-cadence":0.1231,"negotiation":0.036,"probability-adjust":0.0021,"emission":5.1118,"post-beat":0.0307},"iterBudget":{"raw":144,"capped":144,"wasCapped":false}}
{"layer":"L1","beatKey":"0:0:1:2","timeMs":2333.3333333333335,"snap":{"key":"D#","mode":"locrian","quality":"minor","scale":["D#","E","F#","G#","A","B","C#"],"chords":[],"tension":0.1267008380912245,"harmonicRhythm":0.3273371111432095,"harmonicMutationCount":3,"excursion":0,"sectionPhase":"opening","phrasePosition":0,"phrasePhase":"opening","phraseDynamism":1,"registerBias":-6,"densityMultiplier":0.8,"voiceIndependence":0.5,"compositeIntensity":0.40359247733267367,"playProb":0.26361426622353556,"stutterProb":0.23292789471207534,"flicker":1.1212101942619084,"textureMode":"flurry","textureFatigue":0.05833333333333333,"densityBias":0,"crossModBias":1,"emissionRatio":0.8185067191910367,"extraDensityCorrection":1.0362986561617926,"extraCoherenceDensityBias":1,"activeProfile":"restrained","journeyMove":"origin","journeyDistance":0,"journeyKey":"D#","journeyMode":"locrian","binauralFreqOffset":8,"binauralFlip":false,"tick":82500,"updatedAt":1772748919487},"negotiation":{"playProb":0.2372327694115669,"stutterProb":0.23124872658842874,"allowCadence":false,"conflict":0.07729883428873663,"phaseConfidence":0.275},"trust":{"stutterContagion":{"score":0.3100276015617941,"samples":15,"weight":1.2325207011713455},"cadenceAlignment":{"score":0.18242553479755289,"samples":15,"weight":1.15},"phaseLock":{"score":0.19499300811428952,"samples":15,"weight":1.1462447560857172},"convergence":{"score":0.18242553479755289,"samples":15,"weight":1.1368191510981647},"feedbackOscillator":{"score":0.18242553479755289,"samples":15,"weight":1.1368191510981647},"coherenceMonitor":{"score":0.5196069206925827,"samples":15,"weight":1.389705190519437},"entropyRegulator":{"score":0.6882868407560933,"samples":15,"weight":1.51621513056707},"restSynchronizer":{"score":0.18242553479755289,"samples":15,"weight":1.1368191510981647}},"regime":"initializing","coupling":{},"couplingTargets":{},"axisCouplingTotals":{"density":0,"tension":0,"flicker":0,"entropy":0,"trust":0,"phase":0},"axisEnergyShare":{"shares":{"density":0,"tension":0,"flicker":0,"entropy":0,"trust":0,"phase":0},"axisGini":0},"couplingGates":{"gateD":1,"gateT":1,"gateF":1,"floorDampen":1,"bypassD":0,"bypassT":0,"bypassF":0,"gateMinD":1,"gateMinT":1,"gateMinF":1,"gateEmaD":1,"gateEmaT":1,"gateEmaF":1,"gateBeatCount":2},"couplingHomeostasis":{"totalEnergyEma":0,"energyBudget":3.5,"peakEnergyEma":0,"totalEnergyFloor":8,"floorDampen":1,"redistributionScore":0,"nudgeableRedistributionScore":0,"globalGainMultiplier":1,"giniCoefficient":0,"energyDeltaEma":0,"pairTurbulenceEma":0,"beatCount":0,"invokeCount":2,"tickCount":15,"emptyMatrixBeats":2,"multiplierMin":1,"multiplierMax":1,"multiplierStdDev":0,"floorContactBeats":0,"ceilingContactBeats":15,"avgRecoveryDuration":0},"axisEnergyEquilibrator":{"beatCount":2,"pairAdjustments":0,"axisAdjustments":0,"smoothedShares":{"density":0,"tension":0,"flicker":0,"entropy":0,"trust":0,"phase":0},"perAxisAdj":{},"perPairAdj":{},"lastBaselines":{},"regimeBeats":{},"regimePairAdj":{},"regimeAxisAdj":{},"regimeTightenBudget":{}},"transitionReadiness":{"gap":0,"couplingStrength":0,"coherentThreshold":0,"velocity":0,"velThreshold":0.008,"thresholdScale":0.65,"velocityBlocked":false,"exploringBlock":"velocity","rawRegimeCounts":{},"rawRegimeMaxStreak":{},"effectiveDim":0},"notes":[{"pitch":16,"velocity":90,"channel":0},{"pitch":13,"velocity":80,"channel":0},{"pitch":8,"velocity":72,"channel":0},{"pitch":20,"velocity":74,"channel":0},{"pitch":16,"velocity":90,"channel":0},{"pitch":16,"velocity":79,"channel":0},{"pitch":16,"velocity":79,"channel":0},{"pitch":13,"velocity":94,"channel":0},{"pitch":13,"velocity":79,"channel":0},{"pitch":4,"velocity":82,"channel":0},{"pitch":4,"velocity":83,"channel":0},{"pitch":4,"velocity":87,"channel":0},{"pitch":4,"velocity":95,"channel":0},{"pitch":28,"velocity":95,"channel":0},{"pitch":92,"velocity":89,"channel":0},{"pitch":37,"velocity":93,"channel":0},{"pitch":20,"velocity":88,"channel":0},{"pitch":20,"velocity":90,"channel":0},{"pitch":49,"velocity":95,"channel":0},{"pitch":44,"velocity":80,"channel":0},{"pitch":20,"velocity":71,"channel":0},{"pitch":32,"velocity":73,"channel":0},{"pitch":80,"velocity":87,"channel":0},{"pitch":8,"velocity":87,"channel":0},{"pitch":92,"velocity":100,"channel":0},{"pitch":37,"velocity":97,"channel":0},{"pitch":40,"velocity":91,"channel":0},{"pitch":16,"velocity":76,"channel":0},{"pitch":16,"velocity":100,"channel":0},{"pitch":16,"velocity":106,"channel":0},{"pitch":16,"velocity":63,"channel":0},{"pitch":73,"velocity":78,"channel":0},{"pitch":13,"velocity":95,"channel":0},{"pitch":73,"velocity":74,"channel":0},{"pitch":13,"velocity":88,"channel":0},{"pitch":13,"velocity":94,"channel":0},{"pitch":8,"velocity":102,"channel":0},{"pitch":25,"velocity":87,"channel":0},{"pitch":73,"velocity":80,"channel":0},{"pitch":8,"velocity":73,"channel":0},{"pitch":13,"velocity":99,"channel":0},{"pitch":13,"velocity":96,"channel":0},{"pitch":13,"velocity":84,"channel":0},{"pitch":13,"velocity":104,"channel":0},{"pitch":13,"velocity":96,"channel":0},{"pitch":85,"velocity":74,"channel":0},{"pitch":92,"velocity":88,"channel":0},{"pitch":56,"velocity":88,"channel":0},{"pitch":4,"velocity":90,"channel":0},{"pitch":40,"velocity":88,"channel":0},{"pitch":32,"velocity":82,"channel":0},{"pitch":32,"velocity":89,"channel":0},{"pitch":8,"velocity":100,"channel":0},{"pitch":20,"velocity":76,"channel":0},{"pitch":20,"velocity":92,"channel":0},{"pitch":8,"velocity":93,"channel":0},{"pitch":44,"velocity":89,"channel":0},{"pitch":56,"velocity":85,"channel":0},{"pitch":80,"velocity":95,"channel":0},{"pitch":32,"velocity":92,"channel":0},{"pitch":32,"velocity":81,"channel":0},{"pitch":32,"velocity":88,"channel":0},{"pitch":20,"velocity":94,"channel":0},{"pitch":52,"velocity":85,"channel":0},{"pitch":52,"velocity":87,"channel":0},{"pitch":8,"velocity":95,"channel":0},{"pitch":13,"velocity":79,"channel":0},{"pitch":13,"velocity":93,"channel":0},{"pitch":13,"velocity":70,"channel":0},{"pitch":8,"velocity":82,"channel":0},{"pitch":13,"velocity":88,"channel":0},{"pitch":16,"velocity":78,"channel":0},{"pitch":28,"velocity":95,"channel":0},{"pitch":52,"velocity":91,"channel":0},{"pitch":88,"velocity":97,"channel":0},{"pitch":52,"velocity":86,"channel":0},{"pitch":13,"velocity":78,"channel":0},{"pitch":13,"velocity":106,"channel":0},{"pitch":13,"velocity":76,"channel":0},{"pitch":13,"velocity":87,"channel":0},{"pitch":40,"velocity":85,"channel":0},{"pitch":40,"velocity":86,"channel":0},{"pitch":13,"velocity":85,"channel":0},{"pitch":40,"velocity":100,"channel":0},{"pitch":52,"velocity":99,"channel":0},{"pitch":40,"velocity":91,"channel":0},{"pitch":13,"velocity":74,"channel":0},{"pitch":44,"velocity":81,"channel":0},{"pitch":28,"velocity":90,"channel":0},{"pitch":13,"velocity":101,"channel":0},{"pitch":56,"velocity":89,"channel":0},{"pitch":13,"velocity":81,"channel":0},{"pitch":13,"velocity":92,"channel":0},{"pitch":49,"velocity":101,"channel":0},{"pitch":20,"velocity":95,"channel":0},{"pitch":32,"velocity":98,"channel":0},{"pitch":20,"velocity":81,"channel":0},{"pitch":20,"velocity":87,"channel":0},{"pitch":20,"velocity":73,"channel":0},{"pitch":20,"velocity":97,"channel":0},{"pitch":20,"velocity":80,"channel":0},{"pitch":8,"velocity":95,"channel":0},{"pitch":13,"velocity":79,"channel":0},{"pitch":25,"velocity":98,"channel":0},{"pitch":13,"velocity":84,"channel":0},{"pitch":73,"velocity":88,"channel":0},{"pitch":13,"velocity":95,"channel":0},{"pitch":13,"velocity":86,"channel":0},{"pitch":13,"velocity":80,"channel":0},{"pitch":8,"velocity":95,"channel":0},{"pitch":13,"velocity":88,"channel":0},{"pitch":13,"velocity":88,"channel":0},{"pitch":13,"velocity":94,"channel":0},{"pitch":13,"velocity":86,"channel":0},{"pitch":13,"velocity":81,"channel":0},{"pitch":4,"velocity":87,"channel":0},{"pitch":80,"velocity":96,"channel":0},{"pitch":13,"velocity":90,"channel":0},{"pitch":13,"velocity":89,"channel":0},{"pitch":25,"velocity":84,"channel":0},{"pitch":13,"velocity":101,"channel":0},{"pitch":13,"velocity":86,"channel":0},{"pitch":8,"velocity":98,"channel":0},{"pitch":13,"velocity":77,"channel":0},{"pitch":13,"velocity":93,"channel":0},{"pitch":13,"velocity":88,"channel":0},{"pitch":4,"velocity":106,"channel":0},{"pitch":16,"velocity":75,"channel":0},{"pitch":52,"velocity":92,"channel":0},{"pitch":76,"velocity":88,"channel":0},{"pitch":40,"velocity":86,"channel":0},{"pitch":16,"velocity":96,"channel":0},{"pitch":76,"velocity":79,"channel":0},{"pitch":32,"velocity":82,"channel":0},{"pitch":13,"velocity":84,"channel":0},{"pitch":44,"velocity":79,"channel":0},{"pitch":32,"velocity":87,"channel":0},{"pitch":16,"velocity":86,"channel":0},{"pitch":16,"velocity":89,"channel":0},{"pitch":20,"velocity":78,"channel":0},{"pitch":20,"velocity":104,"channel":0},{"pitch":20,"velocity":76,"channel":0},{"pitch":40,"velocity":88,"channel":0},{"pitch":8,"velocity":100,"channel":0},{"pitch":49,"velocity":85,"channel":0},{"pitch":13,"velocity":87,"channel":0},{"pitch":8,"velocity":96,"channel":0},{"pitch":25,"velocity":92,"channel":0},{"pitch":13,"velocity":88,"channel":0},{"pitch":13,"velocity":91,"channel":0},{"pitch":13,"velocity":92,"channel":0},{"pitch":56,"velocity":76,"channel":0},{"pitch":20,"velocity":82,"channel":0},{"pitch":20,"velocity":86,"channel":0},{"pitch":49,"velocity":95,"channel":0},{"pitch":49,"velocity":88,"channel":0},{"pitch":92,"velocity":88,"channel":0},{"pitch":44,"velocity":90,"channel":0},{"pitch":8,"velocity":96,"channel":0},{"pitch":8,"velocity":76,"channel":0},{"pitch":4,"velocity":100,"channel":0},{"pitch":73,"velocity":102,"channel":0}],"stageTiming":{"beat-setup":12.6609,"intent":0.0104,"entropy":0.1616,"phase":0.0182,"climax":0.0217,"envelope":0.0117,"silhouette":0.0214,"rest":0.0417,"complement":0.002,"tension-cadence":0.1201,"negotiation":0.0269,"probability-adjust":0.0022,"emission":4.1024,"post-beat":0.0197},"iterBudget":{"raw":780,"capped":384,"wasCapped":true}}
{"layer":"L1","beatKey":"0:0:1:3","timeMs":2500,"snap":{"key":"D#","mode":"locrian","quality":"minor","scale":["D#","E","F#","G#","A","B","C#"],"chords":[],"tension":0.1267008380912245,"harmonicRhythm":0.3273371111432095,"harmonicMutationCount":3,"excursion":0,"sectionPhase":"opening","phrasePosition":0,"phrasePhase":"opening","phraseDynamism":1,"registerBias":-6,"densityMultiplier":0.8,"voiceIndependence":0.5,"compositeIntensity":0.4172602096916964,"playProb":0.26361426622353556,"stutterProb":0.23292789471207534,"flicker":1.1212101942619084,"textureMode":"flurry","textureFatigue":0.05833333333333333,"densityBias":0,"crossModBias":1,"emissionRatio":0.8185067191910367,"extraDensityCorrection":1.0362986561617926,"extraCoherenceDensityBias":1,"activeProfile":"restrained","journeyMove":"origin","journeyDistance":0,"journeyKey":"D#","journeyMode":"locrian","binauralFreqOffset":8,"binauralFlip":false,"tick":82500,"updatedAt":1772748927242},"negotiation":{"playProb":0.23914788893479247,"stutterProb":0.23341141519876618,"allowCadence":false,"conflict":0.08252070117134558,"phaseConfidence":0.275},"trust":{"stutterContagion":{"score":0.3154545323274995,"samples":16,"weight":1.2365908992456247},"cadenceAlignment":{"score":0.18683414854978334,"samples":16,"weight":1.15},"phaseLock":{"score":0.19991858859555772,"samples":16,"weight":1.1499389414466683},"convergence":{"score":0.18683414854978334,"samples":16,"weight":1.1401256114123375},"feedbackOscillator":{"score":0.18683414854978334,"samples":16,"weight":1.1401256114123375},"coherenceMonitor":{"score":0.532093367324571,"samples":16,"weight":1.3990700254934283},"entropyRegulator":{"score":0.7048658962083293,"samples":16,"weight":1.528649422156247},"restSynchronizer":{"score":0.18683414854978334,"samples":16,"weight":1.1401256114123375}},"regime":"initializing","coupling":{},"couplingTargets":{},"axisCouplingTotals":{"density":0,"tension":0,"flicker":0,"entropy":0,"trust":0,"phase":0},"axisEnergyShare":{"shares":{"density":0,"tension":0,"flicker":0,"entropy":0,"trust":0,"phase":0},"axisGini":0},"couplingGates":{"gateD":1,"gateT":1,"gateF":1,"floorDampen":1,"bypassD":0,"bypassT":0,"bypassF":0,"gateMinD":1,"gateMinT":1,"gateMinF":1,"gateEmaD":1,"gateEmaT":1,"gateEmaF":1,"gateBeatCount":2},"couplingHomeostasis":{"totalEnergyEma":0,"energyBudget":3.5,"peakEnergyEma":0,"totalEnergyFloor":8,"floorDampen":1,"redistributionScore":0,"nudgeableRedistributionScore":0,"globalGainMultiplier":1,"giniCoefficient":0,"energyDeltaEma":0,"pairTurbulenceEma":0,"beatCount":0,"invokeCount":2,"tickCount":16,"emptyMatrixBeats":2,"multiplierMin":1,"multiplierMax":1,"multiplierStdDev":0,"floorContactBeats":0,"ceilingContactBeats":16,"avgRecoveryDuration":0},"axisEnergyEquilibrator":{"beatCount":2,"pairAdjustments":0,"axisAdjustments":0,"smoothedShares":{"density":0,"tension":0,"flicker":0,"entropy":0,"trust":0,"phase":0},"perAxisAdj":{},"perPairAdj":{},"lastBaselines":{},"regimeBeats":{},"regimePairAdj":{},"regimeAxisAdj":{},"regimeTightenBudget":{}},"transitionReadiness":{"gap":0,"couplingStrength":0,"coherentThreshold":0,"velocity":0,"velThreshold":0.008,"thresholdScale":0.65,"velocityBlocked":false,"exploringBlock":"velocity","rawRegimeCounts":{},"rawRegimeMaxStreak":{},"effectiveDim":0},"notes":[{"pitch":28,"velocity":80,"channel":0},{"pitch":49,"velocity":102,"channel":0},{"pitch":20,"velocity":86,"channel":0},{"pitch":8,"velocity":89,"channel":0},{"pitch":20,"velocity":90,"channel":0},{"pitch":20,"velocity":99,"channel":0},{"pitch":25,"velocity":82,"channel":0},{"pitch":40,"velocity":86,"channel":0},{"pitch":32,"velocity":95,"channel":0},{"pitch":37,"velocity":105,"channel":0},{"pitch":49,"velocity":93,"channel":0},{"pitch":92,"velocity":82,"channel":0},{"pitch":37,"velocity":83,"channel":0},{"pitch":28,"velocity":95,"channel":0},{"pitch":28,"velocity":92,"channel":0},{"pitch":32,"velocity":80,"channel":0},{"pitch":28,"velocity":83,"channel":0},{"pitch":16,"velocity":86,"channel":0},{"pitch":16,"velocity":94,"channel":0},{"pitch":52,"velocity":88,"channel":0},{"pitch":76,"velocity":76,"channel":0},{"pitch":16,"velocity":91,"channel":0},{"pitch":16,"velocity":104,"channel":0},{"pitch":16,"velocity":85,"channel":0},{"pitch":16,"velocity":74,"channel":0},{"pitch":16,"velocity":102,"channel":0},{"pitch":16,"velocity":88,"channel":0},{"pitch":52,"velocity":93,"channel":0},{"pitch":16,"velocity":94,"channel":0},{"pitch":16,"velocity":103,"channel":0},{"pitch":16,"velocity":93,"channel":0},{"pitch":88,"velocity":107,"channel":0},{"pitch":13,"velocity":95,"channel":0},{"pitch":13,"velocity":94,"channel":0},{"pitch":13,"velocity":90,"channel":0},{"pitch":52,"velocity":78,"channel":0},{"pitch":32,"velocity":84,"channel":0},{"pitch":88,"velocity":83,"channel":0},{"pitch":28,"velocity":95,"channel":0},{"pitch":13,"velocity":76,"channel":0},{"pitch":13,"velocity":99,"channel":0},{"pitch":13,"velocity":91,"channel":0},{"pitch":13,"velocity":84,"channel":0},{"pitch":13,"velocity":89,"channel":0},{"pitch":13,"velocity":95,"channel":0},{"pitch":13,"velocity":89,"channel":0},{"pitch":13,"velocity":86,"channel":0},{"pitch":40,"velocity":101,"channel":0},{"pitch":32,"velocity":92,"channel":0},{"pitch":44,"velocity":88,"channel":0},{"pitch":80,"velocity":97,"channel":0},{"pitch":40,"velocity":91,"channel":0},{"pitch":16,"velocity":70,"channel":0},{"pitch":92,"velocity":98,"channel":0},{"pitch":56,"velocity":93,"channel":0},{"pitch":44,"velocity":95,"channel":0},{"pitch":16,"velocity":94,"channel":0},{"pitch":16,"velocity":98,"channel":0},{"pitch":16,"velocity":98,"channel":0},{"pitch":52,"velocity":100,"channel":0},{"pitch":13,"velocity":100,"channel":0},{"pitch":13,"velocity":89,"channel":0},{"pitch":13,"velocity":107,"channel":0},{"pitch":13,"velocity":96,"channel":0},{"pitch":13,"velocity":100,"channel":0},{"pitch":80,"velocity":86,"channel":0},{"pitch":8,"velocity":87,"channel":0},{"pitch":13,"velocity":99,"channel":0},{"pitch":13,"velocity":103,"channel":0},{"pitch":88,"velocity":98,"channel":0},{"pitch":13,"velocity":80,"channel":0},{"pitch":13,"velocity":84,"channel":0},{"pitch":13,"velocity":73,"channel":0},{"pitch":8,"velocity":83,"channel":0},{"pitch":37,"velocity":87,"channel":0},{"pitch":52,"velocity":103,"channel":0},{"pitch":37,"velocity":107,"channel":0},{"pitch":1,"velocity":88,"channel":0},{"pitch":80,"velocity":88,"channel":0},{"pitch":13,"velocity":89,"channel":0},{"pitch":20,"velocity":72,"channel":0},{"pitch":80,"velocity":92,"channel":0},{"pitch":20,"velocity":90,"channel":0},{"pitch":20,"velocity":97,"channel":0},{"pitch":20,"velocity":81,"channel":0},{"pitch":4,"velocity":105,"channel":0},{"pitch":28,"velocity":84,"channel":0},{"pitch":28,"velocity":98,"channel":0},{"pitch":16,"velocity":83,"channel":0},{"pitch":16,"velocity":91,"channel":0},{"pitch":16,"velocity":101,"channel":0},{"pitch":80,"velocity":95,"channel":0},{"pitch":56,"velocity":91,"channel":0},{"pitch":37,"velocity":82,"channel":0},{"pitch":40,"velocity":74,"channel":0},{"pitch":49,"velocity":103,"channel":0},{"pitch":8,"velocity":80,"channel":0},{"pitch":32,"velocity":76,"channel":0},{"pitch":56,"velocity":77,"channel":0},{"pitch":20,"velocity":105,"channel":0},{"pitch":20,"velocity":84,"channel":0},{"pitch":92,"velocity":107,"channel":0},{"pitch":20,"velocity":92,"channel":0},{"pitch":8,"velocity":104,"channel":0},{"pitch":13,"velocity":80,"channel":0},{"pitch":13,"velocity":104,"channel":0},{"pitch":13,"velocity":82,"channel":0},{"pitch":13,"velocity":78,"channel":0},{"pitch":25,"velocity":87,"channel":0},{"pitch":13,"velocity":81,"channel":0},{"pitch":73,"velocity":91,"channel":0},{"pitch":13,"velocity":91,"channel":0},{"pitch":8,"velocity":96,"channel":0},{"pitch":49,"velocity":74,"channel":0},{"pitch":13,"velocity":87,"channel":0},{"pitch":13,"velocity":97,"channel":0},{"pitch":13,"velocity":90,"channel":0},{"pitch":16,"velocity":94,"channel":0},{"pitch":16,"velocity":84,"channel":0},{"pitch":16,"velocity":75,"channel":0},{"pitch":32,"velocity":85,"channel":0},{"pitch":8,"velocity":94,"channel":0},{"pitch":13,"velocity":98,"channel":0},{"pitch":13,"velocity":98,"channel":0},{"pitch":13,"velocity":90,"channel":0},{"pitch":13,"velocity":83,"channel":0},{"pitch":49,"velocity":98,"channel":0},{"pitch":13,"velocity":82,"channel":0},{"pitch":73,"velocity":93,"channel":0},{"pitch":13,"velocity":100,"channel":0},{"pitch":85,"velocity":96,"channel":0},{"pitch":13,"velocity":93,"channel":0},{"pitch":13,"velocity":80,"channel":0},{"pitch":13,"velocity":77,"channel":0},{"pitch":13,"velocity":75,"channel":0},{"pitch":8,"velocity":93,"channel":0},{"pitch":73,"velocity":92,"channel":0},{"pitch":44,"velocity":88,"channel":0},{"pitch":40,"velocity":95,"channel":0},{"pitch":40,"velocity":102,"channel":0},{"pitch":76,"velocity":74,"channel":0},{"pitch":40,"velocity":73,"channel":0},{"pitch":8,"velocity":83,"channel":0},{"pitch":13,"velocity":95,"channel":0},{"pitch":13,"velocity":95,"channel":0},{"pitch":76,"velocity":84,"channel":0},{"pitch":16,"velocity":88,"channel":0},{"pitch":20,"velocity":82,"channel":0},{"pitch":20,"velocity":92,"channel":0},{"pitch":8,"velocity":78,"channel":0},{"pitch":20,"velocity":93,"channel":0},{"pitch":20,"velocity":86,"channel":0},{"pitch":20,"velocity":102,"channel":0},{"pitch":56,"velocity":89,"channel":0},{"pitch":20,"velocity":82,"channel":0},{"pitch":20,"velocity":85,"channel":0},{"pitch":92,"velocity":82,"channel":0},{"pitch":4,"velocity":102,"channel":0},{"pitch":44,"velocity":89,"channel":0},{"pitch":28,"velocity":81,"channel":0},{"pitch":28,"velocity":84,"channel":0},{"pitch":37,"velocity":79,"channel":0},{"pitch":56,"velocity":109,"channel":0},{"pitch":37,"velocity":82,"channel":0},{"pitch":32,"velocity":96,"channel":0},{"pitch":56,"velocity":83,"channel":0},{"pitch":20,"velocity":97,"channel":0},{"pitch":20,"velocity":74,"channel":0},{"pitch":20,"velocity":95,"channel":0},{"pitch":20,"velocity":88,"channel":0},{"pitch":20,"velocity":89,"channel":0},{"pitch":44,"velocity":88,"channel":0},{"pitch":20,"velocity":86,"channel":0},{"pitch":20,"velocity":89,"channel":0},{"pitch":20,"velocity":94,"channel":0},{"pitch":20,"velocity":81,"channel":0},{"pitch":13,"velocity":98,"channel":0},{"pitch":32,"velocity":85,"channel":0},{"pitch":49,"velocity":96,"channel":0},{"pitch":37,"velocity":89,"channel":0},{"pitch":37,"velocity":81,"channel":0},{"pitch":37,"velocity":87,"channel":0},{"pitch":37,"velocity":110,"channel":0},{"pitch":56,"velocity":93,"channel":0},{"pitch":32,"velocity":86,"channel":0},{"pitch":20,"velocity":86,"channel":0},{"pitch":20,"velocity":98,"channel":0},{"pitch":80,"velocity":93,"channel":0},{"pitch":8,"velocity":86,"channel":0},{"pitch":56,"velocity":71,"channel":0},{"pitch":32,"velocity":83,"channel":0},{"pitch":80,"velocity":84,"channel":0},{"pitch":20,"velocity":94,"channel":0},{"pitch":20,"velocity":91,"channel":0},{"pitch":56,"velocity":81,"channel":0},{"pitch":4,"velocity":96,"channel":0},{"pitch":1,"velocity":108,"channel":0},{"pitch":80,"velocity":64,"channel":0},{"pitch":13,"velocity":93,"channel":0},{"pitch":13,"velocity":91,"channel":0},{"pitch":32,"velocity":97,"channel":0},{"pitch":37,"velocity":91,"channel":0},{"pitch":37,"velocity":82,"channel":0},{"pitch":16,"velocity":92,"channel":0},{"pitch":20,"velocity":111,"channel":0},{"pitch":20,"velocity":101,"channel":0},{"pitch":20,"velocity":89,"channel":0},{"pitch":20,"velocity":84,"channel":0},{"pitch":20,"velocity":87,"channel":0},{"pitch":8,"velocity":91,"channel":0},{"pitch":13,"velocity":89,"channel":0},{"pitch":13,"velocity":92,"channel":0},{"pitch":13,"velocity":81,"channel":0},{"pitch":13,"velocity":90,"channel":0},{"pitch":25,"velocity":90,"channel":0},{"pitch":8,"velocity":93,"channel":0},{"pitch":13,"velocity":83,"channel":0},{"pitch":13,"velocity":93,"channel":0},{"pitch":49,"velocity":103,"channel":0},{"pitch":40,"velocity":86,"channel":0},{"pitch":40,"velocity":105,"channel":0},{"pitch":13,"velocity":86,"channel":0},{"pitch":40,"velocity":92,"channel":0},{"pitch":80,"velocity":96,"channel":0},{"pitch":73,"velocity":90,"channel":0},{"pitch":25,"velocity":84,"channel":0},{"pitch":80,"velocity":79,"channel":0},{"pitch":16,"velocity":81,"channel":0},{"pitch":28,"velocity":89,"channel":0},{"pitch":52,"velocity":105,"channel":0},{"pitch":8,"velocity":82,"channel":0},{"pitch":28,"velocity":72,"channel":0},{"pitch":28,"velocity":91,"channel":0},{"pitch":13,"velocity":85,"channel":0},{"pitch":20,"velocity":104,"channel":0},{"pitch":20,"velocity":83,"channel":0},{"pitch":20,"velocity":97,"channel":0},{"pitch":20,"velocity":86,"channel":0},{"pitch":56,"velocity":88,"channel":0},{"pitch":80,"velocity":84,"channel":0},{"pitch":44,"velocity":95,"channel":0},{"pitch":32,"velocity":85,"channel":0},{"pitch":28,"velocity":80,"channel":0},{"pitch":16,"velocity":90,"channel":0},{"pitch":56,"velocity":87,"channel":0},{"pitch":20,"velocity":82,"channel":0},{"pitch":32,"velocity":76,"channel":0},{"pitch":20,"velocity":105,"channel":0},{"pitch":44,"velocity":92,"channel":0},{"pitch":28,"velocity":77,"channel":0},{"pitch":68,"velocity":85,"channel":0},{"pitch":68,"velocity":88,"channel":0},{"pitch":40,"velocity":97,"channel":0},{"pitch":13,"velocity":94,"channel":0},{"pitch":49,"velocity":82,"channel":0},{"pitch":13,"velocity":76,"channel":0},{"pitch":25,"velocity":74,"channel":0},{"pitch":25,"velocity":86,"channel":0},{"pitch":49,"velocity":72,"channel":0},{"pitch":16,"velocity":102,"channel":0},{"pitch":28,"velocity":81,"channel":0},{"pitch":16,"velocity":88,"channel":0},{"pitch":16,"velocity":87,"channel":0},{"pitch":16,"velocity":88,"channel":0},{"pitch":16,"velocity":81,"channel":0},{"pitch":44,"velocity":92,"channel":0},{"pitch":13,"velocity":95,"channel":0},{"pitch":13,"velocity":96,"channel":0},{"pitch":73,"velocity":96,"channel":0},{"pitch":13,"velocity":84,"channel":0},{"pitch":13,"velocity":99,"channel":0},{"pitch":13,"velocity":91,"channel":0},{"pitch":4,"velocity":95,"channel":0},{"pitch":80,"velocity":92,"channel":0},{"pitch":20,"velocity":80,"channel":0},{"pitch":20,"velocity":77,"channel":0},{"pitch":20,"velocity":89,"channel":0},{"pitch":20,"velocity":86,"channel":0},{"pitch":80,"velocity":100,"channel":0},{"pitch":20,"velocity":99,"channel":0},{"pitch":32,"velocity":94,"channel":0},{"pitch":13,"velocity":110,"channel":0},{"pitch":85,"velocity":91,"channel":0},{"pitch":88,"velocity":88,"channel":0},{"pitch":88,"velocity":81,"channel":0},{"pitch":56,"velocity":92,"channel":0},{"pitch":44,"velocity":88,"channel":0},{"pitch":16,"velocity":90,"channel":0},{"pitch":16,"velocity":88,"channel":0},{"pitch":13,"velocity":103,"channel":0},{"pitch":16,"velocity":72,"channel":0},{"pitch":16,"velocity":86,"channel":0},{"pitch":28,"velocity":98,"channel":0},{"pitch":13,"velocity":91,"channel":0},{"pitch":49,"velocity":90,"channel":0},{"pitch":13,"velocity":85,"channel":0},{"pitch":49,"velocity":77,"channel":0},{"pitch":13,"velocity":107,"channel":0},{"pitch":80,"velocity":79,"channel":0},{"pitch":13,"velocity":95,"channel":0},{"pitch":13,"velocity":89,"channel":0},{"pitch":8,"velocity":90,"channel":0},{"pitch":13,"velocity":87,"channel":0},{"pitch":13,"velocity":94,"channel":0},{"pitch":13,"velocity":91,"channel":0},{"pitch":13,"velocity":93,"channel":0},{"pitch":13,"velocity":107,"channel":0},{"pitch":13,"velocity":80,"channel":0},{"pitch":8,"velocity":105,"channel":0},{"pitch":13,"velocity":94,"channel":0},{"pitch":25,"velocity":86,"channel":0},{"pitch":13,"velocity":85,"channel":0},{"pitch":13,"velocity":98,"channel":0},{"pitch":13,"velocity":84,"channel":0},{"pitch":13,"velocity":101,"channel":0},{"pitch":13,"velocity":86,"channel":0}],"stageTiming":{"beat-setup":20.2345,"intent":0.0139,"entropy":0.2025,"phase":0.0206,"climax":0.0391,"envelope":0.0402,"silhouette":0.0301,"rest":0.048,"complement":0.0082,"tension-cadence":0.1285,"negotiation":0.0293,"probability-adjust":0.0064,"emission":1.9612,"post-beat":0.0222},"iterBudget":{"raw":12,"capped":12,"wasCapped":false}}
{"layer":"L1","beatKey":"0:0:1:4","timeMs":2666.6666666666665,"snap":{"key":"D#","mode":"locrian","quality":"minor","scale":["D#","E","F#","G#","A","B","C#"],"chords":[],"tension":0.1267008380912245,"harmonicRhythm":0.3273371111432095,"harmonicMutationCount":3,"excursion":0,"sectionPhase":"opening","phrasePosition":0,"phrasePhase":"opening","phraseDynamism":1,"registerBias":-6,"densityMultiplier":0.8,"voiceIndependence":0.5,"compositeIntensity":0.4172602096916964,"playProb":0.26361426622353556,"stutterProb":0.23292789471207534,"flicker":1.1212101942619084,"textureMode":"flurry","textureFatigue":0.05833333333333333,"densityBias":0,"crossModBias":1,"emissionRatio":0.8185067191910367,"extraDensityCorrection":1.0362986561617926,"extraCoherenceDensityBias":1,"activeProfile":"restrained","journeyMove":"origin","journeyDistance":0,"journeyKey":"D#","journeyMode":"locrian","binauralFreqOffset":8,"binauralFlip":false,"tick":82500,"updatedAt":1772748928526},"negotiation":{"playProb":0.23959866119282233,"stutterProb":0.23432564923936047,"allowCadence":false,"conflict":0.0865908992456248,"phaseConfidence":0.275},"trust":{"stutterContagion":{"score":0.3193340036443419,"samples":17,"weight":1.2395005027332564},"cadenceAlignment":{"score":0.19097452228581022,"samples":17,"weight":1.15},"phaseLock":{"score":0.20434717800626598,"samples":17,"weight":1.1532603835046995},"convergence":{"score":0.19097452228581022,"samples":17,"weight":1.1432308917143577},"feedbackOscillator":{"score":0.19097452228581022,"samples":17,"weight":1.1432308917143577},"coherenceMonitor":{"score":0.5462655420190415,"samples":17,"weight":1.4096991565142811},"entropyRegulator":{"score":0.7213614934483408,"samples":17,"weight":1.5410211200862556},"restSynchronizer":{"score":0.19097452228581022,"samples":17,"weight":1.1432308917143577}},"regime":"initializing","coupling":{},"couplingTargets":{},"axisCouplingTotals":{"density":0,"tension":0,"flicker":0,"entropy":0,"trust":0,"phase":0},"axisEnergyShare":{"shares":{"density":0,"tension":0,"flicker":0,"entropy":0,"trust":0,"phase":0},"axisGini":0},"couplingGates":{"gateD":1,"gateT":1,"gateF":1,"floorDampen":1,"bypassD":0,"bypassT":0,"bypassF":0,"gateMinD":1,"gateMinT":1,"gateMinF":1,"gateEmaD":1,"gateEmaT":1,"gateEmaF":1,"gateBeatCount":2},"couplingHomeostasis":{"totalEnergyEma":0,"energyBudget":3.5,"peakEnergyEma":0,"totalEnergyFloor":8,"floorDampen":1,"redistributionScore":0,"nudgeableRedistributionScore":0,"globalGainMultiplier":1,"giniCoefficient":0,"energyDeltaEma":0,"pairTurbulenceEma":0,"beatCount":0,"invokeCount":2,"tickCount":17,"emptyMatrixBeats":2,"multiplierMin":1,"multiplierMax":1,"multiplierStdDev":0,"floorContactBeats":0,"ceilingContactBeats":17,"avgRecoveryDuration":0},"axisEnergyEquilibrator":{"beatCount":2,"pairAdjustments":0,"axisAdjustments":0,"smoothedShares":{"density":0,"tension":0,"flicker":0,"entropy":0,"trust":0,"phase":0},"perAxisAdj":{},"perPairAdj":{},"lastBaselines":{},"regimeBeats":{},"regimePairAdj":{},"regimeAxisAdj":{},"regimeTightenBudget":{}},"transitionReadiness":{"gap":0,"couplingStrength":0,"coherentThreshold":0,"velocity":0,"velThreshold":0.008,"thresholdScale":0.65,"velocityBlocked":false,"exploringBlock":"velocity","rawRegimeCounts":{},"rawRegimeMaxStreak":{},"effectiveDim":0},"notes":[{"pitch":28,"velocity":90,"channel":0},{"pitch":16,"velocity":88,"channel":0},{"pitch":16,"velocity":91,"channel":0},{"pitch":16,"velocity":96,"channel":0},{"pitch":52,"velocity":93,"channel":0},{"pitch":13,"velocity":89,"channel":0},{"pitch":52,"velocity":106,"channel":0},{"pitch":44,"velocity":106,"channel":0},{"pitch":40,"velocity":94,"channel":0},{"pitch":13,"velocity":104,"channel":0},{"pitch":85,"velocity":90,"channel":0},{"pitch":20,"velocity":88,"channel":0},{"pitch":20,"velocity":105,"channel":0},{"pitch":92,"velocity":77,"channel":0},{"pitch":40,"velocity":104,"channel":0},{"pitch":80,"velocity":80,"channel":0},{"pitch":44,"velocity":96,"channel":0},{"pitch":40,"velocity":91,"channel":0},{"pitch":73,"velocity":107,"channel":0},{"pitch":80,"velocity":95,"channel":0},{"pitch":13,"velocity":89,"channel":0},{"pitch":52,"velocity":91,"channel":0},{"pitch":73,"velocity":103,"channel":0},{"pitch":49,"velocity":89,"channel":0},{"pitch":49,"velocity":90,"channel":0},{"pitch":32,"velocity":82,"channel":0},{"pitch":32,"velocity":91,"channel":0},{"pitch":92,"velocity":86,"channel":0},{"pitch":32,"velocity":84,"channel":0},{"pitch":44,"velocity":86,"channel":0},{"pitch":40,"velocity":87,"channel":0},{"pitch":44,"velocity":90,"channel":0},{"pitch":44,"velocity":91,"channel":0},{"pitch":49,"velocity":96,"channel":0},{"pitch":49,"velocity":103,"channel":0},{"pitch":49,"velocity":77,"channel":0},{"pitch":8,"velocity":82,"channel":0},{"pitch":44,"velocity":101,"channel":0},{"pitch":44,"velocity":86,"channel":0},{"pitch":44,"velocity":88,"channel":0},{"pitch":32,"velocity":95,"channel":0},{"pitch":28,"velocity":96,"channel":0},{"pitch":28,"velocity":99,"channel":0},{"pitch":44,"velocity":92,"channel":0},{"pitch":44,"velocity":93,"channel":0},{"pitch":28,"velocity":86,"channel":0},{"pitch":16,"velocity":95,"channel":0},{"pitch":8,"velocity":88,"channel":0},{"pitch":44,"velocity":94,"channel":0},{"pitch":76,"velocity":99,"channel":0},{"pitch":16,"velocity":113,"channel":0},{"pitch":20,"velocity":80,"channel":0},{"pitch":52,"velocity":76,"channel":0},{"pitch":52,"velocity":116,"channel":0},{"pitch":88,"velocity":96,"channel":0},{"pitch":80,"velocity":96,"channel":0},{"pitch":76,"velocity":88,"channel":0},{"pitch":76,"velocity":84,"channel":0},{"pitch":4,"velocity":113,"channel":0},{"pitch":1,"velocity":127,"channel":0}],"stageTiming":{"beat-setup":14.6879,"intent":0.0118,"entropy":0.1887,"phase":0.022,"climax":0.0276,"envelope":0.0146,"silhouette":0.0283,"rest":0.0426,"complement":0.0029,"tension-cadence":0.1732,"negotiation":0.0247,"probability-adjust":0.0025,"emission":3.7087,"post-beat":0.0194},"iterBudget":{"raw":280,"capped":280,"wasCapped":false}}
{"layer":"L1","beatKey":"0:0:1:5","timeMs":2833.333333333333,"snap":{"key":"D#","mode":"locrian","quality":"minor","scale":["D#","E","F#","G#","A","B","C#"],"chords":[],"tension":0.1267008380912245,"harmonicRhythm":0.3273371111432095,"harmonicMutationCount":3,"excursion":0,"sectionPhase":"opening","phrasePosition":0,"phrasePhase":"opening","phraseDynamism":1,"registerBias":-6,"densityMultiplier":0.8,"voiceIndependence":0.5,"compositeIntensity":0.4337162516249826,"playProb":0.26361426622353556,"stutterProb":0.23292789471207534,"flicker":1.1212101942619084,"textureMode":"flurry","textureFatigue":0.05833333333333333,"densityBias":0,"crossModBias":1,"emissionRatio":0.8185067191910367,"extraDensityCorrection":1.0362986561617926,"extraCoherenceDensityBias":1,"activeProfile":"restrained","journeyMove":"origin","journeyDistance":0,"journeyKey":"D#","journeyMode":"locrian","binauralFreqOffset":8,"binauralFlip":false,"tick":82500,"updatedAt":1772748934030},"negotiation":{"playProb":0.24101534173741224,"stutterProb":0.23608320615917017,"allowCadence":false,"conflict":0.08950050273325649,"phaseConfidence":0.275},"trust":{"stutterContagion":{"score":0.32182778010064644,"samples":18,"weight":1.2413708350754848},"cadenceAlignment":{"score":0.19454218225901015,"samples":18,"weight":1.15},"phaseLock":{"score":0.20832892274543377,"samples":18,"weight":1.1562466920590753},"convergence":{"score":0.19454218225901015,"samples":18,"weight":1.1459066366942576},"feedbackOscillator":{"score":0.19454218225901015,"samples":18,"weight":1.1459066366942576},"coherenceMonitor":{"score":0.5605060233313033,"samples":18,"weight":1.4203795174984775},"entropyRegulator":{"score":0.7329574602452329,"samples":18,"weight":1.5497180951839247},"restSynchronizer":{"score":0.19454218225901015,"samples":18,"weight":1.1459066366942576}},"regime":"initializing","coupling":{},"couplingTargets":{},"axisCouplingTotals":{"density":0,"tension":0,"flicker":0,"entropy":0,"trust":0,"phase":0},"axisEnergyShare":{"shares":{"density":0,"tension":0,"flicker":0,"entropy":0,"trust":0,"phase":0},"axisGini":0},"couplingGates":{"gateD":1,"gateT":1,"gateF":1,"floorDampen":1,"bypassD":0,"bypassT":0,"bypassF":0,"gateMinD":1,"gateMinT":1,"gateMinF":1,"gateEmaD":1,"gateEmaT":1,"gateEmaF":1,"gateBeatCount":2},"couplingHomeostasis":{"totalEnergyEma":0,"energyBudget":3.5,"peakEnergyEma":0,"totalEnergyFloor":8,"floorDampen":1,"redistributionScore":0,"nudgeableRedistributionScore":0,"globalGainMultiplier":1,"giniCoefficient":0,"energyDeltaEma":0,"pairTurbulenceEma":0,"beatCount":0,"invokeCount":2,"tickCount":18,"emptyMatrixBeats":2,"multiplierMin":1,"multiplierMax":1,"multiplierStdDev":0,"floorContactBeats":0,"ceilingContactBeats":18,"avgRecoveryDuration":0},"axisEnergyEquilibrator":{"beatCount":2,"pairAdjustments":0,"axisAdjustments":0,"smoothedShares":{"density":0,"tension":0,"flicker":0,"entropy":0,"trust":0,"phase":0},"perAxisAdj":{},"perPairAdj":{},"lastBaselines":{},"regimeBeats":{},"regimePairAdj":{},"regimeAxisAdj":{},"regimeTightenBudget":{}},"transitionReadiness":{"gap":0,"couplingStrength":0,"coherentThreshold":0,"velocity":0,"velThreshold":0.008,"thresholdScale":0.65,"velocityBlocked":false,"exploringBlock":"velocity","rawRegimeCounts":{},"rawRegimeMaxStreak":{},"effectiveDim":0},"notes":[{"pitch":40,"velocity":88,"channel":0},{"pitch":73,"velocity":109,"channel":0},{"pitch":20,"velocity":84,"channel":0},{"pitch":4,"velocity":106,"channel":0},{"pitch":32,"velocity":109,"channel":0},{"pitch":32,"velocity":98,"channel":0},{"pitch":56,"velocity":93,"channel":0},{"pitch":32,"velocity":106,"channel":0},{"pitch":80,"velocity":106,"channel":0},{"pitch":88,"velocity":98,"channel":0},{"pitch":4,"velocity":98,"channel":0},{"pitch":32,"velocity":78,"channel":0},{"pitch":52,"velocity":116,"channel":0},{"pitch":4,"velocity":104,"channel":0},{"pitch":4,"velocity":94,"channel":0},{"pitch":4,"velocity":98,"channel":0},{"pitch":4,"velocity":109,"channel":0},{"pitch":4,"velocity":87,"channel":0},{"pitch":1,"velocity":107,"channel":0},{"pitch":56,"velocity":103,"channel":0},{"pitch":4,"velocity":96,"channel":0},{"pitch":4,"velocity":95,"channel":0},{"pitch":8,"velocity":97,"channel":0},{"pitch":4,"velocity":85,"channel":0},{"pitch":4,"velocity":92,"channel":0},{"pitch":8,"velocity":95,"channel":0},{"pitch":4,"velocity":93,"channel":0},{"pitch":13,"velocity":98,"channel":0},{"pitch":13,"velocity":98,"channel":0},{"pitch":8,"velocity":115,"channel":0},{"pitch":20,"velocity":99,"channel":0},{"pitch":4,"velocity":99,"channel":0},{"pitch":4,"velocity":97,"channel":0},{"pitch":4,"velocity":95,"channel":0},{"pitch":8,"velocity":81,"channel":0},{"pitch":4,"velocity":98,"channel":0},{"pitch":13,"velocity":99,"channel":0},{"pitch":40,"velocity":88,"channel":0},{"pitch":28,"velocity":89,"channel":0},{"pitch":4,"velocity":103,"channel":0},{"pitch":44,"velocity":100,"channel":0},{"pitch":52,"velocity":89,"channel":0},{"pitch":80,"velocity":84,"channel":0},{"pitch":20,"velocity":90,"channel":0},{"pitch":20,"velocity":89,"channel":0},{"pitch":20,"velocity":87,"channel":0},{"pitch":76,"velocity":80,"channel":0},{"pitch":8,"velocity":99,"channel":0},{"pitch":20,"velocity":95,"channel":0},{"pitch":56,"velocity":87,"channel":0},{"pitch":20,"velocity":101,"channel":0},{"pitch":20,"velocity":92,"channel":0},{"pitch":32,"velocity":78,"channel":0},{"pitch":52,"velocity":106,"channel":0},{"pitch":52,"velocity":112,"channel":0},{"pitch":76,"velocity":103,"channel":0},{"pitch":8,"velocity":108,"channel":0},{"pitch":56,"velocity":92,"channel":0},{"pitch":100,"velocity":98,"channel":0},{"pitch":56,"velocity":93,"channel":0},{"pitch":28,"velocity":101,"channel":0},{"pitch":28,"velocity":85,"channel":0},{"pitch":13,"velocity":98,"channel":0},{"pitch":56,"velocity":86,"channel":0},{"pitch":52,"velocity":86,"channel":0},{"pitch":52,"velocity":85,"channel":0},{"pitch":8,"velocity":108,"channel":0},{"pitch":28,"velocity":100,"channel":0},{"pitch":32,"velocity":97,"channel":0},{"pitch":8,"velocity":104,"channel":0},{"pitch":40,"velocity":99,"channel":0},{"pitch":40,"velocity":94,"channel":0},{"pitch":25,"velocity":98,"channel":0},{"pitch":8,"velocity":86,"channel":0},{"pitch":13,"velocity":107,"channel":0},{"pitch":56,"velocity":101,"channel":0},{"pitch":40,"velocity":105,"channel":0},{"pitch":40,"velocity":99,"channel":0},{"pitch":40,"velocity":105,"channel":0},{"pitch":32,"velocity":107,"channel":0},{"pitch":8,"velocity":99,"channel":0},{"pitch":8,"velocity":93,"channel":0},{"pitch":37,"velocity":92,"channel":0},{"pitch":25,"velocity":88,"channel":0},{"pitch":73,"velocity":92,"channel":0},{"pitch":8,"velocity":85,"channel":0},{"pitch":4,"velocity":78,"channel":0},{"pitch":4,"velocity":100,"channel":0},{"pitch":28,"velocity":77,"channel":0},{"pitch":4,"velocity":84,"channel":0},{"pitch":4,"velocity":111,"channel":0},{"pitch":4,"velocity":92,"channel":0},{"pitch":4,"velocity":94,"channel":0},{"pitch":4,"velocity":89,"channel":0},{"pitch":4,"velocity":105,"channel":0},{"pitch":4,"velocity":98,"channel":0},{"pitch":52,"velocity":103,"channel":0},{"pitch":4,"velocity":101,"channel":0},{"pitch":8,"velocity":108,"channel":0},{"pitch":4,"velocity":83,"channel":0},{"pitch":4,"velocity":85,"channel":0},{"pitch":4,"velocity":73,"channel":0},{"pitch":4,"velocity":84,"channel":0},{"pitch":37,"velocity":93,"channel":0},{"pitch":56,"velocity":90,"channel":0},{"pitch":32,"velocity":107,"channel":0},{"pitch":4,"velocity":81,"channel":0},{"pitch":4,"velocity":95,"channel":0},{"pitch":4,"velocity":102,"channel":0},{"pitch":1,"velocity":93,"channel":0},{"pitch":52,"velocity":102,"channel":0},{"pitch":4,"velocity":84,"channel":0},{"pitch":56,"velocity":102,"channel":0},{"pitch":4,"velocity":91,"channel":0},{"pitch":56,"velocity":93,"channel":0},{"pitch":44,"velocity":91,"channel":0},{"pitch":4,"velocity":96,"channel":0},{"pitch":56,"velocity":108,"channel":0},{"pitch":37,"velocity":80,"channel":0},{"pitch":88,"velocity":100,"channel":0},{"pitch":32,"velocity":99,"channel":0},{"pitch":32,"velocity":81,"channel":0},{"pitch":32,"velocity":91,"channel":0},{"pitch":32,"velocity":99,"channel":0},{"pitch":4,"velocity":96,"channel":0},{"pitch":4,"velocity":95,"channel":0},{"pitch":4,"velocity":98,"channel":0},{"pitch":4,"velocity":93,"channel":0},{"pitch":8,"velocity":101,"channel":0},{"pitch":73,"velocity":94,"channel":0},{"pitch":37,"velocity":90,"channel":0},{"pitch":37,"velocity":84,"channel":0},{"pitch":37,"velocity":105,"channel":0},{"pitch":8,"velocity":116,"channel":0},{"pitch":20,"velocity":96,"channel":0},{"pitch":20,"velocity":112,"channel":0},{"pitch":20,"velocity":97,"channel":0},{"pitch":32,"velocity":100,"channel":0},{"pitch":8,"velocity":112,"channel":0},{"pitch":13,"velocity":104,"channel":0},{"pitch":16,"velocity":98,"channel":0},{"pitch":8,"velocity":85,"channel":0},{"pitch":4,"velocity":97,"channel":0},{"pitch":4,"velocity":104,"channel":0},{"pitch":4,"velocity":102,"channel":0},{"pitch":4,"velocity":92,"channel":0},{"pitch":4,"velocity":104,"channel":0},{"pitch":8,"velocity":94,"channel":0},{"pitch":13,"velocity":108,"channel":0},{"pitch":16,"velocity":90,"channel":0},{"pitch":16,"velocity":93,"channel":0},{"pitch":16,"velocity":89,"channel":0},{"pitch":16,"velocity":91,"channel":0},{"pitch":56,"velocity":98,"channel":0},{"pitch":92,"velocity":97,"channel":0},{"pitch":4,"velocity":94,"channel":0},{"pitch":4,"velocity":101,"channel":0},{"pitch":4,"velocity":87,"channel":0},{"pitch":4,"velocity":98,"channel":0},{"pitch":8,"velocity":102,"channel":0},{"pitch":1,"velocity":88,"channel":0},{"pitch":68,"velocity":102,"channel":0},{"pitch":1,"velocity":114,"channel":0},{"pitch":52,"velocity":95,"channel":0},{"pitch":49,"velocity":105,"channel":0},{"pitch":16,"velocity":88,"channel":0},{"pitch":52,"velocity":87,"channel":0},{"pitch":4,"velocity":73,"channel":0},{"pitch":4,"velocity":90,"channel":0},{"pitch":4,"velocity":79,"channel":0},{"pitch":8,"velocity":93,"channel":0},{"pitch":8,"velocity":112,"channel":0},{"pitch":32,"velocity":96,"channel":0},{"pitch":8,"velocity":103,"channel":0},{"pitch":73,"velocity":79,"channel":0},{"pitch":49,"velocity":101,"channel":0},{"pitch":20,"velocity":87,"channel":0},{"pitch":4,"velocity":110,"channel":0},{"pitch":88,"velocity":97,"channel":0},{"pitch":8,"velocity":112,"channel":0},{"pitch":40,"velocity":91,"channel":0},{"pitch":13,"velocity":93,"channel":0},{"pitch":44,"velocity":97,"channel":0},{"pitch":44,"velocity":102,"channel":0},{"pitch":8,"velocity":88,"channel":0},{"pitch":8,"velocity":91,"channel":0},{"pitch":28,"velocity":93,"channel":0},{"pitch":4,"velocity":101,"channel":0},{"pitch":80,"velocity":94,"channel":0},{"pitch":4,"velocity":94,"channel":0},{"pitch":28,"velocity":94,"channel":0},{"pitch":1,"velocity":90,"channel":0},{"pitch":8,"velocity":93,"channel":0},{"pitch":37,"velocity":94,"channel":0},{"pitch":4,"velocity":98,"channel":0},{"pitch":8,"velocity":104,"channel":0},{"pitch":13,"velocity":87,"channel":0},{"pitch":8,"velocity":89,"channel":0},{"pitch":56,"velocity":100,"channel":0},{"pitch":20,"velocity":101,"channel":0},{"pitch":25,"velocity":99,"channel":0},{"pitch":56,"velocity":103,"channel":0},{"pitch":8,"velocity":101,"channel":0},{"pitch":4,"velocity":90,"channel":0},{"pitch":8,"velocity":98,"channel":0},{"pitch":8,"velocity":111,"channel":0},{"pitch":37,"velocity":94,"channel":0},{"pitch":20,"velocity":86,"channel":0},{"pitch":20,"velocity":105,"channel":0},{"pitch":85,"velocity":98,"channel":0},{"pitch":20,"velocity":105,"channel":0},{"pitch":4,"velocity":96,"channel":0},{"pitch":4,"velocity":99,"channel":0},{"pitch":28,"velocity":103,"channel":0},{"pitch":80,"velocity":85,"channel":0},{"pitch":4,"velocity":78,"channel":0},{"pitch":76,"velocity":91,"channel":0},{"pitch":32,"velocity":101,"channel":0},{"pitch":4,"velocity":96,"channel":0},{"pitch":4,"velocity":105,"channel":0},{"pitch":4,"velocity":86,"channel":0},{"pitch":20,"velocity":86,"channel":0},{"pitch":20,"velocity":89,"channel":0},{"pitch":32,"velocity":90,"channel":0},{"pitch":4,"velocity":91,"channel":0},{"pitch":4,"velocity":77,"channel":0},{"pitch":49,"velocity":89,"channel":0},{"pitch":49,"velocity":94,"channel":0},{"pitch":13,"velocity":102,"channel":0},{"pitch":13,"velocity":104,"channel":0},{"pitch":13,"velocity":88,"channel":0},{"pitch":13,"velocity":103,"channel":0},{"pitch":73,"velocity":96,"channel":0},{"pitch":20,"velocity":101,"channel":0},{"pitch":20,"velocity":99,"channel":0},{"pitch":44,"velocity":100,"channel":0},{"pitch":8,"velocity":98,"channel":0},{"pitch":92,"velocity":115,"channel":0}],"stageTiming":{"beat-setup":17.6437,"intent":0.0109,"entropy":0.1716,"phase":0.0168,"climax":0.0205,"envelope":0.0115,"silhouette":0.0163,"rest":0.0392,"complement":0.0022,"tension-cadence":0.1102,"negotiation":0.0238,"probability-adjust":0.0021,"emission":3.1431,"post-beat":0.0188},"iterBudget":{"raw":128,"capped":128,"wasCapped":false}}
{"layer":"L1","beatKey":"0:0:1:6","timeMs":3000,"snap":{"key":"D#","mode":"locrian","quality":"minor","scale":["D#","E","F#","G#","A","B","C#"],"chords":[],"tension":0.1267008380912245,"harmonicRhythm":0.3273371111432095,"harmonicMutationCount":3,"excursion":0,"sectionPhase":"opening","phrasePosition":0,"phrasePhase":"opening","phraseDynamism":1,"registerBias":-6,"densityMultiplier":0.8,"voiceIndependence":0.5,"compositeIntensity":0.4233524740087239,"playProb":0.26361426622353556,"stutterProb":0.23292789471207534,"flicker":1.1212101942619084,"textureMode":"flurry","textureFatigue":0.05833333333333333,"densityBias":0,"crossModBias":1,"emissionRatio":0.8185067191910367,"extraDensityCorrection":1.0362986561617926,"extraCoherenceDensityBias":1,"activeProfile":"restrained","journeyMove":"origin","journeyDistance":0,"journeyKey":"D#","journeyMode":"locrian","binauralFreqOffset":8,"binauralFlip":false,"tick":82500,"updatedAt":1772748939255},"negotiation":{"playProb":0.24147551130739925,"stutterProb":0.23700726409145775,"allowCadence":false,"conflict":0.09137083507548494,"phaseConfidence":0.275},"trust":{"stutterContagion":{"score":0.3229844963864047,"samples":19,"weight":1.2422383722898036},"cadenceAlignment":{"score":0.1976412359957852,"samples":19,"weight":1.15},"phaseLock":{"score":0.2119089094404195,"samples":19,"weight":1.1589316820803146},"convergence":{"score":0.1976412359957852,"samples":19,"weight":1.148230926996839},"feedbackOscillator":{"score":0.1976412359957852,"samples":19,"weight":1.148230926996839},"coherenceMonitor":{"score":0.5718905207333226,"samples":19,"weight":1.428917890549992},"entropyRegulator":{"score":0.7451092904056206,"samples":19,"weight":1.5588319678042155},"restSynchronizer":{"score":0.1976412359957852,"samples":19,"weight":1.148230926996839}},"regime":"initializing","coupling":{},"couplingTargets":{},"axisCouplingTotals":{"density":0,"tension":0,"flicker":0,"entropy":0,"trust":0,"phase":0},"axisEnergyShare":{"shares":{"density":0,"tension":0,"flicker":0,"entropy":0,"trust":0,"phase":0},"axisGini":0},"couplingGates":{"gateD":1,"gateT":1,"gateF":1,"floorDampen":1,"bypassD":0,"bypassT":0,"bypassF":0,"gateMinD":1,"gateMinT":1,"gateMinF":1,"gateEmaD":1,"gateEmaT":1,"gateEmaF":1,"gateBeatCount":2},"couplingHomeostasis":{"totalEnergyEma":0,"energyBudget":3.5,"peakEnergyEma":0,"totalEnergyFloor":8,"floorDampen":1,"redistributionScore":0,"nudgeableRedistributionScore":0,"globalGainMultiplier":1,"giniCoefficient":0,"energyDeltaEma":0,"pairTurbulenceEma":0,"beatCount":0,"invokeCount":2,"tickCount":19,"emptyMatrixBeats":2,"multiplierMin":1,"multiplierMax":1,"multiplierStdDev":0,"floorContactBeats":0,"ceilingContactBeats":19,"avgRecoveryDuration":0},"axisEnergyEquilibrator":{"beatCount":2,"pairAdjustments":0,"axisAdjustments":0,"smoothedShares":{"density":0,"tension":0,"flicker":0,"entropy":0,"trust":0,"phase":0},"perAxisAdj":{},"perPairAdj":{},"lastBaselines":{},"regimeBeats":{},"regimePairAdj":{},"regimeAxisAdj":{},"regimeTightenBudget":{}},"transitionReadiness":{"gap":0,"couplingStrength":0,"coherentThreshold":0,"velocity":0,"velThreshold":0.008,"thresholdScale":0.65,"velocityBlocked":false,"exploringBlock":"velocity","rawRegimeCounts":{},"rawRegimeMaxStreak":{},"effectiveDim":0},"notes":[{"pitch":28,"velocity":101,"channel":0},{"pitch":56,"velocity":96,"channel":0},{"pitch":49,"velocity":101,"channel":0},{"pitch":61,"velocity":98,"channel":0},{"pitch":61,"velocity":98,"channel":0},{"pitch":92,"velocity":94,"channel":0},{"pitch":61,"velocity":93,"channel":0},{"pitch":61,"velocity":99,"channel":0},{"pitch":61,"velocity":94,"channel":0},{"pitch":61,"velocity":97,"channel":0},{"pitch":61,"velocity":107,"channel":0},{"pitch":61,"velocity":95,"channel":0},{"pitch":73,"velocity":107,"channel":0},{"pitch":52,"velocity":98,"channel":0},{"pitch":16,"velocity":99,"channel":0},{"pitch":16,"velocity":104,"channel":0},{"pitch":56,"velocity":91,"channel":0},{"pitch":88,"velocity":100,"channel":0},{"pitch":16,"velocity":115,"channel":0},{"pitch":76,"velocity":87,"channel":0},{"pitch":68,"velocity":106,"channel":0},{"pitch":68,"velocity":107,"channel":0},{"pitch":68,"velocity":106,"channel":0},{"pitch":80,"velocity":96,"channel":0},{"pitch":80,"velocity":98,"channel":0},{"pitch":76,"velocity":102,"channel":0},{"pitch":56,"velocity":86,"channel":0},{"pitch":61,"velocity":98,"channel":0},{"pitch":61,"velocity":87,"channel":0},{"pitch":61,"velocity":96,"channel":0},{"pitch":61,"velocity":97,"channel":0},{"pitch":4,"velocity":127,"channel":0},{"pitch":28,"velocity":97,"channel":0},{"pitch":52,"velocity":93,"channel":0},{"pitch":28,"velocity":111,"channel":0},{"pitch":13,"velocity":102,"channel":0},{"pitch":40,"velocity":110,"channel":0},{"pitch":49,"velocity":105,"channel":0},{"pitch":28,"velocity":106,"channel":0},{"pitch":52,"velocity":115,"channel":0},{"pitch":32,"velocity":106,"channel":0},{"pitch":40,"velocity":95,"channel":0},{"pitch":32,"velocity":89,"channel":0},{"pitch":13,"velocity":90,"channel":0},{"pitch":13,"velocity":105,"channel":0},{"pitch":13,"velocity":110,"channel":0},{"pitch":13,"velocity":107,"channel":0},{"pitch":13,"velocity":86,"channel":0},{"pitch":13,"velocity":94,"channel":0},{"pitch":13,"velocity":96,"channel":0},{"pitch":13,"velocity":95,"channel":0},{"pitch":49,"velocity":112,"channel":0},{"pitch":13,"velocity":93,"channel":0},{"pitch":73,"velocity":96,"channel":0},{"pitch":13,"velocity":105,"channel":0},{"pitch":16,"velocity":110,"channel":0},{"pitch":8,"velocity":93,"channel":0},{"pitch":13,"velocity":98,"channel":0},{"pitch":52,"velocity":110,"channel":0},{"pitch":28,"velocity":106,"channel":0},{"pitch":104,"velocity":107,"channel":0},{"pitch":104,"velocity":96,"channel":0},{"pitch":13,"velocity":92,"channel":0},{"pitch":20,"velocity":90,"channel":0},{"pitch":85,"velocity":95,"channel":0},{"pitch":4,"velocity":90,"channel":0},{"pitch":4,"velocity":81,"channel":0},{"pitch":4,"velocity":94,"channel":0},{"pitch":4,"velocity":95,"channel":0},{"pitch":56,"velocity":95,"channel":0},{"pitch":44,"velocity":98,"channel":0},{"pitch":44,"velocity":91,"channel":0},{"pitch":25,"velocity":90,"channel":0},{"pitch":32,"velocity":102,"channel":0},{"pitch":68,"velocity":98,"channel":0},{"pitch":92,"velocity":92,"channel":0},{"pitch":28,"velocity":84,"channel":0},{"pitch":28,"velocity":112,"channel":0},{"pitch":56,"velocity":120,"channel":0},{"pitch":61,"velocity":101,"channel":0},{"pitch":56,"velocity":99,"channel":0},{"pitch":61,"velocity":95,"channel":0},{"pitch":61,"velocity":95,"channel":0},{"pitch":61,"velocity":112,"channel":0},{"pitch":61,"velocity":92,"channel":0},{"pitch":56,"velocity":81,"channel":0},{"pitch":16,"velocity":94,"channel":0},{"pitch":92,"velocity":89,"channel":0},{"pitch":92,"velocity":97,"channel":0},{"pitch":92,"velocity":106,"channel":0},{"pitch":92,"velocity":100,"channel":0},{"pitch":92,"velocity":92,"channel":0},{"pitch":92,"velocity":101,"channel":0},{"pitch":16,"velocity":96,"channel":0},{"pitch":16,"velocity":94,"channel":0},{"pitch":16,"velocity":107,"channel":0},{"pitch":52,"velocity":96,"channel":0},{"pitch":20,"velocity":97,"channel":0},{"pitch":56,"velocity":106,"channel":0},{"pitch":44,"velocity":96,"channel":0},{"pitch":16,"velocity":101,"channel":0},{"pitch":56,"velocity":98,"channel":0},{"pitch":16,"velocity":94,"channel":0},{"pitch":16,"velocity":96,"channel":0},{"pitch":16,"velocity":91,"channel":0},{"pitch":16,"velocity":90,"channel":0},{"pitch":16,"velocity":110,"channel":0},{"pitch":49,"velocity":115,"channel":0},{"pitch":32,"velocity":100,"channel":0},{"pitch":68,"velocity":101,"channel":0},{"pitch":68,"velocity":88,"channel":0},{"pitch":68,"velocity":109,"channel":0},{"pitch":16,"velocity":95,"channel":0},{"pitch":16,"velocity":114,"channel":0},{"pitch":16,"velocity":108,"channel":0},{"pitch":16,"velocity":94,"channel":0},{"pitch":16,"velocity":106,"channel":0},{"pitch":61,"velocity":99,"channel":0},{"pitch":16,"velocity":91,"channel":0},{"pitch":56,"velocity":116,"channel":0},{"pitch":44,"velocity":89,"channel":0},{"pitch":61,"velocity":111,"channel":0},{"pitch":44,"velocity":95,"channel":0},{"pitch":16,"velocity":100,"channel":0},{"pitch":16,"velocity":92,"channel":0},{"pitch":16,"velocity":99,"channel":0},{"pitch":16,"velocity":101,"channel":0},{"pitch":16,"velocity":91,"channel":0},{"pitch":16,"velocity":98,"channel":0},{"pitch":25,"velocity":96,"channel":0},{"pitch":4,"velocity":98,"channel":0},{"pitch":49,"velocity":110,"channel":0},{"pitch":16,"velocity":110,"channel":0},{"pitch":16,"velocity":93,"channel":0},{"pitch":16,"velocity":106,"channel":0},{"pitch":68,"velocity":98,"channel":0},{"pitch":68,"velocity":101,"channel":0},{"pitch":32,"velocity":88,"channel":0},{"pitch":80,"velocity":93,"channel":0},{"pitch":32,"velocity":106,"channel":0},{"pitch":80,"velocity":95,"channel":0},{"pitch":32,"velocity":81,"channel":0},{"pitch":32,"velocity":79,"channel":0},{"pitch":68,"velocity":105,"channel":0},{"pitch":32,"velocity":108,"channel":0},{"pitch":56,"velocity":97,"channel":0},{"pitch":61,"velocity":100,"channel":0},{"pitch":40,"velocity":96,"channel":0},{"pitch":56,"velocity":94,"channel":0},{"pitch":61,"velocity":117,"channel":0},{"pitch":61,"velocity":95,"channel":0},{"pitch":61,"velocity":98,"channel":0},{"pitch":61,"velocity":108,"channel":0},{"pitch":61,"velocity":110,"channel":0},{"pitch":56,"velocity":101,"channel":0},{"pitch":28,"velocity":102,"channel":0},{"pitch":28,"velocity":95,"channel":0},{"pitch":68,"velocity":89,"channel":0},{"pitch":56,"velocity":86,"channel":0},{"pitch":61,"velocity":100,"channel":0},{"pitch":20,"velocity":87,"channel":0},{"pitch":56,"velocity":106,"channel":0},{"pitch":61,"velocity":85,"channel":0},{"pitch":61,"velocity":92,"channel":0},{"pitch":85,"velocity":90,"channel":0},{"pitch":8,"velocity":120,"channel":0},{"pitch":20,"velocity":93,"channel":0},{"pitch":20,"velocity":112,"channel":0},{"pitch":8,"velocity":91,"channel":0},{"pitch":13,"velocity":94,"channel":0},{"pitch":20,"velocity":95,"channel":0},{"pitch":49,"velocity":107,"channel":0},{"pitch":44,"velocity":77,"channel":0},{"pitch":16,"velocity":84,"channel":0},{"pitch":49,"velocity":83,"channel":0},{"pitch":68,"velocity":94,"channel":0},{"pitch":68,"velocity":84,"channel":0},{"pitch":68,"velocity":97,"channel":0},{"pitch":68,"velocity":98,"channel":0},{"pitch":68,"velocity":108,"channel":0},{"pitch":68,"velocity":105,"channel":0},{"pitch":76,"velocity":104,"channel":0},{"pitch":68,"velocity":95,"channel":0},{"pitch":20,"velocity":102,"channel":0},{"pitch":68,"velocity":101,"channel":0},{"pitch":68,"velocity":109,"channel":0},{"pitch":68,"velocity":104,"channel":0},{"pitch":68,"velocity":106,"channel":0},{"pitch":68,"velocity":80,"channel":0},{"pitch":68,"velocity":83,"channel":0},{"pitch":25,"velocity":111,"channel":0},{"pitch":8,"velocity":100,"channel":0},{"pitch":4,"velocity":94,"channel":0},{"pitch":4,"velocity":108,"channel":0},{"pitch":16,"velocity":92,"channel":0},{"pitch":32,"velocity":90,"channel":0},{"pitch":16,"velocity":97,"channel":0},{"pitch":16,"velocity":102,"channel":0},{"pitch":16,"velocity":97,"channel":0},{"pitch":32,"velocity":96,"channel":0},{"pitch":4,"velocity":115,"channel":0},{"pitch":1,"velocity":109,"channel":0}],"stageTiming":{"beat-setup":31.7932,"intent":0.0182,"entropy":0.2427,"phase":0.0362,"climax":0.0531,"envelope":0.0518,"silhouette":0.0425,"rest":0.0514,"complement":0.003,"tension-cadence":0.1844,"negotiation":0.0452,"probability-adjust":0.0041,"emission":7.0469,"post-beat":0.0335},"iterBudget":{"raw":90,"capped":90,"wasCapped":false}}
{"layer":"L1","beatKey":"0:0:1:7","timeMs":3166.6666666666665,"snap":{"key":"D#","mode":"locrian","quality":"minor","scale":["D#","E","F#","G#","A","B","C#"],"chords":[],"tension":0.1267008380912245,"harmonicRhythm":0.3273371111432095,"harmonicMutationCount":3,"excursion":0,"sectionPhase":"opening","phrasePosition":0,"phrasePhase":"opening","phraseDynamism":1,"registerBias":-6,"densityMultiplier":0.8,"voiceIndependence":0.5,"compositeIntensity":0.43182898448207896,"playProb":0.26361426622353556,"stutterProb":0.23292789471207534,"flicker":1.1212101942619084,"textureMode":"flurry","textureFatigue":0.05833333333333333,"densityBias":0,"crossModBias":1,"emissionRatio":0.8185067191910367,"extraDensityCorrection":1.0362986561617926,"extraCoherenceDensityBias":1,"activeProfile":"restrained","journeyMove":"origin","journeyDistance":0,"journeyKey":"D#","journeyMode":"locrian","binauralFreqOffset":8,"binauralFlip":false,"tick":82500,"updatedAt":1772748943913},"negotiation":{"playProb":0.24111312927445652,"stutterProb":0.23724166541585248,"allowCadence":false,"conflict":0.0922383722898037,"phaseConfidence":0.275},"trust":{"stutterContagion":{"score":0.3227884005602503,"samples":20,"weight":1.2420913004201877},"cadenceAlignment":{"score":0.199715099667506,"samples":20,"weight":1.15},"phaseLock":{"score":0.2151276754778812,"samples":20,"weight":1.1613457566084109},"convergence":{"score":0.199715099667506,"samples":20,"weight":1.1497863247506295},"feedbackOscillator":{"score":0.199715099667506,"samples":20,"weight":1.1497863247506295},"coherenceMonitor":{"score":0.5814402122511688,"samples":20,"weight":1.4360801591883767},"entropyRegulator":{"score":0.74925,"samples":20,"weight":1.5619375},"restSynchronizer":{"score":0.199715099667506,"samples":20,"weight":1.1497863247506295}},"regime":"initializing","coupling":{},"couplingTargets":{},"axisCouplingTotals":{"density":0,"tension":0,"flicker":0,"entropy":0,"trust":0,"phase":0},"axisEnergyShare":{"shares":{"density":0,"tension":0,"flicker":0,"entropy":0,"trust":0,"phase":0},"axisGini":0},"couplingGates":{"gateD":1,"gateT":1,"gateF":1,"floorDampen":1,"bypassD":0,"bypassT":0,"bypassF":0,"gateMinD":1,"gateMinT":1,"gateMinF":1,"gateEmaD":1,"gateEmaT":1,"gateEmaF":1,"gateBeatCount":2},"couplingHomeostasis":{"totalEnergyEma":0,"energyBudget":3.5,"peakEnergyEma":0,"totalEnergyFloor":8,"floorDampen":1,"redistributionScore":0,"nudgeableRedistributionScore":0,"globalGainMultiplier":1,"giniCoefficient":0,"energyDeltaEma":0,"pairTurbulenceEma":0,"beatCount":0,"invokeCount":2,"tickCount":20,"emptyMatrixBeats":2,"multiplierMin":1,"multiplierMax":1,"multiplierStdDev":0,"floorContactBeats":0,"ceilingContactBeats":20,"avgRecoveryDuration":0},"axisEnergyEquilibrator":{"beatCount":2,"pairAdjustments":0,"axisAdjustments":0,"smoothedShares":{"density":0,"tension":0,"flicker":0,"entropy":0,"trust":0,"phase":0},"perAxisAdj":{},"perPairAdj":{},"lastBaselines":{},"regimeBeats":{},"regimePairAdj":{},"regimeAxisAdj":{},"regimeTightenBudget":{}},"transitionReadiness":{"gap":0,"couplingStrength":0,"coherentThreshold":0,"velocity":0,"velThreshold":0.008,"thresholdScale":0.65,"velocityBlocked":false,"exploringBlock":"velocity","rawRegimeCounts":{},"rawRegimeMaxStreak":{},"effectiveDim":0},"notes":[{"pitch":28,"velocity":89,"channel":0},{"pitch":1,"velocity":83,"channel":0},{"pitch":28,"velocity":88,"channel":0},{"pitch":52,"velocity":82,"channel":0},{"pitch":1,"velocity":101,"channel":0},{"pitch":8,"velocity":98,"channel":0},{"pitch":28,"velocity":108,"channel":0},{"pitch":28,"velocity":106,"channel":0},{"pitch":13,"velocity":105,"channel":0},{"pitch":13,"velocity":85,"channel":0},{"pitch":13,"velocity":115,"channel":0},{"pitch":13,"velocity":104,"channel":0},{"pitch":25,"velocity":104,"channel":0},{"pitch":13,"velocity":93,"channel":0},{"pitch":76,"velocity":93,"channel":0},{"pitch":8,"velocity":108,"channel":0},{"pitch":4,"velocity":107,"channel":0},{"pitch":20,"velocity":103,"channel":0},{"pitch":4,"velocity":95,"channel":0},{"pitch":13,"velocity":100,"channel":0},{"pitch":4,"velocity":99,"channel":0},{"pitch":8,"velocity":109,"channel":0},{"pitch":88,"velocity":95,"channel":0},{"pitch":4,"velocity":110,"channel":0},{"pitch":52,"velocity":117,"channel":0},{"pitch":13,"velocity":108,"channel":0},{"pitch":13,"velocity":100,"channel":0},{"pitch":56,"velocity":91,"channel":0},{"pitch":20,"velocity":83,"channel":0},{"pitch":20,"velocity":101,"channel":0},{"pitch":20,"velocity":97,"channel":0},{"pitch":8,"velocity":93,"channel":0},{"pitch":40,"velocity":101,"channel":0},{"pitch":20,"velocity":97,"channel":0},{"pitch":20,"velocity":83,"channel":0},{"pitch":20,"velocity":109,"channel":0},{"pitch":20,"velocity":106,"channel":0},{"pitch":8,"velocity":87,"channel":0},{"pitch":4,"velocity":109,"channel":0},{"pitch":4,"velocity":87,"channel":0},{"pitch":4,"velocity":106,"channel":0},{"pitch":13,"velocity":116,"channel":0},{"pitch":25,"velocity":100,"channel":0},{"pitch":32,"velocity":95,"channel":0},{"pitch":20,"velocity":99,"channel":0},{"pitch":20,"velocity":88,"channel":0},{"pitch":49,"velocity":102,"channel":0},{"pitch":52,"velocity":91,"channel":0},{"pitch":13,"velocity":108,"channel":0},{"pitch":16,"velocity":101,"channel":0},{"pitch":16,"velocity":109,"channel":0},{"pitch":16,"velocity":102,"channel":0},{"pitch":104,"velocity":104,"channel":0},{"pitch":76,"velocity":116,"channel":0},{"pitch":16,"velocity":116,"channel":0},{"pitch":4,"velocity":93,"channel":0},{"pitch":52,"velocity":101,"channel":0},{"pitch":28,"velocity":95,"channel":0},{"pitch":16,"velocity":95,"channel":0},{"pitch":16,"velocity":101,"channel":0},{"pitch":73,"velocity":109,"channel":0},{"pitch":80,"velocity":96,"channel":0},{"pitch":16,"velocity":117,"channel":0},{"pitch":20,"velocity":118,"channel":0},{"pitch":20,"velocity":95,"channel":0},{"pitch":8,"velocity":102,"channel":0},{"pitch":32,"velocity":101,"channel":0},{"pitch":4,"velocity":104,"channel":0},{"pitch":4,"velocity":90,"channel":0},{"pitch":20,"velocity":95,"channel":0},{"pitch":20,"velocity":99,"channel":0},{"pitch":20,"velocity":104,"channel":0},{"pitch":20,"velocity":113,"channel":0},{"pitch":20,"velocity":114,"channel":0},{"pitch":8,"velocity":92,"channel":0},{"pitch":4,"velocity":93,"channel":0},{"pitch":4,"velocity":102,"channel":0},{"pitch":76,"velocity":86,"channel":0},{"pitch":56,"velocity":106,"channel":0},{"pitch":4,"velocity":105,"channel":0},{"pitch":16,"velocity":95,"channel":0},{"pitch":16,"velocity":109,"channel":0},{"pitch":16,"velocity":108,"channel":0},{"pitch":16,"velocity":93,"channel":0},{"pitch":4,"velocity":99,"channel":0},{"pitch":16,"velocity":91,"channel":0},{"pitch":76,"velocity":90,"channel":0},{"pitch":76,"velocity":99,"channel":0},{"pitch":13,"velocity":102,"channel":0},{"pitch":13,"velocity":102,"channel":0},{"pitch":8,"velocity":97,"channel":0},{"pitch":13,"velocity":82,"channel":0},{"pitch":13,"velocity":102,"channel":0},{"pitch":49,"velocity":86,"channel":0},{"pitch":13,"velocity":98,"channel":0},{"pitch":13,"velocity":98,"channel":0},{"pitch":13,"velocity":93,"channel":0},{"pitch":13,"velocity":93,"channel":0},{"pitch":13,"velocity":104,"channel":0},{"pitch":13,"velocity":87,"channel":0},{"pitch":13,"velocity":93,"channel":0},{"pitch":20,"velocity":110,"channel":0},{"pitch":20,"velocity":115,"channel":0},{"pitch":8,"velocity":112,"channel":0},{"pitch":4,"velocity":95,"channel":0},{"pitch":4,"velocity":114,"channel":0},{"pitch":88,"velocity":93,"channel":0},{"pitch":4,"velocity":107,"channel":0},{"pitch":1,"velocity":100,"channel":0},{"pitch":1,"velocity":101,"channel":0},{"pitch":1,"velocity":103,"channel":0},{"pitch":32,"velocity":92,"channel":0},{"pitch":4,"velocity":96,"channel":0},{"pitch":4,"velocity":93,"channel":0},{"pitch":4,"velocity":100,"channel":0},{"pitch":4,"velocity":105,"channel":0},{"pitch":4,"velocity":100,"channel":0},{"pitch":4,"velocity":93,"channel":0},{"pitch":37,"velocity":109,"channel":0},{"pitch":92,"velocity":100,"channel":0},{"pitch":32,"velocity":104,"channel":0},{"pitch":32,"velocity":100,"channel":0},{"pitch":1,"velocity":107,"channel":0},{"pitch":1,"velocity":102,"channel":0},{"pitch":1,"velocity":88,"channel":0},{"pitch":13,"velocity":110,"channel":0},{"pitch":16,"velocity":97,"channel":0},{"pitch":8,"velocity":107,"channel":0},{"pitch":25,"velocity":93,"channel":0},{"pitch":56,"velocity":102,"channel":0},{"pitch":4,"velocity":99,"channel":0},{"pitch":4,"velocity":102,"channel":0},{"pitch":4,"velocity":101,"channel":0},{"pitch":4,"velocity":92,"channel":0},{"pitch":8,"velocity":89,"channel":0},{"pitch":76,"velocity":91,"channel":0},{"pitch":76,"velocity":97,"channel":0},{"pitch":88,"velocity":102,"channel":0},{"pitch":20,"velocity":108,"channel":0},{"pitch":20,"velocity":101,"channel":0},{"pitch":32,"velocity":92,"channel":0},{"pitch":16,"velocity":89,"channel":0},{"pitch":16,"velocity":115,"channel":0},{"pitch":88,"velocity":100,"channel":0},{"pitch":28,"velocity":104,"channel":0},{"pitch":4,"velocity":119,"channel":0},{"pitch":20,"velocity":86,"channel":0},{"pitch":44,"velocity":91,"channel":0},{"pitch":32,"velocity":92,"channel":0},{"pitch":32,"velocity":108,"channel":0},{"pitch":32,"velocity":95,"channel":0},{"pitch":28,"velocity":100,"channel":0},{"pitch":56,"velocity":90,"channel":0},{"pitch":20,"velocity":93,"channel":0},{"pitch":80,"velocity":88,"channel":0},{"pitch":20,"velocity":82,"channel":0},{"pitch":73,"velocity":109,"channel":0},{"pitch":88,"velocity":109,"channel":0},{"pitch":16,"velocity":91,"channel":0},{"pitch":16,"velocity":96,"channel":0},{"pitch":52,"velocity":109,"channel":0},{"pitch":85,"velocity":120,"channel":0},{"pitch":16,"velocity":100,"channel":0},{"pitch":52,"velocity":89,"channel":0},{"pitch":52,"velocity":89,"channel":0},{"pitch":32,"velocity":101,"channel":0},{"pitch":56,"velocity":84,"channel":0},{"pitch":13,"velocity":90,"channel":0},{"pitch":20,"velocity":100,"channel":0},{"pitch":20,"velocity":104,"channel":0},{"pitch":20,"velocity":86,"channel":0},{"pitch":13,"velocity":101,"channel":0},{"pitch":16,"velocity":105,"channel":0},{"pitch":80,"velocity":82,"channel":0},{"pitch":32,"velocity":91,"channel":0},{"pitch":76,"velocity":91,"channel":0},{"pitch":4,"velocity":113,"channel":0},{"pitch":4,"velocity":117,"channel":0},{"pitch":4,"velocity":88,"channel":0},{"pitch":4,"velocity":99,"channel":0},{"pitch":1,"velocity":115,"channel":0},{"pitch":4,"velocity":90,"channel":0},{"pitch":13,"velocity":92,"channel":0},{"pitch":20,"velocity":86,"channel":0},{"pitch":56,"velocity":103,"channel":0},{"pitch":20,"velocity":96,"channel":0},{"pitch":20,"velocity":89,"channel":0},{"pitch":88,"velocity":118,"channel":0},{"pitch":40,"velocity":99,"channel":0},{"pitch":1,"velocity":115,"channel":0}],"stageTiming":{"beat-setup":11.5202,"intent":0.0116,"entropy":0.1529,"phase":0.0188,"climax":0.021,"envelope":0.0119,"silhouette":0.0129,"rest":0.0384,"complement":0.002,"tension-cadence":0.1108,"negotiation":0.0258,"probability-adjust":0.0022,"emission":4.9182,"post-beat":0.0208},"iterBudget":{"raw":90,"capped":90,"wasCapped":false}}
{"layer":"L1","beatKey":"0:0:1:8","timeMs":3333.333333333333,"snap":{"key":"D#","mode":"locrian","quality":"minor","scale":["D#","E","F#","G#","A","B","C#"],"chords":[],"tension":0.1267008380912245,"harmonicRhythm":0.3273371111432095,"harmonicMutationCount":3,"excursion":0,"sectionPhase":"opening","phrasePosition":0,"phrasePhase":"opening","phraseDynamism":1,"registerBias":-6,"densityMultiplier":0.8,"voiceIndependence":0.5,"compositeIntensity":0.42498802308906397,"playProb":0.26361426622353556,"stutterProb":0.23292789471207534,"flicker":1.1212101942619084,"textureMode":"flurry","textureFatigue":0.11666666666666665,"densityBias":0,"crossModBias":1,"emissionRatio":0.8185067191910367,"extraDensityCorrection":1.0362986561617926,"extraCoherenceDensityBias":1,"activeProfile":"restrained","journeyMove":"origin","journeyDistance":0,"journeyKey":"D#","journeyMode":"locrian","binauralFreqOffset":8,"binauralFlip":false,"tick":82500,"updatedAt":1772748946894},"negotiation":{"playProb":0.24263316305147745,"stutterProb":0.2389931559098084,"allowCadence":false,"conflict":0.09209130042018776,"phaseConfidence":0.275},"trust":{"stutterContagion":{"score":0.32171470024620463,"samples":21,"weight":1.2412860251846536},"cadenceAlignment":{"score":0.20103696699430315,"samples":21,"weight":1.1507777252457274},"phaseLock":{"score":0.218021668022163,"samples":21,"weight":1.1635162510166221},"convergence":{"score":0.20103696699430315,"samples":21,"weight":1.1507777252457274},"feedbackOscillator":{"score":0.20103696699430315,"samples":21,"weight":1.1507777252457274},"coherenceMonitor":{"score":0.590529916106855,"samples":21,"weight":1.4428974370801413},"entropyRegulator":{"score":0.74925,"samples":21,"weight":1.5619375},"restSynchronizer":{"score":0.20103696699430315,"samples":21,"weight":1.1507777252457274}},"regime":"initializing","coupling":{},"couplingTargets":{},"axisCouplingTotals":{"density":0,"tension":0,"flicker":0,"entropy":0,"trust":0,"phase":0},"axisEnergyShare":{"shares":{"density":0,"tension":0,"flicker":0,"entropy":0,"trust":0,"phase":0},"axisGini":0},"couplingGates":{"gateD":1,"gateT":1,"gateF":1,"floorDampen":1,"bypassD":0,"bypassT":0,"bypassF":0,"gateMinD":1,"gateMinT":1,"gateMinF":1,"gateEmaD":1,"gateEmaT":1,"gateEmaF":1,"gateBeatCount":2},"couplingHomeostasis":{"totalEnergyEma":0,"energyBudget":3.5,"peakEnergyEma":0,"totalEnergyFloor":8,"floorDampen":1,"redistributionScore":0,"nudgeableRedistributionScore":0,"globalGainMultiplier":1,"giniCoefficient":0,"energyDeltaEma":0,"pairTurbulenceEma":0,"beatCount":0,"invokeCount":2,"tickCount":21,"emptyMatrixBeats":2,"multiplierMin":1,"multiplierMax":1,"multiplierStdDev":0,"floorContactBeats":0,"ceilingContactBeats":21,"avgRecoveryDuration":0},"axisEnergyEquilibrator":{"beatCount":2,"pairAdjustments":0,"axisAdjustments":0,"smoothedShares":{"density":0,"tension":0,"flicker":0,"entropy":0,"trust":0,"phase":0},"perAxisAdj":{},"perPairAdj":{},"lastBaselines":{},"regimeBeats":{},"regimePairAdj":{},"regimeAxisAdj":{},"regimeTightenBudget":{}},"transitionReadiness":{"gap":0,"couplingStrength":0,"coherentThreshold":0,"velocity":0,"velThreshold":0.008,"thresholdScale":0.65,"velocityBlocked":false,"exploringBlock":"velocity","rawRegimeCounts":{},"rawRegimeMaxStreak":{},"effectiveDim":0},"notes":[{"pitch":56,"velocity":93,"channel":0},{"pitch":8,"velocity":99,"channel":0},{"pitch":32,"velocity":99,"channel":0},{"pitch":56,"velocity":110,"channel":0},{"pitch":20,"velocity":101,"channel":0},{"pitch":13,"velocity":107,"channel":0},{"pitch":16,"velocity":112,"channel":0},{"pitch":76,"velocity":113,"channel":0},{"pitch":16,"velocity":109,"channel":0},{"pitch":16,"velocity":85,"channel":0},{"pitch":16,"velocity":104,"channel":0},{"pitch":20,"velocity":93,"channel":0},{"pitch":16,"velocity":85,"channel":0},{"pitch":28,"velocity":84,"channel":0},{"pitch":56,"velocity":112,"channel":0},{"pitch":13,"velocity":98,"channel":0},{"pitch":32,"velocity":99,"channel":0},{"pitch":20,"velocity":103,"channel":0},{"pitch":13,"velocity":123,"channel":0},{"pitch":13,"velocity":106,"channel":0},{"pitch":25,"velocity":103,"channel":0},{"pitch":32,"velocity":120,"channel":0},{"pitch":32,"velocity":98,"channel":0},{"pitch":80,"velocity":95,"channel":0},{"pitch":32,"velocity":101,"channel":0},{"pitch":32,"velocity":107,"channel":0},{"pitch":56,"velocity":114,"channel":0},{"pitch":92,"velocity":111,"channel":0},{"pitch":32,"velocity":100,"channel":0},{"pitch":16,"velocity":124,"channel":0},{"pitch":16,"velocity":101,"channel":0},{"pitch":28,"velocity":110,"channel":0},{"pitch":28,"velocity":91,"channel":0},{"pitch":32,"velocity":122,"channel":0},{"pitch":64,"velocity":101,"channel":0},{"pitch":56,"velocity":103,"channel":0},{"pitch":64,"velocity":112,"channel":0},{"pitch":88,"velocity":101,"channel":0},{"pitch":20,"velocity":110,"channel":0},{"pitch":20,"velocity":120,"channel":0},{"pitch":20,"velocity":119,"channel":0},{"pitch":20,"velocity":95,"channel":0},{"pitch":8,"velocity":96,"channel":0},{"pitch":20,"velocity":110,"channel":0},{"pitch":20,"velocity":89,"channel":0},{"pitch":8,"velocity":88,"channel":0},{"pitch":20,"velocity":103,"channel":0},{"pitch":32,"velocity":109,"channel":0},{"pitch":16,"velocity":120,"channel":0},{"pitch":4,"velocity":108,"channel":0},{"pitch":104,"velocity":106,"channel":0},{"pitch":16,"velocity":96,"channel":0},{"pitch":4,"velocity":120,"channel":0},{"pitch":4,"velocity":104,"channel":0},{"pitch":32,"velocity":120,"channel":0},{"pitch":28,"velocity":109,"channel":0},{"pitch":4,"velocity":101,"channel":0},{"pitch":4,"velocity":101,"channel":0},{"pitch":68,"velocity":100,"channel":0},{"pitch":4,"velocity":103,"channel":0},{"pitch":16,"velocity":108,"channel":0},{"pitch":4,"velocity":102,"channel":0},{"pitch":16,"velocity":99,"channel":0},{"pitch":4,"velocity":106,"channel":0},{"pitch":25,"velocity":96,"channel":0},{"pitch":4,"velocity":94,"channel":0},{"pitch":32,"velocity":109,"channel":0},{"pitch":4,"velocity":110,"channel":0},{"pitch":80,"velocity":112,"channel":0},{"pitch":92,"velocity":97,"channel":0},{"pitch":32,"velocity":98,"channel":0},{"pitch":76,"velocity":113,"channel":0},{"pitch":32,"velocity":116,"channel":0},{"pitch":4,"velocity":119,"channel":0},{"pitch":49,"velocity":111,"channel":0},{"pitch":4,"velocity":127,"channel":0},{"pitch":49,"velocity":100,"channel":0},{"pitch":52,"velocity":94,"channel":0},{"pitch":13,"velocity":99,"channel":0},{"pitch":16,"velocity":106,"channel":0},{"pitch":52,"velocity":103,"channel":0},{"pitch":76,"velocity":100,"channel":0},{"pitch":16,"velocity":100,"channel":0},{"pitch":52,"velocity":94,"channel":0},{"pitch":16,"velocity":111,"channel":0},{"pitch":16,"velocity":99,"channel":0},{"pitch":16,"velocity":87,"channel":0},{"pitch":25,"velocity":102,"channel":0},{"pitch":8,"velocity":84,"channel":0},{"pitch":100,"velocity":107,"channel":0},{"pitch":8,"velocity":91,"channel":0},{"pitch":37,"velocity":99,"channel":0},{"pitch":16,"velocity":113,"channel":0},{"pitch":20,"velocity":114,"channel":0},{"pitch":20,"velocity":107,"channel":0},{"pitch":20,"velocity":93,"channel":0},{"pitch":56,"velocity":99,"channel":0},{"pitch":20,"velocity":100,"channel":0},{"pitch":56,"velocity":99,"channel":0},{"pitch":68,"velocity":99,"channel":0},{"pitch":68,"velocity":107,"channel":0},{"pitch":16,"velocity":120,"channel":0},{"pitch":4,"velocity":90,"channel":0},{"pitch":4,"velocity":101,"channel":0},{"pitch":4,"velocity":109,"channel":0},{"pitch":1,"velocity":97,"channel":0},{"pitch":16,"velocity":106,"channel":0},{"pitch":4,"velocity":100,"channel":0},{"pitch":92,"velocity":99,"channel":0},{"pitch":32,"velocity":84,"channel":0},{"pitch":88,"velocity":106,"channel":0},{"pitch":4,"velocity":99,"channel":0},{"pitch":4,"velocity":106,"channel":0},{"pitch":16,"velocity":98,"channel":0},{"pitch":8,"velocity":102,"channel":0},{"pitch":4,"velocity":97,"channel":0},{"pitch":4,"velocity":99,"channel":0},{"pitch":4,"velocity":89,"channel":0},{"pitch":4,"velocity":77,"channel":0},{"pitch":52,"velocity":108,"channel":0},{"pitch":25,"velocity":103,"channel":0},{"pitch":61,"velocity":104,"channel":0},{"pitch":32,"velocity":91,"channel":0},{"pitch":52,"velocity":93,"channel":0},{"pitch":44,"velocity":91,"channel":0},{"pitch":56,"velocity":108,"channel":0},{"pitch":49,"velocity":89,"channel":0},{"pitch":1,"velocity":100,"channel":0},{"pitch":1,"velocity":90,"channel":0},{"pitch":1,"velocity":106,"channel":0},{"pitch":1,"velocity":97,"channel":0},{"pitch":1,"velocity":97,"channel":0},{"pitch":1,"velocity":95,"channel":0},{"pitch":20,"velocity":101,"channel":0},{"pitch":13,"velocity":120,"channel":0},{"pitch":88,"velocity":95,"channel":0},{"pitch":4,"velocity":108,"channel":0},{"pitch":1,"velocity":115,"channel":0}],"stageTiming":{"beat-setup":15.5705,"intent":0.0107,"entropy":0.1636,"phase":0.0206,"climax":0.0233,"envelope":0.0126,"silhouette":0.0212,"rest":0.0349,"complement":0.0018,"tension-cadence":0.1135,"negotiation":0.0227,"probability-adjust":0.0024,"emission":3.9611,"post-beat":0.0224},"iterBudget":{"raw":96,"capped":96,"wasCapped":false}}
{"layer":"L1","beatKey":"0:0:1:9","timeMs":3500,"snap":{"key":"D#","mode":"locrian","quality":"minor","scale":["D#","E","F#","G#","A","B","C#"],"chords":[],"tension":0.1267008380912245,"harmonicRhythm":0.3273371111432095,"harmonicMutationCount":3,"excursion":0,"sectionPhase":"opening","phrasePosition":0,"phrasePhase":"opening","phraseDynamism":1,"registerBias":-6,"densityMultiplier":0.8,"voiceIndependence":0.5,"compositeIntensity":0.44068274880767305,"playProb":0.26361426622353556,"stutterProb":0.23292789471207534,"flicker":1.1212101942619084,"textureMode":"flurry","textureFatigue":0.05833333333333333,"densityBias":0,"crossModBias":1,"emissionRatio":0.8185067191910367,"extraDensityCorrection":1.0362986561617926,"extraCoherenceDensityBias":1,"activeProfile":"restrained","journeyMove":"origin","journeyDistance":0,"journeyKey":"D#","journeyMode":"locrian","binauralFreqOffset":8,"binauralFlip":false,"tick":82500,"updatedAt":1772748952582},"negotiation":{"playProb":0.24590626737516605,"stutterProb":0.24220555436829458,"allowCadence":false,"conflict":0.09050829993892617,"phaseConfidence":0.275},"trust":{"stutterContagion":{"score":0.32009857875635495,"samples":22,"weight":1.2400739340672662},"cadenceAlignment":{"score":0.20193540422866432,"samples":22,"weight":1.1514515531714982},"phaseLock":{"score":0.22062365671872675,"samples":22,"weight":1.165467742539045},"convergence":{"score":0.20193540422866432,"samples":22,"weight":1.1514515531714982},"feedbackOscillator":{"score":0.20193540422866432,"samples":22,"weight":1.1514515531714982},"coherenceMonitor":{"score":0.5992158959539549,"samples":22,"weight":1.4494119219654662},"entropyRegulator":{"score":0.7471729497851715,"samples":22,"weight":1.5603797123388787},"restSynchronizer":{"score":0.20193540422866432,"samples":22,"weight":1.1514515531714982}},"regime":"initializing","coupling":{},"couplingTargets":{},"axisCouplingTotals":{"density":0,"tension":0,"flicker":0,"entropy":0,"trust":0,"phase":0},"axisEnergyShare":{"shares":{"density":0,"tension":0,"flicker":0,"entropy":0,"trust":0,"phase":0},"axisGini":0},"couplingGates":{"gateD":1,"gateT":1,"gateF":1,"floorDampen":1,"bypassD":0,"bypassT":0,"bypassF":0,"gateMinD":1,"gateMinT":1,"gateMinF":1,"gateEmaD":1,"gateEmaT":1,"gateEmaF":1,"gateBeatCount":2},"couplingHomeostasis":{"totalEnergyEma":0,"energyBudget":3.5,"peakEnergyEma":0,"totalEnergyFloor":8,"floorDampen":1,"redistributionScore":0,"nudgeableRedistributionScore":0,"globalGainMultiplier":1,"giniCoefficient":0,"energyDeltaEma":0,"pairTurbulenceEma":0,"beatCount":0,"invokeCount":2,"tickCount":22,"emptyMatrixBeats":2,"multiplierMin":1,"multiplierMax":1,"multiplierStdDev":0,"floorContactBeats":0,"ceilingContactBeats":22,"avgRecoveryDuration":0},"axisEnergyEquilibrator":{"beatCount":2,"pairAdjustments":0,"axisAdjustments":0,"smoothedShares":{"density":0,"tension":0,"flicker":0,"entropy":0,"trust":0,"phase":0},"perAxisAdj":{},"perPairAdj":{},"lastBaselines":{},"regimeBeats":{},"regimePairAdj":{},"regimeAxisAdj":{},"regimeTightenBudget":{}},"transitionReadiness":{"gap":0,"couplingStrength":0,"coherentThreshold":0,"velocity":0,"velThreshold":0.008,"thresholdScale":0.65,"velocityBlocked":false,"exploringBlock":"velocity","rawRegimeCounts":{},"rawRegimeMaxStreak":{},"effectiveDim":0},"notes":[{"pitch":16,"velocity":101,"channel":0},{"pitch":28,"velocity":107,"channel":0},{"pitch":76,"velocity":116,"channel":0},{"pitch":28,"velocity":102,"channel":0},{"pitch":88,"velocity":106,"channel":0},{"pitch":16,"velocity":118,"channel":0},{"pitch":56,"velocity":109,"channel":0},{"pitch":76,"velocity":104,"channel":0},{"pitch":68,"velocity":83,"channel":0},{"pitch":56,"velocity":99,"channel":0},{"pitch":16,"velocity":100,"channel":0},{"pitch":40,"velocity":104,"channel":0},{"pitch":16,"velocity":98,"channel":0},{"pitch":16,"velocity":101,"channel":0},{"pitch":52,"velocity":110,"channel":0},{"pitch":16,"velocity":90,"channel":0},{"pitch":76,"velocity":106,"channel":0},{"pitch":32,"velocity":88,"channel":0},{"pitch":16,"velocity":111,"channel":0},{"pitch":80,"velocity":101,"channel":0},{"pitch":4,"velocity":127,"channel":0},{"pitch":1,"velocity":127,"channel":0},{"pitch":4,"velocity":86,"channel":0},{"pitch":13,"velocity":108,"channel":0},{"pitch":8,"velocity":92,"channel":0},{"pitch":25,"velocity":105,"channel":0},{"pitch":32,"velocity":105,"channel":0},{"pitch":32,"velocity":101,"channel":0},{"pitch":32,"velocity":105,"channel":0},{"pitch":32,"velocity":101,"channel":0},{"pitch":32,"velocity":100,"channel":0},{"pitch":32,"velocity":117,"channel":0},{"pitch":28,"velocity":116,"channel":0},{"pitch":32,"velocity":105,"channel":0},{"pitch":28,"velocity":111,"channel":0},{"pitch":16,"velocity":99,"channel":0},{"pitch":16,"velocity":106,"channel":0},{"pitch":88,"velocity":102,"channel":0},{"pitch":16,"velocity":116,"channel":0},{"pitch":52,"velocity":102,"channel":0},{"pitch":16,"velocity":92,"channel":0},{"pitch":32,"velocity":108,"channel":0},{"pitch":32,"velocity":110,"channel":0},{"pitch":20,"velocity":115,"channel":0},{"pitch":20,"velocity":114,"channel":0},{"pitch":20,"velocity":117,"channel":0},{"pitch":80,"velocity":107,"channel":0},{"pitch":20,"velocity":104,"channel":0},{"pitch":20,"velocity":114,"channel":0},{"pitch":32,"velocity":116,"channel":0},{"pitch":4,"velocity":91,"channel":0},{"pitch":20,"velocity":111,"channel":0},{"pitch":61,"velocity":106,"channel":0},{"pitch":25,"velocity":115,"channel":0},{"pitch":13,"velocity":104,"channel":0},{"pitch":13,"velocity":95,"channel":0},{"pitch":13,"velocity":99,"channel":0},{"pitch":13,"velocity":102,"channel":0},{"pitch":25,"velocity":104,"channel":0},{"pitch":4,"velocity":107,"channel":0},{"pitch":20,"velocity":119,"channel":0},{"pitch":80,"velocity":98,"channel":0},{"pitch":20,"velocity":104,"channel":0},{"pitch":20,"velocity":117,"channel":0},{"pitch":20,"velocity":88,"channel":0},{"pitch":20,"velocity":101,"channel":0},{"pitch":20,"velocity":97,"channel":0},{"pitch":16,"velocity":106,"channel":0},{"pitch":16,"velocity":102,"channel":0},{"pitch":76,"velocity":119,"channel":0},{"pitch":52,"velocity":106,"channel":0},{"pitch":16,"velocity":99,"channel":0},{"pitch":16,"velocity":95,"channel":0},{"pitch":52,"velocity":109,"channel":0},{"pitch":80,"velocity":119,"channel":0},{"pitch":49,"velocity":92,"channel":0},{"pitch":20,"velocity":101,"channel":0},{"pitch":13,"velocity":109,"channel":0},{"pitch":13,"velocity":100,"channel":0},{"pitch":8,"velocity":104,"channel":0},{"pitch":13,"velocity":125,"channel":0},{"pitch":13,"velocity":105,"channel":0},{"pitch":13,"velocity":101,"channel":0},{"pitch":13,"velocity":112,"channel":0},{"pitch":56,"velocity":127,"channel":0},{"pitch":32,"velocity":102,"channel":0},{"pitch":32,"velocity":120,"channel":0},{"pitch":32,"velocity":106,"channel":0},{"pitch":8,"velocity":124,"channel":0},{"pitch":13,"velocity":98,"channel":0},{"pitch":13,"velocity":102,"channel":0},{"pitch":13,"velocity":94,"channel":0},{"pitch":8,"velocity":108,"channel":0},{"pitch":104,"velocity":106,"channel":0},{"pitch":8,"velocity":127,"channel":0},{"pitch":13,"velocity":112,"channel":0},{"pitch":13,"velocity":96,"channel":0},{"pitch":8,"velocity":94,"channel":0},{"pitch":13,"velocity":102,"channel":0},{"pitch":13,"velocity":106,"channel":0},{"pitch":13,"velocity":107,"channel":0},{"pitch":80,"velocity":105,"channel":0},{"pitch":13,"velocity":105,"channel":0},{"pitch":73,"velocity":118,"channel":0},{"pitch":13,"velocity":115,"channel":0},{"pitch":13,"velocity":95,"channel":0},{"pitch":13,"velocity":85,"channel":0},{"pitch":92,"velocity":107,"channel":0},{"pitch":4,"velocity":98,"channel":0},{"pitch":25,"velocity":102,"channel":0},{"pitch":16,"velocity":99,"channel":0},{"pitch":8,"velocity":118,"channel":0},{"pitch":73,"velocity":112,"channel":0},{"pitch":20,"velocity":87,"channel":0},{"pitch":56,"velocity":114,"channel":0},{"pitch":20,"velocity":100,"channel":0},{"pitch":20,"velocity":109,"channel":0},{"pitch":20,"velocity":107,"channel":0},{"pitch":32,"velocity":86,"channel":0},{"pitch":56,"velocity":115,"channel":0},{"pitch":25,"velocity":98,"channel":0},{"pitch":28,"velocity":97,"channel":0},{"pitch":13,"velocity":111,"channel":0},{"pitch":73,"velocity":105,"channel":0},{"pitch":13,"velocity":105,"channel":0},{"pitch":8,"velocity":118,"channel":0},{"pitch":13,"velocity":108,"channel":0},{"pitch":20,"velocity":125,"channel":0},{"pitch":25,"velocity":99,"channel":0},{"pitch":25,"velocity":118,"channel":0},{"pitch":25,"velocity":100,"channel":0},{"pitch":73,"velocity":107,"channel":0},{"pitch":28,"velocity":88,"channel":0},{"pitch":32,"velocity":90,"channel":0},{"pitch":56,"velocity":96,"channel":0},{"pitch":16,"velocity":114,"channel":0},{"pitch":20,"velocity":112,"channel":0},{"pitch":76,"velocity":127,"channel":0},{"pitch":13,"velocity":117,"channel":0},{"pitch":56,"velocity":106,"channel":0},{"pitch":13,"velocity":106,"channel":0},{"pitch":13,"velocity":115,"channel":0},{"pitch":13,"velocity":100,"channel":0},{"pitch":4,"velocity":107,"channel":0},{"pitch":13,"velocity":98,"channel":0},{"pitch":25,"velocity":108,"channel":0},{"pitch":80,"velocity":97,"channel":0},{"pitch":88,"velocity":122,"channel":0},{"pitch":8,"velocity":122,"channel":0},{"pitch":4,"velocity":102,"channel":0},{"pitch":32,"velocity":111,"channel":0},{"pitch":80,"velocity":116,"channel":0},{"pitch":56,"velocity":97,"channel":0},{"pitch":16,"velocity":109,"channel":0},{"pitch":16,"velocity":94,"channel":0},{"pitch":20,"velocity":104,"channel":0},{"pitch":32,"velocity":99,"channel":0},{"pitch":76,"velocity":115,"channel":0},{"pitch":20,"velocity":118,"channel":0},{"pitch":52,"velocity":106,"channel":0},{"pitch":13,"velocity":105,"channel":0},{"pitch":13,"velocity":115,"channel":0},{"pitch":4,"velocity":99,"channel":0},{"pitch":13,"velocity":102,"channel":0},{"pitch":25,"velocity":87,"channel":0},{"pitch":20,"velocity":106,"channel":0},{"pitch":20,"velocity":110,"channel":0},{"pitch":56,"velocity":125,"channel":0},{"pitch":32,"velocity":106,"channel":0},{"pitch":32,"velocity":105,"channel":0},{"pitch":88,"velocity":97,"channel":0},{"pitch":16,"velocity":115,"channel":0},{"pitch":76,"velocity":117,"channel":0},{"pitch":4,"velocity":107,"channel":0},{"pitch":16,"velocity":121,"channel":0},{"pitch":4,"velocity":117,"channel":0},{"pitch":4,"velocity":87,"channel":0},{"pitch":16,"velocity":109,"channel":0},{"pitch":28,"velocity":111,"channel":0},{"pitch":8,"velocity":119,"channel":0},{"pitch":13,"velocity":105,"channel":0},{"pitch":13,"velocity":90,"channel":0},{"pitch":49,"velocity":94,"channel":0},{"pitch":4,"velocity":98,"channel":0},{"pitch":13,"velocity":117,"channel":0},{"pitch":13,"velocity":101,"channel":0},{"pitch":13,"velocity":96,"channel":0},{"pitch":13,"velocity":118,"channel":0},{"pitch":13,"velocity":117,"channel":0},{"pitch":13,"velocity":86,"channel":0},{"pitch":13,"velocity":104,"channel":0},{"pitch":13,"velocity":108,"channel":0},{"pitch":13,"velocity":92,"channel":0},{"pitch":4,"velocity":75,"channel":0},{"pitch":13,"velocity":104,"channel":0},{"pitch":13,"velocity":87,"channel":0},{"pitch":73,"velocity":111,"channel":0},{"pitch":13,"velocity":109,"channel":0},{"pitch":76,"velocity":110,"channel":0},{"pitch":32,"velocity":92,"channel":0},{"pitch":76,"velocity":102,"channel":0},{"pitch":52,"velocity":102,"channel":0},{"pitch":76,"velocity":88,"channel":0},{"pitch":13,"velocity":118,"channel":0},{"pitch":13,"velocity":117,"channel":0},{"pitch":73,"velocity":117,"channel":0},{"pitch":13,"velocity":118,"channel":0},{"pitch":97,"velocity":114,"channel":0},{"pitch":8,"velocity":121,"channel":0},{"pitch":49,"velocity":119,"channel":0},{"pitch":13,"velocity":102,"channel":0},{"pitch":13,"velocity":114,"channel":0},{"pitch":13,"velocity":96,"channel":0},{"pitch":16,"velocity":107,"channel":0},{"pitch":13,"velocity":124,"channel":0},{"pitch":13,"velocity":73,"channel":0},{"pitch":4,"velocity":94,"channel":0},{"pitch":13,"velocity":112,"channel":0},{"pitch":104,"velocity":119,"channel":0},{"pitch":13,"velocity":106,"channel":0},{"pitch":104,"velocity":96,"channel":0},{"pitch":8,"velocity":92,"channel":0},{"pitch":13,"velocity":95,"channel":0},{"pitch":13,"velocity":109,"channel":0},{"pitch":13,"velocity":82,"channel":0},{"pitch":13,"velocity":116,"channel":0},{"pitch":8,"velocity":104,"channel":0},{"pitch":73,"velocity":106,"channel":0},{"pitch":25,"velocity":110,"channel":0},{"pitch":20,"velocity":99,"channel":0},{"pitch":68,"velocity":127,"channel":0},{"pitch":64,"velocity":127,"channel":0},{"pitch":80,"velocity":102,"channel":0},{"pitch":80,"velocity":100,"channel":0},{"pitch":80,"velocity":101,"channel":0},{"pitch":80,"velocity":100,"channel":0},{"pitch":80,"velocity":105,"channel":0},{"pitch":80,"velocity":101,"channel":0},{"pitch":25,"velocity":101,"channel":0},{"pitch":13,"velocity":105,"channel":0},{"pitch":20,"velocity":111,"channel":0},{"pitch":20,"velocity":94,"channel":0},{"pitch":20,"velocity":116,"channel":0},{"pitch":20,"velocity":102,"channel":0},{"pitch":20,"velocity":92,"channel":0},{"pitch":56,"velocity":101,"channel":0},{"pitch":20,"velocity":106,"channel":0},{"pitch":20,"velocity":95,"channel":0},{"pitch":20,"velocity":98,"channel":0},{"pitch":20,"velocity":105,"channel":0},{"pitch":20,"velocity":105,"channel":0},{"pitch":20,"velocity":96,"channel":0},{"pitch":20,"velocity":108,"channel":0},{"pitch":76,"velocity":127,"channel":0},{"pitch":1,"velocity":102,"channel":0}],"stageTiming":{"beat-setup":17.098,"intent":0.019,"entropy":0.1889,"phase":0.0218,"climax":0.0376,"envelope":0.0339,"silhouette":0.0208,"rest":0.0387,"complement":0.0023,"tension-cadence":0.13,"negotiation":0.0323,"probability-adjust":0.003,"emission":4.9384,"post-beat":0.023},"iterBudget":{"raw":60,"capped":60,"wasCapped":false}}
{"layer":"L1","beatKey":"0:0:1:10","timeMs":3666.6666666666665,"snap":{"key":"D#","mode":"locrian","quality":"minor","scale":["D#","E","F#","G#","A","B","C#"],"chords":[],"tension":0.1267008380912245,"harmonicRhythm":0.3273371111432095,"harmonicMutationCount":3,"excursion":0,"sectionPhase":"opening","phrasePosition":0,"phrasePhase":"opening","phraseDynamism":1,"registerBias":-6,"densityMultiplier":0.8,"voiceIndependence":0.5,"compositeIntensity":0.4555629455238049,"playProb":0.26361426622353556,"stutterProb":0.23292789471207534,"flicker":1.1212101942619084,"textureMode":"flurry","textureFatigue":0.05833333333333333,"densityBias":0,"crossModBias":1,"emissionRatio":0.8185067191910367,"extraDensityCorrection":1.0362986561617926,"extraCoherenceDensityBias":1,"activeProfile":"restrained","journeyMove":"origin","journeyDistance":0,"journeyKey":"D#","journeyMode":"locrian","binauralFreqOffset":8,"binauralFlip":false,"tick":82500,"updatedAt":1772748954440},"negotiation":{"playProb":0.2447608777554747,"stutterProb":0.24176155745380312,"allowCadence":false,"conflict":0.08862238089576802,"phaseConfidence":0.275},"trust":{"stutterContagion":{"score":0.3172649478471894,"samples":23,"weight":1.2379487108853922},"cadenceAlignment":{"score":0.20281465370430937,"samples":23,"weight":1.152110990278232},"phaseLock":{"score":0.22296310475580722,"samples":23,"weight":1.1672223285668555},"convergence":{"score":0.20281465370430937,"samples":23,"weight":1.152110990278232},"feedbackOscillator":{"score":0.20281465370430937,"samples":23,"weight":1.152110990278232},"coherenceMonitor":{"score":0.6062218685669032,"samples":23,"weight":1.4546664014251773},"entropyRegulator":{"score":0.74925,"samples":23,"weight":1.5619375},"restSynchronizer":{"score":0.20281465370430937,"samples":23,"weight":1.152110990278232}},"regime":"initializing","coupling":{},"couplingTargets":{},"axisCouplingTotals":{"density":0,"tension":0,"flicker":0,"entropy":0,"trust":0,"phase":0},"axisEnergyShare":{"shares":{"density":0,"tension":0,"flicker":0,"entropy":0,"trust":0,"phase":0},"axisGini":0},"couplingGates":{"gateD":1,"gateT":1,"gateF":1,"floorDampen":1,"bypassD":0,"bypassT":0,"bypassF":0,"gateMinD":1,"gateMinT":1,"gateMinF":1,"gateEmaD":1,"gateEmaT":1,"gateEmaF":1,"gateBeatCount":2},"couplingHomeostasis":{"totalEnergyEma":0,"energyBudget":3.5,"peakEnergyEma":0,"totalEnergyFloor":8,"floorDampen":1,"redistributionScore":0,"nudgeableRedistributionScore":0,"globalGainMultiplier":1,"giniCoefficient":0,"energyDeltaEma":0,"pairTurbulenceEma":0,"beatCount":0,"invokeCount":2,"tickCount":23,"emptyMatrixBeats":2,"multiplierMin":1,"multiplierMax":1,"multiplierStdDev":0,"floorContactBeats":0,"ceilingContactBeats":23,"avgRecoveryDuration":0},"axisEnergyEquilibrator":{"beatCount":2,"pairAdjustments":0,"axisAdjustments":0,"smoothedShares":{"density":0,"tension":0,"flicker":0,"entropy":0,"trust":0,"phase":0},"perAxisAdj":{},"perPairAdj":{},"lastBaselines":{},"regimeBeats":{},"regimePairAdj":{},"regimeAxisAdj":{},"regimeTightenBudget":{}},"transitionReadiness":{"gap":0,"couplingStrength":0,"coherentThreshold":0,"velocity":0,"velThreshold":0.008,"thresholdScale":0.65,"velocityBlocked":false,"exploringBlock":"velocity","rawRegimeCounts":{},"rawRegimeMaxStreak":{},"effectiveDim":0},"notes":[{"pitch":4,"velocity":106,"channel":0},{"pitch":8,"velocity":125,"channel":0},{"pitch":13,"velocity":120,"channel":0},{"pitch":49,"velocity":118,"channel":0},{"pitch":13,"velocity":114,"channel":0},{"pitch":20,"velocity":127,"channel":0},{"pitch":8,"velocity":102,"channel":0},{"pitch":20,"velocity":110,"channel":0},{"pitch":76,"velocity":119,"channel":0},{"pitch":13,"velocity":122,"channel":0},{"pitch":8,"velocity":114,"channel":0},{"pitch":37,"velocity":90,"channel":0},{"pitch":13,"velocity":105,"channel":0},{"pitch":40,"velocity":102,"channel":0},{"pitch":49,"velocity":97,"channel":0},{"pitch":13,"velocity":110,"channel":0},{"pitch":13,"velocity":108,"channel":0},{"pitch":13,"velocity":120,"channel":0},{"pitch":49,"velocity":90,"channel":0},{"pitch":16,"velocity":99,"channel":0},{"pitch":13,"velocity":114,"channel":0},{"pitch":8,"velocity":99,"channel":0},{"pitch":13,"velocity":117,"channel":0},{"pitch":85,"velocity":102,"channel":0},{"pitch":13,"velocity":113,"channel":0},{"pitch":4,"velocity":119,"channel":0},{"pitch":52,"velocity":115,"channel":0},{"pitch":73,"velocity":90,"channel":0},{"pitch":49,"velocity":114,"channel":0},{"pitch":13,"velocity":113,"channel":0},{"pitch":88,"velocity":127,"channel":0},{"pitch":49,"velocity":113,"channel":0},{"pitch":13,"velocity":110,"channel":0},{"pitch":13,"velocity":105,"channel":0},{"pitch":13,"velocity":92,"channel":0},{"pitch":40,"velocity":110,"channel":0},{"pitch":40,"velocity":97,"channel":0},{"pitch":92,"velocity":97,"channel":0},{"pitch":16,"velocity":108,"channel":0},{"pitch":16,"velocity":88,"channel":0},{"pitch":16,"velocity":103,"channel":0},{"pitch":80,"velocity":123,"channel":0},{"pitch":13,"velocity":102,"channel":0},{"pitch":13,"velocity":73,"channel":0},{"pitch":25,"velocity":113,"channel":0},{"pitch":16,"velocity":88,"channel":0},{"pitch":16,"velocity":103,"channel":0},{"pitch":16,"velocity":91,"channel":0},{"pitch":16,"velocity":123,"channel":0},{"pitch":16,"velocity":111,"channel":0},{"pitch":52,"velocity":106,"channel":0},{"pitch":16,"velocity":122,"channel":0},{"pitch":8,"velocity":109,"channel":0},{"pitch":13,"velocity":99,"channel":0},{"pitch":4,"velocity":113,"channel":0},{"pitch":76,"velocity":85,"channel":0},{"pitch":4,"velocity":102,"channel":0},{"pitch":4,"velocity":113,"channel":0},{"pitch":4,"velocity":88,"channel":0},{"pitch":4,"velocity":125,"channel":0},{"pitch":16,"velocity":99,"channel":0},{"pitch":4,"velocity":102,"channel":0},{"pitch":4,"velocity":115,"channel":0},{"pitch":8,"velocity":108,"channel":0},{"pitch":8,"velocity":102,"channel":0},{"pitch":28,"velocity":100,"channel":0},{"pitch":76,"velocity":120,"channel":0},{"pitch":16,"velocity":120,"channel":0},{"pitch":16,"velocity":74,"channel":0},{"pitch":16,"velocity":126,"channel":0},{"pitch":8,"velocity":99,"channel":0},{"pitch":13,"velocity":127,"channel":0},{"pitch":13,"velocity":105,"channel":0},{"pitch":13,"velocity":98,"channel":0},{"pitch":20,"velocity":107,"channel":0},{"pitch":20,"velocity":109,"channel":0},{"pitch":20,"velocity":118,"channel":0},{"pitch":4,"velocity":127,"channel":0},{"pitch":16,"velocity":127,"channel":0}],"stageTiming":{"beat-setup":22.684,"intent":0.013,"entropy":0.1722,"phase":0.0204,"climax":0.0242,"envelope":0.021,"silhouette":0.0214,"rest":0.0344,"complement":0.0019,"tension-cadence":0.1296,"negotiation":0.0219,"probability-adjust":0.0022,"emission":4.1046,"post-beat":0.0211},"iterBudget":{"raw":50,"capped":50,"wasCapped":false}}
{"layer":"L1","beatKey":"0:0:1:11","timeMs":3833.333333333333,"snap":{"key":"D#","mode":"locrian","quality":"minor","scale":["D#","E","F#","G#","A","B","C#"],"chords":[],"tension":0.1267008380912245,"harmonicRhythm":0.3273371111432095,"harmonicMutationCount":3,"excursion":0,"sectionPhase":"opening","phrasePosition":0,"phrasePhase":"opening","phraseDynamism":1,"registerBias":-6,"densityMultiplier":0.8,"voiceIndependence":0.5,"compositeIntensity":0.48785146076399755,"playProb":0.26361426622353556,"stutterProb":0.23292789471207534,"flicker":1.1212101942619084,"textureMode":"flurry","textureFatigue":0.05833333333333333,"densityBias":0,"crossModBias":1,"emissionRatio":0.8185067191910367,"extraDensityCorrection":1.0362986561617926,"extraCoherenceDensityBias":1,"activeProfile":"restrained","journeyMove":"origin","journeyDistance":0,"journeyKey":"D#","journeyMode":"locrian","binauralFreqOffset":8,"binauralFlip":false,"tick":82500,"updatedAt":1772748962540},"negotiation":{"playProb":0.24507208697950103,"stutterProb":0.24250462341978526,"allowCadence":false,"conflict":0.0858377206071601,"phaseConfidence":0.275},"trust":{"stutterContagion":{"score":0.3135694747940477,"samples":24,"weight":1.2351771060955357},"cadenceAlignment":{"score":0.20322810718601506,"samples":24,"weight":1.1524210803895114},"phaseLock":{"score":0.22506650248594628,"samples":24,"weight":1.1687998768644596},"convergence":{"score":0.20322810718601506,"samples":24,"weight":1.1524210803895114},"feedbackOscillator":{"score":0.20322810718601506,"samples":24,"weight":1.1524210803895114},"coherenceMonitor":{"score":0.6103462872185885,"samples":24,"weight":1.4577597154139414},"entropyRegulator":{"score":0.74925,"samples":24,"weight":1.5619375},"restSynchronizer":{"score":0.20322810718601506,"samples":24,"weight":1.1524210803895114}},"regime":"initializing","coupling":{},"couplingTargets":{},"axisCouplingTotals":{"density":0,"tension":0,"flicker":0,"entropy":0,"trust":0,"phase":0},"axisEnergyShare":{"shares":{"density":0,"tension":0,"flicker":0,"entropy":0,"trust":0,"phase":0},"axisGini":0},"couplingGates":{"gateD":1,"gateT":1,"gateF":1,"floorDampen":1,"bypassD":0,"bypassT":0,"bypassF":0,"gateMinD":1,"gateMinT":1,"gateMinF":1,"gateEmaD":1,"gateEmaT":1,"gateEmaF":1,"gateBeatCount":2},"couplingHomeostasis":{"totalEnergyEma":0,"energyBudget":3.5,"peakEnergyEma":0,"totalEnergyFloor":8,"floorDampen":1,"redistributionScore":0,"nudgeableRedistributionScore":0,"globalGainMultiplier":1,"giniCoefficient":0,"energyDeltaEma":0,"pairTurbulenceEma":0,"beatCount":0,"invokeCount":2,"tickCount":24,"emptyMatrixBeats":2,"multiplierMin":1,"multiplierMax":1,"multiplierStdDev":0,"floorContactBeats":0,"ceilingContactBeats":24,"avgRecoveryDuration":0},"axisEnergyEquilibrator":{"beatCount":2,"pairAdjustments":0,"axisAdjustments":0,"smoothedShares":{"density":0,"tension":0,"flicker":0,"entropy":0,"trust":0,"phase":0},"perAxisAdj":{},"perPairAdj":{},"lastBaselines":{},"regimeBeats":{},"regimePairAdj":{},"regimeAxisAdj":{},"regimeTightenBudget":{}},"transitionReadiness":{"gap":0,"couplingStrength":0,"coherentThreshold":0,"velocity":0,"velThreshold":0.008,"thresholdScale":0.65,"velocityBlocked":false,"exploringBlock":"velocity","rawRegimeCounts":{},"rawRegimeMaxStreak":{},"effectiveDim":0},"notes":[{"pitch":40,"velocity":104,"channel":0},{"pitch":80,"velocity":111,"channel":0},{"pitch":37,"velocity":109,"channel":0},{"pitch":37,"velocity":87,"channel":0},{"pitch":32,"velocity":121,"channel":0},{"pitch":32,"velocity":107,"channel":0},{"pitch":80,"velocity":109,"channel":0},{"pitch":32,"velocity":102,"channel":0},{"pitch":32,"velocity":108,"channel":0},{"pitch":32,"velocity":90,"channel":0},{"pitch":32,"velocity":102,"channel":0},{"pitch":32,"velocity":95,"channel":0},{"pitch":28,"velocity":122,"channel":0},{"pitch":32,"velocity":100,"channel":0},{"pitch":92,"velocity":105,"channel":0},{"pitch":32,"velocity":101,"channel":0},{"pitch":32,"velocity":114,"channel":0},{"pitch":49,"velocity":114,"channel":0},{"pitch":37,"velocity":117,"channel":0},{"pitch":73,"velocity":100,"channel":0},{"pitch":44,"velocity":107,"channel":0},{"pitch":49,"velocity":122,"channel":0},{"pitch":49,"velocity":89,"channel":0},{"pitch":49,"velocity":103,"channel":0},{"pitch":49,"velocity":100,"channel":0},{"pitch":44,"velocity":110,"channel":0},{"pitch":44,"velocity":105,"channel":0},{"pitch":44,"velocity":117,"channel":0},{"pitch":80,"velocity":105,"channel":0},{"pitch":37,"velocity":111,"channel":0},{"pitch":37,"velocity":102,"channel":0},{"pitch":4,"velocity":121,"channel":0},{"pitch":76,"velocity":110,"channel":0},{"pitch":1,"velocity":119,"channel":0},{"pitch":13,"velocity":126,"channel":0},{"pitch":13,"velocity":94,"channel":0},{"pitch":13,"velocity":101,"channel":0},{"pitch":13,"velocity":103,"channel":0},{"pitch":49,"velocity":110,"channel":0},{"pitch":13,"velocity":116,"channel":0},{"pitch":76,"velocity":127,"channel":0},{"pitch":25,"velocity":88,"channel":0},{"pitch":16,"velocity":107,"channel":0},{"pitch":52,"velocity":108,"channel":0},{"pitch":16,"velocity":121,"channel":0},{"pitch":52,"velocity":112,"channel":0},{"pitch":16,"velocity":103,"channel":0},{"pitch":4,"velocity":117,"channel":0},{"pitch":13,"velocity":101,"channel":0},{"pitch":13,"velocity":94,"channel":0},{"pitch":13,"velocity":122,"channel":0},{"pitch":73,"velocity":95,"channel":0},{"pitch":13,"velocity":117,"channel":0},{"pitch":8,"velocity":118,"channel":0},{"pitch":32,"velocity":116,"channel":0},{"pitch":32,"velocity":119,"channel":0},{"pitch":56,"velocity":125,"channel":0},{"pitch":32,"velocity":105,"channel":0},{"pitch":56,"velocity":125,"channel":0},{"pitch":13,"velocity":96,"channel":0},{"pitch":13,"velocity":110,"channel":0},{"pitch":25,"velocity":105,"channel":0},{"pitch":16,"velocity":94,"channel":0},{"pitch":8,"velocity":98,"channel":0},{"pitch":4,"velocity":114,"channel":0},{"pitch":32,"velocity":110,"channel":0},{"pitch":16,"velocity":100,"channel":0},{"pitch":32,"velocity":111,"channel":0},{"pitch":56,"velocity":118,"channel":0},{"pitch":32,"velocity":98,"channel":0},{"pitch":25,"velocity":104,"channel":0},{"pitch":40,"velocity":125,"channel":0},{"pitch":56,"velocity":95,"channel":0},{"pitch":37,"velocity":102,"channel":0},{"pitch":37,"velocity":102,"channel":0},{"pitch":37,"velocity":110,"channel":0},{"pitch":25,"velocity":108,"channel":0},{"pitch":37,"velocity":101,"channel":0},{"pitch":73,"velocity":115,"channel":0},{"pitch":37,"velocity":101,"channel":0},{"pitch":37,"velocity":90,"channel":0},{"pitch":32,"velocity":100,"channel":0},{"pitch":37,"velocity":124,"channel":0},{"pitch":37,"velocity":107,"channel":0},{"pitch":37,"velocity":104,"channel":0},{"pitch":37,"velocity":108,"channel":0},{"pitch":73,"velocity":119,"channel":0},{"pitch":85,"velocity":100,"channel":0},{"pitch":37,"velocity":107,"channel":0},{"pitch":92,"velocity":110,"channel":0},{"pitch":37,"velocity":101,"channel":0},{"pitch":49,"velocity":114,"channel":0},{"pitch":37,"velocity":115,"channel":0},{"pitch":37,"velocity":98,"channel":0},{"pitch":73,"velocity":115,"channel":0},{"pitch":37,"velocity":100,"channel":0},{"pitch":32,"velocity":119,"channel":0},{"pitch":37,"velocity":93,"channel":0},{"pitch":37,"velocity":117,"channel":0},{"pitch":37,"velocity":94,"channel":0},{"pitch":37,"velocity":104,"channel":0},{"pitch":49,"velocity":114,"channel":0},{"pitch":37,"velocity":110,"channel":0},{"pitch":73,"velocity":127,"channel":0},{"pitch":37,"velocity":108,"channel":0},{"pitch":37,"velocity":119,"channel":0},{"pitch":85,"velocity":97,"channel":0},{"pitch":73,"velocity":117,"channel":0},{"pitch":37,"velocity":104,"channel":0},{"pitch":49,"velocity":123,"channel":0},{"pitch":80,"velocity":103,"channel":0},{"pitch":80,"velocity":102,"channel":0},{"pitch":20,"velocity":121,"channel":0},{"pitch":56,"velocity":95,"channel":0},{"pitch":28,"velocity":102,"channel":0},{"pitch":73,"velocity":102,"channel":0},{"pitch":80,"velocity":119,"channel":0},{"pitch":32,"velocity":127,"channel":0},{"pitch":37,"velocity":94,"channel":0},{"pitch":25,"velocity":116,"channel":0},{"pitch":37,"velocity":115,"channel":0},{"pitch":32,"velocity":117,"channel":0},{"pitch":80,"velocity":109,"channel":0},{"pitch":80,"velocity":127,"channel":0},{"pitch":88,"velocity":122,"channel":0},{"pitch":88,"velocity":110,"channel":0},{"pitch":80,"velocity":114,"channel":0},{"pitch":4,"velocity":104,"channel":0},{"pitch":32,"velocity":107,"channel":0},{"pitch":28,"velocity":108,"channel":0},{"pitch":16,"velocity":107,"channel":0},{"pitch":20,"velocity":115,"channel":0},{"pitch":20,"velocity":92,"channel":0},{"pitch":20,"velocity":103,"channel":0},{"pitch":73,"velocity":108,"channel":0},{"pitch":28,"velocity":95,"channel":0},{"pitch":25,"velocity":116,"channel":0},{"pitch":44,"velocity":112,"channel":0},{"pitch":44,"velocity":94,"channel":0},{"pitch":44,"velocity":101,"channel":0},{"pitch":44,"velocity":101,"channel":0},{"pitch":44,"velocity":101,"channel":0},{"pitch":56,"velocity":111,"channel":0},{"pitch":40,"velocity":112,"channel":0},{"pitch":13,"velocity":115,"channel":0},{"pitch":40,"velocity":110,"channel":0},{"pitch":13,"velocity":117,"channel":0},{"pitch":32,"velocity":104,"channel":0},{"pitch":32,"velocity":107,"channel":0},{"pitch":37,"velocity":121,"channel":0},{"pitch":37,"velocity":126,"channel":0},{"pitch":37,"velocity":111,"channel":0},{"pitch":25,"velocity":89,"channel":0},{"pitch":16,"velocity":112,"channel":0},{"pitch":16,"velocity":110,"channel":0},{"pitch":37,"velocity":101,"channel":0},{"pitch":52,"velocity":104,"channel":0},{"pitch":37,"velocity":104,"channel":0},{"pitch":88,"velocity":107,"channel":0},{"pitch":16,"velocity":118,"channel":0},{"pitch":37,"velocity":109,"channel":0},{"pitch":73,"velocity":103,"channel":0},{"pitch":56,"velocity":109,"channel":0},{"pitch":32,"velocity":94,"channel":0},{"pitch":37,"velocity":101,"channel":0},{"pitch":37,"velocity":108,"channel":0},{"pitch":37,"velocity":98,"channel":0},{"pitch":68,"velocity":109,"channel":0},{"pitch":13,"velocity":92,"channel":0},{"pitch":49,"velocity":98,"channel":0},{"pitch":40,"velocity":114,"channel":0},{"pitch":40,"velocity":109,"channel":0},{"pitch":32,"velocity":105,"channel":0},{"pitch":37,"velocity":93,"channel":0},{"pitch":20,"velocity":108,"channel":0},{"pitch":37,"velocity":110,"channel":0},{"pitch":37,"velocity":127,"channel":0},{"pitch":20,"velocity":109,"channel":0},{"pitch":20,"velocity":93,"channel":0},{"pitch":32,"velocity":116,"channel":0},{"pitch":20,"velocity":121,"channel":0},{"pitch":20,"velocity":89,"channel":0},{"pitch":80,"velocity":105,"channel":0},{"pitch":32,"velocity":105,"channel":0},{"pitch":37,"velocity":96,"channel":0},{"pitch":20,"velocity":105,"channel":0},{"pitch":37,"velocity":114,"channel":0},{"pitch":37,"velocity":93,"channel":0},{"pitch":20,"velocity":109,"channel":0},{"pitch":25,"velocity":103,"channel":0},{"pitch":37,"velocity":94,"channel":0},{"pitch":37,"velocity":117,"channel":0},{"pitch":20,"velocity":116,"channel":0},{"pitch":16,"velocity":118,"channel":0},{"pitch":28,"velocity":96,"channel":0},{"pitch":25,"velocity":105,"channel":0},{"pitch":92,"velocity":96,"channel":0},{"pitch":13,"velocity":107,"channel":0},{"pitch":32,"velocity":126,"channel":0},{"pitch":32,"velocity":105,"channel":0},{"pitch":68,"velocity":102,"channel":0},{"pitch":68,"velocity":109,"channel":0},{"pitch":32,"velocity":116,"channel":0},{"pitch":20,"velocity":109,"channel":0},{"pitch":16,"velocity":110,"channel":0},{"pitch":80,"velocity":123,"channel":0},{"pitch":16,"velocity":101,"channel":0},{"pitch":4,"velocity":89,"channel":0},{"pitch":16,"velocity":97,"channel":0},{"pitch":16,"velocity":96,"channel":0},{"pitch":16,"velocity":85,"channel":0},{"pitch":28,"velocity":108,"channel":0},{"pitch":32,"velocity":105,"channel":0},{"pitch":32,"velocity":102,"channel":0},{"pitch":4,"velocity":95,"channel":0},{"pitch":4,"velocity":114,"channel":0},{"pitch":52,"velocity":98,"channel":0},{"pitch":16,"velocity":112,"channel":0},{"pitch":16,"velocity":108,"channel":0},{"pitch":16,"velocity":110,"channel":0},{"pitch":16,"velocity":112,"channel":0},{"pitch":16,"velocity":112,"channel":0},{"pitch":52,"velocity":119,"channel":0},{"pitch":25,"velocity":127,"channel":0},{"pitch":40,"velocity":111,"channel":0},{"pitch":40,"velocity":97,"channel":0},{"pitch":40,"velocity":105,"channel":0},{"pitch":40,"velocity":127,"channel":0},{"pitch":40,"velocity":110,"channel":0},{"pitch":32,"velocity":101,"channel":0},{"pitch":85,"velocity":90,"channel":0},{"pitch":49,"velocity":103,"channel":0},{"pitch":44,"velocity":117,"channel":0},{"pitch":49,"velocity":104,"channel":0},{"pitch":56,"velocity":118,"channel":0},{"pitch":44,"velocity":114,"channel":0},{"pitch":44,"velocity":104,"channel":0},{"pitch":44,"velocity":119,"channel":0},{"pitch":56,"velocity":123,"channel":0},{"pitch":37,"velocity":119,"channel":0},{"pitch":25,"velocity":123,"channel":0},{"pitch":37,"velocity":93,"channel":0},{"pitch":37,"velocity":96,"channel":0},{"pitch":32,"velocity":109,"channel":0},{"pitch":37,"velocity":122,"channel":0},{"pitch":49,"velocity":123,"channel":0},{"pitch":73,"velocity":119,"channel":0},{"pitch":25,"velocity":119,"channel":0},{"pitch":85,"velocity":123,"channel":0},{"pitch":37,"velocity":81,"channel":0},{"pitch":37,"velocity":109,"channel":0},{"pitch":73,"velocity":121,"channel":0},{"pitch":37,"velocity":94,"channel":0},{"pitch":37,"velocity":86,"channel":0},{"pitch":25,"velocity":102,"channel":0},{"pitch":32,"velocity":101,"channel":0},{"pitch":49,"velocity":93,"channel":0},{"pitch":37,"velocity":122,"channel":0},{"pitch":85,"velocity":119,"channel":0},{"pitch":56,"velocity":94,"channel":0},{"pitch":32,"velocity":116,"channel":0},{"pitch":37,"velocity":117,"channel":0},{"pitch":37,"velocity":124,"channel":0},{"pitch":37,"velocity":110,"channel":0},{"pitch":25,"velocity":86,"channel":0},{"pitch":37,"velocity":116,"channel":0},{"pitch":44,"velocity":107,"channel":0},{"pitch":37,"velocity":111,"channel":0},{"pitch":85,"velocity":123,"channel":0},{"pitch":32,"velocity":114,"channel":0},{"pitch":37,"velocity":107,"channel":0},{"pitch":73,"velocity":115,"channel":0},{"pitch":37,"velocity":109,"channel":0},{"pitch":37,"velocity":94,"channel":0},{"pitch":37,"velocity":108,"channel":0},{"pitch":25,"velocity":127,"channel":0},{"pitch":32,"velocity":103,"channel":0},{"pitch":20,"velocity":102,"channel":0},{"pitch":20,"velocity":115,"channel":0},{"pitch":20,"velocity":118,"channel":0},{"pitch":32,"velocity":127,"channel":0},{"pitch":32,"velocity":104,"channel":0},{"pitch":20,"velocity":94,"channel":0},{"pitch":20,"velocity":89,"channel":0},{"pitch":37,"velocity":124,"channel":0},{"pitch":73,"velocity":105,"channel":0},{"pitch":20,"velocity":110,"channel":0},{"pitch":37,"velocity":108,"channel":0},{"pitch":37,"velocity":112,"channel":0},{"pitch":37,"velocity":119,"channel":0},{"pitch":20,"velocity":98,"channel":0},{"pitch":37,"velocity":112,"channel":0},{"pitch":32,"velocity":102,"channel":0},{"pitch":20,"velocity":92,"channel":0},{"pitch":32,"velocity":107,"channel":0},{"pitch":40,"velocity":95,"channel":0},{"pitch":16,"velocity":102,"channel":0},{"pitch":16,"velocity":93,"channel":0},{"pitch":16,"velocity":117,"channel":0},{"pitch":44,"velocity":107,"channel":0},{"pitch":16,"velocity":100,"channel":0},{"pitch":16,"velocity":98,"channel":0},{"pitch":73,"velocity":121,"channel":0},{"pitch":25,"velocity":97,"channel":0},{"pitch":8,"velocity":124,"channel":0},{"pitch":13,"velocity":102,"channel":0},{"pitch":13,"velocity":105,"channel":0},{"pitch":13,"velocity":101,"channel":0},{"pitch":68,"velocity":122,"channel":0},{"pitch":76,"velocity":118,"channel":0},{"pitch":76,"velocity":119,"channel":0},{"pitch":16,"velocity":126,"channel":0},{"pitch":73,"velocity":103,"channel":0},{"pitch":8,"velocity":105,"channel":0},{"pitch":20,"velocity":96,"channel":0},{"pitch":76,"velocity":103,"channel":0},{"pitch":32,"velocity":97,"channel":0},{"pitch":8,"velocity":103,"channel":0},{"pitch":80,"velocity":108,"channel":0},{"pitch":76,"velocity":117,"channel":0},{"pitch":88,"velocity":105,"channel":0},{"pitch":32,"velocity":98,"channel":0},{"pitch":40,"velocity":121,"channel":0},{"pitch":76,"velocity":107,"channel":0},{"pitch":76,"velocity":119,"channel":0},{"pitch":73,"velocity":112,"channel":0},{"pitch":76,"velocity":89,"channel":0},{"pitch":80,"velocity":98,"channel":0},{"pitch":76,"velocity":94,"channel":0},{"pitch":76,"velocity":93,"channel":0},{"pitch":73,"velocity":124,"channel":0},{"pitch":52,"velocity":101,"channel":0},{"pitch":76,"velocity":100,"channel":0},{"pitch":76,"velocity":109,"channel":0},{"pitch":32,"velocity":112,"channel":0},{"pitch":20,"velocity":111,"channel":0},{"pitch":44,"velocity":110,"channel":0},{"pitch":44,"velocity":122,"channel":0},{"pitch":49,"velocity":119,"channel":0},{"pitch":44,"velocity":109,"channel":0}],"stageTiming":{"beat-setup":17.3103,"intent":0.0131,"entropy":0.1935,"phase":0.0228,"climax":0.0273,"envelope":0.0145,"silhouette":0.0196,"rest":0.0486,"complement":0.009,"tension-cadence":0.1397,"negotiation":0.025,"probability-adjust":0.0031,"emission":1.8833,"post-beat":0.0234},"iterBudget":{"raw":192,"capped":144,"wasCapped":true}}
{"layer":"L1","beatKey":"0:0:2:0","timeMs":4000,"snap":{"key":"D#","mode":"locrian","quality":"minor","scale":["D#","E","F#","G#","A","B","C#"],"chords":[],"tension":0.1745738704668823,"harmonicRhythm":0.3778816361590185,"harmonicMutationCount":4,"excursion":0,"sectionPhase":"opening","phrasePosition":0.2,"phrasePhase":"opening","phraseDynamism":1,"registerBias":1.0534230275096776,"densityMultiplier":1.0351141009169893,"voiceIndependence":0.5,"compositeIntensity":0.37605842347872465,"playProb":0.3297153361631653,"stutterProb":0.22841343138283576,"flicker":1.1387970510370966,"textureMode":"flurry","textureFatigue":0,"densityBias":0,"crossModBias":1,"emissionRatio":0.8026968794551775,"extraDensityCorrection":1.0394606241089646,"extraCoherenceDensityBias":1,"activeProfile":"restrained","journeyMove":"origin","journeyDistance":0,"journeyKey":"D#","journeyMode":"locrian","binauralFreqOffset":8,"binauralFlip":false,"tick":172500,"updatedAt":1772748965726},"negotiation":{"playProb":0.3067548546657318,"stutterProb":0.2384129617558084,"allowCadence":false,"conflict":0.08275602570602425,"phaseConfidence":0.275},"trust":{"stutterContagion":{"score":0.3081062609674764,"samples":25,"weight":1.2310796957256074},"cadenceAlignment":{"score":0.2037135613244796,"samples":25,"weight":1.1527851709933596},"phaseLock":{"score":0.2269576673851143,"samples":25,"weight":1.1702182505388357},"convergence":{"score":0.2037135613244796,"samples":25,"weight":1.1527851709933596},"feedbackOscillator":{"score":0.2037135613244796,"samples":25,"weight":1.1527851709933596},"coherenceMonitor":{"score":0.6193078843567401,"samples":25,"weight":1.4644809132675551},"entropyRegulator":{"score":0.74925,"samples":25,"weight":1.5619375},"restSynchronizer":{"score":0.2037135613244796,"samples":25,"weight":1.1527851709933596}},"regime":"initializing","coupling":{},"couplingTargets":{},"axisCouplingTotals":{"density":0,"tension":0,"flicker":0,"entropy":0,"trust":0,"phase":0},"axisEnergyShare":{"shares":{"density":0,"tension":0,"flicker":0,"entropy":0,"trust":0,"phase":0},"axisGini":0},"couplingGates":{"gateD":1,"gateT":1,"gateF":1,"floorDampen":1,"bypassD":0,"bypassT":0,"bypassF":0,"gateMinD":1,"gateMinT":1,"gateMinF":1,"gateEmaD":1,"gateEmaT":1,"gateEmaF":1,"gateBeatCount":3},"couplingHomeostasis":{"totalEnergyEma":0,"energyBudget":3.5,"peakEnergyEma":0,"totalEnergyFloor":8,"floorDampen":1,"redistributionScore":0,"nudgeableRedistributionScore":0,"globalGainMultiplier":1,"giniCoefficient":0,"energyDeltaEma":0,"pairTurbulenceEma":0,"beatCount":0,"invokeCount":3,"tickCount":25,"emptyMatrixBeats":3,"multiplierMin":1,"multiplierMax":1,"multiplierStdDev":0,"floorContactBeats":0,"ceilingContactBeats":25,"avgRecoveryDuration":0},"axisEnergyEquilibrator":{"beatCount":3,"pairAdjustments":0,"axisAdjustments":0,"smoothedShares":{"density":0,"tension":0,"flicker":0,"entropy":0,"trust":0,"phase":0},"perAxisAdj":{},"perPairAdj":{},"lastBaselines":{},"regimeBeats":{},"regimePairAdj":{},"regimeAxisAdj":{},"regimeTightenBudget":{}},"transitionReadiness":{"gap":0,"couplingStrength":0,"coherentThreshold":0,"velocity":0,"velThreshold":0.008,"thresholdScale":0.65,"velocityBlocked":false,"exploringBlock":"velocity","rawRegimeCounts":{},"rawRegimeMaxStreak":{},"effectiveDim":0},"notes":[{"pitch":28,"velocity":101,"channel":0},{"pitch":16,"velocity":101,"channel":0},{"pitch":68,"velocity":104,"channel":0},{"pitch":16,"velocity":106,"channel":0},{"pitch":68,"velocity":98,"channel":0},{"pitch":16,"velocity":103,"channel":0},{"pitch":68,"velocity":106,"channel":0},{"pitch":68,"velocity":121,"channel":0},{"pitch":68,"velocity":96,"channel":0},{"pitch":13,"velocity":108,"channel":0},{"pitch":25,"velocity":112,"channel":0},{"pitch":16,"velocity":103,"channel":0},{"pitch":16,"velocity":117,"channel":0},{"pitch":8,"velocity":108,"channel":0},{"pitch":16,"velocity":125,"channel":0},{"pitch":4,"velocity":107,"channel":0},{"pitch":44,"velocity":114,"channel":0},{"pitch":16,"velocity":106,"channel":0},{"pitch":49,"velocity":108,"channel":0},{"pitch":16,"velocity":127,"channel":0},{"pitch":8,"velocity":98,"channel":0},{"pitch":28,"velocity":112,"channel":0},{"pitch":16,"velocity":120,"channel":0},{"pitch":16,"velocity":120,"channel":0},{"pitch":28,"velocity":103,"channel":0},{"pitch":16,"velocity":127,"channel":0},{"pitch":16,"velocity":103,"channel":0},{"pitch":16,"velocity":116,"channel":0},{"pitch":52,"velocity":126,"channel":0},{"pitch":16,"velocity":111,"channel":0},{"pitch":16,"velocity":87,"channel":0},{"pitch":76,"velocity":121,"channel":0},{"pitch":25,"velocity":98,"channel":0},{"pitch":49,"velocity":106,"channel":0},{"pitch":16,"velocity":104,"channel":0},{"pitch":25,"velocity":126,"channel":0},{"pitch":20,"velocity":104,"channel":0},{"pitch":16,"velocity":116,"channel":0},{"pitch":73,"velocity":112,"channel":0},{"pitch":8,"velocity":108,"channel":0},{"pitch":52,"velocity":94,"channel":0},{"pitch":44,"velocity":110,"channel":0},{"pitch":16,"velocity":107,"channel":0},{"pitch":4,"velocity":127,"channel":0},{"pitch":16,"velocity":91,"channel":0},{"pitch":88,"velocity":116,"channel":0},{"pitch":16,"velocity":103,"channel":0},{"pitch":76,"velocity":114,"channel":0},{"pitch":13,"velocity":93,"channel":0},{"pitch":4,"velocity":108,"channel":0},{"pitch":4,"velocity":93,"channel":0},{"pitch":16,"velocity":107,"channel":0},{"pitch":16,"velocity":103,"channel":0},{"pitch":4,"velocity":108,"channel":0},{"pitch":20,"velocity":117,"channel":0},{"pitch":20,"velocity":96,"channel":0},{"pitch":73,"velocity":127,"channel":0},{"pitch":20,"velocity":108,"channel":0},{"pitch":49,"velocity":110,"channel":0},{"pitch":28,"velocity":114,"channel":0},{"pitch":92,"velocity":127,"channel":0},{"pitch":28,"velocity":97,"channel":0},{"pitch":16,"velocity":114,"channel":0},{"pitch":20,"velocity":103,"channel":0},{"pitch":32,"velocity":100,"channel":0},{"pitch":37,"velocity":100,"channel":0},{"pitch":80,"velocity":127,"channel":0},{"pitch":76,"velocity":91,"channel":0},{"pitch":56,"velocity":127,"channel":0},{"pitch":44,"velocity":116,"channel":0},{"pitch":40,"velocity":113,"channel":0},{"pitch":28,"velocity":98,"channel":0},{"pitch":68,"velocity":124,"channel":0},{"pitch":56,"velocity":112,"channel":0},{"pitch":68,"velocity":116,"channel":0},{"pitch":64,"velocity":98,"channel":0},{"pitch":64,"velocity":105,"channel":0},{"pitch":32,"velocity":110,"channel":0},{"pitch":32,"velocity":126,"channel":0},{"pitch":37,"velocity":105,"channel":0},{"pitch":4,"velocity":103,"channel":0},{"pitch":32,"velocity":104,"channel":0},{"pitch":4,"velocity":127,"channel":0},{"pitch":4,"velocity":124,"channel":0},{"pitch":73,"velocity":119,"channel":0},{"pitch":28,"velocity":105,"channel":0},{"pitch":28,"velocity":112,"channel":0},{"pitch":28,"velocity":78,"channel":0},{"pitch":32,"velocity":108,"channel":0},{"pitch":32,"velocity":98,"channel":0},{"pitch":40,"velocity":116,"channel":0},{"pitch":32,"velocity":124,"channel":0},{"pitch":20,"velocity":125,"channel":0},{"pitch":37,"velocity":100,"channel":0},{"pitch":32,"velocity":110,"channel":0},{"pitch":32,"velocity":105,"channel":0},{"pitch":80,"velocity":108,"channel":0},{"pitch":28,"velocity":120,"channel":0},{"pitch":25,"velocity":127,"channel":0},{"pitch":85,"velocity":127,"channel":0},{"pitch":61,"velocity":92,"channel":0},{"pitch":64,"velocity":101,"channel":0},{"pitch":32,"velocity":112,"channel":0},{"pitch":28,"velocity":105,"channel":0},{"pitch":56,"velocity":96,"channel":0},{"pitch":25,"velocity":123,"channel":0},{"pitch":32,"velocity":113,"channel":0},{"pitch":88,"velocity":98,"channel":0},{"pitch":28,"velocity":81,"channel":0},{"pitch":32,"velocity":108,"channel":0},{"pitch":56,"velocity":111,"channel":0},{"pitch":32,"velocity":113,"channel":0},{"pitch":28,"velocity":107,"channel":0},{"pitch":76,"velocity":126,"channel":0},{"pitch":16,"velocity":104,"channel":0},{"pitch":16,"velocity":113,"channel":0},{"pitch":16,"velocity":124,"channel":0},{"pitch":37,"velocity":96,"channel":0},{"pitch":52,"velocity":116,"channel":0},{"pitch":25,"velocity":124,"channel":0},{"pitch":13,"velocity":127,"channel":0},{"pitch":28,"velocity":113,"channel":0},{"pitch":20,"velocity":100,"channel":0},{"pitch":20,"velocity":111,"channel":0},{"pitch":5,"velocity":127,"channel":0}],"stageTiming":{"beat-setup":24.5715,"intent":0.0169,"entropy":0.2323,"phase":0.0441,"climax":0.0314,"envelope":0.0174,"silhouette":0.0262,"rest":0.0829,"complement":0.0033,"tension-cadence":0.1779,"negotiation":0.0356,"probability-adjust":0.003,"emission":6.7878,"post-beat":0.0376},"iterBudget":{"raw":160,"capped":160,"wasCapped":false}}
{"layer":"L1","beatKey":"0:0:2:1","timeMs":4166.666666666667,"snap":{"key":"D#","mode":"locrian","quality":"minor","scale":["D#","E","F#","G#","A","B","C#"],"chords":[],"tension":0.1745738704668823,"harmonicRhythm":0.3778816361590185,"harmonicMutationCount":4,"excursion":0,"sectionPhase":"opening","phrasePosition":0.2,"phrasePhase":"opening","phraseDynamism":1,"registerBias":1.0534230275096776,"densityMultiplier":1.0351141009169893,"voiceIndependence":0.5,"compositeIntensity":0.3746144047964136,"playProb":0.3297153361631653,"stutterProb":0.22841343138283576,"flicker":1.1387970510370966,"textureMode":"flurry","textureFatigue":0.17499999999999996,"densityBias":0,"crossModBias":1,"emissionRatio":0.8026968794551775,"extraDensityCorrection":1.0394606241089646,"extraCoherenceDensityBias":1,"activeProfile":"restrained","journeyMove":"origin","journeyDistance":0,"journeyKey":"D#","journeyMode":"locrian","binauralFreqOffset":8,"binauralFlip":false,"tick":172500,"updatedAt":1772748970023},"negotiation":{"playProb":0.30558889597591576,"stutterProb":0.23807285583228216,"allowCadence":false,"conflict":0.07829452473224774,"phaseConfidence":0.275},"trust":{"stutterContagion":{"score":0.3018582060331571,"samples":26,"weight":1.226393654524868},"cadenceAlignment":{"score":0.20401255622518202,"samples":26,"weight":1.1530094171688865},"phaseLock":{"score":0.2286580137459563,"samples":26,"weight":1.1714935103094672},"convergence":{"score":0.20401255622518202,"samples":26,"weight":1.1530094171688865},"feedbackOscillator":{"score":0.20401255622518202,"samples":26,"weight":1.1530094171688865},"coherenceMonitor":{"score":0.6260312958988234,"samples":26,"weight":1.4695234719241177},"entropyRegulator":{"score":0.74925,"samples":26,"weight":1.5619375},"restSynchronizer":{"score":0.20401255622518202,"samples":26,"weight":1.1530094171688865}},"regime":"initializing","coupling":{},"couplingTargets":{},"axisCouplingTotals":{"density":0,"tension":0,"flicker":0,"entropy":0,"trust":0,"phase":0},"axisEnergyShare":{"shares":{"density":0,"tension":0,"flicker":0,"entropy":0,"trust":0,"phase":0},"axisGini":0},"couplingGates":{"gateD":1,"gateT":1,"gateF":1,"floorDampen":1,"bypassD":0,"bypassT":0,"bypassF":0,"gateMinD":1,"gateMinT":1,"gateMinF":1,"gateEmaD":1,"gateEmaT":1,"gateEmaF":1,"gateBeatCount":3},"couplingHomeostasis":{"totalEnergyEma":0,"energyBudget":3.5,"peakEnergyEma":0,"totalEnergyFloor":8,"floorDampen":1,"redistributionScore":0,"nudgeableRedistributionScore":0,"globalGainMultiplier":1,"giniCoefficient":0,"energyDeltaEma":0,"pairTurbulenceEma":0,"beatCount":0,"invokeCount":3,"tickCount":26,"emptyMatrixBeats":3,"multiplierMin":1,"multiplierMax":1,"multiplierStdDev":0,"floorContactBeats":0,"ceilingContactBeats":26,"avgRecoveryDuration":0},"axisEnergyEquilibrator":{"beatCount":3,"pairAdjustments":0,"axisAdjustments":0,"smoothedShares":{"density":0,"tension":0,"flicker":0,"entropy":0,"trust":0,"phase":0},"perAxisAdj":{},"perPairAdj":{},"lastBaselines":{},"regimeBeats":{},"regimePairAdj":{},"regimeAxisAdj":{},"regimeTightenBudget":{}},"transitionReadiness":{"gap":0,"couplingStrength":0,"coherentThreshold":0,"velocity":0,"velThreshold":0.008,"thresholdScale":0.65,"velocityBlocked":false,"exploringBlock":"velocity","rawRegimeCounts":{},"rawRegimeMaxStreak":{},"effectiveDim":0},"notes":[{"pitch":41,"velocity":115,"channel":0},{"pitch":41,"velocity":119,"channel":0},{"pitch":41,"velocity":127,"channel":0},{"pitch":43,"velocity":122,"channel":0},{"pitch":43,"velocity":117,"channel":0},{"pitch":41,"velocity":127,"channel":0},{"pitch":41,"velocity":127,"channel":0},{"pitch":86,"velocity":97,"channel":0},{"pitch":96,"velocity":123,"channel":0},{"pitch":94,"velocity":127,"channel":0},{"pitch":77,"velocity":108,"channel":0},{"pitch":74,"velocity":127,"channel":0},{"pitch":10,"velocity":125,"channel":0},{"pitch":41,"velocity":127,"channel":0},{"pitch":84,"velocity":127,"channel":0},{"pitch":43,"velocity":96,"channel":0},{"pitch":86,"velocity":105,"channel":0},{"pitch":58,"velocity":127,"channel":0},{"pitch":58,"velocity":101,"channel":0},{"pitch":86,"velocity":116,"channel":0},{"pitch":86,"velocity":127,"channel":0},{"pitch":91,"velocity":120,"channel":0},{"pitch":91,"velocity":127,"channel":0},{"pitch":91,"velocity":116,"channel":0},{"pitch":48,"velocity":102,"channel":0},{"pitch":60,"velocity":102,"channel":0},{"pitch":55,"velocity":127,"channel":0},{"pitch":55,"velocity":113,"channel":0},{"pitch":55,"velocity":125,"channel":0},{"pitch":86,"velocity":127,"channel":0},{"pitch":67,"velocity":117,"channel":0},{"pitch":67,"velocity":101,"channel":0},{"pitch":82,"velocity":107,"channel":0},{"pitch":17,"velocity":102,"channel":0},{"pitch":55,"velocity":119,"channel":0},{"pitch":101,"velocity":116,"channel":0},{"pitch":89,"velocity":114,"channel":0},{"pitch":89,"velocity":108,"channel":0},{"pitch":89,"velocity":127,"channel":0},{"pitch":89,"velocity":92,"channel":0},{"pitch":50,"velocity":119,"channel":0},{"pitch":74,"velocity":127,"channel":0},{"pitch":50,"velocity":101,"channel":0},{"pitch":58,"velocity":101,"channel":0},{"pitch":74,"velocity":117,"channel":0},{"pitch":74,"velocity":119,"channel":0},{"pitch":91,"velocity":99,"channel":0},{"pitch":43,"velocity":121,"channel":0},{"pitch":62,"velocity":116,"channel":0},{"pitch":89,"velocity":127,"channel":0},{"pitch":77,"velocity":127,"channel":0},{"pitch":86,"velocity":102,"channel":0},{"pitch":86,"velocity":127,"channel":0},{"pitch":86,"velocity":125,"channel":0},{"pitch":86,"velocity":116,"channel":0},{"pitch":77,"velocity":127,"channel":0},{"pitch":86,"velocity":114,"channel":0},{"pitch":89,"velocity":110,"channel":0},{"pitch":89,"velocity":103,"channel":0},{"pitch":82,"velocity":103,"channel":0},{"pitch":86,"velocity":116,"channel":0},{"pitch":89,"velocity":114,"channel":0},{"pitch":89,"velocity":90,"channel":0},{"pitch":82,"velocity":127,"channel":0},{"pitch":86,"velocity":103,"channel":0},{"pitch":26,"velocity":121,"channel":0},{"pitch":17,"velocity":109,"channel":0},{"pitch":50,"velocity":120,"channel":0},{"pitch":86,"velocity":98,"channel":0},{"pitch":86,"velocity":108,"channel":0},{"pitch":26,"velocity":122,"channel":0},{"pitch":98,"velocity":120,"channel":0},{"pitch":103,"velocity":127,"channel":0},{"pitch":103,"velocity":110,"channel":0},{"pitch":103,"velocity":114,"channel":0},{"pitch":79,"velocity":127,"channel":0},{"pitch":103,"velocity":103,"channel":0},{"pitch":103,"velocity":126,"channel":0},{"pitch":77,"velocity":117,"channel":0},{"pitch":94,"velocity":102,"channel":0},{"pitch":89,"velocity":114,"channel":0},{"pitch":91,"velocity":117,"channel":0},{"pitch":91,"velocity":107,"channel":0},{"pitch":82,"velocity":125,"channel":0},{"pitch":82,"velocity":127,"channel":0},{"pitch":50,"velocity":109,"channel":0},{"pitch":86,"velocity":127,"channel":0},{"pitch":86,"velocity":115,"channel":0},{"pitch":19,"velocity":127,"channel":0},{"pitch":74,"velocity":127,"channel":0},{"pitch":24,"velocity":99,"channel":0},{"pitch":86,"velocity":123,"channel":0},{"pitch":101,"velocity":126,"channel":0},{"pitch":86,"velocity":125,"channel":0},{"pitch":101,"velocity":120,"channel":0},{"pitch":79,"velocity":122,"channel":0},{"pitch":79,"velocity":99,"channel":0},{"pitch":86,"velocity":107,"channel":0},{"pitch":89,"velocity":125,"channel":0},{"pitch":89,"velocity":126,"channel":0},{"pitch":89,"velocity":120,"channel":0},{"pitch":106,"velocity":97,"channel":0},{"pitch":106,"velocity":108,"channel":0},{"pitch":106,"velocity":119,"channel":0},{"pitch":106,"velocity":93,"channel":0},{"pitch":106,"velocity":113,"channel":0},{"pitch":86,"velocity":114,"channel":0},{"pitch":86,"velocity":127,"channel":0},{"pitch":58,"velocity":111,"channel":0},{"pitch":74,"velocity":127,"channel":0},{"pitch":91,"velocity":114,"channel":0},{"pitch":91,"velocity":105,"channel":0},{"pitch":38,"velocity":119,"channel":0},{"pitch":77,"velocity":127,"channel":0},{"pitch":72,"velocity":117,"channel":0},{"pitch":84,"velocity":127,"channel":0},{"pitch":84,"velocity":121,"channel":0},{"pitch":84,"velocity":127,"channel":0}],"stageTiming":{"beat-setup":21.7935,"intent":0.0161,"entropy":0.2479,"phase":0.0304,"climax":0.0502,"envelope":0.0586,"silhouette":0.0468,"rest":0.0617,"complement":0.0029,"tension-cadence":0.1776,"negotiation":0.047,"probability-adjust":0.0039,"emission":5.2873,"post-beat":0.0267},"iterBudget":{"raw":336,"capped":336,"wasCapped":false}}
{"layer":"L1","beatKey":"0:0:2:2","timeMs":4333.333333333333,"snap":{"key":"D#","mode":"locrian","quality":"minor","scale":["D#","E","F#","G#","A","B","C#"],"chords":[],"tension":0.1745738704668823,"harmonicRhythm":0.3778816361590185,"harmonicMutationCount":4,"excursion":0,"sectionPhase":"opening","phrasePosition":0.2,"phrasePhase":"opening","phraseDynamism":1,"registerBias":1.0534230275096776,"densityMultiplier":1.0351141009169893,"voiceIndependence":0.5,"compositeIntensity":0.4161417708455558,"playProb":0.3297153361631653,"stutterProb":0.22841343138283576,"flicker":1.1387970510370966,"textureMode":"flurry","textureFatigue":0.05833333333333333,"densityBias":0,"crossModBias":1,"emissionRatio":0.8026968794551775,"extraDensityCorrection":1.0394606241089646,"extraCoherenceDensityBias":1,"activeProfile":"restrained","journeyMove":"origin","journeyDistance":0,"journeyKey":"D#","journeyMode":"locrian","binauralFreqOffset":8,"binauralFlip":false,"tick":172500,"updatedAt":1772748976465},"negotiation":{"playProb":0.3063498922123108,"stutterProb":0.23900033847054197,"allowCadence":false,"conflict":0.07338423735598143,"phaseConfidence":0.275},"trust":{"stutterContagion":{"score":0.29509947878517967,"samples":27,"weight":1.2213246090888847},"cadenceAlignment":{"score":0.20384350871617496,"samples":27,"weight":1.1528826315371312},"phaseLock":{"score":0.23018679515898932,"samples":27,"weight":1.172640096369242},"convergence":{"score":0.2039043778853393,"samples":27,"weight":1.1529282834140044},"feedbackOscillator":{"score":0.20384350871617496,"samples":27,"weight":1.1528826315371312},"coherenceMonitor":{"score":0.628514743593028,"samples":27,"weight":1.471386057694771},"entropyRegulator":{"score":0.74925,"samples":27,"weight":1.5619375},"restSynchronizer":{"score":0.20384350871617496,"samples":27,"weight":1.1528826315371312}},"regime":"initializing","coupling":{},"couplingTargets":{},"axisCouplingTotals":{"density":0,"tension":0,"flicker":0,"entropy":0,"trust":0,"phase":0},"axisEnergyShare":{"shares":{"density":0,"tension":0,"flicker":0,"entropy":0,"trust":0,"phase":0},"axisGini":0},"couplingGates":{"gateD":1,"gateT":1,"gateF":1,"floorDampen":1,"bypassD":0,"bypassT":0,"bypassF":0,"gateMinD":1,"gateMinT":1,"gateMinF":1,"gateEmaD":1,"gateEmaT":1,"gateEmaF":1,"gateBeatCount":3},"couplingHomeostasis":{"totalEnergyEma":0,"energyBudget":3.5,"peakEnergyEma":0,"totalEnergyFloor":8,"floorDampen":1,"redistributionScore":0,"nudgeableRedistributionScore":0,"globalGainMultiplier":1,"giniCoefficient":0,"energyDeltaEma":0,"pairTurbulenceEma":0,"beatCount":0,"invokeCount":3,"tickCount":27,"emptyMatrixBeats":3,"multiplierMin":1,"multiplierMax":1,"multiplierStdDev":0,"floorContactBeats":0,"ceilingContactBeats":27,"avgRecoveryDuration":0},"axisEnergyEquilibrator":{"beatCount":3,"pairAdjustments":0,"axisAdjustments":0,"smoothedShares":{"density":0,"tension":0,"flicker":0,"entropy":0,"trust":0,"phase":0},"perAxisAdj":{},"perPairAdj":{},"lastBaselines":{},"regimeBeats":{},"regimePairAdj":{},"regimeAxisAdj":{},"regimeTightenBudget":{}},"transitionReadiness":{"gap":0,"couplingStrength":0,"coherentThreshold":0,"velocity":0,"velThreshold":0.008,"thresholdScale":0.65,"velocityBlocked":false,"exploringBlock":"velocity","rawRegimeCounts":{},"rawRegimeMaxStreak":{},"effectiveDim":0},"notes":[{"pitch":96,"velocity":109,"channel":0},{"pitch":79,"velocity":125,"channel":0},{"pitch":53,"velocity":125,"channel":0},{"pitch":48,"velocity":127,"channel":0},{"pitch":48,"velocity":117,"channel":0},{"pitch":19,"velocity":115,"channel":0},{"pitch":58,"velocity":127,"channel":0},{"pitch":86,"velocity":103,"channel":0},{"pitch":53,"velocity":114,"channel":0},{"pitch":53,"velocity":127,"channel":0},{"pitch":72,"velocity":127,"channel":0},{"pitch":12,"velocity":127,"channel":0},{"pitch":79,"velocity":114,"channel":0},{"pitch":14,"velocity":127,"channel":0},{"pitch":14,"velocity":124,"channel":0},{"pitch":14,"velocity":113,"channel":0},{"pitch":19,"velocity":125,"channel":0},{"pitch":86,"velocity":127,"channel":0},{"pitch":86,"velocity":109,"channel":0},{"pitch":89,"velocity":118,"channel":0},{"pitch":79,"velocity":127,"channel":0},{"pitch":79,"velocity":127,"channel":0},{"pitch":14,"velocity":120,"channel":0},{"pitch":24,"velocity":126,"channel":0},{"pitch":86,"velocity":104,"channel":0},{"pitch":79,"velocity":127,"channel":0},{"pitch":86,"velocity":118,"channel":0},{"pitch":7,"velocity":120,"channel":0},{"pitch":86,"velocity":127,"channel":0},{"pitch":91,"velocity":111,"channel":0},{"pitch":91,"velocity":115,"channel":0},{"pitch":91,"velocity":119,"channel":0},{"pitch":91,"velocity":106,"channel":0},{"pitch":14,"velocity":123,"channel":0},{"pitch":89,"velocity":106,"channel":0},{"pitch":14,"velocity":127,"channel":0},{"pitch":89,"velocity":113,"channel":0},{"pitch":53,"velocity":119,"channel":0},{"pitch":74,"velocity":96,"channel":0},{"pitch":89,"velocity":113,"channel":0},{"pitch":89,"velocity":127,"channel":0},{"pitch":14,"velocity":125,"channel":0},{"pitch":67,"velocity":126,"channel":0},{"pitch":31,"velocity":125,"channel":0},{"pitch":72,"velocity":127,"channel":0},{"pitch":31,"velocity":127,"channel":0},{"pitch":53,"velocity":123,"channel":0},{"pitch":53,"velocity":102,"channel":0},{"pitch":14,"velocity":118,"channel":0},{"pitch":14,"velocity":120,"channel":0},{"pitch":10,"velocity":117,"channel":0},{"pitch":58,"velocity":119,"channel":0},{"pitch":74,"velocity":127,"channel":0},{"pitch":79,"velocity":127,"channel":0},{"pitch":103,"velocity":115,"channel":0},{"pitch":103,"velocity":127,"channel":0},{"pitch":79,"velocity":127,"channel":0},{"pitch":79,"velocity":127,"channel":0},{"pitch":24,"velocity":118,"channel":0},{"pitch":24,"velocity":111,"channel":0},{"pitch":84,"velocity":127,"channel":0},{"pitch":84,"velocity":119,"channel":0},{"pitch":17,"velocity":127,"channel":0},{"pitch":96,"velocity":104,"channel":0},{"pitch":19,"velocity":98,"channel":0},{"pitch":19,"velocity":115,"channel":0},{"pitch":36,"velocity":120,"channel":0},{"pitch":86,"velocity":112,"channel":0},{"pitch":89,"velocity":106,"channel":0},{"pitch":41,"velocity":114,"channel":0},{"pitch":86,"velocity":118,"channel":0},{"pitch":86,"velocity":117,"channel":0},{"pitch":86,"velocity":127,"channel":0},{"pitch":86,"velocity":113,"channel":0},{"pitch":77,"velocity":119,"channel":0},{"pitch":86,"velocity":111,"channel":0},{"pitch":86,"velocity":119,"channel":0},{"pitch":86,"velocity":100,"channel":0},{"pitch":77,"velocity":120,"channel":0},{"pitch":60,"velocity":106,"channel":0},{"pitch":29,"velocity":113,"channel":0},{"pitch":29,"velocity":101,"channel":0},{"pitch":29,"velocity":84,"channel":0},{"pitch":91,"velocity":126,"channel":0},{"pitch":82,"velocity":117,"channel":0},{"pitch":74,"velocity":127,"channel":0},{"pitch":46,"velocity":114,"channel":0},{"pitch":17,"velocity":117,"channel":0},{"pitch":17,"velocity":107,"channel":0},{"pitch":19,"velocity":117,"channel":0},{"pitch":19,"velocity":117,"channel":0},{"pitch":84,"velocity":127,"channel":0},{"pitch":5,"velocity":104,"channel":0},{"pitch":24,"velocity":118,"channel":0},{"pitch":86,"velocity":118,"channel":0},{"pitch":82,"velocity":113,"channel":0},{"pitch":84,"velocity":112,"channel":0},{"pitch":19,"velocity":114,"channel":0},{"pitch":7,"velocity":127,"channel":0},{"pitch":36,"velocity":115,"channel":0},{"pitch":7,"velocity":127,"channel":0},{"pitch":86,"velocity":124,"channel":0},{"pitch":86,"velocity":111,"channel":0},{"pitch":77,"velocity":127,"channel":0},{"pitch":31,"velocity":104,"channel":0},{"pitch":36,"velocity":119,"channel":0},{"pitch":101,"velocity":114,"channel":0},{"pitch":98,"velocity":118,"channel":0},{"pitch":5,"velocity":106,"channel":0},{"pitch":5,"velocity":111,"channel":0},{"pitch":10,"velocity":115,"channel":0},{"pitch":84,"velocity":118,"channel":0},{"pitch":84,"velocity":111,"channel":0},{"pitch":19,"velocity":115,"channel":0},{"pitch":84,"velocity":127,"channel":0},{"pitch":5,"velocity":102,"channel":0},{"pitch":50,"velocity":120,"channel":0},{"pitch":19,"velocity":124,"channel":0},{"pitch":19,"velocity":117,"channel":0},{"pitch":7,"velocity":106,"channel":0},{"pitch":106,"velocity":83,"channel":0},{"pitch":7,"velocity":111,"channel":0},{"pitch":7,"velocity":125,"channel":0},{"pitch":5,"velocity":118,"channel":0},{"pitch":84,"velocity":96,"channel":0},{"pitch":17,"velocity":101,"channel":0},{"pitch":22,"velocity":97,"channel":0},{"pitch":84,"velocity":115,"channel":0},{"pitch":53,"velocity":115,"channel":0},{"pitch":17,"velocity":126,"channel":0},{"pitch":96,"velocity":113,"channel":0},{"pitch":17,"velocity":125,"channel":0},{"pitch":46,"velocity":111,"channel":0},{"pitch":58,"velocity":127,"channel":0},{"pitch":82,"velocity":84,"channel":0},{"pitch":86,"velocity":120,"channel":0},{"pitch":84,"velocity":109,"channel":0},{"pitch":58,"velocity":114,"channel":0},{"pitch":34,"velocity":101,"channel":0},{"pitch":24,"velocity":109,"channel":0},{"pitch":41,"velocity":121,"channel":0},{"pitch":41,"velocity":114,"channel":0},{"pitch":41,"velocity":114,"channel":0},{"pitch":41,"velocity":127,"channel":0},{"pitch":22,"velocity":119,"channel":0},{"pitch":5,"velocity":127,"channel":0},{"pitch":53,"velocity":98,"channel":0},{"pitch":17,"velocity":123,"channel":0},{"pitch":58,"velocity":114,"channel":0},{"pitch":34,"velocity":127,"channel":0},{"pitch":41,"velocity":127,"channel":0},{"pitch":41,"velocity":100,"channel":0},{"pitch":74,"velocity":115,"channel":0},{"pitch":22,"velocity":108,"channel":0},{"pitch":86,"velocity":127,"channel":0},{"pitch":22,"velocity":123,"channel":0},{"pitch":86,"velocity":119,"channel":0},{"pitch":79,"velocity":119,"channel":0},{"pitch":38,"velocity":118,"channel":0},{"pitch":38,"velocity":127,"channel":0},{"pitch":55,"velocity":117,"channel":0},{"pitch":91,"velocity":108,"channel":0},{"pitch":55,"velocity":121,"channel":0},{"pitch":55,"velocity":112,"channel":0},{"pitch":91,"velocity":123,"channel":0},{"pitch":36,"velocity":114,"channel":0},{"pitch":84,"velocity":106,"channel":0},{"pitch":84,"velocity":127,"channel":0},{"pitch":86,"velocity":121,"channel":0},{"pitch":79,"velocity":101,"channel":0},{"pitch":38,"velocity":109,"channel":0},{"pitch":38,"velocity":118,"channel":0},{"pitch":29,"velocity":127,"channel":0},{"pitch":86,"velocity":123,"channel":0},{"pitch":38,"velocity":108,"channel":0},{"pitch":50,"velocity":114,"channel":0},{"pitch":89,"velocity":125,"channel":0},{"pitch":34,"velocity":126,"channel":0},{"pitch":24,"velocity":111,"channel":0},{"pitch":38,"velocity":127,"channel":0},{"pitch":36,"velocity":112,"channel":0},{"pitch":82,"velocity":124,"channel":0},{"pitch":89,"velocity":125,"channel":0},{"pitch":43,"velocity":115,"channel":0},{"pitch":48,"velocity":127,"channel":0},{"pitch":46,"velocity":114,"channel":0},{"pitch":48,"velocity":118,"channel":0},{"pitch":48,"velocity":119,"channel":0},{"pitch":19,"velocity":113,"channel":0},{"pitch":53,"velocity":114,"channel":0},{"pitch":79,"velocity":127,"channel":0},{"pitch":94,"velocity":127,"channel":0}],"stageTiming":{"beat-setup":29.2509,"intent":0.0142,"entropy":0.2632,"phase":0.0394,"climax":0.0278,"envelope":0.0155,"silhouette":0.0225,"rest":0.0389,"complement":0.0024,"tension-cadence":0.1523,"negotiation":0.0299,"probability-adjust":0.003,"emission":9.0935,"post-beat":0.0328},"iterBudget":{"raw":144,"capped":144,"wasCapped":false}}
{"layer":"L1","beatKey":"0:0:2:3","timeMs":4500,"snap":{"key":"D#","mode":"locrian","quality":"minor","scale":["D#","E","F#","G#","A","B","C#"],"chords":[],"tension":0.1745738704668823,"harmonicRhythm":0.3778816361590185,"harmonicMutationCount":4,"excursion":0,"sectionPhase":"opening","phrasePosition":0.2,"phrasePhase":"opening","phraseDynamism":1,"registerBias":1.0534230275096776,"densityMultiplier":1.0351141009169893,"voiceIndependence":0.5,"compositeIntensity":0.41429592895745737,"playProb":0.3297153361631653,"stutterProb":0.22841343138283576,"flicker":1.1387970510370966,"textureMode":"chordBurst","textureFatigue":0.08333333333333333,"densityBias":0,"crossModBias":1,"emissionRatio":0.8026968794551775,"extraDensityCorrection":1.0394606241089646,"extraCoherenceDensityBias":1,"activeProfile":"restrained","journeyMove":"origin","journeyDistance":0,"journeyKey":"D#","journeyMode":"locrian","binauralFreqOffset":8,"binauralFlip":false,"tick":172500,"updatedAt":1772748983225},"negotiation":{"playProb":0.3056857821835969,"stutterProb":0.23897454560594095,"allowCadence":false,"conflict":0.06844197755175352,"phaseConfidence":0.275},"trust":{"stutterContagion":{"score":0.28772523078649165,"samples":28,"weight":1.2157939230898687},"cadenceAlignment":{"score":0.2034783099134347,"samples":28,"weight":1.152608732435076},"phaseLock":{"score":0.23156132252744732,"samples":28,"weight":1.1736709918955854},"convergence":{"score":0.20365330412240587,"samples":28,"weight":1.1527399780918044},"feedbackOscillator":{"score":0.2034783099134347,"samples":28,"weight":1.152608732435076},"coherenceMonitor":{"score":0.6309013049194122,"samples":28,"weight":1.473175978689559},"entropyRegulator":{"score":0.74925,"samples":28,"weight":1.5619375},"restSynchronizer":{"score":0.2034783099134347,"samples":28,"weight":1.152608732435076}},"regime":"initializing","coupling":{},"couplingTargets":{},"axisCouplingTotals":{"density":0,"tension":0,"flicker":0,"entropy":0,"trust":0,"phase":0},"axisEnergyShare":{"shares":{"density":0,"tension":0,"flicker":0,"entropy":0,"trust":0,"phase":0},"axisGini":0},"couplingGates":{"gateD":1,"gateT":1,"gateF":1,"floorDampen":1,"bypassD":0,"bypassT":0,"bypassF":0,"gateMinD":1,"gateMinT":1,"gateMinF":1,"gateEmaD":1,"gateEmaT":1,"gateEmaF":1,"gateBeatCount":3},"couplingHomeostasis":{"totalEnergyEma":0,"energyBudget":3.5,"peakEnergyEma":0,"totalEnergyFloor":8,"floorDampen":1,"redistributionScore":0,"nudgeableRedistributionScore":0,"globalGainMultiplier":1,"giniCoefficient":0,"energyDeltaEma":0,"pairTurbulenceEma":0,"beatCount":0,"invokeCount":3,"tickCount":28,"emptyMatrixBeats":3,"multiplierMin":1,"multiplierMax":1,"multiplierStdDev":0,"floorContactBeats":0,"ceilingContactBeats":28,"avgRecoveryDuration":0},"axisEnergyEquilibrator":{"beatCount":3,"pairAdjustments":0,"axisAdjustments":0,"smoothedShares":{"density":0,"tension":0,"flicker":0,"entropy":0,"trust":0,"phase":0},"perAxisAdj":{},"perPairAdj":{},"lastBaselines":{},"regimeBeats":{},"regimePairAdj":{},"regimeAxisAdj":{},"regimeTightenBudget":{}},"transitionReadiness":{"gap":0,"couplingStrength":0,"coherentThreshold":0,"velocity":0,"velThreshold":0.008,"thresholdScale":0.65,"velocityBlocked":false,"exploringBlock":"velocity","rawRegimeCounts":{},"rawRegimeMaxStreak":{},"effectiveDim":0},"notes":[{"pitch":22,"velocity":127,"channel":0},{"pitch":58,"velocity":125,"channel":0},{"pitch":17,"velocity":108,"channel":0},{"pitch":29,"velocity":114,"channel":0},{"pitch":22,"velocity":117,"channel":0},{"pitch":22,"velocity":125,"channel":0},{"pitch":22,"velocity":98,"channel":0},{"pitch":22,"velocity":117,"channel":0},{"pitch":22,"velocity":122,"channel":0},{"pitch":22,"velocity":127,"channel":0},{"pitch":55,"velocity":127,"channel":0},{"pitch":77,"velocity":118,"channel":0},{"pitch":89,"velocity":123,"channel":0},{"pitch":84,"velocity":101,"channel":0},{"pitch":29,"velocity":116,"channel":0},{"pitch":29,"velocity":119,"channel":0},{"pitch":77,"velocity":123,"channel":0},{"pitch":77,"velocity":124,"channel":0},{"pitch":53,"velocity":127,"channel":0},{"pitch":74,"velocity":127,"channel":0},{"pitch":38,"velocity":123,"channel":0},{"pitch":24,"velocity":102,"channel":0},{"pitch":19,"velocity":124,"channel":0},{"pitch":38,"velocity":123,"channel":0},{"pitch":19,"velocity":127,"channel":0},{"pitch":5,"velocity":117,"channel":0},{"pitch":84,"velocity":127,"channel":0},{"pitch":89,"velocity":127,"channel":0},{"pitch":58,"velocity":127,"channel":0},{"pitch":22,"velocity":121,"channel":0},{"pitch":103,"velocity":95,"channel":0},{"pitch":82,"velocity":121,"channel":0},{"pitch":29,"velocity":113,"channel":0},{"pitch":2,"velocity":127,"channel":0},{"pitch":77,"velocity":121,"channel":0},{"pitch":48,"velocity":112,"channel":0},{"pitch":50,"velocity":119,"channel":0},{"pitch":7,"velocity":125,"channel":0},{"pitch":62,"velocity":123,"channel":0},{"pitch":84,"velocity":127,"channel":0},{"pitch":14,"velocity":119,"channel":0},{"pitch":14,"velocity":127,"channel":0},{"pitch":14,"velocity":127,"channel":0},{"pitch":14,"velocity":116,"channel":0},{"pitch":79,"velocity":125,"channel":0},{"pitch":14,"velocity":118,"channel":0},{"pitch":14,"velocity":127,"channel":0},{"pitch":14,"velocity":121,"channel":0},{"pitch":55,"velocity":123,"channel":0},{"pitch":14,"velocity":127,"channel":0},{"pitch":19,"velocity":127,"channel":0},{"pitch":77,"velocity":127,"channel":0},{"pitch":26,"velocity":127,"channel":0},{"pitch":26,"velocity":127,"channel":0},{"pitch":31,"velocity":119,"channel":0},{"pitch":19,"velocity":114,"channel":0},{"pitch":19,"velocity":102,"channel":0},{"pitch":84,"velocity":109,"channel":0},{"pitch":17,"velocity":112,"channel":0},{"pitch":29,"velocity":103,"channel":0},{"pitch":53,"velocity":114,"channel":0},{"pitch":55,"velocity":127,"channel":0},{"pitch":84,"velocity":127,"channel":0},{"pitch":96,"velocity":103,"channel":0},{"pitch":91,"velocity":121,"channel":0},{"pitch":2,"velocity":121,"channel":0},{"pitch":89,"velocity":125,"channel":0},{"pitch":94,"velocity":105,"channel":0},{"pitch":94,"velocity":127,"channel":0},{"pitch":94,"velocity":113,"channel":0},{"pitch":96,"velocity":127,"channel":0},{"pitch":96,"velocity":112,"channel":0},{"pitch":96,"velocity":111,"channel":0},{"pitch":58,"velocity":127,"channel":0},{"pitch":53,"velocity":127,"channel":0},{"pitch":82,"velocity":113,"channel":0},{"pitch":46,"velocity":123,"channel":0},{"pitch":19,"velocity":125,"channel":0},{"pitch":19,"velocity":127,"channel":0},{"pitch":19,"velocity":127,"channel":0},{"pitch":19,"velocity":127,"channel":0},{"pitch":55,"velocity":116,"channel":0},{"pitch":82,"velocity":102,"channel":0},{"pitch":31,"velocity":127,"channel":0},{"pitch":19,"velocity":127,"channel":0},{"pitch":86,"velocity":127,"channel":0},{"pitch":89,"velocity":127,"channel":0},{"pitch":89,"velocity":105,"channel":0},{"pitch":82,"velocity":123,"channel":0},{"pitch":5,"velocity":127,"channel":0},{"pitch":48,"velocity":121,"channel":0},{"pitch":36,"velocity":121,"channel":0},{"pitch":29,"velocity":127,"channel":0},{"pitch":22,"velocity":124,"channel":0},{"pitch":82,"velocity":127,"channel":0},{"pitch":82,"velocity":103,"channel":0},{"pitch":82,"velocity":127,"channel":0},{"pitch":5,"velocity":102,"channel":0},{"pitch":5,"velocity":101,"channel":0},{"pitch":5,"velocity":127,"channel":0},{"pitch":5,"velocity":122,"channel":0},{"pitch":5,"velocity":105,"channel":0},{"pitch":74,"velocity":127,"channel":0},{"pitch":17,"velocity":125,"channel":0},{"pitch":19,"velocity":127,"channel":0},{"pitch":31,"velocity":112,"channel":0},{"pitch":84,"velocity":124,"channel":0},{"pitch":74,"velocity":127,"channel":0},{"pitch":89,"velocity":127,"channel":0},{"pitch":36,"velocity":127,"channel":0},{"pitch":55,"velocity":118,"channel":0},{"pitch":19,"velocity":127,"channel":0},{"pitch":19,"velocity":127,"channel":0},{"pitch":19,"velocity":127,"channel":0},{"pitch":19,"velocity":127,"channel":0},{"pitch":19,"velocity":105,"channel":0},{"pitch":19,"velocity":121,"channel":0},{"pitch":5,"velocity":127,"channel":0},{"pitch":38,"velocity":127,"channel":0},{"pitch":86,"velocity":127,"channel":0},{"pitch":5,"velocity":127,"channel":0},{"pitch":7,"velocity":118,"channel":0},{"pitch":17,"velocity":112,"channel":0},{"pitch":5,"velocity":119,"channel":0},{"pitch":5,"velocity":127,"channel":0},{"pitch":5,"velocity":125,"channel":0},{"pitch":89,"velocity":127,"channel":0},{"pitch":48,"velocity":119,"channel":0},{"pitch":24,"velocity":125,"channel":0},{"pitch":24,"velocity":121,"channel":0},{"pitch":101,"velocity":127,"channel":0},{"pitch":24,"velocity":109,"channel":0},{"pitch":17,"velocity":127,"channel":0},{"pitch":74,"velocity":125,"channel":0},{"pitch":14,"velocity":100,"channel":0},{"pitch":14,"velocity":105,"channel":0},{"pitch":43,"velocity":100,"channel":0},{"pitch":86,"velocity":98,"channel":0},{"pitch":14,"velocity":117,"channel":0},{"pitch":84,"velocity":111,"channel":0},{"pitch":14,"velocity":114,"channel":0},{"pitch":24,"velocity":102,"channel":0},{"pitch":24,"velocity":127,"channel":0},{"pitch":24,"velocity":127,"channel":0},{"pitch":17,"velocity":127,"channel":0},{"pitch":77,"velocity":127,"channel":0},{"pitch":17,"velocity":107,"channel":0},{"pitch":17,"velocity":127,"channel":0},{"pitch":19,"velocity":114,"channel":0},{"pitch":19,"velocity":124,"channel":0},{"pitch":19,"velocity":125,"channel":0},{"pitch":84,"velocity":123,"channel":0},{"pitch":50,"velocity":127,"channel":0},{"pitch":50,"velocity":127,"channel":0},{"pitch":17,"velocity":109,"channel":0},{"pitch":17,"velocity":127,"channel":0},{"pitch":55,"velocity":127,"channel":0},{"pitch":17,"velocity":127,"channel":0},{"pitch":74,"velocity":116,"channel":0},{"pitch":17,"velocity":117,"channel":0},{"pitch":17,"velocity":127,"channel":0},{"pitch":31,"velocity":124,"channel":0},{"pitch":24,"velocity":114,"channel":0},{"pitch":24,"velocity":127,"channel":0},{"pitch":94,"velocity":111,"channel":0},{"pitch":5,"velocity":127,"channel":0},{"pitch":5,"velocity":123,"channel":0},{"pitch":5,"velocity":127,"channel":0},{"pitch":86,"velocity":123,"channel":0},{"pitch":86,"velocity":108,"channel":0},{"pitch":96,"velocity":127,"channel":0},{"pitch":29,"velocity":127,"channel":0},{"pitch":48,"velocity":102,"channel":0},{"pitch":96,"velocity":117,"channel":0},{"pitch":84,"velocity":127,"channel":0},{"pitch":31,"velocity":111,"channel":0},{"pitch":53,"velocity":119,"channel":0},{"pitch":29,"velocity":127,"channel":0},{"pitch":19,"velocity":113,"channel":0},{"pitch":19,"velocity":118,"channel":0},{"pitch":19,"velocity":112,"channel":0},{"pitch":89,"velocity":117,"channel":0},{"pitch":2,"velocity":127,"channel":0},{"pitch":17,"velocity":97,"channel":0},{"pitch":53,"velocity":127,"channel":0},{"pitch":17,"velocity":109,"channel":0},{"pitch":34,"velocity":107,"channel":0},{"pitch":22,"velocity":107,"channel":0},{"pitch":19,"velocity":124,"channel":0},{"pitch":24,"velocity":114,"channel":0},{"pitch":74,"velocity":127,"channel":0},{"pitch":89,"velocity":127,"channel":0},{"pitch":65,"velocity":127,"channel":0},{"pitch":70,"velocity":111,"channel":0}],"stageTiming":{"beat-setup":22.6922,"intent":0.0154,"entropy":0.2066,"phase":0.0275,"climax":0.0445,"envelope":0.0348,"silhouette":0.0229,"rest":0.0414,"complement":0.0026,"tension-cadence":0.2059,"negotiation":0.037,"probability-adjust":0.0032,"emission":11.0045,"post-beat":0.0287},"iterBudget":{"raw":252,"capped":252,"wasCapped":false}}
{"layer":"L1","beatKey":"0:0:2:4","timeMs":4666.666666666667,"snap":{"key":"D#","mode":"locrian","quality":"minor","scale":["D#","E","F#","G#","A","B","C#"],"chords":[],"tension":0.1745738704668823,"harmonicRhythm":0.3778816361590185,"harmonicMutationCount":4,"excursion":0,"sectionPhase":"opening","phrasePosition":0.2,"phrasePhase":"opening","phraseDynamism":1,"registerBias":1.0534230275096776,"densityMultiplier":1.0351141009169893,"voiceIndependence":0.5,"compositeIntensity":0.4153078844865797,"playProb":0.3297153361631653,"stutterProb":0.22841343138283576,"flicker":1.1387970510370966,"textureMode":"chordBurst","textureFatigue":0.08333333333333333,"densityBias":0,"crossModBias":1,"emissionRatio":0.8026968794551775,"extraDensityCorrection":1.0394606241089646,"extraCoherenceDensityBias":1,"activeProfile":"restrained","journeyMove":"origin","journeyDistance":0,"journeyKey":"D#","journeyMode":"locrian","binauralFreqOffset":8,"binauralFlip":true,"tick":172500,"updatedAt":1772748993369},"negotiation":{"playProb":0.3074389063652621,"stutterProb":0.2405152741638745,"allowCadence":false,"conflict":0.06318519065479267,"phaseConfidence":0.275},"trust":{"stutterContagion":{"score":0.2801180596930862,"samples":29,"weight":1.2100885447698146},"cadenceAlignment":{"score":0.20328415487855656,"samples":29,"weight":1.1524631161589174},"phaseLock":{"score":0.23279716008442788,"samples":29,"weight":1.1745978700633208},"convergence":{"score":0.20328415487855656,"samples":29,"weight":1.1524631161589174},"feedbackOscillator":{"score":0.20328415487855656,"samples":29,"weight":1.1524631161589174},"coherenceMonitor":{"score":0.6360748972178801,"samples":29,"weight":1.47705617291341},"entropyRegulator":{"score":0.74925,"samples":29,"weight":1.5619375},"restSynchronizer":{"score":0.20328415487855656,"samples":29,"weight":1.1524631161589174}},"regime":"initializing","coupling":{},"couplingTargets":{},"axisCouplingTotals":{"density":0,"tension":0,"flicker":0,"entropy":0,"trust":0,"phase":0},"axisEnergyShare":{"shares":{"density":0,"tension":0,"flicker":0,"entropy":0,"trust":0,"phase":0},"axisGini":0},"couplingGates":{"gateD":1,"gateT":1,"gateF":1,"floorDampen":1,"bypassD":0,"bypassT":0,"bypassF":0,"gateMinD":1,"gateMinT":1,"gateMinF":1,"gateEmaD":1,"gateEmaT":1,"gateEmaF":1,"gateBeatCount":3},"couplingHomeostasis":{"totalEnergyEma":0,"energyBudget":3.5,"peakEnergyEma":0,"totalEnergyFloor":8,"floorDampen":1,"redistributionScore":0,"nudgeableRedistributionScore":0,"globalGainMultiplier":1,"giniCoefficient":0,"energyDeltaEma":0,"pairTurbulenceEma":0,"beatCount":0,"invokeCount":3,"tickCount":29,"emptyMatrixBeats":3,"multiplierMin":1,"multiplierMax":1,"multiplierStdDev":0,"floorContactBeats":0,"ceilingContactBeats":29,"avgRecoveryDuration":0},"axisEnergyEquilibrator":{"beatCount":3,"pairAdjustments":0,"axisAdjustments":0,"smoothedShares":{"density":0,"tension":0,"flicker":0,"entropy":0,"trust":0,"phase":0},"perAxisAdj":{},"perPairAdj":{},"lastBaselines":{},"regimeBeats":{},"regimePairAdj":{},"regimeAxisAdj":{},"regimeTightenBudget":{}},"transitionReadiness":{"gap":0,"couplingStrength":0,"coherentThreshold":0,"velocity":0,"velThreshold":0.008,"thresholdScale":0.65,"velocityBlocked":false,"exploringBlock":"velocity","rawRegimeCounts":{},"rawRegimeMaxStreak":{},"effectiveDim":0},"notes":[{"pitch":89,"velocity":127,"channel":0},{"pitch":96,"velocity":127,"channel":0},{"pitch":96,"velocity":127,"channel":0},{"pitch":96,"velocity":107,"channel":0},{"pitch":48,"velocity":103,"channel":0},{"pitch":19,"velocity":127,"channel":0},{"pitch":86,"velocity":127,"channel":0},{"pitch":14,"velocity":123,"channel":0},{"pitch":89,"velocity":114,"channel":0},{"pitch":48,"velocity":119,"channel":0},{"pitch":77,"velocity":127,"channel":0},{"pitch":60,"velocity":127,"channel":0},{"pitch":7,"velocity":118,"channel":0},{"pitch":7,"velocity":127,"channel":0},{"pitch":53,"velocity":127,"channel":0},{"pitch":5,"velocity":119,"channel":0},{"pitch":12,"velocity":114,"channel":0},{"pitch":84,"velocity":117,"channel":0},{"pitch":14,"velocity":117,"channel":0},{"pitch":14,"velocity":127,"channel":0},{"pitch":14,"velocity":127,"channel":0},{"pitch":26,"velocity":122,"channel":0},{"pitch":86,"velocity":118,"channel":0},{"pitch":84,"velocity":127,"channel":0},{"pitch":19,"velocity":127,"channel":0},{"pitch":19,"velocity":99,"channel":0},{"pitch":19,"velocity":127,"channel":0},{"pitch":106,"velocity":123,"channel":0},{"pitch":74,"velocity":111,"channel":0},{"pitch":53,"velocity":122,"channel":0},{"pitch":26,"velocity":127,"channel":0},{"pitch":26,"velocity":108,"channel":0},{"pitch":24,"velocity":117,"channel":0},{"pitch":26,"velocity":127,"channel":0},{"pitch":26,"velocity":119,"channel":0},{"pitch":74,"velocity":127,"channel":0},{"pitch":89,"velocity":127,"channel":0},{"pitch":82,"velocity":127,"channel":0},{"pitch":82,"velocity":116,"channel":0},{"pitch":19,"velocity":127,"channel":0},{"pitch":82,"velocity":112,"channel":0},{"pitch":84,"velocity":121,"channel":0},{"pitch":74,"velocity":107,"channel":0},{"pitch":77,"velocity":127,"channel":0},{"pitch":86,"velocity":127,"channel":0},{"pitch":14,"velocity":127,"channel":0},{"pitch":84,"velocity":127,"channel":0},{"pitch":77,"velocity":127,"channel":0},{"pitch":86,"velocity":101,"channel":0},{"pitch":7,"velocity":124,"channel":0},{"pitch":14,"velocity":111,"channel":0},{"pitch":17,"velocity":127,"channel":0},{"pitch":17,"velocity":127,"channel":0},{"pitch":17,"velocity":111,"channel":0},{"pitch":86,"velocity":127,"channel":0},{"pitch":12,"velocity":121,"channel":0},{"pitch":89,"velocity":111,"channel":0},{"pitch":5,"velocity":109,"channel":0},{"pitch":5,"velocity":119,"channel":0},{"pitch":5,"velocity":118,"channel":0},{"pitch":5,"velocity":113,"channel":0},{"pitch":10,"velocity":107,"channel":0},{"pitch":17,"velocity":107,"channel":0},{"pitch":74,"velocity":127,"channel":0},{"pitch":17,"velocity":82,"channel":0},{"pitch":29,"velocity":127,"channel":0},{"pitch":0,"velocity":127,"channel":0},{"pitch":41,"velocity":117,"channel":0},{"pitch":79,"velocity":127,"channel":0},{"pitch":14,"velocity":127,"channel":0},{"pitch":14,"velocity":116,"channel":0},{"pitch":17,"velocity":127,"channel":0},{"pitch":86,"velocity":114,"channel":0},{"pitch":17,"velocity":116,"channel":0},{"pitch":17,"velocity":121,"channel":0},{"pitch":10,"velocity":127,"channel":0},{"pitch":12,"velocity":127,"channel":0},{"pitch":67,"velocity":127,"channel":0},{"pitch":22,"velocity":126,"channel":0},{"pitch":22,"velocity":127,"channel":0},{"pitch":26,"velocity":119,"channel":0},{"pitch":22,"velocity":127,"channel":0},{"pitch":10,"velocity":127,"channel":0},{"pitch":89,"velocity":112,"channel":0},{"pitch":34,"velocity":107,"channel":0},{"pitch":94,"velocity":127,"channel":0},{"pitch":84,"velocity":119,"channel":0},{"pitch":72,"velocity":127,"channel":0},{"pitch":24,"velocity":123,"channel":0},{"pitch":86,"velocity":119,"channel":0},{"pitch":86,"velocity":127,"channel":0},{"pitch":86,"velocity":127,"channel":0},{"pitch":89,"velocity":127,"channel":0},{"pitch":82,"velocity":127,"channel":0},{"pitch":53,"velocity":127,"channel":0},{"pitch":53,"velocity":124,"channel":0},{"pitch":89,"velocity":112,"channel":0},{"pitch":96,"velocity":119,"channel":0},{"pitch":19,"velocity":118,"channel":0},{"pitch":19,"velocity":116,"channel":0},{"pitch":19,"velocity":127,"channel":0},{"pitch":48,"velocity":127,"channel":0},{"pitch":5,"velocity":127,"channel":0},{"pitch":5,"velocity":119,"channel":0},{"pitch":5,"velocity":109,"channel":0},{"pitch":5,"velocity":106,"channel":0},{"pitch":48,"velocity":127,"channel":0},{"pitch":12,"velocity":116,"channel":0},{"pitch":17,"velocity":107,"channel":0},{"pitch":86,"velocity":112,"channel":0},{"pitch":12,"velocity":127,"channel":0},{"pitch":2,"velocity":127,"channel":0},{"pitch":67,"velocity":127,"channel":0},{"pitch":89,"velocity":127,"channel":0},{"pitch":101,"velocity":114,"channel":0},{"pitch":70,"velocity":101,"channel":0},{"pitch":101,"velocity":116,"channel":0},{"pitch":101,"velocity":127,"channel":0},{"pitch":12,"velocity":116,"channel":0},{"pitch":103,"velocity":119,"channel":0},{"pitch":26,"velocity":121,"channel":0},{"pitch":103,"velocity":116,"channel":0},{"pitch":103,"velocity":126,"channel":0},{"pitch":103,"velocity":127,"channel":0},{"pitch":103,"velocity":112,"channel":0},{"pitch":103,"velocity":117,"channel":0},{"pitch":103,"velocity":114,"channel":0},{"pitch":103,"velocity":107,"channel":0},{"pitch":12,"velocity":127,"channel":0},{"pitch":5,"velocity":127,"channel":0},{"pitch":5,"velocity":117,"channel":0},{"pitch":106,"velocity":127,"channel":0},{"pitch":77,"velocity":112,"channel":0},{"pitch":5,"velocity":127,"channel":0},{"pitch":5,"velocity":122,"channel":0},{"pitch":12,"velocity":123,"channel":0},{"pitch":14,"velocity":121,"channel":0},{"pitch":14,"velocity":119,"channel":0},{"pitch":24,"velocity":127,"channel":0},{"pitch":101,"velocity":106,"channel":0},{"pitch":101,"velocity":117,"channel":0},{"pitch":101,"velocity":113,"channel":0},{"pitch":101,"velocity":126,"channel":0},{"pitch":101,"velocity":118,"channel":0},{"pitch":77,"velocity":118,"channel":0},{"pitch":77,"velocity":111,"channel":0},{"pitch":10,"velocity":127,"channel":0},{"pitch":101,"velocity":127,"channel":0},{"pitch":101,"velocity":109,"channel":0},{"pitch":12,"velocity":101,"channel":0},{"pitch":17,"velocity":127,"channel":0},{"pitch":72,"velocity":127,"channel":0},{"pitch":22,"velocity":127,"channel":0},{"pitch":22,"velocity":108,"channel":0},{"pitch":19,"velocity":113,"channel":0},{"pitch":19,"velocity":117,"channel":0},{"pitch":12,"velocity":119,"channel":0},{"pitch":67,"velocity":112,"channel":0},{"pitch":84,"velocity":117,"channel":0},{"pitch":24,"velocity":117,"channel":0},{"pitch":24,"velocity":124,"channel":0},{"pitch":24,"velocity":127,"channel":0},{"pitch":24,"velocity":127,"channel":0},{"pitch":91,"velocity":127,"channel":0},{"pitch":84,"velocity":127,"channel":0},{"pitch":77,"velocity":121,"channel":0},{"pitch":89,"velocity":121,"channel":0},{"pitch":22,"velocity":112,"channel":0},{"pitch":53,"velocity":127,"channel":0},{"pitch":101,"velocity":127,"channel":0},{"pitch":101,"velocity":117,"channel":0},{"pitch":101,"velocity":121,"channel":0},{"pitch":89,"velocity":113,"channel":0},{"pitch":34,"velocity":114,"channel":0},{"pitch":50,"velocity":113,"channel":0},{"pitch":50,"velocity":127,"channel":0},{"pitch":43,"velocity":127,"channel":0},{"pitch":79,"velocity":127,"channel":0},{"pitch":43,"velocity":127,"channel":0},{"pitch":43,"velocity":127,"channel":0},{"pitch":43,"velocity":112,"channel":0},{"pitch":22,"velocity":124,"channel":0},{"pitch":89,"velocity":113,"channel":0},{"pitch":89,"velocity":127,"channel":0},{"pitch":89,"velocity":117,"channel":0},{"pitch":89,"velocity":127,"channel":0},{"pitch":77,"velocity":127,"channel":0},{"pitch":22,"velocity":123,"channel":0},{"pitch":22,"velocity":127,"channel":0},{"pitch":24,"velocity":107,"channel":0},{"pitch":26,"velocity":108,"channel":0},{"pitch":84,"velocity":127,"channel":0},{"pitch":48,"velocity":119,"channel":0},{"pitch":86,"velocity":124,"channel":0},{"pitch":70,"velocity":117,"channel":0},{"pitch":84,"velocity":118,"channel":0},{"pitch":86,"velocity":118,"channel":0},{"pitch":24,"velocity":127,"channel":0},{"pitch":91,"velocity":107,"channel":0},{"pitch":24,"velocity":114,"channel":0},{"pitch":94,"velocity":127,"channel":0},{"pitch":12,"velocity":121,"channel":0},{"pitch":24,"velocity":127,"channel":0},{"pitch":22,"velocity":118,"channel":0},{"pitch":86,"velocity":107,"channel":0},{"pitch":26,"velocity":127,"channel":0},{"pitch":26,"velocity":127,"channel":0},{"pitch":31,"velocity":117,"channel":0},{"pitch":94,"velocity":111,"channel":0},{"pitch":79,"velocity":106,"channel":0},{"pitch":96,"velocity":122,"channel":0},{"pitch":96,"velocity":111,"channel":0},{"pitch":77,"velocity":107,"channel":0},{"pitch":29,"velocity":127,"channel":0},{"pitch":5,"velocity":106,"channel":0},{"pitch":91,"velocity":127,"channel":0},{"pitch":91,"velocity":112,"channel":0},{"pitch":91,"velocity":111,"channel":0},{"pitch":91,"velocity":112,"channel":0},{"pitch":91,"velocity":121,"channel":0},{"pitch":79,"velocity":123,"channel":0},{"pitch":91,"velocity":113,"channel":0},{"pitch":91,"velocity":119,"channel":0},{"pitch":84,"velocity":117,"channel":0},{"pitch":91,"velocity":121,"channel":0},{"pitch":89,"velocity":127,"channel":0},{"pitch":94,"velocity":127,"channel":0},{"pitch":26,"velocity":127,"channel":0},{"pitch":14,"velocity":127,"channel":0},{"pitch":74,"velocity":123,"channel":0},{"pitch":19,"velocity":109,"channel":0},{"pitch":89,"velocity":114,"channel":0},{"pitch":89,"velocity":118,"channel":0},{"pitch":50,"velocity":121,"channel":0},{"pitch":17,"velocity":111,"channel":0},{"pitch":17,"velocity":127,"channel":0},{"pitch":17,"velocity":118,"channel":0},{"pitch":94,"velocity":127,"channel":0},{"pitch":84,"velocity":127,"channel":0},{"pitch":94,"velocity":127,"channel":0},{"pitch":98,"velocity":127,"channel":0},{"pitch":98,"velocity":109,"channel":0},{"pitch":74,"velocity":127,"channel":0},{"pitch":98,"velocity":127,"channel":0},{"pitch":98,"velocity":113,"channel":0},{"pitch":65,"velocity":127,"channel":0},{"pitch":12,"velocity":111,"channel":0},{"pitch":14,"velocity":116,"channel":0},{"pitch":14,"velocity":119,"channel":0},{"pitch":24,"velocity":124,"channel":0},{"pitch":89,"velocity":127,"channel":0},{"pitch":12,"velocity":127,"channel":0},{"pitch":12,"velocity":116,"channel":0},{"pitch":77,"velocity":118,"channel":0},{"pitch":26,"velocity":123,"channel":0},{"pitch":36,"velocity":122,"channel":0},{"pitch":36,"velocity":121,"channel":0},{"pitch":36,"velocity":114,"channel":0},{"pitch":53,"velocity":122,"channel":0},{"pitch":5,"velocity":123,"channel":0},{"pitch":89,"velocity":106,"channel":0},{"pitch":101,"velocity":112,"channel":0},{"pitch":0,"velocity":127,"channel":0},{"pitch":84,"velocity":127,"channel":0},{"pitch":84,"velocity":124,"channel":0},{"pitch":12,"velocity":119,"channel":0},{"pitch":62,"velocity":116,"channel":0},{"pitch":50,"velocity":126,"channel":0},{"pitch":55,"velocity":127,"channel":0},{"pitch":12,"velocity":123,"channel":0},{"pitch":89,"velocity":118,"channel":0},{"pitch":89,"velocity":118,"channel":0},{"pitch":10,"velocity":127,"channel":0},{"pitch":62,"velocity":114,"channel":0},{"pitch":82,"velocity":116,"channel":0},{"pitch":103,"velocity":117,"channel":0},{"pitch":103,"velocity":124,"channel":0},{"pitch":103,"velocity":107,"channel":0},{"pitch":103,"velocity":127,"channel":0},{"pitch":96,"velocity":127,"channel":0},{"pitch":19,"velocity":109,"channel":0},{"pitch":96,"velocity":126,"channel":0},{"pitch":96,"velocity":127,"channel":0},{"pitch":96,"velocity":127,"channel":0},{"pitch":96,"velocity":124,"channel":0},{"pitch":82,"velocity":114,"channel":0},{"pitch":53,"velocity":117,"channel":0},{"pitch":86,"velocity":127,"channel":0},{"pitch":89,"velocity":127,"channel":0},{"pitch":82,"velocity":127,"channel":0},{"pitch":89,"velocity":124,"channel":0},{"pitch":24,"velocity":107,"channel":0},{"pitch":17,"velocity":127,"channel":0},{"pitch":17,"velocity":127,"channel":0}],"stageTiming":{"beat-setup":15.1195,"intent":0.0108,"entropy":0.1649,"phase":0.0225,"climax":0.0226,"envelope":0.0129,"silhouette":0.0187,"rest":0.043,"complement":0.002,"tension-cadence":0.1217,"negotiation":0.0221,"probability-adjust":0.0022,"emission":1.8653,"post-beat":0.0188},"iterBudget":{"raw":40,"capped":40,"wasCapped":false}}
{"layer":"L1","beatKey":"0:0:2:5","timeMs":4833.333333333333,"snap":{"key":"D#","mode":"locrian","quality":"minor","scale":["D#","E","F#","G#","A","B","C#"],"chords":[],"tension":0.1745738704668823,"harmonicRhythm":0.3778816361590185,"harmonicMutationCount":4,"excursion":0,"sectionPhase":"opening","phrasePosition":0.2,"phrasePhase":"opening","phraseDynamism":1,"registerBias":1.0534230275096776,"densityMultiplier":1.0351141009169893,"voiceIndependence":0.5,"compositeIntensity":0.39598928065828287,"playProb":0.3297153361631653,"stutterProb":0.22841343138283576,"flicker":1.1387970510370966,"textureMode":"chordBurst","textureFatigue":0.08333333333333333,"densityBias":0,"crossModBias":1,"emissionRatio":0.8026968794551775,"extraDensityCorrection":1.0394606241089646,"extraCoherenceDensityBias":1,"activeProfile":"restrained","journeyMove":"origin","journeyDistance":0,"journeyKey":"D#","journeyMode":"locrian","binauralFreqOffset":8,"binauralFlip":true,"tick":172500,"updatedAt":1772748995611},"negotiation":{"playProb":0.3092040299982107,"stutterProb":0.24205906055649362,"allowCadence":false,"conflict":0.057625428610897256,"phaseConfidence":0.275},"trust":{"stutterContagion":{"score":0.2723097578311589,"samples":30,"weight":1.2042323183733692},"cadenceAlignment":{"score":0.2029675311630752,"samples":30,"weight":1.1522256483723063},"phaseLock":{"score":0.23390830163190912,"samples":30,"weight":1.175431226223932},"convergence":{"score":0.20312529545255575,"samples":30,"weight":1.1523439715894168},"feedbackOscillator":{"score":0.2029675311630752,"samples":30,"weight":1.1522256483723063},"coherenceMonitor":{"score":0.6393548541564098,"samples":30,"weight":1.4795161406173074},"entropyRegulator":{"score":0.74925,"samples":30,"weight":1.5619375},"restSynchronizer":{"score":0.2029675311630752,"samples":30,"weight":1.1522256483723063}},"regime":"initializing","coupling":{},"couplingTargets":{},"axisCouplingTotals":{"density":0,"tension":0,"flicker":0,"entropy":0,"trust":0,"phase":0},"axisEnergyShare":{"shares":{"density":0,"tension":0,"flicker":0,"entropy":0,"trust":0,"phase":0},"axisGini":0},"couplingGates":{"gateD":1,"gateT":1,"gateF":1,"floorDampen":1,"bypassD":0,"bypassT":0,"bypassF":0,"gateMinD":1,"gateMinT":1,"gateMinF":1,"gateEmaD":1,"gateEmaT":1,"gateEmaF":1,"gateBeatCount":3},"couplingHomeostasis":{"totalEnergyEma":0,"energyBudget":3.5,"peakEnergyEma":0,"totalEnergyFloor":8,"floorDampen":1,"redistributionScore":0,"nudgeableRedistributionScore":0,"globalGainMultiplier":1,"giniCoefficient":0,"energyDeltaEma":0,"pairTurbulenceEma":0,"beatCount":0,"invokeCount":3,"tickCount":30,"emptyMatrixBeats":3,"multiplierMin":1,"multiplierMax":1,"multiplierStdDev":0,"floorContactBeats":0,"ceilingContactBeats":30,"avgRecoveryDuration":0},"axisEnergyEquilibrator":{"beatCount":3,"pairAdjustments":0,"axisAdjustments":0,"smoothedShares":{"density":0,"tension":0,"flicker":0,"entropy":0,"trust":0,"phase":0},"perAxisAdj":{},"perPairAdj":{},"lastBaselines":{},"regimeBeats":{},"regimePairAdj":{},"regimeAxisAdj":{},"regimeTightenBudget":{}},"transitionReadiness":{"gap":0,"couplingStrength":0,"coherentThreshold":0,"velocity":0,"velThreshold":0.008,"thresholdScale":0.65,"velocityBlocked":false,"exploringBlock":"velocity","rawRegimeCounts":{},"rawRegimeMaxStreak":{},"effectiveDim":0},"notes":[{"pitch":82,"velocity":127,"channel":0},{"pitch":19,"velocity":127,"channel":0},{"pitch":19,"velocity":123,"channel":0},{"pitch":19,"velocity":127,"channel":0},{"pitch":19,"velocity":124,"channel":0},{"pitch":29,"velocity":122,"channel":0},{"pitch":34,"velocity":127,"channel":0},{"pitch":89,"velocity":127,"channel":0},{"pitch":53,"velocity":127,"channel":0},{"pitch":77,"velocity":127,"channel":0},{"pitch":14,"velocity":113,"channel":0},{"pitch":89,"velocity":127,"channel":0},{"pitch":94,"velocity":127,"channel":0},{"pitch":94,"velocity":104,"channel":0},{"pitch":89,"velocity":114,"channel":0},{"pitch":94,"velocity":122,"channel":0},{"pitch":89,"velocity":107,"channel":0},{"pitch":89,"velocity":124,"channel":0},{"pitch":89,"velocity":124,"channel":0},{"pitch":24,"velocity":123,"channel":0},{"pitch":24,"velocity":127,"channel":0},{"pitch":89,"velocity":112,"channel":0},{"pitch":89,"velocity":117,"channel":0},{"pitch":91,"velocity":119,"channel":0},{"pitch":91,"velocity":119,"channel":0},{"pitch":91,"velocity":118,"channel":0},{"pitch":91,"velocity":120,"channel":0},{"pitch":53,"velocity":127,"channel":0},{"pitch":53,"velocity":113,"channel":0},{"pitch":86,"velocity":127,"channel":0},{"pitch":86,"velocity":127,"channel":0},{"pitch":79,"velocity":127,"channel":0},{"pitch":7,"velocity":125,"channel":0},{"pitch":36,"velocity":108,"channel":0},{"pitch":46,"velocity":127,"channel":0},{"pitch":72,"velocity":125,"channel":0},{"pitch":26,"velocity":127,"channel":0},{"pitch":31,"velocity":103,"channel":0},{"pitch":79,"velocity":120,"channel":0},{"pitch":53,"velocity":127,"channel":0},{"pitch":79,"velocity":123,"channel":0},{"pitch":86,"velocity":127,"channel":0},{"pitch":86,"velocity":119,"channel":0},{"pitch":86,"velocity":110,"channel":0},{"pitch":86,"velocity":112,"channel":0},{"pitch":89,"velocity":122,"channel":0},{"pitch":96,"velocity":127,"channel":0},{"pitch":96,"velocity":127,"channel":0},{"pitch":19,"velocity":127,"channel":0},{"pitch":31,"velocity":127,"channel":0},{"pitch":55,"velocity":119,"channel":0},{"pitch":14,"velocity":127,"channel":0},{"pitch":79,"velocity":102,"channel":0},{"pitch":79,"velocity":127,"channel":0},{"pitch":89,"velocity":127,"channel":0},{"pitch":34,"velocity":125,"channel":0},{"pitch":43,"velocity":127,"channel":0},{"pitch":48,"velocity":127,"channel":0},{"pitch":89,"velocity":123,"channel":0},{"pitch":38,"velocity":113,"channel":0},{"pitch":79,"velocity":127,"channel":0},{"pitch":24,"velocity":115,"channel":0},{"pitch":19,"velocity":127,"channel":0},{"pitch":62,"velocity":127,"channel":0},{"pitch":86,"velocity":123,"channel":0},{"pitch":86,"velocity":127,"channel":0},{"pitch":17,"velocity":107,"channel":0},{"pitch":91,"velocity":102,"channel":0},{"pitch":53,"velocity":113,"channel":0},{"pitch":50,"velocity":112,"channel":0},{"pitch":50,"velocity":105,"channel":0},{"pitch":50,"velocity":127,"channel":0},{"pitch":101,"velocity":127,"channel":0},{"pitch":98,"velocity":120,"channel":0},{"pitch":38,"velocity":127,"channel":0},{"pitch":79,"velocity":125,"channel":0},{"pitch":77,"velocity":109,"channel":0},{"pitch":14,"velocity":123,"channel":0},{"pitch":14,"velocity":127,"channel":0},{"pitch":89,"velocity":113,"channel":0},{"pitch":46,"velocity":125,"channel":0},{"pitch":101,"velocity":113,"channel":0},{"pitch":101,"velocity":123,"channel":0},{"pitch":2,"velocity":113,"channel":0},{"pitch":74,"velocity":127,"channel":0},{"pitch":89,"velocity":127,"channel":0},{"pitch":65,"velocity":127,"channel":0},{"pitch":70,"velocity":127,"channel":0},{"pitch":67,"velocity":127,"channel":0}],"stageTiming":{"beat-setup":17.8977,"intent":0.0115,"entropy":0.1809,"phase":0.0344,"climax":0.0251,"envelope":0.0133,"silhouette":0.0145,"rest":0.0416,"complement":0.0021,"tension-cadence":0.1208,"negotiation":0.0222,"probability-adjust":0.0024,"emission":7.5228,"post-beat":0.0219},"iterBudget":{"raw":24,"capped":24,"wasCapped":false}}
{"layer":"L1","beatKey":"0:0:2:6","timeMs":5000,"snap":{"key":"D#","mode":"locrian","quality":"minor","scale":["D#","E","F#","G#","A","B","C#"],"chords":[],"tension":0.1745738704668823,"harmonicRhythm":0.3778816361590185,"harmonicMutationCount":4,"excursion":0,"sectionPhase":"opening","phrasePosition":0.2,"phrasePhase":"opening","phraseDynamism":1,"registerBias":1.0534230275096776,"densityMultiplier":1.0351141009169893,"voiceIndependence":0.5,"compositeIntensity":0.41343042187080353,"playProb":0.3297153361631653,"stutterProb":0.22841343138283576,"flicker":1.1387970510370966,"textureMode":"flurry","textureFatigue":0.05833333333333333,"densityBias":0,"crossModBias":1,"emissionRatio":0.8026968794551775,"extraDensityCorrection":1.0394606241089646,"extraCoherenceDensityBias":1,"activeProfile":"restrained","journeyMove":"origin","journeyDistance":0,"journeyKey":"D#","journeyMode":"locrian","binauralFreqOffset":8,"binauralFlip":true,"tick":172500,"updatedAt":1772748999977},"negotiation":{"playProb":0.3095237933148914,"stutterProb":0.2426584857224755,"allowCadence":false,"conflict":0.05200667000106285,"phaseConfidence":0.275},"trust":{"stutterContagion":{"score":0.2136978320026449,"samples":31,"weight":1.1602733740019837},"cadenceAlignment":{"score":0.20411819128861855,"samples":31,"weight":1.153088643466464},"phaseLock":{"score":0.2349073289972495,"samples":31,"weight":1.176180496747937},"convergence":{"score":0.20411819128861855,"samples":31,"weight":1.153088643466464},"feedbackOscillator":{"score":0.20411819128861855,"samples":31,"weight":1.153088643466464},"coherenceMonitor":{"score":0.6407994161061007,"samples":31,"weight":1.4805995620795755},"entropyRegulator":{"score":0.74925,"samples":31,"weight":1.5619375},"restSynchronizer":{"score":0.2823881072687209,"samples":31,"weight":1.2117910804515406}},"regime":"initializing","coupling":{},"couplingTargets":{},"axisCouplingTotals":{"density":0,"tension":0,"flicker":0,"entropy":0,"trust":0,"phase":0},"axisEnergyShare":{"shares":{"density":0,"tension":0,"flicker":0,"entropy":0,"trust":0,"phase":0},"axisGini":0},"couplingGates":{"gateD":1,"gateT":1,"gateF":1,"floorDampen":1,"bypassD":0,"bypassT":0,"bypassF":0,"gateMinD":1,"gateMinT":1,"gateMinF":1,"gateEmaD":1,"gateEmaT":1,"gateEmaF":1,"gateBeatCount":3},"couplingHomeostasis":{"totalEnergyEma":0,"energyBudget":3.5,"peakEnergyEma":0,"totalEnergyFloor":8,"floorDampen":1,"redistributionScore":0,"nudgeableRedistributionScore":0,"globalGainMultiplier":1,"giniCoefficient":0,"energyDeltaEma":0,"pairTurbulenceEma":0,"beatCount":0,"invokeCount":3,"tickCount":31,"emptyMatrixBeats":3,"multiplierMin":1,"multiplierMax":1,"multiplierStdDev":0,"floorContactBeats":0,"ceilingContactBeats":31,"avgRecoveryDuration":0},"axisEnergyEquilibrator":{"beatCount":3,"pairAdjustments":0,"axisAdjustments":0,"smoothedShares":{"density":0,"tension":0,"flicker":0,"entropy":0,"trust":0,"phase":0},"perAxisAdj":{},"perPairAdj":{},"lastBaselines":{},"regimeBeats":{},"regimePairAdj":{},"regimeAxisAdj":{},"regimeTightenBudget":{}},"transitionReadiness":{"gap":0,"couplingStrength":0,"coherentThreshold":0,"velocity":0,"velThreshold":0.008,"thresholdScale":0.65,"velocityBlocked":false,"exploringBlock":"velocity","rawRegimeCounts":{},"rawRegimeMaxStreak":{},"effectiveDim":0},"notes":[{"pitch":36,"velocity":127,"channel":0},{"pitch":36,"velocity":112,"channel":0},{"pitch":36,"velocity":127,"channel":0},{"pitch":29,"velocity":120,"channel":0},{"pitch":19,"velocity":106,"channel":0},{"pitch":19,"velocity":127,"channel":0},{"pitch":7,"velocity":127,"channel":0},{"pitch":98,"velocity":121,"channel":0},{"pitch":19,"velocity":114,"channel":0},{"pitch":19,"velocity":127,"channel":0},{"pitch":19,"velocity":127,"channel":0},{"pitch":14,"velocity":127,"channel":0},{"pitch":19,"velocity":119,"channel":0},{"pitch":19,"velocity":125,"channel":0},{"pitch":7,"velocity":127,"channel":0},{"pitch":10,"velocity":126,"channel":0},{"pitch":10,"velocity":127,"channel":0},{"pitch":10,"velocity":121,"channel":0},{"pitch":10,"velocity":127,"channel":0},{"pitch":10,"velocity":127,"channel":0},{"pitch":12,"velocity":126,"channel":0},{"pitch":12,"velocity":115,"channel":0},{"pitch":7,"velocity":104,"channel":0},{"pitch":7,"velocity":127,"channel":0},{"pitch":14,"velocity":127,"channel":0},{"pitch":50,"velocity":127,"channel":0},{"pitch":74,"velocity":120,"channel":0},{"pitch":17,"velocity":127,"channel":0},{"pitch":17,"velocity":107,"channel":0},{"pitch":7,"velocity":121,"channel":0},{"pitch":10,"velocity":117,"channel":0},{"pitch":79,"velocity":127,"channel":0},{"pitch":94,"velocity":126,"channel":0},{"pitch":98,"velocity":127,"channel":0},{"pitch":17,"velocity":115,"channel":0},{"pitch":46,"velocity":127,"channel":0},{"pitch":41,"velocity":114,"channel":0},{"pitch":70,"velocity":116,"channel":0},{"pitch":41,"velocity":127,"channel":0},{"pitch":41,"velocity":123,"channel":0},{"pitch":41,"velocity":104,"channel":0},{"pitch":53,"velocity":127,"channel":0},{"pitch":38,"velocity":127,"channel":0},{"pitch":43,"velocity":124,"channel":0},{"pitch":43,"velocity":127,"channel":0},{"pitch":70,"velocity":127,"channel":0},{"pitch":31,"velocity":126,"channel":0},{"pitch":79,"velocity":115,"channel":0},{"pitch":43,"velocity":127,"channel":0},{"pitch":38,"velocity":127,"channel":0},{"pitch":55,"velocity":119,"channel":0},{"pitch":43,"velocity":127,"channel":0},{"pitch":43,"velocity":116,"channel":0},{"pitch":79,"velocity":101,"channel":0},{"pitch":43,"velocity":127,"channel":0},{"pitch":91,"velocity":127,"channel":0},{"pitch":48,"velocity":115,"channel":0},{"pitch":89,"velocity":117,"channel":0},{"pitch":26,"velocity":127,"channel":0},{"pitch":89,"velocity":107,"channel":0},{"pitch":89,"velocity":107,"channel":0},{"pitch":89,"velocity":121,"channel":0},{"pitch":14,"velocity":127,"channel":0},{"pitch":19,"velocity":127,"channel":0},{"pitch":19,"velocity":115,"channel":0},{"pitch":19,"velocity":111,"channel":0},{"pitch":19,"velocity":102,"channel":0},{"pitch":19,"velocity":117,"channel":0},{"pitch":41,"velocity":127,"channel":0},{"pitch":41,"velocity":123,"channel":0},{"pitch":41,"velocity":115,"channel":0},{"pitch":53,"velocity":109,"channel":0},{"pitch":2,"velocity":115,"channel":0},{"pitch":2,"velocity":111,"channel":0},{"pitch":91,"velocity":119,"channel":0},{"pitch":24,"velocity":127,"channel":0},{"pitch":84,"velocity":120,"channel":0},{"pitch":24,"velocity":125,"channel":0},{"pitch":72,"velocity":127,"channel":0},{"pitch":24,"velocity":114,"channel":0},{"pitch":31,"velocity":117,"channel":0},{"pitch":53,"velocity":127,"channel":0},{"pitch":53,"velocity":123,"channel":0},{"pitch":29,"velocity":110,"channel":0},{"pitch":24,"velocity":121,"channel":0},{"pitch":22,"velocity":126,"channel":0},{"pitch":82,"velocity":121,"channel":0},{"pitch":62,"velocity":105,"channel":0},{"pitch":62,"velocity":109,"channel":0},{"pitch":53,"velocity":116,"channel":0},{"pitch":50,"velocity":127,"channel":0},{"pitch":50,"velocity":119,"channel":0},{"pitch":22,"velocity":116,"channel":0},{"pitch":86,"velocity":119,"channel":0},{"pitch":79,"velocity":116,"channel":0},{"pitch":86,"velocity":127,"channel":0},{"pitch":84,"velocity":127,"channel":0},{"pitch":86,"velocity":109,"channel":0},{"pitch":34,"velocity":114,"channel":0},{"pitch":19,"velocity":127,"channel":0},{"pitch":29,"velocity":127,"channel":0},{"pitch":62,"velocity":104,"channel":0},{"pitch":22,"velocity":127,"channel":0},{"pitch":22,"velocity":106,"channel":0},{"pitch":0,"velocity":127,"channel":0},{"pitch":10,"velocity":112,"channel":0},{"pitch":10,"velocity":127,"channel":0},{"pitch":14,"velocity":127,"channel":0},{"pitch":12,"velocity":124,"channel":0},{"pitch":14,"velocity":119,"channel":0},{"pitch":12,"velocity":127,"channel":0},{"pitch":86,"velocity":127,"channel":0},{"pitch":50,"velocity":115,"channel":0},{"pitch":5,"velocity":126,"channel":0},{"pitch":5,"velocity":119,"channel":0},{"pitch":38,"velocity":127,"channel":0},{"pitch":12,"velocity":125,"channel":0},{"pitch":89,"velocity":123,"channel":0},{"pitch":94,"velocity":124,"channel":0},{"pitch":12,"velocity":121,"channel":0},{"pitch":86,"velocity":111,"channel":0},{"pitch":86,"velocity":107,"channel":0},{"pitch":89,"velocity":109,"channel":0},{"pitch":94,"velocity":115,"channel":0},{"pitch":94,"velocity":114,"channel":0},{"pitch":53,"velocity":127,"channel":0},{"pitch":106,"velocity":112,"channel":0},{"pitch":5,"velocity":127,"channel":0},{"pitch":38,"velocity":127,"channel":0},{"pitch":67,"velocity":127,"channel":0},{"pitch":77,"velocity":127,"channel":0},{"pitch":79,"velocity":127,"channel":0},{"pitch":29,"velocity":127,"channel":0},{"pitch":24,"velocity":123,"channel":0},{"pitch":24,"velocity":127,"channel":0},{"pitch":24,"velocity":127,"channel":0},{"pitch":19,"velocity":127,"channel":0},{"pitch":10,"velocity":114,"channel":0},{"pitch":26,"velocity":109,"channel":0},{"pitch":24,"velocity":127,"channel":0}],"stageTiming":{"beat-setup":47.52,"intent":0.0126,"entropy":0.1911,"phase":0.0239,"climax":0.0384,"envelope":0.0636,"silhouette":0.0228,"rest":0.0677,"complement":0.0024,"tension-cadence":0.1285,"negotiation":0.027,"probability-adjust":0.0091,"emission":2.1235,"post-beat":0.1354},"iterBudget":{"raw":400,"capped":144,"wasCapped":true}}
{"layer":"L1","beatKey":"0:0:2:7","timeMs":5166.666666666666,"snap":{"key":"D#","mode":"locrian","quality":"minor","scale":["D#","E","F#","G#","A","B","C#"],"chords":[],"tension":0.1745738704668823,"harmonicRhythm":0.3778816361590185,"harmonicMutationCount":4,"excursion":0,"sectionPhase":"opening","phrasePosition":0.2,"phrasePhase":"opening","phraseDynamism":1,"registerBias":1.0534230275096776,"densityMultiplier":1.0351141009169893,"voiceIndependence":0.5,"compositeIntensity":0.4053106437230752,"playProb":0.3297153361631653,"stutterProb":0.22841343138283576,"flicker":1.1387970510370966,"textureMode":"flurry","textureFatigue":0.05833333333333333,"densityBias":0,"crossModBias":1,"emissionRatio":0.8026968794551775,"extraDensityCorrection":1.0394606241089646,"extraCoherenceDensityBias":1,"activeProfile":"restrained","journeyMove":"origin","journeyDistance":0,"journeyKey":"D#","journeyMode":"locrian","binauralFreqOffset":8,"binauralFlip":true,"tick":172500,"updatedAt":1772749003184},"negotiation":{"playProb":0.31073451193305623,"stutterProb":0.24288023749595067,"allowCadence":false,"conflict":0.007184730535519712,"phaseConfidence":0.275},"trust":{"stutterContagion":{"score":0.2101810713024024,"samples":32,"weight":1.1576358034768017},"cadenceAlignment":{"score":0.2036962788424236,"samples":32,"weight":1.1527722091318178},"phaseLock":{"score":0.23580555450142704,"samples":32,"weight":1.1768541658760703},"convergence":{"score":0.20476893402544488,"samples":32,"weight":1.1535767005190838},"feedbackOscillator":{"score":0.20405456927330556,"samples":32,"weight":1.1530409269549793},"coherenceMonitor":{"score":0.625637439759079,"samples":32,"weight":1.4692280798193091},"entropyRegulator":{"score":0.74925,"samples":32,"weight":1.5619375},"restSynchronizer":{"score":0.261887147245307,"samples":32,"weight":1.1964153604339802}},"regime":"initializing","coupling":{},"couplingTargets":{},"axisCouplingTotals":{"density":0,"tension":0,"flicker":0,"entropy":0,"trust":0,"phase":0},"axisEnergyShare":{"shares":{"density":0,"tension":0,"flicker":0,"entropy":0,"trust":0,"phase":0},"axisGini":0},"couplingGates":{"gateD":1,"gateT":1,"gateF":1,"floorDampen":1,"bypassD":0,"bypassT":0,"bypassF":0,"gateMinD":1,"gateMinT":1,"gateMinF":1,"gateEmaD":1,"gateEmaT":1,"gateEmaF":1,"gateBeatCount":3},"couplingHomeostasis":{"totalEnergyEma":0,"energyBudget":3.5,"peakEnergyEma":0,"totalEnergyFloor":8,"floorDampen":1,"redistributionScore":0,"nudgeableRedistributionScore":0,"globalGainMultiplier":1,"giniCoefficient":0,"energyDeltaEma":0,"pairTurbulenceEma":0,"beatCount":0,"invokeCount":3,"tickCount":32,"emptyMatrixBeats":3,"multiplierMin":1,"multiplierMax":1,"multiplierStdDev":0,"floorContactBeats":0,"ceilingContactBeats":32,"avgRecoveryDuration":0},"axisEnergyEquilibrator":{"beatCount":3,"pairAdjustments":0,"axisAdjustments":0,"smoothedShares":{"density":0,"tension":0,"flicker":0,"entropy":0,"trust":0,"phase":0},"perAxisAdj":{},"perPairAdj":{},"lastBaselines":{},"regimeBeats":{},"regimePairAdj":{},"regimeAxisAdj":{},"regimeTightenBudget":{}},"transitionReadiness":{"gap":0,"couplingStrength":0,"coherentThreshold":0,"velocity":0,"velThreshold":0.008,"thresholdScale":0.65,"velocityBlocked":false,"exploringBlock":"velocity","rawRegimeCounts":{},"rawRegimeMaxStreak":{},"effectiveDim":0},"notes":[{"pitch":12,"velocity":123,"channel":0},{"pitch":36,"velocity":127,"channel":0},{"pitch":24,"velocity":114,"channel":0},{"pitch":31,"velocity":104,"channel":0},{"pitch":24,"velocity":122,"channel":0},{"pitch":14,"velocity":114,"channel":0},{"pitch":98,"velocity":119,"channel":0},{"pitch":101,"velocity":111,"channel":0},{"pitch":101,"velocity":112,"channel":0},{"pitch":77,"velocity":125,"channel":0},{"pitch":84,"velocity":127,"channel":0},{"pitch":106,"velocity":127,"channel":0},{"pitch":0,"velocity":122,"channel":0},{"pitch":5,"velocity":118,"channel":0},{"pitch":50,"velocity":127,"channel":0},{"pitch":14,"velocity":107,"channel":0},{"pitch":14,"velocity":127,"channel":0},{"pitch":14,"velocity":127,"channel":0},{"pitch":17,"velocity":121,"channel":0},{"pitch":50,"velocity":103,"channel":0},{"pitch":24,"velocity":104,"channel":0},{"pitch":74,"velocity":127,"channel":0}],"stageTiming":{"beat-setup":13.1414,"intent":0.0112,"entropy":0.1582,"phase":0.0222,"climax":0.0236,"envelope":0.0136,"silhouette":0.0147,"rest":0.0231,"complement":0.0083,"tension-cadence":0.1117,"negotiation":0.0207,"probability-adjust":0.0024,"emission":4.2792,"post-beat":0.0245},"iterBudget":{"raw":42,"capped":42,"wasCapped":false}}
{"layer":"L1","beatKey":"0:0:2:8","timeMs":5333.333333333333,"snap":{"key":"D#","mode":"locrian","quality":"minor","scale":["D#","E","F#","G#","A","B","C#"],"chords":[],"tension":0.1745738704668823,"harmonicRhythm":0.3778816361590185,"harmonicMutationCount":4,"excursion":0,"sectionPhase":"opening","phrasePosition":0.2,"phrasePhase":"opening","phraseDynamism":1,"registerBias":1.0534230275096776,"densityMultiplier":1.0351141009169893,"voiceIndependence":0.5,"compositeIntensity":0.44646038550610356,"playProb":0.3297153361631653,"stutterProb":0.22841343138283576,"flicker":1.1387970510370966,"textureMode":"flurry","textureFatigue":0.05833333333333333,"densityBias":0,"crossModBias":1,"emissionRatio":0.8026968794551775,"extraDensityCorrection":1.0394606241089646,"extraCoherenceDensityBias":1,"activeProfile":"restrained","journeyMove":"origin","journeyDistance":0,"journeyKey":"D#","journeyMode":"locrian","binauralFreqOffset":8,"binauralFlip":true,"tick":172500,"updatedAt":1772749005223},"negotiation":{"playProb":0.31143276567600986,"stutterProb":0.24379316772229656,"allowCadence":false,"conflict":0.004863594344983957,"phaseConfidence":0.275},"trust":{"stutterContagion":{"score":0.2059436381918957,"samples":33,"weight":1.1544577286439217},"cadenceAlignment":{"score":0.20075365993997615,"samples":33,"weight":1.1505652449549821},"phaseLock":{"score":0.23661314905223305,"samples":33,"weight":1.1774598617891747},"convergence":{"score":0.20408774858227752,"samples":33,"weight":1.153065811436708},"feedbackOscillator":{"score":0.20084388753911586,"samples":33,"weight":1.150632915654337},"coherenceMonitor":{"score":0.6331629039025766,"samples":33,"weight":1.4748721779269325},"entropyRegulator":{"score":0.74925,"samples":33,"weight":1.5619375},"restSynchronizer":{"score":0.24345473408825552,"samples":33,"weight":1.1825910505661916}},"regime":"initializing","coupling":{},"couplingTargets":{},"axisCouplingTotals":{"density":0,"tension":0,"flicker":0,"entropy":0,"trust":0,"phase":0},"axisEnergyShare":{"shares":{"density":0,"tension":0,"flicker":0,"entropy":0,"trust":0,"phase":0},"axisGini":0},"couplingGates":{"gateD":1,"gateT":1,"gateF":1,"floorDampen":1,"bypassD":0,"bypassT":0,"bypassF":0,"gateMinD":1,"gateMinT":1,"gateMinF":1,"gateEmaD":1,"gateEmaT":1,"gateEmaF":1,"gateBeatCount":3},"couplingHomeostasis":{"totalEnergyEma":0,"energyBudget":3.5,"peakEnergyEma":0,"totalEnergyFloor":8,"floorDampen":1,"redistributionScore":0,"nudgeableRedistributionScore":0,"globalGainMultiplier":1,"giniCoefficient":0,"energyDeltaEma":0,"pairTurbulenceEma":0,"beatCount":0,"invokeCount":3,"tickCount":33,"emptyMatrixBeats":3,"multiplierMin":1,"multiplierMax":1,"multiplierStdDev":0,"floorContactBeats":0,"ceilingContactBeats":33,"avgRecoveryDuration":0},"axisEnergyEquilibrator":{"beatCount":3,"pairAdjustments":0,"axisAdjustments":0,"smoothedShares":{"density":0,"tension":0,"flicker":0,"entropy":0,"trust":0,"phase":0},"perAxisAdj":{},"perPairAdj":{},"lastBaselines":{},"regimeBeats":{},"regimePairAdj":{},"regimeAxisAdj":{},"regimeTightenBudget":{}},"transitionReadiness":{"gap":0,"couplingStrength":0,"coherentThreshold":0,"velocity":0,"velThreshold":0.008,"thresholdScale":0.65,"velocityBlocked":false,"exploringBlock":"velocity","rawRegimeCounts":{},"rawRegimeMaxStreak":{},"effectiveDim":0},"notes":[{"pitch":91,"velocity":105,"channel":0},{"pitch":91,"velocity":119,"channel":0},{"pitch":91,"velocity":127,"channel":0},{"pitch":10,"velocity":127,"channel":0},{"pitch":10,"velocity":112,"channel":0},{"pitch":10,"velocity":127,"channel":0},{"pitch":77,"velocity":110,"channel":0},{"pitch":10,"velocity":115,"channel":0},{"pitch":10,"velocity":127,"channel":0},{"pitch":10,"velocity":122,"channel":0},{"pitch":10,"velocity":126,"channel":0},{"pitch":10,"velocity":127,"channel":0},{"pitch":10,"velocity":114,"channel":0},{"pitch":14,"velocity":127,"channel":0},{"pitch":77,"velocity":115,"channel":0},{"pitch":26,"velocity":119,"channel":0},{"pitch":77,"velocity":127,"channel":0},{"pitch":77,"velocity":114,"channel":0},{"pitch":77,"velocity":127,"channel":0},{"pitch":79,"velocity":112,"channel":0},{"pitch":77,"velocity":127,"channel":0},{"pitch":77,"velocity":127,"channel":0},{"pitch":36,"velocity":127,"channel":0},{"pitch":84,"velocity":108,"channel":0},{"pitch":43,"velocity":127,"channel":0},{"pitch":38,"velocity":109,"channel":0},{"pitch":82,"velocity":104,"channel":0},{"pitch":19,"velocity":100,"channel":0},{"pitch":82,"velocity":127,"channel":0},{"pitch":19,"velocity":115,"channel":0},{"pitch":17,"velocity":127,"channel":0},{"pitch":12,"velocity":127,"channel":0},{"pitch":12,"velocity":127,"channel":0},{"pitch":12,"velocity":127,"channel":0},{"pitch":82,"velocity":126,"channel":0},{"pitch":86,"velocity":127,"channel":0},{"pitch":89,"velocity":127,"channel":0},{"pitch":24,"velocity":127,"channel":0},{"pitch":24,"velocity":108,"channel":0},{"pitch":82,"velocity":127,"channel":0},{"pitch":96,"velocity":115,"channel":0},{"pitch":96,"velocity":127,"channel":0},{"pitch":96,"velocity":109,"channel":0},{"pitch":5,"velocity":127,"channel":0},{"pitch":5,"velocity":96,"channel":0},{"pitch":19,"velocity":127,"channel":0},{"pitch":19,"velocity":121,"channel":0},{"pitch":19,"velocity":127,"channel":0},{"pitch":19,"velocity":127,"channel":0},{"pitch":19,"velocity":123,"channel":0},{"pitch":34,"velocity":115,"channel":0},{"pitch":89,"velocity":121,"channel":0},{"pitch":24,"velocity":114,"channel":0},{"pitch":24,"velocity":118,"channel":0},{"pitch":91,"velocity":121,"channel":0},{"pitch":91,"velocity":126,"channel":0},{"pitch":34,"velocity":123,"channel":0},{"pitch":17,"velocity":127,"channel":0},{"pitch":106,"velocity":127,"channel":0},{"pitch":94,"velocity":122,"channel":0},{"pitch":94,"velocity":127,"channel":0},{"pitch":94,"velocity":117,"channel":0},{"pitch":94,"velocity":117,"channel":0},{"pitch":94,"velocity":118,"channel":0},{"pitch":29,"velocity":127,"channel":0},{"pitch":10,"velocity":127,"channel":0},{"pitch":50,"velocity":124,"channel":0},{"pitch":74,"velocity":127,"channel":0},{"pitch":19,"velocity":127,"channel":0},{"pitch":84,"velocity":127,"channel":0},{"pitch":17,"velocity":124,"channel":0},{"pitch":89,"velocity":127,"channel":0},{"pitch":24,"velocity":127,"channel":0},{"pitch":17,"velocity":127,"channel":0},{"pitch":89,"velocity":104,"channel":0},{"pitch":84,"velocity":127,"channel":0},{"pitch":41,"velocity":127,"channel":0},{"pitch":86,"velocity":109,"channel":0},{"pitch":86,"velocity":126,"channel":0},{"pitch":91,"velocity":108,"channel":0},{"pitch":91,"velocity":113,"channel":0},{"pitch":84,"velocity":127,"channel":0},{"pitch":89,"velocity":127,"channel":0}],"stageTiming":{"beat-setup":16.1145,"intent":0.0107,"entropy":0.157,"phase":0.0202,"climax":0.0214,"envelope":0.0123,"silhouette":0.013,"rest":0.0238,"complement":0.0018,"tension-cadence":0.1072,"negotiation":0.0207,"probability-adjust":0.0023,"emission":4.7159,"post-beat":0.0204},"iterBudget":{"raw":270,"capped":150,"wasCapped":true}}
{"layer":"L1","beatKey":"0:0:2:9","timeMs":5500,"snap":{"key":"D#","mode":"locrian","quality":"minor","scale":["D#","E","F#","G#","A","B","C#"],"chords":[],"tension":0.1745738704668823,"harmonicRhythm":0.3778816361590185,"harmonicMutationCount":4,"excursion":0,"sectionPhase":"opening","phrasePosition":0.2,"phrasePhase":"opening","phraseDynamism":1,"registerBias":1.0534230275096776,"densityMultiplier":1.0351141009169893,"voiceIndependence":0.5,"compositeIntensity":0.43304933989491495,"playProb":0.3297153361631653,"stutterProb":0.22841343138283576,"flicker":1.1387970510370966,"textureMode":"flurry","textureFatigue":0.14166666666666666,"densityBias":0,"crossModBias":1,"emissionRatio":0.8026968794551775,"extraDensityCorrection":1.0394606241089646,"extraCoherenceDensityBias":1,"activeProfile":"restrained","journeyMove":"origin","journeyDistance":0,"journeyKey":"D#","journeyMode":"locrian","binauralFreqOffset":8,"binauralFlip":true,"tick":172500,"updatedAt":1772749009313},"negotiation":{"playProb":0.315045691417457,"stutterProb":0.24661326233080808,"allowCadence":false,"conflict":0.003892483688939574,"phaseConfidence":0.275},"trust":{"stutterContagion":{"score":0.20141912980926044,"samples":34,"weight":1.1510643473569453},"cadenceAlignment":{"score":0.1995309862242778,"samples":34,"weight":1.15},"phaseLock":{"score":0.23733925731286273,"samples":34,"weight":1.178004442984647},"convergence":{"score":0.2034752947503257,"samples":34,"weight":1.1526064710627444},"feedbackOscillator":{"score":0.1995309862242778,"samples":34,"weight":1.1496482396682084},"coherenceMonitor":{"score":0.6409308792357855,"samples":34,"weight":1.4806981594268391},"entropyRegulator":{"score":0.74925,"samples":34,"weight":1.5619375},"restSynchronizer":{"score":0.22688215141875057,"samples":34,"weight":1.170161613564063}},"regime":"initializing","coupling":{},"couplingTargets":{},"axisCouplingTotals":{"density":0,"tension":0,"flicker":0,"entropy":0,"trust":0,"phase":0},"axisEnergyShare":{"shares":{"density":0,"tension":0,"flicker":0,"entropy":0,"trust":0,"phase":0},"axisGini":0},"couplingGates":{"gateD":1,"gateT":1,"gateF":1,"floorDampen":1,"bypassD":0,"bypassT":0,"bypassF":0,"gateMinD":1,"gateMinT":1,"gateMinF":1,"gateEmaD":1,"gateEmaT":1,"gateEmaF":1,"gateBeatCount":3},"couplingHomeostasis":{"totalEnergyEma":0,"energyBudget":3.5,"peakEnergyEma":0,"totalEnergyFloor":8,"floorDampen":1,"redistributionScore":0,"nudgeableRedistributionScore":0,"globalGainMultiplier":1,"giniCoefficient":0,"energyDeltaEma":0,"pairTurbulenceEma":0,"beatCount":0,"invokeCount":3,"tickCount":34,"emptyMatrixBeats":3,"multiplierMin":1,"multiplierMax":1,"multiplierStdDev":0,"floorContactBeats":0,"ceilingContactBeats":34,"avgRecoveryDuration":0},"axisEnergyEquilibrator":{"beatCount":3,"pairAdjustments":0,"axisAdjustments":0,"smoothedShares":{"density":0,"tension":0,"flicker":0,"entropy":0,"trust":0,"phase":0},"perAxisAdj":{},"perPairAdj":{},"lastBaselines":{},"regimeBeats":{},"regimePairAdj":{},"regimeAxisAdj":{},"regimeTightenBudget":{}},"transitionReadiness":{"gap":0,"couplingStrength":0,"coherentThreshold":0,"velocity":0,"velThreshold":0.008,"thresholdScale":0.65,"velocityBlocked":false,"exploringBlock":"velocity","rawRegimeCounts":{},"rawRegimeMaxStreak":{},"effectiveDim":0},"notes":[{"pitch":94,"velocity":109,"channel":0},{"pitch":106,"velocity":108,"channel":0},{"pitch":94,"velocity":125,"channel":0},{"pitch":106,"velocity":122,"channel":0},{"pitch":106,"velocity":117,"channel":0},{"pitch":101,"velocity":124,"channel":0},{"pitch":77,"velocity":123,"channel":0},{"pitch":72,"velocity":127,"channel":0},{"pitch":72,"velocity":110,"channel":0},{"pitch":29,"velocity":118,"channel":0},{"pitch":26,"velocity":127,"channel":0},{"pitch":26,"velocity":127,"channel":0},{"pitch":101,"velocity":119,"channel":0},{"pitch":101,"velocity":127,"channel":0},{"pitch":101,"velocity":127,"channel":0},{"pitch":60,"velocity":112,"channel":0},{"pitch":101,"velocity":127,"channel":0},{"pitch":50,"velocity":120,"channel":0},{"pitch":48,"velocity":127,"channel":0},{"pitch":50,"velocity":112,"channel":0},{"pitch":38,"velocity":123,"channel":0},{"pitch":53,"velocity":127,"channel":0},{"pitch":89,"velocity":123,"channel":0},{"pitch":22,"velocity":119,"channel":0},{"pitch":22,"velocity":127,"channel":0},{"pitch":22,"velocity":120,"channel":0},{"pitch":34,"velocity":117,"channel":0},{"pitch":22,"velocity":124,"channel":0},{"pitch":84,"velocity":127,"channel":0},{"pitch":91,"velocity":113,"channel":0},{"pitch":91,"velocity":127,"channel":0},{"pitch":91,"velocity":123,"channel":0},{"pitch":91,"velocity":127,"channel":0},{"pitch":84,"velocity":127,"channel":0},{"pitch":84,"velocity":105,"channel":0},{"pitch":72,"velocity":127,"channel":0},{"pitch":89,"velocity":125,"channel":0},{"pitch":82,"velocity":127,"channel":0},{"pitch":77,"velocity":123,"channel":0},{"pitch":84,"velocity":122,"channel":0},{"pitch":50,"velocity":127,"channel":0},{"pitch":86,"velocity":114,"channel":0},{"pitch":89,"velocity":127,"channel":0},{"pitch":14,"velocity":127,"channel":0},{"pitch":89,"velocity":123,"channel":0},{"pitch":84,"velocity":124,"channel":0},{"pitch":17,"velocity":120,"channel":0},{"pitch":17,"velocity":127,"channel":0},{"pitch":12,"velocity":127,"channel":0},{"pitch":14,"velocity":82,"channel":0},{"pitch":14,"velocity":117,"channel":0},{"pitch":84,"velocity":123,"channel":0},{"pitch":101,"velocity":127,"channel":0},{"pitch":96,"velocity":127,"channel":0},{"pitch":96,"velocity":101,"channel":0},{"pitch":84,"velocity":127,"channel":0},{"pitch":84,"velocity":127,"channel":0},{"pitch":94,"velocity":120,"channel":0},{"pitch":94,"velocity":127,"channel":0},{"pitch":84,"velocity":127,"channel":0},{"pitch":5,"velocity":127,"channel":0},{"pitch":89,"velocity":117,"channel":0},{"pitch":50,"velocity":127,"channel":0},{"pitch":72,"velocity":122,"channel":0},{"pitch":43,"velocity":105,"channel":0},{"pitch":94,"velocity":122,"channel":0},{"pitch":94,"velocity":118,"channel":0},{"pitch":29,"velocity":114,"channel":0},{"pitch":65,"velocity":119,"channel":0},{"pitch":94,"velocity":127,"channel":0},{"pitch":19,"velocity":127,"channel":0},{"pitch":94,"velocity":127,"channel":0},{"pitch":94,"velocity":117,"channel":0},{"pitch":106,"velocity":114,"channel":0},{"pitch":79,"velocity":119,"channel":0},{"pitch":79,"velocity":110,"channel":0},{"pitch":86,"velocity":127,"channel":0},{"pitch":70,"velocity":127,"channel":0},{"pitch":67,"velocity":123,"channel":0},{"pitch":89,"velocity":115,"channel":0},{"pitch":72,"velocity":127,"channel":0},{"pitch":19,"velocity":115,"channel":0},{"pitch":84,"velocity":118,"channel":0},{"pitch":89,"velocity":127,"channel":0},{"pitch":84,"velocity":125,"channel":0},{"pitch":31,"velocity":120,"channel":0},{"pitch":101,"velocity":122,"channel":0},{"pitch":24,"velocity":112,"channel":0},{"pitch":24,"velocity":127,"channel":0},{"pitch":24,"velocity":127,"channel":0},{"pitch":89,"velocity":109,"channel":0},{"pitch":38,"velocity":125,"channel":0},{"pitch":38,"velocity":118,"channel":0},{"pitch":89,"velocity":127,"channel":0},{"pitch":89,"velocity":115,"channel":0},{"pitch":89,"velocity":127,"channel":0},{"pitch":89,"velocity":127,"channel":0},{"pitch":89,"velocity":127,"channel":0},{"pitch":89,"velocity":127,"channel":0},{"pitch":94,"velocity":127,"channel":0},{"pitch":89,"velocity":113,"channel":0},{"pitch":91,"velocity":123,"channel":0},{"pitch":91,"velocity":120,"channel":0},{"pitch":70,"velocity":118,"channel":0},{"pitch":101,"velocity":120,"channel":0},{"pitch":53,"velocity":127,"channel":0},{"pitch":101,"velocity":108,"channel":0},{"pitch":101,"velocity":114,"channel":0},{"pitch":101,"velocity":127,"channel":0},{"pitch":65,"velocity":127,"channel":0},{"pitch":2,"velocity":120,"channel":0},{"pitch":26,"velocity":127,"channel":0},{"pitch":50,"velocity":127,"channel":0},{"pitch":26,"velocity":114,"channel":0},{"pitch":2,"velocity":112,"channel":0},{"pitch":55,"velocity":127,"channel":0},{"pitch":89,"velocity":123,"channel":0},{"pitch":89,"velocity":114,"channel":0},{"pitch":89,"velocity":127,"channel":0},{"pitch":89,"velocity":100,"channel":0},{"pitch":2,"velocity":127,"channel":0},{"pitch":91,"velocity":106,"channel":0},{"pitch":98,"velocity":123,"channel":0},{"pitch":98,"velocity":125,"channel":0},{"pitch":96,"velocity":114,"channel":0},{"pitch":96,"velocity":113,"channel":0},{"pitch":91,"velocity":120,"channel":0},{"pitch":2,"velocity":119,"channel":0},{"pitch":2,"velocity":127,"channel":0},{"pitch":2,"velocity":122,"channel":0},{"pitch":2,"velocity":120,"channel":0},{"pitch":0,"velocity":120,"channel":0},{"pitch":41,"velocity":127,"channel":0},{"pitch":26,"velocity":127,"channel":0},{"pitch":26,"velocity":114,"channel":0},{"pitch":62,"velocity":99,"channel":0},{"pitch":89,"velocity":119,"channel":0},{"pitch":89,"velocity":122,"channel":0},{"pitch":2,"velocity":127,"channel":0},{"pitch":2,"velocity":127,"channel":0},{"pitch":2,"velocity":86,"channel":0},{"pitch":86,"velocity":127,"channel":0},{"pitch":89,"velocity":127,"channel":0}],"stageTiming":{"beat-setup":18.4503,"intent":0.0224,"entropy":0.3311,"phase":0.0625,"climax":0.0321,"envelope":0.0144,"silhouette":0.0214,"rest":0.0275,"complement":0.0017,"tension-cadence":0.1419,"negotiation":0.0239,"probability-adjust":0.0025,"emission":4.2001,"post-beat":0.0203},"iterBudget":{"raw":60,"capped":60,"wasCapped":false}}
{"layer":"L1","beatKey":"0:0:2:10","timeMs":5666.666666666666,"snap":{"key":"D#","mode":"locrian","quality":"minor","scale":["D#","E","F#","G#","A","B","C#"],"chords":[],"tension":0.1745738704668823,"harmonicRhythm":0.3778816361590185,"harmonicMutationCount":4,"excursion":0,"sectionPhase":"opening","phrasePosition":0.2,"phrasePhase":"opening","phraseDynamism":1,"registerBias":1.0534230275096776,"densityMultiplier":1.0351141009169893,"voiceIndependence":0.5,"compositeIntensity":0.44264155834627944,"playProb":0.3297153361631653,"stutterProb":0.22841343138283576,"flicker":1.1387970510370966,"textureMode":"flurry","textureFatigue":0.05833333333333333,"densityBias":0,"crossModBias":1,"emissionRatio":0.8026968794551775,"extraDensityCorrection":1.0394606241089646,"extraCoherenceDensityBias":1,"activeProfile":"restrained","journeyMove":"origin","journeyDistance":0,"journeyKey":"D#","journeyMode":"locrian","binauralFreqOffset":8,"binauralFlip":true,"tick":172500,"updatedAt":1772749012491},"negotiation":{"playProb":0.31607441125553554,"stutterProb":0.24773059292575547,"allowCadence":false,"conflict":0.0010643473569453832,"phaseConfidence":0.275},"trust":{"stutterContagion":{"score":0.19878331069705155,"samples":35,"weight":1.1490874830227886},"cadenceAlignment":{"score":0.19831463391633566,"samples":35,"weight":1.15},"phaseLock":{"score":0.2379921012499949,"samples":35,"weight":1.1784940759374962},"convergence":{"score":0.20292463751001785,"samples":35,"weight":1.1521934781325134},"feedbackOscillator":{"score":0.19834481140857657,"samples":35,"weight":1.1487586085564323},"coherenceMonitor":{"score":0.6442091619068577,"samples":35,"weight":1.4831568714301433},"entropyRegulator":{"score":0.74925,"samples":35,"weight":1.5619375},"restSynchronizer":{"score":0.21198174234059863,"samples":35,"weight":1.158986306755449}},"regime":"initializing","coupling":{},"couplingTargets":{},"axisCouplingTotals":{"density":0,"tension":0,"flicker":0,"entropy":0,"trust":0,"phase":0},"axisEnergyShare":{"shares":{"density":0,"tension":0,"flicker":0,"entropy":0,"trust":0,"phase":0},"axisGini":0},"couplingGates":{"gateD":1,"gateT":1,"gateF":1,"floorDampen":1,"bypassD":0,"bypassT":0,"bypassF":0,"gateMinD":1,"gateMinT":1,"gateMinF":1,"gateEmaD":1,"gateEmaT":1,"gateEmaF":1,"gateBeatCount":3},"couplingHomeostasis":{"totalEnergyEma":0,"energyBudget":3.5,"peakEnergyEma":0,"totalEnergyFloor":8,"floorDampen":1,"redistributionScore":0,"nudgeableRedistributionScore":0,"globalGainMultiplier":1,"giniCoefficient":0,"energyDeltaEma":0,"pairTurbulenceEma":0,"beatCount":0,"invokeCount":3,"tickCount":35,"emptyMatrixBeats":3,"multiplierMin":1,"multiplierMax":1,"multiplierStdDev":0,"floorContactBeats":0,"ceilingContactBeats":35,"avgRecoveryDuration":0},"axisEnergyEquilibrator":{"beatCount":3,"pairAdjustments":0,"axisAdjustments":0,"smoothedShares":{"density":0,"tension":0,"flicker":0,"entropy":0,"trust":0,"phase":0},"perAxisAdj":{},"perPairAdj":{},"lastBaselines":{},"regimeBeats":{},"regimePairAdj":{},"regimeAxisAdj":{},"regimeTightenBudget":{}},"transitionReadiness":{"gap":0,"couplingStrength":0,"coherentThreshold":0,"velocity":0,"velThreshold":0.008,"thresholdScale":0.65,"velocityBlocked":false,"exploringBlock":"velocity","rawRegimeCounts":{},"rawRegimeMaxStreak":{},"effectiveDim":0},"notes":[{"pitch":14,"velocity":127,"channel":0},{"pitch":79,"velocity":121,"channel":0},{"pitch":86,"velocity":127,"channel":0},{"pitch":7,"velocity":127,"channel":0},{"pitch":84,"velocity":120,"channel":0},{"pitch":84,"velocity":119,"channel":0},{"pitch":74,"velocity":127,"channel":0},{"pitch":62,"velocity":108,"channel":0},{"pitch":17,"velocity":127,"channel":0},{"pitch":84,"velocity":116,"channel":0},{"pitch":86,"velocity":111,"channel":0},{"pitch":86,"velocity":127,"channel":0},{"pitch":74,"velocity":127,"channel":0},{"pitch":86,"velocity":113,"channel":0},{"pitch":84,"velocity":127,"channel":0},{"pitch":91,"velocity":127,"channel":0},{"pitch":91,"velocity":127,"channel":0},{"pitch":91,"velocity":119,"channel":0},{"pitch":91,"velocity":127,"channel":0},{"pitch":91,"velocity":127,"channel":0},{"pitch":77,"velocity":127,"channel":0},{"pitch":101,"velocity":127,"channel":0},{"pitch":84,"velocity":127,"channel":0},{"pitch":86,"velocity":127,"channel":0},{"pitch":86,"velocity":125,"channel":0},{"pitch":86,"velocity":119,"channel":0},{"pitch":89,"velocity":115,"channel":0},{"pitch":89,"velocity":104,"channel":0},{"pitch":89,"velocity":127,"channel":0},{"pitch":53,"velocity":127,"channel":0},{"pitch":24,"velocity":108,"channel":0},{"pitch":86,"velocity":114,"channel":0},{"pitch":86,"velocity":119,"channel":0},{"pitch":50,"velocity":105,"channel":0},{"pitch":31,"velocity":118,"channel":0},{"pitch":58,"velocity":127,"channel":0},{"pitch":84,"velocity":105,"channel":0},{"pitch":86,"velocity":110,"channel":0},{"pitch":29,"velocity":127,"channel":0},{"pitch":77,"velocity":118,"channel":0},{"pitch":98,"velocity":120,"channel":0},{"pitch":70,"velocity":124,"channel":0},{"pitch":26,"velocity":118,"channel":0},{"pitch":48,"velocity":127,"channel":0},{"pitch":72,"velocity":105,"channel":0},{"pitch":84,"velocity":127,"channel":0},{"pitch":19,"velocity":114,"channel":0},{"pitch":19,"velocity":127,"channel":0},{"pitch":50,"velocity":116,"channel":0},{"pitch":84,"velocity":127,"channel":0},{"pitch":86,"velocity":127,"channel":0},{"pitch":86,"velocity":121,"channel":0},{"pitch":86,"velocity":106,"channel":0},{"pitch":89,"velocity":123,"channel":0},{"pitch":84,"velocity":121,"channel":0},{"pitch":84,"velocity":127,"channel":0},{"pitch":84,"velocity":113,"channel":0},{"pitch":84,"velocity":116,"channel":0},{"pitch":86,"velocity":127,"channel":0},{"pitch":89,"velocity":127,"channel":0},{"pitch":89,"velocity":105,"channel":0},{"pitch":89,"velocity":109,"channel":0},{"pitch":89,"velocity":127,"channel":0},{"pitch":89,"velocity":114,"channel":0},{"pitch":24,"velocity":113,"channel":0},{"pitch":89,"velocity":127,"channel":0},{"pitch":62,"velocity":119,"channel":0},{"pitch":14,"velocity":125,"channel":0},{"pitch":67,"velocity":123,"channel":0},{"pitch":77,"velocity":109,"channel":0},{"pitch":79,"velocity":127,"channel":0},{"pitch":89,"velocity":127,"channel":0},{"pitch":22,"velocity":127,"channel":0},{"pitch":12,"velocity":127,"channel":0},{"pitch":55,"velocity":127,"channel":0},{"pitch":14,"velocity":106,"channel":0},{"pitch":31,"velocity":124,"channel":0},{"pitch":103,"velocity":118,"channel":0},{"pitch":77,"velocity":127,"channel":0},{"pitch":77,"velocity":105,"channel":0},{"pitch":89,"velocity":116,"channel":0},{"pitch":89,"velocity":116,"channel":0},{"pitch":89,"velocity":127,"channel":0},{"pitch":84,"velocity":118,"channel":0},{"pitch":84,"velocity":114,"channel":0},{"pitch":84,"velocity":123,"channel":0},{"pitch":86,"velocity":127,"channel":0},{"pitch":86,"velocity":127,"channel":0},{"pitch":74,"velocity":106,"channel":0},{"pitch":48,"velocity":119,"channel":0},{"pitch":7,"velocity":118,"channel":0},{"pitch":84,"velocity":102,"channel":0},{"pitch":41,"velocity":124,"channel":0},{"pitch":38,"velocity":127,"channel":0},{"pitch":84,"velocity":127,"channel":0},{"pitch":84,"velocity":125,"channel":0},{"pitch":31,"velocity":119,"channel":0},{"pitch":34,"velocity":120,"channel":0},{"pitch":58,"velocity":127,"channel":0},{"pitch":50,"velocity":127,"channel":0},{"pitch":34,"velocity":115,"channel":0},{"pitch":24,"velocity":127,"channel":0},{"pitch":29,"velocity":127,"channel":0},{"pitch":34,"velocity":127,"channel":0},{"pitch":84,"velocity":118,"channel":0},{"pitch":34,"velocity":106,"channel":0},{"pitch":34,"velocity":115,"channel":0},{"pitch":34,"velocity":115,"channel":0},{"pitch":29,"velocity":127,"channel":0},{"pitch":84,"velocity":127,"channel":0},{"pitch":31,"velocity":102,"channel":0},{"pitch":48,"velocity":125,"channel":0},{"pitch":84,"velocity":116,"channel":0},{"pitch":24,"velocity":127,"channel":0},{"pitch":84,"velocity":127,"channel":0},{"pitch":84,"velocity":114,"channel":0},{"pitch":84,"velocity":127,"channel":0},{"pitch":84,"velocity":105,"channel":0},{"pitch":86,"velocity":106,"channel":0},{"pitch":89,"velocity":127,"channel":0},{"pitch":82,"velocity":127,"channel":0},{"pitch":72,"velocity":127,"channel":0},{"pitch":60,"velocity":118,"channel":0},{"pitch":29,"velocity":120,"channel":0},{"pitch":84,"velocity":109,"channel":0},{"pitch":86,"velocity":115,"channel":0},{"pitch":84,"velocity":116,"channel":0},{"pitch":89,"velocity":120,"channel":0}],"stageTiming":{"beat-setup":19.3452,"intent":0.0109,"entropy":0.1634,"phase":0.0213,"climax":0.0214,"envelope":0.0121,"silhouette":0.017,"rest":0.0246,"complement":0.0018,"tension-cadence":0.1213,"negotiation":0.0203,"probability-adjust":0.0021,"emission":3.8261,"post-beat":0.0218},"iterBudget":{"raw":168,"capped":147,"wasCapped":true}}
{"layer":"L1","beatKey":"0:0:2:11","timeMs":5833.333333333333,"snap":{"key":"D#","mode":"locrian","quality":"minor","scale":["D#","E","F#","G#","A","B","C#"],"chords":[],"tension":0.1745738704668823,"harmonicRhythm":0.3778816361590185,"harmonicMutationCount":4,"excursion":0,"sectionPhase":"opening","phrasePosition":0.2,"phrasePhase":"opening","phraseDynamism":1,"registerBias":1.0534230275096776,"densityMultiplier":1.0351141009169893,"voiceIndependence":0.5,"compositeIntensity":0.42146820689005465,"playProb":0.3297153361631653,"stutterProb":0.22841343138283576,"flicker":1.1387970510370966,"textureMode":"flurry","textureFatigue":0.05833333333333333,"densityBias":0,"crossModBias":1,"emissionRatio":0.8026968794551775,"extraDensityCorrection":1.0394606241089646,"extraCoherenceDensityBias":1,"activeProfile":"restrained","journeyMove":"origin","journeyDistance":0,"journeyKey":"D#","journeyMode":"locrian","binauralFreqOffset":8,"binauralFlip":true,"tick":172500,"updatedAt":1772749016068},"negotiation":{"playProb":0.31715202347439403,"stutterProb":0.2489156664643268,"allowCadence":false,"conflict":0.0009125169772112862,"phaseConfidence":0.275},"trust":{"stutterContagion":{"score":0.20367887361668469,"samples":36,"weight":1.1527591552125136},"cadenceAlignment":{"score":0.20367887361668469,"samples":36,"weight":1.1527591552125136},"phaseLock":{"score":0.2385790732338704,"samples":36,"weight":1.1789343049254029},"convergence":{"score":0.20367887361668469,"samples":36,"weight":1.1527591552125136},"feedbackOscillator":{"score":0.20367887361668469,"samples":36,"weight":1.1527591552125136},"coherenceMonitor":{"score":0.6450920927270583,"samples":36,"weight":1.4838190695452937},"entropyRegulator":{"score":0.74925,"samples":36,"weight":1.5619375},"restSynchronizer":{"score":0.29049278453843225,"samples":36,"weight":1.2178695884038242}},"regime":"initializing","coupling":{},"couplingTargets":{},"axisCouplingTotals":{"density":0,"tension":0,"flicker":0,"entropy":0,"trust":0,"phase":0},"axisEnergyShare":{"shares":{"density":0,"tension":0,"flicker":0,"entropy":0,"trust":0,"phase":0},"axisGini":0},"couplingGates":{"gateD":1,"gateT":1,"gateF":1,"floorDampen":1,"bypassD":0,"bypassT":0,"bypassF":0,"gateMinD":1,"gateMinT":1,"gateMinF":1,"gateEmaD":1,"gateEmaT":1,"gateEmaF":1,"gateBeatCount":3},"couplingHomeostasis":{"totalEnergyEma":0,"energyBudget":3.5,"peakEnergyEma":0,"totalEnergyFloor":8,"floorDampen":1,"redistributionScore":0,"nudgeableRedistributionScore":0,"globalGainMultiplier":1,"giniCoefficient":0,"energyDeltaEma":0,"pairTurbulenceEma":0,"beatCount":0,"invokeCount":3,"tickCount":36,"emptyMatrixBeats":3,"multiplierMin":1,"multiplierMax":1,"multiplierStdDev":0,"floorContactBeats":0,"ceilingContactBeats":36,"avgRecoveryDuration":0},"axisEnergyEquilibrator":{"beatCount":3,"pairAdjustments":0,"axisAdjustments":0,"smoothedShares":{"density":0,"tension":0,"flicker":0,"entropy":0,"trust":0,"phase":0},"perAxisAdj":{},"perPairAdj":{},"lastBaselines":{},"regimeBeats":{},"regimePairAdj":{},"regimeAxisAdj":{},"regimeTightenBudget":{}},"transitionReadiness":{"gap":0,"couplingStrength":0,"coherentThreshold":0,"velocity":0,"velThreshold":0.008,"thresholdScale":0.65,"velocityBlocked":false,"exploringBlock":"velocity","rawRegimeCounts":{},"rawRegimeMaxStreak":{},"effectiveDim":0},"notes":[{"pitch":84,"velocity":125,"channel":0},{"pitch":67,"velocity":107,"channel":0},{"pitch":22,"velocity":119,"channel":0},{"pitch":22,"velocity":127,"channel":0},{"pitch":74,"velocity":107,"channel":0},{"pitch":55,"velocity":127,"channel":0},{"pitch":31,"velocity":127,"channel":0},{"pitch":103,"velocity":127,"channel":0},{"pitch":67,"velocity":117,"channel":0},{"pitch":55,"velocity":127,"channel":0},{"pitch":101,"velocity":127,"channel":0},{"pitch":67,"velocity":121,"channel":0},{"pitch":67,"velocity":127,"channel":0},{"pitch":12,"velocity":127,"channel":0},{"pitch":67,"velocity":127,"channel":0},{"pitch":14,"velocity":127,"channel":0},{"pitch":84,"velocity":92,"channel":0},{"pitch":84,"velocity":127,"channel":0},{"pitch":2,"velocity":127,"channel":0},{"pitch":86,"velocity":110,"channel":0},{"pitch":82,"velocity":127,"channel":0},{"pitch":94,"velocity":120,"channel":0},{"pitch":5,"velocity":122,"channel":0},{"pitch":29,"velocity":121,"channel":0},{"pitch":94,"velocity":119,"channel":0},{"pitch":86,"velocity":127,"channel":0},{"pitch":24,"velocity":110,"channel":0},{"pitch":89,"velocity":127,"channel":0},{"pitch":5,"velocity":90,"channel":0},{"pitch":22,"velocity":127,"channel":0},{"pitch":7,"velocity":126,"channel":0},{"pitch":89,"velocity":126,"channel":0},{"pitch":10,"velocity":127,"channel":0},{"pitch":62,"velocity":127,"channel":0},{"pitch":22,"velocity":109,"channel":0},{"pitch":12,"velocity":115,"channel":0},{"pitch":48,"velocity":127,"channel":0},{"pitch":2,"velocity":109,"channel":0},{"pitch":0,"velocity":115,"channel":0},{"pitch":14,"velocity":124,"channel":0},{"pitch":55,"velocity":125,"channel":0},{"pitch":86,"velocity":127,"channel":0},{"pitch":12,"velocity":127,"channel":0},{"pitch":55,"velocity":125,"channel":0},{"pitch":86,"velocity":127,"channel":0},{"pitch":12,"velocity":125,"channel":0},{"pitch":86,"velocity":120,"channel":0},{"pitch":86,"velocity":127,"channel":0},{"pitch":12,"velocity":127,"channel":0},{"pitch":7,"velocity":127,"channel":0},{"pitch":7,"velocity":127,"channel":0},{"pitch":12,"velocity":104,"channel":0},{"pitch":5,"velocity":122,"channel":0},{"pitch":0,"velocity":111,"channel":0},{"pitch":12,"velocity":127,"channel":0},{"pitch":82,"velocity":120,"channel":0},{"pitch":5,"velocity":119,"channel":0},{"pitch":2,"velocity":119,"channel":0},{"pitch":26,"velocity":127,"channel":0},{"pitch":31,"velocity":105,"channel":0},{"pitch":84,"velocity":112,"channel":0},{"pitch":89,"velocity":119,"channel":0},{"pitch":55,"velocity":127,"channel":0},{"pitch":86,"velocity":127,"channel":0},{"pitch":55,"velocity":127,"channel":0},{"pitch":34,"velocity":127,"channel":0},{"pitch":34,"velocity":112,"channel":0},{"pitch":31,"velocity":127,"channel":0},{"pitch":72,"velocity":120,"channel":0},{"pitch":36,"velocity":127,"channel":0},{"pitch":31,"velocity":127,"channel":0},{"pitch":26,"velocity":120,"channel":0},{"pitch":26,"velocity":107,"channel":0},{"pitch":79,"velocity":127,"channel":0},{"pitch":31,"velocity":115,"channel":0},{"pitch":31,"velocity":105,"channel":0},{"pitch":2,"velocity":127,"channel":0},{"pitch":17,"velocity":112,"channel":0},{"pitch":17,"velocity":127,"channel":0},{"pitch":12,"velocity":127,"channel":0},{"pitch":53,"velocity":116,"channel":0},{"pitch":36,"velocity":115,"channel":0},{"pitch":14,"velocity":127,"channel":0},{"pitch":74,"velocity":124,"channel":0},{"pitch":14,"velocity":127,"channel":0},{"pitch":12,"velocity":124,"channel":0},{"pitch":10,"velocity":116,"channel":0},{"pitch":48,"velocity":114,"channel":0},{"pitch":14,"velocity":127,"channel":0},{"pitch":67,"velocity":126,"channel":0},{"pitch":14,"velocity":124,"channel":0},{"pitch":5,"velocity":127,"channel":0},{"pitch":5,"velocity":127,"channel":0},{"pitch":24,"velocity":107,"channel":0},{"pitch":17,"velocity":120,"channel":0},{"pitch":19,"velocity":127,"channel":0},{"pitch":2,"velocity":127,"channel":0},{"pitch":0,"velocity":115,"channel":0},{"pitch":7,"velocity":111,"channel":0},{"pitch":7,"velocity":127,"channel":0},{"pitch":5,"velocity":105,"channel":0},{"pitch":36,"velocity":119,"channel":0},{"pitch":7,"velocity":127,"channel":0},{"pitch":12,"velocity":121,"channel":0},{"pitch":12,"velocity":117,"channel":0},{"pitch":17,"velocity":127,"channel":0},{"pitch":5,"velocity":125,"channel":0},{"pitch":17,"velocity":127,"channel":0},{"pitch":17,"velocity":109,"channel":0},{"pitch":5,"velocity":105,"channel":0},{"pitch":17,"velocity":127,"channel":0},{"pitch":17,"velocity":125,"channel":0},{"pitch":17,"velocity":114,"channel":0},{"pitch":26,"velocity":127,"channel":0},{"pitch":10,"velocity":127,"channel":0},{"pitch":58,"velocity":124,"channel":0},{"pitch":86,"velocity":125,"channel":0},{"pitch":55,"velocity":127,"channel":0},{"pitch":36,"velocity":124,"channel":0},{"pitch":14,"velocity":107,"channel":0},{"pitch":89,"velocity":124,"channel":0},{"pitch":84,"velocity":126,"channel":0},{"pitch":50,"velocity":119,"channel":0},{"pitch":91,"velocity":111,"channel":0},{"pitch":91,"velocity":125,"channel":0},{"pitch":103,"velocity":110,"channel":0},{"pitch":14,"velocity":117,"channel":0},{"pitch":14,"velocity":126,"channel":0},{"pitch":77,"velocity":110,"channel":0},{"pitch":24,"velocity":125,"channel":0},{"pitch":19,"velocity":127,"channel":0}],"stageTiming":{"beat-setup":13.8177,"intent":0.0113,"entropy":0.159,"phase":0.0205,"climax":0.0222,"envelope":0.0119,"silhouette":0.014,"rest":0.0331,"complement":0.002,"tension-cadence":0.1198,"negotiation":0.026,"probability-adjust":0.0027,"emission":1.7591,"post-beat":0.0208},"iterBudget":{"raw":48,"capped":48,"wasCapped":false}}
{"layer":"L1","beatKey":"0:0:3:0","timeMs":6000,"snap":{"key":"D#","mode":"locrian","quality":"minor","scale":["D#","E","F#","G#","A","B","C#"],"chords":[],"tension":0.21891727944621148,"harmonicRhythm":0.4096324107576737,"harmonicMutationCount":5,"excursion":0,"sectionPhase":"opening","phrasePosition":0.4,"phrasePhase":"development","phraseDynamism":1,"registerBias":5.412678195541842,"densityMultiplier":1.1804226065180614,"voiceIndependence":0.5,"compositeIntensity":0.3627757237558598,"playProb":0.32622862748591325,"stutterProb":0.22575954576039206,"flicker":1.1495766653653232,"textureMode":"flurry","textureFatigue":0,"densityBias":0,"crossModBias":1,"emissionRatio":0.012019727345931713,"extraDensityCorrection":1.1975960545308137,"extraCoherenceDensityBias":1,"activeProfile":"restrained","journeyMove":"origin","journeyDistance":0,"journeyKey":"D#","journeyMode":"locrian","binauralFreqOffset":8,"binauralFlip":true,"tick":262500,"updatedAt":1772749017984},"negotiation":{"playProb":0.31420908632606254,"stutterProb":0.24690487297703095,"allowCadence":false,"conflict":0,"phaseConfidence":0.275},"trust":{"stutterContagion":{"score":0.2046904339033801,"samples":37,"weight":1.1535178254275351},"cadenceAlignment":{"score":0.20465563571002648,"samples":37,"weight":1.1534917267825198},"phaseLock":{"score":0.2391068197445729,"samples":37,"weight":1.1793301148084296},"convergence":{"score":0.205126784703512,"samples":37,"weight":1.1538450885276341},"feedbackOscillator":{"score":0.20487112517361114,"samples":37,"weight":1.1536533438802083},"coherenceMonitor":{"score":0.6493685952476083,"samples":37,"weight":1.4870264464357061},"entropyRegulator":{"score":0.74925,"samples":37,"weight":1.5619375},"restSynchronizer":{"score":0.26917406257850446,"samples":37,"weight":1.2018805469338782}},"regime":"initializing","coupling":{},"couplingTargets":{},"axisCouplingTotals":{"density":0,"tension":0,"flicker":0,"entropy":0,"trust":0,"phase":0},"axisEnergyShare":{"shares":{"density":0,"tension":0,"flicker":0,"entropy":0,"trust":0,"phase":0},"axisGini":0},"couplingGates":{"gateD":1,"gateT":1,"gateF":1,"floorDampen":1,"bypassD":0,"bypassT":0,"bypassF":0,"gateMinD":1,"gateMinT":1,"gateMinF":1,"gateEmaD":1,"gateEmaT":1,"gateEmaF":1,"gateBeatCount":4},"couplingHomeostasis":{"totalEnergyEma":0,"energyBudget":3.5,"peakEnergyEma":0,"totalEnergyFloor":8,"floorDampen":1,"redistributionScore":0,"nudgeableRedistributionScore":0,"globalGainMultiplier":1,"giniCoefficient":0,"energyDeltaEma":0,"pairTurbulenceEma":0,"beatCount":0,"invokeCount":4,"tickCount":37,"emptyMatrixBeats":4,"multiplierMin":1,"multiplierMax":1,"multiplierStdDev":0,"floorContactBeats":0,"ceilingContactBeats":37,"avgRecoveryDuration":0},"axisEnergyEquilibrator":{"beatCount":4,"pairAdjustments":0,"axisAdjustments":0,"smoothedShares":{"density":0,"tension":0,"flicker":0,"entropy":0,"trust":0,"phase":0},"perAxisAdj":{},"perPairAdj":{},"lastBaselines":{},"regimeBeats":{},"regimePairAdj":{},"regimeAxisAdj":{},"regimeTightenBudget":{}},"transitionReadiness":{"gap":0,"couplingStrength":0,"coherentThreshold":0,"velocity":0,"velThreshold":0.008,"thresholdScale":0.65,"velocityBlocked":false,"exploringBlock":"velocity","rawRegimeCounts":{},"rawRegimeMaxStreak":{},"effectiveDim":0},"notes":[{"pitch":55,"velocity":122,"channel":0},{"pitch":89,"velocity":123,"channel":0},{"pitch":94,"velocity":113,"channel":0},{"pitch":89,"velocity":115,"channel":0},{"pitch":96,"velocity":123,"channel":0},{"pitch":17,"velocity":127,"channel":0},{"pitch":13,"velocity":127,"channel":0}],"stageTiming":{"beat-setup":21.9075,"intent":0.0112,"entropy":0.1534,"phase":0.02,"climax":0.0233,"envelope":0.0119,"silhouette":0.0556,"rest":0.0378,"complement":0.0027,"tension-cadence":0.2993,"negotiation":0.0406,"probability-adjust":0.0064,"emission":3.6176,"post-beat":0.0207},"iterBudget":{"raw":126,"capped":126,"wasCapped":false}}
{"layer":"L1","beatKey":"0:0:3:1","timeMs":6166.666666666667,"snap":{"key":"D#","mode":"locrian","quality":"minor","scale":["D#","E","F#","G#","A","B","C#"],"chords":[],"tension":0.21891727944621148,"harmonicRhythm":0.4096324107576737,"harmonicMutationCount":5,"excursion":0,"sectionPhase":"opening","phrasePosition":0.4,"phrasePhase":"development","phraseDynamism":1,"registerBias":5.412678195541842,"densityMultiplier":1.1804226065180614,"voiceIndependence":0.5,"compositeIntensity":0.3812403578136457,"playProb":0.32622862748591325,"stutterProb":0.22575954576039206,"flicker":1.1495766653653232,"textureMode":"chordBurst","textureFatigue":0.14166666666666666,"densityBias":0,"crossModBias":1,"emissionRatio":0.012019727345931713,"extraDensityCorrection":1.1975960545308137,"extraCoherenceDensityBias":1,"activeProfile":"restrained","journeyMove":"origin","journeyDistance":0,"journeyKey":"D#","journeyMode":"locrian","binauralFreqOffset":8,"binauralFlip":false,"tick":262500,"updatedAt":1772749019922},"negotiation":{"playProb":0.318051071578764,"stutterProb":0.24996907858632517,"allowCadence":false,"conflict":0.000026098645015348865,"phaseConfidence":0.275},"trust":{"stutterContagion":{"score":0.20358296415073782,"samples":38,"weight":1.1526872231130534},"cadenceAlignment":{"score":0.20320228306452148,"samples":38,"weight":1.1524017122983912},"phaseLock":{"score":0.23958131663234553,"samples":38,"weight":1.1796859874742591},"convergence":{"score":0.20440949212692763,"samples":38,"weight":1.1533071190951958},"feedbackOscillator":{"score":0.203481641233981,"samples":38,"weight":1.1526112309254857},"coherenceMonitor":{"score":0.6518269080423642,"samples":38,"weight":1.488870181031773},"entropyRegulator":{"score":0.74925,"samples":38,"weight":1.5619375},"restSynchronizer":{"score":0.25000639966433336,"samples":38,"weight":1.18750479974825}},"regime":"initializing","coupling":{},"couplingTargets":{},"axisCouplingTotals":{"density":0,"tension":0,"flicker":0,"entropy":0,"trust":0,"phase":0},"axisEnergyShare":{"shares":{"density":0,"tension":0,"flicker":0,"entropy":0,"trust":0,"phase":0},"axisGini":0},"couplingGates":{"gateD":1,"gateT":1,"gateF":1,"floorDampen":1,"bypassD":0,"bypassT":0,"bypassF":0,"gateMinD":1,"gateMinT":1,"gateMinF":1,"gateEmaD":1,"gateEmaT":1,"gateEmaF":1,"gateBeatCount":4},"couplingHomeostasis":{"totalEnergyEma":0,"energyBudget":3.5,"peakEnergyEma":0,"totalEnergyFloor":8,"floorDampen":1,"redistributionScore":0,"nudgeableRedistributionScore":0,"globalGainMultiplier":1,"giniCoefficient":0,"energyDeltaEma":0,"pairTurbulenceEma":0,"beatCount":0,"invokeCount":4,"tickCount":38,"emptyMatrixBeats":4,"multiplierMin":1,"multiplierMax":1,"multiplierStdDev":0,"floorContactBeats":0,"ceilingContactBeats":38,"avgRecoveryDuration":0},"axisEnergyEquilibrator":{"beatCount":4,"pairAdjustments":0,"axisAdjustments":0,"smoothedShares":{"density":0,"tension":0,"flicker":0,"entropy":0,"trust":0,"phase":0},"perAxisAdj":{},"perPairAdj":{},"lastBaselines":{},"regimeBeats":{},"regimePairAdj":{},"regimeAxisAdj":{},"regimeTightenBudget":{}},"transitionReadiness":{"gap":0,"couplingStrength":0,"coherentThreshold":0,"velocity":0,"velThreshold":0.008,"thresholdScale":0.65,"velocityBlocked":false,"exploringBlock":"velocity","rawRegimeCounts":{},"rawRegimeMaxStreak":{},"effectiveDim":0},"notes":[{"pitch":93,"velocity":103,"channel":0},{"pitch":83,"velocity":123,"channel":0},{"pitch":83,"velocity":113,"channel":0},{"pitch":33,"velocity":115,"channel":0},{"pitch":85,"velocity":122,"channel":0},{"pitch":85,"velocity":120,"channel":0},{"pitch":9,"velocity":114,"channel":0},{"pitch":13,"velocity":110,"channel":0},{"pitch":25,"velocity":120,"channel":0},{"pitch":9,"velocity":118,"channel":0},{"pitch":85,"velocity":110,"channel":0},{"pitch":13,"velocity":122,"channel":0},{"pitch":13,"velocity":98,"channel":0},{"pitch":73,"velocity":108,"channel":0},{"pitch":13,"velocity":103,"channel":0},{"pitch":11,"velocity":114,"channel":0},{"pitch":9,"velocity":118,"channel":0},{"pitch":59,"velocity":109,"channel":0},{"pitch":59,"velocity":100,"channel":0},{"pitch":25,"velocity":104,"channel":0},{"pitch":59,"velocity":115,"channel":0},{"pitch":9,"velocity":127,"channel":0},{"pitch":85,"velocity":103,"channel":0},{"pitch":1,"velocity":127,"channel":0},{"pitch":9,"velocity":125,"channel":0},{"pitch":95,"velocity":127,"channel":0},{"pitch":95,"velocity":98,"channel":0},{"pitch":85,"velocity":117,"channel":0},{"pitch":13,"velocity":113,"channel":0},{"pitch":13,"velocity":125,"channel":0},{"pitch":13,"velocity":117,"channel":0},{"pitch":59,"velocity":109,"channel":0},{"pitch":83,"velocity":120,"channel":0},{"pitch":83,"velocity":122,"channel":0},{"pitch":9,"velocity":108,"channel":0},{"pitch":85,"velocity":114,"channel":0},{"pitch":85,"velocity":114,"channel":0},{"pitch":85,"velocity":112,"channel":0},{"pitch":83,"velocity":127,"channel":0},{"pitch":83,"velocity":123,"channel":0},{"pitch":105,"velocity":119,"channel":0},{"pitch":105,"velocity":110,"channel":0},{"pitch":73,"velocity":117,"channel":0},{"pitch":107,"velocity":120,"channel":0},{"pitch":13,"velocity":115,"channel":0},{"pitch":13,"velocity":102,"channel":0},{"pitch":13,"velocity":109,"channel":0},{"pitch":13,"velocity":109,"channel":0},{"pitch":13,"velocity":127,"channel":0},{"pitch":13,"velocity":118,"channel":0},{"pitch":13,"velocity":114,"channel":0},{"pitch":83,"velocity":125,"channel":0},{"pitch":85,"velocity":98,"channel":0},{"pitch":83,"velocity":119,"channel":0},{"pitch":95,"velocity":103,"channel":0},{"pitch":85,"velocity":89,"channel":0},{"pitch":25,"velocity":125,"channel":0},{"pitch":85,"velocity":113,"channel":0},{"pitch":85,"velocity":119,"channel":0},{"pitch":85,"velocity":112,"channel":0},{"pitch":25,"velocity":125,"channel":0},{"pitch":107,"velocity":110,"channel":0},{"pitch":9,"velocity":114,"channel":0},{"pitch":107,"velocity":105,"channel":0},{"pitch":49,"velocity":119,"channel":0},{"pitch":13,"velocity":113,"channel":0},{"pitch":13,"velocity":118,"channel":0},{"pitch":13,"velocity":114,"channel":0},{"pitch":13,"velocity":120,"channel":0},{"pitch":9,"velocity":117,"channel":0},{"pitch":85,"velocity":93,"channel":0},{"pitch":13,"velocity":105,"channel":0},{"pitch":13,"velocity":120,"channel":0},{"pitch":13,"velocity":125,"channel":0},{"pitch":11,"velocity":107,"channel":0},{"pitch":9,"velocity":117,"channel":0}],"stageTiming":{"beat-setup":15.1311,"intent":0.0243,"entropy":0.2043,"phase":0.0239,"climax":0.0253,"envelope":0.0135,"silhouette":0.0216,"rest":0.0189,"complement":0.0019,"tension-cadence":0.1272,"negotiation":0.0219,"probability-adjust":0.0025,"emission":5.3813,"post-beat":0.0234},"iterBudget":{"raw":84,"capped":84,"wasCapped":false}}
{"layer":"L1","beatKey":"0:0:3:2","timeMs":6333.333333333333,"snap":{"key":"D#","mode":"locrian","quality":"minor","scale":["D#","E","F#","G#","A","B","C#"],"chords":[],"tension":0.21891727944621148,"harmonicRhythm":0.4096324107576737,"harmonicMutationCount":5,"excursion":0,"sectionPhase":"opening","phrasePosition":0.4,"phrasePhase":"development","phraseDynamism":1,"registerBias":5.412678195541842,"densityMultiplier":1.1804226065180614,"voiceIndependence":0.5,"compositeIntensity":0.383154897480179,"playProb":0.32622862748591325,"stutterProb":0.22575954576039206,"flicker":1.1495766653653232,"textureMode":"flurry","textureFatigue":0.11666666666666665,"densityBias":0,"crossModBias":1,"emissionRatio":0.012019727345931713,"extraDensityCorrection":1.1975960545308137,"extraCoherenceDensityBias":1,"activeProfile":"restrained","journeyMove":"origin","journeyDistance":0,"journeyKey":"D#","journeyMode":"locrian","binauralFreqOffset":8,"binauralFlip":false,"tick":262500,"updatedAt":1772749023826},"negotiation":{"playProb":0.31958773067007434,"stutterProb":0.25147359307971384,"allowCadence":false,"conflict":0.0002855108146622154,"phaseConfidence":0.275},"trust":{"stutterContagion":{"score":0.20212006705876479,"samples":39,"weight":1.1515900502940735},"cadenceAlignment":{"score":0.20212006705876479,"samples":39,"weight":1.1515900502940735},"phaseLock":{"score":0.24000793678414187,"samples":39,"weight":1.1800059525881064},"convergence":{"score":0.20376457437132064,"samples":39,"weight":1.1528234307784904},"feedbackOscillator":{"score":0.20212006705876479,"samples":39,"weight":1.1515900502940735},"coherenceMonitor":{"score":0.660994892460115,"samples":39,"weight":1.4957461693450862},"entropyRegulator":{"score":0.74925,"samples":39,"weight":1.5619375},"restSynchronizer":{"score":0.23277275393820213,"samples":39,"weight":1.1745795654536515}},"regime":"initializing","coupling":{},"couplingTargets":{},"axisCouplingTotals":{"density":0,"tension":0,"flicker":0,"entropy":0,"trust":0,"phase":0},"axisEnergyShare":{"shares":{"density":0,"tension":0,"flicker":0,"entropy":0,"trust":0,"phase":0},"axisGini":0},"couplingGates":{"gateD":1,"gateT":1,"gateF":1,"floorDampen":1,"bypassD":0,"bypassT":0,"bypassF":0,"gateMinD":1,"gateMinT":1,"gateMinF":1,"gateEmaD":1,"gateEmaT":1,"gateEmaF":1,"gateBeatCount":4},"couplingHomeostasis":{"totalEnergyEma":0,"energyBudget":3.5,"peakEnergyEma":0,"totalEnergyFloor":8,"floorDampen":1,"redistributionScore":0,"nudgeableRedistributionScore":0,"globalGainMultiplier":1,"giniCoefficient":0,"energyDeltaEma":0,"pairTurbulenceEma":0,"beatCount":0,"invokeCount":4,"tickCount":39,"emptyMatrixBeats":4,"multiplierMin":1,"multiplierMax":1,"multiplierStdDev":0,"floorContactBeats":0,"ceilingContactBeats":39,"avgRecoveryDuration":0},"axisEnergyEquilibrator":{"beatCount":4,"pairAdjustments":0,"axisAdjustments":0,"smoothedShares":{"density":0,"tension":0,"flicker":0,"entropy":0,"trust":0,"phase":0},"perAxisAdj":{},"perPairAdj":{},"lastBaselines":{},"regimeBeats":{},"regimePairAdj":{},"regimeAxisAdj":{},"regimeTightenBudget":{}},"transitionReadiness":{"gap":0,"couplingStrength":0,"coherentThreshold":0,"velocity":0,"velThreshold":0.008,"thresholdScale":0.65,"velocityBlocked":false,"exploringBlock":"velocity","rawRegimeCounts":{},"rawRegimeMaxStreak":{},"effectiveDim":0},"notes":[{"pitch":21,"velocity":102,"channel":0},{"pitch":21,"velocity":119,"channel":0},{"pitch":21,"velocity":127,"channel":0},{"pitch":21,"velocity":112,"channel":0},{"pitch":83,"velocity":115,"channel":0},{"pitch":57,"velocity":104,"channel":0},{"pitch":21,"velocity":105,"channel":0},{"pitch":93,"velocity":120,"channel":0},{"pitch":93,"velocity":115,"channel":0},{"pitch":93,"velocity":100,"channel":0},{"pitch":85,"velocity":106,"channel":0},{"pitch":85,"velocity":127,"channel":0},{"pitch":21,"velocity":116,"channel":0},{"pitch":21,"velocity":107,"channel":0},{"pitch":21,"velocity":105,"channel":0},{"pitch":11,"velocity":100,"channel":0},{"pitch":33,"velocity":127,"channel":0},{"pitch":33,"velocity":115,"channel":0},{"pitch":35,"velocity":95,"channel":0},{"pitch":93,"velocity":121,"channel":0},{"pitch":23,"velocity":94,"channel":0},{"pitch":93,"velocity":114,"channel":0},{"pitch":1,"velocity":111,"channel":0},{"pitch":1,"velocity":115,"channel":0},{"pitch":85,"velocity":127,"channel":0},{"pitch":73,"velocity":92,"channel":0},{"pitch":61,"velocity":104,"channel":0},{"pitch":85,"velocity":120,"channel":0},{"pitch":85,"velocity":107,"channel":0},{"pitch":21,"velocity":115,"channel":0},{"pitch":21,"velocity":111,"channel":0},{"pitch":11,"velocity":106,"channel":0},{"pitch":59,"velocity":121,"channel":0},{"pitch":81,"velocity":116,"channel":0},{"pitch":23,"velocity":109,"channel":0},{"pitch":93,"velocity":96,"channel":0},{"pitch":85,"velocity":122,"channel":0},{"pitch":85,"velocity":111,"channel":0},{"pitch":83,"velocity":97,"channel":0},{"pitch":85,"velocity":110,"channel":0},{"pitch":85,"velocity":110,"channel":0},{"pitch":85,"velocity":120,"channel":0},{"pitch":85,"velocity":116,"channel":0},{"pitch":85,"velocity":100,"channel":0},{"pitch":9,"velocity":107,"channel":0},{"pitch":95,"velocity":112,"channel":0},{"pitch":95,"velocity":116,"channel":0},{"pitch":59,"velocity":117,"channel":0},{"pitch":9,"velocity":127,"channel":0},{"pitch":11,"velocity":116,"channel":0},{"pitch":21,"velocity":119,"channel":0},{"pitch":13,"velocity":114,"channel":0},{"pitch":93,"velocity":102,"channel":0},{"pitch":81,"velocity":107,"channel":0},{"pitch":83,"velocity":114,"channel":0},{"pitch":21,"velocity":115,"channel":0},{"pitch":21,"velocity":120,"channel":0},{"pitch":33,"velocity":111,"channel":0},{"pitch":21,"velocity":121,"channel":0},{"pitch":21,"velocity":116,"channel":0},{"pitch":21,"velocity":99,"channel":0},{"pitch":21,"velocity":125,"channel":0},{"pitch":21,"velocity":107,"channel":0},{"pitch":21,"velocity":114,"channel":0},{"pitch":9,"velocity":114,"channel":0},{"pitch":83,"velocity":125,"channel":0},{"pitch":83,"velocity":121,"channel":0},{"pitch":83,"velocity":100,"channel":0},{"pitch":25,"velocity":101,"channel":0},{"pitch":83,"velocity":97,"channel":0},{"pitch":61,"velocity":117,"channel":0},{"pitch":35,"velocity":122,"channel":0},{"pitch":59,"velocity":105,"channel":0},{"pitch":85,"velocity":127,"channel":0},{"pitch":85,"velocity":91,"channel":0},{"pitch":93,"velocity":114,"channel":0},{"pitch":105,"velocity":95,"channel":0},{"pitch":83,"velocity":96,"channel":0},{"pitch":93,"velocity":116,"channel":0},{"pitch":47,"velocity":102,"channel":0},{"pitch":49,"velocity":127,"channel":0},{"pitch":21,"velocity":110,"channel":0},{"pitch":85,"velocity":117,"channel":0},{"pitch":9,"velocity":124,"channel":0},{"pitch":11,"velocity":107,"channel":0},{"pitch":11,"velocity":109,"channel":0},{"pitch":11,"velocity":109,"channel":0},{"pitch":85,"velocity":124,"channel":0},{"pitch":11,"velocity":110,"channel":0},{"pitch":57,"velocity":109,"channel":0},{"pitch":13,"velocity":125,"channel":0},{"pitch":23,"velocity":120,"channel":0},{"pitch":23,"velocity":110,"channel":0},{"pitch":23,"velocity":75,"channel":0},{"pitch":23,"velocity":116,"channel":0},{"pitch":23,"velocity":111,"channel":0},{"pitch":11,"velocity":125,"channel":0},{"pitch":93,"velocity":104,"channel":0},{"pitch":35,"velocity":99,"channel":0},{"pitch":49,"velocity":109,"channel":0},{"pitch":49,"velocity":124,"channel":0},{"pitch":49,"velocity":121,"channel":0},{"pitch":59,"velocity":116,"channel":0},{"pitch":25,"velocity":121,"channel":0},{"pitch":25,"velocity":109,"channel":0},{"pitch":47,"velocity":110,"channel":0},{"pitch":85,"velocity":122,"channel":0},{"pitch":93,"velocity":110,"channel":0},{"pitch":81,"velocity":126,"channel":0},{"pitch":23,"velocity":111,"channel":0},{"pitch":73,"velocity":114,"channel":0},{"pitch":81,"velocity":109,"channel":0},{"pitch":93,"velocity":101,"channel":0},{"pitch":11,"velocity":107,"channel":0},{"pitch":81,"velocity":110,"channel":0},{"pitch":71,"velocity":126,"channel":0},{"pitch":21,"velocity":120,"channel":0},{"pitch":25,"velocity":115,"channel":0},{"pitch":93,"velocity":111,"channel":0},{"pitch":11,"velocity":112,"channel":0},{"pitch":69,"velocity":126,"channel":0},{"pitch":69,"velocity":99,"channel":0},{"pitch":69,"velocity":99,"channel":0},{"pitch":23,"velocity":126,"channel":0},{"pitch":61,"velocity":116,"channel":0},{"pitch":61,"velocity":126,"channel":0},{"pitch":21,"velocity":105,"channel":0},{"pitch":85,"velocity":106,"channel":0},{"pitch":83,"velocity":105,"channel":0},{"pitch":21,"velocity":94,"channel":0},{"pitch":21,"velocity":120,"channel":0},{"pitch":11,"velocity":127,"channel":0},{"pitch":23,"velocity":122,"channel":0},{"pitch":59,"velocity":110,"channel":0},{"pitch":23,"velocity":107,"channel":0},{"pitch":35,"velocity":112,"channel":0},{"pitch":9,"velocity":124,"channel":0},{"pitch":13,"velocity":122,"channel":0},{"pitch":23,"velocity":125,"channel":0},{"pitch":83,"velocity":120,"channel":0},{"pitch":59,"velocity":99,"channel":0},{"pitch":11,"velocity":109,"channel":0},{"pitch":21,"velocity":121,"channel":0},{"pitch":21,"velocity":114,"channel":0},{"pitch":73,"velocity":109,"channel":0},{"pitch":23,"velocity":119,"channel":0},{"pitch":81,"velocity":115,"channel":0},{"pitch":47,"velocity":105,"channel":0},{"pitch":13,"velocity":112,"channel":0},{"pitch":49,"velocity":126,"channel":0},{"pitch":13,"velocity":110,"channel":0},{"pitch":1,"velocity":127,"channel":0}],"stageTiming":{"beat-setup":25.1629,"intent":0.0122,"entropy":0.1836,"phase":0.024,"climax":0.0375,"envelope":0.0366,"silhouette":0.0205,"rest":0.0217,"complement":0.1115,"tension-cadence":0.1269,"negotiation":0.0317,"probability-adjust":0.0027,"emission":3.4211,"post-beat":0.0203},"iterBudget":{"raw":245,"capped":245,"wasCapped":false}}
{"layer":"L1","beatKey":"0:0:3:3","timeMs":6500,"snap":{"key":"D#","mode":"locrian","quality":"minor","scale":["D#","E","F#","G#","A","B","C#"],"chords":[],"tension":0.21891727944621148,"harmonicRhythm":0.4096324107576737,"harmonicMutationCount":5,"excursion":0,"sectionPhase":"opening","phrasePosition":0.4,"phrasePhase":"development","phraseDynamism":1,"registerBias":5.412678195541842,"densityMultiplier":1.1804226065180614,"voiceIndependence":0.5,"compositeIntensity":0.4109005544559415,"playProb":0.32622862748591325,"stutterProb":0.22575954576039206,"flicker":1.1495766653653232,"textureMode":"flurry","textureFatigue":0.19999999999999998,"densityBias":0,"crossModBias":1,"emissionRatio":0.012019727345931713,"extraDensityCorrection":1.1975960545308137,"extraCoherenceDensityBias":1,"activeProfile":"restrained","journeyMove":"origin","journeyDistance":0,"journeyKey":"D#","journeyMode":"locrian","binauralFreqOffset":8,"binauralFlip":false,"tick":262500,"updatedAt":1772749028616},"negotiation":{"playProb":0.3230197862477866,"stutterProb":0.2542218667356003,"allowCadence":false,"conflict":0,"phaseConfidence":0.275},"trust":{"stutterContagion":{"score":0.20101218931575945,"samples":40,"weight":1.1507591419868195},"cadenceAlignment":{"score":0.20074501178488474,"samples":40,"weight":1.1505587588386637},"phaseLock":{"score":0.24039151096262196,"samples":40,"weight":1.1802936332219665},"convergence":{"score":0.20318472881725438,"samples":40,"weight":1.1523885466129409},"feedbackOscillator":{"score":0.20103166664437314,"samples":40,"weight":1.15077374998328},"coherenceMonitor":{"score":0.6649479420829514,"samples":40,"weight":1.4987109565622134},"entropyRegulator":{"score":0.739816586335234,"samples":40,"weight":1.5548624397514255},"restSynchronizer":{"score":0.21727798306583754,"samples":40,"weight":1.1629584872993781}},"regime":"initializing","coupling":{},"couplingTargets":{},"axisCouplingTotals":{"density":0,"tension":0,"flicker":0,"entropy":0,"trust":0,"phase":0},"axisEnergyShare":{"shares":{"density":0,"tension":0,"flicker":0,"entropy":0,"trust":0,"phase":0},"axisGini":0},"couplingGates":{"gateD":1,"gateT":1,"gateF":1,"floorDampen":1,"bypassD":0,"bypassT":0,"bypassF":0,"gateMinD":1,"gateMinT":1,"gateMinF":1,"gateEmaD":1,"gateEmaT":1,"gateEmaF":1,"gateBeatCount":4},"couplingHomeostasis":{"totalEnergyEma":0,"energyBudget":3.5,"peakEnergyEma":0,"totalEnergyFloor":8,"floorDampen":1,"redistributionScore":0,"nudgeableRedistributionScore":0,"globalGainMultiplier":1,"giniCoefficient":0,"energyDeltaEma":0,"pairTurbulenceEma":0,"beatCount":0,"invokeCount":4,"tickCount":40,"emptyMatrixBeats":4,"multiplierMin":1,"multiplierMax":1,"multiplierStdDev":0,"floorContactBeats":0,"ceilingContactBeats":40,"avgRecoveryDuration":0},"axisEnergyEquilibrator":{"beatCount":4,"pairAdjustments":0,"axisAdjustments":0,"smoothedShares":{"density":0,"tension":0,"flicker":0,"entropy":0,"trust":0,"phase":0},"perAxisAdj":{},"perPairAdj":{},"lastBaselines":{},"regimeBeats":{},"regimePairAdj":{},"regimeAxisAdj":{},"regimeTightenBudget":{}},"transitionReadiness":{"gap":0,"couplingStrength":0,"coherentThreshold":0,"velocity":0,"velThreshold":0.008,"thresholdScale":0.65,"velocityBlocked":false,"exploringBlock":"velocity","rawRegimeCounts":{},"rawRegimeMaxStreak":{},"effectiveDim":0},"notes":[{"pitch":83,"velocity":109,"channel":0},{"pitch":35,"velocity":108,"channel":0},{"pitch":95,"velocity":123,"channel":0},{"pitch":95,"velocity":96,"channel":0},{"pitch":49,"velocity":111,"channel":0},{"pitch":23,"velocity":94,"channel":0},{"pitch":83,"velocity":115,"channel":0},{"pitch":21,"velocity":101,"channel":0},{"pitch":21,"velocity":115,"channel":0},{"pitch":93,"velocity":104,"channel":0},{"pitch":83,"velocity":120,"channel":0},{"pitch":11,"velocity":104,"channel":0},{"pitch":1,"velocity":111,"channel":0},{"pitch":73,"velocity":122,"channel":0},{"pitch":83,"velocity":119,"channel":0},{"pitch":37,"velocity":111,"channel":0},{"pitch":49,"velocity":127,"channel":0},{"pitch":85,"velocity":98,"channel":0},{"pitch":85,"velocity":127,"channel":0},{"pitch":85,"velocity":106,"channel":0},{"pitch":49,"velocity":96,"channel":0},{"pitch":49,"velocity":93,"channel":0},{"pitch":21,"velocity":97,"channel":0},{"pitch":23,"velocity":117,"channel":0},{"pitch":21,"velocity":123,"channel":0},{"pitch":49,"velocity":117,"channel":0},{"pitch":45,"velocity":127,"channel":0},{"pitch":35,"velocity":114,"channel":0},{"pitch":61,"velocity":123,"channel":0},{"pitch":97,"velocity":109,"channel":0},{"pitch":97,"velocity":106,"channel":0},{"pitch":9,"velocity":108,"channel":0},{"pitch":21,"velocity":122,"channel":0},{"pitch":21,"velocity":94,"channel":0},{"pitch":33,"velocity":107,"channel":0},{"pitch":11,"velocity":123,"channel":0},{"pitch":13,"velocity":103,"channel":0},{"pitch":83,"velocity":109,"channel":0},{"pitch":83,"velocity":118,"channel":0},{"pitch":49,"velocity":103,"channel":0},{"pitch":61,"velocity":109,"channel":0},{"pitch":61,"velocity":117,"channel":0},{"pitch":61,"velocity":117,"channel":0},{"pitch":85,"velocity":114,"channel":0},{"pitch":9,"velocity":127,"channel":0},{"pitch":11,"velocity":111,"channel":0},{"pitch":11,"velocity":122,"channel":0},{"pitch":21,"velocity":99,"channel":0},{"pitch":81,"velocity":89,"channel":0},{"pitch":21,"velocity":98,"channel":0},{"pitch":21,"velocity":122,"channel":0},{"pitch":85,"velocity":127,"channel":0},{"pitch":85,"velocity":107,"channel":0},{"pitch":83,"velocity":114,"channel":0},{"pitch":85,"velocity":117,"channel":0},{"pitch":85,"velocity":104,"channel":0},{"pitch":93,"velocity":127,"channel":0},{"pitch":93,"velocity":122,"channel":0},{"pitch":49,"velocity":108,"channel":0},{"pitch":71,"velocity":119,"channel":0},{"pitch":71,"velocity":102,"channel":0},{"pitch":21,"velocity":127,"channel":0},{"pitch":93,"velocity":125,"channel":0},{"pitch":93,"velocity":111,"channel":0},{"pitch":93,"velocity":122,"channel":0},{"pitch":93,"velocity":118,"channel":0},{"pitch":35,"velocity":118,"channel":0},{"pitch":37,"velocity":127,"channel":0},{"pitch":9,"velocity":102,"channel":0},{"pitch":47,"velocity":94,"channel":0},{"pitch":47,"velocity":114,"channel":0},{"pitch":47,"velocity":97,"channel":0},{"pitch":13,"velocity":108,"channel":0},{"pitch":13,"velocity":106,"channel":0},{"pitch":85,"velocity":98,"channel":0},{"pitch":85,"velocity":94,"channel":0},{"pitch":93,"velocity":101,"channel":0},{"pitch":35,"velocity":97,"channel":0},{"pitch":85,"velocity":108,"channel":0},{"pitch":85,"velocity":104,"channel":0},{"pitch":85,"velocity":125,"channel":0},{"pitch":85,"velocity":92,"channel":0},{"pitch":85,"velocity":118,"channel":0},{"pitch":83,"velocity":127,"channel":0},{"pitch":93,"velocity":122,"channel":0},{"pitch":83,"velocity":115,"channel":0},{"pitch":83,"velocity":112,"channel":0},{"pitch":83,"velocity":103,"channel":0},{"pitch":73,"velocity":122,"channel":0},{"pitch":83,"velocity":118,"channel":0},{"pitch":47,"velocity":120,"channel":0},{"pitch":93,"velocity":109,"channel":0},{"pitch":47,"velocity":111,"channel":0},{"pitch":47,"velocity":104,"channel":0},{"pitch":21,"velocity":94,"channel":0},{"pitch":21,"velocity":112,"channel":0},{"pitch":9,"velocity":113,"channel":0},{"pitch":13,"velocity":111,"channel":0},{"pitch":13,"velocity":123,"channel":0},{"pitch":49,"velocity":125,"channel":0},{"pitch":49,"velocity":104,"channel":0},{"pitch":47,"velocity":113,"channel":0},{"pitch":49,"velocity":111,"channel":0},{"pitch":47,"velocity":99,"channel":0},{"pitch":85,"velocity":120,"channel":0},{"pitch":73,"velocity":104,"channel":0},{"pitch":1,"velocity":113,"channel":0},{"pitch":1,"velocity":104,"channel":0},{"pitch":11,"velocity":108,"channel":0},{"pitch":93,"velocity":113,"channel":0},{"pitch":85,"velocity":111,"channel":0},{"pitch":93,"velocity":114,"channel":0},{"pitch":35,"velocity":97,"channel":0},{"pitch":23,"velocity":106,"channel":0},{"pitch":23,"velocity":109,"channel":0},{"pitch":23,"velocity":111,"channel":0},{"pitch":1,"velocity":102,"channel":0},{"pitch":83,"velocity":117,"channel":0},{"pitch":93,"velocity":112,"channel":0},{"pitch":93,"velocity":82,"channel":0},{"pitch":93,"velocity":104,"channel":0},{"pitch":73,"velocity":122,"channel":0},{"pitch":35,"velocity":108,"channel":0},{"pitch":105,"velocity":123,"channel":0},{"pitch":1,"velocity":112,"channel":0},{"pitch":73,"velocity":122,"channel":0},{"pitch":95,"velocity":114,"channel":0},{"pitch":25,"velocity":127,"channel":0},{"pitch":45,"velocity":117,"channel":0},{"pitch":95,"velocity":106,"channel":0},{"pitch":13,"velocity":99,"channel":0},{"pitch":47,"velocity":113,"channel":0},{"pitch":25,"velocity":111,"channel":0},{"pitch":25,"velocity":97,"channel":0},{"pitch":49,"velocity":102,"channel":0},{"pitch":9,"velocity":123,"channel":0},{"pitch":21,"velocity":108,"channel":0},{"pitch":95,"velocity":120,"channel":0},{"pitch":59,"velocity":113,"channel":0},{"pitch":85,"velocity":109,"channel":0},{"pitch":21,"velocity":96,"channel":0},{"pitch":23,"velocity":98,"channel":0},{"pitch":23,"velocity":123,"channel":0},{"pitch":23,"velocity":127,"channel":0},{"pitch":59,"velocity":122,"channel":0},{"pitch":45,"velocity":123,"channel":0},{"pitch":85,"velocity":109,"channel":0},{"pitch":93,"velocity":97,"channel":0},{"pitch":93,"velocity":82,"channel":0},{"pitch":83,"velocity":127,"channel":0},{"pitch":85,"velocity":119,"channel":0},{"pitch":83,"velocity":102,"channel":0},{"pitch":85,"velocity":112,"channel":0},{"pitch":93,"velocity":107,"channel":0},{"pitch":85,"velocity":122,"channel":0},{"pitch":21,"velocity":115,"channel":0},{"pitch":21,"velocity":115,"channel":0},{"pitch":73,"velocity":114,"channel":0},{"pitch":93,"velocity":127,"channel":0},{"pitch":59,"velocity":106,"channel":0},{"pitch":13,"velocity":127,"channel":0},{"pitch":13,"velocity":127,"channel":0},{"pitch":1,"velocity":103,"channel":0},{"pitch":21,"velocity":120,"channel":0},{"pitch":85,"velocity":97,"channel":0},{"pitch":49,"velocity":104,"channel":0},{"pitch":59,"velocity":117,"channel":0},{"pitch":85,"velocity":103,"channel":0},{"pitch":85,"velocity":119,"channel":0},{"pitch":21,"velocity":109,"channel":0},{"pitch":25,"velocity":113,"channel":0},{"pitch":25,"velocity":115,"channel":0},{"pitch":59,"velocity":113,"channel":0},{"pitch":21,"velocity":127,"channel":0},{"pitch":21,"velocity":125,"channel":0},{"pitch":11,"velocity":111,"channel":0},{"pitch":13,"velocity":113,"channel":0},{"pitch":13,"velocity":107,"channel":0},{"pitch":13,"velocity":103,"channel":0},{"pitch":25,"velocity":115,"channel":0},{"pitch":49,"velocity":111,"channel":0},{"pitch":13,"velocity":124,"channel":0},{"pitch":25,"velocity":120,"channel":0},{"pitch":85,"velocity":122,"channel":0},{"pitch":85,"velocity":115,"channel":0},{"pitch":33,"velocity":113,"channel":0},{"pitch":21,"velocity":108,"channel":0},{"pitch":59,"velocity":112,"channel":0},{"pitch":33,"velocity":127,"channel":0},{"pitch":49,"velocity":127,"channel":0}],"stageTiming":{"beat-setup":18.1314,"intent":0.0114,"entropy":0.1617,"phase":0.0218,"climax":0.0223,"envelope":0.012,"silhouette":0.0152,"rest":0.0228,"complement":0.0119,"tension-cadence":0.114,"negotiation":0.0207,"probability-adjust":0.0019,"emission":4.4012,"post-beat":0.0194},"iterBudget":{"raw":189,"capped":189,"wasCapped":false}}
{"layer":"L1","beatKey":"0:0:3:4","timeMs":6666.666666666667,"snap":{"key":"D#","mode":"locrian","quality":"minor","scale":["D#","E","F#","G#","A","B","C#"],"chords":[],"tension":0.21891727944621148,"harmonicRhythm":0.4096324107576737,"harmonicMutationCount":5,"excursion":0,"sectionPhase":"opening","phrasePosition":0.4,"phrasePhase":"development","phraseDynamism":1,"registerBias":5.412678195541842,"densityMultiplier":1.1804226065180614,"voiceIndependence":0.5,"compositeIntensity":0.40295090098179354,"playProb":0.32622862748591325,"stutterProb":0.22575954576039206,"flicker":1.1495766653653232,"textureMode":"flurry","textureFatigue":0.05833333333333333,"densityBias":0,"crossModBias":1,"emissionRatio":0.012019727345931713,"extraDensityCorrection":1.1975960545308137,"extraCoherenceDensityBias":1,"activeProfile":"restrained","journeyMove":"origin","journeyDistance":0,"journeyKey":"D#","journeyMode":"locrian","binauralFreqOffset":8,"binauralFlip":false,"tick":262500,"updatedAt":1772749032334},"negotiation":{"playProb":0.32418835357342046,"stutterProb":0.2554733754889199,"allowCadence":false,"conflict":0.00020038314815584712,"phaseConfidence":0.275},"trust":{"stutterContagion":{"score":0.19909938443315178,"samples":41,"weight":1.1493245383248638},"cadenceAlignment":{"score":0.19884248254989723,"samples":41,"weight":1.15},"phaseLock":{"score":0.2407363825064934,"samples":41,"weight":1.1805522868798701},"convergence":{"score":0.2026633896795934,"samples":41,"weight":1.151997542259695},"feedbackOscillator":{"score":0.19908732597162226,"samples":41,"weight":1.1493154944787167},"coherenceMonitor":{"score":0.6703064688645697,"samples":41,"weight":1.5027298516484273},"entropyRegulator":{"score":0.7301836081810544,"samples":41,"weight":1.5476377061357909},"restSynchronizer":{"score":0.20334663457449453,"samples":41,"weight":1.152509975930871}},"regime":"initializing","coupling":{},"couplingTargets":{},"axisCouplingTotals":{"density":0,"tension":0,"flicker":0,"entropy":0,"trust":0,"phase":0},"axisEnergyShare":{"shares":{"density":0,"tension":0,"flicker":0,"entropy":0,"trust":0,"phase":0},"axisGini":0},"couplingGates":{"gateD":1,"gateT":1,"gateF":1,"floorDampen":1,"bypassD":0,"bypassT":0,"bypassF":0,"gateMinD":1,"gateMinT":1,"gateMinF":1,"gateEmaD":1,"gateEmaT":1,"gateEmaF":1,"gateBeatCount":4},"couplingHomeostasis":{"totalEnergyEma":0,"energyBudget":3.5,"peakEnergyEma":0,"totalEnergyFloor":8,"floorDampen":1,"redistributionScore":0,"nudgeableRedistributionScore":0,"globalGainMultiplier":1,"giniCoefficient":0,"energyDeltaEma":0,"pairTurbulenceEma":0,"beatCount":0,"invokeCount":4,"tickCount":41,"emptyMatrixBeats":4,"multiplierMin":1,"multiplierMax":1,"multiplierStdDev":0,"floorContactBeats":0,"ceilingContactBeats":41,"avgRecoveryDuration":0},"axisEnergyEquilibrator":{"beatCount":4,"pairAdjustments":0,"axisAdjustments":0,"smoothedShares":{"density":0,"tension":0,"flicker":0,"entropy":0,"trust":0,"phase":0},"perAxisAdj":{},"perPairAdj":{},"lastBaselines":{},"regimeBeats":{},"regimePairAdj":{},"regimeAxisAdj":{},"regimeTightenBudget":{}},"transitionReadiness":{"gap":0,"couplingStrength":0,"coherentThreshold":0,"velocity":0,"velThreshold":0.008,"thresholdScale":0.65,"velocityBlocked":false,"exploringBlock":"velocity","rawRegimeCounts":{},"rawRegimeMaxStreak":{},"effectiveDim":0},"notes":[{"pitch":107,"velocity":104,"channel":0},{"pitch":37,"velocity":118,"channel":0},{"pitch":47,"velocity":115,"channel":0},{"pitch":105,"velocity":120,"channel":0},{"pitch":105,"velocity":110,"channel":0},{"pitch":105,"velocity":117,"channel":0},{"pitch":105,"velocity":127,"channel":0},{"pitch":93,"velocity":120,"channel":0},{"pitch":59,"velocity":122,"channel":0},{"pitch":21,"velocity":111,"channel":0},{"pitch":95,"velocity":122,"channel":0},{"pitch":11,"velocity":104,"channel":0},{"pitch":21,"velocity":109,"channel":0},{"pitch":9,"velocity":74,"channel":0},{"pitch":33,"velocity":115,"channel":0},{"pitch":57,"velocity":110,"channel":0},{"pitch":35,"velocity":106,"channel":0},{"pitch":35,"velocity":106,"channel":0},{"pitch":35,"velocity":100,"channel":0},{"pitch":61,"velocity":123,"channel":0},{"pitch":49,"velocity":102,"channel":0},{"pitch":11,"velocity":120,"channel":0},{"pitch":85,"velocity":95,"channel":0},{"pitch":85,"velocity":107,"channel":0},{"pitch":73,"velocity":106,"channel":0},{"pitch":45,"velocity":99,"channel":0},{"pitch":49,"velocity":110,"channel":0},{"pitch":85,"velocity":107,"channel":0},{"pitch":93,"velocity":106,"channel":0},{"pitch":85,"velocity":121,"channel":0},{"pitch":83,"velocity":126,"channel":0},{"pitch":61,"velocity":125,"channel":0},{"pitch":83,"velocity":93,"channel":0},{"pitch":93,"velocity":101,"channel":0},{"pitch":21,"velocity":127,"channel":0},{"pitch":73,"velocity":113,"channel":0},{"pitch":83,"velocity":111,"channel":0},{"pitch":83,"velocity":110,"channel":0},{"pitch":93,"velocity":121,"channel":0},{"pitch":37,"velocity":127,"channel":0},{"pitch":107,"velocity":112,"channel":0},{"pitch":95,"velocity":106,"channel":0},{"pitch":95,"velocity":125,"channel":0},{"pitch":95,"velocity":121,"channel":0},{"pitch":95,"velocity":110,"channel":0},{"pitch":95,"velocity":107,"channel":0},{"pitch":13,"velocity":118,"channel":0},{"pitch":47,"velocity":113,"channel":0},{"pitch":9,"velocity":99,"channel":0},{"pitch":25,"velocity":109,"channel":0},{"pitch":23,"velocity":99,"channel":0},{"pitch":35,"velocity":111,"channel":0},{"pitch":45,"velocity":112,"channel":0},{"pitch":23,"velocity":104,"channel":0},{"pitch":23,"velocity":127,"channel":0},{"pitch":23,"velocity":115,"channel":0},{"pitch":13,"velocity":105,"channel":0},{"pitch":13,"velocity":110,"channel":0},{"pitch":45,"velocity":122,"channel":0},{"pitch":59,"velocity":94,"channel":0},{"pitch":93,"velocity":115,"channel":0},{"pitch":47,"velocity":117,"channel":0},{"pitch":97,"velocity":123,"channel":0},{"pitch":81,"velocity":123,"channel":0},{"pitch":83,"velocity":127,"channel":0},{"pitch":83,"velocity":125,"channel":0},{"pitch":83,"velocity":100,"channel":0},{"pitch":23,"velocity":88,"channel":0},{"pitch":73,"velocity":115,"channel":0},{"pitch":71,"velocity":99,"channel":0},{"pitch":61,"velocity":93,"channel":0},{"pitch":83,"velocity":94,"channel":0},{"pitch":93,"velocity":102,"channel":0},{"pitch":93,"velocity":105,"channel":0},{"pitch":83,"velocity":126,"channel":0},{"pitch":83,"velocity":112,"channel":0},{"pitch":37,"velocity":112,"channel":0},{"pitch":37,"velocity":109,"channel":0},{"pitch":1,"velocity":127,"channel":0},{"pitch":25,"velocity":122,"channel":0},{"pitch":107,"velocity":116,"channel":0},{"pitch":81,"velocity":100,"channel":0},{"pitch":37,"velocity":125,"channel":0},{"pitch":37,"velocity":94,"channel":0},{"pitch":37,"velocity":99,"channel":0},{"pitch":95,"velocity":127,"channel":0},{"pitch":37,"velocity":122,"channel":0},{"pitch":49,"velocity":111,"channel":0},{"pitch":49,"velocity":96,"channel":0},{"pitch":49,"velocity":104,"channel":0},{"pitch":83,"velocity":110,"channel":0},{"pitch":25,"velocity":113,"channel":0},{"pitch":47,"velocity":115,"channel":0},{"pitch":9,"velocity":117,"channel":0},{"pitch":13,"velocity":121,"channel":0},{"pitch":13,"velocity":102,"channel":0},{"pitch":13,"velocity":127,"channel":0},{"pitch":13,"velocity":105,"channel":0},{"pitch":1,"velocity":117,"channel":0},{"pitch":21,"velocity":110,"channel":0},{"pitch":21,"velocity":125,"channel":0},{"pitch":21,"velocity":106,"channel":0},{"pitch":21,"velocity":107,"channel":0},{"pitch":81,"velocity":110,"channel":0},{"pitch":11,"velocity":113,"channel":0},{"pitch":85,"velocity":117,"channel":0},{"pitch":83,"velocity":97,"channel":0},{"pitch":21,"velocity":105,"channel":0},{"pitch":21,"velocity":126,"channel":0},{"pitch":85,"velocity":122,"channel":0},{"pitch":93,"velocity":118,"channel":0},{"pitch":23,"velocity":112,"channel":0},{"pitch":23,"velocity":113,"channel":0},{"pitch":47,"velocity":104,"channel":0},{"pitch":11,"velocity":107,"channel":0},{"pitch":93,"velocity":112,"channel":0},{"pitch":37,"velocity":104,"channel":0},{"pitch":85,"velocity":120,"channel":0},{"pitch":73,"velocity":118,"channel":0},{"pitch":83,"velocity":120,"channel":0},{"pitch":49,"velocity":113,"channel":0},{"pitch":47,"velocity":102,"channel":0},{"pitch":37,"velocity":125,"channel":0},{"pitch":33,"velocity":111,"channel":0},{"pitch":49,"velocity":99,"channel":0},{"pitch":1,"velocity":110,"channel":0},{"pitch":61,"velocity":111,"channel":0},{"pitch":61,"velocity":99,"channel":0},{"pitch":61,"velocity":122,"channel":0},{"pitch":81,"velocity":115,"channel":0},{"pitch":11,"velocity":121,"channel":0},{"pitch":11,"velocity":99,"channel":0},{"pitch":11,"velocity":102,"channel":0},{"pitch":23,"velocity":116,"channel":0},{"pitch":25,"velocity":120,"channel":0},{"pitch":83,"velocity":120,"channel":0},{"pitch":1,"velocity":100,"channel":0},{"pitch":35,"velocity":100,"channel":0},{"pitch":81,"velocity":115,"channel":0},{"pitch":23,"velocity":116,"channel":0},{"pitch":23,"velocity":116,"channel":0},{"pitch":13,"velocity":116,"channel":0},{"pitch":1,"velocity":99,"channel":0}],"stageTiming":{"beat-setup":14.1643,"intent":0.0113,"entropy":0.1657,"phase":0.0214,"climax":0.0224,"envelope":0.0121,"silhouette":0.0187,"rest":0.0381,"complement":0.0017,"tension-cadence":0.109,"negotiation":0.023,"probability-adjust":0.0021,"emission":3.5143,"post-beat":0.0261},"iterBudget":{"raw":126,"capped":126,"wasCapped":false}}
{"layer":"L1","beatKey":"0:0:3:5","timeMs":6833.333333333333,"snap":{"key":"D#","mode":"locrian","quality":"minor","scale":["D#","E","F#","G#","A","B","C#"],"chords":[],"tension":0.21891727944621148,"harmonicRhythm":0.4096324107576737,"harmonicMutationCount":5,"excursion":0,"sectionPhase":"opening","phrasePosition":0.4,"phrasePhase":"development","phraseDynamism":1,"registerBias":5.412678195541842,"densityMultiplier":1.1804226065180614,"voiceIndependence":0.5,"compositeIntensity":0.3875478721231602,"playProb":0.32622862748591325,"stutterProb":0.22575954576039206,"flicker":1.1495766653653232,"textureMode":"flurry","textureFatigue":0.05833333333333333,"densityBias":0,"crossModBias":1,"emissionRatio":0.012019727345931713,"extraDensityCorrection":1.1975960545308137,"extraCoherenceDensityBias":1,"activeProfile":"restrained","journeyMove":"origin","journeyDistance":0,"journeyKey":"D#","journeyMode":"locrian","binauralFreqOffset":8,"binauralFlip":false,"tick":262500,"updatedAt":1772749037632},"negotiation":{"playProb":0.32465794434733525,"stutterProb":0.25626044187450736,"allowCadence":false,"conflict":0.000675461675136102,"phaseConfidence":0.275},"trust":{"stutterContagion":{"score":0.19742548254368966,"samples":42,"weight":1.1480691119077673},"cadenceAlignment":{"score":0.19742548254368966,"samples":42,"weight":1.15},"phaseLock":{"score":0.2410464565115882,"samples":42,"weight":1.180784842383691},"convergence":{"score":0.20219465366092243,"samples":42,"weight":1.151645990245692},"feedbackOscillator":{"score":0.19742548254368966,"samples":42,"weight":1.1480691119077673},"coherenceMonitor":{"score":0.6744122901944241,"samples":42,"weight":1.505809217645818},"entropyRegulator":{"score":0.7236878813393409,"samples":42,"weight":1.5427659110045058},"restSynchronizer":{"score":0.19742548254368966,"samples":42,"weight":1.1480691119077673}},"regime":"initializing","coupling":{},"couplingTargets":{},"axisCouplingTotals":{"density":0,"tension":0,"flicker":0,"entropy":0,"trust":0,"phase":0},"axisEnergyShare":{"shares":{"density":0,"tension":0,"flicker":0,"entropy":0,"trust":0,"phase":0},"axisGini":0},"couplingGates":{"gateD":1,"gateT":1,"gateF":1,"floorDampen":1,"bypassD":0,"bypassT":0,"bypassF":0,"gateMinD":1,"gateMinT":1,"gateMinF":1,"gateEmaD":1,"gateEmaT":1,"gateEmaF":1,"gateBeatCount":4},"couplingHomeostasis":{"totalEnergyEma":0,"energyBudget":3.5,"peakEnergyEma":0,"totalEnergyFloor":8,"floorDampen":1,"redistributionScore":0,"nudgeableRedistributionScore":0,"globalGainMultiplier":1,"giniCoefficient":0,"energyDeltaEma":0,"pairTurbulenceEma":0,"beatCount":0,"invokeCount":4,"tickCount":42,"emptyMatrixBeats":4,"multiplierMin":1,"multiplierMax":1,"multiplierStdDev":0,"floorContactBeats":0,"ceilingContactBeats":42,"avgRecoveryDuration":0},"axisEnergyEquilibrator":{"beatCount":4,"pairAdjustments":0,"axisAdjustments":0,"smoothedShares":{"density":0,"tension":0,"flicker":0,"entropy":0,"trust":0,"phase":0},"perAxisAdj":{},"perPairAdj":{},"lastBaselines":{},"regimeBeats":{},"regimePairAdj":{},"regimeAxisAdj":{},"regimeTightenBudget":{}},"transitionReadiness":{"gap":0,"couplingStrength":0,"coherentThreshold":0,"velocity":0,"velThreshold":0.008,"thresholdScale":0.65,"velocityBlocked":false,"exploringBlock":"velocity","rawRegimeCounts":{},"rawRegimeMaxStreak":{},"effectiveDim":0},"notes":[{"pitch":9,"velocity":124,"channel":0},{"pitch":49,"velocity":104,"channel":0},{"pitch":11,"velocity":119,"channel":0},{"pitch":1,"velocity":121,"channel":0},{"pitch":73,"velocity":116,"channel":0},{"pitch":21,"velocity":109,"channel":0},{"pitch":21,"velocity":94,"channel":0},{"pitch":1,"velocity":127,"channel":0},{"pitch":1,"velocity":124,"channel":0},{"pitch":1,"velocity":110,"channel":0},{"pitch":1,"velocity":108,"channel":0},{"pitch":83,"velocity":113,"channel":0},{"pitch":33,"velocity":113,"channel":0},{"pitch":35,"velocity":97,"channel":0},{"pitch":45,"velocity":108,"channel":0},{"pitch":11,"velocity":110,"channel":0},{"pitch":81,"velocity":109,"channel":0},{"pitch":33,"velocity":116,"channel":0},{"pitch":1,"velocity":119,"channel":0},{"pitch":1,"velocity":119,"channel":0},{"pitch":73,"velocity":97,"channel":0},{"pitch":23,"velocity":119,"channel":0},{"pitch":13,"velocity":92,"channel":0},{"pitch":23,"velocity":99,"channel":0},{"pitch":1,"velocity":104,"channel":0},{"pitch":83,"velocity":104,"channel":0},{"pitch":23,"velocity":107,"channel":0},{"pitch":23,"velocity":95,"channel":0},{"pitch":1,"velocity":108,"channel":0},{"pitch":73,"velocity":110,"channel":0},{"pitch":95,"velocity":102,"channel":0},{"pitch":1,"velocity":109,"channel":0},{"pitch":73,"velocity":110,"channel":0},{"pitch":49,"velocity":120,"channel":0},{"pitch":59,"velocity":119,"channel":0},{"pitch":95,"velocity":103,"channel":0},{"pitch":59,"velocity":115,"channel":0},{"pitch":9,"velocity":111,"channel":0},{"pitch":1,"velocity":120,"channel":0},{"pitch":1,"velocity":114,"channel":0},{"pitch":83,"velocity":104,"channel":0},{"pitch":1,"velocity":120,"channel":0},{"pitch":11,"velocity":108,"channel":0},{"pitch":1,"velocity":108,"channel":0},{"pitch":1,"velocity":102,"channel":0},{"pitch":1,"velocity":109,"channel":0},{"pitch":1,"velocity":115,"channel":0},{"pitch":1,"velocity":113,"channel":0},{"pitch":11,"velocity":124,"channel":0},{"pitch":11,"velocity":107,"channel":0},{"pitch":85,"velocity":103,"channel":0},{"pitch":57,"velocity":119,"channel":0},{"pitch":1,"velocity":93,"channel":0},{"pitch":1,"velocity":104,"channel":0},{"pitch":1,"velocity":93,"channel":0},{"pitch":93,"velocity":94,"channel":0},{"pitch":83,"velocity":114,"channel":0},{"pitch":25,"velocity":86,"channel":0},{"pitch":25,"velocity":127,"channel":0},{"pitch":25,"velocity":109,"channel":0},{"pitch":57,"velocity":126,"channel":0},{"pitch":11,"velocity":118,"channel":0},{"pitch":11,"velocity":94,"channel":0},{"pitch":21,"velocity":105,"channel":0},{"pitch":85,"velocity":108,"channel":0},{"pitch":57,"velocity":110,"channel":0},{"pitch":25,"velocity":84,"channel":0},{"pitch":1,"velocity":126,"channel":0},{"pitch":71,"velocity":108,"channel":0},{"pitch":61,"velocity":127,"channel":0},{"pitch":69,"velocity":113,"channel":0},{"pitch":11,"velocity":104,"channel":0},{"pitch":23,"velocity":113,"channel":0},{"pitch":85,"velocity":93,"channel":0},{"pitch":13,"velocity":104,"channel":0},{"pitch":25,"velocity":120,"channel":0},{"pitch":81,"velocity":118,"channel":0},{"pitch":85,"velocity":107,"channel":0},{"pitch":81,"velocity":113,"channel":0},{"pitch":93,"velocity":118,"channel":0},{"pitch":1,"velocity":116,"channel":0},{"pitch":23,"velocity":114,"channel":0},{"pitch":49,"velocity":114,"channel":0},{"pitch":25,"velocity":113,"channel":0},{"pitch":21,"velocity":126,"channel":0},{"pitch":23,"velocity":109,"channel":0},{"pitch":23,"velocity":118,"channel":0},{"pitch":13,"velocity":99,"channel":0},{"pitch":13,"velocity":113,"channel":0},{"pitch":25,"velocity":109,"channel":0},{"pitch":13,"velocity":105,"channel":0},{"pitch":57,"velocity":113,"channel":0},{"pitch":23,"velocity":111,"channel":0},{"pitch":23,"velocity":111,"channel":0},{"pitch":23,"velocity":127,"channel":0},{"pitch":25,"velocity":104,"channel":0},{"pitch":25,"velocity":102,"channel":0},{"pitch":37,"velocity":98,"channel":0},{"pitch":85,"velocity":122,"channel":0},{"pitch":85,"velocity":104,"channel":0},{"pitch":85,"velocity":114,"channel":0},{"pitch":93,"velocity":114,"channel":0},{"pitch":1,"velocity":99,"channel":0},{"pitch":1,"velocity":121,"channel":0},{"pitch":1,"velocity":119,"channel":0},{"pitch":35,"velocity":104,"channel":0},{"pitch":11,"velocity":118,"channel":0},{"pitch":95,"velocity":127,"channel":0},{"pitch":73,"velocity":127,"channel":0},{"pitch":25,"velocity":120,"channel":0},{"pitch":25,"velocity":108,"channel":0},{"pitch":25,"velocity":121,"channel":0},{"pitch":25,"velocity":114,"channel":0},{"pitch":13,"velocity":110,"channel":0},{"pitch":25,"velocity":116,"channel":0},{"pitch":49,"velocity":124,"channel":0},{"pitch":25,"velocity":98,"channel":0},{"pitch":95,"velocity":107,"channel":0},{"pitch":95,"velocity":113,"channel":0},{"pitch":95,"velocity":102,"channel":0},{"pitch":83,"velocity":84,"channel":0},{"pitch":95,"velocity":97,"channel":0},{"pitch":21,"velocity":104,"channel":0},{"pitch":21,"velocity":107,"channel":0},{"pitch":25,"velocity":110,"channel":0},{"pitch":35,"velocity":127,"channel":0},{"pitch":35,"velocity":105,"channel":0},{"pitch":61,"velocity":114,"channel":0},{"pitch":61,"velocity":104,"channel":0},{"pitch":95,"velocity":120,"channel":0},{"pitch":21,"velocity":108,"channel":0},{"pitch":25,"velocity":122,"channel":0},{"pitch":83,"velocity":120,"channel":0},{"pitch":83,"velocity":91,"channel":0},{"pitch":83,"velocity":97,"channel":0},{"pitch":95,"velocity":108,"channel":0},{"pitch":81,"velocity":122,"channel":0},{"pitch":37,"velocity":108,"channel":0},{"pitch":49,"velocity":111,"channel":0},{"pitch":35,"velocity":107,"channel":0},{"pitch":25,"velocity":109,"channel":0},{"pitch":93,"velocity":105,"channel":0},{"pitch":93,"velocity":98,"channel":0},{"pitch":57,"velocity":109,"channel":0},{"pitch":49,"velocity":109,"channel":0},{"pitch":47,"velocity":97,"channel":0},{"pitch":49,"velocity":110,"channel":0},{"pitch":49,"velocity":116,"channel":0},{"pitch":49,"velocity":110,"channel":0},{"pitch":49,"velocity":108,"channel":0},{"pitch":1,"velocity":115,"channel":0},{"pitch":23,"velocity":110,"channel":0},{"pitch":23,"velocity":99,"channel":0},{"pitch":49,"velocity":102,"channel":0},{"pitch":21,"velocity":105,"channel":0},{"pitch":93,"velocity":99,"channel":0},{"pitch":93,"velocity":119,"channel":0},{"pitch":93,"velocity":124,"channel":0},{"pitch":93,"velocity":109,"channel":0},{"pitch":11,"velocity":111,"channel":0},{"pitch":21,"velocity":111,"channel":0},{"pitch":1,"velocity":126,"channel":0},{"pitch":11,"velocity":115,"channel":0},{"pitch":21,"velocity":95,"channel":0},{"pitch":37,"velocity":120,"channel":0},{"pitch":1,"velocity":121,"channel":0},{"pitch":95,"velocity":103,"channel":0},{"pitch":95,"velocity":110,"channel":0},{"pitch":83,"velocity":95,"channel":0},{"pitch":95,"velocity":120,"channel":0},{"pitch":95,"velocity":114,"channel":0},{"pitch":81,"velocity":91,"channel":0},{"pitch":1,"velocity":111,"channel":0},{"pitch":59,"velocity":124,"channel":0},{"pitch":47,"velocity":103,"channel":0},{"pitch":13,"velocity":127,"channel":0},{"pitch":49,"velocity":109,"channel":0},{"pitch":13,"velocity":109,"channel":0},{"pitch":13,"velocity":118,"channel":0},{"pitch":1,"velocity":124,"channel":0},{"pitch":11,"velocity":110,"channel":0},{"pitch":11,"velocity":121,"channel":0},{"pitch":21,"velocity":120,"channel":0},{"pitch":11,"velocity":104,"channel":0},{"pitch":21,"velocity":121,"channel":0},{"pitch":1,"velocity":113,"channel":0},{"pitch":59,"velocity":94,"channel":0},{"pitch":1,"velocity":114,"channel":0},{"pitch":59,"velocity":110,"channel":0},{"pitch":59,"velocity":103,"channel":0},{"pitch":59,"velocity":108,"channel":0},{"pitch":59,"velocity":115,"channel":0},{"pitch":85,"velocity":103,"channel":0},{"pitch":21,"velocity":102,"channel":0},{"pitch":71,"velocity":118,"channel":0},{"pitch":1,"velocity":125,"channel":0},{"pitch":11,"velocity":116,"channel":0},{"pitch":9,"velocity":109,"channel":0},{"pitch":11,"velocity":125,"channel":0},{"pitch":11,"velocity":105,"channel":0},{"pitch":11,"velocity":97,"channel":0},{"pitch":73,"velocity":118,"channel":0},{"pitch":107,"velocity":104,"channel":0},{"pitch":107,"velocity":95,"channel":0},{"pitch":105,"velocity":116,"channel":0},{"pitch":57,"velocity":107,"channel":0},{"pitch":73,"velocity":118,"channel":0},{"pitch":9,"velocity":119,"channel":0},{"pitch":33,"velocity":102,"channel":0},{"pitch":35,"velocity":100,"channel":0},{"pitch":25,"velocity":95,"channel":0},{"pitch":35,"velocity":99,"channel":0},{"pitch":37,"velocity":102,"channel":0},{"pitch":11,"velocity":126,"channel":0},{"pitch":33,"velocity":127,"channel":0}],"stageTiming":{"beat-setup":13.7688,"intent":0.0132,"entropy":0.1924,"phase":0.0257,"climax":0.0259,"envelope":0.014,"silhouette":0.0179,"rest":0.0432,"complement":0.0019,"tension-cadence":0.1339,"negotiation":0.0308,"probability-adjust":0.0027,"emission":5.0965,"post-beat":0.0214},"iterBudget":{"raw":1056,"capped":392,"wasCapped":true}}
{"layer":"L1","beatKey":"0:0:3:6","timeMs":7000,"snap":{"key":"D#","mode":"locrian","quality":"minor","scale":["D#","E","F#","G#","A","B","C#"],"chords":[],"tension":0.21891727944621148,"harmonicRhythm":0.4096324107576737,"harmonicMutationCount":5,"excursion":0,"sectionPhase":"opening","phrasePosition":0.4,"phrasePhase":"development","phraseDynamism":1,"registerBias":5.412678195541842,"densityMultiplier":1.1804226065180614,"voiceIndependence":0.5,"compositeIntensity":0.42467111931128204,"playProb":0.32622862748591325,"stutterProb":0.22575954576039206,"flicker":1.1495766653653232,"textureMode":"flurry","textureFatigue":0.05833333333333333,"densityBias":0,"crossModBias":1,"emissionRatio":0.012019727345931713,"extraDensityCorrection":1.1975960545308137,"extraCoherenceDensityBias":1,"activeProfile":"restrained","journeyMove":"origin","journeyDistance":0,"journeyKey":"D#","journeyMode":"locrian","binauralFreqOffset":8,"binauralFlip":false,"tick":262500,"updatedAt":1772749046297},"negotiation":{"playProb":0.32663256005497976,"stutterProb":0.2580333574342958,"allowCadence":false,"conflict":0.00193088809223263,"phaseConfidence":0.275},"trust":{"stutterContagion":{"score":0.19691852544853203,"samples":43,"weight":1.147688894086399},"cadenceAlignment":{"score":0.19691852544853203,"samples":43,"weight":1.15},"phaseLock":{"score":0.24132524404956895,"samples":43,"weight":1.1809939330371768},"convergence":{"score":0.20177321310653537,"samples":43,"weight":1.1513299098299015},"feedbackOscillator":{"score":0.19691852544853203,"samples":43,"weight":1.147688894086399},"coherenceMonitor":{"score":0.682127025647925,"samples":43,"weight":1.5115952692359438},"entropyRegulator":{"score":0.7130683999276732,"samples":43,"weight":1.534801299945755},"restSynchronizer":{"score":0.19691852544853203,"samples":43,"weight":1.147688894086399}},"regime":"initializing","coupling":{},"couplingTargets":{},"axisCouplingTotals":{"density":0,"tension":0,"flicker":0,"entropy":0,"trust":0,"phase":0},"axisEnergyShare":{"shares":{"density":0,"tension":0,"flicker":0,"entropy":0,"trust":0,"phase":0},"axisGini":0},"couplingGates":{"gateD":1,"gateT":1,"gateF":1,"floorDampen":1,"bypassD":0,"bypassT":0,"bypassF":0,"gateMinD":1,"gateMinT":1,"gateMinF":1,"gateEmaD":1,"gateEmaT":1,"gateEmaF":1,"gateBeatCount":4},"couplingHomeostasis":{"totalEnergyEma":0,"energyBudget":3.5,"peakEnergyEma":0,"totalEnergyFloor":8,"floorDampen":1,"redistributionScore":0,"nudgeableRedistributionScore":0,"globalGainMultiplier":1,"giniCoefficient":0,"energyDeltaEma":0,"pairTurbulenceEma":0,"beatCount":0,"invokeCount":4,"tickCount":43,"emptyMatrixBeats":4,"multiplierMin":1,"multiplierMax":1,"multiplierStdDev":0,"floorContactBeats":0,"ceilingContactBeats":43,"avgRecoveryDuration":0},"axisEnergyEquilibrator":{"beatCount":4,"pairAdjustments":0,"axisAdjustments":0,"smoothedShares":{"density":0,"tension":0,"flicker":0,"entropy":0,"trust":0,"phase":0},"perAxisAdj":{},"perPairAdj":{},"lastBaselines":{},"regimeBeats":{},"regimePairAdj":{},"regimeAxisAdj":{},"regimeTightenBudget":{}},"transitionReadiness":{"gap":0,"couplingStrength":0,"coherentThreshold":0,"velocity":0,"velThreshold":0.008,"thresholdScale":0.65,"velocityBlocked":false,"exploringBlock":"velocity","rawRegimeCounts":{},"rawRegimeMaxStreak":{},"effectiveDim":0},"notes":[{"pitch":73,"velocity":114,"channel":0},{"pitch":83,"velocity":112,"channel":0},{"pitch":61,"velocity":106,"channel":0},{"pitch":61,"velocity":110,"channel":0},{"pitch":61,"velocity":109,"channel":0},{"pitch":71,"velocity":127,"channel":0},{"pitch":71,"velocity":96,"channel":0},{"pitch":1,"velocity":125,"channel":0},{"pitch":1,"velocity":119,"channel":0},{"pitch":83,"velocity":96,"channel":0},{"pitch":11,"velocity":104,"channel":0},{"pitch":11,"velocity":95,"channel":0},{"pitch":49,"velocity":104,"channel":0},{"pitch":83,"velocity":116,"channel":0},{"pitch":83,"velocity":121,"channel":0},{"pitch":13,"velocity":115,"channel":0},{"pitch":83,"velocity":104,"channel":0},{"pitch":83,"velocity":92,"channel":0},{"pitch":83,"velocity":106,"channel":0},{"pitch":35,"velocity":96,"channel":0},{"pitch":9,"velocity":106,"channel":0},{"pitch":9,"velocity":101,"channel":0},{"pitch":9,"velocity":85,"channel":0},{"pitch":9,"velocity":101,"channel":0},{"pitch":33,"velocity":110,"channel":0},{"pitch":9,"velocity":108,"channel":0},{"pitch":57,"velocity":104,"channel":0},{"pitch":83,"velocity":119,"channel":0},{"pitch":13,"velocity":110,"channel":0},{"pitch":13,"velocity":100,"channel":0},{"pitch":13,"velocity":110,"channel":0},{"pitch":13,"velocity":91,"channel":0},{"pitch":1,"velocity":113,"channel":0},{"pitch":23,"velocity":118,"channel":0},{"pitch":83,"velocity":96,"channel":0},{"pitch":73,"velocity":121,"channel":0},{"pitch":73,"velocity":119,"channel":0},{"pitch":73,"velocity":116,"channel":0},{"pitch":73,"velocity":104,"channel":0},{"pitch":73,"velocity":127,"channel":0},{"pitch":73,"velocity":107,"channel":0},{"pitch":73,"velocity":102,"channel":0},{"pitch":83,"velocity":120,"channel":0},{"pitch":73,"velocity":101,"channel":0},{"pitch":25,"velocity":116,"channel":0},{"pitch":35,"velocity":113,"channel":0},{"pitch":35,"velocity":108,"channel":0},{"pitch":73,"velocity":113,"channel":0},{"pitch":73,"velocity":120,"channel":0},{"pitch":11,"velocity":107,"channel":0},{"pitch":21,"velocity":123,"channel":0},{"pitch":1,"velocity":110,"channel":0},{"pitch":1,"velocity":115,"channel":0},{"pitch":1,"velocity":121,"channel":0},{"pitch":85,"velocity":102,"channel":0},{"pitch":1,"velocity":100,"channel":0},{"pitch":1,"velocity":115,"channel":0},{"pitch":11,"velocity":102,"channel":0},{"pitch":81,"velocity":123,"channel":0},{"pitch":83,"velocity":126,"channel":0},{"pitch":83,"velocity":96,"channel":0},{"pitch":83,"velocity":91,"channel":0},{"pitch":93,"velocity":124,"channel":0},{"pitch":83,"velocity":92,"channel":0},{"pitch":95,"velocity":124,"channel":0},{"pitch":83,"velocity":112,"channel":0},{"pitch":11,"velocity":124,"channel":0},{"pitch":13,"velocity":97,"channel":0},{"pitch":13,"velocity":114,"channel":0},{"pitch":59,"velocity":103,"channel":0},{"pitch":23,"velocity":123,"channel":0},{"pitch":23,"velocity":101,"channel":0},{"pitch":11,"velocity":109,"channel":0},{"pitch":9,"velocity":107,"channel":0},{"pitch":11,"velocity":109,"channel":0},{"pitch":11,"velocity":104,"channel":0},{"pitch":21,"velocity":91,"channel":0},{"pitch":21,"velocity":127,"channel":0},{"pitch":35,"velocity":118,"channel":0},{"pitch":21,"velocity":125,"channel":0},{"pitch":81,"velocity":93,"channel":0},{"pitch":107,"velocity":101,"channel":0},{"pitch":25,"velocity":91,"channel":0},{"pitch":49,"velocity":115,"channel":0},{"pitch":25,"velocity":113,"channel":0},{"pitch":13,"velocity":110,"channel":0},{"pitch":13,"velocity":124,"channel":0},{"pitch":13,"velocity":125,"channel":0},{"pitch":81,"velocity":109,"channel":0},{"pitch":11,"velocity":110,"channel":0},{"pitch":21,"velocity":103,"channel":0},{"pitch":21,"velocity":123,"channel":0},{"pitch":21,"velocity":106,"channel":0},{"pitch":81,"velocity":96,"channel":0},{"pitch":11,"velocity":101,"channel":0},{"pitch":1,"velocity":93,"channel":0},{"pitch":81,"velocity":113,"channel":0},{"pitch":23,"velocity":110,"channel":0},{"pitch":1,"velocity":106,"channel":0},{"pitch":23,"velocity":126,"channel":0},{"pitch":83,"velocity":104,"channel":0},{"pitch":11,"velocity":95,"channel":0},{"pitch":23,"velocity":112,"channel":0},{"pitch":23,"velocity":98,"channel":0},{"pitch":11,"velocity":127,"channel":0},{"pitch":93,"velocity":100,"channel":0},{"pitch":45,"velocity":108,"channel":0},{"pitch":9,"velocity":126,"channel":0},{"pitch":9,"velocity":110,"channel":0},{"pitch":9,"velocity":106,"channel":0},{"pitch":9,"velocity":103,"channel":0},{"pitch":57,"velocity":109,"channel":0},{"pitch":21,"velocity":104,"channel":0},{"pitch":21,"velocity":125,"channel":0},{"pitch":81,"velocity":107,"channel":0},{"pitch":33,"velocity":98,"channel":0},{"pitch":11,"velocity":102,"channel":0},{"pitch":37,"velocity":114,"channel":0},{"pitch":21,"velocity":113,"channel":0},{"pitch":21,"velocity":104,"channel":0},{"pitch":21,"velocity":114,"channel":0},{"pitch":73,"velocity":109,"channel":0},{"pitch":13,"velocity":106,"channel":0},{"pitch":25,"velocity":123,"channel":0},{"pitch":13,"velocity":106,"channel":0},{"pitch":13,"velocity":124,"channel":0},{"pitch":81,"velocity":106,"channel":0},{"pitch":49,"velocity":102,"channel":0},{"pitch":49,"velocity":102,"channel":0},{"pitch":25,"velocity":116,"channel":0},{"pitch":49,"velocity":109,"channel":0},{"pitch":37,"velocity":106,"channel":0},{"pitch":85,"velocity":127,"channel":0},{"pitch":81,"velocity":123,"channel":0},{"pitch":33,"velocity":127,"channel":0},{"pitch":23,"velocity":101,"channel":0},{"pitch":23,"velocity":108,"channel":0},{"pitch":23,"velocity":109,"channel":0},{"pitch":23,"velocity":110,"channel":0},{"pitch":23,"velocity":120,"channel":0},{"pitch":21,"velocity":125,"channel":0},{"pitch":11,"velocity":121,"channel":0},{"pitch":11,"velocity":115,"channel":0},{"pitch":11,"velocity":120,"channel":0},{"pitch":11,"velocity":123,"channel":0},{"pitch":11,"velocity":121,"channel":0},{"pitch":49,"velocity":96,"channel":0},{"pitch":13,"velocity":109,"channel":0},{"pitch":11,"velocity":95,"channel":0},{"pitch":23,"velocity":115,"channel":0},{"pitch":83,"velocity":125,"channel":0},{"pitch":33,"velocity":92,"channel":0},{"pitch":23,"velocity":101,"channel":0},{"pitch":35,"velocity":109,"channel":0},{"pitch":23,"velocity":113,"channel":0},{"pitch":23,"velocity":110,"channel":0},{"pitch":23,"velocity":104,"channel":0},{"pitch":83,"velocity":103,"channel":0},{"pitch":23,"velocity":124,"channel":0},{"pitch":23,"velocity":93,"channel":0},{"pitch":23,"velocity":110,"channel":0},{"pitch":95,"velocity":120,"channel":0},{"pitch":73,"velocity":91,"channel":0},{"pitch":11,"velocity":109,"channel":0},{"pitch":105,"velocity":115,"channel":0},{"pitch":95,"velocity":101,"channel":0},{"pitch":105,"velocity":106,"channel":0},{"pitch":1,"velocity":121,"channel":0},{"pitch":105,"velocity":97,"channel":0},{"pitch":11,"velocity":102,"channel":0},{"pitch":21,"velocity":114,"channel":0},{"pitch":69,"velocity":104,"channel":0},{"pitch":73,"velocity":103,"channel":0},{"pitch":73,"velocity":108,"channel":0},{"pitch":73,"velocity":125,"channel":0},{"pitch":73,"velocity":104,"channel":0},{"pitch":73,"velocity":104,"channel":0},{"pitch":73,"velocity":96,"channel":0},{"pitch":11,"velocity":107,"channel":0},{"pitch":13,"velocity":106,"channel":0},{"pitch":35,"velocity":121,"channel":0},{"pitch":13,"velocity":97,"channel":0},{"pitch":13,"velocity":115,"channel":0},{"pitch":13,"velocity":113,"channel":0},{"pitch":23,"velocity":102,"channel":0},{"pitch":1,"velocity":121,"channel":0},{"pitch":61,"velocity":91,"channel":0},{"pitch":61,"velocity":124,"channel":0},{"pitch":21,"velocity":101,"channel":0},{"pitch":21,"velocity":116,"channel":0},{"pitch":35,"velocity":113,"channel":0},{"pitch":73,"velocity":98,"channel":0},{"pitch":11,"velocity":121,"channel":0},{"pitch":11,"velocity":108,"channel":0},{"pitch":11,"velocity":92,"channel":0},{"pitch":59,"velocity":103,"channel":0},{"pitch":21,"velocity":101,"channel":0},{"pitch":21,"velocity":120,"channel":0},{"pitch":21,"velocity":118,"channel":0},{"pitch":23,"velocity":113,"channel":0},{"pitch":13,"velocity":100,"channel":0},{"pitch":71,"velocity":101,"channel":0},{"pitch":71,"velocity":103,"channel":0},{"pitch":83,"velocity":108,"channel":0},{"pitch":71,"velocity":114,"channel":0},{"pitch":1,"velocity":106,"channel":0},{"pitch":13,"velocity":98,"channel":0},{"pitch":49,"velocity":116,"channel":0},{"pitch":13,"velocity":104,"channel":0},{"pitch":13,"velocity":116,"channel":0},{"pitch":85,"velocity":108,"channel":0},{"pitch":13,"velocity":116,"channel":0},{"pitch":49,"velocity":115,"channel":0},{"pitch":83,"velocity":110,"channel":0},{"pitch":9,"velocity":114,"channel":0},{"pitch":9,"velocity":110,"channel":0},{"pitch":9,"velocity":107,"channel":0},{"pitch":9,"velocity":103,"channel":0},{"pitch":9,"velocity":124,"channel":0},{"pitch":9,"velocity":93,"channel":0},{"pitch":9,"velocity":118,"channel":0},{"pitch":59,"velocity":112,"channel":0},{"pitch":73,"velocity":102,"channel":0},{"pitch":73,"velocity":115,"channel":0},{"pitch":73,"velocity":106,"channel":0},{"pitch":61,"velocity":109,"channel":0},{"pitch":21,"velocity":109,"channel":0},{"pitch":11,"velocity":127,"channel":0},{"pitch":9,"velocity":110,"channel":0},{"pitch":11,"velocity":119,"channel":0},{"pitch":21,"velocity":101,"channel":0},{"pitch":11,"velocity":96,"channel":0},{"pitch":11,"velocity":96,"channel":0},{"pitch":11,"velocity":109,"channel":0},{"pitch":9,"velocity":110,"channel":0},{"pitch":73,"velocity":103,"channel":0},{"pitch":73,"velocity":104,"channel":0},{"pitch":71,"velocity":106,"channel":0},{"pitch":71,"velocity":116,"channel":0},{"pitch":83,"velocity":108,"channel":0},{"pitch":71,"velocity":115,"channel":0},{"pitch":71,"velocity":113,"channel":0},{"pitch":21,"velocity":113,"channel":0},{"pitch":1,"velocity":119,"channel":0},{"pitch":83,"velocity":101,"channel":0},{"pitch":1,"velocity":108,"channel":0},{"pitch":1,"velocity":106,"channel":0},{"pitch":1,"velocity":107,"channel":0},{"pitch":1,"velocity":123,"channel":0},{"pitch":85,"velocity":110,"channel":0},{"pitch":9,"velocity":100,"channel":0},{"pitch":1,"velocity":127,"channel":0},{"pitch":9,"velocity":95,"channel":0},{"pitch":9,"velocity":120,"channel":0},{"pitch":9,"velocity":126,"channel":0},{"pitch":9,"velocity":106,"channel":0},{"pitch":9,"velocity":106,"channel":0},{"pitch":9,"velocity":115,"channel":0},{"pitch":93,"velocity":110,"channel":0},{"pitch":59,"velocity":127,"channel":0},{"pitch":25,"velocity":107,"channel":0},{"pitch":13,"velocity":120,"channel":0},{"pitch":25,"velocity":112,"channel":0},{"pitch":35,"velocity":116,"channel":0},{"pitch":25,"velocity":107,"channel":0},{"pitch":25,"velocity":102,"channel":0},{"pitch":25,"velocity":107,"channel":0},{"pitch":23,"velocity":127,"channel":0},{"pitch":59,"velocity":112,"channel":0},{"pitch":23,"velocity":119,"channel":0},{"pitch":23,"velocity":115,"channel":0},{"pitch":23,"velocity":103,"channel":0},{"pitch":23,"velocity":118,"channel":0},{"pitch":23,"velocity":120,"channel":0},{"pitch":59,"velocity":116,"channel":0},{"pitch":11,"velocity":113,"channel":0},{"pitch":11,"velocity":98,"channel":0},{"pitch":59,"velocity":90,"channel":0},{"pitch":21,"velocity":119,"channel":0},{"pitch":1,"velocity":106,"channel":0},{"pitch":107,"velocity":124,"channel":0},{"pitch":73,"velocity":101,"channel":0},{"pitch":13,"velocity":118,"channel":0},{"pitch":23,"velocity":127,"channel":0},{"pitch":33,"velocity":127,"channel":0},{"pitch":57,"velocity":112,"channel":0},{"pitch":33,"velocity":120,"channel":0},{"pitch":33,"velocity":118,"channel":0},{"pitch":85,"velocity":93,"channel":0},{"pitch":21,"velocity":121,"channel":0},{"pitch":95,"velocity":123,"channel":0},{"pitch":21,"velocity":102,"channel":0},{"pitch":85,"velocity":123,"channel":0},{"pitch":73,"velocity":113,"channel":0},{"pitch":85,"velocity":109,"channel":0},{"pitch":93,"velocity":108,"channel":0},{"pitch":35,"velocity":103,"channel":0},{"pitch":25,"velocity":112,"channel":0},{"pitch":59,"velocity":119,"channel":0},{"pitch":25,"velocity":116,"channel":0},{"pitch":21,"velocity":120,"channel":0},{"pitch":11,"velocity":116,"channel":0},{"pitch":21,"velocity":120,"channel":0},{"pitch":21,"velocity":112,"channel":0},{"pitch":73,"velocity":120,"channel":0},{"pitch":59,"velocity":127,"channel":0},{"pitch":95,"velocity":109,"channel":0},{"pitch":71,"velocity":103,"channel":0},{"pitch":25,"velocity":107,"channel":0},{"pitch":95,"velocity":97,"channel":0},{"pitch":21,"velocity":118,"channel":0},{"pitch":33,"velocity":100,"channel":0},{"pitch":81,"velocity":126,"channel":0},{"pitch":21,"velocity":125,"channel":0},{"pitch":21,"velocity":109,"channel":0},{"pitch":21,"velocity":107,"channel":0},{"pitch":93,"velocity":109,"channel":0},{"pitch":11,"velocity":97,"channel":0},{"pitch":13,"velocity":119,"channel":0},{"pitch":23,"velocity":98,"channel":0},{"pitch":13,"velocity":124,"channel":0},{"pitch":23,"velocity":116,"channel":0},{"pitch":9,"velocity":118,"channel":0},{"pitch":13,"velocity":115,"channel":0},{"pitch":13,"velocity":101,"channel":0},{"pitch":13,"velocity":116,"channel":0},{"pitch":11,"velocity":107,"channel":0},{"pitch":11,"velocity":116,"channel":0},{"pitch":1,"velocity":112,"channel":0},{"pitch":23,"velocity":115,"channel":0},{"pitch":13,"velocity":110,"channel":0},{"pitch":1,"velocity":108,"channel":0},{"pitch":13,"velocity":93,"channel":0},{"pitch":49,"velocity":109,"channel":0},{"pitch":49,"velocity":73,"channel":0},{"pitch":35,"velocity":104,"channel":0},{"pitch":35,"velocity":91,"channel":0},{"pitch":35,"velocity":121,"channel":0},{"pitch":25,"velocity":115,"channel":0},{"pitch":35,"velocity":98,"channel":0},{"pitch":59,"velocity":95,"channel":0},{"pitch":49,"velocity":121,"channel":0},{"pitch":25,"velocity":123,"channel":0},{"pitch":25,"velocity":106,"channel":0},{"pitch":25,"velocity":96,"channel":0},{"pitch":25,"velocity":104,"channel":0},{"pitch":25,"velocity":116,"channel":0},{"pitch":25,"velocity":127,"channel":0},{"pitch":85,"velocity":109,"channel":0},{"pitch":11,"velocity":112,"channel":0},{"pitch":93,"velocity":118,"channel":0},{"pitch":21,"velocity":103,"channel":0},{"pitch":21,"velocity":107,"channel":0},{"pitch":21,"velocity":100,"channel":0},{"pitch":21,"velocity":115,"channel":0},{"pitch":33,"velocity":125,"channel":0},{"pitch":21,"velocity":115,"channel":0},{"pitch":13,"velocity":116,"channel":0},{"pitch":23,"velocity":106,"channel":0},{"pitch":21,"velocity":102,"channel":0},{"pitch":95,"velocity":108,"channel":0},{"pitch":83,"velocity":120,"channel":0},{"pitch":23,"velocity":112,"channel":0},{"pitch":95,"velocity":123,"channel":0},{"pitch":23,"velocity":100,"channel":0},{"pitch":23,"velocity":119,"channel":0},{"pitch":11,"velocity":116,"channel":0},{"pitch":13,"velocity":110,"channel":0},{"pitch":9,"velocity":115,"channel":0},{"pitch":85,"velocity":106,"channel":0},{"pitch":13,"velocity":102,"channel":0},{"pitch":13,"velocity":112,"channel":0},{"pitch":13,"velocity":120,"channel":0},{"pitch":85,"velocity":114,"channel":0},{"pitch":13,"velocity":121,"channel":0},{"pitch":49,"velocity":115,"channel":0}],"stageTiming":{"beat-setup":16.6201,"intent":0.0113,"entropy":0.2077,"phase":0.022,"climax":0.0349,"envelope":0.031,"silhouette":0.0187,"rest":0.0504,"complement":0.0015,"tension-cadence":0.1196,"negotiation":0.0254,"probability-adjust":0.0023,"emission":3.5499,"post-beat":0.0224},"iterBudget":{"raw":160,"capped":160,"wasCapped":false}}
{"layer":"L1","beatKey":"0:0:3:7","timeMs":7166.666666666666,"snap":{"key":"D#","mode":"locrian","quality":"minor","scale":["D#","E","F#","G#","A","B","C#"],"chords":[],"tension":0.21891727944621148,"harmonicRhythm":0.4096324107576737,"harmonicMutationCount":5,"excursion":0,"sectionPhase":"opening","phrasePosition":0.4,"phrasePhase":"development","phraseDynamism":1,"registerBias":5.412678195541842,"densityMultiplier":1.1804226065180614,"voiceIndependence":0.5,"compositeIntensity":0.42886637322980387,"playProb":0.32622862748591325,"stutterProb":0.22575954576039206,"flicker":1.1495766653653232,"textureMode":"flurry","textureFatigue":0.05833333333333333,"densityBias":0,"crossModBias":1,"emissionRatio":0.012019727345931713,"extraDensityCorrection":1.1975960545308137,"extraCoherenceDensityBias":1,"activeProfile":"restrained","journeyMove":"origin","journeyDistance":0,"journeyKey":"D#","journeyMode":"locrian","binauralFreqOffset":8,"binauralFlip":false,"tick":262500,"updatedAt":1772749048446},"negotiation":{"playProb":0.3283860549082663,"stutterProb":0.25967056343843836,"allowCadence":false,"conflict":0.0023111059136009526,"phaseConfidence":0.275},"trust":{"stutterContagion":{"score":0.19595907563891127,"samples":44,"weight":1.1469693067291835},"cadenceAlignment":{"score":0.19595907563891127,"samples":44,"weight":1.15},"phaseLock":{"score":0.24157590192496747,"samples":44,"weight":1.1811819264437255},"convergence":{"score":0.20139429590408595,"samples":44,"weight":1.1510457219280645},"feedbackOscillator":{"score":0.19605245212842476,"samples":44,"weight":1.1470393390963185},"coherenceMonitor":{"score":0.6853069288741057,"samples":44,"weight":1.5139801966555793},"entropyRegulator":{"score":0.6993270017142825,"samples":44,"weight":1.524495251285712},"restSynchronizer":{"score":0.19595907563891127,"samples":44,"weight":1.1469693067291835}},"regime":"initializing","coupling":{},"couplingTargets":{},"axisCouplingTotals":{"density":0,"tension":0,"flicker":0,"entropy":0,"trust":0,"phase":0},"axisEnergyShare":{"shares":{"density":0,"tension":0,"flicker":0,"entropy":0,"trust":0,"phase":0},"axisGini":0},"couplingGates":{"gateD":1,"gateT":1,"gateF":1,"floorDampen":1,"bypassD":0,"bypassT":0,"bypassF":0,"gateMinD":1,"gateMinT":1,"gateMinF":1,"gateEmaD":1,"gateEmaT":1,"gateEmaF":1,"gateBeatCount":4},"couplingHomeostasis":{"totalEnergyEma":0,"energyBudget":3.5,"peakEnergyEma":0,"totalEnergyFloor":8,"floorDampen":1,"redistributionScore":0,"nudgeableRedistributionScore":0,"globalGainMultiplier":1,"giniCoefficient":0,"energyDeltaEma":0,"pairTurbulenceEma":0,"beatCount":0,"invokeCount":4,"tickCount":44,"emptyMatrixBeats":4,"multiplierMin":1,"multiplierMax":1,"multiplierStdDev":0,"floorContactBeats":0,"ceilingContactBeats":44,"avgRecoveryDuration":0},"axisEnergyEquilibrator":{"beatCount":4,"pairAdjustments":0,"axisAdjustments":0,"smoothedShares":{"density":0,"tension":0,"flicker":0,"entropy":0,"trust":0,"phase":0},"perAxisAdj":{},"perPairAdj":{},"lastBaselines":{},"regimeBeats":{},"regimePairAdj":{},"regimeAxisAdj":{},"regimeTightenBudget":{}},"transitionReadiness":{"gap":0,"couplingStrength":0,"coherentThreshold":0,"velocity":0,"velThreshold":0.008,"thresholdScale":0.65,"velocityBlocked":false,"exploringBlock":"velocity","rawRegimeCounts":{},"rawRegimeMaxStreak":{},"effectiveDim":0},"notes":[{"pitch":9,"velocity":113,"channel":0},{"pitch":59,"velocity":119,"channel":0},{"pitch":1,"velocity":121,"channel":0},{"pitch":93,"velocity":90,"channel":0},{"pitch":93,"velocity":114,"channel":0},{"pitch":83,"velocity":103,"channel":0},{"pitch":21,"velocity":105,"channel":0},{"pitch":85,"velocity":106,"channel":0},{"pitch":107,"velocity":93,"channel":0},{"pitch":95,"velocity":111,"channel":0},{"pitch":81,"velocity":112,"channel":0},{"pitch":13,"velocity":93,"channel":0},{"pitch":93,"velocity":105,"channel":0},{"pitch":93,"velocity":124,"channel":0},{"pitch":1,"velocity":108,"channel":0},{"pitch":33,"velocity":125,"channel":0},{"pitch":23,"velocity":115,"channel":0},{"pitch":73,"velocity":109,"channel":0},{"pitch":13,"velocity":125,"channel":0},{"pitch":13,"velocity":108,"channel":0},{"pitch":13,"velocity":90,"channel":0},{"pitch":37,"velocity":119,"channel":0},{"pitch":45,"velocity":107,"channel":0},{"pitch":11,"velocity":96,"channel":0},{"pitch":11,"velocity":106,"channel":0},{"pitch":49,"velocity":113,"channel":0},{"pitch":61,"velocity":118,"channel":0},{"pitch":61,"velocity":108,"channel":0},{"pitch":61,"velocity":114,"channel":0},{"pitch":83,"velocity":114,"channel":0},{"pitch":61,"velocity":126,"channel":0},{"pitch":61,"velocity":127,"channel":0},{"pitch":85,"velocity":118,"channel":0},{"pitch":93,"velocity":100,"channel":0},{"pitch":1,"velocity":103,"channel":0},{"pitch":1,"velocity":106,"channel":0},{"pitch":1,"velocity":114,"channel":0},{"pitch":11,"velocity":118,"channel":0},{"pitch":11,"velocity":109,"channel":0},{"pitch":21,"velocity":111,"channel":0},{"pitch":21,"velocity":101,"channel":0},{"pitch":21,"velocity":117,"channel":0},{"pitch":21,"velocity":113,"channel":0},{"pitch":21,"velocity":105,"channel":0},{"pitch":1,"velocity":103,"channel":0},{"pitch":83,"velocity":90,"channel":0},{"pitch":83,"velocity":105,"channel":0},{"pitch":9,"velocity":101,"channel":0},{"pitch":49,"velocity":96,"channel":0},{"pitch":25,"velocity":103,"channel":0},{"pitch":47,"velocity":114,"channel":0},{"pitch":47,"velocity":88,"channel":0},{"pitch":9,"velocity":103,"channel":0},{"pitch":33,"velocity":115,"channel":0},{"pitch":9,"velocity":107,"channel":0},{"pitch":9,"velocity":107,"channel":0},{"pitch":9,"velocity":103,"channel":0},{"pitch":81,"velocity":105,"channel":0},{"pitch":95,"velocity":91,"channel":0},{"pitch":35,"velocity":108,"channel":0},{"pitch":9,"velocity":102,"channel":0},{"pitch":37,"velocity":108,"channel":0},{"pitch":37,"velocity":100,"channel":0},{"pitch":9,"velocity":121,"channel":0},{"pitch":37,"velocity":93,"channel":0},{"pitch":57,"velocity":112,"channel":0},{"pitch":9,"velocity":93,"channel":0},{"pitch":81,"velocity":109,"channel":0},{"pitch":35,"velocity":120,"channel":0},{"pitch":25,"velocity":106,"channel":0},{"pitch":25,"velocity":105,"channel":0},{"pitch":1,"velocity":101,"channel":0},{"pitch":93,"velocity":100,"channel":0},{"pitch":81,"velocity":96,"channel":0},{"pitch":23,"velocity":102,"channel":0},{"pitch":23,"velocity":108,"channel":0},{"pitch":25,"velocity":120,"channel":0},{"pitch":11,"velocity":112,"channel":0},{"pitch":23,"velocity":90,"channel":0},{"pitch":23,"velocity":117,"channel":0},{"pitch":81,"velocity":113,"channel":0},{"pitch":59,"velocity":120,"channel":0},{"pitch":1,"velocity":107,"channel":0},{"pitch":23,"velocity":109,"channel":0},{"pitch":35,"velocity":99,"channel":0},{"pitch":23,"velocity":101,"channel":0},{"pitch":23,"velocity":118,"channel":0},{"pitch":59,"velocity":109,"channel":0},{"pitch":1,"velocity":122,"channel":0}],"stageTiming":{"beat-setup":19.1083,"intent":0.0113,"entropy":0.1651,"phase":0.0222,"climax":0.0226,"envelope":0.0123,"silhouette":0.0151,"rest":0.0425,"complement":0.0019,"tension-cadence":0.1693,"negotiation":0.0212,"probability-adjust":0.0022,"emission":2.821,"post-beat":0.0262},"iterBudget":{"raw":396,"capped":396,"wasCapped":false}}
{"layer":"L1","beatKey":"0:0:3:8","timeMs":7333.333333333333,"snap":{"key":"D#","mode":"locrian","quality":"minor","scale":["D#","E","F#","G#","A","B","C#"],"chords":[],"tension":0.21891727944621148,"harmonicRhythm":0.4096324107576737,"harmonicMutationCount":5,"excursion":0,"sectionPhase":"opening","phrasePosition":0.4,"phrasePhase":"development","phraseDynamism":1,"registerBias":5.412678195541842,"densityMultiplier":1.1804226065180614,"voiceIndependence":0.5,"compositeIntensity":0.38568694465822645,"playProb":0.32622862748591325,"stutterProb":0.22575954576039206,"flicker":1.1495766653653232,"textureMode":"chordBurst","textureFatigue":0.08333333333333333,"densityBias":0,"crossModBias":1,"emissionRatio":0.012019727345931713,"extraDensityCorrection":1.1975960545308137,"extraCoherenceDensityBias":1,"activeProfile":"restrained","journeyMove":"origin","journeyDistance":0,"journeyKey":"D#","journeyMode":"locrian","binauralFreqOffset":8,"binauralFlip":false,"tick":262500,"updatedAt":1772749061280},"negotiation":{"playProb":0.33022618138670395,"stutterProb":0.26136958248934455,"allowCadence":false,"conflict":0.003030693270816398,"phaseConfidence":0.275},"trust":{"stutterContagion":{"score":0.1947158379958779,"samples":45,"weight":1.1460368784969084},"cadenceAlignment":{"score":0.1947158379958779,"samples":45,"weight":1.15},"phaseLock":{"score":0.24180126842073826,"samples":45,"weight":1.1813509513155538},"convergence":{"score":0.20105361144736367,"samples":45,"weight":1.1507902085855228},"feedbackOscillator":{"score":0.19495547852167244,"samples":45,"weight":1.1462166088912542},"coherenceMonitor":{"score":0.6907032951717876,"samples":45,"weight":1.5180274713788409},"entropyRegulator":{"score":0.6820214159120316,"samples":45,"weight":1.5115160619340235},"restSynchronizer":{"score":0.1947158379958779,"samples":45,"weight":1.1460368784969084}},"regime":"initializing","coupling":{},"couplingTargets":{},"axisCouplingTotals":{"density":0,"tension":0,"flicker":0,"entropy":0,"trust":0,"phase":0},"axisEnergyShare":{"shares":{"density":0,"tension":0,"flicker":0,"entropy":0,"trust":0,"phase":0},"axisGini":0},"couplingGates":{"gateD":1,"gateT":1,"gateF":1,"floorDampen":1,"bypassD":0,"bypassT":0,"bypassF":0,"gateMinD":1,"gateMinT":1,"gateMinF":1,"gateEmaD":1,"gateEmaT":1,"gateEmaF":1,"gateBeatCount":4},"couplingHomeostasis":{"totalEnergyEma":0,"energyBudget":3.5,"peakEnergyEma":0,"totalEnergyFloor":8,"floorDampen":1,"redistributionScore":0,"nudgeableRedistributionScore":0,"globalGainMultiplier":1,"giniCoefficient":0,"energyDeltaEma":0,"pairTurbulenceEma":0,"beatCount":0,"invokeCount":4,"tickCount":45,"emptyMatrixBeats":4,"multiplierMin":1,"multiplierMax":1,"multiplierStdDev":0,"floorContactBeats":0,"ceilingContactBeats":45,"avgRecoveryDuration":0},"axisEnergyEquilibrator":{"beatCount":4,"pairAdjustments":0,"axisAdjustments":0,"smoothedShares":{"density":0,"tension":0,"flicker":0,"entropy":0,"trust":0,"phase":0},"perAxisAdj":{},"perPairAdj":{},"lastBaselines":{},"regimeBeats":{},"regimePairAdj":{},"regimeAxisAdj":{},"regimeTightenBudget":{}},"transitionReadiness":{"gap":0,"couplingStrength":0,"coherentThreshold":0,"velocity":0,"velThreshold":0.008,"thresholdScale":0.65,"velocityBlocked":false,"exploringBlock":"velocity","rawRegimeCounts":{},"rawRegimeMaxStreak":{},"effectiveDim":0},"notes":[{"pitch":59,"velocity":114,"channel":0},{"pitch":73,"velocity":122,"channel":0},{"pitch":11,"velocity":109,"channel":0},{"pitch":59,"velocity":103,"channel":0},{"pitch":73,"velocity":102,"channel":0},{"pitch":25,"velocity":97,"channel":0},{"pitch":25,"velocity":115,"channel":0},{"pitch":73,"velocity":94,"channel":0},{"pitch":73,"velocity":124,"channel":0},{"pitch":25,"velocity":121,"channel":0},{"pitch":25,"velocity":103,"channel":0},{"pitch":59,"velocity":115,"channel":0},{"pitch":25,"velocity":101,"channel":0},{"pitch":83,"velocity":101,"channel":0},{"pitch":85,"velocity":115,"channel":0},{"pitch":97,"velocity":106,"channel":0},{"pitch":1,"velocity":113,"channel":0},{"pitch":9,"velocity":122,"channel":0},{"pitch":9,"velocity":118,"channel":0},{"pitch":9,"velocity":102,"channel":0},{"pitch":81,"velocity":114,"channel":0},{"pitch":9,"velocity":91,"channel":0},{"pitch":25,"velocity":109,"channel":0},{"pitch":1,"velocity":125,"channel":0},{"pitch":25,"velocity":115,"channel":0},{"pitch":49,"velocity":118,"channel":0},{"pitch":11,"velocity":109,"channel":0},{"pitch":21,"velocity":125,"channel":0},{"pitch":81,"velocity":107,"channel":0},{"pitch":21,"velocity":103,"channel":0},{"pitch":21,"velocity":115,"channel":0},{"pitch":21,"velocity":112,"channel":0},{"pitch":21,"velocity":119,"channel":0},{"pitch":81,"velocity":87,"channel":0},{"pitch":1,"velocity":112,"channel":0},{"pitch":35,"velocity":116,"channel":0},{"pitch":13,"velocity":102,"channel":0},{"pitch":11,"velocity":112,"channel":0},{"pitch":11,"velocity":108,"channel":0},{"pitch":11,"velocity":105,"channel":0},{"pitch":11,"velocity":99,"channel":0},{"pitch":11,"velocity":114,"channel":0},{"pitch":11,"velocity":94,"channel":0},{"pitch":1,"velocity":106,"channel":0},{"pitch":23,"velocity":125,"channel":0},{"pitch":81,"velocity":108,"channel":0},{"pitch":23,"velocity":106,"channel":0},{"pitch":23,"velocity":109,"channel":0},{"pitch":13,"velocity":91,"channel":0},{"pitch":85,"velocity":112,"channel":0},{"pitch":1,"velocity":93,"channel":0},{"pitch":47,"velocity":109,"channel":0},{"pitch":59,"velocity":99,"channel":0},{"pitch":73,"velocity":114,"channel":0},{"pitch":49,"velocity":95,"channel":0},{"pitch":1,"velocity":122,"channel":0},{"pitch":47,"velocity":100,"channel":0},{"pitch":47,"velocity":112,"channel":0},{"pitch":95,"velocity":126,"channel":0},{"pitch":95,"velocity":91,"channel":0},{"pitch":1,"velocity":127,"channel":0},{"pitch":11,"velocity":105,"channel":0},{"pitch":11,"velocity":106,"channel":0},{"pitch":11,"velocity":94,"channel":0},{"pitch":1,"velocity":113,"channel":0},{"pitch":11,"velocity":113,"channel":0},{"pitch":73,"velocity":100,"channel":0},{"pitch":11,"velocity":96,"channel":0},{"pitch":11,"velocity":115,"channel":0},{"pitch":11,"velocity":108,"channel":0},{"pitch":83,"velocity":120,"channel":0},{"pitch":11,"velocity":107,"channel":0},{"pitch":23,"velocity":93,"channel":0},{"pitch":1,"velocity":107,"channel":0},{"pitch":1,"velocity":88,"channel":0},{"pitch":1,"velocity":91,"channel":0},{"pitch":1,"velocity":100,"channel":0},{"pitch":95,"velocity":120,"channel":0},{"pitch":33,"velocity":114,"channel":0},{"pitch":21,"velocity":113,"channel":0},{"pitch":21,"velocity":107,"channel":0},{"pitch":21,"velocity":113,"channel":0},{"pitch":21,"velocity":103,"channel":0},{"pitch":1,"velocity":116,"channel":0},{"pitch":11,"velocity":103,"channel":0},{"pitch":11,"velocity":113,"channel":0},{"pitch":11,"velocity":97,"channel":0},{"pitch":11,"velocity":119,"channel":0},{"pitch":21,"velocity":96,"channel":0},{"pitch":25,"velocity":95,"channel":0},{"pitch":11,"velocity":119,"channel":0},{"pitch":11,"velocity":103,"channel":0},{"pitch":35,"velocity":116,"channel":0},{"pitch":11,"velocity":102,"channel":0},{"pitch":1,"velocity":108,"channel":0},{"pitch":11,"velocity":102,"channel":0},{"pitch":11,"velocity":111,"channel":0},{"pitch":83,"velocity":119,"channel":0},{"pitch":11,"velocity":118,"channel":0},{"pitch":1,"velocity":99,"channel":0},{"pitch":83,"velocity":108,"channel":0},{"pitch":35,"velocity":107,"channel":0},{"pitch":57,"velocity":112,"channel":0},{"pitch":1,"velocity":106,"channel":0},{"pitch":11,"velocity":96,"channel":0},{"pitch":83,"velocity":102,"channel":0},{"pitch":11,"velocity":93,"channel":0},{"pitch":11,"velocity":121,"channel":0},{"pitch":11,"velocity":121,"channel":0},{"pitch":11,"velocity":112,"channel":0},{"pitch":1,"velocity":126,"channel":0},{"pitch":13,"velocity":101,"channel":0},{"pitch":49,"velocity":115,"channel":0},{"pitch":49,"velocity":109,"channel":0},{"pitch":13,"velocity":95,"channel":0},{"pitch":13,"velocity":108,"channel":0},{"pitch":85,"velocity":109,"channel":0},{"pitch":11,"velocity":101,"channel":0},{"pitch":11,"velocity":109,"channel":0},{"pitch":11,"velocity":112,"channel":0},{"pitch":35,"velocity":111,"channel":0},{"pitch":1,"velocity":111,"channel":0},{"pitch":11,"velocity":103,"channel":0},{"pitch":11,"velocity":122,"channel":0},{"pitch":25,"velocity":124,"channel":0},{"pitch":59,"velocity":102,"channel":0},{"pitch":11,"velocity":108,"channel":0},{"pitch":11,"velocity":91,"channel":0},{"pitch":11,"velocity":93,"channel":0},{"pitch":11,"velocity":118,"channel":0},{"pitch":35,"velocity":113,"channel":0},{"pitch":73,"velocity":113,"channel":0},{"pitch":83,"velocity":108,"channel":0},{"pitch":1,"velocity":114,"channel":0},{"pitch":71,"velocity":108,"channel":0},{"pitch":71,"velocity":111,"channel":0},{"pitch":33,"velocity":77,"channel":0},{"pitch":1,"velocity":116,"channel":0},{"pitch":11,"velocity":107,"channel":0},{"pitch":11,"velocity":105,"channel":0},{"pitch":83,"velocity":119,"channel":0},{"pitch":11,"velocity":103,"channel":0},{"pitch":11,"velocity":115,"channel":0},{"pitch":59,"velocity":102,"channel":0},{"pitch":11,"velocity":94,"channel":0},{"pitch":83,"velocity":115,"channel":0},{"pitch":25,"velocity":107,"channel":0},{"pitch":35,"velocity":88,"channel":0},{"pitch":1,"velocity":120,"channel":0},{"pitch":25,"velocity":115,"channel":0},{"pitch":83,"velocity":109,"channel":0},{"pitch":35,"velocity":100,"channel":0},{"pitch":13,"velocity":91,"channel":0},{"pitch":49,"velocity":109,"channel":0},{"pitch":13,"velocity":115,"channel":0},{"pitch":1,"velocity":127,"channel":0},{"pitch":13,"velocity":127,"channel":0},{"pitch":33,"velocity":107,"channel":0},{"pitch":1,"velocity":89,"channel":0},{"pitch":25,"velocity":121,"channel":0},{"pitch":49,"velocity":118,"channel":0},{"pitch":49,"velocity":118,"channel":0},{"pitch":85,"velocity":127,"channel":0},{"pitch":23,"velocity":121,"channel":0},{"pitch":13,"velocity":103,"channel":0},{"pitch":35,"velocity":109,"channel":0},{"pitch":1,"velocity":118,"channel":0},{"pitch":59,"velocity":105,"channel":0},{"pitch":11,"velocity":106,"channel":0},{"pitch":11,"velocity":115,"channel":0},{"pitch":1,"velocity":121,"channel":0},{"pitch":11,"velocity":111,"channel":0},{"pitch":11,"velocity":116,"channel":0},{"pitch":11,"velocity":94,"channel":0},{"pitch":59,"velocity":116,"channel":0},{"pitch":11,"velocity":114,"channel":0},{"pitch":11,"velocity":115,"channel":0},{"pitch":33,"velocity":114,"channel":0},{"pitch":11,"velocity":106,"channel":0},{"pitch":11,"velocity":96,"channel":0},{"pitch":1,"velocity":122,"channel":0},{"pitch":11,"velocity":113,"channel":0},{"pitch":1,"velocity":127,"channel":0},{"pitch":73,"velocity":109,"channel":0},{"pitch":35,"velocity":102,"channel":0},{"pitch":11,"velocity":95,"channel":0},{"pitch":11,"velocity":111,"channel":0},{"pitch":35,"velocity":96,"channel":0},{"pitch":11,"velocity":108,"channel":0},{"pitch":11,"velocity":116,"channel":0},{"pitch":49,"velocity":108,"channel":0},{"pitch":11,"velocity":105,"channel":0},{"pitch":95,"velocity":116,"channel":0},{"pitch":11,"velocity":105,"channel":0},{"pitch":11,"velocity":103,"channel":0},{"pitch":1,"velocity":118,"channel":0},{"pitch":11,"velocity":100,"channel":0},{"pitch":95,"velocity":115,"channel":0},{"pitch":11,"velocity":116,"channel":0},{"pitch":11,"velocity":119,"channel":0},{"pitch":59,"velocity":108,"channel":0},{"pitch":1,"velocity":119,"channel":0},{"pitch":13,"velocity":127,"channel":0},{"pitch":11,"velocity":96,"channel":0},{"pitch":1,"velocity":112,"channel":0},{"pitch":11,"velocity":94,"channel":0},{"pitch":11,"velocity":105,"channel":0},{"pitch":11,"velocity":116,"channel":0},{"pitch":1,"velocity":102,"channel":0},{"pitch":9,"velocity":118,"channel":0},{"pitch":9,"velocity":113,"channel":0},{"pitch":9,"velocity":111,"channel":0},{"pitch":33,"velocity":91,"channel":0},{"pitch":1,"velocity":118,"channel":0},{"pitch":11,"velocity":108,"channel":0},{"pitch":11,"velocity":115,"channel":0},{"pitch":11,"velocity":122,"channel":0},{"pitch":11,"velocity":126,"channel":0},{"pitch":11,"velocity":115,"channel":0},{"pitch":1,"velocity":109,"channel":0},{"pitch":59,"velocity":103,"channel":0},{"pitch":35,"velocity":120,"channel":0},{"pitch":11,"velocity":103,"channel":0},{"pitch":21,"velocity":114,"channel":0},{"pitch":1,"velocity":119,"channel":0},{"pitch":11,"velocity":120,"channel":0},{"pitch":11,"velocity":97,"channel":0},{"pitch":11,"velocity":99,"channel":0},{"pitch":83,"velocity":93,"channel":0},{"pitch":83,"velocity":118,"channel":0},{"pitch":11,"velocity":100,"channel":0},{"pitch":83,"velocity":112,"channel":0},{"pitch":85,"velocity":119,"channel":0},{"pitch":35,"velocity":115,"channel":0},{"pitch":13,"velocity":101,"channel":0},{"pitch":35,"velocity":112,"channel":0},{"pitch":95,"velocity":116,"channel":0},{"pitch":35,"velocity":105,"channel":0},{"pitch":35,"velocity":116,"channel":0},{"pitch":59,"velocity":107,"channel":0},{"pitch":1,"velocity":106,"channel":0},{"pitch":11,"velocity":107,"channel":0},{"pitch":37,"velocity":100,"channel":0},{"pitch":37,"velocity":103,"channel":0},{"pitch":73,"velocity":111,"channel":0},{"pitch":9,"velocity":95,"channel":0},{"pitch":37,"velocity":88,"channel":0},{"pitch":37,"velocity":105,"channel":0},{"pitch":37,"velocity":93,"channel":0},{"pitch":37,"velocity":114,"channel":0},{"pitch":81,"velocity":102,"channel":0},{"pitch":13,"velocity":124,"channel":0},{"pitch":13,"velocity":113,"channel":0},{"pitch":13,"velocity":118,"channel":0},{"pitch":37,"velocity":124,"channel":0},{"pitch":35,"velocity":109,"channel":0},{"pitch":9,"velocity":105,"channel":0},{"pitch":9,"velocity":114,"channel":0},{"pitch":9,"velocity":112,"channel":0},{"pitch":9,"velocity":111,"channel":0},{"pitch":9,"velocity":113,"channel":0},{"pitch":21,"velocity":91,"channel":0},{"pitch":83,"velocity":103,"channel":0},{"pitch":59,"velocity":106,"channel":0},{"pitch":11,"velocity":102,"channel":0},{"pitch":11,"velocity":122,"channel":0},{"pitch":11,"velocity":116,"channel":0},{"pitch":11,"velocity":121,"channel":0},{"pitch":83,"velocity":113,"channel":0},{"pitch":11,"velocity":120,"channel":0},{"pitch":33,"velocity":118,"channel":0},{"pitch":11,"velocity":121,"channel":0},{"pitch":11,"velocity":118,"channel":0},{"pitch":11,"velocity":96,"channel":0},{"pitch":11,"velocity":127,"channel":0},{"pitch":11,"velocity":101,"channel":0},{"pitch":11,"velocity":96,"channel":0},{"pitch":83,"velocity":115,"channel":0},{"pitch":1,"velocity":122,"channel":0},{"pitch":11,"velocity":99,"channel":0},{"pitch":37,"velocity":99,"channel":0},{"pitch":37,"velocity":106,"channel":0},{"pitch":37,"velocity":106,"channel":0},{"pitch":11,"velocity":126,"channel":0},{"pitch":11,"velocity":116,"channel":0},{"pitch":59,"velocity":100,"channel":0},{"pitch":59,"velocity":103,"channel":0},{"pitch":47,"velocity":100,"channel":0},{"pitch":11,"velocity":124,"channel":0},{"pitch":13,"velocity":121,"channel":0},{"pitch":83,"velocity":106,"channel":0},{"pitch":1,"velocity":109,"channel":0},{"pitch":13,"velocity":127,"channel":0},{"pitch":13,"velocity":102,"channel":0},{"pitch":13,"velocity":120,"channel":0},{"pitch":13,"velocity":120,"channel":0},{"pitch":13,"velocity":112,"channel":0},{"pitch":13,"velocity":108,"channel":0},{"pitch":13,"velocity":103,"channel":0},{"pitch":25,"velocity":105,"channel":0},{"pitch":1,"velocity":120,"channel":0},{"pitch":1,"velocity":97,"channel":0},{"pitch":85,"velocity":103,"channel":0},{"pitch":13,"velocity":99,"channel":0},{"pitch":85,"velocity":105,"channel":0},{"pitch":11,"velocity":105,"channel":0},{"pitch":13,"velocity":103,"channel":0},{"pitch":13,"velocity":108,"channel":0},{"pitch":9,"velocity":102,"channel":0},{"pitch":13,"velocity":101,"channel":0},{"pitch":13,"velocity":124,"channel":0},{"pitch":1,"velocity":118,"channel":0},{"pitch":11,"velocity":107,"channel":0},{"pitch":11,"velocity":116,"channel":0},{"pitch":35,"velocity":114,"channel":0},{"pitch":25,"velocity":125,"channel":0},{"pitch":11,"velocity":111,"channel":0},{"pitch":9,"velocity":103,"channel":0},{"pitch":83,"velocity":91,"channel":0},{"pitch":59,"velocity":97,"channel":0},{"pitch":11,"velocity":76,"channel":0},{"pitch":83,"velocity":125,"channel":0},{"pitch":11,"velocity":121,"channel":0},{"pitch":35,"velocity":102,"channel":0},{"pitch":73,"velocity":106,"channel":0},{"pitch":83,"velocity":125,"channel":0},{"pitch":13,"velocity":107,"channel":0},{"pitch":23,"velocity":111,"channel":0},{"pitch":49,"velocity":102,"channel":0},{"pitch":35,"velocity":111,"channel":0},{"pitch":33,"velocity":115,"channel":0},{"pitch":23,"velocity":122,"channel":0},{"pitch":59,"velocity":95,"channel":0},{"pitch":33,"velocity":107,"channel":0},{"pitch":1,"velocity":108,"channel":0},{"pitch":23,"velocity":96,"channel":0},{"pitch":23,"velocity":112,"channel":0},{"pitch":23,"velocity":112,"channel":0},{"pitch":1,"velocity":74,"channel":0},{"pitch":23,"velocity":106,"channel":0},{"pitch":11,"velocity":105,"channel":0},{"pitch":11,"velocity":121,"channel":0},{"pitch":11,"velocity":115,"channel":0},{"pitch":59,"velocity":107,"channel":0},{"pitch":11,"velocity":97,"channel":0},{"pitch":59,"velocity":106,"channel":0},{"pitch":73,"velocity":97,"channel":0},{"pitch":23,"velocity":122,"channel":0},{"pitch":35,"velocity":112,"channel":0},{"pitch":1,"velocity":116,"channel":0},{"pitch":23,"velocity":122,"channel":0},{"pitch":49,"velocity":118,"channel":0},{"pitch":95,"velocity":106,"channel":0},{"pitch":1,"velocity":109,"channel":0},{"pitch":83,"velocity":102,"channel":0},{"pitch":83,"velocity":97,"channel":0},{"pitch":1,"velocity":109,"channel":0},{"pitch":11,"velocity":97,"channel":0},{"pitch":1,"velocity":105,"channel":0},{"pitch":1,"velocity":105,"channel":0},{"pitch":11,"velocity":114,"channel":0},{"pitch":35,"velocity":106,"channel":0},{"pitch":1,"velocity":90,"channel":0},{"pitch":25,"velocity":116,"channel":0},{"pitch":61,"velocity":111,"channel":0},{"pitch":93,"velocity":109,"channel":0},{"pitch":61,"velocity":112,"channel":0},{"pitch":93,"velocity":105,"channel":0},{"pitch":61,"velocity":86,"channel":0},{"pitch":47,"velocity":120,"channel":0},{"pitch":49,"velocity":116,"channel":0},{"pitch":49,"velocity":114,"channel":0},{"pitch":49,"velocity":116,"channel":0},{"pitch":49,"velocity":96,"channel":0},{"pitch":49,"velocity":120,"channel":0},{"pitch":59,"velocity":107,"channel":0},{"pitch":49,"velocity":120,"channel":0},{"pitch":47,"velocity":111,"channel":0},{"pitch":49,"velocity":78,"channel":0},{"pitch":49,"velocity":111,"channel":0},{"pitch":49,"velocity":107,"channel":0},{"pitch":49,"velocity":116,"channel":0},{"pitch":49,"velocity":113,"channel":0},{"pitch":49,"velocity":95,"channel":0},{"pitch":59,"velocity":119,"channel":0},{"pitch":59,"velocity":122,"channel":0},{"pitch":59,"velocity":118,"channel":0},{"pitch":59,"velocity":116,"channel":0},{"pitch":59,"velocity":102,"channel":0},{"pitch":59,"velocity":119,"channel":0},{"pitch":59,"velocity":120,"channel":0},{"pitch":25,"velocity":114,"channel":0},{"pitch":49,"velocity":105,"channel":0},{"pitch":49,"velocity":103,"channel":0},{"pitch":49,"velocity":105,"channel":0},{"pitch":49,"velocity":121,"channel":0},{"pitch":49,"velocity":108,"channel":0},{"pitch":49,"velocity":96,"channel":0},{"pitch":49,"velocity":120,"channel":0},{"pitch":49,"velocity":99,"channel":0},{"pitch":47,"velocity":124,"channel":0},{"pitch":49,"velocity":121,"channel":0},{"pitch":49,"velocity":102,"channel":0},{"pitch":49,"velocity":103,"channel":0},{"pitch":49,"velocity":102,"channel":0},{"pitch":59,"velocity":115,"channel":0},{"pitch":59,"velocity":119,"channel":0},{"pitch":49,"velocity":90,"channel":0},{"pitch":35,"velocity":99,"channel":0},{"pitch":49,"velocity":122,"channel":0},{"pitch":49,"velocity":120,"channel":0},{"pitch":49,"velocity":106,"channel":0},{"pitch":49,"velocity":106,"channel":0},{"pitch":49,"velocity":113,"channel":0},{"pitch":49,"velocity":111,"channel":0},{"pitch":49,"velocity":121,"channel":0},{"pitch":49,"velocity":102,"channel":0},{"pitch":35,"velocity":116,"channel":0},{"pitch":49,"velocity":107,"channel":0},{"pitch":73,"velocity":121,"channel":0},{"pitch":49,"velocity":115,"channel":0},{"pitch":25,"velocity":112,"channel":0},{"pitch":49,"velocity":107,"channel":0},{"pitch":73,"velocity":105,"channel":0},{"pitch":49,"velocity":99,"channel":0},{"pitch":49,"velocity":118,"channel":0},{"pitch":61,"velocity":106,"channel":0},{"pitch":71,"velocity":97,"channel":0},{"pitch":13,"velocity":118,"channel":0},{"pitch":13,"velocity":91,"channel":0},{"pitch":71,"velocity":102,"channel":0},{"pitch":49,"velocity":89,"channel":0},{"pitch":49,"velocity":112,"channel":0},{"pitch":21,"velocity":100,"channel":0},{"pitch":59,"velocity":119,"channel":0},{"pitch":59,"velocity":116,"channel":0},{"pitch":59,"velocity":122,"channel":0},{"pitch":59,"velocity":103,"channel":0},{"pitch":49,"velocity":100,"channel":0},{"pitch":9,"velocity":94,"channel":0},{"pitch":57,"velocity":103,"channel":0},{"pitch":49,"velocity":97,"channel":0},{"pitch":49,"velocity":100,"channel":0},{"pitch":85,"velocity":97,"channel":0},{"pitch":49,"velocity":97,"channel":0},{"pitch":73,"velocity":113,"channel":0},{"pitch":49,"velocity":95,"channel":0},{"pitch":49,"velocity":124,"channel":0},{"pitch":49,"velocity":89,"channel":0},{"pitch":49,"velocity":108,"channel":0},{"pitch":85,"velocity":100,"channel":0},{"pitch":49,"velocity":106,"channel":0},{"pitch":49,"velocity":120,"channel":0},{"pitch":59,"velocity":112,"channel":0},{"pitch":83,"velocity":122,"channel":0},{"pitch":57,"velocity":113,"channel":0},{"pitch":37,"velocity":111,"channel":0},{"pitch":21,"velocity":109,"channel":0},{"pitch":21,"velocity":91,"channel":0},{"pitch":49,"velocity":109,"channel":0},{"pitch":49,"velocity":114,"channel":0},{"pitch":49,"velocity":106,"channel":0},{"pitch":49,"velocity":91,"channel":0},{"pitch":49,"velocity":103,"channel":0},{"pitch":49,"velocity":100,"channel":0},{"pitch":49,"velocity":102,"channel":0},{"pitch":49,"velocity":119,"channel":0},{"pitch":47,"velocity":120,"channel":0},{"pitch":49,"velocity":105,"channel":0},{"pitch":49,"velocity":106,"channel":0},{"pitch":85,"velocity":114,"channel":0},{"pitch":49,"velocity":120,"channel":0},{"pitch":85,"velocity":121,"channel":0},{"pitch":49,"velocity":109,"channel":0},{"pitch":49,"velocity":103,"channel":0},{"pitch":49,"velocity":103,"channel":0},{"pitch":49,"velocity":93,"channel":0},{"pitch":49,"velocity":112,"channel":0},{"pitch":49,"velocity":115,"channel":0},{"pitch":73,"velocity":93,"channel":0},{"pitch":49,"velocity":118,"channel":0},{"pitch":49,"velocity":103,"channel":0},{"pitch":49,"velocity":113,"channel":0},{"pitch":49,"velocity":120,"channel":0},{"pitch":85,"velocity":111,"channel":0},{"pitch":49,"velocity":99,"channel":0},{"pitch":49,"velocity":102,"channel":0},{"pitch":73,"velocity":105,"channel":0},{"pitch":49,"velocity":113,"channel":0},{"pitch":49,"velocity":105,"channel":0},{"pitch":49,"velocity":101,"channel":0},{"pitch":49,"velocity":109,"channel":0},{"pitch":49,"velocity":107,"channel":0},{"pitch":49,"velocity":113,"channel":0},{"pitch":49,"velocity":127,"channel":0},{"pitch":49,"velocity":90,"channel":0},{"pitch":49,"velocity":113,"channel":0},{"pitch":49,"velocity":100,"channel":0},{"pitch":49,"velocity":105,"channel":0},{"pitch":49,"velocity":122,"channel":0},{"pitch":85,"velocity":100,"channel":0},{"pitch":49,"velocity":109,"channel":0},{"pitch":73,"velocity":112,"channel":0},{"pitch":49,"velocity":99,"channel":0},{"pitch":49,"velocity":103,"channel":0},{"pitch":49,"velocity":102,"channel":0},{"pitch":49,"velocity":102,"channel":0},{"pitch":59,"velocity":126,"channel":0},{"pitch":49,"velocity":109,"channel":0},{"pitch":49,"velocity":95,"channel":0},{"pitch":49,"velocity":121,"channel":0},{"pitch":49,"velocity":99,"channel":0},{"pitch":49,"velocity":105,"channel":0},{"pitch":49,"velocity":111,"channel":0},{"pitch":49,"velocity":114,"channel":0},{"pitch":73,"velocity":115,"channel":0},{"pitch":61,"velocity":101,"channel":0},{"pitch":59,"velocity":101,"channel":0},{"pitch":83,"velocity":100,"channel":0},{"pitch":59,"velocity":116,"channel":0},{"pitch":73,"velocity":121,"channel":0},{"pitch":49,"velocity":113,"channel":0},{"pitch":73,"velocity":108,"channel":0},{"pitch":49,"velocity":109,"channel":0},{"pitch":49,"velocity":116,"channel":0},{"pitch":1,"velocity":127,"channel":0},{"pitch":13,"velocity":116,"channel":0}],"stageTiming":{"beat-setup":13.2107,"intent":0.014,"entropy":0.2036,"phase":0.0259,"climax":0.0267,"envelope":0.0151,"silhouette":0.0366,"rest":0.0715,"complement":0.002,"tension-cadence":0.1577,"negotiation":0.0291,"probability-adjust":0.0029,"emission":9.9654,"post-beat":0.0357},"iterBudget":{"raw":324,"capped":150,"wasCapped":true}}
{"layer":"L1","beatKey":"0:0:3:9","timeMs":7500,"snap":{"key":"D#","mode":"locrian","quality":"minor","scale":["D#","E","F#","G#","A","B","C#"],"chords":[],"tension":0.21891727944621148,"harmonicRhythm":0.4096324107576737,"harmonicMutationCount":5,"excursion":0,"sectionPhase":"opening","phrasePosition":0.4,"phrasePhase":"development","phraseDynamism":1,"registerBias":5.412678195541842,"densityMultiplier":1.1804226065180614,"voiceIndependence":0.5,"compositeIntensity":0.4059257023479565,"playProb":0.32622862748591325,"stutterProb":0.22575954576039206,"flicker":1.1495766653653232,"textureMode":"flurry","textureFatigue":0.05833333333333333,"densityBias":0,"crossModBias":1,"emissionRatio":0.012019727345931713,"extraDensityCorrection":1.1975960545308137,"extraCoherenceDensityBias":1,"activeProfile":"restrained","journeyMove":"origin","journeyDistance":0,"journeyKey":"D#","journeyMode":"locrian","binauralFreqOffset":8,"binauralFlip":false,"tick":262500,"updatedAt":1772749064530},"negotiation":{"playProb":0.331326365922673,"stutterProb":0.26255384641226587,"allowCadence":false,"conflict":0.003963121503091527,"phaseConfidence":0.275},"trust":{"stutterContagion":{"score":0.19347302520103107,"samples":46,"weight":1.1451047689007734},"cadenceAlignment":{"score":0.19347302520103107,"samples":46,"weight":1.15},"phaseLock":{"score":0.24200389543708578,"samples":46,"weight":1.1815029215778143},"convergence":{"score":0.2007473020523247,"samples":46,"weight":1.1505604765392434},"feedbackOscillator":{"score":0.19369487596443724,"samples":46,"weight":1.1452711569733278},"coherenceMonitor":{"score":0.6957210738906588,"samples":46,"weight":1.5217908054179943},"entropyRegulator":{"score":0.6656253482749558,"samples":46,"weight":1.499219011206217},"restSynchronizer":{"score":0.19347302520103107,"samples":46,"weight":1.1451047689007734}},"regime":"initializing","coupling":{},"couplingTargets":{},"axisCouplingTotals":{"density":0,"tension":0,"flicker":0,"entropy":0,"trust":0,"phase":0},"axisEnergyShare":{"shares":{"density":0,"tension":0,"flicker":0,"entropy":0,"trust":0,"phase":0},"axisGini":0},"couplingGates":{"gateD":1,"gateT":1,"gateF":1,"floorDampen":1,"bypassD":0,"bypassT":0,"bypassF":0,"gateMinD":1,"gateMinT":1,"gateMinF":1,"gateEmaD":1,"gateEmaT":1,"gateEmaF":1,"gateBeatCount":4},"couplingHomeostasis":{"totalEnergyEma":0,"energyBudget":3.5,"peakEnergyEma":0,"totalEnergyFloor":8,"floorDampen":1,"redistributionScore":0,"nudgeableRedistributionScore":0,"globalGainMultiplier":1,"giniCoefficient":0,"energyDeltaEma":0,"pairTurbulenceEma":0,"beatCount":0,"invokeCount":4,"tickCount":46,"emptyMatrixBeats":4,"multiplierMin":1,"multiplierMax":1,"multiplierStdDev":0,"floorContactBeats":0,"ceilingContactBeats":46,"avgRecoveryDuration":0},"axisEnergyEquilibrator":{"beatCount":4,"pairAdjustments":0,"axisAdjustments":0,"smoothedShares":{"density":0,"tension":0,"flicker":0,"entropy":0,"trust":0,"phase":0},"perAxisAdj":{},"perPairAdj":{},"lastBaselines":{},"regimeBeats":{},"regimePairAdj":{},"regimeAxisAdj":{},"regimeTightenBudget":{}},"transitionReadiness":{"gap":0,"couplingStrength":0,"coherentThreshold":0,"velocity":0,"velThreshold":0.008,"thresholdScale":0.65,"velocityBlocked":false,"exploringBlock":"velocity","rawRegimeCounts":{},"rawRegimeMaxStreak":{},"effectiveDim":0},"notes":[{"pitch":105,"velocity":104,"channel":0},{"pitch":105,"velocity":99,"channel":0},{"pitch":105,"velocity":113,"channel":0},{"pitch":105,"velocity":109,"channel":0},{"pitch":105,"velocity":109,"channel":0},{"pitch":1,"velocity":113,"channel":0},{"pitch":83,"velocity":103,"channel":0},{"pitch":73,"velocity":102,"channel":0},{"pitch":1,"velocity":120,"channel":0},{"pitch":107,"velocity":102,"channel":0},{"pitch":59,"velocity":115,"channel":0},{"pitch":105,"velocity":102,"channel":0},{"pitch":105,"velocity":107,"channel":0},{"pitch":105,"velocity":108,"channel":0},{"pitch":59,"velocity":96,"channel":0},{"pitch":59,"velocity":106,"channel":0},{"pitch":1,"velocity":100,"channel":0},{"pitch":11,"velocity":101,"channel":0},{"pitch":11,"velocity":100,"channel":0},{"pitch":11,"velocity":102,"channel":0},{"pitch":11,"velocity":117,"channel":0},{"pitch":11,"velocity":103,"channel":0},{"pitch":1,"velocity":86,"channel":0},{"pitch":83,"velocity":104,"channel":0},{"pitch":93,"velocity":122,"channel":0},{"pitch":93,"velocity":119,"channel":0},{"pitch":95,"velocity":115,"channel":0},{"pitch":95,"velocity":96,"channel":0},{"pitch":85,"velocity":122,"channel":0},{"pitch":95,"velocity":93,"channel":0},{"pitch":9,"velocity":114,"channel":0},{"pitch":85,"velocity":103,"channel":0},{"pitch":93,"velocity":104,"channel":0},{"pitch":59,"velocity":107,"channel":0},{"pitch":83,"velocity":102,"channel":0},{"pitch":33,"velocity":122,"channel":0},{"pitch":93,"velocity":116,"channel":0},{"pitch":93,"velocity":106,"channel":0},{"pitch":11,"velocity":109,"channel":0},{"pitch":33,"velocity":111,"channel":0},{"pitch":9,"velocity":99,"channel":0},{"pitch":11,"velocity":107,"channel":0},{"pitch":57,"velocity":106,"channel":0},{"pitch":9,"velocity":109,"channel":0},{"pitch":9,"velocity":103,"channel":0},{"pitch":1,"velocity":94,"channel":0},{"pitch":11,"velocity":90,"channel":0},{"pitch":49,"velocity":116,"channel":0},{"pitch":85,"velocity":104,"channel":0},{"pitch":85,"velocity":106,"channel":0},{"pitch":1,"velocity":97,"channel":0},{"pitch":85,"velocity":111,"channel":0},{"pitch":83,"velocity":102,"channel":0},{"pitch":85,"velocity":115,"channel":0},{"pitch":83,"velocity":103,"channel":0},{"pitch":1,"velocity":110,"channel":0},{"pitch":13,"velocity":122,"channel":0},{"pitch":97,"velocity":103,"channel":0},{"pitch":97,"velocity":120,"channel":0},{"pitch":49,"velocity":111,"channel":0},{"pitch":97,"velocity":114,"channel":0},{"pitch":95,"velocity":99,"channel":0},{"pitch":1,"velocity":124,"channel":0},{"pitch":93,"velocity":103,"channel":0},{"pitch":93,"velocity":120,"channel":0},{"pitch":95,"velocity":114,"channel":0},{"pitch":57,"velocity":103,"channel":0},{"pitch":93,"velocity":116,"channel":0},{"pitch":83,"velocity":111,"channel":0},{"pitch":83,"velocity":106,"channel":0},{"pitch":85,"velocity":121,"channel":0},{"pitch":85,"velocity":107,"channel":0},{"pitch":85,"velocity":109,"channel":0},{"pitch":85,"velocity":106,"channel":0},{"pitch":49,"velocity":93,"channel":0},{"pitch":85,"velocity":104,"channel":0},{"pitch":85,"velocity":115,"channel":0},{"pitch":93,"velocity":115,"channel":0},{"pitch":83,"velocity":109,"channel":0},{"pitch":83,"velocity":103,"channel":0},{"pitch":13,"velocity":104,"channel":0},{"pitch":49,"velocity":117,"channel":0},{"pitch":93,"velocity":119,"channel":0},{"pitch":93,"velocity":108,"channel":0},{"pitch":83,"velocity":115,"channel":0},{"pitch":59,"velocity":88,"channel":0},{"pitch":1,"velocity":96,"channel":0},{"pitch":9,"velocity":102,"channel":0},{"pitch":81,"velocity":93,"channel":0},{"pitch":57,"velocity":104,"channel":0},{"pitch":37,"velocity":120,"channel":0},{"pitch":1,"velocity":108,"channel":0},{"pitch":35,"velocity":109,"channel":0},{"pitch":35,"velocity":108,"channel":0},{"pitch":35,"velocity":110,"channel":0},{"pitch":35,"velocity":104,"channel":0},{"pitch":1,"velocity":99,"channel":0},{"pitch":35,"velocity":109,"channel":0},{"pitch":25,"velocity":101,"channel":0},{"pitch":95,"velocity":111,"channel":0},{"pitch":25,"velocity":110,"channel":0},{"pitch":25,"velocity":94,"channel":0},{"pitch":59,"velocity":115,"channel":0},{"pitch":105,"velocity":90,"channel":0},{"pitch":105,"velocity":113,"channel":0},{"pitch":105,"velocity":92,"channel":0},{"pitch":59,"velocity":96,"channel":0},{"pitch":1,"velocity":89,"channel":0},{"pitch":107,"velocity":116,"channel":0},{"pitch":97,"velocity":89,"channel":0},{"pitch":1,"velocity":101,"channel":0},{"pitch":107,"velocity":117,"channel":0},{"pitch":1,"velocity":110,"channel":0},{"pitch":93,"velocity":92,"channel":0},{"pitch":93,"velocity":126,"channel":0},{"pitch":85,"velocity":92,"channel":0},{"pitch":93,"velocity":114,"channel":0},{"pitch":93,"velocity":93,"channel":0},{"pitch":93,"velocity":102,"channel":0},{"pitch":1,"velocity":108,"channel":0},{"pitch":23,"velocity":102,"channel":0},{"pitch":23,"velocity":107,"channel":0},{"pitch":59,"velocity":109,"channel":0},{"pitch":81,"velocity":96,"channel":0},{"pitch":49,"velocity":117,"channel":0},{"pitch":83,"velocity":102,"channel":0},{"pitch":85,"velocity":96,"channel":0},{"pitch":85,"velocity":110,"channel":0},{"pitch":85,"velocity":97,"channel":0},{"pitch":49,"velocity":94,"channel":0},{"pitch":21,"velocity":103,"channel":0},{"pitch":25,"velocity":114,"channel":0},{"pitch":85,"velocity":126,"channel":0},{"pitch":85,"velocity":89,"channel":0},{"pitch":73,"velocity":102,"channel":0},{"pitch":93,"velocity":104,"channel":0},{"pitch":83,"velocity":95,"channel":0},{"pitch":85,"velocity":102,"channel":0},{"pitch":85,"velocity":96,"channel":0},{"pitch":85,"velocity":108,"channel":0},{"pitch":85,"velocity":116,"channel":0},{"pitch":85,"velocity":87,"channel":0},{"pitch":83,"velocity":122,"channel":0}],"stageTiming":{"beat-setup":24.9109,"intent":0.0136,"entropy":0.1823,"phase":0.0231,"climax":0.0234,"envelope":0.0118,"silhouette":0.0144,"rest":0.0444,"complement":0.0016,"tension-cadence":0.123,"negotiation":0.0237,"probability-adjust":0.0023,"emission":3.3974,"post-beat":0.0199},"iterBudget":{"raw":176,"capped":144,"wasCapped":true}}
{"layer":"L1","beatKey":"0:0:3:10","timeMs":7666.666666666666,"snap":{"key":"D#","mode":"locrian","quality":"minor","scale":["D#","E","F#","G#","A","B","C#"],"chords":[],"tension":0.21891727944621148,"harmonicRhythm":0.4096324107576737,"harmonicMutationCount":5,"excursion":0,"sectionPhase":"opening","phrasePosition":0.4,"phrasePhase":"development","phraseDynamism":1,"registerBias":5.412678195541842,"densityMultiplier":1.1804226065180614,"voiceIndependence":0.5,"compositeIntensity":0.4020840736815905,"playProb":0.32622862748591325,"stutterProb":0.22575954576039206,"flicker":1.1495766653653232,"textureMode":"flurry","textureFatigue":0.05833333333333333,"densityBias":0,"crossModBias":1,"emissionRatio":0.012019727345931713,"extraDensityCorrection":1.1975960545308137,"extraCoherenceDensityBias":1,"activeProfile":"restrained","journeyMove":"origin","journeyDistance":0,"journeyKey":"D#","journeyMode":"locrian","binauralFreqOffset":8,"binauralFlip":false,"tick":262500,"updatedAt":1772749067683},"negotiation":{"playProb":0.33256646251955096,"stutterProb":0.2638269654412304,"allowCadence":false,"conflict":0.004895231099226516,"phaseConfidence":0.275},"trust":{"stutterContagion":{"score":0.19200546163688323,"samples":47,"weight":1.1440040962276625},"cadenceAlignment":{"score":0.19217803831992084,"samples":47,"weight":1.15},"phaseLock":{"score":0.24218607738748385,"samples":47,"weight":1.181639558040613},"convergence":{"score":0.20047189927524517,"samples":47,"weight":1.1503539244564338},"feedbackOscillator":{"score":0.19246838756388285,"samples":47,"weight":1.144351290672912},"coherenceMonitor":{"score":0.6964250837117713,"samples":47,"weight":1.5223188127838285},"entropyRegulator":{"score":0.6491766461885758,"samples":47,"weight":1.486882484641432},"restSynchronizer":{"score":0.19188631632221578,"samples":47,"weight":1.1439147372416618}},"regime":"initializing","coupling":{},"couplingTargets":{},"axisCouplingTotals":{"density":0,"tension":0,"flicker":0,"entropy":0,"trust":0,"phase":0},"axisEnergyShare":{"shares":{"density":0,"tension":0,"flicker":0,"entropy":0,"trust":0,"phase":0},"axisGini":0},"couplingGates":{"gateD":1,"gateT":1,"gateF":1,"floorDampen":1,"bypassD":0,"bypassT":0,"bypassF":0,"gateMinD":1,"gateMinT":1,"gateMinF":1,"gateEmaD":1,"gateEmaT":1,"gateEmaF":1,"gateBeatCount":4},"couplingHomeostasis":{"totalEnergyEma":0,"energyBudget":3.5,"peakEnergyEma":0,"totalEnergyFloor":8,"floorDampen":1,"redistributionScore":0,"nudgeableRedistributionScore":0,"globalGainMultiplier":1,"giniCoefficient":0,"energyDeltaEma":0,"pairTurbulenceEma":0,"beatCount":0,"invokeCount":4,"tickCount":47,"emptyMatrixBeats":4,"multiplierMin":1,"multiplierMax":1,"multiplierStdDev":0,"floorContactBeats":0,"ceilingContactBeats":47,"avgRecoveryDuration":0},"axisEnergyEquilibrator":{"beatCount":4,"pairAdjustments":0,"axisAdjustments":0,"smoothedShares":{"density":0,"tension":0,"flicker":0,"entropy":0,"trust":0,"phase":0},"perAxisAdj":{},"perPairAdj":{},"lastBaselines":{},"regimeBeats":{},"regimePairAdj":{},"regimeAxisAdj":{},"regimeTightenBudget":{}},"transitionReadiness":{"gap":0,"couplingStrength":0,"coherentThreshold":0,"velocity":0,"velThreshold":0.008,"thresholdScale":0.65,"velocityBlocked":false,"exploringBlock":"velocity","rawRegimeCounts":{},"rawRegimeMaxStreak":{},"effectiveDim":0},"notes":[{"pitch":57,"velocity":113,"channel":0},{"pitch":37,"velocity":87,"channel":0},{"pitch":9,"velocity":117,"channel":0},{"pitch":11,"velocity":119,"channel":0},{"pitch":83,"velocity":97,"channel":0},{"pitch":25,"velocity":86,"channel":0},{"pitch":13,"velocity":118,"channel":0},{"pitch":61,"velocity":127,"channel":0},{"pitch":11,"velocity":105,"channel":0},{"pitch":11,"velocity":72,"channel":0},{"pitch":11,"velocity":127,"channel":0},{"pitch":59,"velocity":108,"channel":0},{"pitch":21,"velocity":115,"channel":0},{"pitch":107,"velocity":89,"channel":0},{"pitch":9,"velocity":127,"channel":0},{"pitch":85,"velocity":87,"channel":0},{"pitch":59,"velocity":105,"channel":0},{"pitch":13,"velocity":113,"channel":0},{"pitch":9,"velocity":97,"channel":0},{"pitch":11,"velocity":101,"channel":0},{"pitch":11,"velocity":102,"channel":0},{"pitch":11,"velocity":108,"channel":0},{"pitch":9,"velocity":101,"channel":0},{"pitch":9,"velocity":104,"channel":0},{"pitch":9,"velocity":101,"channel":0},{"pitch":9,"velocity":102,"channel":0},{"pitch":9,"velocity":104,"channel":0},{"pitch":13,"velocity":97,"channel":0},{"pitch":13,"velocity":107,"channel":0},{"pitch":1,"velocity":111,"channel":0},{"pitch":13,"velocity":104,"channel":0},{"pitch":33,"velocity":94,"channel":0},{"pitch":13,"velocity":102,"channel":0},{"pitch":35,"velocity":109,"channel":0},{"pitch":11,"velocity":116,"channel":0},{"pitch":11,"velocity":97,"channel":0},{"pitch":1,"velocity":124,"channel":0},{"pitch":11,"velocity":95,"channel":0},{"pitch":37,"velocity":111,"channel":0},{"pitch":85,"velocity":79,"channel":0},{"pitch":11,"velocity":105,"channel":0},{"pitch":11,"velocity":87,"channel":0},{"pitch":11,"velocity":103,"channel":0},{"pitch":1,"velocity":101,"channel":0},{"pitch":49,"velocity":107,"channel":0},{"pitch":13,"velocity":111,"channel":0},{"pitch":1,"velocity":109,"channel":0},{"pitch":1,"velocity":93,"channel":0},{"pitch":11,"velocity":89,"channel":0},{"pitch":83,"velocity":90,"channel":0},{"pitch":59,"velocity":103,"channel":0},{"pitch":59,"velocity":105,"channel":0},{"pitch":73,"velocity":111,"channel":0},{"pitch":83,"velocity":103,"channel":0},{"pitch":45,"velocity":119,"channel":0},{"pitch":11,"velocity":109,"channel":0},{"pitch":59,"velocity":108,"channel":0},{"pitch":81,"velocity":113,"channel":0},{"pitch":21,"velocity":87,"channel":0},{"pitch":37,"velocity":113,"channel":0},{"pitch":37,"velocity":104,"channel":0},{"pitch":23,"velocity":107,"channel":0},{"pitch":59,"velocity":103,"channel":0},{"pitch":81,"velocity":96,"channel":0},{"pitch":21,"velocity":102,"channel":0},{"pitch":33,"velocity":115,"channel":0},{"pitch":49,"velocity":104,"channel":0},{"pitch":9,"velocity":112,"channel":0},{"pitch":85,"velocity":97,"channel":0},{"pitch":25,"velocity":118,"channel":0},{"pitch":95,"velocity":127,"channel":0},{"pitch":9,"velocity":125,"channel":0},{"pitch":85,"velocity":105,"channel":0},{"pitch":97,"velocity":103,"channel":0},{"pitch":95,"velocity":115,"channel":0},{"pitch":9,"velocity":100,"channel":0},{"pitch":13,"velocity":91,"channel":0},{"pitch":13,"velocity":100,"channel":0},{"pitch":13,"velocity":118,"channel":0},{"pitch":9,"velocity":94,"channel":0},{"pitch":9,"velocity":107,"channel":0},{"pitch":23,"velocity":117,"channel":0},{"pitch":13,"velocity":107,"channel":0},{"pitch":57,"velocity":125,"channel":0},{"pitch":9,"velocity":100,"channel":0},{"pitch":81,"velocity":108,"channel":0},{"pitch":13,"velocity":103,"channel":0},{"pitch":9,"velocity":123,"channel":0},{"pitch":9,"velocity":91,"channel":0},{"pitch":81,"velocity":104,"channel":0},{"pitch":11,"velocity":71,"channel":0},{"pitch":9,"velocity":103,"channel":0},{"pitch":81,"velocity":101,"channel":0},{"pitch":23,"velocity":117,"channel":0},{"pitch":23,"velocity":96,"channel":0},{"pitch":9,"velocity":107,"channel":0},{"pitch":81,"velocity":123,"channel":0},{"pitch":21,"velocity":107,"channel":0},{"pitch":21,"velocity":115,"channel":0},{"pitch":9,"velocity":105,"channel":0},{"pitch":57,"velocity":95,"channel":0},{"pitch":21,"velocity":102,"channel":0},{"pitch":21,"velocity":102,"channel":0},{"pitch":9,"velocity":112,"channel":0},{"pitch":9,"velocity":98,"channel":0},{"pitch":9,"velocity":97,"channel":0},{"pitch":21,"velocity":97,"channel":0},{"pitch":1,"velocity":104,"channel":0},{"pitch":13,"velocity":109,"channel":0},{"pitch":13,"velocity":97,"channel":0},{"pitch":11,"velocity":87,"channel":0},{"pitch":23,"velocity":111,"channel":0},{"pitch":13,"velocity":112,"channel":0},{"pitch":13,"velocity":93,"channel":0},{"pitch":13,"velocity":109,"channel":0},{"pitch":73,"velocity":103,"channel":0},{"pitch":73,"velocity":111,"channel":0},{"pitch":13,"velocity":112,"channel":0},{"pitch":81,"velocity":107,"channel":0},{"pitch":35,"velocity":110,"channel":0},{"pitch":35,"velocity":118,"channel":0},{"pitch":81,"velocity":111,"channel":0},{"pitch":93,"velocity":97,"channel":0},{"pitch":59,"velocity":105,"channel":0},{"pitch":1,"velocity":127,"channel":0},{"pitch":105,"velocity":103,"channel":0},{"pitch":95,"velocity":110,"channel":0},{"pitch":95,"velocity":102,"channel":0},{"pitch":25,"velocity":98,"channel":0},{"pitch":23,"velocity":115,"channel":0},{"pitch":13,"velocity":93,"channel":0},{"pitch":59,"velocity":101,"channel":0},{"pitch":23,"velocity":127,"channel":0},{"pitch":61,"velocity":104,"channel":0},{"pitch":71,"velocity":101,"channel":0},{"pitch":61,"velocity":100,"channel":0},{"pitch":1,"velocity":127,"channel":0},{"pitch":9,"velocity":119,"channel":0}],"stageTiming":{"beat-setup":15.0376,"intent":0.0116,"entropy":0.1734,"phase":0.0246,"climax":0.0337,"envelope":0.0296,"silhouette":0.0188,"rest":0.0489,"complement":0.0016,"tension-cadence":0.1118,"negotiation":0.0274,"probability-adjust":0.0021,"emission":4.5618,"post-beat":0.0409},"iterBudget":{"raw":224,"capped":144,"wasCapped":true}}
{"layer":"L1","beatKey":"0:0:3:11","timeMs":7833.333333333333,"snap":{"key":"D#","mode":"locrian","quality":"minor","scale":["D#","E","F#","G#","A","B","C#"],"chords":[],"tension":0.21891727944621148,"harmonicRhythm":0.4096324107576737,"harmonicMutationCount":5,"excursion":0,"sectionPhase":"opening","phrasePosition":0.4,"phrasePhase":"development","phraseDynamism":1,"registerBias":5.412678195541842,"densityMultiplier":1.1804226065180614,"voiceIndependence":0.5,"compositeIntensity":0.424537478916302,"playProb":0.32622862748591325,"stutterProb":0.22575954576039206,"flicker":1.1495766653653232,"textureMode":"flurry","textureFatigue":0.05833333333333333,"densityBias":0,"crossModBias":1,"emissionRatio":0.012019727345931713,"extraDensityCorrection":1.1975960545308137,"extraCoherenceDensityBias":1,"activeProfile":"restrained","journeyMove":"origin","journeyDistance":0,"journeyKey":"D#","journeyMode":"locrian","binauralFreqOffset":8,"binauralFlip":false,"tick":262500,"updatedAt":1772749070659},"negotiation":{"playProb":0.3327059773228107,"stutterProb":0.264354536452206,"allowCadence":false,"conflict":0.005995903772337385,"phaseConfidence":0.275},"trust":{"stutterContagion":{"score":0.1967729742354449,"samples":48,"weight":1.1475797306765836},"cadenceAlignment":{"score":0.1967729742354449,"samples":48,"weight":1.15},"phaseLock":{"score":0.24234987717908676,"samples":48,"weight":1.1817624078843152},"convergence":{"score":0.20022428463837294,"samples":48,"weight":1.1501682134787796},"feedbackOscillator":{"score":0.1967729742354449,"samples":48,"weight":1.1475797306765836},"coherenceMonitor":{"score":0.6998562037262275,"samples":48,"weight":1.5248921527946706},"entropyRegulator":{"score":0.6391824915534592,"samples":48,"weight":1.4793868686650944},"restSynchronizer":{"score":0.2724249870053042,"samples":48,"weight":1.2043187402539781}},"regime":"initializing","coupling":{},"couplingTargets":{},"axisCouplingTotals":{"density":0,"tension":0,"flicker":0,"entropy":0,"trust":0,"phase":0},"axisEnergyShare":{"shares":{"density":0,"tension":0,"flicker":0,"entropy":0,"trust":0,"phase":0},"axisGini":0},"couplingGates":{"gateD":1,"gateT":1,"gateF":1,"floorDampen":1,"bypassD":0,"bypassT":0,"bypassF":0,"gateMinD":1,"gateMinT":1,"gateMinF":1,"gateEmaD":1,"gateEmaT":1,"gateEmaF":1,"gateBeatCount":4},"couplingHomeostasis":{"totalEnergyEma":0,"energyBudget":3.5,"peakEnergyEma":0,"totalEnergyFloor":8,"floorDampen":1,"redistributionScore":0,"nudgeableRedistributionScore":0,"globalGainMultiplier":1,"giniCoefficient":0,"energyDeltaEma":0,"pairTurbulenceEma":0,"beatCount":0,"invokeCount":4,"tickCount":48,"emptyMatrixBeats":4,"multiplierMin":1,"multiplierMax":1,"multiplierStdDev":0,"floorContactBeats":0,"ceilingContactBeats":48,"avgRecoveryDuration":0},"axisEnergyEquilibrator":{"beatCount":4,"pairAdjustments":0,"axisAdjustments":0,"smoothedShares":{"density":0,"tension":0,"flicker":0,"entropy":0,"trust":0,"phase":0},"perAxisAdj":{},"perPairAdj":{},"lastBaselines":{},"regimeBeats":{},"regimePairAdj":{},"regimeAxisAdj":{},"regimeTightenBudget":{}},"transitionReadiness":{"gap":0,"couplingStrength":0,"coherentThreshold":0,"velocity":0,"velThreshold":0.008,"thresholdScale":0.65,"velocityBlocked":false,"exploringBlock":"velocity","rawRegimeCounts":{},"rawRegimeMaxStreak":{},"effectiveDim":0},"notes":[{"pitch":35,"velocity":117,"channel":0},{"pitch":25,"velocity":97,"channel":0},{"pitch":25,"velocity":98,"channel":0},{"pitch":13,"velocity":104,"channel":0},{"pitch":13,"velocity":105,"channel":0},{"pitch":23,"velocity":90,"channel":0},{"pitch":23,"velocity":91,"channel":0},{"pitch":23,"velocity":92,"channel":0},{"pitch":81,"velocity":103,"channel":0},{"pitch":1,"velocity":107,"channel":0},{"pitch":11,"velocity":108,"channel":0},{"pitch":11,"velocity":99,"channel":0},{"pitch":11,"velocity":107,"channel":0},{"pitch":1,"velocity":114,"channel":0},{"pitch":1,"velocity":115,"channel":0},{"pitch":35,"velocity":111,"channel":0},{"pitch":73,"velocity":113,"channel":0},{"pitch":1,"velocity":109,"channel":0},{"pitch":1,"velocity":100,"channel":0},{"pitch":25,"velocity":107,"channel":0},{"pitch":49,"velocity":96,"channel":0},{"pitch":73,"velocity":106,"channel":0},{"pitch":35,"velocity":120,"channel":0},{"pitch":57,"velocity":97,"channel":0},{"pitch":93,"velocity":95,"channel":0},{"pitch":85,"velocity":111,"channel":0},{"pitch":93,"velocity":107,"channel":0},{"pitch":93,"velocity":76,"channel":0},{"pitch":93,"velocity":119,"channel":0},{"pitch":95,"velocity":102,"channel":0},{"pitch":59,"velocity":95,"channel":0},{"pitch":59,"velocity":114,"channel":0},{"pitch":59,"velocity":106,"channel":0},{"pitch":59,"velocity":98,"channel":0},{"pitch":1,"velocity":112,"channel":0},{"pitch":81,"velocity":94,"channel":0},{"pitch":81,"velocity":100,"channel":0},{"pitch":23,"velocity":100,"channel":0},{"pitch":61,"velocity":94,"channel":0},{"pitch":61,"velocity":113,"channel":0},{"pitch":1,"velocity":102,"channel":0},{"pitch":61,"velocity":106,"channel":0},{"pitch":83,"velocity":124,"channel":0},{"pitch":1,"velocity":108,"channel":0},{"pitch":59,"velocity":87,"channel":0},{"pitch":1,"velocity":111,"channel":0},{"pitch":59,"velocity":94,"channel":0},{"pitch":85,"velocity":102,"channel":0},{"pitch":1,"velocity":87,"channel":0},{"pitch":1,"velocity":117,"channel":0},{"pitch":1,"velocity":105,"channel":0},{"pitch":1,"velocity":107,"channel":0},{"pitch":1,"velocity":102,"channel":0},{"pitch":85,"velocity":115,"channel":0},{"pitch":1,"velocity":114,"channel":0},{"pitch":1,"velocity":99,"channel":0},{"pitch":1,"velocity":82,"channel":0},{"pitch":1,"velocity":100,"channel":0},{"pitch":1,"velocity":99,"channel":0},{"pitch":1,"velocity":92,"channel":0},{"pitch":11,"velocity":113,"channel":0},{"pitch":1,"velocity":95,"channel":0},{"pitch":25,"velocity":109,"channel":0},{"pitch":85,"velocity":94,"channel":0},{"pitch":1,"velocity":96,"channel":0},{"pitch":1,"velocity":105,"channel":0},{"pitch":25,"velocity":108,"channel":0},{"pitch":49,"velocity":109,"channel":0},{"pitch":1,"velocity":104,"channel":0},{"pitch":47,"velocity":104,"channel":0},{"pitch":25,"velocity":108,"channel":0},{"pitch":1,"velocity":102,"channel":0},{"pitch":83,"velocity":88,"channel":0},{"pitch":1,"velocity":100,"channel":0},{"pitch":1,"velocity":94,"channel":0},{"pitch":1,"velocity":119,"channel":0},{"pitch":1,"velocity":92,"channel":0},{"pitch":1,"velocity":100,"channel":0},{"pitch":1,"velocity":119,"channel":0},{"pitch":73,"velocity":88,"channel":0},{"pitch":1,"velocity":105,"channel":0},{"pitch":49,"velocity":87,"channel":0},{"pitch":1,"velocity":111,"channel":0},{"pitch":11,"velocity":89,"channel":0},{"pitch":1,"velocity":108,"channel":0},{"pitch":83,"velocity":103,"channel":0},{"pitch":85,"velocity":91,"channel":0},{"pitch":1,"velocity":115,"channel":0},{"pitch":47,"velocity":106,"channel":0},{"pitch":37,"velocity":116,"channel":0},{"pitch":9,"velocity":78,"channel":0},{"pitch":11,"velocity":99,"channel":0},{"pitch":11,"velocity":113,"channel":0},{"pitch":11,"velocity":111,"channel":0},{"pitch":11,"velocity":106,"channel":0},{"pitch":95,"velocity":103,"channel":0},{"pitch":11,"velocity":87,"channel":0},{"pitch":83,"velocity":115,"channel":0},{"pitch":1,"velocity":105,"channel":0},{"pitch":9,"velocity":113,"channel":0},{"pitch":9,"velocity":107,"channel":0},{"pitch":9,"velocity":103,"channel":0},{"pitch":9,"velocity":88,"channel":0},{"pitch":35,"velocity":86,"channel":0},{"pitch":9,"velocity":108,"channel":0},{"pitch":73,"velocity":103,"channel":0},{"pitch":1,"velocity":91,"channel":0},{"pitch":11,"velocity":120,"channel":0},{"pitch":11,"velocity":99,"channel":0},{"pitch":1,"velocity":92,"channel":0},{"pitch":23,"velocity":94,"channel":0},{"pitch":23,"velocity":100,"channel":0},{"pitch":23,"velocity":106,"channel":0},{"pitch":23,"velocity":94,"channel":0},{"pitch":59,"velocity":120,"channel":0},{"pitch":85,"velocity":105,"channel":0},{"pitch":49,"velocity":121,"channel":0},{"pitch":25,"velocity":108,"channel":0},{"pitch":73,"velocity":107,"channel":0},{"pitch":13,"velocity":127,"channel":0},{"pitch":49,"velocity":84,"channel":0},{"pitch":35,"velocity":88,"channel":0},{"pitch":23,"velocity":121,"channel":0},{"pitch":21,"velocity":94,"channel":0},{"pitch":81,"velocity":111,"channel":0},{"pitch":1,"velocity":84,"channel":0},{"pitch":1,"velocity":64,"channel":0},{"pitch":1,"velocity":102,"channel":0},{"pitch":1,"velocity":89,"channel":0},{"pitch":1,"velocity":98,"channel":0},{"pitch":1,"velocity":122,"channel":0},{"pitch":1,"velocity":109,"channel":0}],"stageTiming":{"beat-setup":10.3944,"intent":0.0109,"entropy":0.2087,"phase":0.0206,"climax":0.0218,"envelope":0.0119,"silhouette":0.0138,"rest":0.0293,"complement":0.0024,"tension-cadence":0.1064,"negotiation":0.0232,"probability-adjust":0.0025,"emission":1.7168,"post-beat":0.0266},"iterBudget":{"raw":132,"capped":132,"wasCapped":false}}
{"layer":"L1","beatKey":"0:0:4:0","timeMs":8000,"snap":{"key":"D#","mode":"locrian","quality":"minor","scale":["D#","E","F#","G#","A","B","C#"],"chords":[],"tension":0.26388563117850017,"harmonicRhythm":0.43312798396067853,"harmonicMutationCount":6,"excursion":0,"sectionPhase":"opening","phrasePosition":0.6,"phrasePhase":"climax","phraseDynamism":1,"registerBias":5.412678195541844,"densityMultiplier":1.1804226065180616,"voiceIndependence":0.5,"compositeIntensity":0.38484280751144734,"playProb":0.332021236971755,"stutterProb":0.23121159176704054,"flicker":1.1535457647440162,"textureMode":"flurry","textureFatigue":0,"densityBias":0,"crossModBias":1,"emissionRatio":0.03681217259592515,"extraDensityCorrection":1.192637565480815,"extraCoherenceDensityBias":1,"activeProfile":"restrained","journeyMove":"origin","journeyDistance":0,"journeyKey":"D#","journeyMode":"locrian","binauralFreqOffset":8,"binauralFlip":false,"tick":352500,"updatedAt":1772749081468},"negotiation":{"playProb":0.33937106281730345,"stutterProb":0.2718153561840301,"allowCadence":false,"conflict":0.002420269323416324,"phaseConfidence":0.275},"trust":{"stutterContagion":{"score":0.1968922837433893,"samples":49,"weight":1.1476692128075419},"cadenceAlignment":{"score":0.1972298316474353,"samples":49,"weight":1.15},"phaseLock":{"score":0.24249714957171692,"samples":49,"weight":1.1818728621787877},"convergence":{"score":0.20000165431836114,"samples":49,"weight":1.1500012407387707},"feedbackOscillator":{"score":0.19765347892640228,"samples":49,"weight":1.1482401091948018},"coherenceMonitor":{"score":0.7013784374680095,"samples":49,"weight":1.5260338281010073},"entropyRegulator":{"score":0.6312304002820341,"samples":49,"weight":1.4734228002115257},"restSynchronizer":{"score":0.25292930581646905,"samples":49,"weight":1.1896969793623517}},"regime":"initializing","coupling":{},"couplingTargets":{},"axisCouplingTotals":{"density":0,"tension":0,"flicker":0,"entropy":0,"trust":0,"phase":0},"axisEnergyShare":{"shares":{"density":0,"tension":0,"flicker":0,"entropy":0,"trust":0,"phase":0},"axisGini":0},"couplingGates":{"gateD":1,"gateT":1,"gateF":1,"floorDampen":1,"bypassD":0,"bypassT":0,"bypassF":0,"gateMinD":1,"gateMinT":1,"gateMinF":1,"gateEmaD":1,"gateEmaT":1,"gateEmaF":1,"gateBeatCount":5},"couplingHomeostasis":{"totalEnergyEma":0,"energyBudget":3.5,"peakEnergyEma":0,"totalEnergyFloor":8,"floorDampen":1,"redistributionScore":0,"nudgeableRedistributionScore":0,"globalGainMultiplier":1,"giniCoefficient":0,"energyDeltaEma":0,"pairTurbulenceEma":0,"beatCount":0,"invokeCount":5,"tickCount":49,"emptyMatrixBeats":5,"multiplierMin":1,"multiplierMax":1,"multiplierStdDev":0,"floorContactBeats":0,"ceilingContactBeats":49,"avgRecoveryDuration":0},"axisEnergyEquilibrator":{"beatCount":5,"pairAdjustments":0,"axisAdjustments":0,"smoothedShares":{"density":0,"tension":0,"flicker":0,"entropy":0,"trust":0,"phase":0},"perAxisAdj":{},"perPairAdj":{},"lastBaselines":{},"regimeBeats":{},"regimePairAdj":{},"regimeAxisAdj":{},"regimeTightenBudget":{}},"transitionReadiness":{"gap":0,"couplingStrength":0,"coherentThreshold":0,"velocity":0,"velThreshold":0.008,"thresholdScale":0.65,"velocityBlocked":false,"exploringBlock":"velocity","rawRegimeCounts":{},"rawRegimeMaxStreak":{},"effectiveDim":0},"notes":[{"pitch":1,"velocity":93,"channel":0},{"pitch":73,"velocity":113,"channel":0},{"pitch":25,"velocity":105,"channel":0},{"pitch":35,"velocity":86,"channel":0},{"pitch":33,"velocity":113,"channel":0},{"pitch":11,"velocity":97,"channel":0},{"pitch":37,"velocity":102,"channel":0},{"pitch":37,"velocity":101,"channel":0},{"pitch":25,"velocity":110,"channel":0},{"pitch":35,"velocity":100,"channel":0},{"pitch":35,"velocity":82,"channel":0},{"pitch":35,"velocity":105,"channel":0},{"pitch":33,"velocity":100,"channel":0},{"pitch":37,"velocity":107,"channel":0},{"pitch":13,"velocity":85,"channel":0},{"pitch":1,"velocity":100,"channel":0},{"pitch":25,"velocity":110,"channel":0},{"pitch":11,"velocity":100,"channel":0},{"pitch":11,"velocity":118,"channel":0},{"pitch":30,"velocity":103,"channel":0}],"stageTiming":{"beat-setup":15.3969,"intent":0.0128,"entropy":0.2106,"phase":0.0223,"climax":0.0215,"envelope":0.0119,"silhouette":0.0185,"rest":0.0233,"complement":0.0015,"tension-cadence":0.1202,"negotiation":0.0208,"probability-adjust":0.002,"emission":3.2611,"post-beat":0.024},"iterBudget":{"raw":36,"capped":36,"wasCapped":false}}
{"layer":"L1","beatKey":"0:0:4:1","timeMs":8166.666666666666,"snap":{"key":"D#","mode":"locrian","quality":"minor","scale":["D#","E","F#","G#","A","B","C#"],"chords":[],"tension":0.26388563117850017,"harmonicRhythm":0.43312798396067853,"harmonicMutationCount":6,"excursion":0,"sectionPhase":"opening","phrasePosition":0.6,"phrasePhase":"climax","phraseDynamism":1,"registerBias":5.412678195541844,"densityMultiplier":1.1804226065180616,"voiceIndependence":0.5,"compositeIntensity":0.4181943541784615,"playProb":0.332021236971755,"stutterProb":0.23121159176704054,"flicker":1.1535457647440162,"textureMode":"chordBurst","textureFatigue":0.19999999999999998,"densityBias":0,"crossModBias":1,"emissionRatio":0.03681217259592515,"extraDensityCorrection":1.192637565480815,"extraCoherenceDensityBias":1,"activeProfile":"restrained","journeyMove":"origin","journeyDistance":0,"journeyKey":"D#","journeyMode":"locrian","binauralFreqOffset":8,"binauralFlip":false,"tick":352500,"updatedAt":1772749085053},"negotiation":{"playProb":0.3392834452852332,"stutterProb":0.2722166732053526,"allowCadence":false,"conflict":0.0023307871924580503,"phaseConfidence":0.275},"trust":{"stutterContagion":{"score":0.19497538047023788,"samples":50,"weight":1.1462315353526784},"cadenceAlignment":{"score":0.19523529019143285,"samples":50,"weight":1.15},"phaseLock":{"score":0.2426295621799307,"samples":50,"weight":1.181972171634948},"convergence":{"score":0.1998014873976385,"samples":50,"weight":1.149851115548229},"feedbackOscillator":{"score":0.1954719426423686,"samples":50,"weight":1.1466039569817765},"coherenceMonitor":{"score":0.7037012631751982,"samples":50,"weight":1.5277759473813988},"entropyRegulator":{"score":0.6288036836471198,"samples":50,"weight":1.4716027627353399},"restSynchronizer":{"score":0.23540073885958734,"samples":50,"weight":1.1765505541446906}},"regime":"initializing","coupling":{},"couplingTargets":{},"axisCouplingTotals":{"density":0,"tension":0,"flicker":0,"entropy":0,"trust":0,"phase":0},"axisEnergyShare":{"shares":{"density":0,"tension":0,"flicker":0,"entropy":0,"trust":0,"phase":0},"axisGini":0},"couplingGates":{"gateD":1,"gateT":1,"gateF":1,"floorDampen":1,"bypassD":0,"bypassT":0,"bypassF":0,"gateMinD":1,"gateMinT":1,"gateMinF":1,"gateEmaD":1,"gateEmaT":1,"gateEmaF":1,"gateBeatCount":5},"couplingHomeostasis":{"totalEnergyEma":0,"energyBudget":3.5,"peakEnergyEma":0,"totalEnergyFloor":8,"floorDampen":1,"redistributionScore":0,"nudgeableRedistributionScore":0,"globalGainMultiplier":1,"giniCoefficient":0,"energyDeltaEma":0,"pairTurbulenceEma":0,"beatCount":0,"invokeCount":5,"tickCount":50,"emptyMatrixBeats":5,"multiplierMin":1,"multiplierMax":1,"multiplierStdDev":0,"floorContactBeats":0,"ceilingContactBeats":50,"avgRecoveryDuration":0},"axisEnergyEquilibrator":{"beatCount":5,"pairAdjustments":0,"axisAdjustments":0,"smoothedShares":{"density":0,"tension":0,"flicker":0,"entropy":0,"trust":0,"phase":0},"perAxisAdj":{},"perPairAdj":{},"lastBaselines":{},"regimeBeats":{},"regimePairAdj":{},"regimeAxisAdj":{},"regimeTightenBudget":{}},"transitionReadiness":{"gap":0,"couplingStrength":0,"coherentThreshold":0,"velocity":0,"velThreshold":0.008,"thresholdScale":0.65,"velocityBlocked":false,"exploringBlock":"velocity","rawRegimeCounts":{},"rawRegimeMaxStreak":{},"effectiveDim":0},"notes":[{"pitch":13,"velocity":86,"channel":0},{"pitch":92,"velocity":85,"channel":0},{"pitch":85,"velocity":106,"channel":0},{"pitch":56,"velocity":104,"channel":0},{"pitch":51,"velocity":101,"channel":0},{"pitch":39,"velocity":105,"channel":0},{"pitch":30,"velocity":116,"channel":0},{"pitch":85,"velocity":107,"channel":0},{"pitch":102,"velocity":111,"channel":0},{"pitch":3,"velocity":103,"channel":0},{"pitch":6,"velocity":120,"channel":0},{"pitch":13,"velocity":84,"channel":0},{"pitch":6,"velocity":88,"channel":0},{"pitch":1,"velocity":97,"channel":0},{"pitch":80,"velocity":76,"channel":0},{"pitch":32,"velocity":100,"channel":0},{"pitch":39,"velocity":95,"channel":0},{"pitch":51,"velocity":107,"channel":0},{"pitch":39,"velocity":90,"channel":0},{"pitch":75,"velocity":94,"channel":0},{"pitch":8,"velocity":103,"channel":0},{"pitch":8,"velocity":98,"channel":0},{"pitch":44,"velocity":94,"channel":0},{"pitch":27,"velocity":100,"channel":0},{"pitch":39,"velocity":98,"channel":0},{"pitch":39,"velocity":84,"channel":0},{"pitch":54,"velocity":97,"channel":0},{"pitch":85,"velocity":94,"channel":0},{"pitch":85,"velocity":111,"channel":0},{"pitch":97,"velocity":81,"channel":0},{"pitch":56,"velocity":100,"channel":0},{"pitch":3,"velocity":89,"channel":0},{"pitch":54,"velocity":85,"channel":0},{"pitch":66,"velocity":88,"channel":0},{"pitch":39,"velocity":88,"channel":0},{"pitch":3,"velocity":114,"channel":0},{"pitch":8,"velocity":93,"channel":0},{"pitch":8,"velocity":96,"channel":0},{"pitch":32,"velocity":104,"channel":0},{"pitch":85,"velocity":92,"channel":0},{"pitch":32,"velocity":96,"channel":0},{"pitch":87,"velocity":86,"channel":0},{"pitch":85,"velocity":105,"channel":0},{"pitch":85,"velocity":101,"channel":0},{"pitch":85,"velocity":103,"channel":0},{"pitch":42,"velocity":86,"channel":0},{"pitch":44,"velocity":106,"channel":0},{"pitch":44,"velocity":110,"channel":0},{"pitch":44,"velocity":111,"channel":0},{"pitch":85,"velocity":116,"channel":0},{"pitch":85,"velocity":96,"channel":0},{"pitch":32,"velocity":106,"channel":0},{"pitch":15,"velocity":115,"channel":0},{"pitch":15,"velocity":96,"channel":0},{"pitch":15,"velocity":104,"channel":0},{"pitch":15,"velocity":108,"channel":0},{"pitch":32,"velocity":112,"channel":0},{"pitch":87,"velocity":96,"channel":0},{"pitch":87,"velocity":112,"channel":0},{"pitch":90,"velocity":90,"channel":0},{"pitch":13,"velocity":92,"channel":0},{"pitch":49,"velocity":118,"channel":0},{"pitch":13,"velocity":95,"channel":0},{"pitch":13,"velocity":111,"channel":0},{"pitch":32,"velocity":114,"channel":0},{"pitch":44,"velocity":109,"channel":0},{"pitch":42,"velocity":96,"channel":0},{"pitch":51,"velocity":96,"channel":0},{"pitch":39,"velocity":118,"channel":0},{"pitch":44,"velocity":104,"channel":0},{"pitch":32,"velocity":101,"channel":0},{"pitch":3,"velocity":85,"channel":0},{"pitch":3,"velocity":90,"channel":0},{"pitch":30,"velocity":92,"channel":0},{"pitch":18,"velocity":115,"channel":0},{"pitch":39,"velocity":100,"channel":0},{"pitch":27,"velocity":97,"channel":0},{"pitch":27,"velocity":96,"channel":0},{"pitch":20,"velocity":110,"channel":0},{"pitch":15,"velocity":92,"channel":0},{"pitch":20,"velocity":100,"channel":0},{"pitch":32,"velocity":116,"channel":0},{"pitch":44,"velocity":96,"channel":0},{"pitch":44,"velocity":110,"channel":0},{"pitch":44,"velocity":98,"channel":0},{"pitch":44,"velocity":111,"channel":0},{"pitch":44,"velocity":94,"channel":0},{"pitch":44,"velocity":85,"channel":0},{"pitch":32,"velocity":106,"channel":0},{"pitch":66,"velocity":97,"channel":0},{"pitch":85,"velocity":93,"channel":0},{"pitch":39,"velocity":103,"channel":0},{"pitch":51,"velocity":97,"channel":0},{"pitch":42,"velocity":107,"channel":0},{"pitch":39,"velocity":111,"channel":0},{"pitch":75,"velocity":94,"channel":0},{"pitch":78,"velocity":107,"channel":0},{"pitch":75,"velocity":93,"channel":0},{"pitch":39,"velocity":98,"channel":0},{"pitch":39,"velocity":104,"channel":0},{"pitch":39,"velocity":81,"channel":0},{"pitch":39,"velocity":93,"channel":0},{"pitch":39,"velocity":103,"channel":0},{"pitch":85,"velocity":114,"channel":0},{"pitch":85,"velocity":107,"channel":0},{"pitch":87,"velocity":76,"channel":0},{"pitch":42,"velocity":88,"channel":0},{"pitch":42,"velocity":97,"channel":0},{"pitch":15,"velocity":96,"channel":0},{"pitch":39,"velocity":116,"channel":0},{"pitch":80,"velocity":95,"channel":0},{"pitch":49,"velocity":81,"channel":0},{"pitch":42,"velocity":107,"channel":0},{"pitch":42,"velocity":114,"channel":0},{"pitch":39,"velocity":115,"channel":0},{"pitch":8,"velocity":98,"channel":0},{"pitch":8,"velocity":101,"channel":0},{"pitch":90,"velocity":96,"channel":0},{"pitch":56,"velocity":108,"channel":0},{"pitch":56,"velocity":104,"channel":0},{"pitch":73,"velocity":92,"channel":0},{"pitch":73,"velocity":115,"channel":0},{"pitch":42,"velocity":90,"channel":0},{"pitch":27,"velocity":114,"channel":0},{"pitch":27,"velocity":81,"channel":0},{"pitch":75,"velocity":89,"channel":0},{"pitch":27,"velocity":105,"channel":0},{"pitch":27,"velocity":99,"channel":0},{"pitch":32,"velocity":110,"channel":0},{"pitch":8,"velocity":119,"channel":0},{"pitch":15,"velocity":122,"channel":0}],"stageTiming":{"beat-setup":26.0835,"intent":0.0127,"entropy":0.1873,"phase":0.0255,"climax":0.0264,"envelope":0.0137,"silhouette":0.0185,"rest":0.0235,"complement":0.0019,"tension-cadence":0.1455,"negotiation":0.0288,"probability-adjust":0.0026,"emission":5.7903,"post-beat":0.0211},"iterBudget":{"raw":96,"capped":96,"wasCapped":false}}
{"layer":"L1","beatKey":"0:0:4:2","timeMs":8333.333333333334,"snap":{"key":"D#","mode":"locrian","quality":"minor","scale":["D#","E","F#","G#","A","B","C#"],"chords":[],"tension":0.26388563117850017,"harmonicRhythm":0.43312798396067853,"harmonicMutationCount":6,"excursion":0,"sectionPhase":"opening","phrasePosition":0.6,"phrasePhase":"climax","phraseDynamism":1,"registerBias":5.412678195541844,"densityMultiplier":1.1804226065180616,"voiceIndependence":0.5,"compositeIntensity":0.402050480534625,"playProb":0.332021236971755,"stutterProb":0.23121159176704054,"flicker":1.1535457647440162,"textureMode":"flurry","textureFatigue":0.05833333333333333,"densityBias":0,"crossModBias":1,"emissionRatio":0.03681217259592515,"extraDensityCorrection":1.192637565480815,"extraCoherenceDensityBias":1,"activeProfile":"restrained","journeyMove":"origin","journeyDistance":0,"journeyKey":"D#","journeyMode":"locrian","binauralFreqOffset":8,"binauralFlip":false,"tick":352500,"updatedAt":1772749089492},"negotiation":{"playProb":0.3399871627609151,"stutterProb":0.273092284975406,"allowCadence":false,"conflict":0.003768464647321501,"phaseConfidence":0.275},"trust":{"stutterContagion":{"score":0.1933706220964115,"samples":51,"weight":1.1450279665723087},"cadenceAlignment":{"score":0.19347395161500583,"samples":51,"weight":1.15},"phaseLock":{"score":0.2427486143559757,"samples":51,"weight":1.1820614607669817},"convergence":{"score":0.1996215173192168,"samples":51,"weight":1.1497161379894125},"feedbackOscillator":{"score":0.19372934575004952,"samples":51,"weight":1.1452970093125372},"coherenceMonitor":{"score":0.7058427932617889,"samples":51,"weight":1.5293820949463417},"entropyRegulator":{"score":0.6275004032956911,"samples":51,"weight":1.4706253024717684},"restSynchronizer":{"score":0.219640804308655,"samples":51,"weight":1.1647306032314912}},"regime":"initializing","coupling":{},"couplingTargets":{},"axisCouplingTotals":{"density":0,"tension":0,"flicker":0,"entropy":0,"trust":0,"phase":0},"axisEnergyShare":{"shares":{"density":0,"tension":0,"flicker":0,"entropy":0,"trust":0,"phase":0},"axisGini":0},"couplingGates":{"gateD":1,"gateT":1,"gateF":1,"floorDampen":1,"bypassD":0,"bypassT":0,"bypassF":0,"gateMinD":1,"gateMinT":1,"gateMinF":1,"gateEmaD":1,"gateEmaT":1,"gateEmaF":1,"gateBeatCount":5},"couplingHomeostasis":{"totalEnergyEma":0,"energyBudget":3.5,"peakEnergyEma":0,"totalEnergyFloor":8,"floorDampen":1,"redistributionScore":0,"nudgeableRedistributionScore":0,"globalGainMultiplier":1,"giniCoefficient":0,"energyDeltaEma":0,"pairTurbulenceEma":0,"beatCount":0,"invokeCount":5,"tickCount":51,"emptyMatrixBeats":5,"multiplierMin":1,"multiplierMax":1,"multiplierStdDev":0,"floorContactBeats":0,"ceilingContactBeats":51,"avgRecoveryDuration":0},"axisEnergyEquilibrator":{"beatCount":5,"pairAdjustments":0,"axisAdjustments":0,"smoothedShares":{"density":0,"tension":0,"flicker":0,"entropy":0,"trust":0,"phase":0},"perAxisAdj":{},"perPairAdj":{},"lastBaselines":{},"regimeBeats":{},"regimePairAdj":{},"regimeAxisAdj":{},"regimeTightenBudget":{}},"transitionReadiness":{"gap":0,"couplingStrength":0,"coherentThreshold":0,"velocity":0,"velThreshold":0.008,"thresholdScale":0.65,"velocityBlocked":false,"exploringBlock":"velocity","rawRegimeCounts":{},"rawRegimeMaxStreak":{},"effectiveDim":0},"notes":[{"pitch":51,"velocity":96,"channel":0},{"pitch":51,"velocity":94,"channel":0},{"pitch":51,"velocity":109,"channel":0},{"pitch":44,"velocity":97,"channel":0},{"pitch":13,"velocity":100,"channel":0},{"pitch":15,"velocity":107,"channel":0},{"pitch":30,"velocity":104,"channel":0},{"pitch":25,"velocity":113,"channel":0},{"pitch":25,"velocity":115,"channel":0},{"pitch":15,"velocity":104,"channel":0},{"pitch":80,"velocity":108,"channel":0},{"pitch":51,"velocity":94,"channel":0},{"pitch":15,"velocity":84,"channel":0},{"pitch":15,"velocity":97,"channel":0},{"pitch":25,"velocity":97,"channel":0},{"pitch":85,"velocity":105,"channel":0},{"pitch":32,"velocity":111,"channel":0},{"pitch":32,"velocity":126,"channel":0},{"pitch":32,"velocity":97,"channel":0},{"pitch":32,"velocity":98,"channel":0},{"pitch":25,"velocity":95,"channel":0},{"pitch":25,"velocity":92,"channel":0},{"pitch":25,"velocity":106,"channel":0},{"pitch":27,"velocity":96,"channel":0},{"pitch":27,"velocity":101,"channel":0},{"pitch":78,"velocity":84,"channel":0},{"pitch":78,"velocity":104,"channel":0},{"pitch":78,"velocity":94,"channel":0},{"pitch":78,"velocity":127,"channel":0},{"pitch":51,"velocity":105,"channel":0},{"pitch":51,"velocity":74,"channel":0},{"pitch":39,"velocity":84,"channel":0},{"pitch":39,"velocity":88,"channel":0},{"pitch":25,"velocity":110,"channel":0},{"pitch":102,"velocity":87,"channel":0},{"pitch":56,"velocity":107,"channel":0},{"pitch":75,"velocity":83,"channel":0},{"pitch":25,"velocity":89,"channel":0},{"pitch":104,"velocity":102,"channel":0},{"pitch":92,"velocity":91,"channel":0},{"pitch":87,"velocity":98,"channel":0},{"pitch":56,"velocity":115,"channel":0},{"pitch":30,"velocity":103,"channel":0},{"pitch":51,"velocity":90,"channel":0},{"pitch":51,"velocity":98,"channel":0},{"pitch":51,"velocity":120,"channel":0},{"pitch":51,"velocity":88,"channel":0},{"pitch":20,"velocity":96,"channel":0},{"pitch":25,"velocity":109,"channel":0},{"pitch":90,"velocity":94,"channel":0},{"pitch":97,"velocity":91,"channel":0},{"pitch":6,"velocity":93,"channel":0},{"pitch":78,"velocity":96,"channel":0},{"pitch":78,"velocity":106,"channel":0},{"pitch":78,"velocity":88,"channel":0},{"pitch":78,"velocity":93,"channel":0},{"pitch":78,"velocity":110,"channel":0},{"pitch":104,"velocity":82,"channel":0},{"pitch":25,"velocity":104,"channel":0},{"pitch":25,"velocity":115,"channel":0},{"pitch":25,"velocity":97,"channel":0},{"pitch":6,"velocity":100,"channel":0},{"pitch":85,"velocity":107,"channel":0},{"pitch":20,"velocity":90,"channel":0},{"pitch":20,"velocity":97,"channel":0},{"pitch":20,"velocity":90,"channel":0},{"pitch":6,"velocity":108,"channel":0},{"pitch":27,"velocity":88,"channel":0},{"pitch":25,"velocity":92,"channel":0},{"pitch":27,"velocity":103,"channel":0},{"pitch":27,"velocity":98,"channel":0},{"pitch":27,"velocity":92,"channel":0},{"pitch":30,"velocity":111,"channel":0},{"pitch":20,"velocity":94,"channel":0},{"pitch":30,"velocity":105,"channel":0},{"pitch":30,"velocity":108,"channel":0},{"pitch":32,"velocity":111,"channel":0},{"pitch":32,"velocity":81,"channel":0},{"pitch":73,"velocity":83,"channel":0},{"pitch":20,"velocity":105,"channel":0},{"pitch":20,"velocity":89,"channel":0},{"pitch":25,"velocity":104,"channel":0},{"pitch":25,"velocity":107,"channel":0},{"pitch":92,"velocity":108,"channel":0},{"pitch":20,"velocity":105,"channel":0},{"pitch":30,"velocity":103,"channel":0},{"pitch":32,"velocity":81,"channel":0},{"pitch":92,"velocity":96,"channel":0},{"pitch":73,"velocity":105,"channel":0},{"pitch":25,"velocity":94,"channel":0},{"pitch":25,"velocity":86,"channel":0},{"pitch":8,"velocity":113,"channel":0},{"pitch":92,"velocity":100,"channel":0},{"pitch":25,"velocity":103,"channel":0},{"pitch":78,"velocity":109,"channel":0},{"pitch":25,"velocity":94,"channel":0},{"pitch":37,"velocity":87,"channel":0},{"pitch":20,"velocity":81,"channel":0},{"pitch":20,"velocity":96,"channel":0},{"pitch":20,"velocity":102,"channel":0},{"pitch":20,"velocity":91,"channel":0},{"pitch":13,"velocity":91,"channel":0},{"pitch":80,"velocity":96,"channel":0},{"pitch":85,"velocity":88,"channel":0},{"pitch":78,"velocity":84,"channel":0},{"pitch":32,"velocity":93,"channel":0},{"pitch":13,"velocity":93,"channel":0},{"pitch":73,"velocity":102,"channel":0},{"pitch":8,"velocity":116,"channel":0},{"pitch":80,"velocity":84,"channel":0},{"pitch":20,"velocity":84,"channel":0},{"pitch":32,"velocity":90,"channel":0},{"pitch":39,"velocity":104,"channel":0},{"pitch":75,"velocity":101,"channel":0},{"pitch":39,"velocity":106,"channel":0},{"pitch":39,"velocity":89,"channel":0},{"pitch":27,"velocity":90,"channel":0},{"pitch":42,"velocity":94,"channel":0},{"pitch":44,"velocity":113,"channel":0},{"pitch":44,"velocity":107,"channel":0},{"pitch":44,"velocity":94,"channel":0},{"pitch":32,"velocity":87,"channel":0},{"pitch":20,"velocity":102,"channel":0},{"pitch":73,"velocity":90,"channel":0},{"pitch":56,"velocity":96,"channel":0},{"pitch":30,"velocity":93,"channel":0},{"pitch":90,"velocity":94,"channel":0},{"pitch":85,"velocity":91,"channel":0},{"pitch":32,"velocity":110,"channel":0},{"pitch":27,"velocity":109,"channel":0},{"pitch":27,"velocity":96,"channel":0},{"pitch":37,"velocity":98,"channel":0},{"pitch":37,"velocity":88,"channel":0},{"pitch":8,"velocity":96,"channel":0},{"pitch":20,"velocity":89,"channel":0},{"pitch":20,"velocity":106,"channel":0},{"pitch":20,"velocity":94,"channel":0},{"pitch":20,"velocity":81,"channel":0},{"pitch":25,"velocity":110,"channel":0},{"pitch":25,"velocity":107,"channel":0},{"pitch":25,"velocity":93,"channel":0},{"pitch":8,"velocity":96,"channel":0},{"pitch":37,"velocity":105,"channel":0},{"pitch":37,"velocity":83,"channel":0},{"pitch":30,"velocity":121,"channel":0},{"pitch":32,"velocity":95,"channel":0},{"pitch":85,"velocity":98,"channel":0},{"pitch":13,"velocity":74,"channel":0},{"pitch":25,"velocity":113,"channel":0},{"pitch":15,"velocity":92,"channel":0},{"pitch":15,"velocity":109,"channel":0},{"pitch":56,"velocity":110,"channel":0},{"pitch":15,"velocity":96,"channel":0},{"pitch":49,"velocity":100,"channel":0},{"pitch":8,"velocity":80,"channel":0},{"pitch":8,"velocity":100,"channel":0},{"pitch":15,"velocity":97,"channel":0},{"pitch":15,"velocity":88,"channel":0},{"pitch":8,"velocity":102,"channel":0},{"pitch":49,"velocity":95,"channel":0},{"pitch":8,"velocity":101,"channel":0},{"pitch":8,"velocity":102,"channel":0},{"pitch":78,"velocity":98,"channel":0},{"pitch":8,"velocity":93,"channel":0},{"pitch":8,"velocity":100,"channel":0},{"pitch":8,"velocity":104,"channel":0},{"pitch":25,"velocity":74,"channel":0},{"pitch":8,"velocity":82,"channel":0},{"pitch":63,"velocity":89,"channel":0},{"pitch":49,"velocity":102,"channel":0},{"pitch":80,"velocity":111,"channel":0},{"pitch":75,"velocity":115,"channel":0},{"pitch":44,"velocity":106,"channel":0}],"stageTiming":{"beat-setup":14.3021,"intent":0.0131,"entropy":0.1928,"phase":0.0246,"climax":0.0248,"envelope":0.0129,"silhouette":0.0172,"rest":0.0262,"complement":0.0013,"tension-cadence":0.1325,"negotiation":0.0229,"probability-adjust":0.0024,"emission":5.063,"post-beat":0.0249},"iterBudget":{"raw":1134,"capped":392,"wasCapped":true}}
{"layer":"L1","beatKey":"0:0:4:3","timeMs":8500,"snap":{"key":"D#","mode":"locrian","quality":"minor","scale":["D#","E","F#","G#","A","B","C#"],"chords":[],"tension":0.26388563117850017,"harmonicRhythm":0.43312798396067853,"harmonicMutationCount":6,"excursion":0,"sectionPhase":"opening","phrasePosition":0.6,"phrasePhase":"climax","phraseDynamism":1,"registerBias":5.412678195541844,"densityMultiplier":1.1804226065180616,"voiceIndependence":0.5,"compositeIntensity":0.425597483078644,"playProb":0.332021236971755,"stutterProb":0.23121159176704054,"flicker":1.1535457647440162,"textureMode":"flurry","textureFatigue":0.05833333333333333,"densityBias":0,"crossModBias":1,"emissionRatio":0.03681217259592515,"extraDensityCorrection":1.192637565480815,"extraCoherenceDensityBias":1,"activeProfile":"restrained","journeyMove":"origin","journeyDistance":0,"journeyKey":"D#","journeyMode":"locrian","binauralFreqOffset":8,"binauralFlip":false,"tick":352500,"updatedAt":1772749098483},"negotiation":{"playProb":0.34209705704766924,"stutterProb":0.2749210782531713,"allowCadence":false,"conflict":0.004972033427691258,"phaseConfidence":0.275},"trust":{"stutterContagion":{"score":0.19159248330326548,"samples":52,"weight":1.1436943624774492},"cadenceAlignment":{"score":0.19198649301442883,"samples":52,"weight":1.15},"phaseLock":{"score":0.24285565416745775,"samples":52,"weight":1.1821417406255934},"convergence":{"score":0.19945970622170783,"samples":52,"weight":1.1495947796662809},"feedbackOscillator":{"score":0.19226215562519985,"samples":52,"weight":1.1441966167189},"coherenceMonitor":{"score":0.7061064021631045,"samples":52,"weight":1.5295798016223283},"entropyRegulator":{"score":0.6212462184196766,"samples":52,"weight":1.4659346638147575},"restSynchronizer":{"score":0.20547104715391173,"samples":52,"weight":1.1541032853654338}},"regime":"initializing","coupling":{},"couplingTargets":{},"axisCouplingTotals":{"density":0,"tension":0,"flicker":0,"entropy":0,"trust":0,"phase":0},"axisEnergyShare":{"shares":{"density":0,"tension":0,"flicker":0,"entropy":0,"trust":0,"phase":0},"axisGini":0},"couplingGates":{"gateD":1,"gateT":1,"gateF":1,"floorDampen":1,"bypassD":0,"bypassT":0,"bypassF":0,"gateMinD":1,"gateMinT":1,"gateMinF":1,"gateEmaD":1,"gateEmaT":1,"gateEmaF":1,"gateBeatCount":5},"couplingHomeostasis":{"totalEnergyEma":0,"energyBudget":3.5,"peakEnergyEma":0,"totalEnergyFloor":8,"floorDampen":1,"redistributionScore":0,"nudgeableRedistributionScore":0,"globalGainMultiplier":1,"giniCoefficient":0,"energyDeltaEma":0,"pairTurbulenceEma":0,"beatCount":0,"invokeCount":5,"tickCount":52,"emptyMatrixBeats":5,"multiplierMin":1,"multiplierMax":1,"multiplierStdDev":0,"floorContactBeats":0,"ceilingContactBeats":52,"avgRecoveryDuration":0},"axisEnergyEquilibrator":{"beatCount":5,"pairAdjustments":0,"axisAdjustments":0,"smoothedShares":{"density":0,"tension":0,"flicker":0,"entropy":0,"trust":0,"phase":0},"perAxisAdj":{},"perPairAdj":{},"lastBaselines":{},"regimeBeats":{},"regimePairAdj":{},"regimeAxisAdj":{},"regimeTightenBudget":{}},"transitionReadiness":{"gap":0,"couplingStrength":0,"coherentThreshold":0,"velocity":0,"velThreshold":0.008,"thresholdScale":0.65,"velocityBlocked":false,"exploringBlock":"velocity","rawRegimeCounts":{},"rawRegimeMaxStreak":{},"effectiveDim":0},"notes":[{"pitch":27,"velocity":103,"channel":0},{"pitch":20,"velocity":111,"channel":0},{"pitch":20,"velocity":92,"channel":0},{"pitch":20,"velocity":103,"channel":0},{"pitch":51,"velocity":98,"channel":0},{"pitch":75,"velocity":118,"channel":0},{"pitch":51,"velocity":106,"channel":0},{"pitch":56,"velocity":108,"channel":0},{"pitch":15,"velocity":89,"channel":0},{"pitch":15,"velocity":107,"channel":0},{"pitch":15,"velocity":104,"channel":0},{"pitch":85,"velocity":95,"channel":0},{"pitch":85,"velocity":91,"channel":0},{"pitch":85,"velocity":82,"channel":0},{"pitch":85,"velocity":95,"channel":0},{"pitch":54,"velocity":102,"channel":0},{"pitch":85,"velocity":81,"channel":0},{"pitch":20,"velocity":91,"channel":0},{"pitch":20,"velocity":106,"channel":0},{"pitch":20,"velocity":85,"channel":0},{"pitch":20,"velocity":106,"channel":0},{"pitch":75,"velocity":105,"channel":0},{"pitch":51,"velocity":95,"channel":0},{"pitch":27,"velocity":109,"channel":0},{"pitch":42,"velocity":91,"channel":0},{"pitch":42,"velocity":87,"channel":0},{"pitch":54,"velocity":89,"channel":0},{"pitch":54,"velocity":93,"channel":0},{"pitch":54,"velocity":93,"channel":0},{"pitch":54,"velocity":68,"channel":0},{"pitch":54,"velocity":109,"channel":0},{"pitch":25,"velocity":82,"channel":0},{"pitch":37,"velocity":104,"channel":0},{"pitch":51,"velocity":107,"channel":0},{"pitch":18,"velocity":95,"channel":0},{"pitch":85,"velocity":94,"channel":0},{"pitch":85,"velocity":100,"channel":0},{"pitch":56,"velocity":106,"channel":0},{"pitch":8,"velocity":93,"channel":0},{"pitch":13,"velocity":106,"channel":0},{"pitch":51,"velocity":91,"channel":0},{"pitch":56,"velocity":91,"channel":0},{"pitch":51,"velocity":93,"channel":0},{"pitch":44,"velocity":89,"channel":0},{"pitch":51,"velocity":95,"channel":0},{"pitch":51,"velocity":106,"channel":0},{"pitch":80,"velocity":83,"channel":0},{"pitch":49,"velocity":94,"channel":0},{"pitch":85,"velocity":90,"channel":0},{"pitch":13,"velocity":104,"channel":0},{"pitch":32,"velocity":80,"channel":0},{"pitch":42,"velocity":80,"channel":0},{"pitch":49,"velocity":106,"channel":0},{"pitch":25,"velocity":98,"channel":0},{"pitch":27,"velocity":97,"channel":0},{"pitch":3,"velocity":89,"channel":0},{"pitch":3,"velocity":97,"channel":0},{"pitch":3,"velocity":98,"channel":0},{"pitch":3,"velocity":84,"channel":0},{"pitch":18,"velocity":90,"channel":0},{"pitch":18,"velocity":84,"channel":0},{"pitch":56,"velocity":93,"channel":0},{"pitch":73,"velocity":88,"channel":0},{"pitch":54,"velocity":98,"channel":0},{"pitch":27,"velocity":104,"channel":0},{"pitch":51,"velocity":99,"channel":0},{"pitch":32,"velocity":81,"channel":0},{"pitch":13,"velocity":111,"channel":0},{"pitch":25,"velocity":107,"channel":0},{"pitch":20,"velocity":104,"channel":0},{"pitch":87,"velocity":110,"channel":0},{"pitch":20,"velocity":101,"channel":0},{"pitch":20,"velocity":105,"channel":0},{"pitch":20,"velocity":102,"channel":0},{"pitch":32,"velocity":95,"channel":0},{"pitch":20,"velocity":108,"channel":0},{"pitch":15,"velocity":107,"channel":0},{"pitch":54,"velocity":110,"channel":0},{"pitch":85,"velocity":98,"channel":0},{"pitch":32,"velocity":83,"channel":0},{"pitch":68,"velocity":90,"channel":0},{"pitch":68,"velocity":87,"channel":0},{"pitch":25,"velocity":93,"channel":0},{"pitch":49,"velocity":102,"channel":0},{"pitch":13,"velocity":93,"channel":0},{"pitch":13,"velocity":95,"channel":0},{"pitch":30,"velocity":87,"channel":0},{"pitch":49,"velocity":104,"channel":0},{"pitch":20,"velocity":92,"channel":0},{"pitch":20,"velocity":90,"channel":0},{"pitch":20,"velocity":91,"channel":0},{"pitch":51,"velocity":86,"channel":0},{"pitch":15,"velocity":102,"channel":0},{"pitch":44,"velocity":99,"channel":0},{"pitch":73,"velocity":99,"channel":0},{"pitch":6,"velocity":92,"channel":0},{"pitch":13,"velocity":95,"channel":0},{"pitch":85,"velocity":101,"channel":0},{"pitch":27,"velocity":84,"channel":0},{"pitch":30,"velocity":102,"channel":0},{"pitch":30,"velocity":94,"channel":0},{"pitch":85,"velocity":86,"channel":0},{"pitch":85,"velocity":106,"channel":0},{"pitch":20,"velocity":101,"channel":0},{"pitch":73,"velocity":92,"channel":0},{"pitch":30,"velocity":95,"channel":0},{"pitch":1,"velocity":93,"channel":0},{"pitch":8,"velocity":119,"channel":0},{"pitch":13,"velocity":98,"channel":0},{"pitch":13,"velocity":103,"channel":0},{"pitch":49,"velocity":85,"channel":0},{"pitch":27,"velocity":93,"channel":0},{"pitch":75,"velocity":98,"channel":0},{"pitch":51,"velocity":95,"channel":0},{"pitch":42,"velocity":101,"channel":0},{"pitch":44,"velocity":105,"channel":0},{"pitch":44,"velocity":84,"channel":0},{"pitch":44,"velocity":103,"channel":0},{"pitch":66,"velocity":95,"channel":0},{"pitch":8,"velocity":110,"channel":0},{"pitch":13,"velocity":101,"channel":0},{"pitch":13,"velocity":102,"channel":0},{"pitch":25,"velocity":102,"channel":0},{"pitch":13,"velocity":101,"channel":0},{"pitch":13,"velocity":86,"channel":0},{"pitch":13,"velocity":84,"channel":0},{"pitch":13,"velocity":118,"channel":0},{"pitch":30,"velocity":104,"channel":0},{"pitch":78,"velocity":97,"channel":0},{"pitch":90,"velocity":88,"channel":0},{"pitch":97,"velocity":82,"channel":0},{"pitch":49,"velocity":85,"channel":0},{"pitch":97,"velocity":99,"channel":0},{"pitch":85,"velocity":100,"channel":0},{"pitch":8,"velocity":75,"channel":0},{"pitch":8,"velocity":100,"channel":0},{"pitch":85,"velocity":99,"channel":0},{"pitch":85,"velocity":97,"channel":0},{"pitch":85,"velocity":81,"channel":0},{"pitch":18,"velocity":98,"channel":0},{"pitch":27,"velocity":90,"channel":0},{"pitch":6,"velocity":84,"channel":0},{"pitch":13,"velocity":92,"channel":0},{"pitch":13,"velocity":101,"channel":0},{"pitch":49,"velocity":100,"channel":0},{"pitch":92,"velocity":110,"channel":0},{"pitch":87,"velocity":108,"channel":0},{"pitch":18,"velocity":98,"channel":0},{"pitch":18,"velocity":83,"channel":0},{"pitch":18,"velocity":93,"channel":0},{"pitch":73,"velocity":105,"channel":0},{"pitch":63,"velocity":108,"channel":0},{"pitch":44,"velocity":88,"channel":0},{"pitch":27,"velocity":95,"channel":0},{"pitch":27,"velocity":107,"channel":0},{"pitch":27,"velocity":103,"channel":0},{"pitch":80,"velocity":97,"channel":0},{"pitch":15,"velocity":105,"channel":0},{"pitch":25,"velocity":103,"channel":0},{"pitch":54,"velocity":105,"channel":0},{"pitch":73,"velocity":98,"channel":0},{"pitch":102,"velocity":108,"channel":0},{"pitch":102,"velocity":102,"channel":0},{"pitch":15,"velocity":86,"channel":0},{"pitch":25,"velocity":105,"channel":0},{"pitch":25,"velocity":100,"channel":0},{"pitch":80,"velocity":97,"channel":0},{"pitch":20,"velocity":102,"channel":0},{"pitch":15,"velocity":90,"channel":0},{"pitch":15,"velocity":108,"channel":0},{"pitch":78,"velocity":88,"channel":0},{"pitch":85,"velocity":105,"channel":0},{"pitch":85,"velocity":102,"channel":0},{"pitch":85,"velocity":93,"channel":0},{"pitch":37,"velocity":105,"channel":0},{"pitch":80,"velocity":93,"channel":0},{"pitch":51,"velocity":98,"channel":0},{"pitch":51,"velocity":88,"channel":0},{"pitch":51,"velocity":86,"channel":0},{"pitch":51,"velocity":100,"channel":0},{"pitch":44,"velocity":104,"channel":0},{"pitch":6,"velocity":94,"channel":0},{"pitch":13,"velocity":87,"channel":0},{"pitch":8,"velocity":102,"channel":0},{"pitch":8,"velocity":106,"channel":0},{"pitch":8,"velocity":87,"channel":0},{"pitch":8,"velocity":98,"channel":0},{"pitch":32,"velocity":91,"channel":0},{"pitch":8,"velocity":108,"channel":0},{"pitch":6,"velocity":104,"channel":0},{"pitch":73,"velocity":70,"channel":0},{"pitch":20,"velocity":94,"channel":0},{"pitch":20,"velocity":99,"channel":0},{"pitch":20,"velocity":89,"channel":0},{"pitch":32,"velocity":99,"channel":0},{"pitch":6,"velocity":91,"channel":0},{"pitch":87,"velocity":85,"channel":0},{"pitch":27,"velocity":70,"channel":0},{"pitch":20,"velocity":94,"channel":0},{"pitch":20,"velocity":84,"channel":0},{"pitch":20,"velocity":83,"channel":0},{"pitch":20,"velocity":103,"channel":0},{"pitch":54,"velocity":95,"channel":0},{"pitch":78,"velocity":89,"channel":0},{"pitch":90,"velocity":90,"channel":0},{"pitch":56,"velocity":100,"channel":0},{"pitch":56,"velocity":84,"channel":0},{"pitch":61,"velocity":110,"channel":0},{"pitch":51,"velocity":80,"channel":0},{"pitch":75,"velocity":99,"channel":0},{"pitch":80,"velocity":82,"channel":0},{"pitch":51,"velocity":100,"channel":0},{"pitch":51,"velocity":99,"channel":0},{"pitch":51,"velocity":101,"channel":0},{"pitch":51,"velocity":95,"channel":0},{"pitch":51,"velocity":100,"channel":0},{"pitch":56,"velocity":92,"channel":0},{"pitch":56,"velocity":93,"channel":0},{"pitch":30,"velocity":107,"channel":0},{"pitch":49,"velocity":84,"channel":0},{"pitch":49,"velocity":91,"channel":0},{"pitch":85,"velocity":92,"channel":0},{"pitch":85,"velocity":94,"channel":0},{"pitch":18,"velocity":103,"channel":0},{"pitch":85,"velocity":101,"channel":0},{"pitch":85,"velocity":109,"channel":0},{"pitch":87,"velocity":105,"channel":0},{"pitch":56,"velocity":106,"channel":0},{"pitch":56,"velocity":108,"channel":0},{"pitch":56,"velocity":91,"channel":0},{"pitch":27,"velocity":82,"channel":0},{"pitch":20,"velocity":112,"channel":0},{"pitch":15,"velocity":87,"channel":0},{"pitch":27,"velocity":101,"channel":0},{"pitch":92,"velocity":110,"channel":0},{"pitch":56,"velocity":101,"channel":0},{"pitch":56,"velocity":104,"channel":0},{"pitch":63,"velocity":105,"channel":0},{"pitch":75,"velocity":111,"channel":0},{"pitch":51,"velocity":91,"channel":0},{"pitch":75,"velocity":98,"channel":0},{"pitch":3,"velocity":94,"channel":0},{"pitch":80,"velocity":88,"channel":0},{"pitch":51,"velocity":91,"channel":0},{"pitch":104,"velocity":103,"channel":0},{"pitch":92,"velocity":82,"channel":0},{"pitch":92,"velocity":112,"channel":0},{"pitch":87,"velocity":108,"channel":0},{"pitch":42,"velocity":97,"channel":0},{"pitch":51,"velocity":101,"channel":0},{"pitch":51,"velocity":102,"channel":0},{"pitch":51,"velocity":78,"channel":0},{"pitch":56,"velocity":95,"channel":0},{"pitch":56,"velocity":97,"channel":0},{"pitch":56,"velocity":95,"channel":0},{"pitch":20,"velocity":107,"channel":0},{"pitch":15,"velocity":94,"channel":0},{"pitch":15,"velocity":77,"channel":0},{"pitch":15,"velocity":90,"channel":0},{"pitch":66,"velocity":94,"channel":0},{"pitch":42,"velocity":82,"channel":0},{"pitch":1,"velocity":95,"channel":0},{"pitch":87,"velocity":97,"channel":0},{"pitch":20,"velocity":90,"channel":0},{"pitch":37,"velocity":114,"channel":0},{"pitch":27,"velocity":91,"channel":0},{"pitch":20,"velocity":91,"channel":0},{"pitch":37,"velocity":84,"channel":0},{"pitch":30,"velocity":92,"channel":0},{"pitch":27,"velocity":108,"channel":0},{"pitch":25,"velocity":92,"channel":0},{"pitch":20,"velocity":85,"channel":0},{"pitch":8,"velocity":97,"channel":0},{"pitch":6,"velocity":108,"channel":0},{"pitch":6,"velocity":95,"channel":0},{"pitch":13,"velocity":103,"channel":0},{"pitch":13,"velocity":88,"channel":0},{"pitch":90,"velocity":108,"channel":0},{"pitch":13,"velocity":98,"channel":0},{"pitch":18,"velocity":90,"channel":0},{"pitch":18,"velocity":98,"channel":0},{"pitch":90,"velocity":108,"channel":0},{"pitch":90,"velocity":103,"channel":0},{"pitch":90,"velocity":95,"channel":0},{"pitch":90,"velocity":97,"channel":0},{"pitch":90,"velocity":109,"channel":0},{"pitch":13,"velocity":99,"channel":0},{"pitch":25,"velocity":100,"channel":0},{"pitch":20,"velocity":69,"channel":0},{"pitch":20,"velocity":103,"channel":0},{"pitch":20,"velocity":91,"channel":0},{"pitch":20,"velocity":82,"channel":0},{"pitch":20,"velocity":91,"channel":0},{"pitch":49,"velocity":94,"channel":0},{"pitch":6,"velocity":89,"channel":0},{"pitch":6,"velocity":89,"channel":0},{"pitch":13,"velocity":89,"channel":0},{"pitch":13,"velocity":110,"channel":0},{"pitch":102,"velocity":99,"channel":0},{"pitch":97,"velocity":82,"channel":0},{"pitch":90,"velocity":93,"channel":0},{"pitch":90,"velocity":102,"channel":0},{"pitch":39,"velocity":71,"channel":0},{"pitch":78,"velocity":93,"channel":0},{"pitch":39,"velocity":102,"channel":0},{"pitch":44,"velocity":92,"channel":0},{"pitch":42,"velocity":106,"channel":0},{"pitch":20,"velocity":91,"channel":0},{"pitch":32,"velocity":93,"channel":0},{"pitch":63,"velocity":84,"channel":0},{"pitch":20,"velocity":102,"channel":0},{"pitch":15,"velocity":104,"channel":0},{"pitch":15,"velocity":97,"channel":0},{"pitch":27,"velocity":127,"channel":0},{"pitch":15,"velocity":91,"channel":0},{"pitch":73,"velocity":104,"channel":0},{"pitch":8,"velocity":111,"channel":0},{"pitch":8,"velocity":83,"channel":0},{"pitch":13,"velocity":87,"channel":0},{"pitch":49,"velocity":101,"channel":0},{"pitch":75,"velocity":86,"channel":0},{"pitch":54,"velocity":103,"channel":0},{"pitch":75,"velocity":91,"channel":0},{"pitch":27,"velocity":110,"channel":0},{"pitch":25,"velocity":102,"channel":0},{"pitch":61,"velocity":89,"channel":0},{"pitch":56,"velocity":92,"channel":0},{"pitch":56,"velocity":97,"channel":0},{"pitch":51,"velocity":87,"channel":0},{"pitch":51,"velocity":99,"channel":0},{"pitch":51,"velocity":111,"channel":0},{"pitch":32,"velocity":112,"channel":0},{"pitch":27,"velocity":92,"channel":0},{"pitch":27,"velocity":101,"channel":0},{"pitch":27,"velocity":89,"channel":0},{"pitch":87,"velocity":100,"channel":0},{"pitch":27,"velocity":90,"channel":0},{"pitch":20,"velocity":107,"channel":0},{"pitch":92,"velocity":90,"channel":0},{"pitch":37,"velocity":100,"channel":0},{"pitch":8,"velocity":97,"channel":0},{"pitch":8,"velocity":74,"channel":0},{"pitch":56,"velocity":85,"channel":0},{"pitch":8,"velocity":98,"channel":0},{"pitch":8,"velocity":94,"channel":0},{"pitch":8,"velocity":89,"channel":0},{"pitch":13,"velocity":111,"channel":0},{"pitch":49,"velocity":89,"channel":0},{"pitch":20,"velocity":108,"channel":0},{"pitch":25,"velocity":86,"channel":0},{"pitch":20,"velocity":84,"channel":0},{"pitch":15,"velocity":98,"channel":0},{"pitch":15,"velocity":100,"channel":0},{"pitch":6,"velocity":90,"channel":0},{"pitch":18,"velocity":102,"channel":0},{"pitch":32,"velocity":83,"channel":0},{"pitch":30,"velocity":106,"channel":0},{"pitch":27,"velocity":88,"channel":0},{"pitch":6,"velocity":91,"channel":0},{"pitch":6,"velocity":93,"channel":0},{"pitch":6,"velocity":106,"channel":0},{"pitch":6,"velocity":85,"channel":0},{"pitch":73,"velocity":93,"channel":0},{"pitch":44,"velocity":92,"channel":0},{"pitch":44,"velocity":99,"channel":0},{"pitch":44,"velocity":94,"channel":0},{"pitch":44,"velocity":106,"channel":0},{"pitch":27,"velocity":105,"channel":0},{"pitch":15,"velocity":91,"channel":0},{"pitch":15,"velocity":91,"channel":0},{"pitch":39,"velocity":93,"channel":0},{"pitch":39,"velocity":100,"channel":0},{"pitch":25,"velocity":87,"channel":0},{"pitch":85,"velocity":90,"channel":0},{"pitch":85,"velocity":88,"channel":0},{"pitch":85,"velocity":93,"channel":0},{"pitch":20,"velocity":95,"channel":0},{"pitch":78,"velocity":108,"channel":0},{"pitch":25,"velocity":99,"channel":0}],"stageTiming":{"beat-setup":27.8971,"intent":0.0134,"entropy":0.1796,"phase":0.0233,"climax":0.0379,"envelope":0.0359,"silhouette":0.0221,"rest":0.0418,"complement":0.002,"tension-cadence":0.1283,"negotiation":0.0324,"probability-adjust":0.0025,"emission":7.2131,"post-beat":0.0245},"iterBudget":{"raw":336,"capped":336,"wasCapped":false}}
{"layer":"L1","beatKey":"0:0:4:4","timeMs":8666.666666666666,"snap":{"key":"D#","mode":"locrian","quality":"minor","scale":["D#","E","F#","G#","A","B","C#"],"chords":[],"tension":0.26388563117850017,"harmonicRhythm":0.43312798396067853,"harmonicMutationCount":6,"excursion":0,"sectionPhase":"opening","phrasePosition":0.6,"phrasePhase":"climax","phraseDynamism":1,"registerBias":5.412678195541844,"densityMultiplier":1.1804226065180616,"voiceIndependence":0.5,"compositeIntensity":0.3945118755785725,"playProb":0.332021236971755,"stutterProb":0.23121159176704054,"flicker":1.1535457647440162,"textureMode":"chordBurst","textureFatigue":0.08333333333333333,"densityBias":0,"crossModBias":1,"emissionRatio":0.03681217259592515,"extraDensityCorrection":1.192637565480815,"extraCoherenceDensityBias":1,"activeProfile":"restrained","journeyMove":"origin","journeyDistance":0,"journeyKey":"D#","journeyMode":"locrian","binauralFreqOffset":8,"binauralFlip":false,"tick":352500,"updatedAt":1772749104435},"negotiation":{"playProb":0.34241573223346977,"stutterProb":0.27552135444419956,"allowCadence":false,"conflict":0.0063056375225507555,"phaseConfidence":0.275},"trust":{"stutterContagion":{"score":0.1896662760855759,"samples":53,"weight":1.142249707064182},"cadenceAlignment":{"score":0.19011758887644586,"samples":53,"weight":1.15},"phaseLock":{"score":0.2429518936619613,"samples":53,"weight":1.182213920246471},"convergence":{"score":0.19931422186393752,"samples":53,"weight":1.1494856663979531},"feedbackOscillator":{"score":0.190364379650962,"samples":53,"weight":1.1427732847382215},"coherenceMonitor":{"score":0.7024588106670125,"samples":53,"weight":1.5268441080002595},"entropyRegulator":{"score":0.6182605886801725,"samples":53,"weight":1.4636954415101293},"restSynchronizer":{"score":0.19273101849608204,"samples":53,"weight":1.1445482638720614}},"regime":"initializing","coupling":{},"couplingTargets":{},"axisCouplingTotals":{"density":0,"tension":0,"flicker":0,"entropy":0,"trust":0,"phase":0},"axisEnergyShare":{"shares":{"density":0,"tension":0,"flicker":0,"entropy":0,"trust":0,"phase":0},"axisGini":0},"couplingGates":{"gateD":1,"gateT":1,"gateF":1,"floorDampen":1,"bypassD":0,"bypassT":0,"bypassF":0,"gateMinD":1,"gateMinT":1,"gateMinF":1,"gateEmaD":1,"gateEmaT":1,"gateEmaF":1,"gateBeatCount":5},"couplingHomeostasis":{"totalEnergyEma":0,"energyBudget":3.5,"peakEnergyEma":0,"totalEnergyFloor":8,"floorDampen":1,"redistributionScore":0,"nudgeableRedistributionScore":0,"globalGainMultiplier":1,"giniCoefficient":0,"energyDeltaEma":0,"pairTurbulenceEma":0,"beatCount":0,"invokeCount":5,"tickCount":53,"emptyMatrixBeats":5,"multiplierMin":1,"multiplierMax":1,"multiplierStdDev":0,"floorContactBeats":0,"ceilingContactBeats":53,"avgRecoveryDuration":0},"axisEnergyEquilibrator":{"beatCount":5,"pairAdjustments":0,"axisAdjustments":0,"smoothedShares":{"density":0,"tension":0,"flicker":0,"entropy":0,"trust":0,"phase":0},"perAxisAdj":{},"perPairAdj":{},"lastBaselines":{},"regimeBeats":{},"regimePairAdj":{},"regimeAxisAdj":{},"regimeTightenBudget":{}},"transitionReadiness":{"gap":0,"couplingStrength":0,"coherentThreshold":0,"velocity":0,"velThreshold":0.008,"thresholdScale":0.65,"velocityBlocked":false,"exploringBlock":"velocity","rawRegimeCounts":{},"rawRegimeMaxStreak":{},"effectiveDim":0},"notes":[{"pitch":32,"velocity":104,"channel":0},{"pitch":27,"velocity":105,"channel":0},{"pitch":3,"velocity":96,"channel":0},{"pitch":32,"velocity":103,"channel":0},{"pitch":3,"velocity":108,"channel":0},{"pitch":49,"velocity":103,"channel":0},{"pitch":85,"velocity":89,"channel":0},{"pitch":97,"velocity":87,"channel":0},{"pitch":30,"velocity":93,"channel":0},{"pitch":15,"velocity":83,"channel":0},{"pitch":32,"velocity":106,"channel":0},{"pitch":32,"velocity":105,"channel":0},{"pitch":37,"velocity":88,"channel":0},{"pitch":37,"velocity":116,"channel":0},{"pitch":37,"velocity":105,"channel":0},{"pitch":80,"velocity":93,"channel":0},{"pitch":25,"velocity":104,"channel":0},{"pitch":51,"velocity":97,"channel":0},{"pitch":85,"velocity":105,"channel":0},{"pitch":56,"velocity":104,"channel":0},{"pitch":56,"velocity":91,"channel":0},{"pitch":56,"velocity":81,"channel":0},{"pitch":8,"velocity":115,"channel":0},{"pitch":42,"velocity":91,"channel":0},{"pitch":39,"velocity":94,"channel":0},{"pitch":13,"velocity":101,"channel":0},{"pitch":66,"velocity":90,"channel":0},{"pitch":6,"velocity":96,"channel":0},{"pitch":85,"velocity":89,"channel":0},{"pitch":85,"velocity":86,"channel":0},{"pitch":6,"velocity":87,"channel":0},{"pitch":6,"velocity":106,"channel":0},{"pitch":99,"velocity":87,"channel":0},{"pitch":6,"velocity":90,"channel":0},{"pitch":68,"velocity":84,"channel":0},{"pitch":37,"velocity":79,"channel":0},{"pitch":37,"velocity":77,"channel":0},{"pitch":32,"velocity":84,"channel":0},{"pitch":6,"velocity":98,"channel":0},{"pitch":39,"velocity":96,"channel":0},{"pitch":39,"velocity":99,"channel":0},{"pitch":87,"velocity":94,"channel":0},{"pitch":18,"velocity":98,"channel":0},{"pitch":63,"velocity":105,"channel":0},{"pitch":42,"velocity":109,"channel":0},{"pitch":42,"velocity":82,"channel":0},{"pitch":30,"velocity":97,"channel":0},{"pitch":54,"velocity":87,"channel":0},{"pitch":56,"velocity":91,"channel":0},{"pitch":8,"velocity":110,"channel":0},{"pitch":6,"velocity":106,"channel":0},{"pitch":13,"velocity":93,"channel":0},{"pitch":13,"velocity":98,"channel":0},{"pitch":6,"velocity":92,"channel":0},{"pitch":6,"velocity":105,"channel":0},{"pitch":20,"velocity":97,"channel":0},{"pitch":15,"velocity":84,"channel":0},{"pitch":15,"velocity":107,"channel":0},{"pitch":15,"velocity":77,"channel":0},{"pitch":92,"velocity":103,"channel":0},{"pitch":15,"velocity":94,"channel":0},{"pitch":42,"velocity":98,"channel":0},{"pitch":49,"velocity":92,"channel":0},{"pitch":54,"velocity":89,"channel":0},{"pitch":61,"velocity":99,"channel":0},{"pitch":78,"velocity":86,"channel":0},{"pitch":8,"velocity":103,"channel":0},{"pitch":8,"velocity":104,"channel":0},{"pitch":30,"velocity":87,"channel":0},{"pitch":54,"velocity":84,"channel":0},{"pitch":8,"velocity":105,"channel":0},{"pitch":18,"velocity":98,"channel":0},{"pitch":8,"velocity":91,"channel":0},{"pitch":66,"velocity":100,"channel":0},{"pitch":8,"velocity":96,"channel":0},{"pitch":13,"velocity":109,"channel":0},{"pitch":80,"velocity":96,"channel":0},{"pitch":20,"velocity":101,"channel":0},{"pitch":20,"velocity":77,"channel":0},{"pitch":18,"velocity":78,"channel":0},{"pitch":27,"velocity":83,"channel":0},{"pitch":15,"velocity":107,"channel":0},{"pitch":44,"velocity":97,"channel":0},{"pitch":8,"velocity":96,"channel":0},{"pitch":3,"velocity":82,"channel":0},{"pitch":78,"velocity":97,"channel":0},{"pitch":78,"velocity":93,"channel":0},{"pitch":13,"velocity":100,"channel":0},{"pitch":13,"velocity":73,"channel":0},{"pitch":15,"velocity":98,"channel":0},{"pitch":15,"velocity":88,"channel":0},{"pitch":27,"velocity":102,"channel":0},{"pitch":15,"velocity":78,"channel":0},{"pitch":15,"velocity":111,"channel":0},{"pitch":15,"velocity":108,"channel":0},{"pitch":20,"velocity":107,"channel":0},{"pitch":25,"velocity":97,"channel":0},{"pitch":25,"velocity":100,"channel":0},{"pitch":25,"velocity":100,"channel":0},{"pitch":25,"velocity":90,"channel":0},{"pitch":25,"velocity":102,"channel":0},{"pitch":25,"velocity":96,"channel":0},{"pitch":75,"velocity":88,"channel":0},{"pitch":15,"velocity":93,"channel":0},{"pitch":15,"velocity":83,"channel":0},{"pitch":8,"velocity":102,"channel":0},{"pitch":15,"velocity":88,"channel":0},{"pitch":15,"velocity":94,"channel":0},{"pitch":15,"velocity":81,"channel":0},{"pitch":56,"velocity":106,"channel":0},{"pitch":56,"velocity":98,"channel":0},{"pitch":87,"velocity":88,"channel":0},{"pitch":8,"velocity":88,"channel":0},{"pitch":15,"velocity":93,"channel":0},{"pitch":15,"velocity":90,"channel":0},{"pitch":15,"velocity":77,"channel":0},{"pitch":56,"velocity":99,"channel":0},{"pitch":8,"velocity":93,"channel":0},{"pitch":15,"velocity":84,"channel":0},{"pitch":75,"velocity":93,"channel":0},{"pitch":78,"velocity":104,"channel":0},{"pitch":56,"velocity":96,"channel":0},{"pitch":42,"velocity":92,"channel":0},{"pitch":54,"velocity":98,"channel":0},{"pitch":51,"velocity":75,"channel":0},{"pitch":51,"velocity":117,"channel":0},{"pitch":32,"velocity":92,"channel":0},{"pitch":92,"velocity":93,"channel":0},{"pitch":8,"velocity":74,"channel":0},{"pitch":6,"velocity":79,"channel":0},{"pitch":6,"velocity":99,"channel":0},{"pitch":6,"velocity":106,"channel":0},{"pitch":97,"velocity":88,"channel":0},{"pitch":90,"velocity":104,"channel":0},{"pitch":6,"velocity":90,"channel":0},{"pitch":8,"velocity":105,"channel":0},{"pitch":13,"velocity":88,"channel":0},{"pitch":30,"velocity":79,"channel":0},{"pitch":25,"velocity":100,"channel":0},{"pitch":25,"velocity":85,"channel":0},{"pitch":25,"velocity":103,"channel":0},{"pitch":73,"velocity":107,"channel":0},{"pitch":25,"velocity":98,"channel":0},{"pitch":92,"velocity":102,"channel":0},{"pitch":39,"velocity":91,"channel":0},{"pitch":13,"velocity":105,"channel":0},{"pitch":30,"velocity":83,"channel":0},{"pitch":37,"velocity":94,"channel":0},{"pitch":37,"velocity":84,"channel":0},{"pitch":56,"velocity":94,"channel":0},{"pitch":32,"velocity":91,"channel":0},{"pitch":32,"velocity":90,"channel":0},{"pitch":32,"velocity":98,"channel":0},{"pitch":8,"velocity":93,"channel":0},{"pitch":3,"velocity":85,"channel":0},{"pitch":87,"velocity":108,"channel":0},{"pitch":15,"velocity":111,"channel":0},{"pitch":6,"velocity":101,"channel":0},{"pitch":87,"velocity":101,"channel":0},{"pitch":15,"velocity":88,"channel":0},{"pitch":6,"velocity":89,"channel":0},{"pitch":6,"velocity":94,"channel":0},{"pitch":6,"velocity":90,"channel":0},{"pitch":51,"velocity":85,"channel":0},{"pitch":51,"velocity":99,"channel":0},{"pitch":8,"velocity":89,"channel":0},{"pitch":39,"velocity":87,"channel":0},{"pitch":27,"velocity":99,"channel":0},{"pitch":32,"velocity":92,"channel":0},{"pitch":37,"velocity":98,"channel":0},{"pitch":37,"velocity":87,"channel":0},{"pitch":20,"velocity":90,"channel":0},{"pitch":8,"velocity":104,"channel":0},{"pitch":49,"velocity":90,"channel":0},{"pitch":15,"velocity":96,"channel":0},{"pitch":15,"velocity":88,"channel":0},{"pitch":51,"velocity":97,"channel":0},{"pitch":15,"velocity":83,"channel":0},{"pitch":8,"velocity":102,"channel":0},{"pitch":39,"velocity":96,"channel":0},{"pitch":39,"velocity":66,"channel":0},{"pitch":39,"velocity":78,"channel":0},{"pitch":32,"velocity":106,"channel":0},{"pitch":13,"velocity":93,"channel":0},{"pitch":8,"velocity":104,"channel":0},{"pitch":6,"velocity":107,"channel":0},{"pitch":1,"velocity":99,"channel":0},{"pitch":8,"velocity":92,"channel":0},{"pitch":8,"velocity":112,"channel":0},{"pitch":8,"velocity":94,"channel":0},{"pitch":13,"velocity":89,"channel":0},{"pitch":25,"velocity":105,"channel":0},{"pitch":20,"velocity":103,"channel":0},{"pitch":20,"velocity":104,"channel":0},{"pitch":20,"velocity":93,"channel":0},{"pitch":20,"velocity":86,"channel":0},{"pitch":78,"velocity":93,"channel":0},{"pitch":8,"velocity":97,"channel":0},{"pitch":8,"velocity":82,"channel":0},{"pitch":25,"velocity":102,"channel":0},{"pitch":15,"velocity":102,"channel":0},{"pitch":13,"velocity":92,"channel":0},{"pitch":75,"velocity":93,"channel":0},{"pitch":15,"velocity":104,"channel":0},{"pitch":8,"velocity":81,"channel":0},{"pitch":27,"velocity":96,"channel":0},{"pitch":8,"velocity":106,"channel":0},{"pitch":8,"velocity":89,"channel":0},{"pitch":73,"velocity":85,"channel":0},{"pitch":30,"velocity":76,"channel":0},{"pitch":104,"velocity":100,"channel":0},{"pitch":30,"velocity":90,"channel":0},{"pitch":30,"velocity":86,"channel":0},{"pitch":30,"velocity":103,"channel":0},{"pitch":15,"velocity":87,"channel":0},{"pitch":25,"velocity":81,"channel":0},{"pitch":85,"velocity":103,"channel":0},{"pitch":25,"velocity":84,"channel":0},{"pitch":20,"velocity":82,"channel":0},{"pitch":92,"velocity":87,"channel":0},{"pitch":56,"velocity":94,"channel":0},{"pitch":25,"velocity":99,"channel":0},{"pitch":56,"velocity":107,"channel":0},{"pitch":39,"velocity":97,"channel":0}],"stageTiming":{"beat-setup":15.0574,"intent":0.0112,"entropy":0.2188,"phase":0.022,"climax":0.0235,"envelope":0.0131,"silhouette":0.0191,"rest":0.0484,"complement":0.0018,"tension-cadence":0.1135,"negotiation":0.0203,"probability-adjust":0.0022,"emission":5.0709,"post-beat":0.0209},"iterBudget":{"raw":240,"capped":240,"wasCapped":false}}
{"layer":"L1","beatKey":"0:0:4:5","timeMs":8833.333333333334,"snap":{"key":"D#","mode":"locrian","quality":"minor","scale":["D#","E","F#","G#","A","B","C#"],"chords":[],"tension":0.26388563117850017,"harmonicRhythm":0.43312798396067853,"harmonicMutationCount":6,"excursion":0,"sectionPhase":"opening","phrasePosition":0.6,"phrasePhase":"climax","phraseDynamism":1,"registerBias":5.412678195541844,"densityMultiplier":1.1804226065180616,"voiceIndependence":0.5,"compositeIntensity":0.44104433318552855,"playProb":0.332021236971755,"stutterProb":0.23121159176704054,"flicker":1.1535457647440162,"textureMode":"flurry","textureFatigue":0.05833333333333333,"densityBias":0,"crossModBias":1,"emissionRatio":0.03681217259592515,"extraDensityCorrection":1.192637565480815,"extraCoherenceDensityBias":1,"activeProfile":"restrained","journeyMove":"origin","journeyDistance":0,"journeyKey":"D#","journeyMode":"locrian","binauralFreqOffset":9,"binauralFlip":true,"tick":352500,"updatedAt":1772749108879},"negotiation":{"playProb":0.3436430397884796,"stutterProb":0.276721856408898,"allowCadence":false,"conflict":0.007750292935817971,"phaseConfidence":0.275},"trust":{"stutterContagion":{"score":0.18857773664024138,"samples":54,"weight":1.141433302480181},"cadenceAlignment":{"score":0.18857773664024138,"samples":54,"weight":1.15},"phaseLock":{"score":0.2430384225914694,"samples":54,"weight":1.182278816943602},"convergence":{"score":0.19918341687786625,"samples":54,"weight":1.1493875626583998},"feedbackOscillator":{"score":0.18857773664024138,"samples":54,"weight":1.141433302480181},"coherenceMonitor":{"score":0.7030067528882643,"samples":54,"weight":1.5272550646661982},"entropyRegulator":{"score":0.6142481025835058,"samples":54,"weight":1.4606860769376293},"restSynchronizer":{"score":0.18857773664024138,"samples":54,"weight":1.141433302480181}},"regime":"initializing","coupling":{},"couplingTargets":{},"axisCouplingTotals":{"density":0,"tension":0,"flicker":0,"entropy":0,"trust":0,"phase":0},"axisEnergyShare":{"shares":{"density":0,"tension":0,"flicker":0,"entropy":0,"trust":0,"phase":0},"axisGini":0},"couplingGates":{"gateD":1,"gateT":1,"gateF":1,"floorDampen":1,"bypassD":0,"bypassT":0,"bypassF":0,"gateMinD":1,"gateMinT":1,"gateMinF":1,"gateEmaD":1,"gateEmaT":1,"gateEmaF":1,"gateBeatCount":5},"couplingHomeostasis":{"totalEnergyEma":0,"energyBudget":3.5,"peakEnergyEma":0,"totalEnergyFloor":8,"floorDampen":1,"redistributionScore":0,"nudgeableRedistributionScore":0,"globalGainMultiplier":1,"giniCoefficient":0,"energyDeltaEma":0,"pairTurbulenceEma":0,"beatCount":0,"invokeCount":5,"tickCount":54,"emptyMatrixBeats":5,"multiplierMin":1,"multiplierMax":1,"multiplierStdDev":0,"floorContactBeats":0,"ceilingContactBeats":54,"avgRecoveryDuration":0},"axisEnergyEquilibrator":{"beatCount":5,"pairAdjustments":0,"axisAdjustments":0,"smoothedShares":{"density":0,"tension":0,"flicker":0,"entropy":0,"trust":0,"phase":0},"perAxisAdj":{},"perPairAdj":{},"lastBaselines":{},"regimeBeats":{},"regimePairAdj":{},"regimeAxisAdj":{},"regimeTightenBudget":{}},"transitionReadiness":{"gap":0,"couplingStrength":0,"coherentThreshold":0,"velocity":0,"velThreshold":0.008,"thresholdScale":0.65,"velocityBlocked":false,"exploringBlock":"velocity","rawRegimeCounts":{},"rawRegimeMaxStreak":{},"effectiveDim":0},"notes":[{"pitch":25,"velocity":80,"channel":0},{"pitch":73,"velocity":99,"channel":0},{"pitch":25,"velocity":101,"channel":0},{"pitch":25,"velocity":95,"channel":0},{"pitch":25,"velocity":78,"channel":0},{"pitch":25,"velocity":97,"channel":0},{"pitch":20,"velocity":94,"channel":0},{"pitch":6,"velocity":85,"channel":0},{"pitch":78,"velocity":105,"channel":0},{"pitch":25,"velocity":86,"channel":0},{"pitch":15,"velocity":94,"channel":0},{"pitch":15,"velocity":85,"channel":0},{"pitch":6,"velocity":93,"channel":0},{"pitch":85,"velocity":77,"channel":0},{"pitch":27,"velocity":103,"channel":0},{"pitch":6,"velocity":101,"channel":0},{"pitch":56,"velocity":92,"channel":0},{"pitch":73,"velocity":98,"channel":0},{"pitch":90,"velocity":80,"channel":0},{"pitch":42,"velocity":89,"channel":0},{"pitch":97,"velocity":97,"channel":0},{"pitch":92,"velocity":96,"channel":0},{"pitch":6,"velocity":87,"channel":0},{"pitch":90,"velocity":75,"channel":0},{"pitch":61,"velocity":90,"channel":0},{"pitch":6,"velocity":99,"channel":0},{"pitch":6,"velocity":75,"channel":0},{"pitch":6,"velocity":76,"channel":0},{"pitch":85,"velocity":101,"channel":0},{"pitch":6,"velocity":88,"channel":0},{"pitch":30,"velocity":98,"channel":0},{"pitch":6,"velocity":111,"channel":0},{"pitch":6,"velocity":90,"channel":0},{"pitch":78,"velocity":83,"channel":0},{"pitch":15,"velocity":99,"channel":0},{"pitch":49,"velocity":97,"channel":0},{"pitch":87,"velocity":89,"channel":0},{"pitch":20,"velocity":99,"channel":0},{"pitch":37,"velocity":87,"channel":0},{"pitch":37,"velocity":96,"channel":0},{"pitch":56,"velocity":94,"channel":0},{"pitch":75,"velocity":96,"channel":0},{"pitch":44,"velocity":88,"channel":0},{"pitch":44,"velocity":88,"channel":0},{"pitch":20,"velocity":80,"channel":0},{"pitch":20,"velocity":91,"channel":0},{"pitch":20,"velocity":96,"channel":0},{"pitch":15,"velocity":83,"channel":0},{"pitch":20,"velocity":94,"channel":0},{"pitch":51,"velocity":89,"channel":0},{"pitch":20,"velocity":93,"channel":0},{"pitch":90,"velocity":96,"channel":0},{"pitch":90,"velocity":90,"channel":0},{"pitch":90,"velocity":89,"channel":0},{"pitch":92,"velocity":86,"channel":0},{"pitch":92,"velocity":89,"channel":0},{"pitch":30,"velocity":103,"channel":0},{"pitch":37,"velocity":96,"channel":0},{"pitch":73,"velocity":95,"channel":0},{"pitch":42,"velocity":78,"channel":0},{"pitch":32,"velocity":93,"channel":0},{"pitch":42,"velocity":82,"channel":0},{"pitch":13,"velocity":93,"channel":0},{"pitch":20,"velocity":111,"channel":0},{"pitch":63,"velocity":103,"channel":0},{"pitch":37,"velocity":93,"channel":0},{"pitch":18,"velocity":98,"channel":0},{"pitch":13,"velocity":92,"channel":0},{"pitch":13,"velocity":88,"channel":0},{"pitch":30,"velocity":87,"channel":0},{"pitch":92,"velocity":95,"channel":0},{"pitch":39,"velocity":93,"channel":0},{"pitch":39,"velocity":91,"channel":0},{"pitch":39,"velocity":98,"channel":0},{"pitch":39,"velocity":96,"channel":0},{"pitch":39,"velocity":91,"channel":0},{"pitch":39,"velocity":78,"channel":0},{"pitch":6,"velocity":77,"channel":0},{"pitch":39,"velocity":84,"channel":0},{"pitch":42,"velocity":84,"channel":0},{"pitch":42,"velocity":92,"channel":0},{"pitch":27,"velocity":91,"channel":0},{"pitch":56,"velocity":82,"channel":0},{"pitch":56,"velocity":92,"channel":0},{"pitch":56,"velocity":92,"channel":0},{"pitch":73,"velocity":89,"channel":0},{"pitch":56,"velocity":85,"channel":0},{"pitch":56,"velocity":88,"channel":0},{"pitch":56,"velocity":87,"channel":0},{"pitch":97,"velocity":97,"channel":0},{"pitch":8,"velocity":109,"channel":0},{"pitch":8,"velocity":97,"channel":0},{"pitch":13,"velocity":93,"channel":0},{"pitch":30,"velocity":84,"channel":0},{"pitch":20,"velocity":83,"channel":0},{"pitch":20,"velocity":90,"channel":0},{"pitch":32,"velocity":88,"channel":0},{"pitch":27,"velocity":75,"channel":0},{"pitch":63,"velocity":81,"channel":0},{"pitch":51,"velocity":90,"channel":0},{"pitch":75,"velocity":83,"channel":0},{"pitch":61,"velocity":97,"channel":0},{"pitch":51,"velocity":89,"channel":0},{"pitch":66,"velocity":88,"channel":0},{"pitch":39,"velocity":78,"channel":0},{"pitch":56,"velocity":98,"channel":0},{"pitch":85,"velocity":96,"channel":0},{"pitch":92,"velocity":96,"channel":0},{"pitch":32,"velocity":81,"channel":0},{"pitch":73,"velocity":101,"channel":0},{"pitch":20,"velocity":92,"channel":0},{"pitch":20,"velocity":97,"channel":0},{"pitch":56,"velocity":92,"channel":0},{"pitch":8,"velocity":93,"channel":0},{"pitch":20,"velocity":106,"channel":0},{"pitch":56,"velocity":100,"channel":0},{"pitch":20,"velocity":87,"channel":0},{"pitch":51,"velocity":99,"channel":0},{"pitch":39,"velocity":91,"channel":0},{"pitch":18,"velocity":92,"channel":0},{"pitch":15,"velocity":84,"channel":0},{"pitch":15,"velocity":85,"channel":0},{"pitch":90,"velocity":86,"channel":0},{"pitch":13,"velocity":105,"channel":0},{"pitch":13,"velocity":97,"channel":0},{"pitch":56,"velocity":89,"channel":0},{"pitch":39,"velocity":103,"channel":0},{"pitch":51,"velocity":79,"channel":0},{"pitch":44,"velocity":71,"channel":0},{"pitch":85,"velocity":94,"channel":0},{"pitch":44,"velocity":89,"channel":0},{"pitch":44,"velocity":99,"channel":0},{"pitch":30,"velocity":112,"channel":0},{"pitch":32,"velocity":84,"channel":0},{"pitch":30,"velocity":86,"channel":0},{"pitch":25,"velocity":100,"channel":0},{"pitch":25,"velocity":109,"channel":0},{"pitch":25,"velocity":83,"channel":0},{"pitch":20,"velocity":93,"channel":0},{"pitch":20,"velocity":91,"channel":0},{"pitch":56,"velocity":94,"channel":0},{"pitch":51,"velocity":86,"channel":0},{"pitch":51,"velocity":94,"channel":0},{"pitch":51,"velocity":98,"channel":0},{"pitch":32,"velocity":68,"channel":0},{"pitch":27,"velocity":87,"channel":0},{"pitch":25,"velocity":97,"channel":0},{"pitch":39,"velocity":87,"channel":0},{"pitch":39,"velocity":108,"channel":0},{"pitch":39,"velocity":103,"channel":0},{"pitch":44,"velocity":75,"channel":0},{"pitch":32,"velocity":98,"channel":0},{"pitch":44,"velocity":91,"channel":0},{"pitch":15,"velocity":92,"channel":0},{"pitch":15,"velocity":102,"channel":0},{"pitch":15,"velocity":98,"channel":0},{"pitch":87,"velocity":91,"channel":0},{"pitch":25,"velocity":102,"channel":0},{"pitch":20,"velocity":91,"channel":0},{"pitch":18,"velocity":99,"channel":0},{"pitch":20,"velocity":86,"channel":0},{"pitch":56,"velocity":101,"channel":0},{"pitch":20,"velocity":91,"channel":0},{"pitch":13,"velocity":94,"channel":0}],"stageTiming":{"beat-setup":39.6491,"intent":0.0162,"entropy":0.2424,"phase":0.0283,"climax":0.0369,"envelope":0.0165,"silhouette":0.0206,"rest":0.0921,"complement":0.0025,"tension-cadence":0.7857,"negotiation":0.0628,"probability-adjust":0.007,"emission":7.0909,"post-beat":0.0335},"iterBudget":{"raw":128,"capped":128,"wasCapped":false}}
{"layer":"L1","beatKey":"0:0:4:6","timeMs":9000,"snap":{"key":"D#","mode":"locrian","quality":"minor","scale":["D#","E","F#","G#","A","B","C#"],"chords":[],"tension":0.26388563117850017,"harmonicRhythm":0.43312798396067853,"harmonicMutationCount":6,"excursion":0,"sectionPhase":"opening","phrasePosition":0.6,"phrasePhase":"climax","phraseDynamism":1,"registerBias":5.412678195541844,"densityMultiplier":1.1804226065180616,"voiceIndependence":0.5,"compositeIntensity":0.40989994646917094,"playProb":0.332021236971755,"stutterProb":0.23121159176704054,"flicker":1.1535457647440162,"textureMode":"flurry","textureFatigue":0.05833333333333333,"densityBias":0,"crossModBias":1,"emissionRatio":0.03681217259592515,"extraDensityCorrection":1.192637565480815,"extraCoherenceDensityBias":1,"activeProfile":"restrained","journeyMove":"origin","journeyDistance":0,"journeyKey":"D#","journeyMode":"locrian","binauralFreqOffset":9,"binauralFlip":true,"tick":352500,"updatedAt":1772749113523},"negotiation":{"playProb":0.344053878244713,"stutterProb":0.27737888668021576,"allowCadence":false,"conflict":0.008566697519818867,"phaseConfidence":0.275},"trust":{"stutterContagion":{"score":0.18835575987355055,"samples":55,"weight":1.141266819905163},"cadenceAlignment":{"score":0.18835575987355055,"samples":55,"weight":1.15},"phaseLock":{"score":0.24311622075199013,"samples":55,"weight":1.1823371655639927},"convergence":{"score":0.19906581011488955,"samples":55,"weight":1.1492993575861672},"feedbackOscillator":{"score":0.18835575987355055,"samples":55,"weight":1.141266819905163},"coherenceMonitor":{"score":0.704794442261596,"samples":55,"weight":1.528595831696197},"entropyRegulator":{"score":0.6126912797385726,"samples":55,"weight":1.4595184598039295},"restSynchronizer":{"score":0.18835575987355055,"samples":55,"weight":1.141266819905163}},"regime":"initializing","coupling":{},"couplingTargets":{},"axisCouplingTotals":{"density":0,"tension":0,"flicker":0,"entropy":0,"trust":0,"phase":0},"axisEnergyShare":{"shares":{"density":0,"tension":0,"flicker":0,"entropy":0,"trust":0,"phase":0},"axisGini":0},"couplingGates":{"gateD":1,"gateT":1,"gateF":1,"floorDampen":1,"bypassD":0,"bypassT":0,"bypassF":0,"gateMinD":1,"gateMinT":1,"gateMinF":1,"gateEmaD":1,"gateEmaT":1,"gateEmaF":1,"gateBeatCount":5},"couplingHomeostasis":{"totalEnergyEma":0,"energyBudget":3.5,"peakEnergyEma":0,"totalEnergyFloor":8,"floorDampen":1,"redistributionScore":0,"nudgeableRedistributionScore":0,"globalGainMultiplier":1,"giniCoefficient":0,"energyDeltaEma":0,"pairTurbulenceEma":0,"beatCount":0,"invokeCount":5,"tickCount":55,"emptyMatrixBeats":5,"multiplierMin":1,"multiplierMax":1,"multiplierStdDev":0,"floorContactBeats":0,"ceilingContactBeats":55,"avgRecoveryDuration":0},"axisEnergyEquilibrator":{"beatCount":5,"pairAdjustments":0,"axisAdjustments":0,"smoothedShares":{"density":0,"tension":0,"flicker":0,"entropy":0,"trust":0,"phase":0},"perAxisAdj":{},"perPairAdj":{},"lastBaselines":{},"regimeBeats":{},"regimePairAdj":{},"regimeAxisAdj":{},"regimeTightenBudget":{}},"transitionReadiness":{"gap":0,"couplingStrength":0,"coherentThreshold":0,"velocity":0,"velThreshold":0.008,"thresholdScale":0.65,"velocityBlocked":false,"exploringBlock":"velocity","rawRegimeCounts":{},"rawRegimeMaxStreak":{},"effectiveDim":0},"notes":[{"pitch":51,"velocity":71,"channel":0},{"pitch":3,"velocity":76,"channel":0},{"pitch":30,"velocity":91,"channel":0},{"pitch":25,"velocity":99,"channel":0},{"pitch":3,"velocity":75,"channel":0},{"pitch":3,"velocity":86,"channel":0},{"pitch":3,"velocity":84,"channel":0},{"pitch":3,"velocity":102,"channel":0},{"pitch":51,"velocity":94,"channel":0},{"pitch":3,"velocity":80,"channel":0},{"pitch":3,"velocity":92,"channel":0},{"pitch":3,"velocity":88,"channel":0},{"pitch":3,"velocity":84,"channel":0},{"pitch":37,"velocity":91,"channel":0},{"pitch":49,"velocity":82,"channel":0},{"pitch":87,"velocity":74,"channel":0},{"pitch":44,"velocity":89,"channel":0},{"pitch":75,"velocity":73,"channel":0},{"pitch":37,"velocity":104,"channel":0},{"pitch":37,"velocity":90,"channel":0},{"pitch":42,"velocity":91,"channel":0},{"pitch":78,"velocity":93,"channel":0},{"pitch":68,"velocity":85,"channel":0},{"pitch":56,"velocity":77,"channel":0},{"pitch":73,"velocity":75,"channel":0},{"pitch":90,"velocity":98,"channel":0},{"pitch":90,"velocity":77,"channel":0},{"pitch":37,"velocity":98,"channel":0},{"pitch":18,"velocity":87,"channel":0},{"pitch":8,"velocity":81,"channel":0},{"pitch":13,"velocity":97,"channel":0},{"pitch":13,"velocity":90,"channel":0},{"pitch":37,"velocity":94,"channel":0},{"pitch":8,"velocity":84,"channel":0},{"pitch":13,"velocity":86,"channel":0},{"pitch":13,"velocity":80,"channel":0},{"pitch":13,"velocity":109,"channel":0},{"pitch":32,"velocity":99,"channel":0},{"pitch":39,"velocity":86,"channel":0},{"pitch":32,"velocity":82,"channel":0},{"pitch":44,"velocity":99,"channel":0},{"pitch":39,"velocity":95,"channel":0},{"pitch":39,"velocity":96,"channel":0},{"pitch":44,"velocity":91,"channel":0},{"pitch":44,"velocity":87,"channel":0},{"pitch":37,"velocity":97,"channel":0},{"pitch":32,"velocity":81,"channel":0},{"pitch":3,"velocity":89,"channel":0},{"pitch":37,"velocity":97,"channel":0},{"pitch":32,"velocity":90,"channel":0},{"pitch":32,"velocity":80,"channel":0},{"pitch":32,"velocity":87,"channel":0},{"pitch":90,"velocity":92,"channel":0},{"pitch":85,"velocity":100,"channel":0},{"pitch":32,"velocity":85,"channel":0},{"pitch":37,"velocity":102,"channel":0},{"pitch":90,"velocity":97,"channel":0},{"pitch":27,"velocity":101,"channel":0},{"pitch":27,"velocity":100,"channel":0},{"pitch":51,"velocity":94,"channel":0},{"pitch":80,"velocity":95,"channel":0},{"pitch":15,"velocity":100,"channel":0},{"pitch":15,"velocity":95,"channel":0},{"pitch":30,"velocity":76,"channel":0},{"pitch":15,"velocity":87,"channel":0},{"pitch":44,"velocity":101,"channel":0},{"pitch":37,"velocity":90,"channel":0},{"pitch":80,"velocity":87,"channel":0},{"pitch":15,"velocity":98,"channel":0},{"pitch":25,"velocity":99,"channel":0},{"pitch":25,"velocity":85,"channel":0},{"pitch":20,"velocity":80,"channel":0},{"pitch":56,"velocity":87,"channel":0},{"pitch":20,"velocity":84,"channel":0},{"pitch":39,"velocity":95,"channel":0},{"pitch":20,"velocity":95,"channel":0},{"pitch":20,"velocity":100,"channel":0},{"pitch":32,"velocity":105,"channel":0},{"pitch":20,"velocity":96,"channel":0},{"pitch":8,"velocity":88,"channel":0},{"pitch":44,"velocity":98,"channel":0},{"pitch":20,"velocity":81,"channel":0},{"pitch":39,"velocity":106,"channel":0},{"pitch":27,"velocity":102,"channel":0},{"pitch":51,"velocity":89,"channel":0},{"pitch":27,"velocity":87,"channel":0},{"pitch":20,"velocity":91,"channel":0},{"pitch":20,"velocity":103,"channel":0},{"pitch":20,"velocity":83,"channel":0},{"pitch":8,"velocity":90,"channel":0},{"pitch":39,"velocity":98,"channel":0},{"pitch":51,"velocity":99,"channel":0},{"pitch":39,"velocity":79,"channel":0},{"pitch":39,"velocity":84,"channel":0},{"pitch":20,"velocity":74,"channel":0},{"pitch":15,"velocity":87,"channel":0},{"pitch":15,"velocity":97,"channel":0},{"pitch":39,"velocity":68,"channel":0},{"pitch":20,"velocity":90,"channel":0},{"pitch":51,"velocity":72,"channel":0},{"pitch":20,"velocity":88,"channel":0},{"pitch":20,"velocity":82,"channel":0},{"pitch":20,"velocity":79,"channel":0},{"pitch":25,"velocity":97,"channel":0},{"pitch":27,"velocity":90,"channel":0},{"pitch":13,"velocity":87,"channel":0},{"pitch":90,"velocity":102,"channel":0},{"pitch":30,"velocity":86,"channel":0},{"pitch":56,"velocity":80,"channel":0},{"pitch":51,"velocity":85,"channel":0},{"pitch":27,"velocity":98,"channel":0},{"pitch":27,"velocity":85,"channel":0},{"pitch":51,"velocity":92,"channel":0},{"pitch":27,"velocity":93,"channel":0},{"pitch":68,"velocity":76,"channel":0},{"pitch":51,"velocity":75,"channel":0},{"pitch":20,"velocity":76,"channel":0},{"pitch":27,"velocity":88,"channel":0},{"pitch":8,"velocity":83,"channel":0},{"pitch":92,"velocity":90,"channel":0},{"pitch":13,"velocity":87,"channel":0},{"pitch":13,"velocity":86,"channel":0},{"pitch":25,"velocity":84,"channel":0},{"pitch":18,"velocity":100,"channel":0},{"pitch":15,"velocity":78,"channel":0},{"pitch":15,"velocity":97,"channel":0},{"pitch":18,"velocity":91,"channel":0},{"pitch":27,"velocity":91,"channel":0},{"pitch":80,"velocity":93,"channel":0},{"pitch":56,"velocity":86,"channel":0},{"pitch":32,"velocity":79,"channel":0},{"pitch":39,"velocity":103,"channel":0}],"stageTiming":{"beat-setup":20.0872,"intent":0.0118,"entropy":0.1682,"phase":0.0217,"climax":0.0235,"envelope":0.0127,"silhouette":0.0143,"rest":0.0344,"complement":0.0012,"tension-cadence":0.1595,"negotiation":0.0204,"probability-adjust":0.0021,"emission":3.1231,"post-beat":0.0192},"iterBudget":{"raw":90,"capped":90,"wasCapped":false}}
{"layer":"L1","beatKey":"0:0:4:7","timeMs":9166.666666666666,"snap":{"key":"D#","mode":"locrian","quality":"minor","scale":["D#","E","F#","G#","A","B","C#"],"chords":[],"tension":0.26388563117850017,"harmonicRhythm":0.43312798396067853,"harmonicMutationCount":6,"excursion":0,"sectionPhase":"opening","phrasePosition":0.6,"phrasePhase":"climax","phraseDynamism":1,"registerBias":5.412678195541844,"densityMultiplier":1.1804226065180616,"voiceIndependence":0.5,"compositeIntensity":0.43976006646893706,"playProb":0.332021236971755,"stutterProb":0.23121159176704054,"flicker":1.1535457647440162,"textureMode":"chordBurst","textureFatigue":0.16666666666666666,"densityBias":0,"crossModBias":1,"emissionRatio":0.03681217259592515,"extraDensityCorrection":1.192637565480815,"extraCoherenceDensityBias":1,"activeProfile":"restrained","journeyMove":"origin","journeyDistance":0,"journeyKey":"D#","journeyMode":"locrian","binauralFreqOffset":9,"binauralFlip":true,"tick":352500,"updatedAt":1772749118535},"negotiation":{"playProb":0.34436720808234483,"stutterProb":0.27797636122885067,"allowCadence":false,"conflict":0.008733180094836923,"phaseConfidence":0.275},"trust":{"stutterContagion":{"score":0.18829872104713855,"samples":56,"weight":1.141224040785354},"cadenceAlignment":{"score":0.18829872104713855,"samples":56,"weight":1.15},"phaseLock":{"score":0.24318616907811433,"samples":56,"weight":1.1823896268085858},"convergence":{"score":0.1989600698742972,"samples":56,"weight":1.149220052405723},"feedbackOscillator":{"score":0.18829872104713855,"samples":56,"weight":1.141224040785354},"coherenceMonitor":{"score":0.703498922927278,"samples":56,"weight":1.5276241921954585},"entropyRegulator":{"score":0.6135191368171002,"samples":56,"weight":1.4601393526128252},"restSynchronizer":{"score":0.18829872104713855,"samples":56,"weight":1.141224040785354}},"regime":"initializing","coupling":{},"couplingTargets":{},"axisCouplingTotals":{"density":0,"tension":0,"flicker":0,"entropy":0,"trust":0,"phase":0},"axisEnergyShare":{"shares":{"density":0,"tension":0,"flicker":0,"entropy":0,"trust":0,"phase":0},"axisGini":0},"couplingGates":{"gateD":1,"gateT":1,"gateF":1,"floorDampen":1,"bypassD":0,"bypassT":0,"bypassF":0,"gateMinD":1,"gateMinT":1,"gateMinF":1,"gateEmaD":1,"gateEmaT":1,"gateEmaF":1,"gateBeatCount":5},"couplingHomeostasis":{"totalEnergyEma":0,"energyBudget":3.5,"peakEnergyEma":0,"totalEnergyFloor":8,"floorDampen":1,"redistributionScore":0,"nudgeableRedistributionScore":0,"globalGainMultiplier":1,"giniCoefficient":0,"energyDeltaEma":0,"pairTurbulenceEma":0,"beatCount":0,"invokeCount":5,"tickCount":56,"emptyMatrixBeats":5,"multiplierMin":1,"multiplierMax":1,"multiplierStdDev":0,"floorContactBeats":0,"ceilingContactBeats":56,"avgRecoveryDuration":0},"axisEnergyEquilibrator":{"beatCount":5,"pairAdjustments":0,"axisAdjustments":0,"smoothedShares":{"density":0,"tension":0,"flicker":0,"entropy":0,"trust":0,"phase":0},"perAxisAdj":{},"perPairAdj":{},"lastBaselines":{},"regimeBeats":{},"regimePairAdj":{},"regimeAxisAdj":{},"regimeTightenBudget":{}},"transitionReadiness":{"gap":0,"couplingStrength":0,"coherentThreshold":0,"velocity":0,"velThreshold":0.008,"thresholdScale":0.65,"velocityBlocked":false,"exploringBlock":"velocity","rawRegimeCounts":{},"rawRegimeMaxStreak":{},"effectiveDim":0},"notes":[{"pitch":49,"velocity":76,"channel":0},{"pitch":56,"velocity":97,"channel":0},{"pitch":49,"velocity":82,"channel":0},{"pitch":3,"velocity":91,"channel":0},{"pitch":13,"velocity":84,"channel":0},{"pitch":13,"velocity":101,"channel":0},{"pitch":97,"velocity":105,"channel":0},{"pitch":54,"velocity":73,"channel":0},{"pitch":20,"velocity":73,"channel":0},{"pitch":78,"velocity":84,"channel":0},{"pitch":6,"velocity":85,"channel":0},{"pitch":73,"velocity":96,"channel":0},{"pitch":68,"velocity":88,"channel":0},{"pitch":75,"velocity":80,"channel":0},{"pitch":51,"velocity":85,"channel":0},{"pitch":51,"velocity":97,"channel":0},{"pitch":51,"velocity":94,"channel":0},{"pitch":6,"velocity":97,"channel":0},{"pitch":6,"velocity":93,"channel":0},{"pitch":6,"velocity":93,"channel":0},{"pitch":13,"velocity":82,"channel":0},{"pitch":49,"velocity":92,"channel":0},{"pitch":13,"velocity":97,"channel":0},{"pitch":13,"velocity":80,"channel":0},{"pitch":13,"velocity":65,"channel":0},{"pitch":15,"velocity":82,"channel":0},{"pitch":44,"velocity":96,"channel":0},{"pitch":3,"velocity":74,"channel":0},{"pitch":15,"velocity":78,"channel":0},{"pitch":25,"velocity":87,"channel":0},{"pitch":20,"velocity":82,"channel":0},{"pitch":6,"velocity":107,"channel":0},{"pitch":20,"velocity":79,"channel":0},{"pitch":20,"velocity":84,"channel":0},{"pitch":20,"velocity":98,"channel":0},{"pitch":25,"velocity":90,"channel":0},{"pitch":25,"velocity":95,"channel":0},{"pitch":49,"velocity":82,"channel":0},{"pitch":92,"velocity":79,"channel":0},{"pitch":39,"velocity":72,"channel":0},{"pitch":51,"velocity":82,"channel":0},{"pitch":32,"velocity":100,"channel":0},{"pitch":39,"velocity":98,"channel":0},{"pitch":39,"velocity":85,"channel":0},{"pitch":39,"velocity":90,"channel":0},{"pitch":39,"velocity":77,"channel":0},{"pitch":75,"velocity":92,"channel":0},{"pitch":39,"velocity":93,"channel":0},{"pitch":49,"velocity":86,"channel":0},{"pitch":68,"velocity":88,"channel":0},{"pitch":15,"velocity":95,"channel":0},{"pitch":42,"velocity":84,"channel":0},{"pitch":15,"velocity":74,"channel":0},{"pitch":75,"velocity":90,"channel":0},{"pitch":32,"velocity":71,"channel":0},{"pitch":30,"velocity":86,"channel":0},{"pitch":25,"velocity":66,"channel":0},{"pitch":87,"velocity":97,"channel":0},{"pitch":42,"velocity":91,"channel":0},{"pitch":78,"velocity":93,"channel":0},{"pitch":18,"velocity":79,"channel":0},{"pitch":39,"velocity":86,"channel":0},{"pitch":39,"velocity":85,"channel":0},{"pitch":90,"velocity":100,"channel":0},{"pitch":18,"velocity":74,"channel":0},{"pitch":25,"velocity":75,"channel":0},{"pitch":25,"velocity":77,"channel":0},{"pitch":18,"velocity":86,"channel":0},{"pitch":18,"velocity":82,"channel":0},{"pitch":39,"velocity":92,"channel":0},{"pitch":8,"velocity":102,"channel":0},{"pitch":13,"velocity":92,"channel":0},{"pitch":25,"velocity":80,"channel":0},{"pitch":85,"velocity":67,"channel":0},{"pitch":42,"velocity":85,"channel":0},{"pitch":39,"velocity":94,"channel":0},{"pitch":27,"velocity":63,"channel":0},{"pitch":15,"velocity":78,"channel":0},{"pitch":15,"velocity":83,"channel":0},{"pitch":75,"velocity":68,"channel":0},{"pitch":44,"velocity":97,"channel":0},{"pitch":25,"velocity":91,"channel":0},{"pitch":87,"velocity":88,"channel":0},{"pitch":78,"velocity":84,"channel":0},{"pitch":68,"velocity":88,"channel":0},{"pitch":85,"velocity":84,"channel":0},{"pitch":85,"velocity":93,"channel":0},{"pitch":85,"velocity":88,"channel":0},{"pitch":42,"velocity":83,"channel":0},{"pitch":42,"velocity":77,"channel":0},{"pitch":42,"velocity":99,"channel":0},{"pitch":42,"velocity":80,"channel":0},{"pitch":42,"velocity":100,"channel":0},{"pitch":42,"velocity":77,"channel":0},{"pitch":32,"velocity":110,"channel":0},{"pitch":44,"velocity":82,"channel":0},{"pitch":44,"velocity":72,"channel":0},{"pitch":1,"velocity":101,"channel":0},{"pitch":1,"velocity":76,"channel":0},{"pitch":56,"velocity":80,"channel":0},{"pitch":32,"velocity":85,"channel":0},{"pitch":56,"velocity":95,"channel":0},{"pitch":44,"velocity":93,"channel":0},{"pitch":49,"velocity":80,"channel":0},{"pitch":1,"velocity":76,"channel":0},{"pitch":15,"velocity":79,"channel":0},{"pitch":15,"velocity":84,"channel":0},{"pitch":15,"velocity":82,"channel":0},{"pitch":15,"velocity":78,"channel":0},{"pitch":44,"velocity":80,"channel":0},{"pitch":27,"velocity":78,"channel":0},{"pitch":20,"velocity":88,"channel":0},{"pitch":20,"velocity":91,"channel":0},{"pitch":1,"velocity":105,"channel":0},{"pitch":6,"velocity":99,"channel":0},{"pitch":6,"velocity":91,"channel":0},{"pitch":13,"velocity":72,"channel":0},{"pitch":13,"velocity":81,"channel":0},{"pitch":49,"velocity":96,"channel":0},{"pitch":8,"velocity":102,"channel":0},{"pitch":8,"velocity":89,"channel":0},{"pitch":39,"velocity":90,"channel":0},{"pitch":27,"velocity":90,"channel":0},{"pitch":39,"velocity":92,"channel":0},{"pitch":39,"velocity":95,"channel":0},{"pitch":1,"velocity":88,"channel":0},{"pitch":39,"velocity":97,"channel":0},{"pitch":39,"velocity":89,"channel":0},{"pitch":39,"velocity":97,"channel":0},{"pitch":39,"velocity":87,"channel":0},{"pitch":51,"velocity":97,"channel":0},{"pitch":1,"velocity":69,"channel":0},{"pitch":51,"velocity":79,"channel":0},{"pitch":32,"velocity":77,"channel":0},{"pitch":32,"velocity":97,"channel":0},{"pitch":30,"velocity":97,"channel":0},{"pitch":30,"velocity":84,"channel":0},{"pitch":54,"velocity":92,"channel":0},{"pitch":30,"velocity":96,"channel":0},{"pitch":30,"velocity":73,"channel":0},{"pitch":42,"velocity":81,"channel":0},{"pitch":30,"velocity":97,"channel":0},{"pitch":30,"velocity":66,"channel":0},{"pitch":30,"velocity":77,"channel":0},{"pitch":90,"velocity":86,"channel":0},{"pitch":73,"velocity":102,"channel":0},{"pitch":32,"velocity":77,"channel":0},{"pitch":30,"velocity":91,"channel":0},{"pitch":20,"velocity":75,"channel":0},{"pitch":73,"velocity":98,"channel":0},{"pitch":20,"velocity":98,"channel":0},{"pitch":56,"velocity":87,"channel":0},{"pitch":15,"velocity":80,"channel":0},{"pitch":20,"velocity":88,"channel":0},{"pitch":20,"velocity":87,"channel":0},{"pitch":73,"velocity":95,"channel":0},{"pitch":20,"velocity":82,"channel":0},{"pitch":20,"velocity":76,"channel":0},{"pitch":39,"velocity":83,"channel":0},{"pitch":75,"velocity":97,"channel":0},{"pitch":37,"velocity":84,"channel":0},{"pitch":39,"velocity":85,"channel":0},{"pitch":87,"velocity":89,"channel":0},{"pitch":39,"velocity":92,"channel":0},{"pitch":68,"velocity":89,"channel":0},{"pitch":13,"velocity":83,"channel":0},{"pitch":8,"velocity":76,"channel":0},{"pitch":32,"velocity":77,"channel":0},{"pitch":56,"velocity":77,"channel":0},{"pitch":3,"velocity":95,"channel":0},{"pitch":3,"velocity":88,"channel":0},{"pitch":18,"velocity":84,"channel":0},{"pitch":56,"velocity":95,"channel":0},{"pitch":97,"velocity":84,"channel":0},{"pitch":8,"velocity":88,"channel":0},{"pitch":30,"velocity":91,"channel":0},{"pitch":18,"velocity":88,"channel":0},{"pitch":15,"velocity":94,"channel":0},{"pitch":15,"velocity":95,"channel":0},{"pitch":15,"velocity":71,"channel":0},{"pitch":92,"velocity":88,"channel":0},{"pitch":87,"velocity":77,"channel":0},{"pitch":44,"velocity":86,"channel":0},{"pitch":44,"velocity":82,"channel":0},{"pitch":44,"velocity":99,"channel":0},{"pitch":61,"velocity":77,"channel":0},{"pitch":78,"velocity":75,"channel":0},{"pitch":51,"velocity":68,"channel":0},{"pitch":44,"velocity":79,"channel":0},{"pitch":44,"velocity":100,"channel":0},{"pitch":39,"velocity":88,"channel":0},{"pitch":44,"velocity":69,"channel":0},{"pitch":39,"velocity":82,"channel":0},{"pitch":32,"velocity":108,"channel":0},{"pitch":32,"velocity":86,"channel":0},{"pitch":18,"velocity":78,"channel":0},{"pitch":85,"velocity":94,"channel":0},{"pitch":85,"velocity":98,"channel":0},{"pitch":49,"velocity":93,"channel":0},{"pitch":6,"velocity":85,"channel":0}],"stageTiming":{"beat-setup":50.003,"intent":0.0172,"entropy":0.2667,"phase":0.0324,"climax":0.0482,"envelope":0.0573,"silhouette":0.0298,"rest":0.0483,"complement":0.0032,"tension-cadence":0.1684,"negotiation":0.0366,"probability-adjust":0.0038,"emission":5.9748,"post-beat":0.0327},"iterBudget":{"raw":40,"capped":40,"wasCapped":false}}
{"layer":"L1","beatKey":"0:0:4:8","timeMs":9333.333333333334,"snap":{"key":"D#","mode":"locrian","quality":"minor","scale":["D#","E","F#","G#","A","B","C#"],"chords":[],"tension":0.26388563117850017,"harmonicRhythm":0.43312798396067853,"harmonicMutationCount":6,"excursion":0,"sectionPhase":"opening","phrasePosition":0.6,"phrasePhase":"climax","phraseDynamism":1,"registerBias":5.412678195541844,"densityMultiplier":1.1804226065180616,"voiceIndependence":0.5,"compositeIntensity":0.41718239447512073,"playProb":0.332021236971755,"stutterProb":0.23121159176704054,"flicker":1.1535457647440162,"textureMode":"flurry","textureFatigue":0.05833333333333333,"densityBias":0,"crossModBias":1,"emissionRatio":0.03681217259592515,"extraDensityCorrection":1.192637565480815,"extraCoherenceDensityBias":1,"activeProfile":"restrained","journeyMove":"origin","journeyDistance":0,"journeyKey":"D#","journeyMode":"locrian","binauralFreqOffset":9,"binauralFlip":true,"tick":352500,"updatedAt":1772749121682},"negotiation":{"playProb":0.3453225076870935,"stutterProb":0.2789994926727531,"allowCadence":false,"conflict":0.008775959214645912,"phaseConfidence":0.275},"trust":{"stutterContagion":{"score":0.18830174105330283,"samples":57,"weight":1.1412263057899772},"cadenceAlignment":{"score":0.18830174105330283,"samples":57,"weight":1.15},"phaseLock":{"score":0.24324905961813262,"samples":57,"weight":1.1824367947135994},"convergence":{"score":0.19886499882398065,"samples":57,"weight":1.1491487491179855},"feedbackOscillator":{"score":0.18830174105330283,"samples":57,"weight":1.1412263057899772},"coherenceMonitor":{"score":0.7033282333187123,"samples":57,"weight":1.5274961749890341},"entropyRegulator":{"score":0.6139935955432273,"samples":57,"weight":1.4604951966574204},"restSynchronizer":{"score":0.18830174105330283,"samples":57,"weight":1.1412263057899772}},"regime":"initializing","coupling":{},"couplingTargets":{},"axisCouplingTotals":{"density":0,"tension":0,"flicker":0,"entropy":0,"trust":0,"phase":0},"axisEnergyShare":{"shares":{"density":0,"tension":0,"flicker":0,"entropy":0,"trust":0,"phase":0},"axisGini":0},"couplingGates":{"gateD":1,"gateT":1,"gateF":1,"floorDampen":1,"bypassD":0,"bypassT":0,"bypassF":0,"gateMinD":1,"gateMinT":1,"gateMinF":1,"gateEmaD":1,"gateEmaT":1,"gateEmaF":1,"gateBeatCount":5},"couplingHomeostasis":{"totalEnergyEma":0,"energyBudget":3.5,"peakEnergyEma":0,"totalEnergyFloor":8,"floorDampen":1,"redistributionScore":0,"nudgeableRedistributionScore":0,"globalGainMultiplier":1,"giniCoefficient":0,"energyDeltaEma":0,"pairTurbulenceEma":0,"beatCount":0,"invokeCount":5,"tickCount":57,"emptyMatrixBeats":5,"multiplierMin":1,"multiplierMax":1,"multiplierStdDev":0,"floorContactBeats":0,"ceilingContactBeats":57,"avgRecoveryDuration":0},"axisEnergyEquilibrator":{"beatCount":5,"pairAdjustments":0,"axisAdjustments":0,"smoothedShares":{"density":0,"tension":0,"flicker":0,"entropy":0,"trust":0,"phase":0},"perAxisAdj":{},"perPairAdj":{},"lastBaselines":{},"regimeBeats":{},"regimePairAdj":{},"regimeAxisAdj":{},"regimeTightenBudget":{}},"transitionReadiness":{"gap":0,"couplingStrength":0,"coherentThreshold":0,"velocity":0,"velThreshold":0.008,"thresholdScale":0.65,"velocityBlocked":false,"exploringBlock":"velocity","rawRegimeCounts":{},"rawRegimeMaxStreak":{},"effectiveDim":0},"notes":[{"pitch":20,"velocity":88,"channel":0},{"pitch":20,"velocity":82,"channel":0},{"pitch":20,"velocity":94,"channel":0},{"pitch":20,"velocity":91,"channel":0},{"pitch":20,"velocity":87,"channel":0},{"pitch":20,"velocity":69,"channel":0},{"pitch":80,"velocity":91,"channel":0},{"pitch":6,"velocity":94,"channel":0},{"pitch":39,"velocity":75,"channel":0},{"pitch":39,"velocity":82,"channel":0},{"pitch":39,"velocity":74,"channel":0},{"pitch":42,"velocity":81,"channel":0},{"pitch":42,"velocity":95,"channel":0},{"pitch":42,"velocity":96,"channel":0},{"pitch":42,"velocity":94,"channel":0},{"pitch":27,"velocity":81,"channel":0},{"pitch":30,"velocity":79,"channel":0},{"pitch":54,"velocity":86,"channel":0},{"pitch":49,"velocity":85,"channel":0},{"pitch":8,"velocity":100,"channel":0},{"pitch":54,"velocity":76,"channel":0},{"pitch":51,"velocity":72,"channel":0},{"pitch":39,"velocity":87,"channel":0},{"pitch":27,"velocity":85,"channel":0},{"pitch":39,"velocity":70,"channel":0},{"pitch":39,"velocity":93,"channel":0},{"pitch":13,"velocity":90,"channel":0},{"pitch":13,"velocity":84,"channel":0},{"pitch":20,"velocity":71,"channel":0},{"pitch":49,"velocity":88,"channel":0},{"pitch":13,"velocity":90,"channel":0},{"pitch":54,"velocity":89,"channel":0},{"pitch":15,"velocity":82,"channel":0},{"pitch":44,"velocity":85,"channel":0},{"pitch":15,"velocity":91,"channel":0},{"pitch":20,"velocity":74,"channel":0},{"pitch":56,"velocity":90,"channel":0},{"pitch":32,"velocity":91,"channel":0},{"pitch":20,"velocity":70,"channel":0},{"pitch":73,"velocity":89,"channel":0},{"pitch":51,"velocity":93,"channel":0},{"pitch":44,"velocity":96,"channel":0},{"pitch":51,"velocity":93,"channel":0},{"pitch":56,"velocity":86,"channel":0},{"pitch":92,"velocity":94,"channel":0},{"pitch":6,"velocity":79,"channel":0},{"pitch":6,"velocity":94,"channel":0},{"pitch":6,"velocity":91,"channel":0},{"pitch":42,"velocity":79,"channel":0},{"pitch":6,"velocity":80,"channel":0},{"pitch":6,"velocity":88,"channel":0},{"pitch":6,"velocity":80,"channel":0},{"pitch":6,"velocity":95,"channel":0},{"pitch":6,"velocity":75,"channel":0},{"pitch":6,"velocity":56,"channel":0},{"pitch":6,"velocity":74,"channel":0},{"pitch":6,"velocity":80,"channel":0},{"pitch":6,"velocity":70,"channel":0},{"pitch":49,"velocity":90,"channel":0},{"pitch":8,"velocity":81,"channel":0},{"pitch":25,"velocity":73,"channel":0},{"pitch":8,"velocity":79,"channel":0},{"pitch":8,"velocity":94,"channel":0},{"pitch":80,"velocity":87,"channel":0},{"pitch":49,"velocity":83,"channel":0},{"pitch":85,"velocity":83,"channel":0},{"pitch":68,"velocity":80,"channel":0},{"pitch":13,"velocity":93,"channel":0},{"pitch":13,"velocity":84,"channel":0},{"pitch":54,"velocity":85,"channel":0},{"pitch":32,"velocity":92,"channel":0},{"pitch":8,"velocity":87,"channel":0},{"pitch":51,"velocity":85,"channel":0},{"pitch":18,"velocity":83,"channel":0},{"pitch":30,"velocity":98,"channel":0},{"pitch":18,"velocity":74,"channel":0},{"pitch":78,"velocity":96,"channel":0},{"pitch":18,"velocity":101,"channel":0},{"pitch":18,"velocity":84,"channel":0},{"pitch":18,"velocity":88,"channel":0},{"pitch":18,"velocity":85,"channel":0},{"pitch":78,"velocity":87,"channel":0},{"pitch":13,"velocity":97,"channel":0},{"pitch":56,"velocity":94,"channel":0},{"pitch":18,"velocity":89,"channel":0},{"pitch":32,"velocity":90,"channel":0},{"pitch":15,"velocity":75,"channel":0},{"pitch":15,"velocity":70,"channel":0},{"pitch":15,"velocity":101,"channel":0},{"pitch":85,"velocity":91,"channel":0},{"pitch":39,"velocity":77,"channel":0},{"pitch":39,"velocity":85,"channel":0},{"pitch":44,"velocity":81,"channel":0},{"pitch":54,"velocity":91,"channel":0},{"pitch":80,"velocity":92,"channel":0},{"pitch":44,"velocity":73,"channel":0},{"pitch":44,"velocity":81,"channel":0},{"pitch":44,"velocity":72,"channel":0},{"pitch":39,"velocity":93,"channel":0},{"pitch":44,"velocity":100,"channel":0},{"pitch":44,"velocity":92,"channel":0},{"pitch":42,"velocity":99,"channel":0},{"pitch":75,"velocity":93,"channel":0},{"pitch":68,"velocity":94,"channel":0},{"pitch":15,"velocity":81,"channel":0},{"pitch":44,"velocity":85,"channel":0},{"pitch":25,"velocity":85,"channel":0},{"pitch":42,"velocity":71,"channel":0}],"stageTiming":{"beat-setup":13.2087,"intent":0.0116,"entropy":0.1696,"phase":0.0227,"climax":0.0165,"envelope":0.0163,"silhouette":0.0225,"rest":0.032,"complement":0.0013,"tension-cadence":0.1182,"negotiation":0.0214,"probability-adjust":0.0025,"emission":1.7277,"post-beat":0.0168},"iterBudget":{"raw":175,"capped":150,"wasCapped":true}}
{"layer":"L1","beatKey":"0:0:4:9","timeMs":9500,"snap":{"key":"D#","mode":"locrian","quality":"minor","scale":["D#","E","F#","G#","A","B","C#"],"chords":[],"tension":0.26388563117850017,"harmonicRhythm":0.43312798396067853,"harmonicMutationCount":6,"excursion":0,"sectionPhase":"opening","phrasePosition":0.6,"phrasePhase":"climax","phraseDynamism":1,"registerBias":5.412678195541844,"densityMultiplier":1.1804226065180616,"voiceIndependence":0.5,"compositeIntensity":0.4222245741685393,"playProb":0.332021236971755,"stutterProb":0.23121159176704054,"flicker":1.1535457647440162,"textureMode":"chordBurst","textureFatigue":0.08333333333333333,"densityBias":0,"crossModBias":1,"emissionRatio":0.03681217259592515,"extraDensityCorrection":1.192637565480815,"extraCoherenceDensityBias":1,"activeProfile":"restrained","journeyMove":"origin","journeyDistance":0,"journeyKey":"D#","journeyMode":"locrian","binauralFreqOffset":9,"binauralFlip":true,"tick":352500,"updatedAt":1772749125010},"negotiation":{"playProb":0.3474402076333832,"stutterProb":0.2808037654382073,"allowCadence":false,"conflict":0.00877369421002272,"phaseConfidence":0.275},"trust":{"stutterContagion":{"score":0.18806135430920165,"samples":58,"weight":1.1410460157319013},"cadenceAlignment":{"score":0.18806135430920165,"samples":58,"weight":1.15},"phaseLock":{"score":0.24330560450266306,"samples":58,"weight":1.1824792033769973},"convergence":{"score":0.19877952044264102,"samples":58,"weight":1.1490846403319808},"feedbackOscillator":{"score":0.18806135430920165,"samples":58,"weight":1.1410460157319013},"coherenceMonitor":{"score":0.7046447979085738,"samples":58,"weight":1.5284835984314302},"entropyRegulator":{"score":0.6097125515941845,"samples":58,"weight":1.4572844136956382},"restSynchronizer":{"score":0.18806135430920165,"samples":58,"weight":1.1410460157319013}},"regime":"initializing","coupling":{},"couplingTargets":{},"axisCouplingTotals":{"density":0,"tension":0,"flicker":0,"entropy":0,"trust":0,"phase":0},"axisEnergyShare":{"shares":{"density":0,"tension":0,"flicker":0,"entropy":0,"trust":0,"phase":0},"axisGini":0},"couplingGates":{"gateD":1,"gateT":1,"gateF":1,"floorDampen":1,"bypassD":0,"bypassT":0,"bypassF":0,"gateMinD":1,"gateMinT":1,"gateMinF":1,"gateEmaD":1,"gateEmaT":1,"gateEmaF":1,"gateBeatCount":5},"couplingHomeostasis":{"totalEnergyEma":0,"energyBudget":3.5,"peakEnergyEma":0,"totalEnergyFloor":8,"floorDampen":1,"redistributionScore":0,"nudgeableRedistributionScore":0,"globalGainMultiplier":1,"giniCoefficient":0,"energyDeltaEma":0,"pairTurbulenceEma":0,"beatCount":0,"invokeCount":5,"tickCount":58,"emptyMatrixBeats":5,"multiplierMin":1,"multiplierMax":1,"multiplierStdDev":0,"floorContactBeats":0,"ceilingContactBeats":58,"avgRecoveryDuration":0},"axisEnergyEquilibrator":{"beatCount":5,"pairAdjustments":0,"axisAdjustments":0,"smoothedShares":{"density":0,"tension":0,"flicker":0,"entropy":0,"trust":0,"phase":0},"perAxisAdj":{},"perPairAdj":{},"lastBaselines":{},"regimeBeats":{},"regimePairAdj":{},"regimeAxisAdj":{},"regimeTightenBudget":{}},"transitionReadiness":{"gap":0,"couplingStrength":0,"coherentThreshold":0,"velocity":0,"velThreshold":0.008,"thresholdScale":0.65,"velocityBlocked":false,"exploringBlock":"velocity","rawRegimeCounts":{},"rawRegimeMaxStreak":{},"effectiveDim":0},"notes":[{"pitch":20,"velocity":89,"channel":0},{"pitch":75,"velocity":58,"channel":0},{"pitch":15,"velocity":81,"channel":0},{"pitch":37,"velocity":89,"channel":0},{"pitch":27,"velocity":86,"channel":0},{"pitch":30,"velocity":86,"channel":0},{"pitch":15,"velocity":80,"channel":0},{"pitch":15,"velocity":78,"channel":0},{"pitch":15,"velocity":82,"channel":0},{"pitch":3,"velocity":91,"channel":0},{"pitch":97,"velocity":70,"channel":0},{"pitch":20,"velocity":89,"channel":0},{"pitch":8,"velocity":75,"channel":0},{"pitch":8,"velocity":84,"channel":0},{"pitch":8,"velocity":107,"channel":0},{"pitch":80,"velocity":97,"channel":0},{"pitch":8,"velocity":71,"channel":0},{"pitch":8,"velocity":82,"channel":0},{"pitch":75,"velocity":69,"channel":0},{"pitch":8,"velocity":77,"channel":0},{"pitch":8,"velocity":89,"channel":0},{"pitch":8,"velocity":94,"channel":0},{"pitch":8,"velocity":98,"channel":0},{"pitch":13,"velocity":85,"channel":0},{"pitch":13,"velocity":87,"channel":0},{"pitch":15,"velocity":81,"channel":0},{"pitch":15,"velocity":87,"channel":0},{"pitch":15,"velocity":81,"channel":0},{"pitch":51,"velocity":76,"channel":0},{"pitch":15,"velocity":85,"channel":0},{"pitch":49,"velocity":77,"channel":0},{"pitch":15,"velocity":86,"channel":0},{"pitch":85,"velocity":79,"channel":0},{"pitch":15,"velocity":69,"channel":0},{"pitch":25,"velocity":75,"channel":0},{"pitch":15,"velocity":86,"channel":0},{"pitch":87,"velocity":71,"channel":0},{"pitch":6,"velocity":83,"channel":0},{"pitch":6,"velocity":103,"channel":0},{"pitch":6,"velocity":75,"channel":0},{"pitch":6,"velocity":74,"channel":0},{"pitch":56,"velocity":77,"channel":0},{"pitch":13,"velocity":88,"channel":0},{"pitch":13,"velocity":85,"channel":0},{"pitch":8,"velocity":97,"channel":0},{"pitch":13,"velocity":77,"channel":0},{"pitch":20,"velocity":87,"channel":0},{"pitch":85,"velocity":89,"channel":0},{"pitch":8,"velocity":92,"channel":0},{"pitch":73,"velocity":71,"channel":0},{"pitch":20,"velocity":92,"channel":0},{"pitch":15,"velocity":70,"channel":0},{"pitch":87,"velocity":90,"channel":0},{"pitch":15,"velocity":96,"channel":0},{"pitch":85,"velocity":93,"channel":0},{"pitch":80,"velocity":62,"channel":0},{"pitch":8,"velocity":91,"channel":0},{"pitch":8,"velocity":83,"channel":0},{"pitch":51,"velocity":87,"channel":0},{"pitch":30,"velocity":92,"channel":0},{"pitch":3,"velocity":89,"channel":0},{"pitch":92,"velocity":70,"channel":0},{"pitch":13,"velocity":78,"channel":0},{"pitch":51,"velocity":82,"channel":0},{"pitch":8,"velocity":78,"channel":0},{"pitch":15,"velocity":86,"channel":0},{"pitch":3,"velocity":69,"channel":0},{"pitch":13,"velocity":80,"channel":0},{"pitch":27,"velocity":81,"channel":0},{"pitch":15,"velocity":75,"channel":0},{"pitch":49,"velocity":87,"channel":0},{"pitch":15,"velocity":85,"channel":0},{"pitch":1,"velocity":88,"channel":0},{"pitch":49,"velocity":74,"channel":0},{"pitch":13,"velocity":73,"channel":0},{"pitch":13,"velocity":88,"channel":0},{"pitch":54,"velocity":88,"channel":0},{"pitch":8,"velocity":95,"channel":0},{"pitch":8,"velocity":91,"channel":0},{"pitch":8,"velocity":81,"channel":0},{"pitch":8,"velocity":85,"channel":0},{"pitch":8,"velocity":96,"channel":0},{"pitch":13,"velocity":78,"channel":0},{"pitch":49,"velocity":80,"channel":0},{"pitch":13,"velocity":88,"channel":0},{"pitch":13,"velocity":84,"channel":0},{"pitch":8,"velocity":90,"channel":0},{"pitch":15,"velocity":99,"channel":0},{"pitch":54,"velocity":90,"channel":0},{"pitch":15,"velocity":69,"channel":0},{"pitch":15,"velocity":80,"channel":0},{"pitch":15,"velocity":78,"channel":0},{"pitch":13,"velocity":94,"channel":0},{"pitch":27,"velocity":86,"channel":0},{"pitch":20,"velocity":90,"channel":0},{"pitch":20,"velocity":80,"channel":0},{"pitch":56,"velocity":77,"channel":0},{"pitch":8,"velocity":86,"channel":0},{"pitch":13,"velocity":78,"channel":0},{"pitch":15,"velocity":84,"channel":0},{"pitch":87,"velocity":88,"channel":0},{"pitch":75,"velocity":86,"channel":0},{"pitch":13,"velocity":81,"channel":0},{"pitch":15,"velocity":89,"channel":0},{"pitch":20,"velocity":79,"channel":0},{"pitch":20,"velocity":95,"channel":0},{"pitch":20,"velocity":79,"channel":0},{"pitch":90,"velocity":92,"channel":0},{"pitch":6,"velocity":89,"channel":0},{"pitch":13,"velocity":78,"channel":0},{"pitch":3,"velocity":72,"channel":0},{"pitch":13,"velocity":104,"channel":0},{"pitch":30,"velocity":78,"channel":0},{"pitch":18,"velocity":77,"channel":0},{"pitch":18,"velocity":81,"channel":0},{"pitch":39,"velocity":91,"channel":0},{"pitch":73,"velocity":89,"channel":0},{"pitch":42,"velocity":69,"channel":0},{"pitch":42,"velocity":84,"channel":0},{"pitch":13,"velocity":87,"channel":0},{"pitch":42,"velocity":79,"channel":0},{"pitch":15,"velocity":81,"channel":0},{"pitch":44,"velocity":92,"channel":0},{"pitch":44,"velocity":86,"channel":0},{"pitch":25,"velocity":89,"channel":0},{"pitch":32,"velocity":88,"channel":0},{"pitch":15,"velocity":86,"channel":0},{"pitch":8,"velocity":73,"channel":0},{"pitch":20,"velocity":91,"channel":0},{"pitch":20,"velocity":92,"channel":0},{"pitch":20,"velocity":81,"channel":0},{"pitch":42,"velocity":89,"channel":0},{"pitch":87,"velocity":85,"channel":0},{"pitch":20,"velocity":80,"channel":0},{"pitch":18,"velocity":87,"channel":0},{"pitch":56,"velocity":84,"channel":0},{"pitch":51,"velocity":71,"channel":0},{"pitch":51,"velocity":81,"channel":0},{"pitch":27,"velocity":72,"channel":0},{"pitch":51,"velocity":98,"channel":0},{"pitch":6,"velocity":81,"channel":0},{"pitch":27,"velocity":98,"channel":0}],"stageTiming":{"beat-setup":16.0732,"intent":0.0135,"entropy":0.1885,"phase":0.024,"climax":0.0183,"envelope":0.017,"silhouette":0.0215,"rest":0.033,"complement":0.0015,"tension-cadence":0.1353,"negotiation":0.0225,"probability-adjust":0.0023,"emission":5.5688,"post-beat":0.0246},"iterBudget":{"raw":550,"capped":150,"wasCapped":true}}
{"layer":"L1","beatKey":"0:0:4:10","timeMs":9666.666666666666,"snap":{"key":"D#","mode":"locrian","quality":"minor","scale":["D#","E","F#","G#","A","B","C#"],"chords":[],"tension":0.26388563117850017,"harmonicRhythm":0.43312798396067853,"harmonicMutationCount":6,"excursion":0,"sectionPhase":"opening","phrasePosition":0.6,"phrasePhase":"climax","phraseDynamism":1,"registerBias":5.412678195541844,"densityMultiplier":1.1804226065180616,"voiceIndependence":0.5,"compositeIntensity":0.44971847372298485,"playProb":0.332021236971755,"stutterProb":0.23121159176704054,"flicker":1.1535457647440162,"textureMode":"flurry","textureFatigue":0.05833333333333333,"densityBias":0,"crossModBias":1,"emissionRatio":0.03681217259592515,"extraDensityCorrection":1.192637565480815,"extraCoherenceDensityBias":1,"activeProfile":"restrained","journeyMove":"origin","journeyDistance":0,"journeyKey":"D#","journeyMode":"locrian","binauralFreqOffset":9,"binauralFlip":true,"tick":352500,"updatedAt":1772749128426},"negotiation":{"playProb":0.35046206336935365,"stutterProb":0.2832029931888752,"allowCadence":false,"conflict":0.00895398426809857,"phaseConfidence":0.275},"trust":{"stutterContagion":{"score":0.18707523641895596,"samples":59,"weight":1.140306427314217},"cadenceAlignment":{"score":0.18707523641895596,"samples":59,"weight":1.15},"phaseLock":{"score":0.24335644400834439,"samples":59,"weight":1.1825173330062584},"convergence":{"score":0.19870266682997853,"samples":59,"weight":1.1490270001224838},"feedbackOscillator":{"score":0.18729156592985785,"samples":59,"weight":1.1404686744473933},"coherenceMonitor":{"score":0.7068568063833665,"samples":59,"weight":1.5301426047875248},"entropyRegulator":{"score":0.5962594176928471,"samples":59,"weight":1.4471945632696352},"restSynchronizer":{"score":0.18707523641895596,"samples":59,"weight":1.140306427314217}},"regime":"initializing","coupling":{},"couplingTargets":{},"axisCouplingTotals":{"density":0,"tension":0,"flicker":0,"entropy":0,"trust":0,"phase":0},"axisEnergyShare":{"shares":{"density":0,"tension":0,"flicker":0,"entropy":0,"trust":0,"phase":0},"axisGini":0},"couplingGates":{"gateD":1,"gateT":1,"gateF":1,"floorDampen":1,"bypassD":0,"bypassT":0,"bypassF":0,"gateMinD":1,"gateMinT":1,"gateMinF":1,"gateEmaD":1,"gateEmaT":1,"gateEmaF":1,"gateBeatCount":5},"couplingHomeostasis":{"totalEnergyEma":0,"energyBudget":3.5,"peakEnergyEma":0,"totalEnergyFloor":8,"floorDampen":1,"redistributionScore":0,"nudgeableRedistributionScore":0,"globalGainMultiplier":1,"giniCoefficient":0,"energyDeltaEma":0,"pairTurbulenceEma":0,"beatCount":0,"invokeCount":5,"tickCount":59,"emptyMatrixBeats":5,"multiplierMin":1,"multiplierMax":1,"multiplierStdDev":0,"floorContactBeats":0,"ceilingContactBeats":59,"avgRecoveryDuration":0},"axisEnergyEquilibrator":{"beatCount":5,"pairAdjustments":0,"axisAdjustments":0,"smoothedShares":{"density":0,"tension":0,"flicker":0,"entropy":0,"trust":0,"phase":0},"perAxisAdj":{},"perPairAdj":{},"lastBaselines":{},"regimeBeats":{},"regimePairAdj":{},"regimeAxisAdj":{},"regimeTightenBudget":{}},"transitionReadiness":{"gap":0,"couplingStrength":0,"coherentThreshold":0,"velocity":0,"velThreshold":0.008,"thresholdScale":0.65,"velocityBlocked":false,"exploringBlock":"velocity","rawRegimeCounts":{},"rawRegimeMaxStreak":{},"effectiveDim":0},"notes":[{"pitch":54,"velocity":68,"channel":0},{"pitch":25,"velocity":85,"channel":0},{"pitch":56,"velocity":71,"channel":0},{"pitch":56,"velocity":85,"channel":0},{"pitch":27,"velocity":85,"channel":0},{"pitch":27,"velocity":77,"channel":0},{"pitch":75,"velocity":85,"channel":0},{"pitch":39,"velocity":86,"channel":0},{"pitch":92,"velocity":78,"channel":0},{"pitch":27,"velocity":79,"channel":0},{"pitch":37,"velocity":74,"channel":0},{"pitch":39,"velocity":80,"channel":0},{"pitch":87,"velocity":74,"channel":0},{"pitch":39,"velocity":82,"channel":0},{"pitch":37,"velocity":82,"channel":0},{"pitch":49,"velocity":83,"channel":0},{"pitch":56,"velocity":84,"channel":0},{"pitch":87,"velocity":82,"channel":0},{"pitch":49,"velocity":82,"channel":0},{"pitch":51,"velocity":90,"channel":0},{"pitch":27,"velocity":78,"channel":0},{"pitch":39,"velocity":79,"channel":0},{"pitch":39,"velocity":71,"channel":0},{"pitch":39,"velocity":67,"channel":0},{"pitch":73,"velocity":85,"channel":0},{"pitch":39,"velocity":88,"channel":0},{"pitch":39,"velocity":77,"channel":0},{"pitch":39,"velocity":89,"channel":0},{"pitch":32,"velocity":73,"channel":0},{"pitch":39,"velocity":72,"channel":0},{"pitch":6,"velocity":95,"channel":0},{"pitch":42,"velocity":78,"channel":0},{"pitch":42,"velocity":80,"channel":0},{"pitch":42,"velocity":86,"channel":0},{"pitch":42,"velocity":73,"channel":0},{"pitch":37,"velocity":71,"channel":0},{"pitch":20,"velocity":89,"channel":0},{"pitch":20,"velocity":86,"channel":0},{"pitch":32,"velocity":77,"channel":0},{"pitch":20,"velocity":75,"channel":0},{"pitch":73,"velocity":81,"channel":0},{"pitch":39,"velocity":81,"channel":0},{"pitch":42,"velocity":76,"channel":0},{"pitch":42,"velocity":70,"channel":0},{"pitch":37,"velocity":71,"channel":0},{"pitch":37,"velocity":93,"channel":0},{"pitch":25,"velocity":66,"channel":0},{"pitch":20,"velocity":57,"channel":0},{"pitch":20,"velocity":84,"channel":0},{"pitch":20,"velocity":74,"channel":0},{"pitch":37,"velocity":77,"channel":0},{"pitch":27,"velocity":70,"channel":0},{"pitch":20,"velocity":78,"channel":0},{"pitch":56,"velocity":94,"channel":0},{"pitch":20,"velocity":78,"channel":0},{"pitch":49,"velocity":78,"channel":0},{"pitch":56,"velocity":74,"channel":0},{"pitch":80,"velocity":80,"channel":0},{"pitch":39,"velocity":70,"channel":0},{"pitch":20,"velocity":85,"channel":0},{"pitch":27,"velocity":98,"channel":0},{"pitch":32,"velocity":90,"channel":0},{"pitch":18,"velocity":78,"channel":0},{"pitch":8,"velocity":91,"channel":0},{"pitch":25,"velocity":74,"channel":0},{"pitch":25,"velocity":84,"channel":0},{"pitch":39,"velocity":68,"channel":0},{"pitch":51,"velocity":73,"channel":0},{"pitch":51,"velocity":93,"channel":0},{"pitch":44,"velocity":71,"channel":0},{"pitch":51,"velocity":88,"channel":0},{"pitch":56,"velocity":76,"channel":0},{"pitch":13,"velocity":72,"channel":0},{"pitch":18,"velocity":81,"channel":0},{"pitch":18,"velocity":81,"channel":0},{"pitch":6,"velocity":80,"channel":0},{"pitch":85,"velocity":84,"channel":0},{"pitch":102,"velocity":76,"channel":0},{"pitch":1,"velocity":78,"channel":0},{"pitch":102,"velocity":80,"channel":0},{"pitch":13,"velocity":81,"channel":0},{"pitch":85,"velocity":81,"channel":0},{"pitch":49,"velocity":85,"channel":0},{"pitch":49,"velocity":74,"channel":0},{"pitch":80,"velocity":74,"channel":0},{"pitch":44,"velocity":66,"channel":0},{"pitch":49,"velocity":83,"channel":0},{"pitch":56,"velocity":56,"channel":0},{"pitch":13,"velocity":81,"channel":0},{"pitch":8,"velocity":79,"channel":0},{"pitch":6,"velocity":77,"channel":0},{"pitch":51,"velocity":91,"channel":0},{"pitch":3,"velocity":82,"channel":0},{"pitch":3,"velocity":89,"channel":0},{"pitch":15,"velocity":86,"channel":0},{"pitch":6,"velocity":74,"channel":0},{"pitch":15,"velocity":85,"channel":0},{"pitch":6,"velocity":77,"channel":0},{"pitch":6,"velocity":76,"channel":0},{"pitch":6,"velocity":87,"channel":0},{"pitch":1,"velocity":79,"channel":0},{"pitch":13,"velocity":81,"channel":0},{"pitch":15,"velocity":98,"channel":0},{"pitch":6,"velocity":85,"channel":0},{"pitch":6,"velocity":79,"channel":0},{"pitch":6,"velocity":68,"channel":0},{"pitch":30,"velocity":73,"channel":0},{"pitch":15,"velocity":79,"channel":0},{"pitch":6,"velocity":76,"channel":0},{"pitch":6,"velocity":69,"channel":0},{"pitch":6,"velocity":79,"channel":0},{"pitch":78,"velocity":67,"channel":0},{"pitch":32,"velocity":87,"channel":0},{"pitch":1,"velocity":89,"channel":0},{"pitch":1,"velocity":79,"channel":0},{"pitch":1,"velocity":82,"channel":0},{"pitch":49,"velocity":81,"channel":0},{"pitch":3,"velocity":76,"channel":0},{"pitch":87,"velocity":84,"channel":0},{"pitch":6,"velocity":74,"channel":0},{"pitch":6,"velocity":88,"channel":0},{"pitch":27,"velocity":97,"channel":0},{"pitch":1,"velocity":77,"channel":0},{"pitch":56,"velocity":74,"channel":0},{"pitch":30,"velocity":75,"channel":0},{"pitch":27,"velocity":74,"channel":0},{"pitch":73,"velocity":88,"channel":0},{"pitch":6,"velocity":81,"channel":0},{"pitch":6,"velocity":82,"channel":0},{"pitch":90,"velocity":74,"channel":0},{"pitch":27,"velocity":80,"channel":0},{"pitch":6,"velocity":77,"channel":0},{"pitch":6,"velocity":85,"channel":0},{"pitch":73,"velocity":82,"channel":0},{"pitch":6,"velocity":80,"channel":0},{"pitch":27,"velocity":79,"channel":0},{"pitch":42,"velocity":85,"channel":0},{"pitch":6,"velocity":89,"channel":0},{"pitch":6,"velocity":78,"channel":0},{"pitch":51,"velocity":81,"channel":0},{"pitch":27,"velocity":90,"channel":0},{"pitch":27,"velocity":68,"channel":0},{"pitch":75,"velocity":79,"channel":0},{"pitch":39,"velocity":74,"channel":0},{"pitch":39,"velocity":77,"channel":0},{"pitch":27,"velocity":87,"channel":0},{"pitch":44,"velocity":89,"channel":0},{"pitch":44,"velocity":83,"channel":0},{"pitch":44,"velocity":75,"channel":0},{"pitch":39,"velocity":82,"channel":0},{"pitch":44,"velocity":74,"channel":0},{"pitch":6,"velocity":77,"channel":0}],"stageTiming":{"beat-setup":10.1334,"intent":0.0114,"entropy":0.1756,"phase":0.0226,"climax":0.0138,"envelope":0.0174,"silhouette":0.0145,"rest":0.0288,"complement":0.0014,"tension-cadence":0.1112,"negotiation":0.0204,"probability-adjust":0.0023,"emission":3.6776,"post-beat":0.0254},"iterBudget":{"raw":330,"capped":147,"wasCapped":true}}
{"layer":"L1","beatKey":"0:0:4:11","timeMs":9833.333333333334,"snap":{"key":"D#","mode":"locrian","quality":"minor","scale":["D#","E","F#","G#","A","B","C#"],"chords":[],"tension":0.26388563117850017,"harmonicRhythm":0.43312798396067853,"harmonicMutationCount":6,"excursion":0,"sectionPhase":"opening","phrasePosition":0.6,"phrasePhase":"climax","phraseDynamism":1,"registerBias":5.412678195541844,"densityMultiplier":1.1804226065180616,"voiceIndependence":0.5,"compositeIntensity":0.42321083261799214,"playProb":0.332021236971755,"stutterProb":0.23121159176704054,"flicker":1.1535457647440162,"textureMode":"chordBurst","textureFatigue":0.225,"densityBias":0,"crossModBias":1,"emissionRatio":0.03681217259592515,"extraDensityCorrection":1.192637565480815,"extraCoherenceDensityBias":1,"activeProfile":"restrained","journeyMove":"origin","journeyDistance":0,"journeyKey":"D#","journeyMode":"locrian","binauralFreqOffset":9,"binauralFlip":true,"tick":352500,"updatedAt":1772749131763},"negotiation":{"playProb":0.35144110704411075,"stutterProb":0.2841860103822079,"allowCadence":false,"conflict":0.00969357268578297,"phaseConfidence":0.275},"trust":{"stutterContagion":{"score":0.1857503249194955,"samples":60,"weight":1.1393127436896215},"cadenceAlignment":{"score":0.1858537031583569,"samples":60,"weight":1.15},"phaseLock":{"score":0.24340215380790245,"samples":60,"weight":1.1825516153559268},"convergence":{"score":0.1986335677468337,"samples":60,"weight":1.1489751758101252},"feedbackOscillator":{"score":0.186149122957683,"samples":60,"weight":1.1396118422182622},"coherenceMonitor":{"score":0.7063499782383653,"samples":60,"weight":1.529762483678774},"entropyRegulator":{"score":0.5838794082431251,"samples":60,"weight":1.4379095561823438},"restSynchronizer":{"score":0.1857503249194955,"samples":60,"weight":1.1393127436896215}},"regime":"initializing","coupling":{},"couplingTargets":{},"axisCouplingTotals":{"density":0,"tension":0,"flicker":0,"entropy":0,"trust":0,"phase":0},"axisEnergyShare":{"shares":{"density":0,"tension":0,"flicker":0,"entropy":0,"trust":0,"phase":0},"axisGini":0},"couplingGates":{"gateD":1,"gateT":1,"gateF":1,"floorDampen":1,"bypassD":0,"bypassT":0,"bypassF":0,"gateMinD":1,"gateMinT":1,"gateMinF":1,"gateEmaD":1,"gateEmaT":1,"gateEmaF":1,"gateBeatCount":5},"couplingHomeostasis":{"totalEnergyEma":0,"energyBudget":3.5,"peakEnergyEma":0,"totalEnergyFloor":8,"floorDampen":1,"redistributionScore":0,"nudgeableRedistributionScore":0,"globalGainMultiplier":1,"giniCoefficient":0,"energyDeltaEma":0,"pairTurbulenceEma":0,"beatCount":0,"invokeCount":5,"tickCount":60,"emptyMatrixBeats":5,"multiplierMin":1,"multiplierMax":1,"multiplierStdDev":0,"floorContactBeats":0,"ceilingContactBeats":60,"avgRecoveryDuration":0},"axisEnergyEquilibrator":{"beatCount":5,"pairAdjustments":0,"axisAdjustments":0,"smoothedShares":{"density":0,"tension":0,"flicker":0,"entropy":0,"trust":0,"phase":0},"perAxisAdj":{},"perPairAdj":{},"lastBaselines":{},"regimeBeats":{},"regimePairAdj":{},"regimeAxisAdj":{},"regimeTightenBudget":{}},"transitionReadiness":{"gap":0,"couplingStrength":0,"coherentThreshold":0,"velocity":0,"velThreshold":0.008,"thresholdScale":0.65,"velocityBlocked":false,"exploringBlock":"velocity","rawRegimeCounts":{},"rawRegimeMaxStreak":{},"effectiveDim":0},"notes":[{"pitch":49,"velocity":77,"channel":0},{"pitch":80,"velocity":80,"channel":0},{"pitch":25,"velocity":64,"channel":0},{"pitch":27,"velocity":78,"channel":0},{"pitch":25,"velocity":69,"channel":0},{"pitch":30,"velocity":76,"channel":0},{"pitch":30,"velocity":76,"channel":0},{"pitch":51,"velocity":81,"channel":0},{"pitch":56,"velocity":78,"channel":0},{"pitch":49,"velocity":72,"channel":0},{"pitch":32,"velocity":78,"channel":0},{"pitch":3,"velocity":86,"channel":0},{"pitch":80,"velocity":83,"channel":0},{"pitch":27,"velocity":75,"channel":0},{"pitch":75,"velocity":63,"channel":0},{"pitch":27,"velocity":72,"channel":0},{"pitch":27,"velocity":81,"channel":0},{"pitch":39,"velocity":89,"channel":0},{"pitch":15,"velocity":81,"channel":0},{"pitch":25,"velocity":85,"channel":0},{"pitch":25,"velocity":77,"channel":0},{"pitch":25,"velocity":74,"channel":0},{"pitch":37,"velocity":88,"channel":0},{"pitch":54,"velocity":72,"channel":0},{"pitch":30,"velocity":82,"channel":0},{"pitch":15,"velocity":82,"channel":0},{"pitch":6,"velocity":88,"channel":0},{"pitch":30,"velocity":76,"channel":0},{"pitch":6,"velocity":55,"channel":0},{"pitch":25,"velocity":72,"channel":0},{"pitch":78,"velocity":72,"channel":0},{"pitch":20,"velocity":81,"channel":0},{"pitch":6,"velocity":76,"channel":0},{"pitch":6,"velocity":87,"channel":0},{"pitch":6,"velocity":69,"channel":0},{"pitch":6,"velocity":74,"channel":0},{"pitch":6,"velocity":72,"channel":0},{"pitch":6,"velocity":88,"channel":0},{"pitch":56,"velocity":103,"channel":0},{"pitch":6,"velocity":80,"channel":0},{"pitch":6,"velocity":76,"channel":0},{"pitch":6,"velocity":66,"channel":0},{"pitch":6,"velocity":77,"channel":0},{"pitch":6,"velocity":76,"channel":0},{"pitch":30,"velocity":64,"channel":0},{"pitch":13,"velocity":75,"channel":0},{"pitch":49,"velocity":68,"channel":0},{"pitch":78,"velocity":82,"channel":0},{"pitch":27,"velocity":73,"channel":0},{"pitch":3,"velocity":85,"channel":0},{"pitch":3,"velocity":67,"channel":0},{"pitch":51,"velocity":81,"channel":0},{"pitch":61,"velocity":83,"channel":0},{"pitch":8,"velocity":77,"channel":0},{"pitch":6,"velocity":76,"channel":0},{"pitch":90,"velocity":91,"channel":0},{"pitch":54,"velocity":76,"channel":0},{"pitch":6,"velocity":74,"channel":0},{"pitch":49,"velocity":75,"channel":0},{"pitch":80,"velocity":75,"channel":0},{"pitch":73,"velocity":73,"channel":0},{"pitch":3,"velocity":69,"channel":0},{"pitch":3,"velocity":76,"channel":0},{"pitch":13,"velocity":63,"channel":0},{"pitch":85,"velocity":70,"channel":0},{"pitch":18,"velocity":56,"channel":0},{"pitch":6,"velocity":67,"channel":0},{"pitch":78,"velocity":82,"channel":0},{"pitch":6,"velocity":64,"channel":0},{"pitch":27,"velocity":66,"channel":0},{"pitch":6,"velocity":67,"channel":0},{"pitch":6,"velocity":89,"channel":0},{"pitch":54,"velocity":79,"channel":0},{"pitch":54,"velocity":76,"channel":0},{"pitch":78,"velocity":76,"channel":0},{"pitch":6,"velocity":79,"channel":0},{"pitch":54,"velocity":73,"channel":0},{"pitch":6,"velocity":76,"channel":0},{"pitch":25,"velocity":80,"channel":0},{"pitch":13,"velocity":83,"channel":0},{"pitch":6,"velocity":71,"channel":0},{"pitch":6,"velocity":78,"channel":0},{"pitch":6,"velocity":75,"channel":0},{"pitch":6,"velocity":74,"channel":0},{"pitch":15,"velocity":89,"channel":0},{"pitch":8,"velocity":72,"channel":0},{"pitch":6,"velocity":81,"channel":0},{"pitch":92,"velocity":64,"channel":0},{"pitch":8,"velocity":76,"channel":0},{"pitch":8,"velocity":66,"channel":0},{"pitch":8,"velocity":87,"channel":0},{"pitch":13,"velocity":80,"channel":0},{"pitch":27,"velocity":82,"channel":0},{"pitch":54,"velocity":67,"channel":0},{"pitch":6,"velocity":84,"channel":0},{"pitch":6,"velocity":76,"channel":0},{"pitch":6,"velocity":69,"channel":0},{"pitch":6,"velocity":88,"channel":0},{"pitch":39,"velocity":88,"channel":0},{"pitch":6,"velocity":70,"channel":0},{"pitch":6,"velocity":59,"channel":0},{"pitch":6,"velocity":82,"channel":0},{"pitch":6,"velocity":84,"channel":0},{"pitch":15,"velocity":84,"channel":0},{"pitch":42,"velocity":78,"channel":0},{"pitch":39,"velocity":69,"channel":0},{"pitch":56,"velocity":83,"channel":0},{"pitch":78,"velocity":76,"channel":0},{"pitch":13,"velocity":89,"channel":0},{"pitch":8,"velocity":77,"channel":0},{"pitch":39,"velocity":93,"channel":0},{"pitch":68,"velocity":73,"channel":0},{"pitch":68,"velocity":83,"channel":0},{"pitch":15,"velocity":90,"channel":0},{"pitch":85,"velocity":67,"channel":0},{"pitch":51,"velocity":67,"channel":0},{"pitch":75,"velocity":83,"channel":0},{"pitch":30,"velocity":63,"channel":0},{"pitch":18,"velocity":88,"channel":0},{"pitch":73,"velocity":76,"channel":0},{"pitch":13,"velocity":67,"channel":0},{"pitch":15,"velocity":69,"channel":0},{"pitch":30,"velocity":82,"channel":0},{"pitch":85,"velocity":73,"channel":0},{"pitch":78,"velocity":82,"channel":0},{"pitch":90,"velocity":59,"channel":0},{"pitch":20,"velocity":74,"channel":0},{"pitch":20,"velocity":65,"channel":0},{"pitch":90,"velocity":65,"channel":0},{"pitch":1,"velocity":70,"channel":0},{"pitch":30,"velocity":86,"channel":0},{"pitch":25,"velocity":84,"channel":0},{"pitch":15,"velocity":85,"channel":0},{"pitch":15,"velocity":89,"channel":0},{"pitch":8,"velocity":85,"channel":0},{"pitch":13,"velocity":85,"channel":0},{"pitch":15,"velocity":86,"channel":0},{"pitch":13,"velocity":75,"channel":0},{"pitch":25,"velocity":85,"channel":0},{"pitch":78,"velocity":88,"channel":0},{"pitch":27,"velocity":90,"channel":0}],"stageTiming":{"beat-setup":22.6775,"intent":0.0127,"entropy":0.1861,"phase":0.0223,"climax":0.0146,"envelope":0.0173,"silhouette":0.031,"rest":0.0329,"complement":0.0018,"tension-cadence":0.1341,"negotiation":0.023,"probability-adjust":0.0024,"emission":4.6542,"post-beat":0.0206},"iterBudget":{"raw":135,"capped":135,"wasCapped":false}}
{"layer":"L2","beatKey":"0:0:0:0","timeMs":0,"snap":{"key":"A#","mode":"locrian","quality":"minor","scale":["A#","B","C#","D#","E","F#","G#"],"chords":[],"tension":0.2858458816418885,"harmonicRhythm":0.33338377287365806,"harmonicMutationCount":8,"excursion":0,"sectionPhase":"opening","phrasePosition":0.8,"phrasePhase":"resolution","phraseDynamism":1,"registerBias":1.0534230275096785,"densityMultiplier":1.0351141009169893,"voiceIndependence":0.5,"compositeIntensity":0.34955546008782645,"playProb":0.3427583082730545,"stutterProb":0.47505733023765967,"flicker":1.1885495733762952,"textureMode":"flurry","textureFatigue":0,"densityBias":0,"crossModBias":1,"emissionRatio":0.8882997864076252,"extraDensityCorrection":1.022340042718475,"extraCoherenceDensityBias":1,"activeProfile":"restrained","journeyMove":"origin","journeyDistance":0,"journeyKey":"D#","journeyMode":"locrian","binauralFreqOffset":9,"binauralFlip":false,"tick":442500,"updatedAt":1772749134759},"negotiation":{"playProb":0.28684190891141076,"stutterProb":0.42563868914229286,"allowCadence":false,"conflict":0.010687256310378368,"phaseConfidence":0},"trust":{"stutterContagion":{"score":0.2617633811065011,"samples":61,"weight":1.196322535829876},"cadenceAlignment":{"score":0.19359613311972135,"samples":61,"weight":1.15},"phaseLock":{"score":0.23382787648868508,"samples":61,"weight":1.1753709073665137},"convergence":{"score":0.19857144076117816,"samples":61,"weight":1.1489285805708835},"feedbackOscillator":{"score":0.19359613311972135,"samples":61,"weight":1.1451970998397911},"coherenceMonitor":{"score":0.7123166535550649,"samples":61,"weight":1.5342374901662987},"entropyRegulator":{"score":0.5991055574332083,"samples":61,"weight":1.449329168074906},"restSynchronizer":{"score":0.19359613311972135,"samples":61,"weight":1.1451970998397911}},"regime":"evolving","coupling":{"density-tension":-0.786,"density-flicker":0.98,"density-entropy":-0.768,"density-trust":-0.966,"density-phase":0,"tension-flicker":-0.88,"tension-entropy":0.6,"tension-trust":0.86,"tension-phase":0,"flicker-entropy":-0.739,"flicker-trust":-0.973,"flicker-phase":0,"entropy-trust":0.691,"entropy-phase":0},"couplingTargets":{"density-tension":{"baseline":0.15,"current":0.1491,"rollingAbsCorr":0.0157,"rawRollingAbsCorr":0.0157,"gain":0.3,"heatPenalty":0,"effectivenessEma":0.475,"effMin":0.475,"effMax":0.475,"effActiveBeats":1,"hpPromoted":false},"density-flicker":{"baseline":0.12,"current":0.1191,"rollingAbsCorr":0.0196,"rawRollingAbsCorr":0.0196,"gain":0.2416,"heatPenalty":0.036,"effectivenessEma":0.475,"effMin":0.475,"effMax":0.475,"effActiveBeats":1,"hpPromoted":false},"density-entropy":{"baseline":0.12,"current":0.1191,"rollingAbsCorr":0.0384,"rawRollingAbsCorr":0.0384,"gain":0.22,"heatPenalty":0,"effectivenessEma":0.475,"effMin":0.475,"effMax":0.475,"effActiveBeats":1,"hpPromoted":false},"density-trust":{"baseline":0.2,"current":0.1991,"rollingAbsCorr":0.0193,"rawRollingAbsCorr":0.0193,"gain":0.229,"heatPenalty":0.01,"effectivenessEma":0.475,"effMin":0.475,"effMax":0.475,"effActiveBeats":1,"hpPromoted":false},"density-phase":{"baseline":0.06,"current":0.06,"rollingAbsCorr":0,"rawRollingAbsCorr":0,"gain":0.16,"heatPenalty":0,"effectivenessEma":0.5,"effMin":1,"effMax":0,"effActiveBeats":0,"hpPromoted":false},"tension-flicker":{"baseline":0.15,"current":0.1485,"rollingAbsCorr":0.0176,"rawRollingAbsCorr":0.0176,"gain":0.229,"heatPenalty":0.01,"effectivenessEma":0.475,"effMin":0.475,"effMax":0.475,"effActiveBeats":1,"hpPromoted":false},"tension-entropy":{"baseline":0.25,"current":0.2485,"rollingAbsCorr":0.03,"rawRollingAbsCorr":0.03,"gain":0.22,"heatPenalty":0,"effectivenessEma":0.475,"effMin":0.475,"effMax":0.475,"effActiveBeats":1,"hpPromoted":false},"tension-trust":{"baseline":0.15,"current":0.1485,"rollingAbsCorr":0.0172,"rawRollingAbsCorr":0.0172,"gain":0.229,"heatPenalty":0.01,"effectivenessEma":0.475,"effMin":0.475,"effMax":0.475,"effActiveBeats":1,"hpPromoted":false},"tension-phase":{"baseline":0.2,"current":0.1985,"rollingAbsCorr":0,"rawRollingAbsCorr":0,"gain":0.16,"heatPenalty":0,"effectivenessEma":0.5,"effMin":1,"effMax":0,"effActiveBeats":0,"hpPromoted":false},"flicker-entropy":{"baseline":0.18,"current":0.1785,"rollingAbsCorr":0.037,"rawRollingAbsCorr":0.037,"gain":0.22,"heatPenalty":0,"effectivenessEma":0.475,"effMin":0.475,"effMax":0.475,"effActiveBeats":1,"hpPromoted":false},"flicker-trust":{"baseline":0.12,"current":0.1185,"rollingAbsCorr":0.0195,"rawRollingAbsCorr":0.0195,"gain":0.229,"heatPenalty":0.01,"effectivenessEma":0.475,"effMin":0.475,"effMax":0.475,"effActiveBeats":1,"hpPromoted":false},"flicker-phase":{"baseline":0.08,"current":0.08,"rollingAbsCorr":0,"rawRollingAbsCorr":0,"gain":0.16,"heatPenalty":0,"effectivenessEma":0.5,"effMin":1,"effMax":0,"effActiveBeats":0,"hpPromoted":false},"entropy-trust":{"baseline":0.25,"current":0.25,"rollingAbsCorr":0.0345,"rawRollingAbsCorr":0.0345,"gain":0.16,"heatPenalty":0,"effectivenessEma":0.5,"effMin":1,"effMax":0,"effActiveBeats":0,"hpPromoted":false},"entropy-phase":{"baseline":0.1,"current":0.1,"rollingAbsCorr":0,"rawRollingAbsCorr":0,"gain":0.16,"heatPenalty":0,"effectivenessEma":0.5,"effMin":1,"effMax":0,"effActiveBeats":0,"hpPromoted":false}},"axisCouplingTotals":{"density":0.525,"tension":0.4689,"flicker":0.5358,"entropy":0.4197,"trust":0.5235,"phase":0},"axisEnergyShare":{"shares":{"density":0.2123,"tension":0.1896,"flicker":0.2167,"entropy":0.1697,"trust":0.2117,"phase":0},"axisGini":0.2055},"couplingGates":{"gateD":1,"gateT":1,"gateF":1,"floorDampen":1,"bypassD":0.22715,"bypassT":-0.251474,"bypassF":0.329553,"gateMinD":1,"gateMinT":1,"gateMinF":1,"gateEmaD":1,"gateEmaT":1,"gateEmaF":1,"gateBeatCount":6},"couplingHomeostasis":{"totalEnergyEma":8.243,"energyBudget":3.5,"peakEnergyEma":8.243,"totalEnergyFloor":8.0005,"floorDampen":0.2,"redistributionScore":0,"nudgeableRedistributionScore":0,"globalGainMultiplier":0.9712,"giniCoefficient":0.3458,"energyDeltaEma":0.8243,"pairTurbulenceEma":0,"beatCount":1,"invokeCount":6,"tickCount":62,"emptyMatrixBeats":5,"multiplierMin":0.9712,"multiplierMax":1,"multiplierStdDev":0.0037,"floorContactBeats":0,"ceilingContactBeats":61,"avgRecoveryDuration":0},"axisEnergyEquilibrator":{"beatCount":6,"pairAdjustments":0,"axisAdjustments":0,"smoothedShares":{"density":0.016984,"tension":0.015168,"flicker":0.017336,"entropy":0.013576,"trust":0.016936,"phase":0},"perAxisAdj":{},"perPairAdj":{},"lastBaselines":{},"regimeBeats":{},"regimePairAdj":{},"regimeAxisAdj":{},"regimeTightenBudget":{}},"transitionReadiness":{"gap":0.6264,"couplingStrength":0.7921,"coherentThreshold":0.1658,"velocity":0.065246,"velThreshold":0.008,"thresholdScale":0.65,"velocityBlocked":false,"exploringBlock":"dimension","rawRegimeCounts":{"coherent":1},"rawRegimeMaxStreak":{"coherent":1},"effectiveDim":1.6955},"notes":[{"pitch":85,"velocity":75,"channel":0},{"pitch":37,"velocity":69,"channel":0},{"pitch":8,"velocity":85,"channel":0},{"pitch":87,"velocity":69,"channel":0},{"pitch":30,"velocity":76,"channel":0},{"pitch":37,"velocity":72,"channel":0},{"pitch":42,"velocity":76,"channel":0},{"pitch":42,"velocity":64,"channel":0},{"pitch":27,"velocity":85,"channel":0},{"pitch":51,"velocity":77,"channel":0},{"pitch":18,"velocity":76,"channel":0},{"pitch":25,"velocity":75,"channel":0},{"pitch":25,"velocity":65,"channel":0},{"pitch":25,"velocity":76,"channel":0},{"pitch":25,"velocity":66,"channel":0},{"pitch":27,"velocity":65,"channel":0},{"pitch":27,"velocity":75,"channel":0},{"pitch":27,"velocity":82,"channel":0},{"pitch":18,"velocity":89,"channel":0},{"pitch":27,"velocity":88,"channel":0},{"pitch":20,"velocity":62,"channel":0},{"pitch":25,"velocity":73,"channel":0},{"pitch":13,"velocity":81,"channel":0},{"pitch":32,"velocity":63,"channel":0},{"pitch":37,"velocity":84,"channel":0},{"pitch":32,"velocity":83,"channel":0},{"pitch":75,"velocity":66,"channel":0},{"pitch":80,"velocity":80,"channel":0},{"pitch":44,"velocity":76,"channel":0},{"pitch":44,"velocity":79,"channel":0},{"pitch":44,"velocity":78,"channel":0},{"pitch":44,"velocity":66,"channel":0},{"pitch":44,"velocity":69,"channel":0},{"pitch":20,"velocity":75,"channel":0},{"pitch":25,"velocity":61,"channel":0},{"pitch":49,"velocity":85,"channel":0},{"pitch":20,"velocity":84,"channel":0},{"pitch":49,"velocity":59,"channel":0},{"pitch":25,"velocity":68,"channel":0},{"pitch":73,"velocity":79,"channel":0},{"pitch":25,"velocity":81,"channel":0},{"pitch":37,"velocity":92,"channel":0},{"pitch":39,"velocity":66,"channel":0},{"pitch":42,"velocity":71,"channel":0},{"pitch":42,"velocity":79,"channel":0},{"pitch":13,"velocity":74,"channel":0},{"pitch":1,"velocity":70,"channel":0},{"pitch":1,"velocity":75,"channel":0},{"pitch":13,"velocity":76,"channel":0},{"pitch":25,"velocity":76,"channel":0},{"pitch":13,"velocity":80,"channel":0},{"pitch":18,"velocity":82,"channel":0},{"pitch":51,"velocity":80,"channel":0},{"pitch":68,"velocity":78,"channel":0},{"pitch":68,"velocity":67,"channel":0},{"pitch":49,"velocity":81,"channel":0},{"pitch":68,"velocity":75,"channel":0},{"pitch":73,"velocity":72,"channel":0},{"pitch":68,"velocity":76,"channel":0},{"pitch":68,"velocity":67,"channel":0},{"pitch":27,"velocity":71,"channel":0},{"pitch":68,"velocity":65,"channel":0},{"pitch":13,"velocity":76,"channel":0},{"pitch":18,"velocity":71,"channel":0},{"pitch":18,"velocity":72,"channel":0},{"pitch":18,"velocity":66,"channel":0},{"pitch":18,"velocity":63,"channel":0},{"pitch":20,"velocity":66,"channel":0},{"pitch":56,"velocity":76,"channel":0},{"pitch":20,"velocity":75,"channel":0},{"pitch":13,"velocity":69,"channel":0},{"pitch":25,"velocity":85,"channel":0},{"pitch":49,"velocity":51,"channel":0},{"pitch":13,"velocity":91,"channel":0},{"pitch":18,"velocity":71,"channel":0},{"pitch":20,"velocity":86,"channel":0},{"pitch":30,"velocity":81,"channel":0},{"pitch":49,"velocity":90,"channel":0},{"pitch":20,"velocity":73,"channel":0},{"pitch":20,"velocity":73,"channel":0},{"pitch":20,"velocity":76,"channel":0},{"pitch":20,"velocity":81,"channel":0},{"pitch":6,"velocity":71,"channel":0},{"pitch":6,"velocity":77,"channel":0},{"pitch":27,"velocity":83,"channel":0},{"pitch":25,"velocity":62,"channel":0},{"pitch":6,"velocity":83,"channel":0},{"pitch":51,"velocity":76,"channel":0},{"pitch":27,"velocity":75,"channel":0},{"pitch":27,"velocity":66,"channel":0},{"pitch":27,"velocity":77,"channel":0},{"pitch":6,"velocity":74,"channel":0},{"pitch":13,"velocity":75,"channel":0},{"pitch":13,"velocity":61,"channel":0},{"pitch":13,"velocity":71,"channel":0},{"pitch":32,"velocity":107,"channel":0},{"pitch":34,"velocity":101,"channel":0}],"stageTiming":{"beat-setup":20.2645,"intent":0.0112,"entropy":0.1675,"phase":0.0277,"climax":0.016,"envelope":0.0217,"silhouette":0.0809,"rest":0.0691,"complement":0.0016,"tension-cadence":0.1198,"negotiation":0.0208,"probability-adjust":0.0023,"emission":4.2218,"post-beat":0.0461},"iterBudget":{"raw":252,"capped":252,"wasCapped":false}}
{"layer":"L2","beatKey":"0:0:0:1","timeMs":175.43859649122805,"snap":{"key":"A#","mode":"locrian","quality":"minor","scale":["A#","B","C#","D#","E","F#","G#"],"chords":[],"tension":0.2858458816418885,"harmonicRhythm":0.33338377287365806,"harmonicMutationCount":8,"excursion":0,"sectionPhase":"opening","phrasePosition":0.8,"phrasePhase":"resolution","phraseDynamism":1,"registerBias":1.0534230275096785,"densityMultiplier":1.0351141009169893,"voiceIndependence":0.5,"compositeIntensity":0.34955546008782645,"playProb":0.3427583082730545,"stutterProb":0.47505733023765967,"flicker":1.1885495733762952,"textureMode":"flurry","textureFatigue":0,"densityBias":0,"crossModBias":1,"emissionRatio":0.8882997864076252,"extraDensityCorrection":1.022340042718475,"extraCoherenceDensityBias":1,"activeProfile":"restrained","journeyMove":"origin","journeyDistance":0,"journeyKey":"D#","journeyMode":"locrian","binauralFreqOffset":9,"binauralFlip":false,"tick":442500,"updatedAt":1772749134759},"negotiation":{"playProb":0.2879554098913967,"stutterProb":0.4306307242988987,"allowCadence":false,"conflict":0.046322535829876,"phaseConfidence":0},"trust":{"stutterContagion":{"score":0.3299720817930323,"samples":62,"weight":1.2474790613447742},"cadenceAlignment":{"score":0.20101418828796003,"samples":62,"weight":1.15076064121597},"phaseLock":{"score":0.22521964375097675,"samples":62,"weight":1.1689147328132325},"convergence":{"score":0.20101418828796003,"samples":62,"weight":1.15076064121597},"feedbackOscillator":{"score":0.20101418828796003,"samples":62,"weight":1.15076064121597},"coherenceMonitor":{"score":0.7139156981230208,"samples":62,"weight":1.5354367735922656},"entropyRegulator":{"score":0.6140580735394114,"samples":62,"weight":1.4605435551545587},"restSynchronizer":{"score":0.20101418828796003,"samples":62,"weight":1.15076064121597}},"regime":"evolving","coupling":{"density-tension":-0.786,"density-flicker":0.98,"density-entropy":-0.768,"density-trust":-0.966,"density-phase":0,"tension-flicker":-0.88,"tension-entropy":0.6,"tension-trust":0.86,"tension-phase":0,"flicker-entropy":-0.739,"flicker-trust":-0.973,"flicker-phase":0,"entropy-trust":0.691,"entropy-phase":0},"couplingTargets":{"density-tension":{"baseline":0.15,"current":0.1491,"rollingAbsCorr":0.0157,"rawRollingAbsCorr":0.0157,"gain":0.3,"heatPenalty":0,"effectivenessEma":0.475,"effMin":0.475,"effMax":0.475,"effActiveBeats":1,"hpPromoted":false},"density-flicker":{"baseline":0.12,"current":0.1191,"rollingAbsCorr":0.0196,"rawRollingAbsCorr":0.0196,"gain":0.2416,"heatPenalty":0.036,"effectivenessEma":0.475,"effMin":0.475,"effMax":0.475,"effActiveBeats":1,"hpPromoted":false},"density-entropy":{"baseline":0.12,"current":0.1191,"rollingAbsCorr":0.0384,"rawRollingAbsCorr":0.0384,"gain":0.22,"heatPenalty":0,"effectivenessEma":0.475,"effMin":0.475,"effMax":0.475,"effActiveBeats":1,"hpPromoted":false},"density-trust":{"baseline":0.2,"current":0.1991,"rollingAbsCorr":0.0193,"rawRollingAbsCorr":0.0193,"gain":0.229,"heatPenalty":0.01,"effectivenessEma":0.475,"effMin":0.475,"effMax":0.475,"effActiveBeats":1,"hpPromoted":false},"density-phase":{"baseline":0.06,"current":0.06,"rollingAbsCorr":0,"rawRollingAbsCorr":0,"gain":0.16,"heatPenalty":0,"effectivenessEma":0.5,"effMin":1,"effMax":0,"effActiveBeats":0,"hpPromoted":false},"tension-flicker":{"baseline":0.15,"current":0.1485,"rollingAbsCorr":0.0176,"rawRollingAbsCorr":0.0176,"gain":0.229,"heatPenalty":0.01,"effectivenessEma":0.475,"effMin":0.475,"effMax":0.475,"effActiveBeats":1,"hpPromoted":false},"tension-entropy":{"baseline":0.25,"current":0.2485,"rollingAbsCorr":0.03,"rawRollingAbsCorr":0.03,"gain":0.22,"heatPenalty":0,"effectivenessEma":0.475,"effMin":0.475,"effMax":0.475,"effActiveBeats":1,"hpPromoted":false},"tension-trust":{"baseline":0.15,"current":0.1485,"rollingAbsCorr":0.0172,"rawRollingAbsCorr":0.0172,"gain":0.229,"heatPenalty":0.01,"effectivenessEma":0.475,"effMin":0.475,"effMax":0.475,"effActiveBeats":1,"hpPromoted":false},"tension-phase":{"baseline":0.2,"current":0.1985,"rollingAbsCorr":0,"rawRollingAbsCorr":0,"gain":0.16,"heatPenalty":0,"effectivenessEma":0.5,"effMin":1,"effMax":0,"effActiveBeats":0,"hpPromoted":false},"flicker-entropy":{"baseline":0.18,"current":0.1785,"rollingAbsCorr":0.037,"rawRollingAbsCorr":0.037,"gain":0.22,"heatPenalty":0,"effectivenessEma":0.475,"effMin":0.475,"effMax":0.475,"effActiveBeats":1,"hpPromoted":false},"flicker-trust":{"baseline":0.12,"current":0.1185,"rollingAbsCorr":0.0195,"rawRollingAbsCorr":0.0195,"gain":0.229,"heatPenalty":0.01,"effectivenessEma":0.475,"effMin":0.475,"effMax":0.475,"effActiveBeats":1,"hpPromoted":false},"flicker-phase":{"baseline":0.08,"current":0.08,"rollingAbsCorr":0,"rawRollingAbsCorr":0,"gain":0.16,"heatPenalty":0,"effectivenessEma":0.5,"effMin":1,"effMax":0,"effActiveBeats":0,"hpPromoted":false},"entropy-trust":{"baseline":0.25,"current":0.25,"rollingAbsCorr":0.0345,"rawRollingAbsCorr":0.0345,"gain":0.16,"heatPenalty":0,"effectivenessEma":0.5,"effMin":1,"effMax":0,"effActiveBeats":0,"hpPromoted":false},"entropy-phase":{"baseline":0.1,"current":0.1,"rollingAbsCorr":0,"rawRollingAbsCorr":0,"gain":0.16,"heatPenalty":0,"effectivenessEma":0.5,"effMin":1,"effMax":0,"effActiveBeats":0,"hpPromoted":false}},"axisCouplingTotals":{"density":0.525,"tension":0.4689,"flicker":0.5358,"entropy":0.4197,"trust":0.5235,"phase":0},"axisEnergyShare":{"shares":{"density":0.2123,"tension":0.1896,"flicker":0.2167,"entropy":0.1697,"trust":0.2117,"phase":0},"axisGini":0.2055},"couplingGates":{"gateD":1,"gateT":1,"gateF":1,"floorDampen":1,"bypassD":0.22715,"bypassT":-0.251474,"bypassF":0.329553,"gateMinD":1,"gateMinT":1,"gateMinF":1,"gateEmaD":1,"gateEmaT":1,"gateEmaF":1,"gateBeatCount":6},"couplingHomeostasis":{"totalEnergyEma":8.243,"energyBudget":3.5,"peakEnergyEma":8.243,"totalEnergyFloor":8.0005,"floorDampen":0.2,"redistributionScore":0,"nudgeableRedistributionScore":0,"globalGainMultiplier":0.9439,"giniCoefficient":0.3458,"energyDeltaEma":0.8243,"pairTurbulenceEma":0,"beatCount":1,"invokeCount":6,"tickCount":63,"emptyMatrixBeats":5,"multiplierMin":0.9439,"multiplierMax":1,"multiplierStdDev":0.0078,"floorContactBeats":0,"ceilingContactBeats":61,"avgRecoveryDuration":0},"axisEnergyEquilibrator":{"beatCount":6,"pairAdjustments":0,"axisAdjustments":0,"smoothedShares":{"density":0.016984,"tension":0.015168,"flicker":0.017336,"entropy":0.013576,"trust":0.016936,"phase":0},"perAxisAdj":{},"perPairAdj":{},"lastBaselines":{},"regimeBeats":{},"regimePairAdj":{},"regimeAxisAdj":{},"regimeTightenBudget":{}},"transitionReadiness":{"gap":0.6264,"couplingStrength":0.7921,"coherentThreshold":0.1658,"velocity":0.065246,"velThreshold":0.008,"thresholdScale":0.65,"velocityBlocked":false,"exploringBlock":"dimension","rawRegimeCounts":{"coherent":1},"rawRegimeMaxStreak":{"coherent":1},"effectiveDim":1.6955},"notes":[{"pitch":51,"velocity":89,"channel":0},{"pitch":51,"velocity":102,"channel":0},{"pitch":51,"velocity":90,"channel":0},{"pitch":82,"velocity":99,"channel":0},{"pitch":39,"velocity":102,"channel":0},{"pitch":54,"velocity":96,"channel":0},{"pitch":51,"velocity":100,"channel":0},{"pitch":54,"velocity":98,"channel":0},{"pitch":80,"velocity":92,"channel":0},{"pitch":56,"velocity":83,"channel":0},{"pitch":80,"velocity":85,"channel":0},{"pitch":56,"velocity":97,"channel":0},{"pitch":56,"velocity":85,"channel":0},{"pitch":92,"velocity":74,"channel":0},{"pitch":54,"velocity":70,"channel":0},{"pitch":58,"velocity":98,"channel":0},{"pitch":92,"velocity":75,"channel":0},{"pitch":56,"velocity":78,"channel":0},{"pitch":56,"velocity":83,"channel":0},{"pitch":56,"velocity":96,"channel":0},{"pitch":44,"velocity":100,"channel":0},{"pitch":51,"velocity":79,"channel":0},{"pitch":15,"velocity":81,"channel":0},{"pitch":44,"velocity":98,"channel":0},{"pitch":44,"velocity":89,"channel":0},{"pitch":75,"velocity":83,"channel":0},{"pitch":78,"velocity":101,"channel":0},{"pitch":44,"velocity":98,"channel":0},{"pitch":51,"velocity":90,"channel":0},{"pitch":51,"velocity":99,"channel":0},{"pitch":78,"velocity":94,"channel":0},{"pitch":87,"velocity":83,"channel":0},{"pitch":51,"velocity":91,"channel":0},{"pitch":51,"velocity":94,"channel":0},{"pitch":75,"velocity":99,"channel":0},{"pitch":54,"velocity":95,"channel":0},{"pitch":51,"velocity":98,"channel":0},{"pitch":51,"velocity":86,"channel":0},{"pitch":54,"velocity":76,"channel":0},{"pitch":51,"velocity":94,"channel":0},{"pitch":51,"velocity":79,"channel":0},{"pitch":54,"velocity":97,"channel":0},{"pitch":56,"velocity":89,"channel":0},{"pitch":56,"velocity":81,"channel":0},{"pitch":56,"velocity":101,"channel":0},{"pitch":54,"velocity":91,"channel":0},{"pitch":75,"velocity":98,"channel":0},{"pitch":46,"velocity":92,"channel":0},{"pitch":78,"velocity":87,"channel":0},{"pitch":51,"velocity":93,"channel":0},{"pitch":44,"velocity":100,"channel":0},{"pitch":46,"velocity":108,"channel":0},{"pitch":58,"velocity":93,"channel":0},{"pitch":82,"velocity":78,"channel":0},{"pitch":42,"velocity":97,"channel":0},{"pitch":68,"velocity":104,"channel":0},{"pitch":68,"velocity":75,"channel":0},{"pitch":68,"velocity":89,"channel":0},{"pitch":68,"velocity":89,"channel":0},{"pitch":68,"velocity":99,"channel":0},{"pitch":80,"velocity":96,"channel":0},{"pitch":39,"velocity":107,"channel":0},{"pitch":51,"velocity":98,"channel":0},{"pitch":51,"velocity":72,"channel":0},{"pitch":75,"velocity":85,"channel":0},{"pitch":78,"velocity":74,"channel":0},{"pitch":56,"velocity":86,"channel":0},{"pitch":63,"velocity":83,"channel":0},{"pitch":63,"velocity":84,"channel":0},{"pitch":56,"velocity":85,"channel":0},{"pitch":75,"velocity":81,"channel":0},{"pitch":63,"velocity":91,"channel":0},{"pitch":75,"velocity":90,"channel":0},{"pitch":70,"velocity":83,"channel":0},{"pitch":56,"velocity":97,"channel":0},{"pitch":32,"velocity":111,"channel":0}],"stageTiming":{"beat-setup":33.0978,"intent":0.0186,"entropy":0.0214,"phase":0.0159,"climax":0.3326,"envelope":0.0267,"silhouette":0.0685,"rest":0.2065,"complement":0.0037,"tension-cadence":0.0368,"negotiation":0.0364,"probability-adjust":0.0401,"emission":6.5838,"post-beat":0.0456},"iterBudget":{"raw":550,"capped":360,"wasCapped":true}}
{"layer":"L2","beatKey":"0:0:0:2","timeMs":350.8771929824561,"snap":{"key":"A#","mode":"locrian","quality":"minor","scale":["A#","B","C#","D#","E","F#","G#"],"chords":[],"tension":0.2858458816418885,"harmonicRhythm":0.33338377287365806,"harmonicMutationCount":8,"excursion":0,"sectionPhase":"opening","phrasePosition":0.8,"phrasePhase":"resolution","phraseDynamism":1,"registerBias":1.0534230275096785,"densityMultiplier":1.0351141009169893,"voiceIndependence":0.5,"compositeIntensity":0.34955546008782645,"playProb":0.3427583082730545,"stutterProb":0.47505733023765967,"flicker":1.1885495733762952,"textureMode":"flurry","textureFatigue":0,"densityBias":0,"crossModBias":1,"emissionRatio":0.8882997864076252,"extraDensityCorrection":1.022340042718475,"extraCoherenceDensityBias":1,"activeProfile":"restrained","journeyMove":"origin","journeyDistance":0,"journeyKey":"D#","journeyMode":"locrian","binauralFreqOffset":9,"binauralFlip":false,"tick":442500,"updatedAt":1772749134759},"negotiation":{"playProb":0.2891645562399126,"stutterProb":0.43556641234439386,"allowCadence":false,"conflict":0.09671842012880405,"phaseConfidence":0},"trust":{"stutterContagion":{"score":0.39107121257200655,"samples":63,"weight":1.2933034094290048},"cadenceAlignment":{"score":0.20810756640990627,"samples":63,"weight":1.1560806748074297},"phaseLock":{"score":0.2174799816965032,"samples":63,"weight":1.1631099862723775},"convergence":{"score":0.20810756640990627,"samples":63,"weight":1.1560806748074297},"feedbackOscillator":{"score":0.20810756640990627,"samples":63,"weight":1.1560806748074297},"coherenceMonitor":{"score":0.7162700656468385,"samples":63,"weight":1.537202549235129},"entropyRegulator":{"score":0.6288494454019407,"samples":63,"weight":1.4716370840514554},"restSynchronizer":{"score":0.20810756640990627,"samples":63,"weight":1.1560806748074297}},"regime":"evolving","coupling":{"density-tension":-0.786,"density-flicker":0.98,"density-entropy":-0.768,"density-trust":-0.966,"density-phase":0,"tension-flicker":-0.88,"tension-entropy":0.6,"tension-trust":0.86,"tension-phase":0,"flicker-entropy":-0.739,"flicker-trust":-0.973,"flicker-phase":0,"entropy-trust":0.691,"entropy-phase":0},"couplingTargets":{"density-tension":{"baseline":0.15,"current":0.1491,"rollingAbsCorr":0.0157,"rawRollingAbsCorr":0.0157,"gain":0.3,"heatPenalty":0,"effectivenessEma":0.475,"effMin":0.475,"effMax":0.475,"effActiveBeats":1,"hpPromoted":false},"density-flicker":{"baseline":0.12,"current":0.1191,"rollingAbsCorr":0.0196,"rawRollingAbsCorr":0.0196,"gain":0.2416,"heatPenalty":0.036,"effectivenessEma":0.475,"effMin":0.475,"effMax":0.475,"effActiveBeats":1,"hpPromoted":false},"density-entropy":{"baseline":0.12,"current":0.1191,"rollingAbsCorr":0.0384,"rawRollingAbsCorr":0.0384,"gain":0.22,"heatPenalty":0,"effectivenessEma":0.475,"effMin":0.475,"effMax":0.475,"effActiveBeats":1,"hpPromoted":false},"density-trust":{"baseline":0.2,"current":0.1991,"rollingAbsCorr":0.0193,"rawRollingAbsCorr":0.0193,"gain":0.229,"heatPenalty":0.01,"effectivenessEma":0.475,"effMin":0.475,"effMax":0.475,"effActiveBeats":1,"hpPromoted":false},"density-phase":{"baseline":0.06,"current":0.06,"rollingAbsCorr":0,"rawRollingAbsCorr":0,"gain":0.16,"heatPenalty":0,"effectivenessEma":0.5,"effMin":1,"effMax":0,"effActiveBeats":0,"hpPromoted":false},"tension-flicker":{"baseline":0.15,"current":0.1485,"rollingAbsCorr":0.0176,"rawRollingAbsCorr":0.0176,"gain":0.229,"heatPenalty":0.01,"effectivenessEma":0.475,"effMin":0.475,"effMax":0.475,"effActiveBeats":1,"hpPromoted":false},"tension-entropy":{"baseline":0.25,"current":0.2485,"rollingAbsCorr":0.03,"rawRollingAbsCorr":0.03,"gain":0.22,"heatPenalty":0,"effectivenessEma":0.475,"effMin":0.475,"effMax":0.475,"effActiveBeats":1,"hpPromoted":false},"tension-trust":{"baseline":0.15,"current":0.1485,"rollingAbsCorr":0.0172,"rawRollingAbsCorr":0.0172,"gain":0.229,"heatPenalty":0.01,"effectivenessEma":0.475,"effMin":0.475,"effMax":0.475,"effActiveBeats":1,"hpPromoted":false},"tension-phase":{"baseline":0.2,"current":0.1985,"rollingAbsCorr":0,"rawRollingAbsCorr":0,"gain":0.16,"heatPenalty":0,"effectivenessEma":0.5,"effMin":1,"effMax":0,"effActiveBeats":0,"hpPromoted":false},"flicker-entropy":{"baseline":0.18,"current":0.1785,"rollingAbsCorr":0.037,"rawRollingAbsCorr":0.037,"gain":0.22,"heatPenalty":0,"effectivenessEma":0.475,"effMin":0.475,"effMax":0.475,"effActiveBeats":1,"hpPromoted":false},"flicker-trust":{"baseline":0.12,"current":0.1185,"rollingAbsCorr":0.0195,"rawRollingAbsCorr":0.0195,"gain":0.229,"heatPenalty":0.01,"effectivenessEma":0.475,"effMin":0.475,"effMax":0.475,"effActiveBeats":1,"hpPromoted":false},"flicker-phase":{"baseline":0.08,"current":0.08,"rollingAbsCorr":0,"rawRollingAbsCorr":0,"gain":0.16,"heatPenalty":0,"effectivenessEma":0.5,"effMin":1,"effMax":0,"effActiveBeats":0,"hpPromoted":false},"entropy-trust":{"baseline":0.25,"current":0.25,"rollingAbsCorr":0.0345,"rawRollingAbsCorr":0.0345,"gain":0.16,"heatPenalty":0,"effectivenessEma":0.5,"effMin":1,"effMax":0,"effActiveBeats":0,"hpPromoted":false},"entropy-phase":{"baseline":0.1,"current":0.1,"rollingAbsCorr":0,"rawRollingAbsCorr":0,"gain":0.16,"heatPenalty":0,"effectivenessEma":0.5,"effMin":1,"effMax":0,"effActiveBeats":0,"hpPromoted":false}},"axisCouplingTotals":{"density":0.525,"tension":0.4689,"flicker":0.5358,"entropy":0.4197,"trust":0.5235,"phase":0},"axisEnergyShare":{"shares":{"density":0.2123,"tension":0.1896,"flicker":0.2167,"entropy":0.1697,"trust":0.2117,"phase":0},"axisGini":0.2055},"couplingGates":{"gateD":1,"gateT":1,"gateF":1,"floorDampen":1,"bypassD":0.22715,"bypassT":-0.251474,"bypassF":0.329553,"gateMinD":1,"gateMinT":1,"gateMinF":1,"gateEmaD":1,"gateEmaT":1,"gateEmaF":1,"gateBeatCount":6},"couplingHomeostasis":{"totalEnergyEma":8.243,"energyBudget":3.5,"peakEnergyEma":8.243,"totalEnergyFloor":8.0005,"floorDampen":0.2,"redistributionScore":0,"nudgeableRedistributionScore":0,"globalGainMultiplier":0.9179,"giniCoefficient":0.3458,"energyDeltaEma":0.8243,"pairTurbulenceEma":0,"beatCount":1,"invokeCount":6,"tickCount":64,"emptyMatrixBeats":5,"multiplierMin":0.9179,"multiplierMax":1,"multiplierStdDev":0.0127,"floorContactBeats":0,"ceilingContactBeats":61,"avgRecoveryDuration":0},"axisEnergyEquilibrator":{"beatCount":6,"pairAdjustments":0,"axisAdjustments":0,"smoothedShares":{"density":0.016984,"tension":0.015168,"flicker":0.017336,"entropy":0.013576,"trust":0.016936,"phase":0},"perAxisAdj":{},"perPairAdj":{},"lastBaselines":{},"regimeBeats":{},"regimePairAdj":{},"regimeAxisAdj":{},"regimeTightenBudget":{}},"transitionReadiness":{"gap":0.6264,"couplingStrength":0.7921,"coherentThreshold":0.1658,"velocity":0.065246,"velThreshold":0.008,"thresholdScale":0.65,"velocityBlocked":false,"exploringBlock":"dimension","rawRegimeCounts":{"coherent":1},"rawRegimeMaxStreak":{"coherent":1},"effectiveDim":1.6955},"notes":[{"pitch":58,"velocity":81,"channel":0},{"pitch":44,"velocity":81,"channel":0},{"pitch":44,"velocity":85,"channel":0},{"pitch":44,"velocity":88,"channel":0},{"pitch":44,"velocity":90,"channel":0},{"pitch":92,"velocity":88,"channel":0},{"pitch":44,"velocity":94,"channel":0},{"pitch":80,"velocity":88,"channel":0},{"pitch":44,"velocity":95,"channel":0},{"pitch":92,"velocity":83,"channel":0},{"pitch":44,"velocity":80,"channel":0},{"pitch":44,"velocity":88,"channel":0},{"pitch":58,"velocity":84,"channel":0},{"pitch":51,"velocity":79,"channel":0},{"pitch":54,"velocity":80,"channel":0},{"pitch":56,"velocity":84,"channel":0},{"pitch":32,"velocity":94,"channel":0},{"pitch":56,"velocity":92,"channel":0},{"pitch":32,"velocity":95,"channel":0},{"pitch":44,"velocity":88,"channel":0},{"pitch":80,"velocity":87,"channel":0},{"pitch":92,"velocity":81,"channel":0},{"pitch":32,"velocity":98,"channel":0},{"pitch":44,"velocity":91,"channel":0},{"pitch":92,"velocity":105,"channel":0},{"pitch":80,"velocity":71,"channel":0},{"pitch":39,"velocity":81,"channel":0},{"pitch":51,"velocity":95,"channel":0},{"pitch":44,"velocity":81,"channel":0},{"pitch":54,"velocity":80,"channel":0},{"pitch":51,"velocity":83,"channel":0},{"pitch":44,"velocity":88,"channel":0},{"pitch":56,"velocity":86,"channel":0},{"pitch":56,"velocity":77,"channel":0},{"pitch":80,"velocity":73,"channel":0},{"pitch":80,"velocity":80,"channel":0},{"pitch":44,"velocity":87,"channel":0},{"pitch":51,"velocity":91,"channel":0},{"pitch":51,"velocity":83,"channel":0},{"pitch":87,"velocity":85,"channel":0},{"pitch":51,"velocity":88,"channel":0},{"pitch":51,"velocity":84,"channel":0},{"pitch":44,"velocity":81,"channel":0},{"pitch":54,"velocity":88,"channel":0},{"pitch":51,"velocity":98,"channel":0},{"pitch":51,"velocity":82,"channel":0},{"pitch":51,"velocity":88,"channel":0},{"pitch":44,"velocity":97,"channel":0},{"pitch":75,"velocity":81,"channel":0},{"pitch":51,"velocity":81,"channel":0},{"pitch":54,"velocity":87,"channel":0},{"pitch":56,"velocity":72,"channel":0},{"pitch":56,"velocity":88,"channel":0},{"pitch":54,"velocity":79,"channel":0},{"pitch":56,"velocity":101,"channel":0},{"pitch":80,"velocity":80,"channel":0},{"pitch":56,"velocity":94,"channel":0},{"pitch":56,"velocity":92,"channel":0},{"pitch":42,"velocity":93,"channel":0},{"pitch":78,"velocity":97,"channel":0},{"pitch":44,"velocity":94,"channel":0},{"pitch":54,"velocity":88,"channel":0},{"pitch":87,"velocity":82,"channel":0},{"pitch":51,"velocity":84,"channel":0},{"pitch":54,"velocity":95,"channel":0},{"pitch":51,"velocity":84,"channel":0},{"pitch":51,"velocity":74,"channel":0},{"pitch":92,"velocity":84,"channel":0},{"pitch":51,"velocity":90,"channel":0},{"pitch":51,"velocity":88,"channel":0},{"pitch":34,"velocity":77,"channel":0},{"pitch":34,"velocity":87,"channel":0},{"pitch":34,"velocity":89,"channel":0},{"pitch":34,"velocity":88,"channel":0},{"pitch":44,"velocity":95,"channel":0},{"pitch":51,"velocity":88,"channel":0},{"pitch":56,"velocity":79,"channel":0},{"pitch":54,"velocity":90,"channel":0},{"pitch":51,"velocity":90,"channel":0},{"pitch":51,"velocity":71,"channel":0},{"pitch":51,"velocity":79,"channel":0},{"pitch":51,"velocity":75,"channel":0},{"pitch":75,"velocity":74,"channel":0},{"pitch":54,"velocity":96,"channel":0},{"pitch":56,"velocity":83,"channel":0},{"pitch":56,"velocity":82,"channel":0},{"pitch":39,"velocity":81,"channel":0},{"pitch":90,"velocity":81,"channel":0},{"pitch":78,"velocity":75,"channel":0},{"pitch":44,"velocity":81,"channel":0},{"pitch":44,"velocity":81,"channel":0},{"pitch":42,"velocity":83,"channel":0},{"pitch":44,"velocity":88,"channel":0},{"pitch":80,"velocity":90,"channel":0},{"pitch":75,"velocity":96,"channel":0},{"pitch":80,"velocity":80,"channel":0},{"pitch":80,"velocity":86,"channel":0},{"pitch":54,"velocity":95,"channel":0},{"pitch":51,"velocity":82,"channel":0},{"pitch":56,"velocity":111,"channel":0},{"pitch":92,"velocity":81,"channel":0},{"pitch":51,"velocity":85,"channel":0},{"pitch":63,"velocity":89,"channel":0},{"pitch":63,"velocity":85,"channel":0},{"pitch":82,"velocity":96,"channel":0},{"pitch":78,"velocity":84,"channel":0},{"pitch":56,"velocity":85,"channel":0},{"pitch":63,"velocity":90,"channel":0},{"pitch":63,"velocity":80,"channel":0},{"pitch":78,"velocity":77,"channel":0},{"pitch":68,"velocity":95,"channel":0},{"pitch":68,"velocity":95,"channel":0},{"pitch":46,"velocity":78,"channel":0},{"pitch":51,"velocity":87,"channel":0},{"pitch":51,"velocity":98,"channel":0},{"pitch":68,"velocity":89,"channel":0},{"pitch":54,"velocity":95,"channel":0},{"pitch":56,"velocity":70,"channel":0},{"pitch":75,"velocity":88,"channel":0},{"pitch":44,"velocity":74,"channel":0},{"pitch":44,"velocity":102,"channel":0},{"pitch":56,"velocity":97,"channel":0},{"pitch":44,"velocity":88,"channel":0},{"pitch":70,"velocity":86,"channel":0},{"pitch":70,"velocity":74,"channel":0},{"pitch":51,"velocity":92,"channel":0},{"pitch":51,"velocity":87,"channel":0},{"pitch":80,"velocity":83,"channel":0},{"pitch":54,"velocity":82,"channel":0},{"pitch":54,"velocity":83,"channel":0},{"pitch":70,"velocity":90,"channel":0},{"pitch":80,"velocity":76,"channel":0},{"pitch":70,"velocity":90,"channel":0},{"pitch":56,"velocity":102,"channel":0},{"pitch":30,"velocity":84,"channel":0},{"pitch":56,"velocity":81,"channel":0},{"pitch":82,"velocity":95,"channel":0},{"pitch":82,"velocity":86,"channel":0},{"pitch":75,"velocity":83,"channel":0},{"pitch":51,"velocity":81,"channel":0},{"pitch":51,"velocity":88,"channel":0},{"pitch":51,"velocity":99,"channel":0},{"pitch":42,"velocity":83,"channel":0},{"pitch":54,"velocity":92,"channel":0},{"pitch":54,"velocity":93,"channel":0},{"pitch":44,"velocity":83,"channel":0},{"pitch":44,"velocity":95,"channel":0},{"pitch":80,"velocity":91,"channel":0},{"pitch":92,"velocity":77,"channel":0},{"pitch":92,"velocity":91,"channel":0},{"pitch":51,"velocity":77,"channel":0},{"pitch":54,"velocity":91,"channel":0},{"pitch":78,"velocity":84,"channel":0},{"pitch":44,"velocity":88,"channel":0},{"pitch":54,"velocity":73,"channel":0},{"pitch":51,"velocity":95,"channel":0},{"pitch":51,"velocity":91,"channel":0},{"pitch":56,"velocity":90,"channel":0},{"pitch":51,"velocity":73,"channel":0},{"pitch":51,"velocity":88,"channel":0},{"pitch":51,"velocity":85,"channel":0},{"pitch":44,"velocity":88,"channel":0},{"pitch":54,"velocity":80,"channel":0},{"pitch":51,"velocity":76,"channel":0},{"pitch":87,"velocity":91,"channel":0},{"pitch":51,"velocity":105,"channel":0},{"pitch":54,"velocity":81,"channel":0},{"pitch":44,"velocity":92,"channel":0},{"pitch":51,"velocity":85,"channel":0},{"pitch":54,"velocity":91,"channel":0},{"pitch":51,"velocity":73,"channel":0},{"pitch":51,"velocity":92,"channel":0},{"pitch":51,"velocity":85,"channel":0},{"pitch":56,"velocity":87,"channel":0},{"pitch":80,"velocity":91,"channel":0},{"pitch":54,"velocity":81,"channel":0},{"pitch":51,"velocity":94,"channel":0},{"pitch":54,"velocity":94,"channel":0},{"pitch":87,"velocity":80,"channel":0},{"pitch":78,"velocity":77,"channel":0},{"pitch":80,"velocity":87,"channel":0},{"pitch":87,"velocity":88,"channel":0},{"pitch":92,"velocity":91,"channel":0},{"pitch":68,"velocity":88,"channel":0},{"pitch":51,"velocity":74,"channel":0},{"pitch":63,"velocity":93,"channel":0},{"pitch":66,"velocity":95,"channel":0},{"pitch":56,"velocity":88,"channel":0},{"pitch":56,"velocity":92,"channel":0},{"pitch":56,"velocity":73,"channel":0},{"pitch":56,"velocity":81,"channel":0},{"pitch":56,"velocity":71,"channel":0},{"pitch":56,"velocity":87,"channel":0},{"pitch":44,"velocity":83,"channel":0},{"pitch":78,"velocity":79,"channel":0},{"pitch":51,"velocity":84,"channel":0},{"pitch":87,"velocity":92,"channel":0},{"pitch":51,"velocity":71,"channel":0},{"pitch":75,"velocity":89,"channel":0},{"pitch":54,"velocity":84,"channel":0},{"pitch":51,"velocity":80,"channel":0},{"pitch":51,"velocity":88,"channel":0},{"pitch":56,"velocity":85,"channel":0},{"pitch":56,"velocity":82,"channel":0},{"pitch":56,"velocity":78,"channel":0},{"pitch":54,"velocity":88,"channel":0},{"pitch":51,"velocity":64,"channel":0},{"pitch":87,"velocity":70,"channel":0},{"pitch":56,"velocity":74,"channel":0},{"pitch":51,"velocity":81,"channel":0},{"pitch":87,"velocity":103,"channel":0},{"pitch":51,"velocity":89,"channel":0},{"pitch":44,"velocity":81,"channel":0},{"pitch":51,"velocity":75,"channel":0},{"pitch":87,"velocity":81,"channel":0},{"pitch":51,"velocity":98,"channel":0},{"pitch":75,"velocity":81,"channel":0},{"pitch":51,"velocity":96,"channel":0},{"pitch":92,"velocity":95,"channel":0},{"pitch":80,"velocity":97,"channel":0},{"pitch":44,"velocity":79,"channel":0},{"pitch":78,"velocity":87,"channel":0},{"pitch":51,"velocity":86,"channel":0},{"pitch":82,"velocity":87,"channel":0},{"pitch":58,"velocity":81,"channel":0},{"pitch":44,"velocity":98,"channel":0},{"pitch":54,"velocity":94,"channel":0},{"pitch":51,"velocity":77,"channel":0},{"pitch":51,"velocity":72,"channel":0},{"pitch":75,"velocity":77,"channel":0},{"pitch":44,"velocity":97,"channel":0},{"pitch":51,"velocity":88,"channel":0},{"pitch":87,"velocity":89,"channel":0},{"pitch":80,"velocity":89,"channel":0}],"stageTiming":{"beat-setup":28.2787,"intent":0.0108,"entropy":0.0149,"phase":0.0128,"climax":0.0362,"envelope":0.0146,"silhouette":0.018,"rest":0.1073,"complement":0.0016,"tension-cadence":0.0215,"negotiation":0.0287,"probability-adjust":0.0165,"emission":3.9071,"post-beat":0.0199},"iterBudget":{"raw":175,"capped":175,"wasCapped":false}}
{"layer":"L2","beatKey":"0:0:0:3","timeMs":526.3157894736842,"snap":{"key":"A#","mode":"locrian","quality":"minor","scale":["A#","B","C#","D#","E","F#","G#"],"chords":[],"tension":0.2858458816418885,"harmonicRhythm":0.33338377287365806,"harmonicMutationCount":8,"excursion":0,"sectionPhase":"opening","phrasePosition":0.8,"phrasePhase":"resolution","phraseDynamism":1,"registerBias":1.0534230275096785,"densityMultiplier":1.0351141009169893,"voiceIndependence":0.5,"compositeIntensity":0.34955546008782645,"playProb":0.3427583082730545,"stutterProb":0.47505733023765967,"flicker":1.1885495733762952,"textureMode":"flurry","textureFatigue":0,"densityBias":0,"crossModBias":1,"emissionRatio":0.8882997864076252,"extraDensityCorrection":1.022340042718475,"extraCoherenceDensityBias":1,"activeProfile":"restrained","journeyMove":"origin","journeyDistance":0,"journeyKey":"D#","journeyMode":"locrian","binauralFreqOffset":9,"binauralFlip":false,"tick":442500,"updatedAt":1772749134759},"negotiation":{"playProb":0.29033910913989963,"stutterProb":0.4402137752133085,"allowCadence":false,"conflict":0.13722273462157508,"phaseConfidence":0.275},"trust":{"stutterContagion":{"score":0.44575601470755954,"samples":64,"weight":1.3343170110306697},"cadenceAlignment":{"score":0.21545595700429543,"samples":64,"weight":1.1615919677532216},"phaseLock":{"score":0.22013662654332605,"samples":64,"weight":1.1651024699074946},"convergence":{"score":0.21545595700429543,"samples":64,"weight":1.1615919677532216},"feedbackOscillator":{"score":0.21545595700429543,"samples":64,"weight":1.1615919677532216},"coherenceMonitor":{"score":0.7121755366957789,"samples":64,"weight":1.5341316525218343},"entropyRegulator":{"score":0.6434531873064372,"samples":64,"weight":1.482589890479828},"restSynchronizer":{"score":0.21545595700429543,"samples":64,"weight":1.1615919677532216}},"regime":"evolving","coupling":{"density-tension":-0.786,"density-flicker":0.98,"density-entropy":-0.768,"density-trust":-0.966,"density-phase":0,"tension-flicker":-0.88,"tension-entropy":0.6,"tension-trust":0.86,"tension-phase":0,"flicker-entropy":-0.739,"flicker-trust":-0.973,"flicker-phase":0,"entropy-trust":0.691,"entropy-phase":0},"couplingTargets":{"density-tension":{"baseline":0.15,"current":0.1491,"rollingAbsCorr":0.0157,"rawRollingAbsCorr":0.0157,"gain":0.3,"heatPenalty":0,"effectivenessEma":0.475,"effMin":0.475,"effMax":0.475,"effActiveBeats":1,"hpPromoted":false},"density-flicker":{"baseline":0.12,"current":0.1191,"rollingAbsCorr":0.0196,"rawRollingAbsCorr":0.0196,"gain":0.2416,"heatPenalty":0.036,"effectivenessEma":0.475,"effMin":0.475,"effMax":0.475,"effActiveBeats":1,"hpPromoted":false},"density-entropy":{"baseline":0.12,"current":0.1191,"rollingAbsCorr":0.0384,"rawRollingAbsCorr":0.0384,"gain":0.22,"heatPenalty":0,"effectivenessEma":0.475,"effMin":0.475,"effMax":0.475,"effActiveBeats":1,"hpPromoted":false},"density-trust":{"baseline":0.2,"current":0.1991,"rollingAbsCorr":0.0193,"rawRollingAbsCorr":0.0193,"gain":0.229,"heatPenalty":0.01,"effectivenessEma":0.475,"effMin":0.475,"effMax":0.475,"effActiveBeats":1,"hpPromoted":false},"density-phase":{"baseline":0.06,"current":0.06,"rollingAbsCorr":0,"rawRollingAbsCorr":0,"gain":0.16,"heatPenalty":0,"effectivenessEma":0.5,"effMin":1,"effMax":0,"effActiveBeats":0,"hpPromoted":false},"tension-flicker":{"baseline":0.15,"current":0.1485,"rollingAbsCorr":0.0176,"rawRollingAbsCorr":0.0176,"gain":0.229,"heatPenalty":0.01,"effectivenessEma":0.475,"effMin":0.475,"effMax":0.475,"effActiveBeats":1,"hpPromoted":false},"tension-entropy":{"baseline":0.25,"current":0.2485,"rollingAbsCorr":0.03,"rawRollingAbsCorr":0.03,"gain":0.22,"heatPenalty":0,"effectivenessEma":0.475,"effMin":0.475,"effMax":0.475,"effActiveBeats":1,"hpPromoted":false},"tension-trust":{"baseline":0.15,"current":0.1485,"rollingAbsCorr":0.0172,"rawRollingAbsCorr":0.0172,"gain":0.229,"heatPenalty":0.01,"effectivenessEma":0.475,"effMin":0.475,"effMax":0.475,"effActiveBeats":1,"hpPromoted":false},"tension-phase":{"baseline":0.2,"current":0.1985,"rollingAbsCorr":0,"rawRollingAbsCorr":0,"gain":0.16,"heatPenalty":0,"effectivenessEma":0.5,"effMin":1,"effMax":0,"effActiveBeats":0,"hpPromoted":false},"flicker-entropy":{"baseline":0.18,"current":0.1785,"rollingAbsCorr":0.037,"rawRollingAbsCorr":0.037,"gain":0.22,"heatPenalty":0,"effectivenessEma":0.475,"effMin":0.475,"effMax":0.475,"effActiveBeats":1,"hpPromoted":false},"flicker-trust":{"baseline":0.12,"current":0.1185,"rollingAbsCorr":0.0195,"rawRollingAbsCorr":0.0195,"gain":0.229,"heatPenalty":0.01,"effectivenessEma":0.475,"effMin":0.475,"effMax":0.475,"effActiveBeats":1,"hpPromoted":false},"flicker-phase":{"baseline":0.08,"current":0.08,"rollingAbsCorr":0,"rawRollingAbsCorr":0,"gain":0.16,"heatPenalty":0,"effectivenessEma":0.5,"effMin":1,"effMax":0,"effActiveBeats":0,"hpPromoted":false},"entropy-trust":{"baseline":0.25,"current":0.25,"rollingAbsCorr":0.0345,"rawRollingAbsCorr":0.0345,"gain":0.16,"heatPenalty":0,"effectivenessEma":0.5,"effMin":1,"effMax":0,"effActiveBeats":0,"hpPromoted":false},"entropy-phase":{"baseline":0.1,"current":0.1,"rollingAbsCorr":0,"rawRollingAbsCorr":0,"gain":0.16,"heatPenalty":0,"effectivenessEma":0.5,"effMin":1,"effMax":0,"effActiveBeats":0,"hpPromoted":false}},"axisCouplingTotals":{"density":0.525,"tension":0.4689,"flicker":0.5358,"entropy":0.4197,"trust":0.5235,"phase":0},"axisEnergyShare":{"shares":{"density":0.2123,"tension":0.1896,"flicker":0.2167,"entropy":0.1697,"trust":0.2117,"phase":0},"axisGini":0.2055},"couplingGates":{"gateD":1,"gateT":1,"gateF":1,"floorDampen":1,"bypassD":0.22715,"bypassT":-0.251474,"bypassF":0.329553,"gateMinD":1,"gateMinT":1,"gateMinF":1,"gateEmaD":1,"gateEmaT":1,"gateEmaF":1,"gateBeatCount":6},"couplingHomeostasis":{"totalEnergyEma":8.243,"energyBudget":3.5,"peakEnergyEma":8.243,"totalEnergyFloor":8.0005,"floorDampen":0.2,"redistributionScore":0,"nudgeableRedistributionScore":0,"globalGainMultiplier":0.8933,"giniCoefficient":0.3458,"energyDeltaEma":0.8243,"pairTurbulenceEma":0,"beatCount":1,"invokeCount":6,"tickCount":65,"emptyMatrixBeats":5,"multiplierMin":0.8933,"multiplierMax":1,"multiplierStdDev":0.018,"floorContactBeats":0,"ceilingContactBeats":61,"avgRecoveryDuration":0},"axisEnergyEquilibrator":{"beatCount":6,"pairAdjustments":0,"axisAdjustments":0,"smoothedShares":{"density":0.016984,"tension":0.015168,"flicker":0.017336,"entropy":0.013576,"trust":0.016936,"phase":0},"perAxisAdj":{},"perPairAdj":{},"lastBaselines":{},"regimeBeats":{},"regimePairAdj":{},"regimeAxisAdj":{},"regimeTightenBudget":{}},"transitionReadiness":{"gap":0.6264,"couplingStrength":0.7921,"coherentThreshold":0.1658,"velocity":0.065246,"velThreshold":0.008,"thresholdScale":0.65,"velocityBlocked":false,"exploringBlock":"dimension","rawRegimeCounts":{"coherent":1},"rawRegimeMaxStreak":{"coherent":1},"effectiveDim":1.6955},"notes":[{"pitch":54,"velocity":79,"channel":0},{"pitch":20,"velocity":83,"channel":0},{"pitch":90,"velocity":92,"channel":0},{"pitch":15,"velocity":77,"channel":0},{"pitch":75,"velocity":78,"channel":0},{"pitch":20,"velocity":71,"channel":0},{"pitch":20,"velocity":82,"channel":0},{"pitch":18,"velocity":83,"channel":0},{"pitch":20,"velocity":87,"channel":0},{"pitch":20,"velocity":79,"channel":0},{"pitch":20,"velocity":79,"channel":0},{"pitch":20,"velocity":74,"channel":0},{"pitch":87,"velocity":78,"channel":0},{"pitch":56,"velocity":87,"channel":0},{"pitch":15,"velocity":77,"channel":0},{"pitch":78,"velocity":93,"channel":0},{"pitch":63,"velocity":87,"channel":0},{"pitch":54,"velocity":82,"channel":0},{"pitch":63,"velocity":72,"channel":0},{"pitch":6,"velocity":86,"channel":0},{"pitch":80,"velocity":77,"channel":0},{"pitch":8,"velocity":90,"channel":0},{"pitch":56,"velocity":87,"channel":0},{"pitch":15,"velocity":80,"channel":0},{"pitch":44,"velocity":88,"channel":0},{"pitch":27,"velocity":86,"channel":0},{"pitch":3,"velocity":86,"channel":0},{"pitch":20,"velocity":73,"channel":0},{"pitch":51,"velocity":89,"channel":0},{"pitch":58,"velocity":79,"channel":0},{"pitch":80,"velocity":79,"channel":0},{"pitch":8,"velocity":89,"channel":0},{"pitch":75,"velocity":75,"channel":0},{"pitch":8,"velocity":75,"channel":0},{"pitch":8,"velocity":84,"channel":0},{"pitch":32,"velocity":86,"channel":0},{"pitch":75,"velocity":89,"channel":0},{"pitch":80,"velocity":88,"channel":0},{"pitch":20,"velocity":93,"channel":0},{"pitch":18,"velocity":82,"channel":0},{"pitch":15,"velocity":86,"channel":0},{"pitch":87,"velocity":89,"channel":0},{"pitch":8,"velocity":97,"channel":0},{"pitch":22,"velocity":85,"channel":0},{"pitch":22,"velocity":75,"channel":0},{"pitch":20,"velocity":85,"channel":0},{"pitch":20,"velocity":70,"channel":0},{"pitch":44,"velocity":74,"channel":0},{"pitch":20,"velocity":87,"channel":0},{"pitch":32,"velocity":95,"channel":0},{"pitch":87,"velocity":81,"channel":0},{"pitch":54,"velocity":79,"channel":0},{"pitch":8,"velocity":85,"channel":0},{"pitch":94,"velocity":80,"channel":0},{"pitch":82,"velocity":89,"channel":0},{"pitch":8,"velocity":69,"channel":0},{"pitch":3,"velocity":95,"channel":0},{"pitch":56,"velocity":87,"channel":0},{"pitch":15,"velocity":86,"channel":0},{"pitch":68,"velocity":88,"channel":0},{"pitch":80,"velocity":97,"channel":0},{"pitch":18,"velocity":75,"channel":0},{"pitch":54,"velocity":84,"channel":0},{"pitch":15,"velocity":75,"channel":0},{"pitch":51,"velocity":86,"channel":0},{"pitch":8,"velocity":93,"channel":0},{"pitch":15,"velocity":77,"channel":0},{"pitch":15,"velocity":88,"channel":0},{"pitch":42,"velocity":81,"channel":0},{"pitch":54,"velocity":85,"channel":0},{"pitch":46,"velocity":78,"channel":0},{"pitch":94,"velocity":90,"channel":0},{"pitch":80,"velocity":92,"channel":0},{"pitch":15,"velocity":82,"channel":0},{"pitch":75,"velocity":78,"channel":0},{"pitch":15,"velocity":80,"channel":0},{"pitch":82,"velocity":74,"channel":0},{"pitch":15,"velocity":72,"channel":0},{"pitch":15,"velocity":77,"channel":0},{"pitch":58,"velocity":74,"channel":0},{"pitch":15,"velocity":77,"channel":0},{"pitch":58,"velocity":84,"channel":0},{"pitch":15,"velocity":80,"channel":0},{"pitch":78,"velocity":88,"channel":0},{"pitch":75,"velocity":89,"channel":0},{"pitch":15,"velocity":88,"channel":0},{"pitch":78,"velocity":88,"channel":0},{"pitch":78,"velocity":96,"channel":0},{"pitch":54,"velocity":82,"channel":0},{"pitch":3,"velocity":86,"channel":0},{"pitch":8,"velocity":97,"channel":0},{"pitch":18,"velocity":80,"channel":0},{"pitch":15,"velocity":78,"channel":0},{"pitch":51,"velocity":72,"channel":0},{"pitch":78,"velocity":88,"channel":0},{"pitch":15,"velocity":89,"channel":0},{"pitch":46,"velocity":84,"channel":0},{"pitch":15,"velocity":82,"channel":0},{"pitch":8,"velocity":87,"channel":0},{"pitch":8,"velocity":101,"channel":0},{"pitch":75,"velocity":82,"channel":0},{"pitch":92,"velocity":89,"channel":0},{"pitch":92,"velocity":78,"channel":0},{"pitch":90,"velocity":94,"channel":0},{"pitch":82,"velocity":90,"channel":0},{"pitch":8,"velocity":96,"channel":0},{"pitch":92,"velocity":82,"channel":0},{"pitch":63,"velocity":80,"channel":0},{"pitch":90,"velocity":91,"channel":0},{"pitch":54,"velocity":77,"channel":0},{"pitch":20,"velocity":82,"channel":0},{"pitch":56,"velocity":88,"channel":0},{"pitch":15,"velocity":73,"channel":0},{"pitch":56,"velocity":77,"channel":0},{"pitch":32,"velocity":94,"channel":0}],"stageTiming":{"beat-setup":17.2039,"intent":0.0115,"entropy":0.0145,"phase":0.0172,"climax":0.0173,"envelope":0.0155,"silhouette":0.0153,"rest":0.0696,"complement":0.0027,"tension-cadence":0.0219,"negotiation":0.0261,"probability-adjust":0.0075,"emission":3.7801,"post-beat":0.0219},"iterBudget":{"raw":168,"capped":168,"wasCapped":false}}
{"layer":"L2","beatKey":"0:0:0:4","timeMs":701.7543859649122,"snap":{"key":"A#","mode":"locrian","quality":"minor","scale":["A#","B","C#","D#","E","F#","G#"],"chords":[],"tension":0.2858458816418885,"harmonicRhythm":0.33338377287365806,"harmonicMutationCount":8,"excursion":0,"sectionPhase":"opening","phrasePosition":0.8,"phrasePhase":"resolution","phraseDynamism":1,"registerBias":1.0534230275096785,"densityMultiplier":1.0351141009169893,"voiceIndependence":0.5,"compositeIntensity":0.34955546008782645,"playProb":0.3427583082730545,"stutterProb":0.47505733023765967,"flicker":1.1885495733762952,"textureMode":"flurry","textureFatigue":0,"densityBias":0,"crossModBias":1,"emissionRatio":0.8882997864076252,"extraDensityCorrection":1.022340042718475,"extraCoherenceDensityBias":1,"activeProfile":"restrained","journeyMove":"origin","journeyDistance":0,"journeyKey":"D#","journeyMode":"locrian","binauralFreqOffset":9,"binauralFlip":false,"tick":442500,"updatedAt":1772749134759},"negotiation":{"playProb":0.2917205997208408,"stutterProb":0.44473621188123497,"allowCadence":false,"conflict":0.1727250432774481,"phaseConfidence":0.275},"trust":{"stutterContagion":{"score":0.4022053639143952,"samples":65,"weight":1.3016540229357965},"cadenceAlignment":{"score":0.21980433377296393,"samples":65,"weight":1.1648532503297229},"phaseLock":{"score":0.22252521592510446,"samples":65,"weight":1.1668939119438284},"convergence":{"score":0.21980433377296393,"samples":65,"weight":1.1648532503297229},"feedbackOscillator":{"score":0.21980433377296393,"samples":65,"weight":1.1648532503297229},"coherenceMonitor":{"score":0.705958673305978,"samples":65,"weight":1.5294690049794835},"entropyRegulator":{"score":0.6579182637521481,"samples":65,"weight":1.4934386978141112},"restSynchronizer":{"score":0.293616450942562,"samples":65,"weight":1.2202123382069214}},"regime":"evolving","coupling":{"density-tension":-0.786,"density-flicker":0.98,"density-entropy":-0.768,"density-trust":-0.966,"density-phase":0,"tension-flicker":-0.88,"tension-entropy":0.6,"tension-trust":0.86,"tension-phase":0,"flicker-entropy":-0.739,"flicker-trust":-0.973,"flicker-phase":0,"entropy-trust":0.691,"entropy-phase":0},"couplingTargets":{"density-tension":{"baseline":0.15,"current":0.1491,"rollingAbsCorr":0.0157,"rawRollingAbsCorr":0.0157,"gain":0.3,"heatPenalty":0,"effectivenessEma":0.475,"effMin":0.475,"effMax":0.475,"effActiveBeats":1,"hpPromoted":false},"density-flicker":{"baseline":0.12,"current":0.1191,"rollingAbsCorr":0.0196,"rawRollingAbsCorr":0.0196,"gain":0.2416,"heatPenalty":0.036,"effectivenessEma":0.475,"effMin":0.475,"effMax":0.475,"effActiveBeats":1,"hpPromoted":false},"density-entropy":{"baseline":0.12,"current":0.1191,"rollingAbsCorr":0.0384,"rawRollingAbsCorr":0.0384,"gain":0.22,"heatPenalty":0,"effectivenessEma":0.475,"effMin":0.475,"effMax":0.475,"effActiveBeats":1,"hpPromoted":false},"density-trust":{"baseline":0.2,"current":0.1991,"rollingAbsCorr":0.0193,"rawRollingAbsCorr":0.0193,"gain":0.229,"heatPenalty":0.01,"effectivenessEma":0.475,"effMin":0.475,"effMax":0.475,"effActiveBeats":1,"hpPromoted":false},"density-phase":{"baseline":0.06,"current":0.06,"rollingAbsCorr":0,"rawRollingAbsCorr":0,"gain":0.16,"heatPenalty":0,"effectivenessEma":0.5,"effMin":1,"effMax":0,"effActiveBeats":0,"hpPromoted":false},"tension-flicker":{"baseline":0.15,"current":0.1485,"rollingAbsCorr":0.0176,"rawRollingAbsCorr":0.0176,"gain":0.229,"heatPenalty":0.01,"effectivenessEma":0.475,"effMin":0.475,"effMax":0.475,"effActiveBeats":1,"hpPromoted":false},"tension-entropy":{"baseline":0.25,"current":0.2485,"rollingAbsCorr":0.03,"rawRollingAbsCorr":0.03,"gain":0.22,"heatPenalty":0,"effectivenessEma":0.475,"effMin":0.475,"effMax":0.475,"effActiveBeats":1,"hpPromoted":false},"tension-trust":{"baseline":0.15,"current":0.1485,"rollingAbsCorr":0.0172,"rawRollingAbsCorr":0.0172,"gain":0.229,"heatPenalty":0.01,"effectivenessEma":0.475,"effMin":0.475,"effMax":0.475,"effActiveBeats":1,"hpPromoted":false},"tension-phase":{"baseline":0.2,"current":0.1985,"rollingAbsCorr":0,"rawRollingAbsCorr":0,"gain":0.16,"heatPenalty":0,"effectivenessEma":0.5,"effMin":1,"effMax":0,"effActiveBeats":0,"hpPromoted":false},"flicker-entropy":{"baseline":0.18,"current":0.1785,"rollingAbsCorr":0.037,"rawRollingAbsCorr":0.037,"gain":0.22,"heatPenalty":0,"effectivenessEma":0.475,"effMin":0.475,"effMax":0.475,"effActiveBeats":1,"hpPromoted":false},"flicker-trust":{"baseline":0.12,"current":0.1185,"rollingAbsCorr":0.0195,"rawRollingAbsCorr":0.0195,"gain":0.229,"heatPenalty":0.01,"effectivenessEma":0.475,"effMin":0.475,"effMax":0.475,"effActiveBeats":1,"hpPromoted":false},"flicker-phase":{"baseline":0.08,"current":0.08,"rollingAbsCorr":0,"rawRollingAbsCorr":0,"gain":0.16,"heatPenalty":0,"effectivenessEma":0.5,"effMin":1,"effMax":0,"effActiveBeats":0,"hpPromoted":false},"entropy-trust":{"baseline":0.25,"current":0.25,"rollingAbsCorr":0.0345,"rawRollingAbsCorr":0.0345,"gain":0.16,"heatPenalty":0,"effectivenessEma":0.5,"effMin":1,"effMax":0,"effActiveBeats":0,"hpPromoted":false},"entropy-phase":{"baseline":0.1,"current":0.1,"rollingAbsCorr":0,"rawRollingAbsCorr":0,"gain":0.16,"heatPenalty":0,"effectivenessEma":0.5,"effMin":1,"effMax":0,"effActiveBeats":0,"hpPromoted":false}},"axisCouplingTotals":{"density":0.525,"tension":0.4689,"flicker":0.5358,"entropy":0.4197,"trust":0.5235,"phase":0},"axisEnergyShare":{"shares":{"density":0.2123,"tension":0.1896,"flicker":0.2167,"entropy":0.1697,"trust":0.2117,"phase":0},"axisGini":0.2055},"couplingGates":{"gateD":1,"gateT":1,"gateF":1,"floorDampen":1,"bypassD":0.22715,"bypassT":-0.251474,"bypassF":0.329553,"gateMinD":1,"gateMinT":1,"gateMinF":1,"gateEmaD":1,"gateEmaT":1,"gateEmaF":1,"gateBeatCount":6},"couplingHomeostasis":{"totalEnergyEma":8.243,"energyBudget":3.5,"peakEnergyEma":8.243,"totalEnergyFloor":8.0005,"floorDampen":0.2,"redistributionScore":0,"nudgeableRedistributionScore":0,"globalGainMultiplier":0.8698,"giniCoefficient":0.3458,"energyDeltaEma":0.8243,"pairTurbulenceEma":0,"beatCount":1,"invokeCount":6,"tickCount":66,"emptyMatrixBeats":5,"multiplierMin":0.8698,"multiplierMax":1,"multiplierStdDev":0.0235,"floorContactBeats":0,"ceilingContactBeats":61,"avgRecoveryDuration":0},"axisEnergyEquilibrator":{"beatCount":6,"pairAdjustments":0,"axisAdjustments":0,"smoothedShares":{"density":0.016984,"tension":0.015168,"flicker":0.017336,"entropy":0.013576,"trust":0.016936,"phase":0},"perAxisAdj":{},"perPairAdj":{},"lastBaselines":{},"regimeBeats":{},"regimePairAdj":{},"regimeAxisAdj":{},"regimeTightenBudget":{}},"transitionReadiness":{"gap":0.6264,"couplingStrength":0.7921,"coherentThreshold":0.1658,"velocity":0.065246,"velThreshold":0.008,"thresholdScale":0.65,"velocityBlocked":false,"exploringBlock":"dimension","rawRegimeCounts":{"coherent":1},"rawRegimeMaxStreak":{"coherent":1},"effectiveDim":1.6955},"notes":[{"pitch":56,"velocity":71,"channel":0},{"pitch":56,"velocity":76,"channel":0},{"pitch":56,"velocity":74,"channel":0},{"pitch":56,"velocity":84,"channel":0},{"pitch":17,"velocity":77,"channel":0},{"pitch":51,"velocity":85,"channel":0},{"pitch":75,"velocity":84,"channel":0},{"pitch":41,"velocity":84,"channel":0},{"pitch":53,"velocity":66,"channel":0},{"pitch":15,"velocity":90,"channel":0},{"pitch":20,"velocity":87,"channel":0},{"pitch":56,"velocity":81,"channel":0},{"pitch":56,"velocity":89,"channel":0},{"pitch":56,"velocity":94,"channel":0},{"pitch":44,"velocity":71,"channel":0},{"pitch":75,"velocity":81,"channel":0},{"pitch":44,"velocity":89,"channel":0},{"pitch":77,"velocity":76,"channel":0},{"pitch":46,"velocity":74,"channel":0},{"pitch":82,"velocity":78,"channel":0},{"pitch":44,"velocity":71,"channel":0},{"pitch":75,"velocity":76,"channel":0},{"pitch":56,"velocity":74,"channel":0},{"pitch":70,"velocity":77,"channel":0},{"pitch":56,"velocity":77,"channel":0},{"pitch":44,"velocity":84,"channel":0},{"pitch":44,"velocity":81,"channel":0},{"pitch":80,"velocity":79,"channel":0},{"pitch":80,"velocity":95,"channel":0},{"pitch":80,"velocity":68,"channel":0},{"pitch":41,"velocity":80,"channel":0},{"pitch":8,"velocity":89,"channel":0},{"pitch":56,"velocity":87,"channel":0},{"pitch":80,"velocity":87,"channel":0},{"pitch":51,"velocity":75,"channel":0},{"pitch":77,"velocity":77,"channel":0},{"pitch":51,"velocity":83,"channel":0},{"pitch":51,"velocity":83,"channel":0},{"pitch":51,"velocity":89,"channel":0},{"pitch":51,"velocity":87,"channel":0},{"pitch":51,"velocity":76,"channel":0},{"pitch":51,"velocity":85,"channel":0},{"pitch":94,"velocity":71,"channel":0},{"pitch":70,"velocity":75,"channel":0},{"pitch":58,"velocity":71,"channel":0},{"pitch":56,"velocity":94,"channel":0},{"pitch":15,"velocity":88,"channel":0},{"pitch":80,"velocity":69,"channel":0},{"pitch":56,"velocity":84,"channel":0},{"pitch":10,"velocity":86,"channel":0},{"pitch":58,"velocity":91,"channel":0},{"pitch":56,"velocity":85,"channel":0},{"pitch":80,"velocity":77,"channel":0}],"stageTiming":{"beat-setup":19.1313,"intent":0.0158,"entropy":0.0205,"phase":0.0262,"climax":0.0251,"envelope":0.0211,"silhouette":0.0243,"rest":0.0983,"complement":0.0026,"tension-cadence":0.0328,"negotiation":0.0312,"probability-adjust":0.0076,"emission":3.1403,"post-beat":0.0247},"iterBudget":{"raw":100,"capped":100,"wasCapped":false}}
{"layer":"L2","beatKey":"0:0:0:5","timeMs":877.1929824561403,"snap":{"key":"A#","mode":"locrian","quality":"minor","scale":["A#","B","C#","D#","E","F#","G#"],"chords":[],"tension":0.2858458816418885,"harmonicRhythm":0.33338377287365806,"harmonicMutationCount":8,"excursion":0,"sectionPhase":"opening","phrasePosition":0.8,"phrasePhase":"resolution","phraseDynamism":1,"registerBias":1.0534230275096785,"densityMultiplier":1.0351141009169893,"voiceIndependence":0.5,"compositeIntensity":0.34955546008782645,"playProb":0.3427583082730545,"stutterProb":0.47505733023765967,"flicker":1.1885495733762952,"textureMode":"flurry","textureFatigue":0,"densityBias":0,"crossModBias":1,"emissionRatio":0.8882997864076252,"extraDensityCorrection":1.022340042718475,"extraCoherenceDensityBias":1,"activeProfile":"restrained","journeyMove":"origin","journeyDistance":0,"journeyKey":"D#","journeyMode":"locrian","binauralFreqOffset":9,"binauralFlip":false,"tick":442500,"updatedAt":1772749134759},"negotiation":{"playProb":0.2931066961659332,"stutterProb":0.4459650946816834,"allowCadence":false,"conflict":0.1368007726060736,"phaseConfidence":0.275},"trust":{"stutterContagion":{"score":0.4544574192465502,"samples":66,"weight":1.3408430644349125},"cadenceAlignment":{"score":0.22365246744165926,"samples":66,"weight":1.1677393505812446},"phaseLock":{"score":0.22467279663826142,"samples":66,"weight":1.168504597478696},"convergence":{"score":0.22365246744165926,"samples":66,"weight":1.1677393505812446},"feedbackOscillator":{"score":0.22502090355857826,"samples":66,"weight":1.1687656776689337},"coherenceMonitor":{"score":0.6869340053199938,"samples":66,"weight":1.5152005039899954},"entropyRegulator":{"score":0.6722726633954546,"samples":66,"weight":1.504204497546591},"restSynchronizer":{"score":0.2719825510424575,"samples":66,"weight":1.203986913281843}},"regime":"evolving","coupling":{"density-tension":-0.786,"density-flicker":0.98,"density-entropy":-0.768,"density-trust":-0.966,"density-phase":0,"tension-flicker":-0.88,"tension-entropy":0.6,"tension-trust":0.86,"tension-phase":0,"flicker-entropy":-0.739,"flicker-trust":-0.973,"flicker-phase":0,"entropy-trust":0.691,"entropy-phase":0},"couplingTargets":{"density-tension":{"baseline":0.15,"current":0.1491,"rollingAbsCorr":0.0157,"rawRollingAbsCorr":0.0157,"gain":0.3,"heatPenalty":0,"effectivenessEma":0.475,"effMin":0.475,"effMax":0.475,"effActiveBeats":1,"hpPromoted":false},"density-flicker":{"baseline":0.12,"current":0.1191,"rollingAbsCorr":0.0196,"rawRollingAbsCorr":0.0196,"gain":0.2416,"heatPenalty":0.036,"effectivenessEma":0.475,"effMin":0.475,"effMax":0.475,"effActiveBeats":1,"hpPromoted":false},"density-entropy":{"baseline":0.12,"current":0.1191,"rollingAbsCorr":0.0384,"rawRollingAbsCorr":0.0384,"gain":0.22,"heatPenalty":0,"effectivenessEma":0.475,"effMin":0.475,"effMax":0.475,"effActiveBeats":1,"hpPromoted":false},"density-trust":{"baseline":0.2,"current":0.1991,"rollingAbsCorr":0.0193,"rawRollingAbsCorr":0.0193,"gain":0.229,"heatPenalty":0.01,"effectivenessEma":0.475,"effMin":0.475,"effMax":0.475,"effActiveBeats":1,"hpPromoted":false},"density-phase":{"baseline":0.06,"current":0.06,"rollingAbsCorr":0,"rawRollingAbsCorr":0,"gain":0.16,"heatPenalty":0,"effectivenessEma":0.5,"effMin":1,"effMax":0,"effActiveBeats":0,"hpPromoted":false},"tension-flicker":{"baseline":0.15,"current":0.1485,"rollingAbsCorr":0.0176,"rawRollingAbsCorr":0.0176,"gain":0.229,"heatPenalty":0.01,"effectivenessEma":0.475,"effMin":0.475,"effMax":0.475,"effActiveBeats":1,"hpPromoted":false},"tension-entropy":{"baseline":0.25,"current":0.2485,"rollingAbsCorr":0.03,"rawRollingAbsCorr":0.03,"gain":0.22,"heatPenalty":0,"effectivenessEma":0.475,"effMin":0.475,"effMax":0.475,"effActiveBeats":1,"hpPromoted":false},"tension-trust":{"baseline":0.15,"current":0.1485,"rollingAbsCorr":0.0172,"rawRollingAbsCorr":0.0172,"gain":0.229,"heatPenalty":0.01,"effectivenessEma":0.475,"effMin":0.475,"effMax":0.475,"effActiveBeats":1,"hpPromoted":false},"tension-phase":{"baseline":0.2,"current":0.1985,"rollingAbsCorr":0,"rawRollingAbsCorr":0,"gain":0.16,"heatPenalty":0,"effectivenessEma":0.5,"effMin":1,"effMax":0,"effActiveBeats":0,"hpPromoted":false},"flicker-entropy":{"baseline":0.18,"current":0.1785,"rollingAbsCorr":0.037,"rawRollingAbsCorr":0.037,"gain":0.22,"heatPenalty":0,"effectivenessEma":0.475,"effMin":0.475,"effMax":0.475,"effActiveBeats":1,"hpPromoted":false},"flicker-trust":{"baseline":0.12,"current":0.1185,"rollingAbsCorr":0.0195,"rawRollingAbsCorr":0.0195,"gain":0.229,"heatPenalty":0.01,"effectivenessEma":0.475,"effMin":0.475,"effMax":0.475,"effActiveBeats":1,"hpPromoted":false},"flicker-phase":{"baseline":0.08,"current":0.08,"rollingAbsCorr":0,"rawRollingAbsCorr":0,"gain":0.16,"heatPenalty":0,"effectivenessEma":0.5,"effMin":1,"effMax":0,"effActiveBeats":0,"hpPromoted":false},"entropy-trust":{"baseline":0.25,"current":0.25,"rollingAbsCorr":0.0345,"rawRollingAbsCorr":0.0345,"gain":0.16,"heatPenalty":0,"effectivenessEma":0.5,"effMin":1,"effMax":0,"effActiveBeats":0,"hpPromoted":false},"entropy-phase":{"baseline":0.1,"current":0.1,"rollingAbsCorr":0,"rawRollingAbsCorr":0,"gain":0.16,"heatPenalty":0,"effectivenessEma":0.5,"effMin":1,"effMax":0,"effActiveBeats":0,"hpPromoted":false}},"axisCouplingTotals":{"density":0.525,"tension":0.4689,"flicker":0.5358,"entropy":0.4197,"trust":0.5235,"phase":0},"axisEnergyShare":{"shares":{"density":0.2123,"tension":0.1896,"flicker":0.2167,"entropy":0.1697,"trust":0.2117,"phase":0},"axisGini":0.2055},"couplingGates":{"gateD":1,"gateT":1,"gateF":1,"floorDampen":1,"bypassD":0.22715,"bypassT":-0.251474,"bypassF":0.329553,"gateMinD":1,"gateMinT":1,"gateMinF":1,"gateEmaD":1,"gateEmaT":1,"gateEmaF":1,"gateBeatCount":6},"couplingHomeostasis":{"totalEnergyEma":8.243,"energyBudget":3.5,"peakEnergyEma":8.243,"totalEnergyFloor":8.0005,"floorDampen":0.2,"redistributionScore":0,"nudgeableRedistributionScore":0,"globalGainMultiplier":0.8476,"giniCoefficient":0.3458,"energyDeltaEma":0.8243,"pairTurbulenceEma":0,"beatCount":1,"invokeCount":6,"tickCount":67,"emptyMatrixBeats":5,"multiplierMin":0.8476,"multiplierMax":1,"multiplierStdDev":0.0293,"floorContactBeats":0,"ceilingContactBeats":61,"avgRecoveryDuration":0},"axisEnergyEquilibrator":{"beatCount":6,"pairAdjustments":0,"axisAdjustments":0,"smoothedShares":{"density":0.016984,"tension":0.015168,"flicker":0.017336,"entropy":0.013576,"trust":0.016936,"phase":0},"perAxisAdj":{},"perPairAdj":{},"lastBaselines":{},"regimeBeats":{},"regimePairAdj":{},"regimeAxisAdj":{},"regimeTightenBudget":{}},"transitionReadiness":{"gap":0.6264,"couplingStrength":0.7921,"coherentThreshold":0.1658,"velocity":0.065246,"velThreshold":0.008,"thresholdScale":0.65,"velocityBlocked":false,"exploringBlock":"dimension","rawRegimeCounts":{"coherent":1},"rawRegimeMaxStreak":{"coherent":1},"effectiveDim":1.6955},"notes":[{"pitch":63,"velocity":85,"channel":0},{"pitch":51,"velocity":78,"channel":0},{"pitch":53,"velocity":67,"channel":0},{"pitch":68,"velocity":82,"channel":0},{"pitch":82,"velocity":78,"channel":0},{"pitch":53,"velocity":68,"channel":0},{"pitch":51,"velocity":81,"channel":0},{"pitch":44,"velocity":91,"channel":0},{"pitch":63,"velocity":79,"channel":0},{"pitch":58,"velocity":80,"channel":0},{"pitch":58,"velocity":75,"channel":0},{"pitch":58,"velocity":76,"channel":0},{"pitch":56,"velocity":89,"channel":0},{"pitch":56,"velocity":74,"channel":0},{"pitch":51,"velocity":85,"channel":0},{"pitch":56,"velocity":82,"channel":0},{"pitch":56,"velocity":75,"channel":0},{"pitch":56,"velocity":78,"channel":0},{"pitch":56,"velocity":80,"channel":0}],"stageTiming":{"beat-setup":27.5368,"intent":0.0148,"entropy":0.0184,"phase":0.0274,"climax":0.0231,"envelope":0.0186,"silhouette":0.0196,"rest":0.0736,"complement":0.0022,"tension-cadence":0.0259,"negotiation":0.029,"probability-adjust":0.0053,"emission":3.644,"post-beat":0.0405},"iterBudget":{"raw":270,"capped":270,"wasCapped":false}}
{"layer":"L2","beatKey":"0:0:0:6","timeMs":1052.6315789473683,"snap":{"key":"A#","mode":"locrian","quality":"minor","scale":["A#","B","C#","D#","E","F#","G#"],"chords":[],"tension":0.2858458816418885,"harmonicRhythm":0.33338377287365806,"harmonicMutationCount":8,"excursion":0,"sectionPhase":"opening","phrasePosition":0.8,"phrasePhase":"resolution","phraseDynamism":1,"registerBias":1.0534230275096785,"densityMultiplier":1.0351141009169893,"voiceIndependence":0.5,"compositeIntensity":0.34955546008782645,"playProb":0.3427583082730545,"stutterProb":0.47505733023765967,"flicker":1.1885495733762952,"textureMode":"flurry","textureFatigue":0,"densityBias":0,"crossModBias":1,"emissionRatio":0.8882997864076252,"extraDensityCorrection":1.022340042718475,"extraCoherenceDensityBias":1,"activeProfile":"restrained","journeyMove":"origin","journeyDistance":0,"journeyKey":"D#","journeyMode":"locrian","binauralFreqOffset":9,"binauralFlip":false,"tick":442500,"updatedAt":1772749134759},"negotiation":{"playProb":0.29448500792668914,"stutterProb":0.450474740931176,"allowCadence":false,"conflict":0.17310371385366796,"phaseConfidence":0.275},"trust":{"stutterContagion":{"score":0.5011124245381066,"samples":67,"weight":1.37583431840358},"cadenceAlignment":{"score":0.22742398594243562,"samples":67,"weight":1.1705679894568268},"phaseLock":{"score":0.22742398594243562,"samples":67,"weight":1.1705679894568268},"convergence":{"score":0.22742398594243562,"samples":67,"weight":1.1705679894568268},"feedbackOscillator":{"score":0.22751026051879078,"samples":67,"weight":1.170632695389093},"coherenceMonitor":{"score":0.6850973725663085,"samples":67,"weight":1.5138230294247315},"entropyRegulator":{"score":0.6865285327029917,"samples":67,"weight":1.5148963995272438},"restSynchronizer":{"score":0.2525315116422735,"samples":67,"weight":1.189398633731705}},"regime":"evolving","coupling":{"density-tension":-0.786,"density-flicker":0.98,"density-entropy":-0.768,"density-trust":-0.966,"density-phase":0,"tension-flicker":-0.88,"tension-entropy":0.6,"tension-trust":0.86,"tension-phase":0,"flicker-entropy":-0.739,"flicker-trust":-0.973,"flicker-phase":0,"entropy-trust":0.691,"entropy-phase":0},"couplingTargets":{"density-tension":{"baseline":0.15,"current":0.1491,"rollingAbsCorr":0.0157,"rawRollingAbsCorr":0.0157,"gain":0.3,"heatPenalty":0,"effectivenessEma":0.475,"effMin":0.475,"effMax":0.475,"effActiveBeats":1,"hpPromoted":false},"density-flicker":{"baseline":0.12,"current":0.1191,"rollingAbsCorr":0.0196,"rawRollingAbsCorr":0.0196,"gain":0.2416,"heatPenalty":0.036,"effectivenessEma":0.475,"effMin":0.475,"effMax":0.475,"effActiveBeats":1,"hpPromoted":false},"density-entropy":{"baseline":0.12,"current":0.1191,"rollingAbsCorr":0.0384,"rawRollingAbsCorr":0.0384,"gain":0.22,"heatPenalty":0,"effectivenessEma":0.475,"effMin":0.475,"effMax":0.475,"effActiveBeats":1,"hpPromoted":false},"density-trust":{"baseline":0.2,"current":0.1991,"rollingAbsCorr":0.0193,"rawRollingAbsCorr":0.0193,"gain":0.229,"heatPenalty":0.01,"effectivenessEma":0.475,"effMin":0.475,"effMax":0.475,"effActiveBeats":1,"hpPromoted":false},"density-phase":{"baseline":0.06,"current":0.06,"rollingAbsCorr":0,"rawRollingAbsCorr":0,"gain":0.16,"heatPenalty":0,"effectivenessEma":0.5,"effMin":1,"effMax":0,"effActiveBeats":0,"hpPromoted":false},"tension-flicker":{"baseline":0.15,"current":0.1485,"rollingAbsCorr":0.0176,"rawRollingAbsCorr":0.0176,"gain":0.229,"heatPenalty":0.01,"effectivenessEma":0.475,"effMin":0.475,"effMax":0.475,"effActiveBeats":1,"hpPromoted":false},"tension-entropy":{"baseline":0.25,"current":0.2485,"rollingAbsCorr":0.03,"rawRollingAbsCorr":0.03,"gain":0.22,"heatPenalty":0,"effectivenessEma":0.475,"effMin":0.475,"effMax":0.475,"effActiveBeats":1,"hpPromoted":false},"tension-trust":{"baseline":0.15,"current":0.1485,"rollingAbsCorr":0.0172,"rawRollingAbsCorr":0.0172,"gain":0.229,"heatPenalty":0.01,"effectivenessEma":0.475,"effMin":0.475,"effMax":0.475,"effActiveBeats":1,"hpPromoted":false},"tension-phase":{"baseline":0.2,"current":0.1985,"rollingAbsCorr":0,"rawRollingAbsCorr":0,"gain":0.16,"heatPenalty":0,"effectivenessEma":0.5,"effMin":1,"effMax":0,"effActiveBeats":0,"hpPromoted":false},"flicker-entropy":{"baseline":0.18,"current":0.1785,"rollingAbsCorr":0.037,"rawRollingAbsCorr":0.037,"gain":0.22,"heatPenalty":0,"effectivenessEma":0.475,"effMin":0.475,"effMax":0.475,"effActiveBeats":1,"hpPromoted":false},"flicker-trust":{"baseline":0.12,"current":0.1185,"rollingAbsCorr":0.0195,"rawRollingAbsCorr":0.0195,"gain":0.229,"heatPenalty":0.01,"effectivenessEma":0.475,"effMin":0.475,"effMax":0.475,"effActiveBeats":1,"hpPromoted":false},"flicker-phase":{"baseline":0.08,"current":0.08,"rollingAbsCorr":0,"rawRollingAbsCorr":0,"gain":0.16,"heatPenalty":0,"effectivenessEma":0.5,"effMin":1,"effMax":0,"effActiveBeats":0,"hpPromoted":false},"entropy-trust":{"baseline":0.25,"current":0.25,"rollingAbsCorr":0.0345,"rawRollingAbsCorr":0.0345,"gain":0.16,"heatPenalty":0,"effectivenessEma":0.5,"effMin":1,"effMax":0,"effActiveBeats":0,"hpPromoted":false},"entropy-phase":{"baseline":0.1,"current":0.1,"rollingAbsCorr":0,"rawRollingAbsCorr":0,"gain":0.16,"heatPenalty":0,"effectivenessEma":0.5,"effMin":1,"effMax":0,"effActiveBeats":0,"hpPromoted":false}},"axisCouplingTotals":{"density":0.525,"tension":0.4689,"flicker":0.5358,"entropy":0.4197,"trust":0.5235,"phase":0},"axisEnergyShare":{"shares":{"density":0.2123,"tension":0.1896,"flicker":0.2167,"entropy":0.1697,"trust":0.2117,"phase":0},"axisGini":0.2055},"couplingGates":{"gateD":1,"gateT":1,"gateF":1,"floorDampen":1,"bypassD":0.22715,"bypassT":-0.251474,"bypassF":0.329553,"gateMinD":1,"gateMinT":1,"gateMinF":1,"gateEmaD":1,"gateEmaT":1,"gateEmaF":1,"gateBeatCount":6},"couplingHomeostasis":{"totalEnergyEma":8.243,"energyBudget":3.5,"peakEnergyEma":8.243,"totalEnergyFloor":8.0005,"floorDampen":0.2,"redistributionScore":0,"nudgeableRedistributionScore":0,"globalGainMultiplier":0.8264,"giniCoefficient":0.3458,"energyDeltaEma":0.8243,"pairTurbulenceEma":0,"beatCount":1,"invokeCount":6,"tickCount":68,"emptyMatrixBeats":5,"multiplierMin":0.8264,"multiplierMax":1,"multiplierStdDev":0.0353,"floorContactBeats":0,"ceilingContactBeats":61,"avgRecoveryDuration":0},"axisEnergyEquilibrator":{"beatCount":6,"pairAdjustments":0,"axisAdjustments":0,"smoothedShares":{"density":0.016984,"tension":0.015168,"flicker":0.017336,"entropy":0.013576,"trust":0.016936,"phase":0},"perAxisAdj":{},"perPairAdj":{},"lastBaselines":{},"regimeBeats":{},"regimePairAdj":{},"regimeAxisAdj":{},"regimeTightenBudget":{}},"transitionReadiness":{"gap":0.6264,"couplingStrength":0.7921,"coherentThreshold":0.1658,"velocity":0.065246,"velThreshold":0.008,"thresholdScale":0.65,"velocityBlocked":false,"exploringBlock":"dimension","rawRegimeCounts":{"coherent":1},"rawRegimeMaxStreak":{"coherent":1},"effectiveDim":1.6955},"notes":[{"pitch":94,"velocity":86,"channel":0},{"pitch":22,"velocity":83,"channel":0},{"pitch":51,"velocity":89,"channel":0},{"pitch":22,"velocity":78,"channel":0},{"pitch":20,"velocity":79,"channel":0},{"pitch":56,"velocity":76,"channel":0},{"pitch":51,"velocity":77,"channel":0},{"pitch":56,"velocity":81,"channel":0},{"pitch":20,"velocity":78,"channel":0},{"pitch":53,"velocity":68,"channel":0},{"pitch":22,"velocity":84,"channel":0},{"pitch":22,"velocity":79,"channel":0},{"pitch":22,"velocity":87,"channel":0},{"pitch":82,"velocity":81,"channel":0},{"pitch":58,"velocity":84,"channel":0},{"pitch":58,"velocity":84,"channel":0},{"pitch":22,"velocity":88,"channel":0},{"pitch":22,"velocity":72,"channel":0},{"pitch":82,"velocity":86,"channel":0},{"pitch":22,"velocity":74,"channel":0},{"pitch":82,"velocity":74,"channel":0},{"pitch":22,"velocity":86,"channel":0},{"pitch":10,"velocity":71,"channel":0},{"pitch":82,"velocity":74,"channel":0},{"pitch":22,"velocity":75,"channel":0},{"pitch":82,"velocity":96,"channel":0},{"pitch":82,"velocity":80,"channel":0},{"pitch":22,"velocity":76,"channel":0},{"pitch":82,"velocity":81,"channel":0},{"pitch":22,"velocity":75,"channel":0},{"pitch":82,"velocity":83,"channel":0},{"pitch":22,"velocity":92,"channel":0},{"pitch":22,"velocity":87,"channel":0},{"pitch":58,"velocity":84,"channel":0},{"pitch":87,"velocity":66,"channel":0},{"pitch":87,"velocity":95,"channel":0},{"pitch":87,"velocity":81,"channel":0},{"pitch":77,"velocity":71,"channel":0},{"pitch":87,"velocity":92,"channel":0},{"pitch":94,"velocity":71,"channel":0},{"pitch":22,"velocity":82,"channel":0},{"pitch":22,"velocity":80,"channel":0},{"pitch":82,"velocity":84,"channel":0},{"pitch":80,"velocity":70,"channel":0},{"pitch":82,"velocity":79,"channel":0},{"pitch":22,"velocity":92,"channel":0},{"pitch":22,"velocity":86,"channel":0},{"pitch":22,"velocity":76,"channel":0},{"pitch":94,"velocity":84,"channel":0},{"pitch":15,"velocity":81,"channel":0},{"pitch":20,"velocity":86,"channel":0},{"pitch":8,"velocity":81,"channel":0},{"pitch":44,"velocity":75,"channel":0},{"pitch":82,"velocity":81,"channel":0},{"pitch":82,"velocity":69,"channel":0},{"pitch":82,"velocity":79,"channel":0},{"pitch":94,"velocity":74,"channel":0},{"pitch":58,"velocity":68,"channel":0},{"pitch":92,"velocity":79,"channel":0},{"pitch":32,"velocity":84,"channel":0},{"pitch":32,"velocity":79,"channel":0},{"pitch":20,"velocity":75,"channel":0},{"pitch":32,"velocity":98,"channel":0},{"pitch":32,"velocity":77,"channel":0},{"pitch":92,"velocity":79,"channel":0},{"pitch":82,"velocity":89,"channel":0},{"pitch":34,"velocity":74,"channel":0},{"pitch":34,"velocity":74,"channel":0},{"pitch":80,"velocity":71,"channel":0},{"pitch":32,"velocity":81,"channel":0},{"pitch":56,"velocity":80,"channel":0},{"pitch":56,"velocity":79,"channel":0},{"pitch":80,"velocity":70,"channel":0},{"pitch":75,"velocity":77,"channel":0},{"pitch":58,"velocity":81,"channel":0},{"pitch":75,"velocity":74,"channel":0},{"pitch":17,"velocity":87,"channel":0},{"pitch":75,"velocity":75,"channel":0},{"pitch":75,"velocity":92,"channel":0},{"pitch":22,"velocity":69,"channel":0},{"pitch":22,"velocity":73,"channel":0},{"pitch":75,"velocity":70,"channel":0},{"pitch":32,"velocity":88,"channel":0},{"pitch":32,"velocity":75,"channel":0},{"pitch":82,"velocity":82,"channel":0},{"pitch":22,"velocity":92,"channel":0},{"pitch":87,"velocity":80,"channel":0},{"pitch":58,"velocity":84,"channel":0},{"pitch":27,"velocity":70,"channel":0},{"pitch":75,"velocity":79,"channel":0},{"pitch":27,"velocity":79,"channel":0},{"pitch":51,"velocity":85,"channel":0},{"pitch":75,"velocity":88,"channel":0},{"pitch":27,"velocity":84,"channel":0},{"pitch":75,"velocity":91,"channel":0},{"pitch":82,"velocity":77,"channel":0},{"pitch":75,"velocity":69,"channel":0},{"pitch":20,"velocity":80,"channel":0},{"pitch":27,"velocity":82,"channel":0},{"pitch":27,"velocity":81,"channel":0},{"pitch":27,"velocity":90,"channel":0},{"pitch":27,"velocity":67,"channel":0},{"pitch":27,"velocity":85,"channel":0},{"pitch":34,"velocity":75,"channel":0},{"pitch":94,"velocity":67,"channel":0},{"pitch":34,"velocity":69,"channel":0},{"pitch":82,"velocity":75,"channel":0},{"pitch":82,"velocity":62,"channel":0},{"pitch":82,"velocity":86,"channel":0},{"pitch":22,"velocity":80,"channel":0},{"pitch":75,"velocity":81,"channel":0},{"pitch":27,"velocity":86,"channel":0},{"pitch":75,"velocity":77,"channel":0},{"pitch":27,"velocity":78,"channel":0},{"pitch":27,"velocity":86,"channel":0},{"pitch":27,"velocity":86,"channel":0},{"pitch":27,"velocity":70,"channel":0},{"pitch":75,"velocity":90,"channel":0},{"pitch":22,"velocity":76,"channel":0},{"pitch":87,"velocity":75,"channel":0},{"pitch":75,"velocity":76,"channel":0},{"pitch":27,"velocity":86,"channel":0},{"pitch":51,"velocity":88,"channel":0},{"pitch":22,"velocity":84,"channel":0},{"pitch":27,"velocity":90,"channel":0},{"pitch":27,"velocity":84,"channel":0},{"pitch":87,"velocity":86,"channel":0},{"pitch":27,"velocity":79,"channel":0},{"pitch":22,"velocity":90,"channel":0},{"pitch":75,"velocity":75,"channel":0},{"pitch":22,"velocity":73,"channel":0},{"pitch":27,"velocity":78,"channel":0},{"pitch":22,"velocity":78,"channel":0},{"pitch":27,"velocity":79,"channel":0},{"pitch":58,"velocity":82,"channel":0},{"pitch":51,"velocity":90,"channel":0},{"pitch":75,"velocity":78,"channel":0},{"pitch":75,"velocity":76,"channel":0},{"pitch":22,"velocity":91,"channel":0},{"pitch":75,"velocity":81,"channel":0},{"pitch":27,"velocity":75,"channel":0},{"pitch":27,"velocity":85,"channel":0},{"pitch":27,"velocity":95,"channel":0},{"pitch":92,"velocity":82,"channel":0},{"pitch":39,"velocity":77,"channel":0},{"pitch":39,"velocity":73,"channel":0},{"pitch":75,"velocity":88,"channel":0},{"pitch":32,"velocity":104,"channel":0},{"pitch":82,"velocity":94,"channel":0}],"stageTiming":{"beat-setup":17.0295,"intent":0.0128,"entropy":0.0191,"phase":0.0221,"climax":0.0359,"envelope":0.0179,"silhouette":0.0173,"rest":0.0271,"complement":0.0016,"tension-cadence":0.0242,"negotiation":0.034,"probability-adjust":0.007,"emission":5.746,"post-beat":0.0265},"iterBudget":{"raw":224,"capped":224,"wasCapped":false}}
{"layer":"L2","beatKey":"0:0:0:7","timeMs":1228.0701754385964,"snap":{"key":"A#","mode":"locrian","quality":"minor","scale":["A#","B","C#","D#","E","F#","G#"],"chords":[],"tension":0.2858458816418885,"harmonicRhythm":0.33338377287365806,"harmonicMutationCount":8,"excursion":0,"sectionPhase":"opening","phrasePosition":0.8,"phrasePhase":"resolution","phraseDynamism":1,"registerBias":1.0534230275096785,"densityMultiplier":1.0351141009169893,"voiceIndependence":0.5,"compositeIntensity":0.34955546008782645,"playProb":0.3427583082730545,"stutterProb":0.47505733023765967,"flicker":1.1885495733762952,"textureMode":"flurry","textureFatigue":0,"densityBias":0,"crossModBias":1,"emissionRatio":0.8882997864076252,"extraDensityCorrection":1.022340042718475,"extraCoherenceDensityBias":1,"activeProfile":"restrained","journeyMove":"origin","journeyDistance":0,"journeyKey":"D#","journeyMode":"locrian","binauralFreqOffset":9,"binauralFlip":false,"tick":442500,"updatedAt":1772749134759},"negotiation":{"playProb":0.2958741209304021,"stutterProb":0.45482913320354984,"allowCadence":false,"conflict":0.20526632894675312,"phaseConfidence":0.275},"trust":{"stutterContagion":{"score":0.542697544730638,"samples":68,"weight":1.4070231585479784},"cadenceAlignment":{"score":0.23112320741993173,"samples":68,"weight":1.1733424055649488},"phaseLock":{"score":0.23112320741993173,"samples":68,"weight":1.1733424055649488},"convergence":{"score":0.23112320741993173,"samples":68,"weight":1.1733424055649488},"feedbackOscillator":{"score":0.23112320741993173,"samples":68,"weight":1.1733424055649488},"coherenceMonitor":{"score":0.681487696060251,"samples":68,"weight":1.5111157720451882},"entropyRegulator":{"score":0.7007001582422119,"samples":68,"weight":1.525525118681659},"restSynchronizer":{"score":0.2350430821175681,"samples":68,"weight":1.1762823115881762}},"regime":"evolving","coupling":{"density-tension":-0.786,"density-flicker":0.98,"density-entropy":-0.768,"density-trust":-0.966,"density-phase":0,"tension-flicker":-0.88,"tension-entropy":0.6,"tension-trust":0.86,"tension-phase":0,"flicker-entropy":-0.739,"flicker-trust":-0.973,"flicker-phase":0,"entropy-trust":0.691,"entropy-phase":0},"couplingTargets":{"density-tension":{"baseline":0.15,"current":0.1491,"rollingAbsCorr":0.0157,"rawRollingAbsCorr":0.0157,"gain":0.3,"heatPenalty":0,"effectivenessEma":0.475,"effMin":0.475,"effMax":0.475,"effActiveBeats":1,"hpPromoted":false},"density-flicker":{"baseline":0.12,"current":0.1191,"rollingAbsCorr":0.0196,"rawRollingAbsCorr":0.0196,"gain":0.2416,"heatPenalty":0.036,"effectivenessEma":0.475,"effMin":0.475,"effMax":0.475,"effActiveBeats":1,"hpPromoted":false},"density-entropy":{"baseline":0.12,"current":0.1191,"rollingAbsCorr":0.0384,"rawRollingAbsCorr":0.0384,"gain":0.22,"heatPenalty":0,"effectivenessEma":0.475,"effMin":0.475,"effMax":0.475,"effActiveBeats":1,"hpPromoted":false},"density-trust":{"baseline":0.2,"current":0.1991,"rollingAbsCorr":0.0193,"rawRollingAbsCorr":0.0193,"gain":0.229,"heatPenalty":0.01,"effectivenessEma":0.475,"effMin":0.475,"effMax":0.475,"effActiveBeats":1,"hpPromoted":false},"density-phase":{"baseline":0.06,"current":0.06,"rollingAbsCorr":0,"rawRollingAbsCorr":0,"gain":0.16,"heatPenalty":0,"effectivenessEma":0.5,"effMin":1,"effMax":0,"effActiveBeats":0,"hpPromoted":false},"tension-flicker":{"baseline":0.15,"current":0.1485,"rollingAbsCorr":0.0176,"rawRollingAbsCorr":0.0176,"gain":0.229,"heatPenalty":0.01,"effectivenessEma":0.475,"effMin":0.475,"effMax":0.475,"effActiveBeats":1,"hpPromoted":false},"tension-entropy":{"baseline":0.25,"current":0.2485,"rollingAbsCorr":0.03,"rawRollingAbsCorr":0.03,"gain":0.22,"heatPenalty":0,"effectivenessEma":0.475,"effMin":0.475,"effMax":0.475,"effActiveBeats":1,"hpPromoted":false},"tension-trust":{"baseline":0.15,"current":0.1485,"rollingAbsCorr":0.0172,"rawRollingAbsCorr":0.0172,"gain":0.229,"heatPenalty":0.01,"effectivenessEma":0.475,"effMin":0.475,"effMax":0.475,"effActiveBeats":1,"hpPromoted":false},"tension-phase":{"baseline":0.2,"current":0.1985,"rollingAbsCorr":0,"rawRollingAbsCorr":0,"gain":0.16,"heatPenalty":0,"effectivenessEma":0.5,"effMin":1,"effMax":0,"effActiveBeats":0,"hpPromoted":false},"flicker-entropy":{"baseline":0.18,"current":0.1785,"rollingAbsCorr":0.037,"rawRollingAbsCorr":0.037,"gain":0.22,"heatPenalty":0,"effectivenessEma":0.475,"effMin":0.475,"effMax":0.475,"effActiveBeats":1,"hpPromoted":false},"flicker-trust":{"baseline":0.12,"current":0.1185,"rollingAbsCorr":0.0195,"rawRollingAbsCorr":0.0195,"gain":0.229,"heatPenalty":0.01,"effectivenessEma":0.475,"effMin":0.475,"effMax":0.475,"effActiveBeats":1,"hpPromoted":false},"flicker-phase":{"baseline":0.08,"current":0.08,"rollingAbsCorr":0,"rawRollingAbsCorr":0,"gain":0.16,"heatPenalty":0,"effectivenessEma":0.5,"effMin":1,"effMax":0,"effActiveBeats":0,"hpPromoted":false},"entropy-trust":{"baseline":0.25,"current":0.25,"rollingAbsCorr":0.0345,"rawRollingAbsCorr":0.0345,"gain":0.16,"heatPenalty":0,"effectivenessEma":0.5,"effMin":1,"effMax":0,"effActiveBeats":0,"hpPromoted":false},"entropy-phase":{"baseline":0.1,"current":0.1,"rollingAbsCorr":0,"rawRollingAbsCorr":0,"gain":0.16,"heatPenalty":0,"effectivenessEma":0.5,"effMin":1,"effMax":0,"effActiveBeats":0,"hpPromoted":false}},"axisCouplingTotals":{"density":0.525,"tension":0.4689,"flicker":0.5358,"entropy":0.4197,"trust":0.5235,"phase":0},"axisEnergyShare":{"shares":{"density":0.2123,"tension":0.1896,"flicker":0.2167,"entropy":0.1697,"trust":0.2117,"phase":0},"axisGini":0.2055},"couplingGates":{"gateD":1,"gateT":1,"gateF":1,"floorDampen":1,"bypassD":0.22715,"bypassT":-0.251474,"bypassF":0.329553,"gateMinD":1,"gateMinT":1,"gateMinF":1,"gateEmaD":1,"gateEmaT":1,"gateEmaF":1,"gateBeatCount":6},"couplingHomeostasis":{"totalEnergyEma":8.243,"energyBudget":3.5,"peakEnergyEma":8.243,"totalEnergyFloor":8.0005,"floorDampen":0.2,"redistributionScore":0,"nudgeableRedistributionScore":0,"globalGainMultiplier":0.8063,"giniCoefficient":0.3458,"energyDeltaEma":0.8243,"pairTurbulenceEma":0,"beatCount":1,"invokeCount":6,"tickCount":69,"emptyMatrixBeats":5,"multiplierMin":0.8063,"multiplierMax":1,"multiplierStdDev":0.0413,"floorContactBeats":0,"ceilingContactBeats":61,"avgRecoveryDuration":0},"axisEnergyEquilibrator":{"beatCount":6,"pairAdjustments":0,"axisAdjustments":0,"smoothedShares":{"density":0.016984,"tension":0.015168,"flicker":0.017336,"entropy":0.013576,"trust":0.016936,"phase":0},"perAxisAdj":{},"perPairAdj":{},"lastBaselines":{},"regimeBeats":{},"regimePairAdj":{},"regimeAxisAdj":{},"regimeTightenBudget":{}},"transitionReadiness":{"gap":0.6264,"couplingStrength":0.7921,"coherentThreshold":0.1658,"velocity":0.065246,"velThreshold":0.008,"thresholdScale":0.65,"velocityBlocked":false,"exploringBlock":"dimension","rawRegimeCounts":{"coherent":1},"rawRegimeMaxStreak":{"coherent":1},"effectiveDim":1.6955},"notes":[{"pitch":51,"velocity":66,"channel":0},{"pitch":44,"velocity":80,"channel":0},{"pitch":39,"velocity":74,"channel":0},{"pitch":44,"velocity":78,"channel":0},{"pitch":75,"velocity":86,"channel":0},{"pitch":44,"velocity":91,"channel":0},{"pitch":51,"velocity":93,"channel":0},{"pitch":51,"velocity":83,"channel":0},{"pitch":46,"velocity":85,"channel":0},{"pitch":51,"velocity":89,"channel":0},{"pitch":44,"velocity":84,"channel":0},{"pitch":51,"velocity":74,"channel":0},{"pitch":46,"velocity":74,"channel":0},{"pitch":51,"velocity":93,"channel":0},{"pitch":51,"velocity":82,"channel":0},{"pitch":87,"velocity":78,"channel":0},{"pitch":44,"velocity":89,"channel":0},{"pitch":87,"velocity":72,"channel":0},{"pitch":27,"velocity":78,"channel":0},{"pitch":87,"velocity":83,"channel":0},{"pitch":39,"velocity":68,"channel":0},{"pitch":51,"velocity":74,"channel":0},{"pitch":51,"velocity":79,"channel":0},{"pitch":51,"velocity":89,"channel":0},{"pitch":75,"velocity":83,"channel":0},{"pitch":51,"velocity":87,"channel":0},{"pitch":75,"velocity":72,"channel":0},{"pitch":51,"velocity":86,"channel":0},{"pitch":51,"velocity":75,"channel":0},{"pitch":51,"velocity":66,"channel":0},{"pitch":80,"velocity":80,"channel":0},{"pitch":51,"velocity":91,"channel":0},{"pitch":51,"velocity":69,"channel":0},{"pitch":51,"velocity":69,"channel":0},{"pitch":51,"velocity":70,"channel":0},{"pitch":80,"velocity":78,"channel":0},{"pitch":51,"velocity":76,"channel":0},{"pitch":51,"velocity":72,"channel":0},{"pitch":51,"velocity":86,"channel":0},{"pitch":51,"velocity":91,"channel":0},{"pitch":44,"velocity":87,"channel":0},{"pitch":51,"velocity":72,"channel":0},{"pitch":15,"velocity":83,"channel":0},{"pitch":56,"velocity":86,"channel":0},{"pitch":56,"velocity":78,"channel":0},{"pitch":80,"velocity":91,"channel":0},{"pitch":75,"velocity":73,"channel":0},{"pitch":51,"velocity":89,"channel":0},{"pitch":51,"velocity":83,"channel":0},{"pitch":75,"velocity":78,"channel":0},{"pitch":51,"velocity":90,"channel":0},{"pitch":46,"velocity":79,"channel":0},{"pitch":75,"velocity":75,"channel":0},{"pitch":92,"velocity":85,"channel":0},{"pitch":92,"velocity":78,"channel":0},{"pitch":44,"velocity":74,"channel":0},{"pitch":44,"velocity":77,"channel":0},{"pitch":80,"velocity":78,"channel":0},{"pitch":27,"velocity":82,"channel":0},{"pitch":20,"velocity":78,"channel":0},{"pitch":44,"velocity":83,"channel":0},{"pitch":75,"velocity":80,"channel":0},{"pitch":51,"velocity":67,"channel":0},{"pitch":44,"velocity":90,"channel":0},{"pitch":51,"velocity":87,"channel":0},{"pitch":51,"velocity":75,"channel":0},{"pitch":51,"velocity":81,"channel":0},{"pitch":75,"velocity":79,"channel":0},{"pitch":32,"velocity":94,"channel":0},{"pitch":87,"velocity":61,"channel":0},{"pitch":75,"velocity":89,"channel":0},{"pitch":44,"velocity":74,"channel":0},{"pitch":51,"velocity":96,"channel":0},{"pitch":58,"velocity":78,"channel":0},{"pitch":80,"velocity":74,"channel":0},{"pitch":56,"velocity":80,"channel":0},{"pitch":39,"velocity":78,"channel":0},{"pitch":51,"velocity":69,"channel":0},{"pitch":51,"velocity":73,"channel":0},{"pitch":51,"velocity":81,"channel":0},{"pitch":51,"velocity":74,"channel":0},{"pitch":51,"velocity":87,"channel":0},{"pitch":51,"velocity":74,"channel":0},{"pitch":87,"velocity":86,"channel":0},{"pitch":44,"velocity":83,"channel":0},{"pitch":51,"velocity":77,"channel":0},{"pitch":51,"velocity":69,"channel":0},{"pitch":87,"velocity":85,"channel":0},{"pitch":51,"velocity":75,"channel":0},{"pitch":51,"velocity":75,"channel":0},{"pitch":56,"velocity":95,"channel":0},{"pitch":39,"velocity":70,"channel":0},{"pitch":51,"velocity":83,"channel":0},{"pitch":51,"velocity":88,"channel":0},{"pitch":87,"velocity":67,"channel":0},{"pitch":87,"velocity":81,"channel":0},{"pitch":51,"velocity":83,"channel":0},{"pitch":51,"velocity":70,"channel":0},{"pitch":87,"velocity":75,"channel":0},{"pitch":51,"velocity":78,"channel":0},{"pitch":80,"velocity":86,"channel":0},{"pitch":51,"velocity":76,"channel":0},{"pitch":51,"velocity":74,"channel":0},{"pitch":51,"velocity":83,"channel":0},{"pitch":75,"velocity":76,"channel":0},{"pitch":51,"velocity":87,"channel":0},{"pitch":75,"velocity":90,"channel":0},{"pitch":51,"velocity":75,"channel":0},{"pitch":51,"velocity":72,"channel":0},{"pitch":44,"velocity":94,"channel":0},{"pitch":51,"velocity":83,"channel":0},{"pitch":87,"velocity":85,"channel":0},{"pitch":51,"velocity":73,"channel":0},{"pitch":51,"velocity":69,"channel":0},{"pitch":44,"velocity":76,"channel":0},{"pitch":51,"velocity":78,"channel":0},{"pitch":51,"velocity":75,"channel":0},{"pitch":87,"velocity":71,"channel":0},{"pitch":44,"velocity":94,"channel":0},{"pitch":75,"velocity":78,"channel":0},{"pitch":51,"velocity":91,"channel":0},{"pitch":44,"velocity":78,"channel":0},{"pitch":51,"velocity":76,"channel":0},{"pitch":51,"velocity":78,"channel":0},{"pitch":51,"velocity":84,"channel":0},{"pitch":51,"velocity":88,"channel":0},{"pitch":80,"velocity":87,"channel":0},{"pitch":51,"velocity":88,"channel":0},{"pitch":51,"velocity":69,"channel":0},{"pitch":80,"velocity":74,"channel":0},{"pitch":39,"velocity":74,"channel":0},{"pitch":34,"velocity":81,"channel":0},{"pitch":82,"velocity":74,"channel":0},{"pitch":51,"velocity":71,"channel":0},{"pitch":51,"velocity":60,"channel":0},{"pitch":51,"velocity":75,"channel":0},{"pitch":39,"velocity":78,"channel":0},{"pitch":75,"velocity":84,"channel":0},{"pitch":51,"velocity":86,"channel":0},{"pitch":51,"velocity":74,"channel":0},{"pitch":63,"velocity":75,"channel":0},{"pitch":56,"velocity":82,"channel":0},{"pitch":44,"velocity":69,"channel":0},{"pitch":51,"velocity":90,"channel":0},{"pitch":51,"velocity":69,"channel":0},{"pitch":63,"velocity":77,"channel":0},{"pitch":56,"velocity":78,"channel":0},{"pitch":80,"velocity":74,"channel":0},{"pitch":92,"velocity":78,"channel":0},{"pitch":51,"velocity":75,"channel":0},{"pitch":51,"velocity":81,"channel":0},{"pitch":75,"velocity":83,"channel":0},{"pitch":51,"velocity":83,"channel":0},{"pitch":56,"velocity":75,"channel":0},{"pitch":92,"velocity":71,"channel":0},{"pitch":39,"velocity":83,"channel":0},{"pitch":51,"velocity":84,"channel":0},{"pitch":51,"velocity":84,"channel":0},{"pitch":87,"velocity":87,"channel":0},{"pitch":51,"velocity":75,"channel":0},{"pitch":51,"velocity":90,"channel":0},{"pitch":51,"velocity":78,"channel":0},{"pitch":51,"velocity":84,"channel":0},{"pitch":51,"velocity":88,"channel":0},{"pitch":51,"velocity":84,"channel":0},{"pitch":44,"velocity":86,"channel":0},{"pitch":75,"velocity":83,"channel":0},{"pitch":75,"velocity":93,"channel":0},{"pitch":51,"velocity":82,"channel":0},{"pitch":51,"velocity":74,"channel":0},{"pitch":75,"velocity":96,"channel":0},{"pitch":51,"velocity":78,"channel":0},{"pitch":51,"velocity":73,"channel":0},{"pitch":75,"velocity":82,"channel":0},{"pitch":51,"velocity":89,"channel":0},{"pitch":51,"velocity":73,"channel":0},{"pitch":51,"velocity":80,"channel":0},{"pitch":51,"velocity":69,"channel":0},{"pitch":32,"velocity":86,"channel":0},{"pitch":34,"velocity":102,"channel":0}],"stageTiming":{"beat-setup":22.6981,"intent":0.0134,"entropy":0.0195,"phase":0.0221,"climax":0.0202,"envelope":0.0186,"silhouette":0.0195,"rest":0.033,"complement":0.0015,"tension-cadence":0.0248,"negotiation":0.0253,"probability-adjust":0.0055,"emission":5.9175,"post-beat":0.0257},"iterBudget":{"raw":315,"capped":150,"wasCapped":true}}
{"layer":"L2","beatKey":"0:0:0:8","timeMs":1403.5087719298244,"snap":{"key":"A#","mode":"locrian","quality":"minor","scale":["A#","B","C#","D#","E","F#","G#"],"chords":[],"tension":0.2858458816418885,"harmonicRhythm":0.33338377287365806,"harmonicMutationCount":8,"excursion":0,"sectionPhase":"opening","phrasePosition":0.8,"phrasePhase":"resolution","phraseDynamism":1,"registerBias":1.0534230275096785,"densityMultiplier":1.0351141009169893,"voiceIndependence":0.5,"compositeIntensity":0.34955546008782645,"playProb":0.3427583082730545,"stutterProb":0.47505733023765967,"flicker":1.1885495733762952,"textureMode":"flurry","textureFatigue":0,"densityBias":0,"crossModBias":1,"emissionRatio":0.8882997864076252,"extraDensityCorrection":1.022340042718475,"extraCoherenceDensityBias":1,"activeProfile":"restrained","journeyMove":"origin","journeyDistance":0,"journeyKey":"D#","journeyMode":"locrian","binauralFreqOffset":9,"binauralFlip":false,"tick":442500,"updatedAt":1772749134759},"negotiation":{"playProb":0.2972915203440507,"stutterProb":0.4590658003484219,"allowCadence":false,"conflict":0.2336807529830296,"phaseConfidence":0.275},"trust":{"stutterContagion":{"score":0.579684295958674,"samples":69,"weight":1.4125},"cadenceAlignment":{"score":0.23595308959962133,"samples":69,"weight":1.176964817199716},"phaseLock":{"score":0.23595308959962133,"samples":69,"weight":1.176964817199716},"convergence":{"score":0.23595308959962133,"samples":69,"weight":1.176964817199716},"feedbackOscillator":{"score":0.23595308959962133,"samples":69,"weight":1.176964817199716},"coherenceMonitor":{"score":0.6816234189784243,"samples":69,"weight":1.5112175642338181},"entropyRegulator":{"score":0.7148115163656013,"samples":69,"weight":1.536108637274201},"restSynchronizer":{"score":0.23595308959962133,"samples":69,"weight":1.176964817199716}},"regime":"evolving","coupling":{"density-tension":-0.786,"density-flicker":0.98,"density-entropy":-0.768,"density-trust":-0.966,"density-phase":0,"tension-flicker":-0.88,"tension-entropy":0.6,"tension-trust":0.86,"tension-phase":0,"flicker-entropy":-0.739,"flicker-trust":-0.973,"flicker-phase":0,"entropy-trust":0.691,"entropy-phase":0},"couplingTargets":{"density-tension":{"baseline":0.15,"current":0.1491,"rollingAbsCorr":0.0157,"rawRollingAbsCorr":0.0157,"gain":0.3,"heatPenalty":0,"effectivenessEma":0.475,"effMin":0.475,"effMax":0.475,"effActiveBeats":1,"hpPromoted":false},"density-flicker":{"baseline":0.12,"current":0.1191,"rollingAbsCorr":0.0196,"rawRollingAbsCorr":0.0196,"gain":0.2416,"heatPenalty":0.036,"effectivenessEma":0.475,"effMin":0.475,"effMax":0.475,"effActiveBeats":1,"hpPromoted":false},"density-entropy":{"baseline":0.12,"current":0.1191,"rollingAbsCorr":0.0384,"rawRollingAbsCorr":0.0384,"gain":0.22,"heatPenalty":0,"effectivenessEma":0.475,"effMin":0.475,"effMax":0.475,"effActiveBeats":1,"hpPromoted":false},"density-trust":{"baseline":0.2,"current":0.1991,"rollingAbsCorr":0.0193,"rawRollingAbsCorr":0.0193,"gain":0.229,"heatPenalty":0.01,"effectivenessEma":0.475,"effMin":0.475,"effMax":0.475,"effActiveBeats":1,"hpPromoted":false},"density-phase":{"baseline":0.06,"current":0.06,"rollingAbsCorr":0,"rawRollingAbsCorr":0,"gain":0.16,"heatPenalty":0,"effectivenessEma":0.5,"effMin":1,"effMax":0,"effActiveBeats":0,"hpPromoted":false},"tension-flicker":{"baseline":0.15,"current":0.1485,"rollingAbsCorr":0.0176,"rawRollingAbsCorr":0.0176,"gain":0.229,"heatPenalty":0.01,"effectivenessEma":0.475,"effMin":0.475,"effMax":0.475,"effActiveBeats":1,"hpPromoted":false},"tension-entropy":{"baseline":0.25,"current":0.2485,"rollingAbsCorr":0.03,"rawRollingAbsCorr":0.03,"gain":0.22,"heatPenalty":0,"effectivenessEma":0.475,"effMin":0.475,"effMax":0.475,"effActiveBeats":1,"hpPromoted":false},"tension-trust":{"baseline":0.15,"current":0.1485,"rollingAbsCorr":0.0172,"rawRollingAbsCorr":0.0172,"gain":0.229,"heatPenalty":0.01,"effectivenessEma":0.475,"effMin":0.475,"effMax":0.475,"effActiveBeats":1,"hpPromoted":false},"tension-phase":{"baseline":0.2,"current":0.1985,"rollingAbsCorr":0,"rawRollingAbsCorr":0,"gain":0.16,"heatPenalty":0,"effectivenessEma":0.5,"effMin":1,"effMax":0,"effActiveBeats":0,"hpPromoted":false},"flicker-entropy":{"baseline":0.18,"current":0.1785,"rollingAbsCorr":0.037,"rawRollingAbsCorr":0.037,"gain":0.22,"heatPenalty":0,"effectivenessEma":0.475,"effMin":0.475,"effMax":0.475,"effActiveBeats":1,"hpPromoted":false},"flicker-trust":{"baseline":0.12,"current":0.1185,"rollingAbsCorr":0.0195,"rawRollingAbsCorr":0.0195,"gain":0.229,"heatPenalty":0.01,"effectivenessEma":0.475,"effMin":0.475,"effMax":0.475,"effActiveBeats":1,"hpPromoted":false},"flicker-phase":{"baseline":0.08,"current":0.08,"rollingAbsCorr":0,"rawRollingAbsCorr":0,"gain":0.16,"heatPenalty":0,"effectivenessEma":0.5,"effMin":1,"effMax":0,"effActiveBeats":0,"hpPromoted":false},"entropy-trust":{"baseline":0.25,"current":0.25,"rollingAbsCorr":0.0345,"rawRollingAbsCorr":0.0345,"gain":0.16,"heatPenalty":0,"effectivenessEma":0.5,"effMin":1,"effMax":0,"effActiveBeats":0,"hpPromoted":false},"entropy-phase":{"baseline":0.1,"current":0.1,"rollingAbsCorr":0,"rawRollingAbsCorr":0,"gain":0.16,"heatPenalty":0,"effectivenessEma":0.5,"effMin":1,"effMax":0,"effActiveBeats":0,"hpPromoted":false}},"axisCouplingTotals":{"density":0.525,"tension":0.4689,"flicker":0.5358,"entropy":0.4197,"trust":0.5235,"phase":0},"axisEnergyShare":{"shares":{"density":0.2123,"tension":0.1896,"flicker":0.2167,"entropy":0.1697,"trust":0.2117,"phase":0},"axisGini":0.2055},"couplingGates":{"gateD":1,"gateT":1,"gateF":1,"floorDampen":1,"bypassD":0.22715,"bypassT":-0.251474,"bypassF":0.329553,"gateMinD":1,"gateMinT":1,"gateMinF":1,"gateEmaD":1,"gateEmaT":1,"gateEmaF":1,"gateBeatCount":6},"couplingHomeostasis":{"totalEnergyEma":8.243,"energyBudget":3.5,"peakEnergyEma":8.243,"totalEnergyFloor":8.0005,"floorDampen":0.2,"redistributionScore":0,"nudgeableRedistributionScore":0,"globalGainMultiplier":0.7872,"giniCoefficient":0.3458,"energyDeltaEma":0.8243,"pairTurbulenceEma":0,"beatCount":1,"invokeCount":6,"tickCount":70,"emptyMatrixBeats":5,"multiplierMin":0.7872,"multiplierMax":1,"multiplierStdDev":0.0474,"floorContactBeats":0,"ceilingContactBeats":61,"avgRecoveryDuration":0},"axisEnergyEquilibrator":{"beatCount":6,"pairAdjustments":0,"axisAdjustments":0,"smoothedShares":{"density":0.016984,"tension":0.015168,"flicker":0.017336,"entropy":0.013576,"trust":0.016936,"phase":0},"perAxisAdj":{},"perPairAdj":{},"lastBaselines":{},"regimeBeats":{},"regimePairAdj":{},"regimeAxisAdj":{},"regimeTightenBudget":{}},"transitionReadiness":{"gap":0.6264,"couplingStrength":0.7921,"coherentThreshold":0.1658,"velocity":0.065246,"velThreshold":0.008,"thresholdScale":0.65,"velocityBlocked":false,"exploringBlock":"dimension","rawRegimeCounts":{"coherent":1},"rawRegimeMaxStreak":{"coherent":1},"effectiveDim":1.6955},"notes":[{"pitch":34,"velocity":83,"channel":0},{"pitch":10,"velocity":93,"channel":0},{"pitch":34,"velocity":76,"channel":0},{"pitch":51,"velocity":88,"channel":0},{"pitch":32,"velocity":70,"channel":0},{"pitch":32,"velocity":89,"channel":0},{"pitch":32,"velocity":82,"channel":0},{"pitch":32,"velocity":80,"channel":0},{"pitch":27,"velocity":80,"channel":0},{"pitch":75,"velocity":81,"channel":0},{"pitch":56,"velocity":88,"channel":0},{"pitch":32,"velocity":96,"channel":0},{"pitch":80,"velocity":91,"channel":0},{"pitch":32,"velocity":94,"channel":0},{"pitch":32,"velocity":70,"channel":0},{"pitch":32,"velocity":80,"channel":0},{"pitch":32,"velocity":84,"channel":0},{"pitch":56,"velocity":80,"channel":0},{"pitch":56,"velocity":89,"channel":0},{"pitch":58,"velocity":88,"channel":0},{"pitch":63,"velocity":86,"channel":0},{"pitch":63,"velocity":95,"channel":0},{"pitch":87,"velocity":70,"channel":0},{"pitch":56,"velocity":77,"channel":0},{"pitch":63,"velocity":81,"channel":0},{"pitch":63,"velocity":85,"channel":0},{"pitch":87,"velocity":89,"channel":0},{"pitch":75,"velocity":72,"channel":0},{"pitch":80,"velocity":81,"channel":0},{"pitch":75,"velocity":71,"channel":0},{"pitch":63,"velocity":65,"channel":0},{"pitch":63,"velocity":70,"channel":0},{"pitch":82,"velocity":75,"channel":0},{"pitch":75,"velocity":92,"channel":0},{"pitch":82,"velocity":65,"channel":0},{"pitch":63,"velocity":83,"channel":0},{"pitch":70,"velocity":73,"channel":0},{"pitch":82,"velocity":77,"channel":0},{"pitch":70,"velocity":78,"channel":0},{"pitch":82,"velocity":94,"channel":0},{"pitch":70,"velocity":86,"channel":0},{"pitch":3,"velocity":92,"channel":0},{"pitch":80,"velocity":68,"channel":0},{"pitch":32,"velocity":82,"channel":0},{"pitch":32,"velocity":83,"channel":0},{"pitch":20,"velocity":70,"channel":0},{"pitch":32,"velocity":70,"channel":0},{"pitch":87,"velocity":77,"channel":0},{"pitch":27,"velocity":70,"channel":0},{"pitch":27,"velocity":96,"channel":0},{"pitch":75,"velocity":84,"channel":0},{"pitch":82,"velocity":79,"channel":0},{"pitch":82,"velocity":87,"channel":0},{"pitch":87,"velocity":91,"channel":0},{"pitch":3,"velocity":92,"channel":0},{"pitch":44,"velocity":80,"channel":0},{"pitch":80,"velocity":81,"channel":0},{"pitch":20,"velocity":78,"channel":0},{"pitch":80,"velocity":75,"channel":0},{"pitch":15,"velocity":84,"channel":0},{"pitch":15,"velocity":85,"channel":0},{"pitch":92,"velocity":80,"channel":0},{"pitch":20,"velocity":84,"channel":0},{"pitch":20,"velocity":80,"channel":0},{"pitch":80,"velocity":80,"channel":0},{"pitch":15,"velocity":94,"channel":0},{"pitch":20,"velocity":84,"channel":0},{"pitch":80,"velocity":80,"channel":0},{"pitch":80,"velocity":78,"channel":0},{"pitch":20,"velocity":66,"channel":0},{"pitch":58,"velocity":73,"channel":0},{"pitch":34,"velocity":80,"channel":0},{"pitch":58,"velocity":77,"channel":0},{"pitch":34,"velocity":78,"channel":0},{"pitch":58,"velocity":82,"channel":0},{"pitch":34,"velocity":77,"channel":0},{"pitch":75,"velocity":94,"channel":0},{"pitch":80,"velocity":74,"channel":0},{"pitch":80,"velocity":55,"channel":0},{"pitch":8,"velocity":80,"channel":0},{"pitch":56,"velocity":79,"channel":0},{"pitch":75,"velocity":84,"channel":0},{"pitch":10,"velocity":75,"channel":0},{"pitch":58,"velocity":73,"channel":0},{"pitch":82,"velocity":80,"channel":0},{"pitch":75,"velocity":77,"channel":0},{"pitch":20,"velocity":79,"channel":0},{"pitch":92,"velocity":87,"channel":0},{"pitch":51,"velocity":75,"channel":0},{"pitch":8,"velocity":99,"channel":0},{"pitch":8,"velocity":91,"channel":0},{"pitch":82,"velocity":77,"channel":0},{"pitch":10,"velocity":77,"channel":0},{"pitch":82,"velocity":81,"channel":0},{"pitch":82,"velocity":71,"channel":0},{"pitch":8,"velocity":89,"channel":0},{"pitch":80,"velocity":90,"channel":0},{"pitch":3,"velocity":88,"channel":0},{"pitch":51,"velocity":75,"channel":0},{"pitch":75,"velocity":65,"channel":0},{"pitch":56,"velocity":79,"channel":0},{"pitch":3,"velocity":76,"channel":0},{"pitch":3,"velocity":72,"channel":0},{"pitch":3,"velocity":78,"channel":0},{"pitch":3,"velocity":86,"channel":0},{"pitch":3,"velocity":79,"channel":0},{"pitch":3,"velocity":85,"channel":0},{"pitch":3,"velocity":85,"channel":0},{"pitch":87,"velocity":74,"channel":0}],"stageTiming":{"beat-setup":30.5794,"intent":0.0145,"entropy":0.0191,"phase":0.0252,"climax":0.0218,"envelope":0.1673,"silhouette":0.0268,"rest":0.0422,"complement":0.0027,"tension-cadence":0.0266,"negotiation":0.0285,"probability-adjust":0.0055,"emission":2.1352,"post-beat":0.0228},"iterBudget":{"raw":48,"capped":48,"wasCapped":false}}
{"layer":"L2","beatKey":"0:0:0:9","timeMs":1578.9473684210527,"snap":{"key":"A#","mode":"locrian","quality":"minor","scale":["A#","B","C#","D#","E","F#","G#"],"chords":[],"tension":0.2858458816418885,"harmonicRhythm":0.33338377287365806,"harmonicMutationCount":8,"excursion":0,"sectionPhase":"opening","phrasePosition":0.8,"phrasePhase":"resolution","phraseDynamism":1,"registerBias":1.0534230275096785,"densityMultiplier":1.0351141009169893,"voiceIndependence":0.5,"compositeIntensity":0.34955546008782645,"playProb":0.3427583082730545,"stutterProb":0.47505733023765967,"flicker":1.1885495733762952,"textureMode":"flurry","textureFatigue":0,"densityBias":0,"crossModBias":1,"emissionRatio":0.8882997864076252,"extraDensityCorrection":1.022340042718475,"extraCoherenceDensityBias":1,"activeProfile":"restrained","journeyMove":"origin","journeyDistance":0,"journeyKey":"D#","journeyMode":"locrian","binauralFreqOffset":9,"binauralFlip":false,"tick":442500,"updatedAt":1772749134759},"negotiation":{"playProb":0.29872909265688435,"stutterProb":0.4621357756010779,"allowCadence":false,"conflict":0.23553518280028407,"phaseConfidence":0.275},"trust":{"stutterContagion":{"score":0.6085966122548465,"samples":70,"weight":1.4125},"cadenceAlignment":{"score":0.2415582859049316,"samples":70,"weight":1.1811687144286986},"phaseLock":{"score":0.2415582859049316,"samples":70,"weight":1.1811687144286986},"convergence":{"score":0.2415582859049316,"samples":70,"weight":1.1811687144286986},"feedbackOscillator":{"score":0.2415582859049316,"samples":70,"weight":1.1811687144286986},"coherenceMonitor":{"score":0.6884870168883068,"samples":70,"weight":1.51636526266623},"entropyRegulator":{"score":0.7288722180390277,"samples":70,"weight":1.5466541635292708},"restSynchronizer":{"score":0.2415582859049316,"samples":70,"weight":1.1811687144286986}},"regime":"evolving","coupling":{"density-tension":-0.786,"density-flicker":0.98,"density-entropy":-0.768,"density-trust":-0.966,"density-phase":0,"tension-flicker":-0.88,"tension-entropy":0.6,"tension-trust":0.86,"tension-phase":0,"flicker-entropy":-0.739,"flicker-trust":-0.973,"flicker-phase":0,"entropy-trust":0.691,"entropy-phase":0},"couplingTargets":{"density-tension":{"baseline":0.15,"current":0.1491,"rollingAbsCorr":0.0157,"rawRollingAbsCorr":0.0157,"gain":0.3,"heatPenalty":0,"effectivenessEma":0.475,"effMin":0.475,"effMax":0.475,"effActiveBeats":1,"hpPromoted":false},"density-flicker":{"baseline":0.12,"current":0.1191,"rollingAbsCorr":0.0196,"rawRollingAbsCorr":0.0196,"gain":0.2416,"heatPenalty":0.036,"effectivenessEma":0.475,"effMin":0.475,"effMax":0.475,"effActiveBeats":1,"hpPromoted":false},"density-entropy":{"baseline":0.12,"current":0.1191,"rollingAbsCorr":0.0384,"rawRollingAbsCorr":0.0384,"gain":0.22,"heatPenalty":0,"effectivenessEma":0.475,"effMin":0.475,"effMax":0.475,"effActiveBeats":1,"hpPromoted":false},"density-trust":{"baseline":0.2,"current":0.1991,"rollingAbsCorr":0.0193,"rawRollingAbsCorr":0.0193,"gain":0.229,"heatPenalty":0.01,"effectivenessEma":0.475,"effMin":0.475,"effMax":0.475,"effActiveBeats":1,"hpPromoted":false},"density-phase":{"baseline":0.06,"current":0.06,"rollingAbsCorr":0,"rawRollingAbsCorr":0,"gain":0.16,"heatPenalty":0,"effectivenessEma":0.5,"effMin":1,"effMax":0,"effActiveBeats":0,"hpPromoted":false},"tension-flicker":{"baseline":0.15,"current":0.1485,"rollingAbsCorr":0.0176,"rawRollingAbsCorr":0.0176,"gain":0.229,"heatPenalty":0.01,"effectivenessEma":0.475,"effMin":0.475,"effMax":0.475,"effActiveBeats":1,"hpPromoted":false},"tension-entropy":{"baseline":0.25,"current":0.2485,"rollingAbsCorr":0.03,"rawRollingAbsCorr":0.03,"gain":0.22,"heatPenalty":0,"effectivenessEma":0.475,"effMin":0.475,"effMax":0.475,"effActiveBeats":1,"hpPromoted":false},"tension-trust":{"baseline":0.15,"current":0.1485,"rollingAbsCorr":0.0172,"rawRollingAbsCorr":0.0172,"gain":0.229,"heatPenalty":0.01,"effectivenessEma":0.475,"effMin":0.475,"effMax":0.475,"effActiveBeats":1,"hpPromoted":false},"tension-phase":{"baseline":0.2,"current":0.1985,"rollingAbsCorr":0,"rawRollingAbsCorr":0,"gain":0.16,"heatPenalty":0,"effectivenessEma":0.5,"effMin":1,"effMax":0,"effActiveBeats":0,"hpPromoted":false},"flicker-entropy":{"baseline":0.18,"current":0.1785,"rollingAbsCorr":0.037,"rawRollingAbsCorr":0.037,"gain":0.22,"heatPenalty":0,"effectivenessEma":0.475,"effMin":0.475,"effMax":0.475,"effActiveBeats":1,"hpPromoted":false},"flicker-trust":{"baseline":0.12,"current":0.1185,"rollingAbsCorr":0.0195,"rawRollingAbsCorr":0.0195,"gain":0.229,"heatPenalty":0.01,"effectivenessEma":0.475,"effMin":0.475,"effMax":0.475,"effActiveBeats":1,"hpPromoted":false},"flicker-phase":{"baseline":0.08,"current":0.08,"rollingAbsCorr":0,"rawRollingAbsCorr":0,"gain":0.16,"heatPenalty":0,"effectivenessEma":0.5,"effMin":1,"effMax":0,"effActiveBeats":0,"hpPromoted":false},"entropy-trust":{"baseline":0.25,"current":0.25,"rollingAbsCorr":0.0345,"rawRollingAbsCorr":0.0345,"gain":0.16,"heatPenalty":0,"effectivenessEma":0.5,"effMin":1,"effMax":0,"effActiveBeats":0,"hpPromoted":false},"entropy-phase":{"baseline":0.1,"current":0.1,"rollingAbsCorr":0,"rawRollingAbsCorr":0,"gain":0.16,"heatPenalty":0,"effectivenessEma":0.5,"effMin":1,"effMax":0,"effActiveBeats":0,"hpPromoted":false}},"axisCouplingTotals":{"density":0.525,"tension":0.4689,"flicker":0.5358,"entropy":0.4197,"trust":0.5235,"phase":0},"axisEnergyShare":{"shares":{"density":0.2123,"tension":0.1896,"flicker":0.2167,"entropy":0.1697,"trust":0.2117,"phase":0},"axisGini":0.2055},"couplingGates":{"gateD":1,"gateT":1,"gateF":1,"floorDampen":1,"bypassD":0.22715,"bypassT":-0.251474,"bypassF":0.329553,"gateMinD":1,"gateMinT":1,"gateMinF":1,"gateEmaD":1,"gateEmaT":1,"gateEmaF":1,"gateBeatCount":6},"couplingHomeostasis":{"totalEnergyEma":8.243,"energyBudget":3.5,"peakEnergyEma":8.243,"totalEnergyFloor":8.0005,"floorDampen":0.2,"redistributionScore":0,"nudgeableRedistributionScore":0,"globalGainMultiplier":0.7691,"giniCoefficient":0.3458,"energyDeltaEma":0.8243,"pairTurbulenceEma":0,"beatCount":1,"invokeCount":6,"tickCount":71,"emptyMatrixBeats":5,"multiplierMin":0.7691,"multiplierMax":1,"multiplierStdDev":0.0534,"floorContactBeats":0,"ceilingContactBeats":61,"avgRecoveryDuration":0},"axisEnergyEquilibrator":{"beatCount":6,"pairAdjustments":0,"axisAdjustments":0,"smoothedShares":{"density":0.016984,"tension":0.015168,"flicker":0.017336,"entropy":0.013576,"trust":0.016936,"phase":0},"perAxisAdj":{},"perPairAdj":{},"lastBaselines":{},"regimeBeats":{},"regimePairAdj":{},"regimeAxisAdj":{},"regimeTightenBudget":{}},"transitionReadiness":{"gap":0.6264,"couplingStrength":0.7921,"coherentThreshold":0.1658,"velocity":0.065246,"velThreshold":0.008,"thresholdScale":0.65,"velocityBlocked":false,"exploringBlock":"dimension","rawRegimeCounts":{"coherent":1},"rawRegimeMaxStreak":{"coherent":1},"effectiveDim":1.6955},"notes":[{"pitch":34,"velocity":75,"channel":0},{"pitch":34,"velocity":88,"channel":0},{"pitch":87,"velocity":106,"channel":0},{"pitch":44,"velocity":68,"channel":0},{"pitch":44,"velocity":99,"channel":0},{"pitch":80,"velocity":82,"channel":0},{"pitch":44,"velocity":82,"channel":0},{"pitch":32,"velocity":84,"channel":0},{"pitch":39,"velocity":88,"channel":0},{"pitch":39,"velocity":77,"channel":0},{"pitch":87,"velocity":88,"channel":0},{"pitch":44,"velocity":77,"channel":0},{"pitch":27,"velocity":91,"channel":0},{"pitch":75,"velocity":81,"channel":0},{"pitch":51,"velocity":86,"channel":0},{"pitch":39,"velocity":78,"channel":0},{"pitch":51,"velocity":73,"channel":0},{"pitch":51,"velocity":87,"channel":0},{"pitch":56,"velocity":75,"channel":0},{"pitch":80,"velocity":84,"channel":0},{"pitch":46,"velocity":93,"channel":0},{"pitch":46,"velocity":85,"channel":0},{"pitch":46,"velocity":80,"channel":0},{"pitch":46,"velocity":85,"channel":0},{"pitch":46,"velocity":87,"channel":0},{"pitch":10,"velocity":86,"channel":0},{"pitch":39,"velocity":76,"channel":0},{"pitch":44,"velocity":82,"channel":0},{"pitch":34,"velocity":80,"channel":0},{"pitch":39,"velocity":83,"channel":0},{"pitch":87,"velocity":86,"channel":0},{"pitch":51,"velocity":79,"channel":0},{"pitch":58,"velocity":77,"channel":0},{"pitch":20,"velocity":96,"channel":0},{"pitch":44,"velocity":82,"channel":0},{"pitch":39,"velocity":82,"channel":0},{"pitch":80,"velocity":93,"channel":0},{"pitch":39,"velocity":90,"channel":0},{"pitch":56,"velocity":100,"channel":0},{"pitch":87,"velocity":73,"channel":0},{"pitch":56,"velocity":86,"channel":0},{"pitch":3,"velocity":97,"channel":0},{"pitch":87,"velocity":87,"channel":0},{"pitch":75,"velocity":77,"channel":0},{"pitch":3,"velocity":86,"channel":0},{"pitch":3,"velocity":90,"channel":0},{"pitch":3,"velocity":88,"channel":0},{"pitch":75,"velocity":87,"channel":0},{"pitch":87,"velocity":79,"channel":0},{"pitch":10,"velocity":89,"channel":0},{"pitch":51,"velocity":73,"channel":0},{"pitch":3,"velocity":88,"channel":0},{"pitch":3,"velocity":74,"channel":0},{"pitch":27,"velocity":73,"channel":0},{"pitch":3,"velocity":83,"channel":0},{"pitch":3,"velocity":85,"channel":0},{"pitch":3,"velocity":94,"channel":0},{"pitch":70,"velocity":70,"channel":0},{"pitch":94,"velocity":70,"channel":0},{"pitch":3,"velocity":77,"channel":0},{"pitch":92,"velocity":99,"channel":0},{"pitch":56,"velocity":84,"channel":0},{"pitch":3,"velocity":89,"channel":0},{"pitch":92,"velocity":75,"channel":0},{"pitch":75,"velocity":91,"channel":0},{"pitch":75,"velocity":92,"channel":0},{"pitch":15,"velocity":94,"channel":0},{"pitch":51,"velocity":90,"channel":0},{"pitch":87,"velocity":73,"channel":0},{"pitch":3,"velocity":63,"channel":0},{"pitch":3,"velocity":88,"channel":0},{"pitch":8,"velocity":91,"channel":0},{"pitch":3,"velocity":84,"channel":0},{"pitch":80,"velocity":90,"channel":0},{"pitch":8,"velocity":104,"channel":0},{"pitch":8,"velocity":82,"channel":0},{"pitch":80,"velocity":77,"channel":0},{"pitch":8,"velocity":70,"channel":0},{"pitch":75,"velocity":89,"channel":0},{"pitch":3,"velocity":75,"channel":0},{"pitch":87,"velocity":78,"channel":0},{"pitch":3,"velocity":94,"channel":0},{"pitch":3,"velocity":87,"channel":0},{"pitch":46,"velocity":95,"channel":0},{"pitch":87,"velocity":78,"channel":0},{"pitch":46,"velocity":92,"channel":0},{"pitch":75,"velocity":84,"channel":0},{"pitch":51,"velocity":91,"channel":0},{"pitch":80,"velocity":88,"channel":0},{"pitch":8,"velocity":96,"channel":0},{"pitch":8,"velocity":80,"channel":0},{"pitch":32,"velocity":91,"channel":0},{"pitch":34,"velocity":100,"channel":0}],"stageTiming":{"beat-setup":17.6264,"intent":0.0147,"entropy":0.018,"phase":0.0239,"climax":0.0251,"envelope":0.0423,"silhouette":0.0245,"rest":0.0379,"complement":0.0023,"tension-cadence":0.0257,"negotiation":0.0256,"probability-adjust":0.0163,"emission":4.6778,"post-beat":0.0317},"iterBudget":{"raw":280,"capped":150,"wasCapped":true}}
{"layer":"L2","beatKey":"0:0:0:10","timeMs":1754.3859649122805,"snap":{"key":"A#","mode":"locrian","quality":"minor","scale":["A#","B","C#","D#","E","F#","G#"],"chords":[],"tension":0.2858458816418885,"harmonicRhythm":0.33338377287365806,"harmonicMutationCount":8,"excursion":0,"sectionPhase":"opening","phrasePosition":0.8,"phrasePhase":"resolution","phraseDynamism":1,"registerBias":1.0534230275096785,"densityMultiplier":1.0351141009169893,"voiceIndependence":0.5,"compositeIntensity":0.34955546008782645,"playProb":0.3427583082730545,"stutterProb":0.47505733023765967,"flicker":1.1885495733762952,"textureMode":"flurry","textureFatigue":0,"densityBias":0,"crossModBias":1,"emissionRatio":0.8882997864076252,"extraDensityCorrection":1.022340042718475,"extraCoherenceDensityBias":1,"activeProfile":"restrained","journeyMove":"origin","journeyDistance":0,"journeyKey":"D#","journeyMode":"locrian","binauralFreqOffset":9,"binauralFlip":false,"tick":442500,"updatedAt":1772749134759},"negotiation":{"playProb":0.3001961305248732,"stutterProb":0.4649981303579281,"allowCadence":false,"conflict":0.23133128557130145,"phaseConfidence":0.275},"trust":{"stutterContagion":{"score":0.6338579223173904,"samples":71,"weight":1.4125},"cadenceAlignment":{"score":0.24681008363772747,"samples":71,"weight":1.1851075627282956},"phaseLock":{"score":0.24681008363772747,"samples":71,"weight":1.1851075627282956},"convergence":{"score":0.24681008363772747,"samples":71,"weight":1.1851075627282956},"feedbackOscillator":{"score":0.24681008363772747,"samples":71,"weight":1.1851075627282956},"coherenceMonitor":{"score":0.6915325500850709,"samples":71,"weight":1.518649412563803},"entropyRegulator":{"score":0.7429064725269209,"samples":71,"weight":1.5571798543951907},"restSynchronizer":{"score":0.24681008363772747,"samples":71,"weight":1.1851075627282956}},"regime":"evolving","coupling":{"density-tension":-0.786,"density-flicker":0.98,"density-entropy":-0.768,"density-trust":-0.966,"density-phase":0,"tension-flicker":-0.88,"tension-entropy":0.6,"tension-trust":0.86,"tension-phase":0,"flicker-entropy":-0.739,"flicker-trust":-0.973,"flicker-phase":0,"entropy-trust":0.691,"entropy-phase":0},"couplingTargets":{"density-tension":{"baseline":0.15,"current":0.1491,"rollingAbsCorr":0.0157,"rawRollingAbsCorr":0.0157,"gain":0.3,"heatPenalty":0,"effectivenessEma":0.475,"effMin":0.475,"effMax":0.475,"effActiveBeats":1,"hpPromoted":false},"density-flicker":{"baseline":0.12,"current":0.1191,"rollingAbsCorr":0.0196,"rawRollingAbsCorr":0.0196,"gain":0.2416,"heatPenalty":0.036,"effectivenessEma":0.475,"effMin":0.475,"effMax":0.475,"effActiveBeats":1,"hpPromoted":false},"density-entropy":{"baseline":0.12,"current":0.1191,"rollingAbsCorr":0.0384,"rawRollingAbsCorr":0.0384,"gain":0.22,"heatPenalty":0,"effectivenessEma":0.475,"effMin":0.475,"effMax":0.475,"effActiveBeats":1,"hpPromoted":false},"density-trust":{"baseline":0.2,"current":0.1991,"rollingAbsCorr":0.0193,"rawRollingAbsCorr":0.0193,"gain":0.229,"heatPenalty":0.01,"effectivenessEma":0.475,"effMin":0.475,"effMax":0.475,"effActiveBeats":1,"hpPromoted":false},"density-phase":{"baseline":0.06,"current":0.06,"rollingAbsCorr":0,"rawRollingAbsCorr":0,"gain":0.16,"heatPenalty":0,"effectivenessEma":0.5,"effMin":1,"effMax":0,"effActiveBeats":0,"hpPromoted":false},"tension-flicker":{"baseline":0.15,"current":0.1485,"rollingAbsCorr":0.0176,"rawRollingAbsCorr":0.0176,"gain":0.229,"heatPenalty":0.01,"effectivenessEma":0.475,"effMin":0.475,"effMax":0.475,"effActiveBeats":1,"hpPromoted":false},"tension-entropy":{"baseline":0.25,"current":0.2485,"rollingAbsCorr":0.03,"rawRollingAbsCorr":0.03,"gain":0.22,"heatPenalty":0,"effectivenessEma":0.475,"effMin":0.475,"effMax":0.475,"effActiveBeats":1,"hpPromoted":false},"tension-trust":{"baseline":0.15,"current":0.1485,"rollingAbsCorr":0.0172,"rawRollingAbsCorr":0.0172,"gain":0.229,"heatPenalty":0.01,"effectivenessEma":0.475,"effMin":0.475,"effMax":0.475,"effActiveBeats":1,"hpPromoted":false},"tension-phase":{"baseline":0.2,"current":0.1985,"rollingAbsCorr":0,"rawRollingAbsCorr":0,"gain":0.16,"heatPenalty":0,"effectivenessEma":0.5,"effMin":1,"effMax":0,"effActiveBeats":0,"hpPromoted":false},"flicker-entropy":{"baseline":0.18,"current":0.1785,"rollingAbsCorr":0.037,"rawRollingAbsCorr":0.037,"gain":0.22,"heatPenalty":0,"effectivenessEma":0.475,"effMin":0.475,"effMax":0.475,"effActiveBeats":1,"hpPromoted":false},"flicker-trust":{"baseline":0.12,"current":0.1185,"rollingAbsCorr":0.0195,"rawRollingAbsCorr":0.0195,"gain":0.229,"heatPenalty":0.01,"effectivenessEma":0.475,"effMin":0.475,"effMax":0.475,"effActiveBeats":1,"hpPromoted":false},"flicker-phase":{"baseline":0.08,"current":0.08,"rollingAbsCorr":0,"rawRollingAbsCorr":0,"gain":0.16,"heatPenalty":0,"effectivenessEma":0.5,"effMin":1,"effMax":0,"effActiveBeats":0,"hpPromoted":false},"entropy-trust":{"baseline":0.25,"current":0.25,"rollingAbsCorr":0.0345,"rawRollingAbsCorr":0.0345,"gain":0.16,"heatPenalty":0,"effectivenessEma":0.5,"effMin":1,"effMax":0,"effActiveBeats":0,"hpPromoted":false},"entropy-phase":{"baseline":0.1,"current":0.1,"rollingAbsCorr":0,"rawRollingAbsCorr":0,"gain":0.16,"heatPenalty":0,"effectivenessEma":0.5,"effMin":1,"effMax":0,"effActiveBeats":0,"hpPromoted":false}},"axisCouplingTotals":{"density":0.525,"tension":0.4689,"flicker":0.5358,"entropy":0.4197,"trust":0.5235,"phase":0},"axisEnergyShare":{"shares":{"density":0.2123,"tension":0.1896,"flicker":0.2167,"entropy":0.1697,"trust":0.2117,"phase":0},"axisGini":0.2055},"couplingGates":{"gateD":1,"gateT":1,"gateF":1,"floorDampen":1,"bypassD":0.22715,"bypassT":-0.251474,"bypassF":0.329553,"gateMinD":1,"gateMinT":1,"gateMinF":1,"gateEmaD":1,"gateEmaT":1,"gateEmaF":1,"gateBeatCount":6},"couplingHomeostasis":{"totalEnergyEma":8.243,"energyBudget":3.5,"peakEnergyEma":8.243,"totalEnergyFloor":8.0005,"floorDampen":0.2,"redistributionScore":0,"nudgeableRedistributionScore":0,"globalGainMultiplier":0.7519,"giniCoefficient":0.3458,"energyDeltaEma":0.8243,"pairTurbulenceEma":0,"beatCount":1,"invokeCount":6,"tickCount":72,"emptyMatrixBeats":5,"multiplierMin":0.7519,"multiplierMax":1,"multiplierStdDev":0.0594,"floorContactBeats":0,"ceilingContactBeats":61,"avgRecoveryDuration":0},"axisEnergyEquilibrator":{"beatCount":6,"pairAdjustments":0,"axisAdjustments":0,"smoothedShares":{"density":0.016984,"tension":0.015168,"flicker":0.017336,"entropy":0.013576,"trust":0.016936,"phase":0},"perAxisAdj":{},"perPairAdj":{},"lastBaselines":{},"regimeBeats":{},"regimePairAdj":{},"regimeAxisAdj":{},"regimeTightenBudget":{}},"transitionReadiness":{"gap":0.6264,"couplingStrength":0.7921,"coherentThreshold":0.1658,"velocity":0.065246,"velThreshold":0.008,"thresholdScale":0.65,"velocityBlocked":false,"exploringBlock":"dimension","rawRegimeCounts":{"coherent":1},"rawRegimeMaxStreak":{"coherent":1},"effectiveDim":1.6955},"notes":[{"pitch":51,"velocity":85,"channel":0},{"pitch":51,"velocity":93,"channel":0},{"pitch":51,"velocity":100,"channel":0},{"pitch":75,"velocity":104,"channel":0},{"pitch":92,"velocity":92,"channel":0},{"pitch":39,"velocity":81,"channel":0},{"pitch":80,"velocity":97,"channel":0},{"pitch":56,"velocity":77,"channel":0},{"pitch":80,"velocity":89,"channel":0},{"pitch":46,"velocity":85,"channel":0},{"pitch":44,"velocity":92,"channel":0},{"pitch":27,"velocity":96,"channel":0},{"pitch":75,"velocity":88,"channel":0},{"pitch":51,"velocity":94,"channel":0},{"pitch":51,"velocity":97,"channel":0},{"pitch":34,"velocity":75,"channel":0},{"pitch":51,"velocity":73,"channel":0},{"pitch":51,"velocity":85,"channel":0},{"pitch":51,"velocity":87,"channel":0},{"pitch":51,"velocity":76,"channel":0},{"pitch":51,"velocity":103,"channel":0},{"pitch":51,"velocity":92,"channel":0},{"pitch":51,"velocity":86,"channel":0},{"pitch":75,"velocity":80,"channel":0},{"pitch":75,"velocity":111,"channel":0},{"pitch":94,"velocity":95,"channel":0},{"pitch":27,"velocity":99,"channel":0},{"pitch":82,"velocity":84,"channel":0},{"pitch":82,"velocity":89,"channel":0},{"pitch":51,"velocity":98,"channel":0},{"pitch":51,"velocity":83,"channel":0},{"pitch":51,"velocity":95,"channel":0},{"pitch":39,"velocity":99,"channel":0},{"pitch":56,"velocity":99,"channel":0},{"pitch":44,"velocity":78,"channel":0},{"pitch":44,"velocity":95,"channel":0},{"pitch":80,"velocity":91,"channel":0},{"pitch":75,"velocity":79,"channel":0},{"pitch":44,"velocity":83,"channel":0},{"pitch":87,"velocity":97,"channel":0},{"pitch":39,"velocity":92,"channel":0},{"pitch":44,"velocity":90,"channel":0},{"pitch":51,"velocity":87,"channel":0},{"pitch":51,"velocity":93,"channel":0},{"pitch":8,"velocity":72,"channel":0},{"pitch":8,"velocity":83,"channel":0},{"pitch":3,"velocity":75,"channel":0},{"pitch":3,"velocity":85,"channel":0},{"pitch":44,"velocity":100,"channel":0},{"pitch":87,"velocity":87,"channel":0},{"pitch":51,"velocity":78,"channel":0},{"pitch":46,"velocity":84,"channel":0},{"pitch":51,"velocity":83,"channel":0},{"pitch":51,"velocity":82,"channel":0},{"pitch":51,"velocity":92,"channel":0},{"pitch":87,"velocity":95,"channel":0},{"pitch":87,"velocity":84,"channel":0},{"pitch":44,"velocity":91,"channel":0},{"pitch":51,"velocity":94,"channel":0},{"pitch":51,"velocity":74,"channel":0},{"pitch":51,"velocity":84,"channel":0},{"pitch":51,"velocity":80,"channel":0},{"pitch":46,"velocity":90,"channel":0},{"pitch":75,"velocity":80,"channel":0},{"pitch":51,"velocity":84,"channel":0},{"pitch":39,"velocity":75,"channel":0},{"pitch":80,"velocity":99,"channel":0},{"pitch":80,"velocity":92,"channel":0},{"pitch":44,"velocity":84,"channel":0},{"pitch":80,"velocity":92,"channel":0},{"pitch":75,"velocity":79,"channel":0},{"pitch":44,"velocity":89,"channel":0},{"pitch":92,"velocity":92,"channel":0},{"pitch":51,"velocity":79,"channel":0},{"pitch":56,"velocity":89,"channel":0},{"pitch":75,"velocity":76,"channel":0},{"pitch":92,"velocity":81,"channel":0},{"pitch":44,"velocity":79,"channel":0},{"pitch":44,"velocity":91,"channel":0},{"pitch":51,"velocity":72,"channel":0},{"pitch":39,"velocity":76,"channel":0},{"pitch":51,"velocity":79,"channel":0},{"pitch":51,"velocity":82,"channel":0},{"pitch":39,"velocity":107,"channel":0},{"pitch":51,"velocity":73,"channel":0},{"pitch":75,"velocity":92,"channel":0},{"pitch":75,"velocity":87,"channel":0},{"pitch":39,"velocity":102,"channel":0},{"pitch":56,"velocity":90,"channel":0},{"pitch":58,"velocity":69,"channel":0},{"pitch":39,"velocity":94,"channel":0},{"pitch":80,"velocity":77,"channel":0},{"pitch":92,"velocity":78,"channel":0},{"pitch":44,"velocity":87,"channel":0},{"pitch":51,"velocity":85,"channel":0},{"pitch":87,"velocity":84,"channel":0},{"pitch":51,"velocity":92,"channel":0},{"pitch":75,"velocity":96,"channel":0},{"pitch":39,"velocity":106,"channel":0},{"pitch":51,"velocity":85,"channel":0},{"pitch":56,"velocity":81,"channel":0},{"pitch":56,"velocity":83,"channel":0},{"pitch":44,"velocity":86,"channel":0},{"pitch":51,"velocity":85,"channel":0},{"pitch":51,"velocity":99,"channel":0},{"pitch":51,"velocity":81,"channel":0},{"pitch":51,"velocity":84,"channel":0},{"pitch":32,"velocity":99,"channel":0},{"pitch":34,"velocity":115,"channel":0}],"stageTiming":{"beat-setup":16.3397,"intent":0.014,"entropy":0.0178,"phase":0.0271,"climax":0.0208,"envelope":0.0322,"silhouette":0.03,"rest":0.0348,"complement":0.0026,"tension-cadence":0.0265,"negotiation":0.0282,"probability-adjust":0.0123,"emission":7.9736,"post-beat":0.035},"iterBudget":{"raw":300,"capped":150,"wasCapped":true}}
{"layer":"L2","beatKey":"0:0:0:11","timeMs":1929.8245614035086,"snap":{"key":"A#","mode":"locrian","quality":"minor","scale":["A#","B","C#","D#","E","F#","G#"],"chords":[],"tension":0.2858458816418885,"harmonicRhythm":0.33338377287365806,"harmonicMutationCount":8,"excursion":0,"sectionPhase":"opening","phrasePosition":0.8,"phrasePhase":"resolution","phraseDynamism":1,"registerBias":1.0534230275096785,"densityMultiplier":1.0351141009169893,"voiceIndependence":0.5,"compositeIntensity":0.34955546008782645,"playProb":0.3427583082730545,"stutterProb":0.47505733023765967,"flicker":1.1885495733762952,"textureMode":"flurry","textureFatigue":0,"densityBias":0,"crossModBias":1,"emissionRatio":0.8882997864076252,"extraDensityCorrection":1.022340042718475,"extraCoherenceDensityBias":1,"activeProfile":"restrained","journeyMove":"origin","journeyDistance":0,"journeyKey":"D#","journeyMode":"locrian","binauralFreqOffset":9,"binauralFlip":false,"tick":442500,"updatedAt":1772749134759},"negotiation":{"playProb":0.30165679964285075,"stutterProb":0.467873740760813,"allowCadence":false,"conflict":0.22739243727170444,"phaseConfidence":0.275},"trust":{"stutterContagion":{"score":0.655835715596801,"samples":72,"weight":1.4125},"cadenceAlignment":{"score":0.25052513911249885,"samples":72,"weight":1.1878938543343742},"phaseLock":{"score":0.25052513911249885,"samples":72,"weight":1.1878938543343742},"convergence":{"score":0.25052513911249885,"samples":72,"weight":1.1878938543343742},"feedbackOscillator":{"score":0.25052513911249885,"samples":72,"weight":1.1878938543343742},"coherenceMonitor":{"score":0.6893704023469684,"samples":72,"weight":1.5170278017602263},"entropyRegulator":{"score":0.74925,"samples":72,"weight":1.5619375},"restSynchronizer":{"score":0.25052513911249885,"samples":72,"weight":1.1878938543343742}},"regime":"evolving","coupling":{"density-tension":-0.786,"density-flicker":0.98,"density-entropy":-0.768,"density-trust":-0.966,"density-phase":0,"tension-flicker":-0.88,"tension-entropy":0.6,"tension-trust":0.86,"tension-phase":0,"flicker-entropy":-0.739,"flicker-trust":-0.973,"flicker-phase":0,"entropy-trust":0.691,"entropy-phase":0},"couplingTargets":{"density-tension":{"baseline":0.15,"current":0.1491,"rollingAbsCorr":0.0157,"rawRollingAbsCorr":0.0157,"gain":0.3,"heatPenalty":0,"effectivenessEma":0.475,"effMin":0.475,"effMax":0.475,"effActiveBeats":1,"hpPromoted":false},"density-flicker":{"baseline":0.12,"current":0.1191,"rollingAbsCorr":0.0196,"rawRollingAbsCorr":0.0196,"gain":0.2416,"heatPenalty":0.036,"effectivenessEma":0.475,"effMin":0.475,"effMax":0.475,"effActiveBeats":1,"hpPromoted":false},"density-entropy":{"baseline":0.12,"current":0.1191,"rollingAbsCorr":0.0384,"rawRollingAbsCorr":0.0384,"gain":0.22,"heatPenalty":0,"effectivenessEma":0.475,"effMin":0.475,"effMax":0.475,"effActiveBeats":1,"hpPromoted":false},"density-trust":{"baseline":0.2,"current":0.1991,"rollingAbsCorr":0.0193,"rawRollingAbsCorr":0.0193,"gain":0.229,"heatPenalty":0.01,"effectivenessEma":0.475,"effMin":0.475,"effMax":0.475,"effActiveBeats":1,"hpPromoted":false},"density-phase":{"baseline":0.06,"current":0.06,"rollingAbsCorr":0,"rawRollingAbsCorr":0,"gain":0.16,"heatPenalty":0,"effectivenessEma":0.5,"effMin":1,"effMax":0,"effActiveBeats":0,"hpPromoted":false},"tension-flicker":{"baseline":0.15,"current":0.1485,"rollingAbsCorr":0.0176,"rawRollingAbsCorr":0.0176,"gain":0.229,"heatPenalty":0.01,"effectivenessEma":0.475,"effMin":0.475,"effMax":0.475,"effActiveBeats":1,"hpPromoted":false},"tension-entropy":{"baseline":0.25,"current":0.2485,"rollingAbsCorr":0.03,"rawRollingAbsCorr":0.03,"gain":0.22,"heatPenalty":0,"effectivenessEma":0.475,"effMin":0.475,"effMax":0.475,"effActiveBeats":1,"hpPromoted":false},"tension-trust":{"baseline":0.15,"current":0.1485,"rollingAbsCorr":0.0172,"rawRollingAbsCorr":0.0172,"gain":0.229,"heatPenalty":0.01,"effectivenessEma":0.475,"effMin":0.475,"effMax":0.475,"effActiveBeats":1,"hpPromoted":false},"tension-phase":{"baseline":0.2,"current":0.1985,"rollingAbsCorr":0,"rawRollingAbsCorr":0,"gain":0.16,"heatPenalty":0,"effectivenessEma":0.5,"effMin":1,"effMax":0,"effActiveBeats":0,"hpPromoted":false},"flicker-entropy":{"baseline":0.18,"current":0.1785,"rollingAbsCorr":0.037,"rawRollingAbsCorr":0.037,"gain":0.22,"heatPenalty":0,"effectivenessEma":0.475,"effMin":0.475,"effMax":0.475,"effActiveBeats":1,"hpPromoted":false},"flicker-trust":{"baseline":0.12,"current":0.1185,"rollingAbsCorr":0.0195,"rawRollingAbsCorr":0.0195,"gain":0.229,"heatPenalty":0.01,"effectivenessEma":0.475,"effMin":0.475,"effMax":0.475,"effActiveBeats":1,"hpPromoted":false},"flicker-phase":{"baseline":0.08,"current":0.08,"rollingAbsCorr":0,"rawRollingAbsCorr":0,"gain":0.16,"heatPenalty":0,"effectivenessEma":0.5,"effMin":1,"effMax":0,"effActiveBeats":0,"hpPromoted":false},"entropy-trust":{"baseline":0.25,"current":0.25,"rollingAbsCorr":0.0345,"rawRollingAbsCorr":0.0345,"gain":0.16,"heatPenalty":0,"effectivenessEma":0.5,"effMin":1,"effMax":0,"effActiveBeats":0,"hpPromoted":false},"entropy-phase":{"baseline":0.1,"current":0.1,"rollingAbsCorr":0,"rawRollingAbsCorr":0,"gain":0.16,"heatPenalty":0,"effectivenessEma":0.5,"effMin":1,"effMax":0,"effActiveBeats":0,"hpPromoted":false}},"axisCouplingTotals":{"density":0.525,"tension":0.4689,"flicker":0.5358,"entropy":0.4197,"trust":0.5235,"phase":0},"axisEnergyShare":{"shares":{"density":0.2123,"tension":0.1896,"flicker":0.2167,"entropy":0.1697,"trust":0.2117,"phase":0},"axisGini":0.2055},"couplingGates":{"gateD":1,"gateT":1,"gateF":1,"floorDampen":1,"bypassD":0.22715,"bypassT":-0.251474,"bypassF":0.329553,"gateMinD":1,"gateMinT":1,"gateMinF":1,"gateEmaD":1,"gateEmaT":1,"gateEmaF":1,"gateBeatCount":6},"couplingHomeostasis":{"totalEnergyEma":8.243,"energyBudget":3.5,"peakEnergyEma":8.243,"totalEnergyFloor":8.0005,"floorDampen":0.2,"redistributionScore":0,"nudgeableRedistributionScore":0,"globalGainMultiplier":0.7355,"giniCoefficient":0.3458,"energyDeltaEma":0.8243,"pairTurbulenceEma":0,"beatCount":1,"invokeCount":6,"tickCount":73,"emptyMatrixBeats":5,"multiplierMin":0.7355,"multiplierMax":1,"multiplierStdDev":0.0653,"floorContactBeats":0,"ceilingContactBeats":61,"avgRecoveryDuration":0},"axisEnergyEquilibrator":{"beatCount":6,"pairAdjustments":0,"axisAdjustments":0,"smoothedShares":{"density":0.016984,"tension":0.015168,"flicker":0.017336,"entropy":0.013576,"trust":0.016936,"phase":0},"perAxisAdj":{},"perPairAdj":{},"lastBaselines":{},"regimeBeats":{},"regimePairAdj":{},"regimeAxisAdj":{},"regimeTightenBudget":{}},"transitionReadiness":{"gap":0.6264,"couplingStrength":0.7921,"coherentThreshold":0.1658,"velocity":0.065246,"velThreshold":0.008,"thresholdScale":0.65,"velocityBlocked":false,"exploringBlock":"dimension","rawRegimeCounts":{"coherent":1},"rawRegimeMaxStreak":{"coherent":1},"effectiveDim":1.6955},"notes":[{"pitch":51,"velocity":90,"channel":0},{"pitch":39,"velocity":73,"channel":0},{"pitch":87,"velocity":79,"channel":0},{"pitch":75,"velocity":75,"channel":0},{"pitch":82,"velocity":91,"channel":0},{"pitch":51,"velocity":91,"channel":0},{"pitch":22,"velocity":95,"channel":0},{"pitch":68,"velocity":94,"channel":0},{"pitch":75,"velocity":88,"channel":0},{"pitch":75,"velocity":95,"channel":0},{"pitch":75,"velocity":101,"channel":0},{"pitch":51,"velocity":88,"channel":0},{"pitch":75,"velocity":96,"channel":0},{"pitch":58,"velocity":77,"channel":0},{"pitch":27,"velocity":92,"channel":0},{"pitch":80,"velocity":81,"channel":0},{"pitch":51,"velocity":98,"channel":0},{"pitch":39,"velocity":103,"channel":0},{"pitch":44,"velocity":81,"channel":0},{"pitch":56,"velocity":95,"channel":0},{"pitch":44,"velocity":95,"channel":0},{"pitch":51,"velocity":84,"channel":0},{"pitch":82,"velocity":95,"channel":0},{"pitch":51,"velocity":82,"channel":0},{"pitch":46,"velocity":95,"channel":0},{"pitch":15,"velocity":88,"channel":0},{"pitch":8,"velocity":85,"channel":0},{"pitch":20,"velocity":100,"channel":0},{"pitch":46,"velocity":95,"channel":0},{"pitch":94,"velocity":87,"channel":0},{"pitch":34,"velocity":102,"channel":0},{"pitch":82,"velocity":95,"channel":0},{"pitch":46,"velocity":91,"channel":0},{"pitch":39,"velocity":88,"channel":0},{"pitch":44,"velocity":92,"channel":0},{"pitch":80,"velocity":81,"channel":0},{"pitch":51,"velocity":92,"channel":0},{"pitch":51,"velocity":86,"channel":0},{"pitch":39,"velocity":81,"channel":0},{"pitch":44,"velocity":86,"channel":0},{"pitch":39,"velocity":89,"channel":0},{"pitch":44,"velocity":80,"channel":0},{"pitch":20,"velocity":61,"channel":0},{"pitch":80,"velocity":103,"channel":0},{"pitch":44,"velocity":84,"channel":0},{"pitch":39,"velocity":101,"channel":0},{"pitch":51,"velocity":75,"channel":0},{"pitch":51,"velocity":100,"channel":0},{"pitch":51,"velocity":92,"channel":0},{"pitch":75,"velocity":91,"channel":0},{"pitch":44,"velocity":89,"channel":0},{"pitch":80,"velocity":78,"channel":0},{"pitch":75,"velocity":80,"channel":0},{"pitch":51,"velocity":93,"channel":0},{"pitch":75,"velocity":98,"channel":0},{"pitch":51,"velocity":97,"channel":0},{"pitch":44,"velocity":99,"channel":0},{"pitch":44,"velocity":85,"channel":0},{"pitch":44,"velocity":88,"channel":0},{"pitch":75,"velocity":102,"channel":0},{"pitch":51,"velocity":95,"channel":0},{"pitch":80,"velocity":84,"channel":0},{"pitch":87,"velocity":75,"channel":0},{"pitch":51,"velocity":81,"channel":0},{"pitch":51,"velocity":92,"channel":0},{"pitch":39,"velocity":89,"channel":0},{"pitch":75,"velocity":105,"channel":0},{"pitch":75,"velocity":101,"channel":0},{"pitch":44,"velocity":89,"channel":0},{"pitch":46,"velocity":87,"channel":0},{"pitch":51,"velocity":75,"channel":0},{"pitch":51,"velocity":76,"channel":0},{"pitch":51,"velocity":88,"channel":0},{"pitch":44,"velocity":103,"channel":0},{"pitch":51,"velocity":77,"channel":0},{"pitch":46,"velocity":73,"channel":0},{"pitch":46,"velocity":91,"channel":0},{"pitch":44,"velocity":100,"channel":0},{"pitch":51,"velocity":95,"channel":0},{"pitch":75,"velocity":94,"channel":0},{"pitch":80,"velocity":83,"channel":0},{"pitch":51,"velocity":85,"channel":0},{"pitch":51,"velocity":88,"channel":0},{"pitch":51,"velocity":85,"channel":0},{"pitch":51,"velocity":85,"channel":0},{"pitch":75,"velocity":93,"channel":0},{"pitch":51,"velocity":88,"channel":0},{"pitch":51,"velocity":88,"channel":0},{"pitch":39,"velocity":98,"channel":0},{"pitch":44,"velocity":98,"channel":0},{"pitch":44,"velocity":97,"channel":0},{"pitch":44,"velocity":95,"channel":0},{"pitch":39,"velocity":101,"channel":0},{"pitch":44,"velocity":83,"channel":0},{"pitch":44,"velocity":96,"channel":0},{"pitch":44,"velocity":96,"channel":0},{"pitch":87,"velocity":99,"channel":0},{"pitch":80,"velocity":84,"channel":0},{"pitch":44,"velocity":87,"channel":0},{"pitch":44,"velocity":75,"channel":0},{"pitch":39,"velocity":102,"channel":0},{"pitch":80,"velocity":95,"channel":0},{"pitch":44,"velocity":86,"channel":0},{"pitch":44,"velocity":95,"channel":0}],"stageTiming":{"beat-setup":13.3496,"intent":0.0109,"entropy":0.0148,"phase":0.0214,"climax":0.0364,"envelope":0.0321,"silhouette":0.0211,"rest":0.0279,"complement":0.0026,"tension-cadence":0.0207,"negotiation":0.0287,"probability-adjust":0.0052,"emission":2.9709,"post-beat":0.0257},"iterBudget":{"raw":24,"capped":24,"wasCapped":false}}
{"layer":"L2","beatKey":"0:0:0:12","timeMs":2105.2631578947367,"snap":{"key":"A#","mode":"locrian","quality":"minor","scale":["A#","B","C#","D#","E","F#","G#"],"chords":[],"tension":0.2858458816418885,"harmonicRhythm":0.33338377287365806,"harmonicMutationCount":8,"excursion":0,"sectionPhase":"opening","phrasePosition":0.8,"phrasePhase":"resolution","phraseDynamism":1,"registerBias":1.0534230275096785,"densityMultiplier":1.0351141009169893,"voiceIndependence":0.5,"compositeIntensity":0.34955546008782645,"playProb":0.3427583082730545,"stutterProb":0.47505733023765967,"flicker":1.1885495733762952,"textureMode":"flurry","textureFatigue":0,"densityBias":0,"crossModBias":1,"emissionRatio":0.8882997864076252,"extraDensityCorrection":1.022340042718475,"extraCoherenceDensityBias":1,"activeProfile":"restrained","journeyMove":"origin","journeyDistance":0,"journeyKey":"D#","journeyMode":"locrian","binauralFreqOffset":9,"binauralFlip":false,"tick":442500,"updatedAt":1772749134759},"negotiation":{"playProb":0.3030983828748957,"stutterProb":0.4707809946627064,"allowCadence":false,"conflict":0.22460614566562587,"phaseConfidence":0.275},"trust":{"stutterContagion":{"score":0.6748557835253565,"samples":73,"weight":1.4125},"cadenceAlignment":{"score":0.25311913464163427,"samples":73,"weight":1.1898393509812257},"phaseLock":{"score":0.25311913464163427,"samples":73,"weight":1.1898393509812257},"convergence":{"score":0.25311913464163427,"samples":73,"weight":1.1898393509812257},"feedbackOscillator":{"score":0.25311913464163427,"samples":73,"weight":1.1898393509812257},"coherenceMonitor":{"score":0.6898576910809894,"samples":73,"weight":1.517393268310742},"entropyRegulator":{"score":0.74925,"samples":73,"weight":1.5619375},"restSynchronizer":{"score":0.25311913464163427,"samples":73,"weight":1.1898393509812257}},"regime":"evolving","coupling":{"density-tension":-0.786,"density-flicker":0.98,"density-entropy":-0.768,"density-trust":-0.966,"density-phase":0,"tension-flicker":-0.88,"tension-entropy":0.6,"tension-trust":0.86,"tension-phase":0,"flicker-entropy":-0.739,"flicker-trust":-0.973,"flicker-phase":0,"entropy-trust":0.691,"entropy-phase":0},"couplingTargets":{"density-tension":{"baseline":0.15,"current":0.1491,"rollingAbsCorr":0.0157,"rawRollingAbsCorr":0.0157,"gain":0.3,"heatPenalty":0,"effectivenessEma":0.475,"effMin":0.475,"effMax":0.475,"effActiveBeats":1,"hpPromoted":false},"density-flicker":{"baseline":0.12,"current":0.1191,"rollingAbsCorr":0.0196,"rawRollingAbsCorr":0.0196,"gain":0.2416,"heatPenalty":0.036,"effectivenessEma":0.475,"effMin":0.475,"effMax":0.475,"effActiveBeats":1,"hpPromoted":false},"density-entropy":{"baseline":0.12,"current":0.1191,"rollingAbsCorr":0.0384,"rawRollingAbsCorr":0.0384,"gain":0.22,"heatPenalty":0,"effectivenessEma":0.475,"effMin":0.475,"effMax":0.475,"effActiveBeats":1,"hpPromoted":false},"density-trust":{"baseline":0.2,"current":0.1991,"rollingAbsCorr":0.0193,"rawRollingAbsCorr":0.0193,"gain":0.229,"heatPenalty":0.01,"effectivenessEma":0.475,"effMin":0.475,"effMax":0.475,"effActiveBeats":1,"hpPromoted":false},"density-phase":{"baseline":0.06,"current":0.06,"rollingAbsCorr":0,"rawRollingAbsCorr":0,"gain":0.16,"heatPenalty":0,"effectivenessEma":0.5,"effMin":1,"effMax":0,"effActiveBeats":0,"hpPromoted":false},"tension-flicker":{"baseline":0.15,"current":0.1485,"rollingAbsCorr":0.0176,"rawRollingAbsCorr":0.0176,"gain":0.229,"heatPenalty":0.01,"effectivenessEma":0.475,"effMin":0.475,"effMax":0.475,"effActiveBeats":1,"hpPromoted":false},"tension-entropy":{"baseline":0.25,"current":0.2485,"rollingAbsCorr":0.03,"rawRollingAbsCorr":0.03,"gain":0.22,"heatPenalty":0,"effectivenessEma":0.475,"effMin":0.475,"effMax":0.475,"effActiveBeats":1,"hpPromoted":false},"tension-trust":{"baseline":0.15,"current":0.1485,"rollingAbsCorr":0.0172,"rawRollingAbsCorr":0.0172,"gain":0.229,"heatPenalty":0.01,"effectivenessEma":0.475,"effMin":0.475,"effMax":0.475,"effActiveBeats":1,"hpPromoted":false},"tension-phase":{"baseline":0.2,"current":0.1985,"rollingAbsCorr":0,"rawRollingAbsCorr":0,"gain":0.16,"heatPenalty":0,"effectivenessEma":0.5,"effMin":1,"effMax":0,"effActiveBeats":0,"hpPromoted":false},"flicker-entropy":{"baseline":0.18,"current":0.1785,"rollingAbsCorr":0.037,"rawRollingAbsCorr":0.037,"gain":0.22,"heatPenalty":0,"effectivenessEma":0.475,"effMin":0.475,"effMax":0.475,"effActiveBeats":1,"hpPromoted":false},"flicker-trust":{"baseline":0.12,"current":0.1185,"rollingAbsCorr":0.0195,"rawRollingAbsCorr":0.0195,"gain":0.229,"heatPenalty":0.01,"effectivenessEma":0.475,"effMin":0.475,"effMax":0.475,"effActiveBeats":1,"hpPromoted":false},"flicker-phase":{"baseline":0.08,"current":0.08,"rollingAbsCorr":0,"rawRollingAbsCorr":0,"gain":0.16,"heatPenalty":0,"effectivenessEma":0.5,"effMin":1,"effMax":0,"effActiveBeats":0,"hpPromoted":false},"entropy-trust":{"baseline":0.25,"current":0.25,"rollingAbsCorr":0.0345,"rawRollingAbsCorr":0.0345,"gain":0.16,"heatPenalty":0,"effectivenessEma":0.5,"effMin":1,"effMax":0,"effActiveBeats":0,"hpPromoted":false},"entropy-phase":{"baseline":0.1,"current":0.1,"rollingAbsCorr":0,"rawRollingAbsCorr":0,"gain":0.16,"heatPenalty":0,"effectivenessEma":0.5,"effMin":1,"effMax":0,"effActiveBeats":0,"hpPromoted":false}},"axisCouplingTotals":{"density":0.525,"tension":0.4689,"flicker":0.5358,"entropy":0.4197,"trust":0.5235,"phase":0},"axisEnergyShare":{"shares":{"density":0.2123,"tension":0.1896,"flicker":0.2167,"entropy":0.1697,"trust":0.2117,"phase":0},"axisGini":0.2055},"couplingGates":{"gateD":1,"gateT":1,"gateF":1,"floorDampen":1,"bypassD":0.22715,"bypassT":-0.251474,"bypassF":0.329553,"gateMinD":1,"gateMinT":1,"gateMinF":1,"gateEmaD":1,"gateEmaT":1,"gateEmaF":1,"gateBeatCount":6},"couplingHomeostasis":{"totalEnergyEma":8.243,"energyBudget":3.5,"peakEnergyEma":8.243,"totalEnergyFloor":8.0005,"floorDampen":0.2,"redistributionScore":0,"nudgeableRedistributionScore":0,"globalGainMultiplier":0.72,"giniCoefficient":0.3458,"energyDeltaEma":0.8243,"pairTurbulenceEma":0,"beatCount":1,"invokeCount":6,"tickCount":74,"emptyMatrixBeats":5,"multiplierMin":0.72,"multiplierMax":1,"multiplierStdDev":0.0712,"floorContactBeats":0,"ceilingContactBeats":61,"avgRecoveryDuration":0},"axisEnergyEquilibrator":{"beatCount":6,"pairAdjustments":0,"axisAdjustments":0,"smoothedShares":{"density":0.016984,"tension":0.015168,"flicker":0.017336,"entropy":0.013576,"trust":0.016936,"phase":0},"perAxisAdj":{},"perPairAdj":{},"lastBaselines":{},"regimeBeats":{},"regimePairAdj":{},"regimeAxisAdj":{},"regimeTightenBudget":{}},"transitionReadiness":{"gap":0.6264,"couplingStrength":0.7921,"coherentThreshold":0.1658,"velocity":0.065246,"velThreshold":0.008,"thresholdScale":0.65,"velocityBlocked":false,"exploringBlock":"dimension","rawRegimeCounts":{"coherent":1},"rawRegimeMaxStreak":{"coherent":1},"effectiveDim":1.6955},"notes":[{"pitch":58,"velocity":75,"channel":0},{"pitch":44,"velocity":90,"channel":0},{"pitch":58,"velocity":92,"channel":0},{"pitch":58,"velocity":75,"channel":0},{"pitch":82,"velocity":79,"channel":0},{"pitch":58,"velocity":85,"channel":0},{"pitch":58,"velocity":75,"channel":0},{"pitch":82,"velocity":80,"channel":0},{"pitch":44,"velocity":90,"channel":0},{"pitch":80,"velocity":99,"channel":0},{"pitch":80,"velocity":80,"channel":0},{"pitch":80,"velocity":93,"channel":0},{"pitch":51,"velocity":97,"channel":0},{"pitch":75,"velocity":112,"channel":0},{"pitch":32,"velocity":94,"channel":0},{"pitch":87,"velocity":83,"channel":0},{"pitch":87,"velocity":83,"channel":0},{"pitch":44,"velocity":90,"channel":0},{"pitch":51,"velocity":103,"channel":0},{"pitch":3,"velocity":98,"channel":0},{"pitch":51,"velocity":82,"channel":0},{"pitch":80,"velocity":98,"channel":0},{"pitch":39,"velocity":76,"channel":0},{"pitch":10,"velocity":101,"channel":0},{"pitch":51,"velocity":86,"channel":0},{"pitch":39,"velocity":100,"channel":0},{"pitch":75,"velocity":82,"channel":0},{"pitch":87,"velocity":100,"channel":0},{"pitch":80,"velocity":73,"channel":0},{"pitch":56,"velocity":92,"channel":0},{"pitch":51,"velocity":73,"channel":0},{"pitch":51,"velocity":90,"channel":0},{"pitch":51,"velocity":92,"channel":0},{"pitch":56,"velocity":79,"channel":0},{"pitch":56,"velocity":86,"channel":0},{"pitch":44,"velocity":101,"channel":0},{"pitch":51,"velocity":105,"channel":0},{"pitch":51,"velocity":95,"channel":0},{"pitch":44,"velocity":84,"channel":0},{"pitch":51,"velocity":100,"channel":0},{"pitch":75,"velocity":95,"channel":0},{"pitch":3,"velocity":74,"channel":0},{"pitch":56,"velocity":106,"channel":0},{"pitch":75,"velocity":98,"channel":0},{"pitch":51,"velocity":94,"channel":0},{"pitch":3,"velocity":106,"channel":0},{"pitch":56,"velocity":84,"channel":0},{"pitch":44,"velocity":107,"channel":0},{"pitch":51,"velocity":89,"channel":0},{"pitch":44,"velocity":99,"channel":0},{"pitch":51,"velocity":94,"channel":0},{"pitch":51,"velocity":88,"channel":0},{"pitch":75,"velocity":87,"channel":0},{"pitch":44,"velocity":76,"channel":0},{"pitch":51,"velocity":90,"channel":0},{"pitch":10,"velocity":90,"channel":0},{"pitch":51,"velocity":75,"channel":0},{"pitch":51,"velocity":84,"channel":0},{"pitch":51,"velocity":92,"channel":0},{"pitch":56,"velocity":93,"channel":0},{"pitch":51,"velocity":90,"channel":0},{"pitch":51,"velocity":84,"channel":0},{"pitch":51,"velocity":94,"channel":0},{"pitch":51,"velocity":98,"channel":0},{"pitch":51,"velocity":88,"channel":0},{"pitch":75,"velocity":91,"channel":0},{"pitch":51,"velocity":98,"channel":0},{"pitch":56,"velocity":100,"channel":0},{"pitch":80,"velocity":116,"channel":0},{"pitch":34,"velocity":116,"channel":0}],"stageTiming":{"beat-setup":16.8219,"intent":0.0115,"entropy":0.016,"phase":0.0198,"climax":0.0177,"envelope":0.0116,"silhouette":0.0137,"rest":0.0254,"complement":0.0012,"tension-cadence":0.0206,"negotiation":0.0228,"probability-adjust":0.0044,"emission":3.8184,"post-beat":0.0232},"iterBudget":{"raw":54,"capped":54,"wasCapped":false}}
{"layer":"L2","beatKey":"0:0:0:13","timeMs":2280.7017543859647,"snap":{"key":"A#","mode":"locrian","quality":"minor","scale":["A#","B","C#","D#","E","F#","G#"],"chords":[],"tension":0.2858458816418885,"harmonicRhythm":0.33338377287365806,"harmonicMutationCount":8,"excursion":0,"sectionPhase":"opening","phrasePosition":0.8,"phrasePhase":"resolution","phraseDynamism":1,"registerBias":1.0534230275096785,"densityMultiplier":1.0351141009169893,"voiceIndependence":0.5,"compositeIntensity":0.34955546008782645,"playProb":0.3427583082730545,"stutterProb":0.47505733023765967,"flicker":1.1885495733762952,"textureMode":"flurry","textureFatigue":0,"densityBias":0,"crossModBias":1,"emissionRatio":0.8882997864076252,"extraDensityCorrection":1.022340042718475,"extraCoherenceDensityBias":1,"activeProfile":"restrained","journeyMove":"origin","journeyDistance":0,"journeyKey":"D#","journeyMode":"locrian","binauralFreqOffset":9,"binauralFlip":false,"tick":442500,"updatedAt":1772749134759},"negotiation":{"playProb":0.30451707439963943,"stutterProb":0.47369589462933664,"allowCadence":false,"conflict":0.22266064901877436,"phaseConfidence":0.275},"trust":{"stutterContagion":{"score":0.6950030044179738,"samples":74,"weight":1.4125},"cadenceAlignment":{"score":0.25577839144284936,"samples":74,"weight":1.191833793582137},"phaseLock":{"score":0.25577839144284936,"samples":74,"weight":1.191833793582137},"convergence":{"score":0.25577839144284936,"samples":74,"weight":1.191833793582137},"feedbackOscillator":{"score":0.25577839144284936,"samples":74,"weight":1.191833793582137},"coherenceMonitor":{"score":0.6926483029067096,"samples":74,"weight":1.5194862271800322},"entropyRegulator":{"score":0.74925,"samples":74,"weight":1.5619375},"restSynchronizer":{"score":0.25577839144284936,"samples":74,"weight":1.191833793582137}},"regime":"evolving","coupling":{"density-tension":-0.786,"density-flicker":0.98,"density-entropy":-0.768,"density-trust":-0.966,"density-phase":0,"tension-flicker":-0.88,"tension-entropy":0.6,"tension-trust":0.86,"tension-phase":0,"flicker-entropy":-0.739,"flicker-trust":-0.973,"flicker-phase":0,"entropy-trust":0.691,"entropy-phase":0},"couplingTargets":{"density-tension":{"baseline":0.15,"current":0.1491,"rollingAbsCorr":0.0157,"rawRollingAbsCorr":0.0157,"gain":0.3,"heatPenalty":0,"effectivenessEma":0.475,"effMin":0.475,"effMax":0.475,"effActiveBeats":1,"hpPromoted":false},"density-flicker":{"baseline":0.12,"current":0.1191,"rollingAbsCorr":0.0196,"rawRollingAbsCorr":0.0196,"gain":0.2416,"heatPenalty":0.036,"effectivenessEma":0.475,"effMin":0.475,"effMax":0.475,"effActiveBeats":1,"hpPromoted":false},"density-entropy":{"baseline":0.12,"current":0.1191,"rollingAbsCorr":0.0384,"rawRollingAbsCorr":0.0384,"gain":0.22,"heatPenalty":0,"effectivenessEma":0.475,"effMin":0.475,"effMax":0.475,"effActiveBeats":1,"hpPromoted":false},"density-trust":{"baseline":0.2,"current":0.1991,"rollingAbsCorr":0.0193,"rawRollingAbsCorr":0.0193,"gain":0.229,"heatPenalty":0.01,"effectivenessEma":0.475,"effMin":0.475,"effMax":0.475,"effActiveBeats":1,"hpPromoted":false},"density-phase":{"baseline":0.06,"current":0.06,"rollingAbsCorr":0,"rawRollingAbsCorr":0,"gain":0.16,"heatPenalty":0,"effectivenessEma":0.5,"effMin":1,"effMax":0,"effActiveBeats":0,"hpPromoted":false},"tension-flicker":{"baseline":0.15,"current":0.1485,"rollingAbsCorr":0.0176,"rawRollingAbsCorr":0.0176,"gain":0.229,"heatPenalty":0.01,"effectivenessEma":0.475,"effMin":0.475,"effMax":0.475,"effActiveBeats":1,"hpPromoted":false},"tension-entropy":{"baseline":0.25,"current":0.2485,"rollingAbsCorr":0.03,"rawRollingAbsCorr":0.03,"gain":0.22,"heatPenalty":0,"effectivenessEma":0.475,"effMin":0.475,"effMax":0.475,"effActiveBeats":1,"hpPromoted":false},"tension-trust":{"baseline":0.15,"current":0.1485,"rollingAbsCorr":0.0172,"rawRollingAbsCorr":0.0172,"gain":0.229,"heatPenalty":0.01,"effectivenessEma":0.475,"effMin":0.475,"effMax":0.475,"effActiveBeats":1,"hpPromoted":false},"tension-phase":{"baseline":0.2,"current":0.1985,"rollingAbsCorr":0,"rawRollingAbsCorr":0,"gain":0.16,"heatPenalty":0,"effectivenessEma":0.5,"effMin":1,"effMax":0,"effActiveBeats":0,"hpPromoted":false},"flicker-entropy":{"baseline":0.18,"current":0.1785,"rollingAbsCorr":0.037,"rawRollingAbsCorr":0.037,"gain":0.22,"heatPenalty":0,"effectivenessEma":0.475,"effMin":0.475,"effMax":0.475,"effActiveBeats":1,"hpPromoted":false},"flicker-trust":{"baseline":0.12,"current":0.1185,"rollingAbsCorr":0.0195,"rawRollingAbsCorr":0.0195,"gain":0.229,"heatPenalty":0.01,"effectivenessEma":0.475,"effMin":0.475,"effMax":0.475,"effActiveBeats":1,"hpPromoted":false},"flicker-phase":{"baseline":0.08,"current":0.08,"rollingAbsCorr":0,"rawRollingAbsCorr":0,"gain":0.16,"heatPenalty":0,"effectivenessEma":0.5,"effMin":1,"effMax":0,"effActiveBeats":0,"hpPromoted":false},"entropy-trust":{"baseline":0.25,"current":0.25,"rollingAbsCorr":0.0345,"rawRollingAbsCorr":0.0345,"gain":0.16,"heatPenalty":0,"effectivenessEma":0.5,"effMin":1,"effMax":0,"effActiveBeats":0,"hpPromoted":false},"entropy-phase":{"baseline":0.1,"current":0.1,"rollingAbsCorr":0,"rawRollingAbsCorr":0,"gain":0.16,"heatPenalty":0,"effectivenessEma":0.5,"effMin":1,"effMax":0,"effActiveBeats":0,"hpPromoted":false}},"axisCouplingTotals":{"density":0.525,"tension":0.4689,"flicker":0.5358,"entropy":0.4197,"trust":0.5235,"phase":0},"axisEnergyShare":{"shares":{"density":0.2123,"tension":0.1896,"flicker":0.2167,"entropy":0.1697,"trust":0.2117,"phase":0},"axisGini":0.2055},"couplingGates":{"gateD":1,"gateT":1,"gateF":1,"floorDampen":1,"bypassD":0.22715,"bypassT":-0.251474,"bypassF":0.329553,"gateMinD":1,"gateMinT":1,"gateMinF":1,"gateEmaD":1,"gateEmaT":1,"gateEmaF":1,"gateBeatCount":6},"couplingHomeostasis":{"totalEnergyEma":8.243,"energyBudget":3.5,"peakEnergyEma":8.243,"totalEnergyFloor":8.0005,"floorDampen":0.2,"redistributionScore":0,"nudgeableRedistributionScore":0,"globalGainMultiplier":0.7052,"giniCoefficient":0.3458,"energyDeltaEma":0.8243,"pairTurbulenceEma":0,"beatCount":1,"invokeCount":6,"tickCount":75,"emptyMatrixBeats":5,"multiplierMin":0.7052,"multiplierMax":1,"multiplierStdDev":0.077,"floorContactBeats":0,"ceilingContactBeats":61,"avgRecoveryDuration":0},"axisEnergyEquilibrator":{"beatCount":6,"pairAdjustments":0,"axisAdjustments":0,"smoothedShares":{"density":0.016984,"tension":0.015168,"flicker":0.017336,"entropy":0.013576,"trust":0.016936,"phase":0},"perAxisAdj":{},"perPairAdj":{},"lastBaselines":{},"regimeBeats":{},"regimePairAdj":{},"regimeAxisAdj":{},"regimeTightenBudget":{}},"transitionReadiness":{"gap":0.6264,"couplingStrength":0.7921,"coherentThreshold":0.1658,"velocity":0.065246,"velThreshold":0.008,"thresholdScale":0.65,"velocityBlocked":false,"exploringBlock":"dimension","rawRegimeCounts":{"coherent":1},"rawRegimeMaxStreak":{"coherent":1},"effectiveDim":1.6955},"notes":[{"pitch":44,"velocity":79,"channel":0},{"pitch":87,"velocity":98,"channel":0},{"pitch":51,"velocity":89,"channel":0},{"pitch":44,"velocity":99,"channel":0},{"pitch":75,"velocity":98,"channel":0},{"pitch":87,"velocity":99,"channel":0},{"pitch":51,"velocity":81,"channel":0},{"pitch":51,"velocity":90,"channel":0},{"pitch":44,"velocity":101,"channel":0},{"pitch":87,"velocity":81,"channel":0},{"pitch":44,"velocity":89,"channel":0},{"pitch":51,"velocity":88,"channel":0},{"pitch":87,"velocity":91,"channel":0},{"pitch":56,"velocity":97,"channel":0},{"pitch":80,"velocity":108,"channel":0},{"pitch":87,"velocity":87,"channel":0},{"pitch":75,"velocity":113,"channel":0},{"pitch":51,"velocity":97,"channel":0},{"pitch":44,"velocity":106,"channel":0},{"pitch":51,"velocity":71,"channel":0},{"pitch":87,"velocity":101,"channel":0},{"pitch":51,"velocity":90,"channel":0},{"pitch":51,"velocity":107,"channel":0},{"pitch":75,"velocity":103,"channel":0},{"pitch":44,"velocity":102,"channel":0},{"pitch":51,"velocity":89,"channel":0},{"pitch":51,"velocity":82,"channel":0},{"pitch":56,"velocity":101,"channel":0},{"pitch":56,"velocity":97,"channel":0},{"pitch":39,"velocity":96,"channel":0},{"pitch":44,"velocity":74,"channel":0},{"pitch":3,"velocity":78,"channel":0},{"pitch":51,"velocity":84,"channel":0},{"pitch":75,"velocity":105,"channel":0},{"pitch":22,"velocity":88,"channel":0},{"pitch":92,"velocity":84,"channel":0},{"pitch":51,"velocity":100,"channel":0},{"pitch":75,"velocity":79,"channel":0},{"pitch":63,"velocity":91,"channel":0},{"pitch":63,"velocity":97,"channel":0},{"pitch":56,"velocity":89,"channel":0},{"pitch":56,"velocity":86,"channel":0},{"pitch":56,"velocity":104,"channel":0},{"pitch":39,"velocity":110,"channel":0},{"pitch":80,"velocity":92,"channel":0},{"pitch":46,"velocity":107,"channel":0},{"pitch":51,"velocity":105,"channel":0},{"pitch":51,"velocity":89,"channel":0},{"pitch":39,"velocity":107,"channel":0},{"pitch":56,"velocity":77,"channel":0},{"pitch":68,"velocity":121,"channel":0},{"pitch":56,"velocity":99,"channel":0},{"pitch":44,"velocity":97,"channel":0},{"pitch":51,"velocity":84,"channel":0},{"pitch":51,"velocity":96,"channel":0},{"pitch":51,"velocity":90,"channel":0},{"pitch":51,"velocity":97,"channel":0},{"pitch":51,"velocity":104,"channel":0},{"pitch":51,"velocity":95,"channel":0},{"pitch":56,"velocity":101,"channel":0},{"pitch":56,"velocity":86,"channel":0},{"pitch":56,"velocity":100,"channel":0},{"pitch":44,"velocity":85,"channel":0},{"pitch":51,"velocity":95,"channel":0},{"pitch":51,"velocity":100,"channel":0},{"pitch":92,"velocity":102,"channel":0},{"pitch":44,"velocity":102,"channel":0},{"pitch":51,"velocity":95,"channel":0},{"pitch":44,"velocity":105,"channel":0},{"pitch":39,"velocity":90,"channel":0},{"pitch":56,"velocity":92,"channel":0},{"pitch":27,"velocity":95,"channel":0},{"pitch":80,"velocity":91,"channel":0},{"pitch":46,"velocity":84,"channel":0},{"pitch":51,"velocity":90,"channel":0},{"pitch":75,"velocity":99,"channel":0},{"pitch":82,"velocity":96,"channel":0},{"pitch":51,"velocity":105,"channel":0},{"pitch":75,"velocity":80,"channel":0},{"pitch":51,"velocity":92,"channel":0},{"pitch":44,"velocity":85,"channel":0},{"pitch":75,"velocity":102,"channel":0},{"pitch":44,"velocity":110,"channel":0},{"pitch":51,"velocity":91,"channel":0},{"pitch":92,"velocity":89,"channel":0},{"pitch":56,"velocity":111,"channel":0},{"pitch":51,"velocity":90,"channel":0},{"pitch":82,"velocity":93,"channel":0},{"pitch":58,"velocity":104,"channel":0},{"pitch":58,"velocity":83,"channel":0},{"pitch":58,"velocity":89,"channel":0},{"pitch":58,"velocity":87,"channel":0},{"pitch":58,"velocity":99,"channel":0},{"pitch":82,"velocity":90,"channel":0},{"pitch":58,"velocity":88,"channel":0},{"pitch":46,"velocity":91,"channel":0},{"pitch":51,"velocity":92,"channel":0},{"pitch":56,"velocity":90,"channel":0},{"pitch":51,"velocity":104,"channel":0},{"pitch":51,"velocity":85,"channel":0},{"pitch":80,"velocity":102,"channel":0},{"pitch":46,"velocity":94,"channel":0},{"pitch":51,"velocity":108,"channel":0},{"pitch":87,"velocity":80,"channel":0},{"pitch":51,"velocity":90,"channel":0}],"stageTiming":{"beat-setup":39.0763,"intent":0.011,"entropy":0.0157,"phase":0.0222,"climax":0.0382,"envelope":0.0139,"silhouette":0.0259,"rest":0.0313,"complement":0.0014,"tension-cadence":0.0226,"negotiation":0.0226,"probability-adjust":0.0051,"emission":1.8104,"post-beat":0.0237},"iterBudget":{"raw":336,"capped":80,"wasCapped":true}}
{"layer":"L2","beatKey":"0:0:0:14","timeMs":2456.1403508771928,"snap":{"key":"A#","mode":"locrian","quality":"minor","scale":["A#","B","C#","D#","E","F#","G#"],"chords":[],"tension":0.2858458816418885,"harmonicRhythm":0.33338377287365806,"harmonicMutationCount":8,"excursion":0,"sectionPhase":"opening","phrasePosition":0.8,"phrasePhase":"resolution","phraseDynamism":1,"registerBias":1.0534230275096785,"densityMultiplier":1.0351141009169893,"voiceIndependence":0.5,"compositeIntensity":0.34955546008782645,"playProb":0.3427583082730545,"stutterProb":0.47505733023765967,"flicker":1.1885495733762952,"textureMode":"flurry","textureFatigue":0,"densityBias":0,"crossModBias":1,"emissionRatio":0.8882997864076252,"extraDensityCorrection":1.022340042718475,"extraCoherenceDensityBias":1,"activeProfile":"restrained","journeyMove":"origin","journeyDistance":0,"journeyKey":"D#","journeyMode":"locrian","binauralFreqOffset":9,"binauralFlip":false,"tick":442500,"updatedAt":1772749134759},"negotiation":{"playProb":0.3059339728156705,"stutterProb":0.4766166040043354,"allowCadence":false,"conflict":0.22066620641786305,"phaseConfidence":0.275},"trust":{"stutterContagion":{"score":0.7124023827952431,"samples":75,"weight":1.4125},"cadenceAlignment":{"score":0.2582345472124522,"samples":75,"weight":1.193675910409339},"phaseLock":{"score":0.2582345472124522,"samples":75,"weight":1.193675910409339},"convergence":{"score":0.2582345472124522,"samples":75,"weight":1.193675910409339},"feedbackOscillator":{"score":0.2582345472124522,"samples":75,"weight":1.193675910409339},"coherenceMonitor":{"score":0.6953787217149121,"samples":75,"weight":1.5215340412861842},"entropyRegulator":{"score":0.74925,"samples":75,"weight":1.5619375},"restSynchronizer":{"score":0.2582345472124522,"samples":75,"weight":1.193675910409339}},"regime":"evolving","coupling":{"density-tension":-0.786,"density-flicker":0.98,"density-entropy":-0.768,"density-trust":-0.966,"density-phase":0,"tension-flicker":-0.88,"tension-entropy":0.6,"tension-trust":0.86,"tension-phase":0,"flicker-entropy":-0.739,"flicker-trust":-0.973,"flicker-phase":0,"entropy-trust":0.691,"entropy-phase":0},"couplingTargets":{"density-tension":{"baseline":0.15,"current":0.1491,"rollingAbsCorr":0.0157,"rawRollingAbsCorr":0.0157,"gain":0.3,"heatPenalty":0,"effectivenessEma":0.475,"effMin":0.475,"effMax":0.475,"effActiveBeats":1,"hpPromoted":false},"density-flicker":{"baseline":0.12,"current":0.1191,"rollingAbsCorr":0.0196,"rawRollingAbsCorr":0.0196,"gain":0.2416,"heatPenalty":0.036,"effectivenessEma":0.475,"effMin":0.475,"effMax":0.475,"effActiveBeats":1,"hpPromoted":false},"density-entropy":{"baseline":0.12,"current":0.1191,"rollingAbsCorr":0.0384,"rawRollingAbsCorr":0.0384,"gain":0.22,"heatPenalty":0,"effectivenessEma":0.475,"effMin":0.475,"effMax":0.475,"effActiveBeats":1,"hpPromoted":false},"density-trust":{"baseline":0.2,"current":0.1991,"rollingAbsCorr":0.0193,"rawRollingAbsCorr":0.0193,"gain":0.229,"heatPenalty":0.01,"effectivenessEma":0.475,"effMin":0.475,"effMax":0.475,"effActiveBeats":1,"hpPromoted":false},"density-phase":{"baseline":0.06,"current":0.06,"rollingAbsCorr":0,"rawRollingAbsCorr":0,"gain":0.16,"heatPenalty":0,"effectivenessEma":0.5,"effMin":1,"effMax":0,"effActiveBeats":0,"hpPromoted":false},"tension-flicker":{"baseline":0.15,"current":0.1485,"rollingAbsCorr":0.0176,"rawRollingAbsCorr":0.0176,"gain":0.229,"heatPenalty":0.01,"effectivenessEma":0.475,"effMin":0.475,"effMax":0.475,"effActiveBeats":1,"hpPromoted":false},"tension-entropy":{"baseline":0.25,"current":0.2485,"rollingAbsCorr":0.03,"rawRollingAbsCorr":0.03,"gain":0.22,"heatPenalty":0,"effectivenessEma":0.475,"effMin":0.475,"effMax":0.475,"effActiveBeats":1,"hpPromoted":false},"tension-trust":{"baseline":0.15,"current":0.1485,"rollingAbsCorr":0.0172,"rawRollingAbsCorr":0.0172,"gain":0.229,"heatPenalty":0.01,"effectivenessEma":0.475,"effMin":0.475,"effMax":0.475,"effActiveBeats":1,"hpPromoted":false},"tension-phase":{"baseline":0.2,"current":0.1985,"rollingAbsCorr":0,"rawRollingAbsCorr":0,"gain":0.16,"heatPenalty":0,"effectivenessEma":0.5,"effMin":1,"effMax":0,"effActiveBeats":0,"hpPromoted":false},"flicker-entropy":{"baseline":0.18,"current":0.1785,"rollingAbsCorr":0.037,"rawRollingAbsCorr":0.037,"gain":0.22,"heatPenalty":0,"effectivenessEma":0.475,"effMin":0.475,"effMax":0.475,"effActiveBeats":1,"hpPromoted":false},"flicker-trust":{"baseline":0.12,"current":0.1185,"rollingAbsCorr":0.0195,"rawRollingAbsCorr":0.0195,"gain":0.229,"heatPenalty":0.01,"effectivenessEma":0.475,"effMin":0.475,"effMax":0.475,"effActiveBeats":1,"hpPromoted":false},"flicker-phase":{"baseline":0.08,"current":0.08,"rollingAbsCorr":0,"rawRollingAbsCorr":0,"gain":0.16,"heatPenalty":0,"effectivenessEma":0.5,"effMin":1,"effMax":0,"effActiveBeats":0,"hpPromoted":false},"entropy-trust":{"baseline":0.25,"current":0.25,"rollingAbsCorr":0.0345,"rawRollingAbsCorr":0.0345,"gain":0.16,"heatPenalty":0,"effectivenessEma":0.5,"effMin":1,"effMax":0,"effActiveBeats":0,"hpPromoted":false},"entropy-phase":{"baseline":0.1,"current":0.1,"rollingAbsCorr":0,"rawRollingAbsCorr":0,"gain":0.16,"heatPenalty":0,"effectivenessEma":0.5,"effMin":1,"effMax":0,"effActiveBeats":0,"hpPromoted":false}},"axisCouplingTotals":{"density":0.525,"tension":0.4689,"flicker":0.5358,"entropy":0.4197,"trust":0.5235,"phase":0},"axisEnergyShare":{"shares":{"density":0.2123,"tension":0.1896,"flicker":0.2167,"entropy":0.1697,"trust":0.2117,"phase":0},"axisGini":0.2055},"couplingGates":{"gateD":1,"gateT":1,"gateF":1,"floorDampen":1,"bypassD":0.22715,"bypassT":-0.251474,"bypassF":0.329553,"gateMinD":1,"gateMinT":1,"gateMinF":1,"gateEmaD":1,"gateEmaT":1,"gateEmaF":1,"gateBeatCount":6},"couplingHomeostasis":{"totalEnergyEma":8.243,"energyBudget":3.5,"peakEnergyEma":8.243,"totalEnergyFloor":8.0005,"floorDampen":0.2,"redistributionScore":0,"nudgeableRedistributionScore":0,"globalGainMultiplier":0.6912,"giniCoefficient":0.3458,"energyDeltaEma":0.8243,"pairTurbulenceEma":0,"beatCount":1,"invokeCount":6,"tickCount":76,"emptyMatrixBeats":5,"multiplierMin":0.6912,"multiplierMax":1,"multiplierStdDev":0.0827,"floorContactBeats":0,"ceilingContactBeats":61,"avgRecoveryDuration":0},"axisEnergyEquilibrator":{"beatCount":6,"pairAdjustments":0,"axisAdjustments":0,"smoothedShares":{"density":0.016984,"tension":0.015168,"flicker":0.017336,"entropy":0.013576,"trust":0.016936,"phase":0},"perAxisAdj":{},"perPairAdj":{},"lastBaselines":{},"regimeBeats":{},"regimePairAdj":{},"regimeAxisAdj":{},"regimeTightenBudget":{}},"transitionReadiness":{"gap":0.6264,"couplingStrength":0.7921,"coherentThreshold":0.1658,"velocity":0.065246,"velThreshold":0.008,"thresholdScale":0.65,"velocityBlocked":false,"exploringBlock":"dimension","rawRegimeCounts":{"coherent":1},"rawRegimeMaxStreak":{"coherent":1},"effectiveDim":1.6955},"notes":[{"pitch":63,"velocity":87,"channel":0},{"pitch":80,"velocity":90,"channel":0},{"pitch":3,"velocity":104,"channel":0},{"pitch":80,"velocity":90,"channel":0},{"pitch":8,"velocity":100,"channel":0},{"pitch":10,"velocity":109,"channel":0},{"pitch":94,"velocity":91,"channel":0},{"pitch":39,"velocity":101,"channel":0},{"pitch":39,"velocity":82,"channel":0},{"pitch":39,"velocity":92,"channel":0},{"pitch":8,"velocity":97,"channel":0},{"pitch":80,"velocity":94,"channel":0},{"pitch":8,"velocity":99,"channel":0},{"pitch":58,"velocity":109,"channel":0},{"pitch":82,"velocity":96,"channel":0},{"pitch":39,"velocity":100,"channel":0},{"pitch":87,"velocity":85,"channel":0},{"pitch":87,"velocity":108,"channel":0},{"pitch":63,"velocity":80,"channel":0},{"pitch":51,"velocity":90,"channel":0},{"pitch":70,"velocity":97,"channel":0},{"pitch":80,"velocity":103,"channel":0},{"pitch":80,"velocity":101,"channel":0},{"pitch":70,"velocity":91,"channel":0},{"pitch":70,"velocity":92,"channel":0},{"pitch":70,"velocity":98,"channel":0},{"pitch":82,"velocity":92,"channel":0},{"pitch":94,"velocity":99,"channel":0},{"pitch":58,"velocity":107,"channel":0},{"pitch":75,"velocity":99,"channel":0},{"pitch":70,"velocity":98,"channel":0},{"pitch":39,"velocity":87,"channel":0},{"pitch":82,"velocity":92,"channel":0},{"pitch":8,"velocity":117,"channel":0},{"pitch":20,"velocity":101,"channel":0},{"pitch":82,"velocity":98,"channel":0},{"pitch":20,"velocity":110,"channel":0},{"pitch":94,"velocity":114,"channel":0},{"pitch":87,"velocity":89,"channel":0},{"pitch":3,"velocity":111,"channel":0},{"pitch":82,"velocity":91,"channel":0},{"pitch":82,"velocity":105,"channel":0},{"pitch":10,"velocity":105,"channel":0},{"pitch":87,"velocity":101,"channel":0},{"pitch":20,"velocity":94,"channel":0},{"pitch":56,"velocity":88,"channel":0},{"pitch":10,"velocity":101,"channel":0},{"pitch":27,"velocity":100,"channel":0},{"pitch":3,"velocity":93,"channel":0},{"pitch":27,"velocity":93,"channel":0}],"stageTiming":{"beat-setup":13.0068,"intent":0.0121,"entropy":0.0167,"phase":0.0233,"climax":0.0241,"envelope":0.0145,"silhouette":0.0179,"rest":0.0314,"complement":0.0015,"tension-cadence":0.0384,"negotiation":0.033,"probability-adjust":0.007,"emission":3.6658,"post-beat":0.0312},"iterBudget":{"raw":20,"capped":20,"wasCapped":false}}
{"layer":"L2","beatKey":"0:0:0:15","timeMs":2631.578947368421,"snap":{"key":"A#","mode":"locrian","quality":"minor","scale":["A#","B","C#","D#","E","F#","G#"],"chords":[],"tension":0.2858458816418885,"harmonicRhythm":0.33338377287365806,"harmonicMutationCount":8,"excursion":0,"sectionPhase":"opening","phrasePosition":0.8,"phrasePhase":"resolution","phraseDynamism":1,"registerBias":1.0534230275096785,"densityMultiplier":1.0351141009169893,"voiceIndependence":0.5,"compositeIntensity":0.34955546008782645,"playProb":0.3427583082730545,"stutterProb":0.47505733023765967,"flicker":1.1885495733762952,"textureMode":"flurry","textureFatigue":0,"densityBias":0,"crossModBias":1,"emissionRatio":0.8882997864076252,"extraDensityCorrection":1.022340042718475,"extraCoherenceDensityBias":1,"activeProfile":"restrained","journeyMove":"origin","journeyDistance":0,"journeyKey":"D#","journeyMode":"locrian","binauralFreqOffset":9,"binauralFlip":false,"tick":442500,"updatedAt":1772749134759},"negotiation":{"playProb":0.30735795414715983,"stutterProb":0.4795720621829216,"allowCadence":false,"conflict":0.21882408959066102,"phaseConfidence":0.275},"trust":{"stutterContagion":{"score":0.7273253818912438,"samples":76,"weight":1.4125},"cadenceAlignment":{"score":0.26018277646857957,"samples":76,"weight":1.1951370823514347},"phaseLock":{"score":0.26018277646857957,"samples":76,"weight":1.1951370823514347},"convergence":{"score":0.26018277646857957,"samples":76,"weight":1.1951370823514347},"feedbackOscillator":{"score":0.26018277646857957,"samples":76,"weight":1.1951370823514347},"coherenceMonitor":{"score":0.6954182228986807,"samples":76,"weight":1.5215636671740105},"entropyRegulator":{"score":0.74925,"samples":76,"weight":1.5619375},"restSynchronizer":{"score":0.26018277646857957,"samples":76,"weight":1.1951370823514347}},"regime":"evolving","coupling":{"density-tension":-0.786,"density-flicker":0.98,"density-entropy":-0.768,"density-trust":-0.966,"density-phase":0,"tension-flicker":-0.88,"tension-entropy":0.6,"tension-trust":0.86,"tension-phase":0,"flicker-entropy":-0.739,"flicker-trust":-0.973,"flicker-phase":0,"entropy-trust":0.691,"entropy-phase":0},"couplingTargets":{"density-tension":{"baseline":0.15,"current":0.1491,"rollingAbsCorr":0.0157,"rawRollingAbsCorr":0.0157,"gain":0.3,"heatPenalty":0,"effectivenessEma":0.475,"effMin":0.475,"effMax":0.475,"effActiveBeats":1,"hpPromoted":false},"density-flicker":{"baseline":0.12,"current":0.1191,"rollingAbsCorr":0.0196,"rawRollingAbsCorr":0.0196,"gain":0.2416,"heatPenalty":0.036,"effectivenessEma":0.475,"effMin":0.475,"effMax":0.475,"effActiveBeats":1,"hpPromoted":false},"density-entropy":{"baseline":0.12,"current":0.1191,"rollingAbsCorr":0.0384,"rawRollingAbsCorr":0.0384,"gain":0.22,"heatPenalty":0,"effectivenessEma":0.475,"effMin":0.475,"effMax":0.475,"effActiveBeats":1,"hpPromoted":false},"density-trust":{"baseline":0.2,"current":0.1991,"rollingAbsCorr":0.0193,"rawRollingAbsCorr":0.0193,"gain":0.229,"heatPenalty":0.01,"effectivenessEma":0.475,"effMin":0.475,"effMax":0.475,"effActiveBeats":1,"hpPromoted":false},"density-phase":{"baseline":0.06,"current":0.06,"rollingAbsCorr":0,"rawRollingAbsCorr":0,"gain":0.16,"heatPenalty":0,"effectivenessEma":0.5,"effMin":1,"effMax":0,"effActiveBeats":0,"hpPromoted":false},"tension-flicker":{"baseline":0.15,"current":0.1485,"rollingAbsCorr":0.0176,"rawRollingAbsCorr":0.0176,"gain":0.229,"heatPenalty":0.01,"effectivenessEma":0.475,"effMin":0.475,"effMax":0.475,"effActiveBeats":1,"hpPromoted":false},"tension-entropy":{"baseline":0.25,"current":0.2485,"rollingAbsCorr":0.03,"rawRollingAbsCorr":0.03,"gain":0.22,"heatPenalty":0,"effectivenessEma":0.475,"effMin":0.475,"effMax":0.475,"effActiveBeats":1,"hpPromoted":false},"tension-trust":{"baseline":0.15,"current":0.1485,"rollingAbsCorr":0.0172,"rawRollingAbsCorr":0.0172,"gain":0.229,"heatPenalty":0.01,"effectivenessEma":0.475,"effMin":0.475,"effMax":0.475,"effActiveBeats":1,"hpPromoted":false},"tension-phase":{"baseline":0.2,"current":0.1985,"rollingAbsCorr":0,"rawRollingAbsCorr":0,"gain":0.16,"heatPenalty":0,"effectivenessEma":0.5,"effMin":1,"effMax":0,"effActiveBeats":0,"hpPromoted":false},"flicker-entropy":{"baseline":0.18,"current":0.1785,"rollingAbsCorr":0.037,"rawRollingAbsCorr":0.037,"gain":0.22,"heatPenalty":0,"effectivenessEma":0.475,"effMin":0.475,"effMax":0.475,"effActiveBeats":1,"hpPromoted":false},"flicker-trust":{"baseline":0.12,"current":0.1185,"rollingAbsCorr":0.0195,"rawRollingAbsCorr":0.0195,"gain":0.229,"heatPenalty":0.01,"effectivenessEma":0.475,"effMin":0.475,"effMax":0.475,"effActiveBeats":1,"hpPromoted":false},"flicker-phase":{"baseline":0.08,"current":0.08,"rollingAbsCorr":0,"rawRollingAbsCorr":0,"gain":0.16,"heatPenalty":0,"effectivenessEma":0.5,"effMin":1,"effMax":0,"effActiveBeats":0,"hpPromoted":false},"entropy-trust":{"baseline":0.25,"current":0.25,"rollingAbsCorr":0.0345,"rawRollingAbsCorr":0.0345,"gain":0.16,"heatPenalty":0,"effectivenessEma":0.5,"effMin":1,"effMax":0,"effActiveBeats":0,"hpPromoted":false},"entropy-phase":{"baseline":0.1,"current":0.1,"rollingAbsCorr":0,"rawRollingAbsCorr":0,"gain":0.16,"heatPenalty":0,"effectivenessEma":0.5,"effMin":1,"effMax":0,"effActiveBeats":0,"hpPromoted":false}},"axisCouplingTotals":{"density":0.525,"tension":0.4689,"flicker":0.5358,"entropy":0.4197,"trust":0.5235,"phase":0},"axisEnergyShare":{"shares":{"density":0.2123,"tension":0.1896,"flicker":0.2167,"entropy":0.1697,"trust":0.2117,"phase":0},"axisGini":0.2055},"couplingGates":{"gateD":1,"gateT":1,"gateF":1,"floorDampen":1,"bypassD":0.22715,"bypassT":-0.251474,"bypassF":0.329553,"gateMinD":1,"gateMinT":1,"gateMinF":1,"gateEmaD":1,"gateEmaT":1,"gateEmaF":1,"gateBeatCount":6},"couplingHomeostasis":{"totalEnergyEma":8.243,"energyBudget":3.5,"peakEnergyEma":8.243,"totalEnergyFloor":8.0005,"floorDampen":0.2,"redistributionScore":0,"nudgeableRedistributionScore":0,"globalGainMultiplier":0.6779,"giniCoefficient":0.3458,"energyDeltaEma":0.8243,"pairTurbulenceEma":0,"beatCount":1,"invokeCount":6,"tickCount":77,"emptyMatrixBeats":5,"multiplierMin":0.6779,"multiplierMax":1,"multiplierStdDev":0.0883,"floorContactBeats":0,"ceilingContactBeats":61,"avgRecoveryDuration":0},"axisEnergyEquilibrator":{"beatCount":6,"pairAdjustments":0,"axisAdjustments":0,"smoothedShares":{"density":0.016984,"tension":0.015168,"flicker":0.017336,"entropy":0.013576,"trust":0.016936,"phase":0},"perAxisAdj":{},"perPairAdj":{},"lastBaselines":{},"regimeBeats":{},"regimePairAdj":{},"regimeAxisAdj":{},"regimeTightenBudget":{}},"transitionReadiness":{"gap":0.6264,"couplingStrength":0.7921,"coherentThreshold":0.1658,"velocity":0.065246,"velThreshold":0.008,"thresholdScale":0.65,"velocityBlocked":false,"exploringBlock":"dimension","rawRegimeCounts":{"coherent":1},"rawRegimeMaxStreak":{"coherent":1},"effectiveDim":1.6955},"notes":[{"pitch":80,"velocity":111,"channel":0},{"pitch":80,"velocity":98,"channel":0},{"pitch":80,"velocity":103,"channel":0},{"pitch":80,"velocity":106,"channel":0},{"pitch":80,"velocity":88,"channel":0},{"pitch":68,"velocity":91,"channel":0},{"pitch":87,"velocity":95,"channel":0},{"pitch":87,"velocity":89,"channel":0},{"pitch":56,"velocity":113,"channel":0},{"pitch":75,"velocity":94,"channel":0},{"pitch":75,"velocity":83,"channel":0},{"pitch":44,"velocity":107,"channel":0},{"pitch":80,"velocity":85,"channel":0},{"pitch":51,"velocity":102,"channel":0},{"pitch":75,"velocity":101,"channel":0},{"pitch":51,"velocity":89,"channel":0},{"pitch":75,"velocity":84,"channel":0},{"pitch":75,"velocity":85,"channel":0},{"pitch":3,"velocity":99,"channel":0},{"pitch":3,"velocity":103,"channel":0},{"pitch":56,"velocity":103,"channel":0},{"pitch":51,"velocity":98,"channel":0},{"pitch":51,"velocity":95,"channel":0},{"pitch":56,"velocity":106,"channel":0},{"pitch":80,"velocity":97,"channel":0},{"pitch":87,"velocity":92,"channel":0},{"pitch":68,"velocity":98,"channel":0},{"pitch":68,"velocity":84,"channel":0},{"pitch":68,"velocity":96,"channel":0},{"pitch":68,"velocity":100,"channel":0},{"pitch":56,"velocity":97,"channel":0},{"pitch":3,"velocity":92,"channel":0},{"pitch":80,"velocity":93,"channel":0},{"pitch":75,"velocity":90,"channel":0},{"pitch":75,"velocity":93,"channel":0},{"pitch":51,"velocity":85,"channel":0},{"pitch":104,"velocity":91,"channel":0},{"pitch":68,"velocity":89,"channel":0},{"pitch":75,"velocity":92,"channel":0},{"pitch":75,"velocity":92,"channel":0},{"pitch":68,"velocity":98,"channel":0},{"pitch":63,"velocity":94,"channel":0},{"pitch":80,"velocity":100,"channel":0},{"pitch":68,"velocity":101,"channel":0},{"pitch":80,"velocity":97,"channel":0},{"pitch":15,"velocity":104,"channel":0},{"pitch":80,"velocity":84,"channel":0},{"pitch":80,"velocity":102,"channel":0},{"pitch":56,"velocity":102,"channel":0},{"pitch":82,"velocity":106,"channel":0},{"pitch":82,"velocity":95,"channel":0},{"pitch":82,"velocity":88,"channel":0},{"pitch":82,"velocity":101,"channel":0},{"pitch":94,"velocity":89,"channel":0},{"pitch":70,"velocity":101,"channel":0},{"pitch":75,"velocity":92,"channel":0},{"pitch":75,"velocity":104,"channel":0},{"pitch":75,"velocity":78,"channel":0},{"pitch":75,"velocity":104,"channel":0},{"pitch":75,"velocity":110,"channel":0},{"pitch":58,"velocity":115,"channel":0},{"pitch":51,"velocity":99,"channel":0},{"pitch":51,"velocity":104,"channel":0},{"pitch":75,"velocity":106,"channel":0},{"pitch":75,"velocity":61,"channel":0},{"pitch":75,"velocity":83,"channel":0},{"pitch":51,"velocity":88,"channel":0},{"pitch":70,"velocity":90,"channel":0},{"pitch":75,"velocity":90,"channel":0},{"pitch":75,"velocity":95,"channel":0},{"pitch":68,"velocity":94,"channel":0},{"pitch":51,"velocity":93,"channel":0},{"pitch":75,"velocity":85,"channel":0},{"pitch":70,"velocity":97,"channel":0},{"pitch":63,"velocity":109,"channel":0},{"pitch":75,"velocity":105,"channel":0},{"pitch":75,"velocity":95,"channel":0},{"pitch":75,"velocity":99,"channel":0},{"pitch":82,"velocity":91,"channel":0},{"pitch":75,"velocity":85,"channel":0},{"pitch":75,"velocity":103,"channel":0},{"pitch":75,"velocity":90,"channel":0},{"pitch":75,"velocity":92,"channel":0},{"pitch":51,"velocity":101,"channel":0},{"pitch":46,"velocity":100,"channel":0},{"pitch":46,"velocity":110,"channel":0},{"pitch":94,"velocity":104,"channel":0},{"pitch":46,"velocity":108,"channel":0},{"pitch":94,"velocity":102,"channel":0},{"pitch":56,"velocity":99,"channel":0},{"pitch":56,"velocity":94,"channel":0},{"pitch":56,"velocity":95,"channel":0},{"pitch":68,"velocity":90,"channel":0},{"pitch":10,"velocity":98,"channel":0},{"pitch":75,"velocity":107,"channel":0},{"pitch":68,"velocity":83,"channel":0},{"pitch":75,"velocity":104,"channel":0},{"pitch":75,"velocity":115,"channel":0},{"pitch":70,"velocity":115,"channel":0},{"pitch":68,"velocity":79,"channel":0},{"pitch":68,"velocity":98,"channel":0},{"pitch":56,"velocity":91,"channel":0},{"pitch":80,"velocity":94,"channel":0},{"pitch":70,"velocity":110,"channel":0},{"pitch":44,"velocity":80,"channel":0},{"pitch":70,"velocity":104,"channel":0},{"pitch":70,"velocity":92,"channel":0},{"pitch":3,"velocity":97,"channel":0},{"pitch":82,"velocity":106,"channel":0},{"pitch":70,"velocity":88,"channel":0},{"pitch":70,"velocity":112,"channel":0},{"pitch":63,"velocity":99,"channel":0},{"pitch":70,"velocity":82,"channel":0},{"pitch":82,"velocity":93,"channel":0},{"pitch":70,"velocity":98,"channel":0},{"pitch":70,"velocity":105,"channel":0},{"pitch":32,"velocity":101,"channel":0},{"pitch":82,"velocity":116,"channel":0}],"stageTiming":{"beat-setup":18.6723,"intent":0.0117,"entropy":0.0153,"phase":0.022,"climax":0.0226,"envelope":0.0298,"silhouette":0.024,"rest":0.0306,"complement":0.0023,"tension-cadence":0.0215,"negotiation":0.0236,"probability-adjust":0.006,"emission":5.6111,"post-beat":0.0267},"iterBudget":{"raw":96,"capped":80,"wasCapped":true}}
{"layer":"L2","beatKey":"0:0:0:16","timeMs":2807.017543859649,"snap":{"key":"A#","mode":"locrian","quality":"minor","scale":["A#","B","C#","D#","E","F#","G#"],"chords":[],"tension":0.2858458816418885,"harmonicRhythm":0.33338377287365806,"harmonicMutationCount":8,"excursion":0,"sectionPhase":"opening","phrasePosition":0.8,"phrasePhase":"resolution","phraseDynamism":1,"registerBias":1.0534230275096785,"densityMultiplier":1.0351141009169893,"voiceIndependence":0.5,"compositeIntensity":0.34955546008782645,"playProb":0.3427583082730545,"stutterProb":0.47505733023765967,"flicker":1.1885495733762952,"textureMode":"flurry","textureFatigue":0,"densityBias":0,"crossModBias":1,"emissionRatio":0.8882997864076252,"extraDensityCorrection":1.022340042718475,"extraCoherenceDensityBias":1,"activeProfile":"restrained","journeyMove":"origin","journeyDistance":0,"journeyKey":"D#","journeyMode":"locrian","binauralFreqOffset":9,"binauralFlip":false,"tick":442500,"updatedAt":1772749134759},"negotiation":{"playProb":0.3087809059965232,"stutterProb":0.4825566876767563,"allowCadence":false,"conflict":0.2173629176485654,"phaseConfidence":0.275},"trust":{"stutterContagion":{"score":0.6397461237142278,"samples":77,"weight":1.4125},"cadenceAlignment":{"score":0.2587841740394315,"samples":77,"weight":1.1940881305295736},"phaseLock":{"score":0.2587841740394315,"samples":77,"weight":1.1940881305295736},"convergence":{"score":0.2597566740207359,"samples":77,"weight":1.1948175055155519},"feedbackOscillator":{"score":0.2587841740394315,"samples":77,"weight":1.1940881305295736},"coherenceMonitor":{"score":0.6958331037435067,"samples":77,"weight":1.52187482780763},"entropyRegulator":{"score":0.74925,"samples":77,"weight":1.5619375},"restSynchronizer":{"score":0.3338303343228999,"samples":77,"weight":1.250372750742175}},"regime":"evolving","coupling":{"density-tension":-0.786,"density-flicker":0.98,"density-entropy":-0.768,"density-trust":-0.966,"density-phase":0,"tension-flicker":-0.88,"tension-entropy":0.6,"tension-trust":0.86,"tension-phase":0,"flicker-entropy":-0.739,"flicker-trust":-0.973,"flicker-phase":0,"entropy-trust":0.691,"entropy-phase":0},"couplingTargets":{"density-tension":{"baseline":0.15,"current":0.1491,"rollingAbsCorr":0.0157,"rawRollingAbsCorr":0.0157,"gain":0.3,"heatPenalty":0,"effectivenessEma":0.475,"effMin":0.475,"effMax":0.475,"effActiveBeats":1,"hpPromoted":false},"density-flicker":{"baseline":0.12,"current":0.1191,"rollingAbsCorr":0.0196,"rawRollingAbsCorr":0.0196,"gain":0.2416,"heatPenalty":0.036,"effectivenessEma":0.475,"effMin":0.475,"effMax":0.475,"effActiveBeats":1,"hpPromoted":false},"density-entropy":{"baseline":0.12,"current":0.1191,"rollingAbsCorr":0.0384,"rawRollingAbsCorr":0.0384,"gain":0.22,"heatPenalty":0,"effectivenessEma":0.475,"effMin":0.475,"effMax":0.475,"effActiveBeats":1,"hpPromoted":false},"density-trust":{"baseline":0.2,"current":0.1991,"rollingAbsCorr":0.0193,"rawRollingAbsCorr":0.0193,"gain":0.229,"heatPenalty":0.01,"effectivenessEma":0.475,"effMin":0.475,"effMax":0.475,"effActiveBeats":1,"hpPromoted":false},"density-phase":{"baseline":0.06,"current":0.06,"rollingAbsCorr":0,"rawRollingAbsCorr":0,"gain":0.16,"heatPenalty":0,"effectivenessEma":0.5,"effMin":1,"effMax":0,"effActiveBeats":0,"hpPromoted":false},"tension-flicker":{"baseline":0.15,"current":0.1485,"rollingAbsCorr":0.0176,"rawRollingAbsCorr":0.0176,"gain":0.229,"heatPenalty":0.01,"effectivenessEma":0.475,"effMin":0.475,"effMax":0.475,"effActiveBeats":1,"hpPromoted":false},"tension-entropy":{"baseline":0.25,"current":0.2485,"rollingAbsCorr":0.03,"rawRollingAbsCorr":0.03,"gain":0.22,"heatPenalty":0,"effectivenessEma":0.475,"effMin":0.475,"effMax":0.475,"effActiveBeats":1,"hpPromoted":false},"tension-trust":{"baseline":0.15,"current":0.1485,"rollingAbsCorr":0.0172,"rawRollingAbsCorr":0.0172,"gain":0.229,"heatPenalty":0.01,"effectivenessEma":0.475,"effMin":0.475,"effMax":0.475,"effActiveBeats":1,"hpPromoted":false},"tension-phase":{"baseline":0.2,"current":0.1985,"rollingAbsCorr":0,"rawRollingAbsCorr":0,"gain":0.16,"heatPenalty":0,"effectivenessEma":0.5,"effMin":1,"effMax":0,"effActiveBeats":0,"hpPromoted":false},"flicker-entropy":{"baseline":0.18,"current":0.1785,"rollingAbsCorr":0.037,"rawRollingAbsCorr":0.037,"gain":0.22,"heatPenalty":0,"effectivenessEma":0.475,"effMin":0.475,"effMax":0.475,"effActiveBeats":1,"hpPromoted":false},"flicker-trust":{"baseline":0.12,"current":0.1185,"rollingAbsCorr":0.0195,"rawRollingAbsCorr":0.0195,"gain":0.229,"heatPenalty":0.01,"effectivenessEma":0.475,"effMin":0.475,"effMax":0.475,"effActiveBeats":1,"hpPromoted":false},"flicker-phase":{"baseline":0.08,"current":0.08,"rollingAbsCorr":0,"rawRollingAbsCorr":0,"gain":0.16,"heatPenalty":0,"effectivenessEma":0.5,"effMin":1,"effMax":0,"effActiveBeats":0,"hpPromoted":false},"entropy-trust":{"baseline":0.25,"current":0.25,"rollingAbsCorr":0.0345,"rawRollingAbsCorr":0.0345,"gain":0.16,"heatPenalty":0,"effectivenessEma":0.5,"effMin":1,"effMax":0,"effActiveBeats":0,"hpPromoted":false},"entropy-phase":{"baseline":0.1,"current":0.1,"rollingAbsCorr":0,"rawRollingAbsCorr":0,"gain":0.16,"heatPenalty":0,"effectivenessEma":0.5,"effMin":1,"effMax":0,"effActiveBeats":0,"hpPromoted":false}},"axisCouplingTotals":{"density":0.525,"tension":0.4689,"flicker":0.5358,"entropy":0.4197,"trust":0.5235,"phase":0},"axisEnergyShare":{"shares":{"density":0.2123,"tension":0.1896,"flicker":0.2167,"entropy":0.1697,"trust":0.2117,"phase":0},"axisGini":0.2055},"couplingGates":{"gateD":1,"gateT":1,"gateF":1,"floorDampen":1,"bypassD":0.22715,"bypassT":-0.251474,"bypassF":0.329553,"gateMinD":1,"gateMinT":1,"gateMinF":1,"gateEmaD":1,"gateEmaT":1,"gateEmaF":1,"gateBeatCount":6},"couplingHomeostasis":{"totalEnergyEma":8.243,"energyBudget":3.5,"peakEnergyEma":8.243,"totalEnergyFloor":8.0005,"floorDampen":0.2,"redistributionScore":0,"nudgeableRedistributionScore":0,"globalGainMultiplier":0.6652,"giniCoefficient":0.3458,"energyDeltaEma":0.8243,"pairTurbulenceEma":0,"beatCount":1,"invokeCount":6,"tickCount":78,"emptyMatrixBeats":5,"multiplierMin":0.6652,"multiplierMax":1,"multiplierStdDev":0.0938,"floorContactBeats":0,"ceilingContactBeats":61,"avgRecoveryDuration":0},"axisEnergyEquilibrator":{"beatCount":6,"pairAdjustments":0,"axisAdjustments":0,"smoothedShares":{"density":0.016984,"tension":0.015168,"flicker":0.017336,"entropy":0.013576,"trust":0.016936,"phase":0},"perAxisAdj":{},"perPairAdj":{},"lastBaselines":{},"regimeBeats":{},"regimePairAdj":{},"regimeAxisAdj":{},"regimeTightenBudget":{}},"transitionReadiness":{"gap":0.6264,"couplingStrength":0.7921,"coherentThreshold":0.1658,"velocity":0.065246,"velThreshold":0.008,"thresholdScale":0.65,"velocityBlocked":false,"exploringBlock":"dimension","rawRegimeCounts":{"coherent":1},"rawRegimeMaxStreak":{"coherent":1},"effectiveDim":1.6955},"notes":[{"pitch":92,"velocity":103,"channel":0},{"pitch":51,"velocity":100,"channel":0},{"pitch":80,"velocity":87,"channel":0},{"pitch":46,"velocity":94,"channel":0},{"pitch":51,"velocity":101,"channel":0},{"pitch":46,"velocity":101,"channel":0},{"pitch":46,"velocity":113,"channel":0},{"pitch":51,"velocity":92,"channel":0},{"pitch":82,"velocity":95,"channel":0},{"pitch":46,"velocity":88,"channel":0},{"pitch":15,"velocity":105,"channel":0},{"pitch":82,"velocity":116,"channel":0},{"pitch":27,"velocity":95,"channel":0},{"pitch":56,"velocity":112,"channel":0},{"pitch":15,"velocity":104,"channel":0},{"pitch":75,"velocity":110,"channel":0},{"pitch":20,"velocity":94,"channel":0},{"pitch":20,"velocity":109,"channel":0},{"pitch":56,"velocity":97,"channel":0},{"pitch":51,"velocity":105,"channel":0},{"pitch":51,"velocity":90,"channel":0},{"pitch":51,"velocity":99,"channel":0},{"pitch":87,"velocity":98,"channel":0},{"pitch":51,"velocity":107,"channel":0},{"pitch":44,"velocity":87,"channel":0},{"pitch":75,"velocity":103,"channel":0},{"pitch":51,"velocity":114,"channel":0},{"pitch":44,"velocity":93,"channel":0},{"pitch":56,"velocity":98,"channel":0},{"pitch":56,"velocity":84,"channel":0},{"pitch":46,"velocity":97,"channel":0},{"pitch":51,"velocity":113,"channel":0},{"pitch":44,"velocity":84,"channel":0},{"pitch":51,"velocity":108,"channel":0},{"pitch":75,"velocity":100,"channel":0},{"pitch":80,"velocity":100,"channel":0},{"pitch":75,"velocity":104,"channel":0},{"pitch":75,"velocity":88,"channel":0},{"pitch":75,"velocity":83,"channel":0},{"pitch":51,"velocity":86,"channel":0},{"pitch":39,"velocity":104,"channel":0},{"pitch":56,"velocity":80,"channel":0},{"pitch":44,"velocity":104,"channel":0},{"pitch":44,"velocity":108,"channel":0},{"pitch":56,"velocity":84,"channel":0},{"pitch":80,"velocity":102,"channel":0},{"pitch":15,"velocity":94,"channel":0},{"pitch":44,"velocity":117,"channel":0},{"pitch":51,"velocity":102,"channel":0},{"pitch":75,"velocity":86,"channel":0},{"pitch":44,"velocity":105,"channel":0},{"pitch":51,"velocity":123,"channel":0},{"pitch":75,"velocity":93,"channel":0},{"pitch":75,"velocity":97,"channel":0},{"pitch":51,"velocity":83,"channel":0},{"pitch":51,"velocity":114,"channel":0},{"pitch":44,"velocity":105,"channel":0},{"pitch":51,"velocity":103,"channel":0},{"pitch":51,"velocity":109,"channel":0}],"stageTiming":{"beat-setup":17.6796,"intent":0.0231,"entropy":0.0281,"phase":0.0311,"climax":0.0306,"envelope":0.0407,"silhouette":0.038,"rest":0.0452,"complement":0.002,"tension-cadence":0.0435,"negotiation":0.0388,"probability-adjust":0.011,"emission":4.7391,"post-beat":0.0427},"iterBudget":{"raw":720,"capped":80,"wasCapped":true}}
{"layer":"L2","beatKey":"0:0:0:17","timeMs":2982.456140350877,"snap":{"key":"A#","mode":"locrian","quality":"minor","scale":["A#","B","C#","D#","E","F#","G#"],"chords":[],"tension":0.2858458816418885,"harmonicRhythm":0.33338377287365806,"harmonicMutationCount":8,"excursion":0,"sectionPhase":"opening","phrasePosition":0.8,"phrasePhase":"resolution","phraseDynamism":1,"registerBias":1.0534230275096785,"densityMultiplier":1.0351141009169893,"voiceIndependence":0.5,"compositeIntensity":0.34955546008782645,"playProb":0.3427583082730545,"stutterProb":0.47505733023765967,"flicker":1.1885495733762952,"textureMode":"flurry","textureFatigue":0,"densityBias":0,"crossModBias":1,"emissionRatio":0.8882997864076252,"extraDensityCorrection":1.022340042718475,"extraCoherenceDensityBias":1,"activeProfile":"restrained","journeyMove":"origin","journeyDistance":0,"journeyKey":"D#","journeyMode":"locrian","binauralFreqOffset":9,"binauralFlip":false,"tick":442500,"updatedAt":1772749134759},"negotiation":{"playProb":0.3101419787100426,"stutterProb":0.48555339479163806,"allowCadence":false,"conflict":0.21841186947042646,"phaseConfidence":0.275},"trust":{"stutterContagion":{"score":0.6605498268989841,"samples":78,"weight":1.4125},"cadenceAlignment":{"score":0.25909178272776745,"samples":78,"weight":1.1943188370458255},"phaseLock":{"score":0.2602806884582993,"samples":78,"weight":1.1952105163437245},"convergence":{"score":0.2584008223070305,"samples":78,"weight":1.1938006167302728},"feedbackOscillator":{"score":0.2604079871924456,"samples":78,"weight":1.1953059903943342},"coherenceMonitor":{"score":0.6813410422610666,"samples":78,"weight":1.5110057816958},"entropyRegulator":{"score":0.74925,"samples":78,"weight":1.5619375},"restSynchronizer":{"score":0.30813885358971926,"samples":78,"weight":1.2311041401922895}},"regime":"evolving","coupling":{"density-tension":-0.786,"density-flicker":0.98,"density-entropy":-0.768,"density-trust":-0.966,"density-phase":0,"tension-flicker":-0.88,"tension-entropy":0.6,"tension-trust":0.86,"tension-phase":0,"flicker-entropy":-0.739,"flicker-trust":-0.973,"flicker-phase":0,"entropy-trust":0.691,"entropy-phase":0},"couplingTargets":{"density-tension":{"baseline":0.15,"current":0.1491,"rollingAbsCorr":0.0157,"rawRollingAbsCorr":0.0157,"gain":0.3,"heatPenalty":0,"effectivenessEma":0.475,"effMin":0.475,"effMax":0.475,"effActiveBeats":1,"hpPromoted":false},"density-flicker":{"baseline":0.12,"current":0.1191,"rollingAbsCorr":0.0196,"rawRollingAbsCorr":0.0196,"gain":0.2416,"heatPenalty":0.036,"effectivenessEma":0.475,"effMin":0.475,"effMax":0.475,"effActiveBeats":1,"hpPromoted":false},"density-entropy":{"baseline":0.12,"current":0.1191,"rollingAbsCorr":0.0384,"rawRollingAbsCorr":0.0384,"gain":0.22,"heatPenalty":0,"effectivenessEma":0.475,"effMin":0.475,"effMax":0.475,"effActiveBeats":1,"hpPromoted":false},"density-trust":{"baseline":0.2,"current":0.1991,"rollingAbsCorr":0.0193,"rawRollingAbsCorr":0.0193,"gain":0.229,"heatPenalty":0.01,"effectivenessEma":0.475,"effMin":0.475,"effMax":0.475,"effActiveBeats":1,"hpPromoted":false},"density-phase":{"baseline":0.06,"current":0.06,"rollingAbsCorr":0,"rawRollingAbsCorr":0,"gain":0.16,"heatPenalty":0,"effectivenessEma":0.5,"effMin":1,"effMax":0,"effActiveBeats":0,"hpPromoted":false},"tension-flicker":{"baseline":0.15,"current":0.1485,"rollingAbsCorr":0.0176,"rawRollingAbsCorr":0.0176,"gain":0.229,"heatPenalty":0.01,"effectivenessEma":0.475,"effMin":0.475,"effMax":0.475,"effActiveBeats":1,"hpPromoted":false},"tension-entropy":{"baseline":0.25,"current":0.2485,"rollingAbsCorr":0.03,"rawRollingAbsCorr":0.03,"gain":0.22,"heatPenalty":0,"effectivenessEma":0.475,"effMin":0.475,"effMax":0.475,"effActiveBeats":1,"hpPromoted":false},"tension-trust":{"baseline":0.15,"current":0.1485,"rollingAbsCorr":0.0172,"rawRollingAbsCorr":0.0172,"gain":0.229,"heatPenalty":0.01,"effectivenessEma":0.475,"effMin":0.475,"effMax":0.475,"effActiveBeats":1,"hpPromoted":false},"tension-phase":{"baseline":0.2,"current":0.1985,"rollingAbsCorr":0,"rawRollingAbsCorr":0,"gain":0.16,"heatPenalty":0,"effectivenessEma":0.5,"effMin":1,"effMax":0,"effActiveBeats":0,"hpPromoted":false},"flicker-entropy":{"baseline":0.18,"current":0.1785,"rollingAbsCorr":0.037,"rawRollingAbsCorr":0.037,"gain":0.22,"heatPenalty":0,"effectivenessEma":0.475,"effMin":0.475,"effMax":0.475,"effActiveBeats":1,"hpPromoted":false},"flicker-trust":{"baseline":0.12,"current":0.1185,"rollingAbsCorr":0.0195,"rawRollingAbsCorr":0.0195,"gain":0.229,"heatPenalty":0.01,"effectivenessEma":0.475,"effMin":0.475,"effMax":0.475,"effActiveBeats":1,"hpPromoted":false},"flicker-phase":{"baseline":0.08,"current":0.08,"rollingAbsCorr":0,"rawRollingAbsCorr":0,"gain":0.16,"heatPenalty":0,"effectivenessEma":0.5,"effMin":1,"effMax":0,"effActiveBeats":0,"hpPromoted":false},"entropy-trust":{"baseline":0.25,"current":0.25,"rollingAbsCorr":0.0345,"rawRollingAbsCorr":0.0345,"gain":0.16,"heatPenalty":0,"effectivenessEma":0.5,"effMin":1,"effMax":0,"effActiveBeats":0,"hpPromoted":false},"entropy-phase":{"baseline":0.1,"current":0.1,"rollingAbsCorr":0,"rawRollingAbsCorr":0,"gain":0.16,"heatPenalty":0,"effectivenessEma":0.5,"effMin":1,"effMax":0,"effActiveBeats":0,"hpPromoted":false}},"axisCouplingTotals":{"density":0.525,"tension":0.4689,"flicker":0.5358,"entropy":0.4197,"trust":0.5235,"phase":0},"axisEnergyShare":{"shares":{"density":0.2123,"tension":0.1896,"flicker":0.2167,"entropy":0.1697,"trust":0.2117,"phase":0},"axisGini":0.2055},"couplingGates":{"gateD":1,"gateT":1,"gateF":1,"floorDampen":1,"bypassD":0.22715,"bypassT":-0.251474,"bypassF":0.329553,"gateMinD":1,"gateMinT":1,"gateMinF":1,"gateEmaD":1,"gateEmaT":1,"gateEmaF":1,"gateBeatCount":6},"couplingHomeostasis":{"totalEnergyEma":8.243,"energyBudget":3.5,"peakEnergyEma":8.243,"totalEnergyFloor":8.0005,"floorDampen":0.2,"redistributionScore":0,"nudgeableRedistributionScore":0,"globalGainMultiplier":0.6532,"giniCoefficient":0.3458,"energyDeltaEma":0.8243,"pairTurbulenceEma":0,"beatCount":1,"invokeCount":6,"tickCount":79,"emptyMatrixBeats":5,"multiplierMin":0.6532,"multiplierMax":1,"multiplierStdDev":0.0992,"floorContactBeats":0,"ceilingContactBeats":61,"avgRecoveryDuration":0},"axisEnergyEquilibrator":{"beatCount":6,"pairAdjustments":0,"axisAdjustments":0,"smoothedShares":{"density":0.016984,"tension":0.015168,"flicker":0.017336,"entropy":0.013576,"trust":0.016936,"phase":0},"perAxisAdj":{},"perPairAdj":{},"lastBaselines":{},"regimeBeats":{},"regimePairAdj":{},"regimeAxisAdj":{},"regimeTightenBudget":{}},"transitionReadiness":{"gap":0.6264,"couplingStrength":0.7921,"coherentThreshold":0.1658,"velocity":0.065246,"velThreshold":0.008,"thresholdScale":0.65,"velocityBlocked":false,"exploringBlock":"dimension","rawRegimeCounts":{"coherent":1},"rawRegimeMaxStreak":{"coherent":1},"effectiveDim":1.6955},"notes":[{"pitch":46,"velocity":105,"channel":0},{"pitch":44,"velocity":107,"channel":0},{"pitch":51,"velocity":102,"channel":0},{"pitch":92,"velocity":98,"channel":0},{"pitch":34,"velocity":107,"channel":0}],"stageTiming":{"beat-setup":13.0342,"intent":0.0121,"entropy":0.0158,"phase":0.0192,"climax":0.0231,"envelope":0.0135,"silhouette":0.0272,"rest":0.0229,"complement":0.0013,"tension-cadence":0.0225,"negotiation":0.0302,"probability-adjust":0.0063,"emission":5.2365,"post-beat":0.0231},"iterBudget":{"raw":21,"capped":21,"wasCapped":false}}
{"layer":"L2","beatKey":"0:0:0:18","timeMs":3157.8947368421054,"snap":{"key":"A#","mode":"locrian","quality":"minor","scale":["A#","B","C#","D#","E","F#","G#"],"chords":[],"tension":0.2858458816418885,"harmonicRhythm":0.33338377287365806,"harmonicMutationCount":8,"excursion":0,"sectionPhase":"opening","phrasePosition":0.8,"phrasePhase":"resolution","phraseDynamism":1,"registerBias":1.0534230275096785,"densityMultiplier":1.0351141009169893,"voiceIndependence":0.5,"compositeIntensity":0.34955546008782645,"playProb":0.3427583082730545,"stutterProb":0.47505733023765967,"flicker":1.1885495733762952,"textureMode":"flurry","textureFatigue":0,"densityBias":0,"crossModBias":1,"emissionRatio":0.8882997864076252,"extraDensityCorrection":1.022340042718475,"extraCoherenceDensityBias":1,"activeProfile":"restrained","journeyMove":"origin","journeyDistance":0,"journeyKey":"D#","journeyMode":"locrian","binauralFreqOffset":9,"binauralFlip":false,"tick":442500,"updatedAt":1772749134759},"negotiation":{"playProb":0.3115714525984462,"stutterProb":0.4885917089501766,"allowCadence":false,"conflict":0.21818116295417456,"phaseConfidence":0.275},"trust":{"stutterContagion":{"score":0.6785220844557265,"samples":79,"weight":1.4125},"cadenceAlignment":{"score":0.25740600467033653,"samples":79,"weight":1.1930545035027524},"phaseLock":{"score":0.25876698450563,"samples":79,"weight":1.1940752383792226},"convergence":{"score":0.25740600467033653,"samples":79,"weight":1.1930545035027524},"feedbackOscillator":{"score":0.25851484396757063,"samples":79,"weight":1.193886132975678},"coherenceMonitor":{"score":0.6840788959841829,"samples":79,"weight":1.5130591719881372},"entropyRegulator":{"score":0.74925,"samples":79,"weight":1.5619375},"restSynchronizer":{"score":0.28503964326251663,"samples":79,"weight":1.2137797324468875}},"regime":"evolving","coupling":{"density-tension":-0.786,"density-flicker":0.98,"density-entropy":-0.768,"density-trust":-0.966,"density-phase":0,"tension-flicker":-0.88,"tension-entropy":0.6,"tension-trust":0.86,"tension-phase":0,"flicker-entropy":-0.739,"flicker-trust":-0.973,"flicker-phase":0,"entropy-trust":0.691,"entropy-phase":0},"couplingTargets":{"density-tension":{"baseline":0.15,"current":0.1491,"rollingAbsCorr":0.0157,"rawRollingAbsCorr":0.0157,"gain":0.3,"heatPenalty":0,"effectivenessEma":0.475,"effMin":0.475,"effMax":0.475,"effActiveBeats":1,"hpPromoted":false},"density-flicker":{"baseline":0.12,"current":0.1191,"rollingAbsCorr":0.0196,"rawRollingAbsCorr":0.0196,"gain":0.2416,"heatPenalty":0.036,"effectivenessEma":0.475,"effMin":0.475,"effMax":0.475,"effActiveBeats":1,"hpPromoted":false},"density-entropy":{"baseline":0.12,"current":0.1191,"rollingAbsCorr":0.0384,"rawRollingAbsCorr":0.0384,"gain":0.22,"heatPenalty":0,"effectivenessEma":0.475,"effMin":0.475,"effMax":0.475,"effActiveBeats":1,"hpPromoted":false},"density-trust":{"baseline":0.2,"current":0.1991,"rollingAbsCorr":0.0193,"rawRollingAbsCorr":0.0193,"gain":0.229,"heatPenalty":0.01,"effectivenessEma":0.475,"effMin":0.475,"effMax":0.475,"effActiveBeats":1,"hpPromoted":false},"density-phase":{"baseline":0.06,"current":0.06,"rollingAbsCorr":0,"rawRollingAbsCorr":0,"gain":0.16,"heatPenalty":0,"effectivenessEma":0.5,"effMin":1,"effMax":0,"effActiveBeats":0,"hpPromoted":false},"tension-flicker":{"baseline":0.15,"current":0.1485,"rollingAbsCorr":0.0176,"rawRollingAbsCorr":0.0176,"gain":0.229,"heatPenalty":0.01,"effectivenessEma":0.475,"effMin":0.475,"effMax":0.475,"effActiveBeats":1,"hpPromoted":false},"tension-entropy":{"baseline":0.25,"current":0.2485,"rollingAbsCorr":0.03,"rawRollingAbsCorr":0.03,"gain":0.22,"heatPenalty":0,"effectivenessEma":0.475,"effMin":0.475,"effMax":0.475,"effActiveBeats":1,"hpPromoted":false},"tension-trust":{"baseline":0.15,"current":0.1485,"rollingAbsCorr":0.0172,"rawRollingAbsCorr":0.0172,"gain":0.229,"heatPenalty":0.01,"effectivenessEma":0.475,"effMin":0.475,"effMax":0.475,"effActiveBeats":1,"hpPromoted":false},"tension-phase":{"baseline":0.2,"current":0.1985,"rollingAbsCorr":0,"rawRollingAbsCorr":0,"gain":0.16,"heatPenalty":0,"effectivenessEma":0.5,"effMin":1,"effMax":0,"effActiveBeats":0,"hpPromoted":false},"flicker-entropy":{"baseline":0.18,"current":0.1785,"rollingAbsCorr":0.037,"rawRollingAbsCorr":0.037,"gain":0.22,"heatPenalty":0,"effectivenessEma":0.475,"effMin":0.475,"effMax":0.475,"effActiveBeats":1,"hpPromoted":false},"flicker-trust":{"baseline":0.12,"current":0.1185,"rollingAbsCorr":0.0195,"rawRollingAbsCorr":0.0195,"gain":0.229,"heatPenalty":0.01,"effectivenessEma":0.475,"effMin":0.475,"effMax":0.475,"effActiveBeats":1,"hpPromoted":false},"flicker-phase":{"baseline":0.08,"current":0.08,"rollingAbsCorr":0,"rawRollingAbsCorr":0,"gain":0.16,"heatPenalty":0,"effectivenessEma":0.5,"effMin":1,"effMax":0,"effActiveBeats":0,"hpPromoted":false},"entropy-trust":{"baseline":0.25,"current":0.25,"rollingAbsCorr":0.0345,"rawRollingAbsCorr":0.0345,"gain":0.16,"heatPenalty":0,"effectivenessEma":0.5,"effMin":1,"effMax":0,"effActiveBeats":0,"hpPromoted":false},"entropy-phase":{"baseline":0.1,"current":0.1,"rollingAbsCorr":0,"rawRollingAbsCorr":0,"gain":0.16,"heatPenalty":0,"effectivenessEma":0.5,"effMin":1,"effMax":0,"effActiveBeats":0,"hpPromoted":false}},"axisCouplingTotals":{"density":0.525,"tension":0.4689,"flicker":0.5358,"entropy":0.4197,"trust":0.5235,"phase":0},"axisEnergyShare":{"shares":{"density":0.2123,"tension":0.1896,"flicker":0.2167,"entropy":0.1697,"trust":0.2117,"phase":0},"axisGini":0.2055},"couplingGates":{"gateD":1,"gateT":1,"gateF":1,"floorDampen":1,"bypassD":0.22715,"bypassT":-0.251474,"bypassF":0.329553,"gateMinD":1,"gateMinT":1,"gateMinF":1,"gateEmaD":1,"gateEmaT":1,"gateEmaF":1,"gateBeatCount":6},"couplingHomeostasis":{"totalEnergyEma":8.243,"energyBudget":3.5,"peakEnergyEma":8.243,"totalEnergyFloor":8.0005,"floorDampen":0.2,"redistributionScore":0,"nudgeableRedistributionScore":0,"globalGainMultiplier":0.6417,"giniCoefficient":0.3458,"energyDeltaEma":0.8243,"pairTurbulenceEma":0,"beatCount":1,"invokeCount":6,"tickCount":80,"emptyMatrixBeats":5,"multiplierMin":0.6417,"multiplierMax":1,"multiplierStdDev":0.1044,"floorContactBeats":0,"ceilingContactBeats":61,"avgRecoveryDuration":0},"axisEnergyEquilibrator":{"beatCount":6,"pairAdjustments":0,"axisAdjustments":0,"smoothedShares":{"density":0.016984,"tension":0.015168,"flicker":0.017336,"entropy":0.013576,"trust":0.016936,"phase":0},"perAxisAdj":{},"perPairAdj":{},"lastBaselines":{},"regimeBeats":{},"regimePairAdj":{},"regimeAxisAdj":{},"regimeTightenBudget":{}},"transitionReadiness":{"gap":0.6264,"couplingStrength":0.7921,"coherentThreshold":0.1658,"velocity":0.065246,"velThreshold":0.008,"thresholdScale":0.65,"velocityBlocked":false,"exploringBlock":"dimension","rawRegimeCounts":{"coherent":1},"rawRegimeMaxStreak":{"coherent":1},"effectiveDim":1.6955},"notes":[{"pitch":51,"velocity":101,"channel":0},{"pitch":44,"velocity":100,"channel":0},{"pitch":51,"velocity":96,"channel":0},{"pitch":51,"velocity":95,"channel":0},{"pitch":34,"velocity":86,"channel":0},{"pitch":56,"velocity":105,"channel":0},{"pitch":44,"velocity":88,"channel":0},{"pitch":87,"velocity":94,"channel":0},{"pitch":51,"velocity":107,"channel":0},{"pitch":51,"velocity":84,"channel":0},{"pitch":56,"velocity":84,"channel":0},{"pitch":56,"velocity":91,"channel":0},{"pitch":56,"velocity":117,"channel":0},{"pitch":92,"velocity":99,"channel":0},{"pitch":44,"velocity":108,"channel":0},{"pitch":51,"velocity":106,"channel":0},{"pitch":51,"velocity":101,"channel":0},{"pitch":56,"velocity":111,"channel":0},{"pitch":92,"velocity":92,"channel":0},{"pitch":56,"velocity":104,"channel":0},{"pitch":80,"velocity":104,"channel":0},{"pitch":27,"velocity":91,"channel":0},{"pitch":51,"velocity":93,"channel":0},{"pitch":87,"velocity":97,"channel":0},{"pitch":51,"velocity":89,"channel":0},{"pitch":51,"velocity":103,"channel":0},{"pitch":51,"velocity":100,"channel":0},{"pitch":51,"velocity":87,"channel":0},{"pitch":51,"velocity":102,"channel":0},{"pitch":51,"velocity":96,"channel":0},{"pitch":75,"velocity":110,"channel":0},{"pitch":51,"velocity":103,"channel":0},{"pitch":44,"velocity":98,"channel":0},{"pitch":87,"velocity":98,"channel":0},{"pitch":51,"velocity":113,"channel":0},{"pitch":87,"velocity":94,"channel":0},{"pitch":51,"velocity":77,"channel":0},{"pitch":51,"velocity":109,"channel":0},{"pitch":51,"velocity":105,"channel":0},{"pitch":75,"velocity":100,"channel":0},{"pitch":51,"velocity":106,"channel":0},{"pitch":44,"velocity":99,"channel":0},{"pitch":75,"velocity":106,"channel":0},{"pitch":75,"velocity":97,"channel":0},{"pitch":44,"velocity":105,"channel":0},{"pitch":75,"velocity":103,"channel":0},{"pitch":46,"velocity":100,"channel":0},{"pitch":51,"velocity":87,"channel":0},{"pitch":51,"velocity":97,"channel":0},{"pitch":51,"velocity":114,"channel":0},{"pitch":80,"velocity":113,"channel":0},{"pitch":44,"velocity":120,"channel":0},{"pitch":75,"velocity":104,"channel":0},{"pitch":51,"velocity":100,"channel":0},{"pitch":75,"velocity":91,"channel":0},{"pitch":51,"velocity":111,"channel":0},{"pitch":51,"velocity":111,"channel":0},{"pitch":51,"velocity":107,"channel":0},{"pitch":51,"velocity":104,"channel":0},{"pitch":56,"velocity":97,"channel":0},{"pitch":80,"velocity":100,"channel":0},{"pitch":39,"velocity":102,"channel":0},{"pitch":56,"velocity":91,"channel":0},{"pitch":56,"velocity":106,"channel":0},{"pitch":56,"velocity":91,"channel":0},{"pitch":80,"velocity":101,"channel":0},{"pitch":80,"velocity":105,"channel":0},{"pitch":56,"velocity":92,"channel":0},{"pitch":56,"velocity":96,"channel":0},{"pitch":39,"velocity":107,"channel":0},{"pitch":56,"velocity":87,"channel":0},{"pitch":44,"velocity":99,"channel":0},{"pitch":51,"velocity":96,"channel":0},{"pitch":51,"velocity":109,"channel":0},{"pitch":94,"velocity":99,"channel":0},{"pitch":34,"velocity":100,"channel":0},{"pitch":34,"velocity":92,"channel":0},{"pitch":87,"velocity":95,"channel":0},{"pitch":56,"velocity":90,"channel":0},{"pitch":51,"velocity":110,"channel":0},{"pitch":51,"velocity":86,"channel":0},{"pitch":51,"velocity":90,"channel":0},{"pitch":75,"velocity":94,"channel":0},{"pitch":51,"velocity":114,"channel":0},{"pitch":51,"velocity":94,"channel":0},{"pitch":51,"velocity":105,"channel":0},{"pitch":44,"velocity":109,"channel":0},{"pitch":51,"velocity":100,"channel":0},{"pitch":51,"velocity":110,"channel":0},{"pitch":51,"velocity":85,"channel":0},{"pitch":51,"velocity":102,"channel":0},{"pitch":51,"velocity":105,"channel":0},{"pitch":75,"velocity":86,"channel":0},{"pitch":51,"velocity":110,"channel":0},{"pitch":51,"velocity":99,"channel":0},{"pitch":51,"velocity":102,"channel":0},{"pitch":51,"velocity":81,"channel":0},{"pitch":51,"velocity":81,"channel":0},{"pitch":63,"velocity":113,"channel":0},{"pitch":56,"velocity":98,"channel":0},{"pitch":56,"velocity":91,"channel":0},{"pitch":56,"velocity":110,"channel":0},{"pitch":56,"velocity":108,"channel":0},{"pitch":51,"velocity":97,"channel":0},{"pitch":51,"velocity":100,"channel":0},{"pitch":51,"velocity":107,"channel":0},{"pitch":51,"velocity":88,"channel":0},{"pitch":51,"velocity":114,"channel":0},{"pitch":51,"velocity":101,"channel":0},{"pitch":87,"velocity":93,"channel":0},{"pitch":75,"velocity":96,"channel":0},{"pitch":39,"velocity":105,"channel":0},{"pitch":46,"velocity":105,"channel":0},{"pitch":51,"velocity":98,"channel":0},{"pitch":82,"velocity":100,"channel":0},{"pitch":44,"velocity":88,"channel":0},{"pitch":51,"velocity":96,"channel":0},{"pitch":51,"velocity":103,"channel":0},{"pitch":63,"velocity":86,"channel":0},{"pitch":82,"velocity":100,"channel":0},{"pitch":58,"velocity":94,"channel":0},{"pitch":51,"velocity":98,"channel":0},{"pitch":56,"velocity":109,"channel":0},{"pitch":56,"velocity":111,"channel":0},{"pitch":56,"velocity":87,"channel":0},{"pitch":56,"velocity":105,"channel":0},{"pitch":56,"velocity":103,"channel":0},{"pitch":56,"velocity":112,"channel":0},{"pitch":56,"velocity":103,"channel":0},{"pitch":92,"velocity":103,"channel":0},{"pitch":56,"velocity":106,"channel":0},{"pitch":56,"velocity":98,"channel":0},{"pitch":56,"velocity":95,"channel":0},{"pitch":68,"velocity":110,"channel":0},{"pitch":46,"velocity":118,"channel":0},{"pitch":44,"velocity":87,"channel":0},{"pitch":75,"velocity":98,"channel":0},{"pitch":75,"velocity":87,"channel":0},{"pitch":51,"velocity":115,"channel":0},{"pitch":51,"velocity":102,"channel":0},{"pitch":44,"velocity":105,"channel":0},{"pitch":46,"velocity":117,"channel":0},{"pitch":51,"velocity":101,"channel":0},{"pitch":51,"velocity":91,"channel":0},{"pitch":82,"velocity":96,"channel":0},{"pitch":46,"velocity":94,"channel":0},{"pitch":51,"velocity":109,"channel":0},{"pitch":58,"velocity":84,"channel":0},{"pitch":58,"velocity":114,"channel":0},{"pitch":92,"velocity":101,"channel":0},{"pitch":51,"velocity":88,"channel":0},{"pitch":92,"velocity":115,"channel":0},{"pitch":46,"velocity":118,"channel":0},{"pitch":51,"velocity":98,"channel":0},{"pitch":51,"velocity":109,"channel":0},{"pitch":80,"velocity":89,"channel":0},{"pitch":80,"velocity":96,"channel":0},{"pitch":56,"velocity":108,"channel":0},{"pitch":75,"velocity":103,"channel":0},{"pitch":44,"velocity":109,"channel":0},{"pitch":39,"velocity":88,"channel":0},{"pitch":51,"velocity":93,"channel":0},{"pitch":51,"velocity":97,"channel":0},{"pitch":51,"velocity":105,"channel":0},{"pitch":75,"velocity":87,"channel":0},{"pitch":51,"velocity":88,"channel":0},{"pitch":51,"velocity":111,"channel":0},{"pitch":46,"velocity":99,"channel":0},{"pitch":51,"velocity":108,"channel":0},{"pitch":56,"velocity":87,"channel":0},{"pitch":56,"velocity":114,"channel":0},{"pitch":56,"velocity":101,"channel":0},{"pitch":46,"velocity":111,"channel":0},{"pitch":58,"velocity":110,"channel":0},{"pitch":46,"velocity":80,"channel":0},{"pitch":82,"velocity":92,"channel":0},{"pitch":58,"velocity":91,"channel":0},{"pitch":58,"velocity":103,"channel":0},{"pitch":51,"velocity":105,"channel":0},{"pitch":51,"velocity":103,"channel":0},{"pitch":75,"velocity":97,"channel":0},{"pitch":51,"velocity":110,"channel":0},{"pitch":44,"velocity":109,"channel":0},{"pitch":51,"velocity":105,"channel":0},{"pitch":75,"velocity":95,"channel":0},{"pitch":51,"velocity":96,"channel":0},{"pitch":63,"velocity":103,"channel":0},{"pitch":92,"velocity":93,"channel":0},{"pitch":44,"velocity":108,"channel":0},{"pitch":46,"velocity":84,"channel":0},{"pitch":51,"velocity":94,"channel":0},{"pitch":51,"velocity":99,"channel":0},{"pitch":51,"velocity":108,"channel":0},{"pitch":51,"velocity":93,"channel":0},{"pitch":51,"velocity":101,"channel":0},{"pitch":51,"velocity":92,"channel":0},{"pitch":51,"velocity":105,"channel":0},{"pitch":39,"velocity":112,"channel":0},{"pitch":80,"velocity":117,"channel":0},{"pitch":87,"velocity":97,"channel":0},{"pitch":51,"velocity":102,"channel":0},{"pitch":51,"velocity":84,"channel":0},{"pitch":80,"velocity":127,"channel":0},{"pitch":51,"velocity":111,"channel":0},{"pitch":87,"velocity":109,"channel":0},{"pitch":56,"velocity":93,"channel":0},{"pitch":92,"velocity":97,"channel":0},{"pitch":80,"velocity":101,"channel":0},{"pitch":32,"velocity":119,"channel":0},{"pitch":34,"velocity":127,"channel":0}],"stageTiming":{"beat-setup":18.1079,"intent":0.011,"entropy":0.0148,"phase":0.0222,"climax":0.021,"envelope":0.013,"silhouette":0.0215,"rest":0.0263,"complement":0.0017,"tension-cadence":0.0209,"negotiation":0.0195,"probability-adjust":0.005,"emission":4.0175,"post-beat":0.0216},"iterBudget":{"raw":540,"capped":80,"wasCapped":true}}
{"layer":"L2","beatKey":"0:0:1:0","timeMs":3333.3333333333335,"snap":{"key":"A#","mode":"locrian","quality":"minor","scale":["A#","B","C#","D#","E","F#","G#"],"chords":[],"tension":0.2858458816418885,"harmonicRhythm":0.33338377287365806,"harmonicMutationCount":8,"excursion":0,"sectionPhase":"opening","phrasePosition":0.8,"phrasePhase":"resolution","phraseDynamism":1,"registerBias":1.0534230275096785,"densityMultiplier":1.0351141009169893,"voiceIndependence":0.5,"compositeIntensity":0.34955546008782645,"playProb":0.3427583082730545,"stutterProb":0.47505733023765967,"flicker":1.1885495733762952,"textureMode":"flurry","textureFatigue":0,"densityBias":0,"crossModBias":1,"emissionRatio":0.8882997864076252,"extraDensityCorrection":1.022340042718475,"extraCoherenceDensityBias":1,"activeProfile":"restrained","journeyMove":"origin","journeyDistance":0,"journeyKey":"D#","journeyMode":"locrian","binauralFreqOffset":9,"binauralFlip":false,"tick":442500,"updatedAt":1772749134759},"negotiation":{"playProb":0.25614697593551516,"stutterProb":0.2810021532408712,"allowCadence":false,"conflict":0.21944549649724765,"phaseConfidence":0.275},"trust":{"stutterContagion":{"score":0.650200833609162,"samples":80,"weight":1.4125},"cadenceAlignment":{"score":0.25371240800455097,"samples":80,"weight":1.1902843060034132},"phaseLock":{"score":0.25725777076901196,"samples":80,"weight":1.192943328076759},"convergence":{"score":0.2564865462891162,"samples":80,"weight":1.1923649097168372},"feedbackOscillator":{"score":0.2564066962112428,"samples":80,"weight":1.1923050221584321},"coherenceMonitor":{"score":0.6922804052874487,"samples":80,"weight":1.5192103039655867},"entropyRegulator":{"score":0.74925,"samples":80,"weight":1.5619375},"restSynchronizer":{"score":0.26427114325732876,"samples":80,"weight":1.1982033574429964}},"regime":"evolving","coupling":{"density-tension":-0.786,"density-flicker":0.98,"density-entropy":-0.768,"density-trust":-0.966,"density-phase":0,"tension-flicker":-0.88,"tension-entropy":0.6,"tension-trust":0.86,"tension-phase":0,"flicker-entropy":-0.739,"flicker-trust":-0.973,"flicker-phase":0,"entropy-trust":0.691,"entropy-phase":0},"couplingTargets":{"density-tension":{"baseline":0.15,"current":0.1477,"rollingAbsCorr":0.0297,"rawRollingAbsCorr":0.0297,"gain":0.3,"heatPenalty":0,"effectivenessEma":0.5012,"effMin":0.475,"effMax":0.5012,"effActiveBeats":2,"hpPromoted":false},"density-flicker":{"baseline":0.12,"current":0.1177,"rollingAbsCorr":0.0384,"rawRollingAbsCorr":0.0384,"gain":0.2416,"heatPenalty":0.036,"effectivenessEma":0.5012,"effMin":0.475,"effMax":0.5012,"effActiveBeats":2,"hpPromoted":false},"density-entropy":{"baseline":0.12,"current":0.1191,"rollingAbsCorr":0.0744,"rawRollingAbsCorr":0.0744,"gain":0.22,"heatPenalty":0,"effectivenessEma":0.5012,"effMin":0.475,"effMax":0.5012,"effActiveBeats":2,"hpPromoted":false},"density-trust":{"baseline":0.2,"current":0.1977,"rollingAbsCorr":0.0351,"rawRollingAbsCorr":0.0351,"gain":0.229,"heatPenalty":0.01,"effectivenessEma":0.5012,"effMin":0.475,"effMax":0.5012,"effActiveBeats":2,"hpPromoted":false},"density-phase":{"baseline":0.06,"current":0.06,"rollingAbsCorr":0,"rawRollingAbsCorr":0,"gain":0.16,"heatPenalty":0,"effectivenessEma":0.5,"effMin":1,"effMax":0,"effActiveBeats":0,"hpPromoted":false},"tension-flicker":{"baseline":0.15,"current":0.147,"rollingAbsCorr":0.0314,"rawRollingAbsCorr":0.0314,"gain":0.229,"heatPenalty":0.01,"effectivenessEma":0.5012,"effMin":0.475,"effMax":0.5012,"effActiveBeats":2,"hpPromoted":false},"tension-entropy":{"baseline":0.25,"current":0.247,"rollingAbsCorr":0.0508,"rawRollingAbsCorr":0.0508,"gain":0.22,"heatPenalty":0,"effectivenessEma":0.5012,"effMin":0.475,"effMax":0.5012,"effActiveBeats":2,"hpPromoted":false},"tension-trust":{"baseline":0.15,"current":0.147,"rollingAbsCorr":0.0342,"rawRollingAbsCorr":0.0342,"gain":0.229,"heatPenalty":0.01,"effectivenessEma":0.4512,"effMin":0.4512,"effMax":0.475,"effActiveBeats":2,"hpPromoted":false},"tension-phase":{"baseline":0.2,"current":0.197,"rollingAbsCorr":0,"rawRollingAbsCorr":0,"gain":0.16,"heatPenalty":0,"effectivenessEma":0.5,"effMin":1,"effMax":0,"effActiveBeats":0,"hpPromoted":false},"flicker-entropy":{"baseline":0.18,"current":0.177,"rollingAbsCorr":0.0733,"rawRollingAbsCorr":0.0733,"gain":0.22,"heatPenalty":0,"effectivenessEma":0.4512,"effMin":0.4512,"effMax":0.475,"effActiveBeats":2,"hpPromoted":false},"flicker-trust":{"baseline":0.12,"current":0.117,"rollingAbsCorr":0.0329,"rawRollingAbsCorr":0.0329,"gain":0.229,"heatPenalty":0.01,"effectivenessEma":0.5012,"effMin":0.475,"effMax":0.5012,"effActiveBeats":2,"hpPromoted":false},"flicker-phase":{"baseline":0.08,"current":0.08,"rollingAbsCorr":0,"rawRollingAbsCorr":0,"gain":0.16,"heatPenalty":0,"effectivenessEma":0.5,"effMin":1,"effMax":0,"effActiveBeats":0,"hpPromoted":false},"entropy-trust":{"baseline":0.25,"current":0.25,"rollingAbsCorr":0.0549,"rawRollingAbsCorr":0.0549,"gain":0.16,"heatPenalty":0,"effectivenessEma":0.5,"effMin":1,"effMax":0,"effActiveBeats":0,"hpPromoted":false},"entropy-phase":{"baseline":0.1,"current":0.1,"rollingAbsCorr":0,"rawRollingAbsCorr":0,"gain":0.16,"heatPenalty":0,"effectivenessEma":0.5,"effMin":1,"effMax":0,"effActiveBeats":0,"hpPromoted":false}},"axisCouplingTotals":{"density":0.9324,"tension":0.8085,"flicker":0.9236,"entropy":0.7182,"trust":0.8663,"phase":0},"axisEnergyShare":{"shares":{"density":0.2194,"tension":0.1903,"flicker":0.2174,"entropy":0.169,"trust":0.2039,"phase":0},"axisGini":0.2093},"couplingGates":{"gateD":1,"gateT":1,"gateF":1,"floorDampen":0.2,"bypassD":0.190994,"bypassT":-0.09245,"bypassF":0.140738,"gateMinD":1,"gateMinT":1,"gateMinF":1,"gateEmaD":1,"gateEmaT":1,"gateEmaF":1,"gateBeatCount":7},"couplingHomeostasis":{"totalEnergyEma":7.157,"energyBudget":3.5,"peakEnergyEma":8.2018,"totalEnergyFloor":7.7998,"floorDampen":0.22,"redistributionScore":0,"nudgeableRedistributionScore":0,"globalGainMultiplier":0.6341,"giniCoefficient":0.3699,"energyDeltaEma":0.6333,"pairTurbulenceEma":0.0082,"beatCount":2,"invokeCount":7,"tickCount":82,"emptyMatrixBeats":5,"multiplierMin":0.6341,"multiplierMax":1,"multiplierStdDev":0.1137,"floorContactBeats":0,"ceilingContactBeats":61,"avgRecoveryDuration":0},"axisEnergyEquilibrator":{"beatCount":7,"pairAdjustments":0,"axisAdjustments":0,"smoothedShares":{"density":0.03317728,"tension":0.02917856,"flicker":0.03334112,"entropy":0.02600992,"trust":0.03189312,"phase":0},"perAxisAdj":{},"perPairAdj":{},"lastBaselines":{},"regimeBeats":{},"regimePairAdj":{},"regimeAxisAdj":{},"regimeTightenBudget":{}},"transitionReadiness":{"gap":0.5588,"couplingStrength":0.7245,"coherentThreshold":0.1658,"velocity":0.064212,"velThreshold":0.008,"thresholdScale":0.65,"velocityBlocked":false,"exploringBlock":"dimension","rawRegimeCounts":{"coherent":2},"rawRegimeMaxStreak":{"coherent":2},"effectiveDim":1.92},"notes":[{"pitch":51,"velocity":98,"channel":0},{"pitch":51,"velocity":99,"channel":0},{"pitch":75,"velocity":100,"channel":0},{"pitch":58,"velocity":86,"channel":0},{"pitch":82,"velocity":94,"channel":0},{"pitch":51,"velocity":116,"channel":0},{"pitch":75,"velocity":105,"channel":0},{"pitch":82,"velocity":104,"channel":0},{"pitch":51,"velocity":99,"channel":0},{"pitch":51,"velocity":96,"channel":0},{"pitch":51,"velocity":85,"channel":0},{"pitch":87,"velocity":94,"channel":0},{"pitch":39,"velocity":127,"channel":0},{"pitch":51,"velocity":93,"channel":0},{"pitch":75,"velocity":101,"channel":0},{"pitch":80,"velocity":86,"channel":0},{"pitch":56,"velocity":100,"channel":0},{"pitch":56,"velocity":106,"channel":0},{"pitch":56,"velocity":100,"channel":0},{"pitch":56,"velocity":108,"channel":0},{"pitch":63,"velocity":92,"channel":0},{"pitch":51,"velocity":123,"channel":0},{"pitch":82,"velocity":103,"channel":0},{"pitch":46,"velocity":95,"channel":0},{"pitch":46,"velocity":95,"channel":0},{"pitch":82,"velocity":105,"channel":0},{"pitch":46,"velocity":91,"channel":0},{"pitch":75,"velocity":117,"channel":0},{"pitch":56,"velocity":115,"channel":0},{"pitch":58,"velocity":104,"channel":0},{"pitch":51,"velocity":108,"channel":0},{"pitch":51,"velocity":108,"channel":0},{"pitch":51,"velocity":102,"channel":0},{"pitch":46,"velocity":95,"channel":0},{"pitch":87,"velocity":103,"channel":0},{"pitch":75,"velocity":102,"channel":0},{"pitch":80,"velocity":91,"channel":0},{"pitch":51,"velocity":106,"channel":0},{"pitch":56,"velocity":99,"channel":0},{"pitch":56,"velocity":85,"channel":0},{"pitch":44,"velocity":103,"channel":0},{"pitch":46,"velocity":100,"channel":0},{"pitch":51,"velocity":107,"channel":0},{"pitch":51,"velocity":109,"channel":0},{"pitch":51,"velocity":106,"channel":0},{"pitch":39,"velocity":122,"channel":0},{"pitch":39,"velocity":98,"channel":0},{"pitch":75,"velocity":105,"channel":0},{"pitch":51,"velocity":100,"channel":0},{"pitch":44,"velocity":98,"channel":0},{"pitch":75,"velocity":114,"channel":0},{"pitch":80,"velocity":86,"channel":0},{"pitch":44,"velocity":109,"channel":0},{"pitch":44,"velocity":110,"channel":0},{"pitch":75,"velocity":109,"channel":0},{"pitch":56,"velocity":108,"channel":0},{"pitch":75,"velocity":91,"channel":0},{"pitch":75,"velocity":103,"channel":0},{"pitch":51,"velocity":111,"channel":0},{"pitch":51,"velocity":97,"channel":0},{"pitch":75,"velocity":100,"channel":0},{"pitch":46,"velocity":84,"channel":0},{"pitch":51,"velocity":91,"channel":0}],"stageTiming":{"beat-setup":22.5718,"intent":0.0211,"entropy":0.0214,"phase":0.0397,"climax":0.0316,"envelope":0.0178,"silhouette":0.0295,"rest":0.0425,"complement":0.003,"tension-cadence":0.0319,"negotiation":0.0298,"probability-adjust":0.0089,"emission":9.7059,"post-beat":0.0347},"iterBudget":{"raw":110,"capped":110,"wasCapped":false}}
{"layer":"L2","beatKey":"0:0:1:1","timeMs":3508.7719298245615,"snap":{"key":"A#","mode":"locrian","quality":"minor","scale":["A#","B","C#","D#","E","F#","G#"],"chords":[],"tension":0.2858458816418885,"harmonicRhythm":0.33338377287365806,"harmonicMutationCount":8,"excursion":0,"sectionPhase":"opening","phrasePosition":0.8,"phrasePhase":"resolution","phraseDynamism":1,"registerBias":1.0534230275096785,"densityMultiplier":1.0351141009169893,"voiceIndependence":0.5,"compositeIntensity":0.34955546008782645,"playProb":0.3427583082730545,"stutterProb":0.47505733023765967,"flicker":1.1885495733762952,"textureMode":"flurry","textureFatigue":0,"densityBias":0,"crossModBias":1,"emissionRatio":0.8882997864076252,"extraDensityCorrection":1.022340042718475,"extraCoherenceDensityBias":1,"activeProfile":"restrained","journeyMove":"origin","journeyDistance":0,"journeyKey":"D#","journeyMode":"locrian","binauralFreqOffset":9,"binauralFlip":false,"tick":442500,"updatedAt":1772749134759},"negotiation":{"playProb":0.25727131139363624,"stutterProb":0.28275087462890414,"allowCadence":false,"conflict":0.22221569399658692,"phaseConfidence":0.275},"trust":{"stutterContagion":{"score":0.6237334305702664,"samples":81,"weight":1.4125},"cadenceAlignment":{"score":0.24986349513898365,"samples":81,"weight":1.1873976213542377},"phaseLock":{"score":0.2559008366984186,"samples":81,"weight":1.191925627523814},"convergence":{"score":0.2528132198737613,"samples":81,"weight":1.189609914905321},"feedbackOscillator":{"score":0.2545112605635284,"samples":81,"weight":1.1908834454226462},"coherenceMonitor":{"score":0.6930545721217065,"samples":81,"weight":1.5197909290912799},"entropyRegulator":{"score":0.74925,"samples":81,"weight":1.5619375},"restSynchronizer":{"score":0.24986349513898365,"samples":81,"weight":1.1873976213542377}},"regime":"evolving","coupling":{"density-tension":-0.786,"density-flicker":0.98,"density-entropy":-0.768,"density-trust":-0.966,"density-phase":0,"tension-flicker":-0.88,"tension-entropy":0.6,"tension-trust":0.86,"tension-phase":0,"flicker-entropy":-0.739,"flicker-trust":-0.973,"flicker-phase":0,"entropy-trust":0.691,"entropy-phase":0},"couplingTargets":{"density-tension":{"baseline":0.15,"current":0.1477,"rollingAbsCorr":0.0297,"rawRollingAbsCorr":0.0297,"gain":0.3,"heatPenalty":0,"effectivenessEma":0.5012,"effMin":0.475,"effMax":0.5012,"effActiveBeats":2,"hpPromoted":false},"density-flicker":{"baseline":0.12,"current":0.1177,"rollingAbsCorr":0.0384,"rawRollingAbsCorr":0.0384,"gain":0.2416,"heatPenalty":0.036,"effectivenessEma":0.5012,"effMin":0.475,"effMax":0.5012,"effActiveBeats":2,"hpPromoted":false},"density-entropy":{"baseline":0.12,"current":0.1191,"rollingAbsCorr":0.0744,"rawRollingAbsCorr":0.0744,"gain":0.22,"heatPenalty":0,"effectivenessEma":0.5012,"effMin":0.475,"effMax":0.5012,"effActiveBeats":2,"hpPromoted":false},"density-trust":{"baseline":0.2,"current":0.1977,"rollingAbsCorr":0.0351,"rawRollingAbsCorr":0.0351,"gain":0.229,"heatPenalty":0.01,"effectivenessEma":0.5012,"effMin":0.475,"effMax":0.5012,"effActiveBeats":2,"hpPromoted":false},"density-phase":{"baseline":0.06,"current":0.06,"rollingAbsCorr":0,"rawRollingAbsCorr":0,"gain":0.16,"heatPenalty":0,"effectivenessEma":0.5,"effMin":1,"effMax":0,"effActiveBeats":0,"hpPromoted":false},"tension-flicker":{"baseline":0.15,"current":0.147,"rollingAbsCorr":0.0314,"rawRollingAbsCorr":0.0314,"gain":0.229,"heatPenalty":0.01,"effectivenessEma":0.5012,"effMin":0.475,"effMax":0.5012,"effActiveBeats":2,"hpPromoted":false},"tension-entropy":{"baseline":0.25,"current":0.247,"rollingAbsCorr":0.0508,"rawRollingAbsCorr":0.0508,"gain":0.22,"heatPenalty":0,"effectivenessEma":0.5012,"effMin":0.475,"effMax":0.5012,"effActiveBeats":2,"hpPromoted":false},"tension-trust":{"baseline":0.15,"current":0.147,"rollingAbsCorr":0.0342,"rawRollingAbsCorr":0.0342,"gain":0.229,"heatPenalty":0.01,"effectivenessEma":0.4512,"effMin":0.4512,"effMax":0.475,"effActiveBeats":2,"hpPromoted":false},"tension-phase":{"baseline":0.2,"current":0.197,"rollingAbsCorr":0,"rawRollingAbsCorr":0,"gain":0.16,"heatPenalty":0,"effectivenessEma":0.5,"effMin":1,"effMax":0,"effActiveBeats":0,"hpPromoted":false},"flicker-entropy":{"baseline":0.18,"current":0.177,"rollingAbsCorr":0.0733,"rawRollingAbsCorr":0.0733,"gain":0.22,"heatPenalty":0,"effectivenessEma":0.4512,"effMin":0.4512,"effMax":0.475,"effActiveBeats":2,"hpPromoted":false},"flicker-trust":{"baseline":0.12,"current":0.117,"rollingAbsCorr":0.0329,"rawRollingAbsCorr":0.0329,"gain":0.229,"heatPenalty":0.01,"effectivenessEma":0.5012,"effMin":0.475,"effMax":0.5012,"effActiveBeats":2,"hpPromoted":false},"flicker-phase":{"baseline":0.08,"current":0.08,"rollingAbsCorr":0,"rawRollingAbsCorr":0,"gain":0.16,"heatPenalty":0,"effectivenessEma":0.5,"effMin":1,"effMax":0,"effActiveBeats":0,"hpPromoted":false},"entropy-trust":{"baseline":0.25,"current":0.25,"rollingAbsCorr":0.0549,"rawRollingAbsCorr":0.0549,"gain":0.16,"heatPenalty":0,"effectivenessEma":0.5,"effMin":1,"effMax":0,"effActiveBeats":0,"hpPromoted":false},"entropy-phase":{"baseline":0.1,"current":0.1,"rollingAbsCorr":0,"rawRollingAbsCorr":0,"gain":0.16,"heatPenalty":0,"effectivenessEma":0.5,"effMin":1,"effMax":0,"effActiveBeats":0,"hpPromoted":false}},"axisCouplingTotals":{"density":0.9324,"tension":0.8085,"flicker":0.9236,"entropy":0.7182,"trust":0.8663,"phase":0},"axisEnergyShare":{"shares":{"density":0.2194,"tension":0.1903,"flicker":0.2174,"entropy":0.169,"trust":0.2039,"phase":0},"axisGini":0.2093},"couplingGates":{"gateD":1,"gateT":1,"gateF":1,"floorDampen":0.2,"bypassD":0.190994,"bypassT":-0.09245,"bypassF":0.140738,"gateMinD":1,"gateMinT":1,"gateMinF":1,"gateEmaD":1,"gateEmaT":1,"gateEmaF":1,"gateBeatCount":7},"couplingHomeostasis":{"totalEnergyEma":7.157,"energyBudget":3.5,"peakEnergyEma":8.2018,"totalEnergyFloor":7.7608,"floorDampen":0.23,"redistributionScore":0,"nudgeableRedistributionScore":0,"globalGainMultiplier":0.6268,"giniCoefficient":0.3699,"energyDeltaEma":0.6333,"pairTurbulenceEma":0.0082,"beatCount":2,"invokeCount":7,"tickCount":83,"emptyMatrixBeats":5,"multiplierMin":0.6268,"multiplierMax":1,"multiplierStdDev":0.1181,"floorContactBeats":0,"ceilingContactBeats":61,"avgRecoveryDuration":0},"axisEnergyEquilibrator":{"beatCount":7,"pairAdjustments":0,"axisAdjustments":0,"smoothedShares":{"density":0.03317728,"tension":0.02917856,"flicker":0.03334112,"entropy":0.02600992,"trust":0.03189312,"phase":0},"perAxisAdj":{},"perPairAdj":{},"lastBaselines":{},"regimeBeats":{},"regimePairAdj":{},"regimeAxisAdj":{},"regimeTightenBudget":{}},"transitionReadiness":{"gap":0.5588,"couplingStrength":0.7245,"coherentThreshold":0.1658,"velocity":0.064212,"velThreshold":0.008,"thresholdScale":0.65,"velocityBlocked":false,"exploringBlock":"dimension","rawRegimeCounts":{"coherent":2},"rawRegimeMaxStreak":{"coherent":2},"effectiveDim":1.92},"notes":[{"pitch":27,"velocity":85,"channel":0},{"pitch":51,"velocity":82,"channel":0},{"pitch":27,"velocity":86,"channel":0},{"pitch":78,"velocity":94,"channel":0},{"pitch":32,"velocity":81,"channel":0},{"pitch":30,"velocity":82,"channel":0},{"pitch":32,"velocity":97,"channel":0},{"pitch":80,"velocity":75,"channel":0},{"pitch":80,"velocity":77,"channel":0},{"pitch":32,"velocity":88,"channel":0},{"pitch":90,"velocity":80,"channel":0},{"pitch":20,"velocity":85,"channel":0},{"pitch":92,"velocity":62,"channel":0},{"pitch":20,"velocity":75,"channel":0},{"pitch":56,"velocity":91,"channel":0},{"pitch":32,"velocity":82,"channel":0},{"pitch":27,"velocity":84,"channel":0},{"pitch":56,"velocity":88,"channel":0},{"pitch":58,"velocity":84,"channel":0},{"pitch":58,"velocity":76,"channel":0},{"pitch":22,"velocity":81,"channel":0},{"pitch":15,"velocity":89,"channel":0},{"pitch":76,"velocity":75,"channel":0},{"pitch":27,"velocity":71,"channel":0},{"pitch":27,"velocity":83,"channel":0},{"pitch":27,"velocity":86,"channel":0},{"pitch":87,"velocity":71,"channel":0},{"pitch":87,"velocity":65,"channel":0},{"pitch":54,"velocity":81,"channel":0},{"pitch":30,"velocity":94,"channel":0},{"pitch":78,"velocity":81,"channel":0},{"pitch":32,"velocity":73,"channel":0},{"pitch":32,"velocity":87,"channel":0},{"pitch":30,"velocity":78,"channel":0},{"pitch":56,"velocity":83,"channel":0},{"pitch":30,"velocity":87,"channel":0},{"pitch":51,"velocity":85,"channel":0},{"pitch":51,"velocity":83,"channel":0},{"pitch":87,"velocity":91,"channel":0},{"pitch":39,"velocity":85,"channel":0},{"pitch":75,"velocity":96,"channel":0},{"pitch":51,"velocity":93,"channel":0},{"pitch":27,"velocity":69,"channel":0},{"pitch":28,"velocity":82,"channel":0},{"pitch":27,"velocity":78,"channel":0},{"pitch":56,"velocity":76,"channel":0},{"pitch":58,"velocity":104,"channel":0},{"pitch":56,"velocity":95,"channel":0},{"pitch":22,"velocity":93,"channel":0},{"pitch":22,"velocity":78,"channel":0},{"pitch":27,"velocity":87,"channel":0},{"pitch":22,"velocity":77,"channel":0},{"pitch":87,"velocity":83,"channel":0},{"pitch":27,"velocity":90,"channel":0},{"pitch":27,"velocity":81,"channel":0},{"pitch":87,"velocity":92,"channel":0},{"pitch":27,"velocity":81,"channel":0},{"pitch":27,"velocity":88,"channel":0},{"pitch":22,"velocity":92,"channel":0},{"pitch":87,"velocity":84,"channel":0},{"pitch":75,"velocity":86,"channel":0},{"pitch":51,"velocity":91,"channel":0},{"pitch":82,"velocity":84,"channel":0},{"pitch":56,"velocity":96,"channel":0},{"pitch":75,"velocity":84,"channel":0},{"pitch":58,"velocity":80,"channel":0},{"pitch":58,"velocity":92,"channel":0},{"pitch":87,"velocity":87,"channel":0},{"pitch":51,"velocity":93,"channel":0},{"pitch":51,"velocity":91,"channel":0},{"pitch":58,"velocity":74,"channel":0},{"pitch":32,"velocity":80,"channel":0},{"pitch":22,"velocity":89,"channel":0},{"pitch":27,"velocity":78,"channel":0},{"pitch":75,"velocity":75,"channel":0},{"pitch":27,"velocity":78,"channel":0},{"pitch":27,"velocity":72,"channel":0},{"pitch":22,"velocity":85,"channel":0},{"pitch":51,"velocity":81,"channel":0},{"pitch":27,"velocity":103,"channel":0},{"pitch":27,"velocity":97,"channel":0},{"pitch":82,"velocity":86,"channel":0},{"pitch":27,"velocity":85,"channel":0},{"pitch":27,"velocity":84,"channel":0},{"pitch":27,"velocity":90,"channel":0},{"pitch":27,"velocity":86,"channel":0},{"pitch":27,"velocity":82,"channel":0},{"pitch":46,"velocity":84,"channel":0},{"pitch":32,"velocity":87,"channel":0},{"pitch":58,"velocity":88,"channel":0},{"pitch":27,"velocity":82,"channel":0},{"pitch":22,"velocity":89,"channel":0},{"pitch":27,"velocity":84,"channel":0},{"pitch":94,"velocity":84,"channel":0},{"pitch":10,"velocity":72,"channel":0},{"pitch":82,"velocity":85,"channel":0},{"pitch":20,"velocity":90,"channel":0},{"pitch":20,"velocity":82,"channel":0},{"pitch":20,"velocity":96,"channel":0},{"pitch":56,"velocity":84,"channel":0},{"pitch":51,"velocity":86,"channel":0},{"pitch":27,"velocity":75,"channel":0},{"pitch":27,"velocity":93,"channel":0},{"pitch":87,"velocity":88,"channel":0},{"pitch":27,"velocity":81,"channel":0},{"pitch":51,"velocity":75,"channel":0},{"pitch":51,"velocity":93,"channel":0},{"pitch":75,"velocity":96,"channel":0},{"pitch":27,"velocity":81,"channel":0},{"pitch":15,"velocity":88,"channel":0},{"pitch":82,"velocity":90,"channel":0},{"pitch":22,"velocity":90,"channel":0},{"pitch":75,"velocity":93,"channel":0},{"pitch":63,"velocity":105,"channel":0},{"pitch":75,"velocity":97,"channel":0},{"pitch":27,"velocity":92,"channel":0},{"pitch":34,"velocity":89,"channel":0},{"pitch":22,"velocity":96,"channel":0},{"pitch":27,"velocity":96,"channel":0},{"pitch":27,"velocity":84,"channel":0},{"pitch":27,"velocity":82,"channel":0},{"pitch":51,"velocity":98,"channel":0},{"pitch":27,"velocity":89,"channel":0},{"pitch":75,"velocity":93,"channel":0},{"pitch":3,"velocity":84,"channel":0},{"pitch":82,"velocity":96,"channel":0},{"pitch":82,"velocity":93,"channel":0},{"pitch":87,"velocity":74,"channel":0},{"pitch":27,"velocity":84,"channel":0},{"pitch":75,"velocity":80,"channel":0},{"pitch":27,"velocity":84,"channel":0},{"pitch":94,"velocity":90,"channel":0},{"pitch":27,"velocity":87,"channel":0},{"pitch":27,"velocity":86,"channel":0},{"pitch":27,"velocity":90,"channel":0},{"pitch":27,"velocity":77,"channel":0},{"pitch":58,"velocity":80,"channel":0},{"pitch":27,"velocity":86,"channel":0},{"pitch":34,"velocity":80,"channel":0},{"pitch":27,"velocity":75,"channel":0},{"pitch":75,"velocity":94,"channel":0},{"pitch":27,"velocity":78,"channel":0},{"pitch":27,"velocity":94,"channel":0},{"pitch":51,"velocity":90,"channel":0},{"pitch":51,"velocity":92,"channel":0},{"pitch":22,"velocity":77,"channel":0},{"pitch":27,"velocity":81,"channel":0},{"pitch":75,"velocity":81,"channel":0},{"pitch":75,"velocity":77,"channel":0},{"pitch":27,"velocity":93,"channel":0},{"pitch":27,"velocity":78,"channel":0},{"pitch":27,"velocity":74,"channel":0},{"pitch":22,"velocity":94,"channel":0},{"pitch":27,"velocity":89,"channel":0},{"pitch":75,"velocity":73,"channel":0},{"pitch":27,"velocity":85,"channel":0},{"pitch":75,"velocity":80,"channel":0}],"stageTiming":{"beat-setup":15.0139,"intent":0.0121,"entropy":0.0144,"phase":0.0213,"climax":0.0222,"envelope":0.0114,"silhouette":0.0206,"rest":0.0333,"complement":0.0014,"tension-cadence":0.0221,"negotiation":0.025,"probability-adjust":0.0058,"emission":1.6811,"post-beat":0.0197},"iterBudget":{"raw":700,"capped":392,"wasCapped":true}}
{"layer":"L2","beatKey":"0:0:1:2","timeMs":3684.2105263157896,"snap":{"key":"A#","mode":"locrian","quality":"minor","scale":["A#","B","C#","D#","E","F#","G#"],"chords":[],"tension":0.2858458816418885,"harmonicRhythm":0.33338377287365806,"harmonicMutationCount":8,"excursion":0,"sectionPhase":"opening","phrasePosition":0.8,"phrasePhase":"resolution","phraseDynamism":1,"registerBias":1.0534230275096785,"densityMultiplier":1.0351141009169893,"voiceIndependence":0.5,"compositeIntensity":0.34955546008782645,"playProb":0.3427583082730545,"stutterProb":0.47505733023765967,"flicker":1.1885495733762952,"textureMode":"flurry","textureFatigue":0,"densityBias":0,"crossModBias":1,"emissionRatio":0.8882997864076252,"extraDensityCorrection":1.022340042718475,"extraCoherenceDensityBias":1,"activeProfile":"restrained","journeyMove":"origin","journeyDistance":0,"journeyKey":"D#","journeyMode":"locrian","binauralFreqOffset":9,"binauralFlip":false,"tick":442500,"updatedAt":1772749134759},"negotiation":{"playProb":0.25839730394331184,"stutterProb":0.2845037361623291,"allowCadence":false,"conflict":0.22510237864576244,"phaseConfidence":0.275},"trust":{"stutterContagion":{"score":0.5989334977867228,"samples":82,"weight":1.4125},"cadenceAlignment":{"score":0.2469569080092521,"samples":82,"weight":1.185217681006939},"phaseLock":{"score":0.25468081727554814,"samples":82,"weight":1.191010612956661},"convergence":{"score":0.24902889593476157,"samples":82,"weight":1.1867716719510712},"feedbackOscillator":{"score":0.2528070743726684,"samples":82,"weight":1.1896053057795013},"coherenceMonitor":{"score":0.6931105203088713,"samples":82,"weight":1.5198328902316534},"entropyRegulator":{"score":0.74925,"samples":82,"weight":1.5619375},"restSynchronizer":{"score":0.2469569080092521,"samples":82,"weight":1.185217681006939}},"regime":"evolving","coupling":{"density-tension":-0.786,"density-flicker":0.98,"density-entropy":-0.768,"density-trust":-0.966,"density-phase":0,"tension-flicker":-0.88,"tension-entropy":0.6,"tension-trust":0.86,"tension-phase":0,"flicker-entropy":-0.739,"flicker-trust":-0.973,"flicker-phase":0,"entropy-trust":0.691,"entropy-phase":0},"couplingTargets":{"density-tension":{"baseline":0.15,"current":0.1477,"rollingAbsCorr":0.0297,"rawRollingAbsCorr":0.0297,"gain":0.3,"heatPenalty":0,"effectivenessEma":0.5012,"effMin":0.475,"effMax":0.5012,"effActiveBeats":2,"hpPromoted":false},"density-flicker":{"baseline":0.12,"current":0.1177,"rollingAbsCorr":0.0384,"rawRollingAbsCorr":0.0384,"gain":0.2416,"heatPenalty":0.036,"effectivenessEma":0.5012,"effMin":0.475,"effMax":0.5012,"effActiveBeats":2,"hpPromoted":false},"density-entropy":{"baseline":0.12,"current":0.1191,"rollingAbsCorr":0.0744,"rawRollingAbsCorr":0.0744,"gain":0.22,"heatPenalty":0,"effectivenessEma":0.5012,"effMin":0.475,"effMax":0.5012,"effActiveBeats":2,"hpPromoted":false},"density-trust":{"baseline":0.2,"current":0.1977,"rollingAbsCorr":0.0351,"rawRollingAbsCorr":0.0351,"gain":0.229,"heatPenalty":0.01,"effectivenessEma":0.5012,"effMin":0.475,"effMax":0.5012,"effActiveBeats":2,"hpPromoted":false},"density-phase":{"baseline":0.06,"current":0.06,"rollingAbsCorr":0,"rawRollingAbsCorr":0,"gain":0.16,"heatPenalty":0,"effectivenessEma":0.5,"effMin":1,"effMax":0,"effActiveBeats":0,"hpPromoted":false},"tension-flicker":{"baseline":0.15,"current":0.147,"rollingAbsCorr":0.0314,"rawRollingAbsCorr":0.0314,"gain":0.229,"heatPenalty":0.01,"effectivenessEma":0.5012,"effMin":0.475,"effMax":0.5012,"effActiveBeats":2,"hpPromoted":false},"tension-entropy":{"baseline":0.25,"current":0.247,"rollingAbsCorr":0.0508,"rawRollingAbsCorr":0.0508,"gain":0.22,"heatPenalty":0,"effectivenessEma":0.5012,"effMin":0.475,"effMax":0.5012,"effActiveBeats":2,"hpPromoted":false},"tension-trust":{"baseline":0.15,"current":0.147,"rollingAbsCorr":0.0342,"rawRollingAbsCorr":0.0342,"gain":0.229,"heatPenalty":0.01,"effectivenessEma":0.4512,"effMin":0.4512,"effMax":0.475,"effActiveBeats":2,"hpPromoted":false},"tension-phase":{"baseline":0.2,"current":0.197,"rollingAbsCorr":0,"rawRollingAbsCorr":0,"gain":0.16,"heatPenalty":0,"effectivenessEma":0.5,"effMin":1,"effMax":0,"effActiveBeats":0,"hpPromoted":false},"flicker-entropy":{"baseline":0.18,"current":0.177,"rollingAbsCorr":0.0733,"rawRollingAbsCorr":0.0733,"gain":0.22,"heatPenalty":0,"effectivenessEma":0.4512,"effMin":0.4512,"effMax":0.475,"effActiveBeats":2,"hpPromoted":false},"flicker-trust":{"baseline":0.12,"current":0.117,"rollingAbsCorr":0.0329,"rawRollingAbsCorr":0.0329,"gain":0.229,"heatPenalty":0.01,"effectivenessEma":0.5012,"effMin":0.475,"effMax":0.5012,"effActiveBeats":2,"hpPromoted":false},"flicker-phase":{"baseline":0.08,"current":0.08,"rollingAbsCorr":0,"rawRollingAbsCorr":0,"gain":0.16,"heatPenalty":0,"effectivenessEma":0.5,"effMin":1,"effMax":0,"effActiveBeats":0,"hpPromoted":false},"entropy-trust":{"baseline":0.25,"current":0.25,"rollingAbsCorr":0.0549,"rawRollingAbsCorr":0.0549,"gain":0.16,"heatPenalty":0,"effectivenessEma":0.5,"effMin":1,"effMax":0,"effActiveBeats":0,"hpPromoted":false},"entropy-phase":{"baseline":0.1,"current":0.1,"rollingAbsCorr":0,"rawRollingAbsCorr":0,"gain":0.16,"heatPenalty":0,"effectivenessEma":0.5,"effMin":1,"effMax":0,"effActiveBeats":0,"hpPromoted":false}},"axisCouplingTotals":{"density":0.9324,"tension":0.8085,"flicker":0.9236,"entropy":0.7182,"trust":0.8663,"phase":0},"axisEnergyShare":{"shares":{"density":0.2194,"tension":0.1903,"flicker":0.2174,"entropy":0.169,"trust":0.2039,"phase":0},"axisGini":0.2093},"couplingGates":{"gateD":1,"gateT":1,"gateF":1,"floorDampen":0.2,"bypassD":0.190994,"bypassT":-0.09245,"bypassF":0.140738,"gateMinD":1,"gateMinT":1,"gateMinF":1,"gateEmaD":1,"gateEmaT":1,"gateEmaF":1,"gateBeatCount":7},"couplingHomeostasis":{"totalEnergyEma":7.157,"energyBudget":3.5,"peakEnergyEma":8.2018,"totalEnergyFloor":7.722,"floorDampen":0.24,"redistributionScore":0,"nudgeableRedistributionScore":0,"globalGainMultiplier":0.62,"giniCoefficient":0.3699,"energyDeltaEma":0.6333,"pairTurbulenceEma":0.0082,"beatCount":2,"invokeCount":7,"tickCount":84,"emptyMatrixBeats":5,"multiplierMin":0.62,"multiplierMax":1,"multiplierStdDev":0.1223,"floorContactBeats":0,"ceilingContactBeats":61,"avgRecoveryDuration":0},"axisEnergyEquilibrator":{"beatCount":7,"pairAdjustments":0,"axisAdjustments":0,"smoothedShares":{"density":0.03317728,"tension":0.02917856,"flicker":0.03334112,"entropy":0.02600992,"trust":0.03189312,"phase":0},"perAxisAdj":{},"perPairAdj":{},"lastBaselines":{},"regimeBeats":{},"regimePairAdj":{},"regimeAxisAdj":{},"regimeTightenBudget":{}},"transitionReadiness":{"gap":0.5588,"couplingStrength":0.7245,"coherentThreshold":0.1658,"velocity":0.064212,"velThreshold":0.008,"thresholdScale":0.65,"velocityBlocked":false,"exploringBlock":"dimension","rawRegimeCounts":{"coherent":2},"rawRegimeMaxStreak":{"coherent":2},"effectiveDim":1.92},"notes":[{"pitch":40,"velocity":79,"channel":0},{"pitch":15,"velocity":90,"channel":0},{"pitch":15,"velocity":76,"channel":0},{"pitch":39,"velocity":88,"channel":0},{"pitch":80,"velocity":87,"channel":0},{"pitch":80,"velocity":90,"channel":0},{"pitch":27,"velocity":90,"channel":0},{"pitch":87,"velocity":85,"channel":0},{"pitch":52,"velocity":86,"channel":0},{"pitch":22,"velocity":77,"channel":0},{"pitch":58,"velocity":100,"channel":0},{"pitch":22,"velocity":90,"channel":0},{"pitch":82,"velocity":88,"channel":0},{"pitch":58,"velocity":73,"channel":0},{"pitch":82,"velocity":71,"channel":0},{"pitch":8,"velocity":89,"channel":0},{"pitch":10,"velocity":94,"channel":0},{"pitch":75,"velocity":92,"channel":0},{"pitch":15,"velocity":80,"channel":0},{"pitch":3,"velocity":85,"channel":0},{"pitch":82,"velocity":77,"channel":0},{"pitch":51,"velocity":100,"channel":0},{"pitch":75,"velocity":77,"channel":0},{"pitch":27,"velocity":98,"channel":0},{"pitch":15,"velocity":88,"channel":0},{"pitch":82,"velocity":84,"channel":0},{"pitch":51,"velocity":94,"channel":0},{"pitch":46,"velocity":79,"channel":0},{"pitch":46,"velocity":81,"channel":0},{"pitch":94,"velocity":100,"channel":0},{"pitch":51,"velocity":75,"channel":0},{"pitch":27,"velocity":92,"channel":0},{"pitch":10,"velocity":76,"channel":0},{"pitch":54,"velocity":85,"channel":0},{"pitch":80,"velocity":95,"channel":0},{"pitch":44,"velocity":94,"channel":0},{"pitch":54,"velocity":72,"channel":0},{"pitch":52,"velocity":85,"channel":0},{"pitch":44,"velocity":94,"channel":0},{"pitch":44,"velocity":86,"channel":0},{"pitch":44,"velocity":85,"channel":0},{"pitch":44,"velocity":93,"channel":0},{"pitch":44,"velocity":76,"channel":0},{"pitch":30,"velocity":67,"channel":0},{"pitch":51,"velocity":89,"channel":0},{"pitch":51,"velocity":83,"channel":0},{"pitch":39,"velocity":89,"channel":0},{"pitch":32,"velocity":85,"channel":0},{"pitch":46,"velocity":75,"channel":0},{"pitch":51,"velocity":80,"channel":0},{"pitch":75,"velocity":83,"channel":0},{"pitch":75,"velocity":88,"channel":0},{"pitch":80,"velocity":73,"channel":0},{"pitch":58,"velocity":88,"channel":0},{"pitch":39,"velocity":75,"channel":0},{"pitch":51,"velocity":85,"channel":0},{"pitch":87,"velocity":82,"channel":0},{"pitch":56,"velocity":81,"channel":0},{"pitch":54,"velocity":81,"channel":0},{"pitch":51,"velocity":87,"channel":0},{"pitch":82,"velocity":90,"channel":0},{"pitch":22,"velocity":71,"channel":0},{"pitch":44,"velocity":69,"channel":0},{"pitch":44,"velocity":92,"channel":0},{"pitch":20,"velocity":90,"channel":0},{"pitch":78,"velocity":75,"channel":0},{"pitch":20,"velocity":95,"channel":0},{"pitch":22,"velocity":103,"channel":0},{"pitch":34,"velocity":85,"channel":0},{"pitch":16,"velocity":94,"channel":0},{"pitch":34,"velocity":70,"channel":0},{"pitch":46,"velocity":80,"channel":0},{"pitch":32,"velocity":87,"channel":0},{"pitch":82,"velocity":83,"channel":0},{"pitch":34,"velocity":79,"channel":0},{"pitch":46,"velocity":94,"channel":0},{"pitch":51,"velocity":83,"channel":0},{"pitch":32,"velocity":83,"channel":0},{"pitch":20,"velocity":84,"channel":0},{"pitch":82,"velocity":93,"channel":0},{"pitch":51,"velocity":86,"channel":0},{"pitch":39,"velocity":83,"channel":0},{"pitch":51,"velocity":85,"channel":0},{"pitch":94,"velocity":98,"channel":0},{"pitch":22,"velocity":93,"channel":0},{"pitch":20,"velocity":92,"channel":0},{"pitch":80,"velocity":76,"channel":0},{"pitch":56,"velocity":83,"channel":0},{"pitch":75,"velocity":98,"channel":0},{"pitch":34,"velocity":82,"channel":0},{"pitch":51,"velocity":94,"channel":0},{"pitch":51,"velocity":86,"channel":0},{"pitch":70,"velocity":83,"channel":0},{"pitch":34,"velocity":85,"channel":0},{"pitch":20,"velocity":72,"channel":0},{"pitch":20,"velocity":87,"channel":0},{"pitch":80,"velocity":95,"channel":0},{"pitch":78,"velocity":94,"channel":0},{"pitch":87,"velocity":84,"channel":0},{"pitch":80,"velocity":95,"channel":0},{"pitch":56,"velocity":94,"channel":0},{"pitch":82,"velocity":76,"channel":0},{"pitch":82,"velocity":77,"channel":0},{"pitch":51,"velocity":97,"channel":0},{"pitch":51,"velocity":94,"channel":0},{"pitch":32,"velocity":88,"channel":0},{"pitch":32,"velocity":99,"channel":0},{"pitch":34,"velocity":82,"channel":0},{"pitch":54,"velocity":88,"channel":0},{"pitch":54,"velocity":72,"channel":0},{"pitch":10,"velocity":85,"channel":0},{"pitch":16,"velocity":84,"channel":0},{"pitch":39,"velocity":87,"channel":0},{"pitch":56,"velocity":82,"channel":0},{"pitch":58,"velocity":79,"channel":0},{"pitch":68,"velocity":82,"channel":0},{"pitch":44,"velocity":86,"channel":0},{"pitch":80,"velocity":86,"channel":0},{"pitch":56,"velocity":90,"channel":0},{"pitch":54,"velocity":87,"channel":0},{"pitch":34,"velocity":84,"channel":0},{"pitch":39,"velocity":93,"channel":0},{"pitch":39,"velocity":93,"channel":0},{"pitch":70,"velocity":88,"channel":0},{"pitch":46,"velocity":62,"channel":0},{"pitch":82,"velocity":75,"channel":0},{"pitch":39,"velocity":86,"channel":0},{"pitch":75,"velocity":81,"channel":0},{"pitch":46,"velocity":84,"channel":0},{"pitch":51,"velocity":91,"channel":0},{"pitch":39,"velocity":86,"channel":0},{"pitch":51,"velocity":88,"channel":0},{"pitch":51,"velocity":76,"channel":0},{"pitch":82,"velocity":97,"channel":0},{"pitch":51,"velocity":83,"channel":0},{"pitch":39,"velocity":81,"channel":0},{"pitch":52,"velocity":75,"channel":0},{"pitch":40,"velocity":83,"channel":0},{"pitch":39,"velocity":92,"channel":0},{"pitch":54,"velocity":73,"channel":0},{"pitch":54,"velocity":98,"channel":0},{"pitch":56,"velocity":82,"channel":0},{"pitch":80,"velocity":89,"channel":0},{"pitch":20,"velocity":85,"channel":0},{"pitch":22,"velocity":83,"channel":0},{"pitch":51,"velocity":79,"channel":0},{"pitch":22,"velocity":86,"channel":0},{"pitch":10,"velocity":80,"channel":0},{"pitch":20,"velocity":90,"channel":0},{"pitch":78,"velocity":87,"channel":0},{"pitch":92,"velocity":97,"channel":0},{"pitch":54,"velocity":90,"channel":0},{"pitch":56,"velocity":80,"channel":0},{"pitch":32,"velocity":97,"channel":0},{"pitch":30,"velocity":84,"channel":0},{"pitch":58,"velocity":80,"channel":0},{"pitch":51,"velocity":77,"channel":0},{"pitch":22,"velocity":73,"channel":0},{"pitch":94,"velocity":87,"channel":0},{"pitch":27,"velocity":86,"channel":0},{"pitch":22,"velocity":95,"channel":0},{"pitch":80,"velocity":86,"channel":0},{"pitch":56,"velocity":83,"channel":0},{"pitch":80,"velocity":86,"channel":0},{"pitch":20,"velocity":83,"channel":0},{"pitch":54,"velocity":79,"channel":0},{"pitch":20,"velocity":74,"channel":0},{"pitch":87,"velocity":89,"channel":0},{"pitch":90,"velocity":86,"channel":0},{"pitch":54,"velocity":85,"channel":0},{"pitch":80,"velocity":93,"channel":0},{"pitch":80,"velocity":91,"channel":0},{"pitch":20,"velocity":99,"channel":0},{"pitch":54,"velocity":94,"channel":0},{"pitch":15,"velocity":84,"channel":0},{"pitch":15,"velocity":77,"channel":0},{"pitch":22,"velocity":83,"channel":0},{"pitch":82,"velocity":97,"channel":0},{"pitch":10,"velocity":85,"channel":0},{"pitch":80,"velocity":82,"channel":0},{"pitch":30,"velocity":74,"channel":0},{"pitch":27,"velocity":99,"channel":0},{"pitch":51,"velocity":73,"channel":0},{"pitch":75,"velocity":79,"channel":0},{"pitch":27,"velocity":90,"channel":0},{"pitch":22,"velocity":86,"channel":0},{"pitch":75,"velocity":86,"channel":0},{"pitch":51,"velocity":82,"channel":0},{"pitch":51,"velocity":97,"channel":0},{"pitch":27,"velocity":88,"channel":0},{"pitch":15,"velocity":97,"channel":0},{"pitch":51,"velocity":97,"channel":0},{"pitch":75,"velocity":87,"channel":0},{"pitch":39,"velocity":84,"channel":0},{"pitch":39,"velocity":86,"channel":0},{"pitch":15,"velocity":84,"channel":0},{"pitch":27,"velocity":90,"channel":0},{"pitch":15,"velocity":80,"channel":0},{"pitch":51,"velocity":80,"channel":0},{"pitch":92,"velocity":82,"channel":0},{"pitch":39,"velocity":97,"channel":0},{"pitch":15,"velocity":104,"channel":0},{"pitch":51,"velocity":75,"channel":0},{"pitch":58,"velocity":65,"channel":0},{"pitch":51,"velocity":93,"channel":0},{"pitch":27,"velocity":91,"channel":0},{"pitch":51,"velocity":85,"channel":0},{"pitch":52,"velocity":98,"channel":0},{"pitch":75,"velocity":81,"channel":0},{"pitch":51,"velocity":92,"channel":0},{"pitch":51,"velocity":79,"channel":0},{"pitch":46,"velocity":92,"channel":0},{"pitch":3,"velocity":80,"channel":0},{"pitch":39,"velocity":81,"channel":0},{"pitch":15,"velocity":83,"channel":0},{"pitch":15,"velocity":95,"channel":0},{"pitch":75,"velocity":100,"channel":0},{"pitch":10,"velocity":87,"channel":0},{"pitch":22,"velocity":87,"channel":0},{"pitch":22,"velocity":84,"channel":0},{"pitch":94,"velocity":91,"channel":0},{"pitch":22,"velocity":89,"channel":0},{"pitch":58,"velocity":95,"channel":0},{"pitch":42,"velocity":73,"channel":0},{"pitch":92,"velocity":75,"channel":0},{"pitch":3,"velocity":75,"channel":0},{"pitch":39,"velocity":79,"channel":0},{"pitch":75,"velocity":92,"channel":0},{"pitch":32,"velocity":84,"channel":0},{"pitch":32,"velocity":89,"channel":0},{"pitch":32,"velocity":82,"channel":0},{"pitch":44,"velocity":92,"channel":0},{"pitch":34,"velocity":100,"channel":0},{"pitch":51,"velocity":92,"channel":0},{"pitch":27,"velocity":93,"channel":0},{"pitch":27,"velocity":92,"channel":0},{"pitch":39,"velocity":79,"channel":0},{"pitch":94,"velocity":94,"channel":0},{"pitch":22,"velocity":85,"channel":0},{"pitch":22,"velocity":102,"channel":0},{"pitch":82,"velocity":81,"channel":0},{"pitch":82,"velocity":84,"channel":0},{"pitch":20,"velocity":74,"channel":0},{"pitch":32,"velocity":70,"channel":0},{"pitch":32,"velocity":81,"channel":0},{"pitch":32,"velocity":86,"channel":0},{"pitch":80,"velocity":76,"channel":0},{"pitch":82,"velocity":89,"channel":0},{"pitch":44,"velocity":90,"channel":0},{"pitch":51,"velocity":94,"channel":0},{"pitch":39,"velocity":98,"channel":0},{"pitch":39,"velocity":89,"channel":0},{"pitch":80,"velocity":81,"channel":0},{"pitch":58,"velocity":73,"channel":0},{"pitch":34,"velocity":95,"channel":0},{"pitch":32,"velocity":82,"channel":0},{"pitch":94,"velocity":96,"channel":0},{"pitch":75,"velocity":105,"channel":0}],"stageTiming":{"beat-setup":14.669,"intent":0.0122,"entropy":0.0186,"phase":0.0205,"climax":0.0249,"envelope":0.0125,"silhouette":0.0226,"rest":0.0376,"complement":0.0013,"tension-cadence":0.022,"negotiation":0.0249,"probability-adjust":0.0076,"emission":5.2268,"post-beat":0.0307},"iterBudget":{"raw":112,"capped":112,"wasCapped":false}}
{"layer":"L2","beatKey":"0:0:1:3","timeMs":3859.6491228070176,"snap":{"key":"A#","mode":"locrian","quality":"minor","scale":["A#","B","C#","D#","E","F#","G#"],"chords":[],"tension":0.2858458816418885,"harmonicRhythm":0.33338377287365806,"harmonicMutationCount":8,"excursion":0,"sectionPhase":"opening","phrasePosition":0.8,"phrasePhase":"resolution","phraseDynamism":1,"registerBias":1.0534230275096785,"densityMultiplier":1.0351141009169893,"voiceIndependence":0.5,"compositeIntensity":0.34955546008782645,"playProb":0.3427583082730545,"stutterProb":0.47505733023765967,"flicker":1.1885495733762952,"textureMode":"flurry","textureFatigue":0,"densityBias":0,"crossModBias":1,"emissionRatio":0.8882997864076252,"extraDensityCorrection":1.022340042718475,"extraCoherenceDensityBias":1,"activeProfile":"restrained","journeyMove":"origin","journeyDistance":0,"journeyKey":"D#","journeyMode":"locrian","binauralFreqOffset":9,"binauralFlip":false,"tick":442500,"updatedAt":1772749134759},"negotiation":{"playProb":0.25952309244195476,"stutterProb":0.28625776194225205,"allowCadence":false,"conflict":0.22728231899306106,"phaseConfidence":0.275},"trust":{"stutterContagion":{"score":0.5756352000794829,"samples":83,"weight":1.4125},"cadenceAlignment":{"score":0.2443952962621286,"samples":83,"weight":1.1832964721965964},"phaseLock":{"score":0.25358389781244534,"samples":83,"weight":1.190187923359334},"convergence":{"score":0.24626511827786224,"samples":83,"weight":1.1846988387083968},"feedbackOscillator":{"score":0.25127484056846616,"samples":83,"weight":1.1884561304263497},"coherenceMonitor":{"score":0.6928181096713532,"samples":83,"weight":1.5196135822535148},"entropyRegulator":{"score":0.74925,"samples":83,"weight":1.5619375},"restSynchronizer":{"score":0.2443952962621286,"samples":83,"weight":1.1832964721965964}},"regime":"evolving","coupling":{"density-tension":-0.786,"density-flicker":0.98,"density-entropy":-0.768,"density-trust":-0.966,"density-phase":0,"tension-flicker":-0.88,"tension-entropy":0.6,"tension-trust":0.86,"tension-phase":0,"flicker-entropy":-0.739,"flicker-trust":-0.973,"flicker-phase":0,"entropy-trust":0.691,"entropy-phase":0},"couplingTargets":{"density-tension":{"baseline":0.15,"current":0.1477,"rollingAbsCorr":0.0297,"rawRollingAbsCorr":0.0297,"gain":0.3,"heatPenalty":0,"effectivenessEma":0.5012,"effMin":0.475,"effMax":0.5012,"effActiveBeats":2,"hpPromoted":false},"density-flicker":{"baseline":0.12,"current":0.1177,"rollingAbsCorr":0.0384,"rawRollingAbsCorr":0.0384,"gain":0.2416,"heatPenalty":0.036,"effectivenessEma":0.5012,"effMin":0.475,"effMax":0.5012,"effActiveBeats":2,"hpPromoted":false},"density-entropy":{"baseline":0.12,"current":0.1191,"rollingAbsCorr":0.0744,"rawRollingAbsCorr":0.0744,"gain":0.22,"heatPenalty":0,"effectivenessEma":0.5012,"effMin":0.475,"effMax":0.5012,"effActiveBeats":2,"hpPromoted":false},"density-trust":{"baseline":0.2,"current":0.1977,"rollingAbsCorr":0.0351,"rawRollingAbsCorr":0.0351,"gain":0.229,"heatPenalty":0.01,"effectivenessEma":0.5012,"effMin":0.475,"effMax":0.5012,"effActiveBeats":2,"hpPromoted":false},"density-phase":{"baseline":0.06,"current":0.06,"rollingAbsCorr":0,"rawRollingAbsCorr":0,"gain":0.16,"heatPenalty":0,"effectivenessEma":0.5,"effMin":1,"effMax":0,"effActiveBeats":0,"hpPromoted":false},"tension-flicker":{"baseline":0.15,"current":0.147,"rollingAbsCorr":0.0314,"rawRollingAbsCorr":0.0314,"gain":0.229,"heatPenalty":0.01,"effectivenessEma":0.5012,"effMin":0.475,"effMax":0.5012,"effActiveBeats":2,"hpPromoted":false},"tension-entropy":{"baseline":0.25,"current":0.247,"rollingAbsCorr":0.0508,"rawRollingAbsCorr":0.0508,"gain":0.22,"heatPenalty":0,"effectivenessEma":0.5012,"effMin":0.475,"effMax":0.5012,"effActiveBeats":2,"hpPromoted":false},"tension-trust":{"baseline":0.15,"current":0.147,"rollingAbsCorr":0.0342,"rawRollingAbsCorr":0.0342,"gain":0.229,"heatPenalty":0.01,"effectivenessEma":0.4512,"effMin":0.4512,"effMax":0.475,"effActiveBeats":2,"hpPromoted":false},"tension-phase":{"baseline":0.2,"current":0.197,"rollingAbsCorr":0,"rawRollingAbsCorr":0,"gain":0.16,"heatPenalty":0,"effectivenessEma":0.5,"effMin":1,"effMax":0,"effActiveBeats":0,"hpPromoted":false},"flicker-entropy":{"baseline":0.18,"current":0.177,"rollingAbsCorr":0.0733,"rawRollingAbsCorr":0.0733,"gain":0.22,"heatPenalty":0,"effectivenessEma":0.4512,"effMin":0.4512,"effMax":0.475,"effActiveBeats":2,"hpPromoted":false},"flicker-trust":{"baseline":0.12,"current":0.117,"rollingAbsCorr":0.0329,"rawRollingAbsCorr":0.0329,"gain":0.229,"heatPenalty":0.01,"effectivenessEma":0.5012,"effMin":0.475,"effMax":0.5012,"effActiveBeats":2,"hpPromoted":false},"flicker-phase":{"baseline":0.08,"current":0.08,"rollingAbsCorr":0,"rawRollingAbsCorr":0,"gain":0.16,"heatPenalty":0,"effectivenessEma":0.5,"effMin":1,"effMax":0,"effActiveBeats":0,"hpPromoted":false},"entropy-trust":{"baseline":0.25,"current":0.25,"rollingAbsCorr":0.0549,"rawRollingAbsCorr":0.0549,"gain":0.16,"heatPenalty":0,"effectivenessEma":0.5,"effMin":1,"effMax":0,"effActiveBeats":0,"hpPromoted":false},"entropy-phase":{"baseline":0.1,"current":0.1,"rollingAbsCorr":0,"rawRollingAbsCorr":0,"gain":0.16,"heatPenalty":0,"effectivenessEma":0.5,"effMin":1,"effMax":0,"effActiveBeats":0,"hpPromoted":false}},"axisCouplingTotals":{"density":0.9324,"tension":0.8085,"flicker":0.9236,"entropy":0.7182,"trust":0.8663,"phase":0},"axisEnergyShare":{"shares":{"density":0.2194,"tension":0.1903,"flicker":0.2174,"entropy":0.169,"trust":0.2039,"phase":0},"axisGini":0.2093},"couplingGates":{"gateD":1,"gateT":1,"gateF":1,"floorDampen":0.2,"bypassD":0.190994,"bypassT":-0.09245,"bypassF":0.140738,"gateMinD":1,"gateMinT":1,"gateMinF":1,"gateEmaD":1,"gateEmaT":1,"gateEmaF":1,"gateBeatCount":7},"couplingHomeostasis":{"totalEnergyEma":7.157,"energyBudget":3.5,"peakEnergyEma":8.2018,"totalEnergyFloor":7.6834,"floorDampen":0.25,"redistributionScore":0,"nudgeableRedistributionScore":0,"globalGainMultiplier":0.6134,"giniCoefficient":0.3699,"energyDeltaEma":0.6333,"pairTurbulenceEma":0.0082,"beatCount":2,"invokeCount":7,"tickCount":85,"emptyMatrixBeats":5,"multiplierMin":0.6134,"multiplierMax":1,"multiplierStdDev":0.1264,"floorContactBeats":0,"ceilingContactBeats":61,"avgRecoveryDuration":0},"axisEnergyEquilibrator":{"beatCount":7,"pairAdjustments":0,"axisAdjustments":0,"smoothedShares":{"density":0.03317728,"tension":0.02917856,"flicker":0.03334112,"entropy":0.02600992,"trust":0.03189312,"phase":0},"perAxisAdj":{},"perPairAdj":{},"lastBaselines":{},"regimeBeats":{},"regimePairAdj":{},"regimeAxisAdj":{},"regimeTightenBudget":{}},"transitionReadiness":{"gap":0.5588,"couplingStrength":0.7245,"coherentThreshold":0.1658,"velocity":0.064212,"velThreshold":0.008,"thresholdScale":0.65,"velocityBlocked":false,"exploringBlock":"dimension","rawRegimeCounts":{"coherent":2},"rawRegimeMaxStreak":{"coherent":2},"effectiveDim":1.92},"notes":[{"pitch":51,"velocity":99,"channel":0},{"pitch":3,"velocity":99,"channel":0},{"pitch":3,"velocity":90,"channel":0},{"pitch":3,"velocity":89,"channel":0},{"pitch":3,"velocity":95,"channel":0},{"pitch":88,"velocity":93,"channel":0},{"pitch":87,"velocity":86,"channel":0},{"pitch":39,"velocity":82,"channel":0},{"pitch":87,"velocity":77,"channel":0},{"pitch":3,"velocity":99,"channel":0},{"pitch":75,"velocity":83,"channel":0},{"pitch":3,"velocity":80,"channel":0},{"pitch":3,"velocity":74,"channel":0},{"pitch":3,"velocity":75,"channel":0},{"pitch":3,"velocity":88,"channel":0},{"pitch":3,"velocity":84,"channel":0},{"pitch":75,"velocity":86,"channel":0},{"pitch":87,"velocity":85,"channel":0},{"pitch":3,"velocity":76,"channel":0},{"pitch":39,"velocity":93,"channel":0},{"pitch":46,"velocity":94,"channel":0},{"pitch":56,"velocity":75,"channel":0},{"pitch":82,"velocity":72,"channel":0},{"pitch":82,"velocity":84,"channel":0},{"pitch":75,"velocity":85,"channel":0},{"pitch":75,"velocity":91,"channel":0},{"pitch":27,"velocity":72,"channel":0},{"pitch":51,"velocity":73,"channel":0},{"pitch":87,"velocity":71,"channel":0},{"pitch":51,"velocity":102,"channel":0},{"pitch":3,"velocity":101,"channel":0},{"pitch":88,"velocity":94,"channel":0},{"pitch":56,"velocity":85,"channel":0},{"pitch":90,"velocity":80,"channel":0},{"pitch":32,"velocity":85,"channel":0},{"pitch":80,"velocity":89,"channel":0},{"pitch":46,"velocity":79,"channel":0},{"pitch":3,"velocity":95,"channel":0},{"pitch":4,"velocity":102,"channel":0},{"pitch":92,"velocity":98,"channel":0},{"pitch":32,"velocity":83,"channel":0},{"pitch":56,"velocity":79,"channel":0},{"pitch":75,"velocity":94,"channel":0},{"pitch":3,"velocity":89,"channel":0},{"pitch":3,"velocity":98,"channel":0},{"pitch":8,"velocity":101,"channel":0},{"pitch":3,"velocity":84,"channel":0},{"pitch":75,"velocity":86,"channel":0},{"pitch":3,"velocity":96,"channel":0},{"pitch":87,"velocity":108,"channel":0},{"pitch":75,"velocity":94,"channel":0},{"pitch":3,"velocity":93,"channel":0},{"pitch":27,"velocity":81,"channel":0},{"pitch":27,"velocity":82,"channel":0},{"pitch":82,"velocity":82,"channel":0},{"pitch":80,"velocity":82,"channel":0},{"pitch":82,"velocity":80,"channel":0},{"pitch":3,"velocity":99,"channel":0},{"pitch":58,"velocity":89,"channel":0},{"pitch":94,"velocity":80,"channel":0},{"pitch":58,"velocity":82,"channel":0},{"pitch":51,"velocity":93,"channel":0},{"pitch":3,"velocity":87,"channel":0},{"pitch":28,"velocity":101,"channel":0},{"pitch":51,"velocity":88,"channel":0},{"pitch":51,"velocity":90,"channel":0},{"pitch":27,"velocity":79,"channel":0},{"pitch":27,"velocity":87,"channel":0},{"pitch":39,"velocity":98,"channel":0},{"pitch":22,"velocity":81,"channel":0},{"pitch":3,"velocity":96,"channel":0},{"pitch":27,"velocity":90,"channel":0},{"pitch":3,"velocity":81,"channel":0},{"pitch":3,"velocity":70,"channel":0},{"pitch":75,"velocity":96,"channel":0},{"pitch":51,"velocity":89,"channel":0},{"pitch":75,"velocity":90,"channel":0},{"pitch":87,"velocity":77,"channel":0},{"pitch":51,"velocity":90,"channel":0},{"pitch":3,"velocity":75,"channel":0},{"pitch":3,"velocity":76,"channel":0},{"pitch":3,"velocity":88,"channel":0},{"pitch":39,"velocity":79,"channel":0},{"pitch":75,"velocity":93,"channel":0},{"pitch":46,"velocity":87,"channel":0},{"pitch":8,"velocity":94,"channel":0},{"pitch":42,"velocity":86,"channel":0},{"pitch":10,"velocity":95,"channel":0},{"pitch":8,"velocity":84,"channel":0},{"pitch":8,"velocity":91,"channel":0},{"pitch":54,"velocity":90,"channel":0},{"pitch":8,"velocity":87,"channel":0},{"pitch":8,"velocity":73,"channel":0},{"pitch":6,"velocity":88,"channel":0},{"pitch":46,"velocity":100,"channel":0},{"pitch":40,"velocity":95,"channel":0},{"pitch":39,"velocity":88,"channel":0},{"pitch":51,"velocity":83,"channel":0},{"pitch":58,"velocity":79,"channel":0},{"pitch":51,"velocity":76,"channel":0},{"pitch":15,"velocity":91,"channel":0},{"pitch":75,"velocity":66,"channel":0},{"pitch":75,"velocity":80,"channel":0},{"pitch":22,"velocity":81,"channel":0},{"pitch":15,"velocity":93,"channel":0},{"pitch":58,"velocity":91,"channel":0},{"pitch":51,"velocity":94,"channel":0},{"pitch":75,"velocity":83,"channel":0},{"pitch":30,"velocity":111,"channel":0},{"pitch":75,"velocity":89,"channel":0},{"pitch":87,"velocity":85,"channel":0},{"pitch":51,"velocity":83,"channel":0},{"pitch":58,"velocity":93,"channel":0},{"pitch":94,"velocity":89,"channel":0},{"pitch":58,"velocity":94,"channel":0},{"pitch":68,"velocity":80,"channel":0},{"pitch":51,"velocity":82,"channel":0},{"pitch":51,"velocity":88,"channel":0},{"pitch":75,"velocity":83,"channel":0},{"pitch":46,"velocity":97,"channel":0},{"pitch":32,"velocity":99,"channel":0},{"pitch":39,"velocity":88,"channel":0},{"pitch":39,"velocity":83,"channel":0},{"pitch":39,"velocity":109,"channel":0},{"pitch":39,"velocity":93,"channel":0},{"pitch":44,"velocity":88,"channel":0},{"pitch":80,"velocity":89,"channel":0},{"pitch":44,"velocity":85,"channel":0},{"pitch":44,"velocity":94,"channel":0},{"pitch":32,"velocity":84,"channel":0},{"pitch":32,"velocity":80,"channel":0},{"pitch":90,"velocity":76,"channel":0},{"pitch":90,"velocity":89,"channel":0},{"pitch":44,"velocity":87,"channel":0},{"pitch":8,"velocity":86,"channel":0},{"pitch":10,"velocity":79,"channel":0},{"pitch":70,"velocity":99,"channel":0},{"pitch":70,"velocity":84,"channel":0},{"pitch":44,"velocity":94,"channel":0},{"pitch":54,"velocity":88,"channel":0},{"pitch":80,"velocity":91,"channel":0},{"pitch":82,"velocity":89,"channel":0},{"pitch":70,"velocity":89,"channel":0},{"pitch":70,"velocity":96,"channel":0},{"pitch":70,"velocity":86,"channel":0},{"pitch":70,"velocity":96,"channel":0},{"pitch":70,"velocity":80,"channel":0},{"pitch":75,"velocity":104,"channel":0},{"pitch":70,"velocity":85,"channel":0},{"pitch":70,"velocity":75,"channel":0},{"pitch":75,"velocity":109,"channel":0},{"pitch":32,"velocity":84,"channel":0},{"pitch":32,"velocity":80,"channel":0},{"pitch":40,"velocity":87,"channel":0},{"pitch":70,"velocity":87,"channel":0},{"pitch":54,"velocity":98,"channel":0},{"pitch":54,"velocity":86,"channel":0},{"pitch":75,"velocity":100,"channel":0},{"pitch":10,"velocity":95,"channel":0},{"pitch":51,"velocity":108,"channel":0},{"pitch":27,"velocity":98,"channel":0},{"pitch":27,"velocity":83,"channel":0},{"pitch":3,"velocity":105,"channel":0},{"pitch":51,"velocity":89,"channel":0},{"pitch":75,"velocity":94,"channel":0},{"pitch":75,"velocity":77,"channel":0},{"pitch":75,"velocity":91,"channel":0},{"pitch":82,"velocity":82,"channel":0},{"pitch":75,"velocity":85,"channel":0},{"pitch":63,"velocity":98,"channel":0},{"pitch":3,"velocity":85,"channel":0},{"pitch":3,"velocity":74,"channel":0},{"pitch":3,"velocity":99,"channel":0},{"pitch":22,"velocity":86,"channel":0},{"pitch":27,"velocity":85,"channel":0},{"pitch":27,"velocity":94,"channel":0},{"pitch":51,"velocity":90,"channel":0},{"pitch":75,"velocity":95,"channel":0},{"pitch":92,"velocity":88,"channel":0},{"pitch":56,"velocity":93,"channel":0},{"pitch":80,"velocity":83,"channel":0},{"pitch":44,"velocity":93,"channel":0},{"pitch":32,"velocity":80,"channel":0},{"pitch":56,"velocity":82,"channel":0},{"pitch":80,"velocity":90,"channel":0},{"pitch":87,"velocity":89,"channel":0},{"pitch":51,"velocity":87,"channel":0},{"pitch":30,"velocity":93,"channel":0},{"pitch":87,"velocity":81,"channel":0},{"pitch":15,"velocity":86,"channel":0},{"pitch":75,"velocity":74,"channel":0},{"pitch":75,"velocity":84,"channel":0},{"pitch":75,"velocity":83,"channel":0},{"pitch":32,"velocity":72,"channel":0},{"pitch":27,"velocity":94,"channel":0},{"pitch":15,"velocity":97,"channel":0},{"pitch":15,"velocity":85,"channel":0},{"pitch":22,"velocity":88,"channel":0},{"pitch":58,"velocity":87,"channel":0},{"pitch":94,"velocity":93,"channel":0},{"pitch":22,"velocity":87,"channel":0},{"pitch":22,"velocity":83,"channel":0},{"pitch":10,"velocity":74,"channel":0},{"pitch":56,"velocity":96,"channel":0},{"pitch":20,"velocity":81,"channel":0},{"pitch":20,"velocity":94,"channel":0},{"pitch":80,"velocity":82,"channel":0},{"pitch":10,"velocity":99,"channel":0},{"pitch":58,"velocity":94,"channel":0},{"pitch":51,"velocity":75,"channel":0},{"pitch":51,"velocity":93,"channel":0},{"pitch":75,"velocity":97,"channel":0},{"pitch":20,"velocity":73,"channel":0},{"pitch":51,"velocity":103,"channel":0},{"pitch":15,"velocity":98,"channel":0},{"pitch":82,"velocity":80,"channel":0},{"pitch":52,"velocity":94,"channel":0},{"pitch":22,"velocity":94,"channel":0},{"pitch":58,"velocity":93,"channel":0},{"pitch":63,"velocity":81,"channel":0},{"pitch":51,"velocity":90,"channel":0},{"pitch":82,"velocity":94,"channel":0},{"pitch":15,"velocity":93,"channel":0},{"pitch":88,"velocity":97,"channel":0},{"pitch":75,"velocity":74,"channel":0},{"pitch":87,"velocity":84,"channel":0},{"pitch":51,"velocity":82,"channel":0},{"pitch":75,"velocity":89,"channel":0},{"pitch":10,"velocity":88,"channel":0},{"pitch":82,"velocity":93,"channel":0},{"pitch":10,"velocity":88,"channel":0},{"pitch":82,"velocity":94,"channel":0},{"pitch":10,"velocity":73,"channel":0},{"pitch":10,"velocity":74,"channel":0},{"pitch":94,"velocity":83,"channel":0},{"pitch":22,"velocity":82,"channel":0},{"pitch":80,"velocity":91,"channel":0},{"pitch":58,"velocity":83,"channel":0},{"pitch":22,"velocity":91,"channel":0},{"pitch":94,"velocity":99,"channel":0},{"pitch":58,"velocity":96,"channel":0},{"pitch":82,"velocity":86,"channel":0},{"pitch":78,"velocity":94,"channel":0},{"pitch":80,"velocity":87,"channel":0},{"pitch":56,"velocity":82,"channel":0},{"pitch":44,"velocity":99,"channel":0},{"pitch":20,"velocity":84,"channel":0},{"pitch":3,"velocity":102,"channel":0},{"pitch":76,"velocity":104,"channel":0}],"stageTiming":{"beat-setup":30.4603,"intent":0.016,"entropy":0.0192,"phase":0.0237,"climax":0.0504,"envelope":0.0154,"silhouette":0.0267,"rest":0.0593,"complement":0.0021,"tension-cadence":0.0301,"negotiation":0.0382,"probability-adjust":0.0106,"emission":6.2154,"post-beat":0.0325},"iterBudget":{"raw":105,"capped":105,"wasCapped":false}}
{"layer":"L2","beatKey":"0:0:1:4","timeMs":4035.0877192982457,"snap":{"key":"A#","mode":"locrian","quality":"minor","scale":["A#","B","C#","D#","E","F#","G#"],"chords":[],"tension":0.2858458816418885,"harmonicRhythm":0.33338377287365806,"harmonicMutationCount":8,"excursion":0,"sectionPhase":"opening","phrasePosition":0.8,"phrasePhase":"resolution","phraseDynamism":1,"registerBias":1.0534230275096785,"densityMultiplier":1.0351141009169893,"voiceIndependence":0.5,"compositeIntensity":0.34955546008782645,"playProb":0.3427583082730545,"stutterProb":0.47505733023765967,"flicker":1.1885495733762952,"textureMode":"flurry","textureFatigue":0,"densityBias":0,"crossModBias":1,"emissionRatio":0.8882997864076252,"extraDensityCorrection":1.022340042718475,"extraCoherenceDensityBias":1,"activeProfile":"restrained","journeyMove":"origin","journeyDistance":0,"journeyKey":"D#","journeyMode":"locrian","binauralFreqOffset":9,"binauralFlip":false,"tick":442500,"updatedAt":1772749134759},"negotiation":{"playProb":0.26064799153738843,"stutterProb":0.28801172737454006,"allowCadence":false,"conflict":0.2292035278034037,"phaseConfidence":0.275},"trust":{"stutterContagion":{"score":0.5536901569602696,"samples":84,"weight":1.4125},"cadenceAlignment":{"score":0.24191089116585518,"samples":84,"weight":1.1814331683743915},"phaseLock":{"score":0.2525976575231696,"samples":84,"weight":1.1894482431423772},"convergence":{"score":0.2437303691894231,"samples":84,"weight":1.1827977768920674},"feedbackOscillator":{"score":0.24989720915510794,"samples":84,"weight":1.187422906866331},"coherenceMonitor":{"score":0.691450274242671,"samples":84,"weight":1.5185877056820032},"entropyRegulator":{"score":0.74925,"samples":84,"weight":1.5619375},"restSynchronizer":{"score":0.24191089116585518,"samples":84,"weight":1.1814331683743915}},"regime":"evolving","coupling":{"density-tension":-0.786,"density-flicker":0.98,"density-entropy":-0.768,"density-trust":-0.966,"density-phase":0,"tension-flicker":-0.88,"tension-entropy":0.6,"tension-trust":0.86,"tension-phase":0,"flicker-entropy":-0.739,"flicker-trust":-0.973,"flicker-phase":0,"entropy-trust":0.691,"entropy-phase":0},"couplingTargets":{"density-tension":{"baseline":0.15,"current":0.1477,"rollingAbsCorr":0.0297,"rawRollingAbsCorr":0.0297,"gain":0.3,"heatPenalty":0,"effectivenessEma":0.5012,"effMin":0.475,"effMax":0.5012,"effActiveBeats":2,"hpPromoted":false},"density-flicker":{"baseline":0.12,"current":0.1177,"rollingAbsCorr":0.0384,"rawRollingAbsCorr":0.0384,"gain":0.2416,"heatPenalty":0.036,"effectivenessEma":0.5012,"effMin":0.475,"effMax":0.5012,"effActiveBeats":2,"hpPromoted":false},"density-entropy":{"baseline":0.12,"current":0.1191,"rollingAbsCorr":0.0744,"rawRollingAbsCorr":0.0744,"gain":0.22,"heatPenalty":0,"effectivenessEma":0.5012,"effMin":0.475,"effMax":0.5012,"effActiveBeats":2,"hpPromoted":false},"density-trust":{"baseline":0.2,"current":0.1977,"rollingAbsCorr":0.0351,"rawRollingAbsCorr":0.0351,"gain":0.229,"heatPenalty":0.01,"effectivenessEma":0.5012,"effMin":0.475,"effMax":0.5012,"effActiveBeats":2,"hpPromoted":false},"density-phase":{"baseline":0.06,"current":0.06,"rollingAbsCorr":0,"rawRollingAbsCorr":0,"gain":0.16,"heatPenalty":0,"effectivenessEma":0.5,"effMin":1,"effMax":0,"effActiveBeats":0,"hpPromoted":false},"tension-flicker":{"baseline":0.15,"current":0.147,"rollingAbsCorr":0.0314,"rawRollingAbsCorr":0.0314,"gain":0.229,"heatPenalty":0.01,"effectivenessEma":0.5012,"effMin":0.475,"effMax":0.5012,"effActiveBeats":2,"hpPromoted":false},"tension-entropy":{"baseline":0.25,"current":0.247,"rollingAbsCorr":0.0508,"rawRollingAbsCorr":0.0508,"gain":0.22,"heatPenalty":0,"effectivenessEma":0.5012,"effMin":0.475,"effMax":0.5012,"effActiveBeats":2,"hpPromoted":false},"tension-trust":{"baseline":0.15,"current":0.147,"rollingAbsCorr":0.0342,"rawRollingAbsCorr":0.0342,"gain":0.229,"heatPenalty":0.01,"effectivenessEma":0.4512,"effMin":0.4512,"effMax":0.475,"effActiveBeats":2,"hpPromoted":false},"tension-phase":{"baseline":0.2,"current":0.197,"rollingAbsCorr":0,"rawRollingAbsCorr":0,"gain":0.16,"heatPenalty":0,"effectivenessEma":0.5,"effMin":1,"effMax":0,"effActiveBeats":0,"hpPromoted":false},"flicker-entropy":{"baseline":0.18,"current":0.177,"rollingAbsCorr":0.0733,"rawRollingAbsCorr":0.0733,"gain":0.22,"heatPenalty":0,"effectivenessEma":0.4512,"effMin":0.4512,"effMax":0.475,"effActiveBeats":2,"hpPromoted":false},"flicker-trust":{"baseline":0.12,"current":0.117,"rollingAbsCorr":0.0329,"rawRollingAbsCorr":0.0329,"gain":0.229,"heatPenalty":0.01,"effectivenessEma":0.5012,"effMin":0.475,"effMax":0.5012,"effActiveBeats":2,"hpPromoted":false},"flicker-phase":{"baseline":0.08,"current":0.08,"rollingAbsCorr":0,"rawRollingAbsCorr":0,"gain":0.16,"heatPenalty":0,"effectivenessEma":0.5,"effMin":1,"effMax":0,"effActiveBeats":0,"hpPromoted":false},"entropy-trust":{"baseline":0.25,"current":0.25,"rollingAbsCorr":0.0549,"rawRollingAbsCorr":0.0549,"gain":0.16,"heatPenalty":0,"effectivenessEma":0.5,"effMin":1,"effMax":0,"effActiveBeats":0,"hpPromoted":false},"entropy-phase":{"baseline":0.1,"current":0.1,"rollingAbsCorr":0,"rawRollingAbsCorr":0,"gain":0.16,"heatPenalty":0,"effectivenessEma":0.5,"effMin":1,"effMax":0,"effActiveBeats":0,"hpPromoted":false}},"axisCouplingTotals":{"density":0.9324,"tension":0.8085,"flicker":0.9236,"entropy":0.7182,"trust":0.8663,"phase":0},"axisEnergyShare":{"shares":{"density":0.2194,"tension":0.1903,"flicker":0.2174,"entropy":0.169,"trust":0.2039,"phase":0},"axisGini":0.2093},"couplingGates":{"gateD":1,"gateT":1,"gateF":1,"floorDampen":0.2,"bypassD":0.190994,"bypassT":-0.09245,"bypassF":0.140738,"gateMinD":1,"gateMinT":1,"gateMinF":1,"gateEmaD":1,"gateEmaT":1,"gateEmaF":1,"gateBeatCount":7},"couplingHomeostasis":{"totalEnergyEma":7.157,"energyBudget":3.5,"peakEnergyEma":8.2018,"totalEnergyFloor":7.645,"floorDampen":0.26,"redistributionScore":0,"nudgeableRedistributionScore":0,"globalGainMultiplier":0.6072,"giniCoefficient":0.3699,"energyDeltaEma":0.6333,"pairTurbulenceEma":0.0082,"beatCount":2,"invokeCount":7,"tickCount":86,"emptyMatrixBeats":5,"multiplierMin":0.6072,"multiplierMax":1,"multiplierStdDev":0.1304,"floorContactBeats":0,"ceilingContactBeats":61,"avgRecoveryDuration":0},"axisEnergyEquilibrator":{"beatCount":7,"pairAdjustments":0,"axisAdjustments":0,"smoothedShares":{"density":0.03317728,"tension":0.02917856,"flicker":0.03334112,"entropy":0.02600992,"trust":0.03189312,"phase":0},"perAxisAdj":{},"perPairAdj":{},"lastBaselines":{},"regimeBeats":{},"regimePairAdj":{},"regimeAxisAdj":{},"regimeTightenBudget":{}},"transitionReadiness":{"gap":0.5588,"couplingStrength":0.7245,"coherentThreshold":0.1658,"velocity":0.064212,"velThreshold":0.008,"thresholdScale":0.65,"velocityBlocked":false,"exploringBlock":"dimension","rawRegimeCounts":{"coherent":2},"rawRegimeMaxStreak":{"coherent":2},"effectiveDim":1.92},"notes":[{"pitch":20,"velocity":88,"channel":0},{"pitch":58,"velocity":99,"channel":0},{"pitch":82,"velocity":78,"channel":0},{"pitch":92,"velocity":92,"channel":0},{"pitch":56,"velocity":88,"channel":0},{"pitch":58,"velocity":106,"channel":0},{"pitch":94,"velocity":74,"channel":0},{"pitch":22,"velocity":89,"channel":0},{"pitch":58,"velocity":94,"channel":0},{"pitch":70,"velocity":99,"channel":0},{"pitch":75,"velocity":85,"channel":0},{"pitch":75,"velocity":87,"channel":0},{"pitch":70,"velocity":72,"channel":0},{"pitch":66,"velocity":82,"channel":0},{"pitch":92,"velocity":101,"channel":0},{"pitch":20,"velocity":101,"channel":0},{"pitch":20,"velocity":93,"channel":0},{"pitch":8,"velocity":90,"channel":0},{"pitch":80,"velocity":90,"channel":0},{"pitch":20,"velocity":88,"channel":0},{"pitch":92,"velocity":96,"channel":0},{"pitch":20,"velocity":78,"channel":0},{"pitch":20,"velocity":94,"channel":0},{"pitch":20,"velocity":89,"channel":0},{"pitch":20,"velocity":92,"channel":0},{"pitch":10,"velocity":97,"channel":0},{"pitch":58,"velocity":95,"channel":0},{"pitch":58,"velocity":70,"channel":0},{"pitch":51,"velocity":94,"channel":0},{"pitch":51,"velocity":97,"channel":0},{"pitch":22,"velocity":82,"channel":0},{"pitch":34,"velocity":98,"channel":0},{"pitch":82,"velocity":94,"channel":0},{"pitch":34,"velocity":99,"channel":0},{"pitch":58,"velocity":98,"channel":0},{"pitch":82,"velocity":96,"channel":0},{"pitch":56,"velocity":82,"channel":0},{"pitch":20,"velocity":96,"channel":0},{"pitch":20,"velocity":101,"channel":0},{"pitch":54,"velocity":77,"channel":0},{"pitch":46,"velocity":86,"channel":0},{"pitch":22,"velocity":98,"channel":0},{"pitch":82,"velocity":87,"channel":0},{"pitch":51,"velocity":86,"channel":0},{"pitch":22,"velocity":88,"channel":0},{"pitch":58,"velocity":99,"channel":0},{"pitch":22,"velocity":81,"channel":0},{"pitch":22,"velocity":87,"channel":0},{"pitch":82,"velocity":101,"channel":0},{"pitch":22,"velocity":96,"channel":0},{"pitch":51,"velocity":87,"channel":0},{"pitch":87,"velocity":84,"channel":0},{"pitch":22,"velocity":100,"channel":0},{"pitch":56,"velocity":100,"channel":0},{"pitch":51,"velocity":75,"channel":0},{"pitch":10,"velocity":88,"channel":0},{"pitch":44,"velocity":80,"channel":0},{"pitch":78,"velocity":86,"channel":0},{"pitch":22,"velocity":97,"channel":0},{"pitch":58,"velocity":88,"channel":0},{"pitch":75,"velocity":82,"channel":0},{"pitch":27,"velocity":77,"channel":0},{"pitch":51,"velocity":90,"channel":0},{"pitch":20,"velocity":92,"channel":0},{"pitch":78,"velocity":80,"channel":0},{"pitch":20,"velocity":95,"channel":0},{"pitch":18,"velocity":89,"channel":0},{"pitch":92,"velocity":110,"channel":0},{"pitch":18,"velocity":94,"channel":0},{"pitch":20,"velocity":86,"channel":0},{"pitch":82,"velocity":100,"channel":0},{"pitch":39,"velocity":98,"channel":0},{"pitch":27,"velocity":84,"channel":0},{"pitch":34,"velocity":84,"channel":0},{"pitch":46,"velocity":83,"channel":0},{"pitch":44,"velocity":86,"channel":0},{"pitch":92,"velocity":77,"channel":0},{"pitch":56,"velocity":90,"channel":0},{"pitch":44,"velocity":95,"channel":0},{"pitch":10,"velocity":93,"channel":0},{"pitch":20,"velocity":87,"channel":0},{"pitch":75,"velocity":80,"channel":0},{"pitch":82,"velocity":88,"channel":0},{"pitch":75,"velocity":102,"channel":0},{"pitch":51,"velocity":85,"channel":0},{"pitch":82,"velocity":82,"channel":0},{"pitch":22,"velocity":89,"channel":0},{"pitch":58,"velocity":88,"channel":0},{"pitch":82,"velocity":95,"channel":0},{"pitch":51,"velocity":80,"channel":0},{"pitch":51,"velocity":99,"channel":0},{"pitch":22,"velocity":84,"channel":0},{"pitch":82,"velocity":92,"channel":0},{"pitch":3,"velocity":86,"channel":0},{"pitch":75,"velocity":82,"channel":0},{"pitch":15,"velocity":84,"channel":0},{"pitch":87,"velocity":82,"channel":0},{"pitch":75,"velocity":99,"channel":0},{"pitch":75,"velocity":88,"channel":0},{"pitch":22,"velocity":61,"channel":0},{"pitch":22,"velocity":77,"channel":0},{"pitch":22,"velocity":75,"channel":0},{"pitch":22,"velocity":100,"channel":0},{"pitch":82,"velocity":94,"channel":0},{"pitch":27,"velocity":74,"channel":0},{"pitch":22,"velocity":94,"channel":0},{"pitch":22,"velocity":80,"channel":0},{"pitch":22,"velocity":80,"channel":0},{"pitch":58,"velocity":84,"channel":0},{"pitch":82,"velocity":94,"channel":0},{"pitch":22,"velocity":76,"channel":0},{"pitch":58,"velocity":107,"channel":0},{"pitch":34,"velocity":90,"channel":0},{"pitch":10,"velocity":104,"channel":0},{"pitch":54,"velocity":90,"channel":0},{"pitch":80,"velocity":93,"channel":0},{"pitch":27,"velocity":76,"channel":0},{"pitch":22,"velocity":88,"channel":0},{"pitch":8,"velocity":89,"channel":0},{"pitch":32,"velocity":93,"channel":0},{"pitch":39,"velocity":92,"channel":0},{"pitch":27,"velocity":95,"channel":0},{"pitch":51,"velocity":94,"channel":0},{"pitch":44,"velocity":83,"channel":0},{"pitch":78,"velocity":96,"channel":0},{"pitch":54,"velocity":88,"channel":0},{"pitch":54,"velocity":84,"channel":0},{"pitch":80,"velocity":90,"channel":0},{"pitch":44,"velocity":94,"channel":0},{"pitch":56,"velocity":94,"channel":0},{"pitch":66,"velocity":93,"channel":0},{"pitch":80,"velocity":76,"channel":0},{"pitch":6,"velocity":74,"channel":0},{"pitch":6,"velocity":88,"channel":0},{"pitch":58,"velocity":115,"channel":0},{"pitch":80,"velocity":88,"channel":0}],"stageTiming":{"beat-setup":51.9866,"intent":0.0877,"entropy":0.0525,"phase":0.061,"climax":0.0622,"envelope":0.0494,"silhouette":2.7402,"rest":0.2784,"complement":0.005,"tension-cadence":0.0474,"negotiation":0.0435,"probability-adjust":0.0115,"emission":17.7985,"post-beat":0.0384},"iterBudget":{"raw":15,"capped":15,"wasCapped":false}}
{"layer":"L2","beatKey":"0:0:1:5","timeMs":4210.526315789473,"snap":{"key":"A#","mode":"locrian","quality":"minor","scale":["A#","B","C#","D#","E","F#","G#"],"chords":[],"tension":0.2858458816418885,"harmonicRhythm":0.33338377287365806,"harmonicMutationCount":8,"excursion":0,"sectionPhase":"opening","phrasePosition":0.8,"phrasePhase":"resolution","phraseDynamism":1,"registerBias":1.0534230275096785,"densityMultiplier":1.0351141009169893,"voiceIndependence":0.5,"compositeIntensity":0.34955546008782645,"playProb":0.3427583082730545,"stutterProb":0.47505733023765967,"flicker":1.1885495733762952,"textureMode":"flurry","textureFatigue":0,"densityBias":0,"crossModBias":1,"emissionRatio":0.8882997864076252,"extraDensityCorrection":1.022340042718475,"extraCoherenceDensityBias":1,"activeProfile":"restrained","journeyMove":"origin","journeyDistance":0,"journeyKey":"D#","journeyMode":"locrian","binauralFreqOffset":9,"binauralFlip":false,"tick":442500,"updatedAt":1772749134759},"negotiation":{"playProb":0.2617623344187503,"stutterProb":0.28975053936849504,"allowCadence":false,"conflict":0.2310668316256086,"phaseConfidence":0.35592105263157986},"trust":{"stutterContagion":{"score":0.47276567973451417,"samples":85,"weight":1.3545742598008856},"cadenceAlignment":{"score":0.24098444977145797,"samples":85,"weight":1.1807383373285936},"phaseLock":{"score":0.25454033348434496,"samples":85,"weight":1.1909052501132587},"convergence":{"score":0.2412633261053194,"samples":85,"weight":1.1809474945789895},"feedbackOscillator":{"score":0.24865858075135752,"samples":85,"weight":1.1864939355635182},"coherenceMonitor":{"score":0.6917598470510289,"samples":85,"weight":1.5188198852882717},"entropyRegulator":{"score":0.74925,"samples":85,"weight":1.5619375},"restSynchronizer":{"score":0.3174020822472204,"samples":85,"weight":1.2380515616854153}},"regime":"evolving","coupling":{"density-tension":-0.786,"density-flicker":0.98,"density-entropy":-0.768,"density-trust":-0.966,"density-phase":0,"tension-flicker":-0.88,"tension-entropy":0.6,"tension-trust":0.86,"tension-phase":0,"flicker-entropy":-0.739,"flicker-trust":-0.973,"flicker-phase":0,"entropy-trust":0.691,"entropy-phase":0},"couplingTargets":{"density-tension":{"baseline":0.15,"current":0.1477,"rollingAbsCorr":0.0297,"rawRollingAbsCorr":0.0297,"gain":0.3,"heatPenalty":0,"effectivenessEma":0.5012,"effMin":0.475,"effMax":0.5012,"effActiveBeats":2,"hpPromoted":false},"density-flicker":{"baseline":0.12,"current":0.1177,"rollingAbsCorr":0.0384,"rawRollingAbsCorr":0.0384,"gain":0.2416,"heatPenalty":0.036,"effectivenessEma":0.5012,"effMin":0.475,"effMax":0.5012,"effActiveBeats":2,"hpPromoted":false},"density-entropy":{"baseline":0.12,"current":0.1191,"rollingAbsCorr":0.0744,"rawRollingAbsCorr":0.0744,"gain":0.22,"heatPenalty":0,"effectivenessEma":0.5012,"effMin":0.475,"effMax":0.5012,"effActiveBeats":2,"hpPromoted":false},"density-trust":{"baseline":0.2,"current":0.1977,"rollingAbsCorr":0.0351,"rawRollingAbsCorr":0.0351,"gain":0.229,"heatPenalty":0.01,"effectivenessEma":0.5012,"effMin":0.475,"effMax":0.5012,"effActiveBeats":2,"hpPromoted":false},"density-phase":{"baseline":0.06,"current":0.06,"rollingAbsCorr":0,"rawRollingAbsCorr":0,"gain":0.16,"heatPenalty":0,"effectivenessEma":0.5,"effMin":1,"effMax":0,"effActiveBeats":0,"hpPromoted":false},"tension-flicker":{"baseline":0.15,"current":0.147,"rollingAbsCorr":0.0314,"rawRollingAbsCorr":0.0314,"gain":0.229,"heatPenalty":0.01,"effectivenessEma":0.5012,"effMin":0.475,"effMax":0.5012,"effActiveBeats":2,"hpPromoted":false},"tension-entropy":{"baseline":0.25,"current":0.247,"rollingAbsCorr":0.0508,"rawRollingAbsCorr":0.0508,"gain":0.22,"heatPenalty":0,"effectivenessEma":0.5012,"effMin":0.475,"effMax":0.5012,"effActiveBeats":2,"hpPromoted":false},"tension-trust":{"baseline":0.15,"current":0.147,"rollingAbsCorr":0.0342,"rawRollingAbsCorr":0.0342,"gain":0.229,"heatPenalty":0.01,"effectivenessEma":0.4512,"effMin":0.4512,"effMax":0.475,"effActiveBeats":2,"hpPromoted":false},"tension-phase":{"baseline":0.2,"current":0.197,"rollingAbsCorr":0,"rawRollingAbsCorr":0,"gain":0.16,"heatPenalty":0,"effectivenessEma":0.5,"effMin":1,"effMax":0,"effActiveBeats":0,"hpPromoted":false},"flicker-entropy":{"baseline":0.18,"current":0.177,"rollingAbsCorr":0.0733,"rawRollingAbsCorr":0.0733,"gain":0.22,"heatPenalty":0,"effectivenessEma":0.4512,"effMin":0.4512,"effMax":0.475,"effActiveBeats":2,"hpPromoted":false},"flicker-trust":{"baseline":0.12,"current":0.117,"rollingAbsCorr":0.0329,"rawRollingAbsCorr":0.0329,"gain":0.229,"heatPenalty":0.01,"effectivenessEma":0.5012,"effMin":0.475,"effMax":0.5012,"effActiveBeats":2,"hpPromoted":false},"flicker-phase":{"baseline":0.08,"current":0.08,"rollingAbsCorr":0,"rawRollingAbsCorr":0,"gain":0.16,"heatPenalty":0,"effectivenessEma":0.5,"effMin":1,"effMax":0,"effActiveBeats":0,"hpPromoted":false},"entropy-trust":{"baseline":0.25,"current":0.25,"rollingAbsCorr":0.0549,"rawRollingAbsCorr":0.0549,"gain":0.16,"heatPenalty":0,"effectivenessEma":0.5,"effMin":1,"effMax":0,"effActiveBeats":0,"hpPromoted":false},"entropy-phase":{"baseline":0.1,"current":0.1,"rollingAbsCorr":0,"rawRollingAbsCorr":0,"gain":0.16,"heatPenalty":0,"effectivenessEma":0.5,"effMin":1,"effMax":0,"effActiveBeats":0,"hpPromoted":false}},"axisCouplingTotals":{"density":0.9324,"tension":0.8085,"flicker":0.9236,"entropy":0.7182,"trust":0.8663,"phase":0},"axisEnergyShare":{"shares":{"density":0.2194,"tension":0.1903,"flicker":0.2174,"entropy":0.169,"trust":0.2039,"phase":0},"axisGini":0.2093},"couplingGates":{"gateD":1,"gateT":1,"gateF":1,"floorDampen":0.2,"bypassD":0.190994,"bypassT":-0.09245,"bypassF":0.140738,"gateMinD":1,"gateMinT":1,"gateMinF":1,"gateEmaD":1,"gateEmaT":1,"gateEmaF":1,"gateBeatCount":7},"couplingHomeostasis":{"totalEnergyEma":7.157,"energyBudget":3.5,"peakEnergyEma":8.2018,"totalEnergyFloor":7.6067,"floorDampen":0.27,"redistributionScore":0,"nudgeableRedistributionScore":0,"globalGainMultiplier":0.6013,"giniCoefficient":0.3699,"energyDeltaEma":0.6333,"pairTurbulenceEma":0.0082,"beatCount":2,"invokeCount":7,"tickCount":87,"emptyMatrixBeats":5,"multiplierMin":0.6013,"multiplierMax":1,"multiplierStdDev":0.1342,"floorContactBeats":0,"ceilingContactBeats":61,"avgRecoveryDuration":0},"axisEnergyEquilibrator":{"beatCount":7,"pairAdjustments":0,"axisAdjustments":0,"smoothedShares":{"density":0.03317728,"tension":0.02917856,"flicker":0.03334112,"entropy":0.02600992,"trust":0.03189312,"phase":0},"perAxisAdj":{},"perPairAdj":{},"lastBaselines":{},"regimeBeats":{},"regimePairAdj":{},"regimeAxisAdj":{},"regimeTightenBudget":{}},"transitionReadiness":{"gap":0.5588,"couplingStrength":0.7245,"coherentThreshold":0.1658,"velocity":0.064212,"velThreshold":0.008,"thresholdScale":0.65,"velocityBlocked":false,"exploringBlock":"dimension","rawRegimeCounts":{"coherent":2},"rawRegimeMaxStreak":{"coherent":2},"effectiveDim":1.92},"notes":[{"pitch":75,"velocity":104,"channel":0},{"pitch":27,"velocity":94,"channel":0},{"pitch":15,"velocity":88,"channel":0},{"pitch":56,"velocity":98,"channel":0},{"pitch":20,"velocity":95,"channel":0},{"pitch":78,"velocity":107,"channel":0},{"pitch":80,"velocity":103,"channel":0},{"pitch":80,"velocity":103,"channel":0},{"pitch":44,"velocity":88,"channel":0},{"pitch":20,"velocity":89,"channel":0},{"pitch":90,"velocity":89,"channel":0},{"pitch":56,"velocity":92,"channel":0},{"pitch":80,"velocity":96,"channel":0},{"pitch":20,"velocity":96,"channel":0},{"pitch":20,"velocity":88,"channel":0},{"pitch":20,"velocity":83,"channel":0},{"pitch":20,"velocity":105,"channel":0},{"pitch":10,"velocity":78,"channel":0},{"pitch":42,"velocity":86,"channel":0},{"pitch":51,"velocity":99,"channel":0},{"pitch":80,"velocity":100,"channel":0},{"pitch":44,"velocity":81,"channel":0},{"pitch":68,"velocity":89,"channel":0},{"pitch":44,"velocity":92,"channel":0},{"pitch":15,"velocity":88,"channel":0},{"pitch":82,"velocity":79,"channel":0},{"pitch":8,"velocity":78,"channel":0},{"pitch":58,"velocity":99,"channel":0},{"pitch":87,"velocity":88,"channel":0},{"pitch":22,"velocity":96,"channel":0},{"pitch":87,"velocity":66,"channel":0},{"pitch":39,"velocity":86,"channel":0},{"pitch":39,"velocity":87,"channel":0},{"pitch":39,"velocity":82,"channel":0},{"pitch":46,"velocity":98,"channel":0},{"pitch":28,"velocity":106,"channel":0},{"pitch":22,"velocity":86,"channel":0},{"pitch":22,"velocity":88,"channel":0},{"pitch":15,"velocity":100,"channel":0},{"pitch":88,"velocity":92,"channel":0},{"pitch":75,"velocity":88,"channel":0},{"pitch":15,"velocity":77,"channel":0},{"pitch":34,"velocity":86,"channel":0},{"pitch":58,"velocity":74,"channel":0},{"pitch":82,"velocity":86,"channel":0},{"pitch":22,"velocity":86,"channel":0},{"pitch":87,"velocity":91,"channel":0},{"pitch":27,"velocity":86,"channel":0},{"pitch":70,"velocity":105,"channel":0},{"pitch":20,"velocity":79,"channel":0},{"pitch":90,"velocity":95,"channel":0},{"pitch":56,"velocity":87,"channel":0},{"pitch":88,"velocity":96,"channel":0},{"pitch":63,"velocity":99,"channel":0},{"pitch":75,"velocity":76,"channel":0},{"pitch":63,"velocity":93,"channel":0},{"pitch":63,"velocity":86,"channel":0},{"pitch":75,"velocity":92,"channel":0},{"pitch":58,"velocity":83,"channel":0},{"pitch":70,"velocity":78,"channel":0},{"pitch":70,"velocity":84,"channel":0},{"pitch":82,"velocity":76,"channel":0},{"pitch":63,"velocity":84,"channel":0},{"pitch":58,"velocity":93,"channel":0},{"pitch":70,"velocity":93,"channel":0},{"pitch":70,"velocity":88,"channel":0},{"pitch":82,"velocity":93,"channel":0},{"pitch":58,"velocity":104,"channel":0},{"pitch":70,"velocity":88,"channel":0},{"pitch":58,"velocity":95,"channel":0},{"pitch":68,"velocity":93,"channel":0},{"pitch":68,"velocity":87,"channel":0},{"pitch":56,"velocity":88,"channel":0},{"pitch":68,"velocity":77,"channel":0},{"pitch":75,"velocity":86,"channel":0},{"pitch":75,"velocity":103,"channel":0},{"pitch":75,"velocity":103,"channel":0},{"pitch":75,"velocity":91,"channel":0},{"pitch":58,"velocity":88,"channel":0},{"pitch":75,"velocity":78,"channel":0},{"pitch":75,"velocity":83,"channel":0},{"pitch":8,"velocity":82,"channel":0},{"pitch":6,"velocity":83,"channel":0},{"pitch":58,"velocity":96,"channel":0},{"pitch":63,"velocity":91,"channel":0},{"pitch":15,"velocity":97,"channel":0},{"pitch":22,"velocity":81,"channel":0},{"pitch":58,"velocity":95,"channel":0},{"pitch":22,"velocity":98,"channel":0},{"pitch":22,"velocity":86,"channel":0},{"pitch":15,"velocity":102,"channel":0},{"pitch":82,"velocity":88,"channel":0},{"pitch":10,"velocity":92,"channel":0},{"pitch":10,"velocity":85,"channel":0},{"pitch":10,"velocity":91,"channel":0},{"pitch":10,"velocity":92,"channel":0},{"pitch":10,"velocity":81,"channel":0},{"pitch":94,"velocity":76,"channel":0},{"pitch":15,"velocity":97,"channel":0},{"pitch":58,"velocity":79,"channel":0},{"pitch":94,"velocity":79,"channel":0},{"pitch":34,"velocity":102,"channel":0},{"pitch":58,"velocity":98,"channel":0},{"pitch":10,"velocity":82,"channel":0},{"pitch":22,"velocity":100,"channel":0},{"pitch":22,"velocity":77,"channel":0},{"pitch":22,"velocity":95,"channel":0},{"pitch":90,"velocity":83,"channel":0},{"pitch":22,"velocity":81,"channel":0},{"pitch":80,"velocity":93,"channel":0},{"pitch":94,"velocity":91,"channel":0},{"pitch":70,"velocity":86,"channel":0},{"pitch":58,"velocity":92,"channel":0},{"pitch":88,"velocity":83,"channel":0},{"pitch":80,"velocity":95,"channel":0}],"stageTiming":{"beat-setup":40.3787,"intent":0.0186,"entropy":0.0207,"phase":0.077,"climax":0.046,"envelope":0.0184,"silhouette":0.0378,"rest":0.0558,"complement":0.0023,"tension-cadence":0.0309,"negotiation":0.0389,"probability-adjust":0.0106,"emission":3.135,"post-beat":0.0381},"iterBudget":{"raw":81,"capped":81,"wasCapped":false}}
{"layer":"L2","beatKey":"0:0:1:6","timeMs":4385.964912280702,"snap":{"key":"A#","mode":"locrian","quality":"minor","scale":["A#","B","C#","D#","E","F#","G#"],"chords":[],"tension":0.2858458816418885,"harmonicRhythm":0.33338377287365806,"harmonicMutationCount":8,"excursion":0,"sectionPhase":"opening","phrasePosition":0.8,"phrasePhase":"resolution","phraseDynamism":1,"registerBias":1.0534230275096785,"densityMultiplier":1.0351141009169893,"voiceIndependence":0.5,"compositeIntensity":0.34955546008782645,"playProb":0.3427583082730545,"stutterProb":0.47505733023765967,"flicker":1.1885495733762952,"textureMode":"flurry","textureFatigue":0,"densityBias":0,"crossModBias":1,"emissionRatio":0.8882997864076252,"extraDensityCorrection":1.022340042718475,"extraCoherenceDensityBias":1,"activeProfile":"restrained","journeyMove":"origin","journeyDistance":0,"journeyKey":"D#","journeyMode":"locrian","binauralFreqOffset":9,"binauralFlip":false,"tick":442500,"updatedAt":1772749134759},"negotiation":{"playProb":0.262951688489537,"stutterProb":0.2898330685510438,"allowCadence":false,"conflict":0.17383592247229207,"phaseConfidence":0.3596491228070169},"trust":{"stutterContagion":{"score":0.45885083277428884,"samples":86,"weight":1.3441381245807167},"cadenceAlignment":{"score":0.23885176099955244,"samples":86,"weight":1.1791388207496643},"phaseLock":{"score":0.25641734541472194,"samples":86,"weight":1.1923130090610414},"convergence":{"score":0.24069641014261323,"samples":86,"weight":1.18052230760696},"feedbackOscillator":{"score":0.24754492995354554,"samples":86,"weight":1.185658697465159},"coherenceMonitor":{"score":0.6843491076146518,"samples":86,"weight":1.5132618307109889},"entropyRegulator":{"score":0.74925,"samples":86,"weight":1.5619375},"restSynchronizer":{"score":0.29336821214847586,"samples":86,"weight":1.2200261591113568}},"regime":"evolving","coupling":{"density-tension":-0.786,"density-flicker":0.98,"density-entropy":-0.768,"density-trust":-0.966,"density-phase":0,"tension-flicker":-0.88,"tension-entropy":0.6,"tension-trust":0.86,"tension-phase":0,"flicker-entropy":-0.739,"flicker-trust":-0.973,"flicker-phase":0,"entropy-trust":0.691,"entropy-phase":0},"couplingTargets":{"density-tension":{"baseline":0.15,"current":0.1477,"rollingAbsCorr":0.0297,"rawRollingAbsCorr":0.0297,"gain":0.3,"heatPenalty":0,"effectivenessEma":0.5012,"effMin":0.475,"effMax":0.5012,"effActiveBeats":2,"hpPromoted":false},"density-flicker":{"baseline":0.12,"current":0.1177,"rollingAbsCorr":0.0384,"rawRollingAbsCorr":0.0384,"gain":0.2416,"heatPenalty":0.036,"effectivenessEma":0.5012,"effMin":0.475,"effMax":0.5012,"effActiveBeats":2,"hpPromoted":false},"density-entropy":{"baseline":0.12,"current":0.1191,"rollingAbsCorr":0.0744,"rawRollingAbsCorr":0.0744,"gain":0.22,"heatPenalty":0,"effectivenessEma":0.5012,"effMin":0.475,"effMax":0.5012,"effActiveBeats":2,"hpPromoted":false},"density-trust":{"baseline":0.2,"current":0.1977,"rollingAbsCorr":0.0351,"rawRollingAbsCorr":0.0351,"gain":0.229,"heatPenalty":0.01,"effectivenessEma":0.5012,"effMin":0.475,"effMax":0.5012,"effActiveBeats":2,"hpPromoted":false},"density-phase":{"baseline":0.06,"current":0.06,"rollingAbsCorr":0,"rawRollingAbsCorr":0,"gain":0.16,"heatPenalty":0,"effectivenessEma":0.5,"effMin":1,"effMax":0,"effActiveBeats":0,"hpPromoted":false},"tension-flicker":{"baseline":0.15,"current":0.147,"rollingAbsCorr":0.0314,"rawRollingAbsCorr":0.0314,"gain":0.229,"heatPenalty":0.01,"effectivenessEma":0.5012,"effMin":0.475,"effMax":0.5012,"effActiveBeats":2,"hpPromoted":false},"tension-entropy":{"baseline":0.25,"current":0.247,"rollingAbsCorr":0.0508,"rawRollingAbsCorr":0.0508,"gain":0.22,"heatPenalty":0,"effectivenessEma":0.5012,"effMin":0.475,"effMax":0.5012,"effActiveBeats":2,"hpPromoted":false},"tension-trust":{"baseline":0.15,"current":0.147,"rollingAbsCorr":0.0342,"rawRollingAbsCorr":0.0342,"gain":0.229,"heatPenalty":0.01,"effectivenessEma":0.4512,"effMin":0.4512,"effMax":0.475,"effActiveBeats":2,"hpPromoted":false},"tension-phase":{"baseline":0.2,"current":0.197,"rollingAbsCorr":0,"rawRollingAbsCorr":0,"gain":0.16,"heatPenalty":0,"effectivenessEma":0.5,"effMin":1,"effMax":0,"effActiveBeats":0,"hpPromoted":false},"flicker-entropy":{"baseline":0.18,"current":0.177,"rollingAbsCorr":0.0733,"rawRollingAbsCorr":0.0733,"gain":0.22,"heatPenalty":0,"effectivenessEma":0.4512,"effMin":0.4512,"effMax":0.475,"effActiveBeats":2,"hpPromoted":false},"flicker-trust":{"baseline":0.12,"current":0.117,"rollingAbsCorr":0.0329,"rawRollingAbsCorr":0.0329,"gain":0.229,"heatPenalty":0.01,"effectivenessEma":0.5012,"effMin":0.475,"effMax":0.5012,"effActiveBeats":2,"hpPromoted":false},"flicker-phase":{"baseline":0.08,"current":0.08,"rollingAbsCorr":0,"rawRollingAbsCorr":0,"gain":0.16,"heatPenalty":0,"effectivenessEma":0.5,"effMin":1,"effMax":0,"effActiveBeats":0,"hpPromoted":false},"entropy-trust":{"baseline":0.25,"current":0.25,"rollingAbsCorr":0.0549,"rawRollingAbsCorr":0.0549,"gain":0.16,"heatPenalty":0,"effectivenessEma":0.5,"effMin":1,"effMax":0,"effActiveBeats":0,"hpPromoted":false},"entropy-phase":{"baseline":0.1,"current":0.1,"rollingAbsCorr":0,"rawRollingAbsCorr":0,"gain":0.16,"heatPenalty":0,"effectivenessEma":0.5,"effMin":1,"effMax":0,"effActiveBeats":0,"hpPromoted":false}},"axisCouplingTotals":{"density":0.9324,"tension":0.8085,"flicker":0.9236,"entropy":0.7182,"trust":0.8663,"phase":0},"axisEnergyShare":{"shares":{"density":0.2194,"tension":0.1903,"flicker":0.2174,"entropy":0.169,"trust":0.2039,"phase":0},"axisGini":0.2093},"couplingGates":{"gateD":1,"gateT":1,"gateF":1,"floorDampen":0.2,"bypassD":0.190994,"bypassT":-0.09245,"bypassF":0.140738,"gateMinD":1,"gateMinT":1,"gateMinF":1,"gateEmaD":1,"gateEmaT":1,"gateEmaF":1,"gateBeatCount":7},"couplingHomeostasis":{"totalEnergyEma":7.157,"energyBudget":3.5,"peakEnergyEma":8.2018,"totalEnergyFloor":7.5687,"floorDampen":0.28,"redistributionScore":0,"nudgeableRedistributionScore":0,"globalGainMultiplier":0.5957,"giniCoefficient":0.3699,"energyDeltaEma":0.6333,"pairTurbulenceEma":0.0082,"beatCount":2,"invokeCount":7,"tickCount":88,"emptyMatrixBeats":5,"multiplierMin":0.5957,"multiplierMax":1,"multiplierStdDev":0.1378,"floorContactBeats":0,"ceilingContactBeats":61,"avgRecoveryDuration":0},"axisEnergyEquilibrator":{"beatCount":7,"pairAdjustments":0,"axisAdjustments":0,"smoothedShares":{"density":0.03317728,"tension":0.02917856,"flicker":0.03334112,"entropy":0.02600992,"trust":0.03189312,"phase":0},"perAxisAdj":{},"perPairAdj":{},"lastBaselines":{},"regimeBeats":{},"regimePairAdj":{},"regimeAxisAdj":{},"regimeTightenBudget":{}},"transitionReadiness":{"gap":0.5588,"couplingStrength":0.7245,"coherentThreshold":0.1658,"velocity":0.064212,"velThreshold":0.008,"thresholdScale":0.65,"velocityBlocked":false,"exploringBlock":"dimension","rawRegimeCounts":{"coherent":2},"rawRegimeMaxStreak":{"coherent":2},"effectiveDim":1.92},"notes":[{"pitch":58,"velocity":106,"channel":0},{"pitch":70,"velocity":89,"channel":0},{"pitch":87,"velocity":89,"channel":0},{"pitch":40,"velocity":92,"channel":0},{"pitch":22,"velocity":71,"channel":0},{"pitch":52,"velocity":86,"channel":0},{"pitch":75,"velocity":84,"channel":0},{"pitch":80,"velocity":86,"channel":0},{"pitch":20,"velocity":89,"channel":0},{"pitch":70,"velocity":99,"channel":0},{"pitch":75,"velocity":89,"channel":0},{"pitch":82,"velocity":96,"channel":0},{"pitch":75,"velocity":82,"channel":0},{"pitch":27,"velocity":83,"channel":0},{"pitch":56,"velocity":82,"channel":0},{"pitch":94,"velocity":103,"channel":0},{"pitch":22,"velocity":90,"channel":0},{"pitch":32,"velocity":99,"channel":0},{"pitch":75,"velocity":89,"channel":0},{"pitch":8,"velocity":87,"channel":0},{"pitch":3,"velocity":103,"channel":0}],"stageTiming":{"beat-setup":24.3216,"intent":0.0141,"entropy":0.019,"phase":0.0434,"climax":0.0251,"envelope":0.0135,"silhouette":0.0171,"rest":0.0312,"complement":0.0019,"tension-cadence":0.023,"negotiation":0.026,"probability-adjust":0.0067,"emission":4.1325,"post-beat":0.027},"iterBudget":{"raw":72,"capped":72,"wasCapped":false}}
{"layer":"L2","beatKey":"0:0:1:7","timeMs":4561.403508771929,"snap":{"key":"A#","mode":"locrian","quality":"minor","scale":["A#","B","C#","D#","E","F#","G#"],"chords":[],"tension":0.2858458816418885,"harmonicRhythm":0.33338377287365806,"harmonicMutationCount":8,"excursion":0,"sectionPhase":"opening","phrasePosition":0.8,"phrasePhase":"resolution","phraseDynamism":1,"registerBias":1.0534230275096785,"densityMultiplier":1.0351141009169893,"voiceIndependence":0.5,"compositeIntensity":0.34955546008782645,"playProb":0.3427583082730545,"stutterProb":0.47505733023765967,"flicker":1.1885495733762952,"textureMode":"flurry","textureFatigue":0,"densityBias":0,"crossModBias":1,"emissionRatio":0.8882997864076252,"extraDensityCorrection":1.022340042718475,"extraCoherenceDensityBias":1,"activeProfile":"restrained","journeyMove":"origin","journeyDistance":0,"journeyKey":"D#","journeyMode":"locrian","binauralFreqOffset":9,"binauralFlip":false,"tick":442500,"updatedAt":1772749134759},"negotiation":{"playProb":0.26408579807357146,"stutterProb":0.2912191664803082,"allowCadence":false,"conflict":0.16499930383105244,"phaseConfidence":0.3585526315789483},"trust":{"stutterContagion":{"score":0.44531334448258186,"samples":87,"weight":1.3339850083619365},"cadenceAlignment":{"score":0.23511145167903277,"samples":87,"weight":1.1763335887592745},"phaseLock":{"score":0.25806662802553443,"samples":87,"weight":1.1935499710191508},"convergence":{"score":0.23715702743066658,"samples":87,"weight":1.1778677705729999},"feedbackOscillator":{"score":0.2465436465212328,"samples":87,"weight":1.1849077348909245},"coherenceMonitor":{"score":0.685727374466303,"samples":87,"weight":1.5142955308497272},"entropyRegulator":{"score":0.74925,"samples":87,"weight":1.5619375},"restSynchronizer":{"score":0.27175935954269465,"samples":87,"weight":1.203819519657021}},"regime":"evolving","coupling":{"density-tension":-0.786,"density-flicker":0.98,"density-entropy":-0.768,"density-trust":-0.966,"density-phase":0,"tension-flicker":-0.88,"tension-entropy":0.6,"tension-trust":0.86,"tension-phase":0,"flicker-entropy":-0.739,"flicker-trust":-0.973,"flicker-phase":0,"entropy-trust":0.691,"entropy-phase":0},"couplingTargets":{"density-tension":{"baseline":0.15,"current":0.1477,"rollingAbsCorr":0.0297,"rawRollingAbsCorr":0.0297,"gain":0.3,"heatPenalty":0,"effectivenessEma":0.5012,"effMin":0.475,"effMax":0.5012,"effActiveBeats":2,"hpPromoted":false},"density-flicker":{"baseline":0.12,"current":0.1177,"rollingAbsCorr":0.0384,"rawRollingAbsCorr":0.0384,"gain":0.2416,"heatPenalty":0.036,"effectivenessEma":0.5012,"effMin":0.475,"effMax":0.5012,"effActiveBeats":2,"hpPromoted":false},"density-entropy":{"baseline":0.12,"current":0.1191,"rollingAbsCorr":0.0744,"rawRollingAbsCorr":0.0744,"gain":0.22,"heatPenalty":0,"effectivenessEma":0.5012,"effMin":0.475,"effMax":0.5012,"effActiveBeats":2,"hpPromoted":false},"density-trust":{"baseline":0.2,"current":0.1977,"rollingAbsCorr":0.0351,"rawRollingAbsCorr":0.0351,"gain":0.229,"heatPenalty":0.01,"effectivenessEma":0.5012,"effMin":0.475,"effMax":0.5012,"effActiveBeats":2,"hpPromoted":false},"density-phase":{"baseline":0.06,"current":0.06,"rollingAbsCorr":0,"rawRollingAbsCorr":0,"gain":0.16,"heatPenalty":0,"effectivenessEma":0.5,"effMin":1,"effMax":0,"effActiveBeats":0,"hpPromoted":false},"tension-flicker":{"baseline":0.15,"current":0.147,"rollingAbsCorr":0.0314,"rawRollingAbsCorr":0.0314,"gain":0.229,"heatPenalty":0.01,"effectivenessEma":0.5012,"effMin":0.475,"effMax":0.5012,"effActiveBeats":2,"hpPromoted":false},"tension-entropy":{"baseline":0.25,"current":0.247,"rollingAbsCorr":0.0508,"rawRollingAbsCorr":0.0508,"gain":0.22,"heatPenalty":0,"effectivenessEma":0.5012,"effMin":0.475,"effMax":0.5012,"effActiveBeats":2,"hpPromoted":false},"tension-trust":{"baseline":0.15,"current":0.147,"rollingAbsCorr":0.0342,"rawRollingAbsCorr":0.0342,"gain":0.229,"heatPenalty":0.01,"effectivenessEma":0.4512,"effMin":0.4512,"effMax":0.475,"effActiveBeats":2,"hpPromoted":false},"tension-phase":{"baseline":0.2,"current":0.197,"rollingAbsCorr":0,"rawRollingAbsCorr":0,"gain":0.16,"heatPenalty":0,"effectivenessEma":0.5,"effMin":1,"effMax":0,"effActiveBeats":0,"hpPromoted":false},"flicker-entropy":{"baseline":0.18,"current":0.177,"rollingAbsCorr":0.0733,"rawRollingAbsCorr":0.0733,"gain":0.22,"heatPenalty":0,"effectivenessEma":0.4512,"effMin":0.4512,"effMax":0.475,"effActiveBeats":2,"hpPromoted":false},"flicker-trust":{"baseline":0.12,"current":0.117,"rollingAbsCorr":0.0329,"rawRollingAbsCorr":0.0329,"gain":0.229,"heatPenalty":0.01,"effectivenessEma":0.5012,"effMin":0.475,"effMax":0.5012,"effActiveBeats":2,"hpPromoted":false},"flicker-phase":{"baseline":0.08,"current":0.08,"rollingAbsCorr":0,"rawRollingAbsCorr":0,"gain":0.16,"heatPenalty":0,"effectivenessEma":0.5,"effMin":1,"effMax":0,"effActiveBeats":0,"hpPromoted":false},"entropy-trust":{"baseline":0.25,"current":0.25,"rollingAbsCorr":0.0549,"rawRollingAbsCorr":0.0549,"gain":0.16,"heatPenalty":0,"effectivenessEma":0.5,"effMin":1,"effMax":0,"effActiveBeats":0,"hpPromoted":false},"entropy-phase":{"baseline":0.1,"current":0.1,"rollingAbsCorr":0,"rawRollingAbsCorr":0,"gain":0.16,"heatPenalty":0,"effectivenessEma":0.5,"effMin":1,"effMax":0,"effActiveBeats":0,"hpPromoted":false}},"axisCouplingTotals":{"density":0.9324,"tension":0.8085,"flicker":0.9236,"entropy":0.7182,"trust":0.8663,"phase":0},"axisEnergyShare":{"shares":{"density":0.2194,"tension":0.1903,"flicker":0.2174,"entropy":0.169,"trust":0.2039,"phase":0},"axisGini":0.2093},"couplingGates":{"gateD":1,"gateT":1,"gateF":1,"floorDampen":0.2,"bypassD":0.190994,"bypassT":-0.09245,"bypassF":0.140738,"gateMinD":1,"gateMinT":1,"gateMinF":1,"gateEmaD":1,"gateEmaT":1,"gateEmaF":1,"gateBeatCount":7},"couplingHomeostasis":{"totalEnergyEma":7.157,"energyBudget":3.5,"peakEnergyEma":8.2018,"totalEnergyFloor":7.5309,"floorDampen":0.29,"redistributionScore":0,"nudgeableRedistributionScore":0,"globalGainMultiplier":0.5903,"giniCoefficient":0.3699,"energyDeltaEma":0.6333,"pairTurbulenceEma":0.0082,"beatCount":2,"invokeCount":7,"tickCount":89,"emptyMatrixBeats":5,"multiplierMin":0.5903,"multiplierMax":1,"multiplierStdDev":0.1413,"floorContactBeats":0,"ceilingContactBeats":61,"avgRecoveryDuration":0},"axisEnergyEquilibrator":{"beatCount":7,"pairAdjustments":0,"axisAdjustments":0,"smoothedShares":{"density":0.03317728,"tension":0.02917856,"flicker":0.03334112,"entropy":0.02600992,"trust":0.03189312,"phase":0},"perAxisAdj":{},"perPairAdj":{},"lastBaselines":{},"regimeBeats":{},"regimePairAdj":{},"regimeAxisAdj":{},"regimeTightenBudget":{}},"transitionReadiness":{"gap":0.5588,"couplingStrength":0.7245,"coherentThreshold":0.1658,"velocity":0.064212,"velThreshold":0.008,"thresholdScale":0.65,"velocityBlocked":false,"exploringBlock":"dimension","rawRegimeCounts":{"coherent":2},"rawRegimeMaxStreak":{"coherent":2},"effectiveDim":1.92},"notes":[{"pitch":27,"velocity":104,"channel":0},{"pitch":27,"velocity":84,"channel":0},{"pitch":94,"velocity":91,"channel":0},{"pitch":70,"velocity":81,"channel":0},{"pitch":70,"velocity":91,"channel":0},{"pitch":22,"velocity":99,"channel":0},{"pitch":51,"velocity":91,"channel":0},{"pitch":27,"velocity":80,"channel":0},{"pitch":51,"velocity":86,"channel":0},{"pitch":51,"velocity":81,"channel":0},{"pitch":88,"velocity":97,"channel":0},{"pitch":75,"velocity":94,"channel":0},{"pitch":51,"velocity":86,"channel":0},{"pitch":58,"velocity":87,"channel":0},{"pitch":15,"velocity":90,"channel":0},{"pitch":92,"velocity":100,"channel":0},{"pitch":82,"velocity":90,"channel":0},{"pitch":94,"velocity":100,"channel":0},{"pitch":15,"velocity":96,"channel":0},{"pitch":22,"velocity":98,"channel":0},{"pitch":27,"velocity":91,"channel":0},{"pitch":94,"velocity":84,"channel":0},{"pitch":58,"velocity":78,"channel":0},{"pitch":92,"velocity":62,"channel":0},{"pitch":82,"velocity":94,"channel":0},{"pitch":15,"velocity":112,"channel":0},{"pitch":16,"velocity":95,"channel":0},{"pitch":76,"velocity":84,"channel":0},{"pitch":28,"velocity":82,"channel":0},{"pitch":22,"velocity":71,"channel":0},{"pitch":78,"velocity":103,"channel":0},{"pitch":6,"velocity":107,"channel":0},{"pitch":8,"velocity":82,"channel":0},{"pitch":8,"velocity":95,"channel":0},{"pitch":10,"velocity":98,"channel":0},{"pitch":56,"velocity":91,"channel":0},{"pitch":75,"velocity":81,"channel":0},{"pitch":75,"velocity":86,"channel":0},{"pitch":39,"velocity":91,"channel":0},{"pitch":82,"velocity":94,"channel":0},{"pitch":10,"velocity":87,"channel":0},{"pitch":44,"velocity":88,"channel":0},{"pitch":68,"velocity":112,"channel":0},{"pitch":80,"velocity":89,"channel":0},{"pitch":68,"velocity":78,"channel":0},{"pitch":68,"velocity":103,"channel":0},{"pitch":56,"velocity":102,"channel":0},{"pitch":68,"velocity":93,"channel":0},{"pitch":80,"velocity":93,"channel":0},{"pitch":27,"velocity":77,"channel":0},{"pitch":27,"velocity":88,"channel":0},{"pitch":54,"velocity":94,"channel":0},{"pitch":32,"velocity":86,"channel":0}],"stageTiming":{"beat-setup":32.0114,"intent":0.0126,"entropy":0.0156,"phase":0.0313,"climax":0.0266,"envelope":0.0127,"silhouette":0.0173,"rest":0.0271,"complement":0.0015,"tension-cadence":0.0246,"negotiation":0.0233,"probability-adjust":0.0075,"emission":2.5816,"post-beat":0.0471},"iterBudget":{"raw":112,"capped":112,"wasCapped":false}}
{"layer":"L2","beatKey":"0:0:1:8","timeMs":4736.8421052631575,"snap":{"key":"A#","mode":"locrian","quality":"minor","scale":["A#","B","C#","D#","E","F#","G#"],"chords":[],"tension":0.2858458816418885,"harmonicRhythm":0.33338377287365806,"harmonicMutationCount":8,"excursion":0,"sectionPhase":"opening","phrasePosition":0.8,"phrasePhase":"resolution","phraseDynamism":1,"registerBias":1.0534230275096785,"densityMultiplier":1.0351141009169893,"voiceIndependence":0.5,"compositeIntensity":0.34955546008782645,"playProb":0.3427583082730545,"stutterProb":0.47505733023765967,"flicker":1.1885495733762952,"textureMode":"flurry","textureFatigue":0,"densityBias":0,"crossModBias":1,"emissionRatio":0.8882997864076252,"extraDensityCorrection":1.022340042718475,"extraCoherenceDensityBias":1,"activeProfile":"restrained","journeyMove":"origin","journeyDistance":0,"journeyKey":"D#","journeyMode":"locrian","binauralFreqOffset":9,"binauralFlip":false,"tick":442500,"updatedAt":1772749134759},"negotiation":{"playProb":0.2652977830848347,"stutterProb":0.29273683552268837,"allowCadence":false,"conflict":0.15765141960266194,"phaseConfidence":0.3526315789473695},"trust":{"stutterContagion":{"score":0.43204732018420705,"samples":88,"weight":1.3240354901381552},"cadenceAlignment":{"score":0.23214413915061347,"samples":88,"weight":1.17410810436296},"phaseLock":{"score":0.2593424684156528,"samples":88,"weight":1.1945068513117396},"convergence":{"score":0.23415659372066808,"samples":88,"weight":1.175617445290501},"feedbackOscillator":{"score":0.2456433925872404,"samples":88,"weight":1.1842325444404302},"coherenceMonitor":{"score":0.6860777221187301,"samples":88,"weight":1.5145582915890476},"entropyRegulator":{"score":0.74925,"samples":88,"weight":1.5619375},"restSynchronizer":{"score":0.25233084016483676,"samples":88,"weight":1.1892481301236275}},"regime":"evolving","coupling":{"density-tension":-0.786,"density-flicker":0.98,"density-entropy":-0.768,"density-trust":-0.966,"density-phase":0,"tension-flicker":-0.88,"tension-entropy":0.6,"tension-trust":0.86,"tension-phase":0,"flicker-entropy":-0.739,"flicker-trust":-0.973,"flicker-phase":0,"entropy-trust":0.691,"entropy-phase":0},"couplingTargets":{"density-tension":{"baseline":0.15,"current":0.1477,"rollingAbsCorr":0.0297,"rawRollingAbsCorr":0.0297,"gain":0.3,"heatPenalty":0,"effectivenessEma":0.5012,"effMin":0.475,"effMax":0.5012,"effActiveBeats":2,"hpPromoted":false},"density-flicker":{"baseline":0.12,"current":0.1177,"rollingAbsCorr":0.0384,"rawRollingAbsCorr":0.0384,"gain":0.2416,"heatPenalty":0.036,"effectivenessEma":0.5012,"effMin":0.475,"effMax":0.5012,"effActiveBeats":2,"hpPromoted":false},"density-entropy":{"baseline":0.12,"current":0.1191,"rollingAbsCorr":0.0744,"rawRollingAbsCorr":0.0744,"gain":0.22,"heatPenalty":0,"effectivenessEma":0.5012,"effMin":0.475,"effMax":0.5012,"effActiveBeats":2,"hpPromoted":false},"density-trust":{"baseline":0.2,"current":0.1977,"rollingAbsCorr":0.0351,"rawRollingAbsCorr":0.0351,"gain":0.229,"heatPenalty":0.01,"effectivenessEma":0.5012,"effMin":0.475,"effMax":0.5012,"effActiveBeats":2,"hpPromoted":false},"density-phase":{"baseline":0.06,"current":0.06,"rollingAbsCorr":0,"rawRollingAbsCorr":0,"gain":0.16,"heatPenalty":0,"effectivenessEma":0.5,"effMin":1,"effMax":0,"effActiveBeats":0,"hpPromoted":false},"tension-flicker":{"baseline":0.15,"current":0.147,"rollingAbsCorr":0.0314,"rawRollingAbsCorr":0.0314,"gain":0.229,"heatPenalty":0.01,"effectivenessEma":0.5012,"effMin":0.475,"effMax":0.5012,"effActiveBeats":2,"hpPromoted":false},"tension-entropy":{"baseline":0.25,"current":0.247,"rollingAbsCorr":0.0508,"rawRollingAbsCorr":0.0508,"gain":0.22,"heatPenalty":0,"effectivenessEma":0.5012,"effMin":0.475,"effMax":0.5012,"effActiveBeats":2,"hpPromoted":false},"tension-trust":{"baseline":0.15,"current":0.147,"rollingAbsCorr":0.0342,"rawRollingAbsCorr":0.0342,"gain":0.229,"heatPenalty":0.01,"effectivenessEma":0.4512,"effMin":0.4512,"effMax":0.475,"effActiveBeats":2,"hpPromoted":false},"tension-phase":{"baseline":0.2,"current":0.197,"rollingAbsCorr":0,"rawRollingAbsCorr":0,"gain":0.16,"heatPenalty":0,"effectivenessEma":0.5,"effMin":1,"effMax":0,"effActiveBeats":0,"hpPromoted":false},"flicker-entropy":{"baseline":0.18,"current":0.177,"rollingAbsCorr":0.0733,"rawRollingAbsCorr":0.0733,"gain":0.22,"heatPenalty":0,"effectivenessEma":0.4512,"effMin":0.4512,"effMax":0.475,"effActiveBeats":2,"hpPromoted":false},"flicker-trust":{"baseline":0.12,"current":0.117,"rollingAbsCorr":0.0329,"rawRollingAbsCorr":0.0329,"gain":0.229,"heatPenalty":0.01,"effectivenessEma":0.5012,"effMin":0.475,"effMax":0.5012,"effActiveBeats":2,"hpPromoted":false},"flicker-phase":{"baseline":0.08,"current":0.08,"rollingAbsCorr":0,"rawRollingAbsCorr":0,"gain":0.16,"heatPenalty":0,"effectivenessEma":0.5,"effMin":1,"effMax":0,"effActiveBeats":0,"hpPromoted":false},"entropy-trust":{"baseline":0.25,"current":0.25,"rollingAbsCorr":0.0549,"rawRollingAbsCorr":0.0549,"gain":0.16,"heatPenalty":0,"effectivenessEma":0.5,"effMin":1,"effMax":0,"effActiveBeats":0,"hpPromoted":false},"entropy-phase":{"baseline":0.1,"current":0.1,"rollingAbsCorr":0,"rawRollingAbsCorr":0,"gain":0.16,"heatPenalty":0,"effectivenessEma":0.5,"effMin":1,"effMax":0,"effActiveBeats":0,"hpPromoted":false}},"axisCouplingTotals":{"density":0.9324,"tension":0.8085,"flicker":0.9236,"entropy":0.7182,"trust":0.8663,"phase":0},"axisEnergyShare":{"shares":{"density":0.2194,"tension":0.1903,"flicker":0.2174,"entropy":0.169,"trust":0.2039,"phase":0},"axisGini":0.2093},"couplingGates":{"gateD":1,"gateT":1,"gateF":1,"floorDampen":0.2,"bypassD":0.190994,"bypassT":-0.09245,"bypassF":0.140738,"gateMinD":1,"gateMinT":1,"gateMinF":1,"gateEmaD":1,"gateEmaT":1,"gateEmaF":1,"gateBeatCount":7},"couplingHomeostasis":{"totalEnergyEma":7.157,"energyBudget":3.5,"peakEnergyEma":8.2018,"totalEnergyFloor":7.4932,"floorDampen":0.3,"redistributionScore":0,"nudgeableRedistributionScore":0,"globalGainMultiplier":0.5853,"giniCoefficient":0.3699,"energyDeltaEma":0.6333,"pairTurbulenceEma":0.0082,"beatCount":2,"invokeCount":7,"tickCount":90,"emptyMatrixBeats":5,"multiplierMin":0.5853,"multiplierMax":1,"multiplierStdDev":0.1447,"floorContactBeats":0,"ceilingContactBeats":61,"avgRecoveryDuration":0},"axisEnergyEquilibrator":{"beatCount":7,"pairAdjustments":0,"axisAdjustments":0,"smoothedShares":{"density":0.03317728,"tension":0.02917856,"flicker":0.03334112,"entropy":0.02600992,"trust":0.03189312,"phase":0},"perAxisAdj":{},"perPairAdj":{},"lastBaselines":{},"regimeBeats":{},"regimePairAdj":{},"regimeAxisAdj":{},"regimeTightenBudget":{}},"transitionReadiness":{"gap":0.5588,"couplingStrength":0.7245,"coherentThreshold":0.1658,"velocity":0.064212,"velThreshold":0.008,"thresholdScale":0.65,"velocityBlocked":false,"exploringBlock":"dimension","rawRegimeCounts":{"coherent":2},"rawRegimeMaxStreak":{"coherent":2},"effectiveDim":1.92},"notes":[{"pitch":22,"velocity":89,"channel":0},{"pitch":4,"velocity":107,"channel":0},{"pitch":87,"velocity":90,"channel":0},{"pitch":51,"velocity":98,"channel":0},{"pitch":22,"velocity":91,"channel":0},{"pitch":80,"velocity":88,"channel":0},{"pitch":51,"velocity":105,"channel":0},{"pitch":51,"velocity":87,"channel":0},{"pitch":58,"velocity":96,"channel":0},{"pitch":42,"velocity":98,"channel":0},{"pitch":58,"velocity":93,"channel":0},{"pitch":58,"velocity":87,"channel":0},{"pitch":87,"velocity":88,"channel":0},{"pitch":32,"velocity":108,"channel":0},{"pitch":6,"velocity":108,"channel":0},{"pitch":75,"velocity":98,"channel":0},{"pitch":63,"velocity":87,"channel":0},{"pitch":87,"velocity":97,"channel":0},{"pitch":63,"velocity":83,"channel":0},{"pitch":51,"velocity":83,"channel":0},{"pitch":15,"velocity":81,"channel":0},{"pitch":22,"velocity":93,"channel":0},{"pitch":75,"velocity":104,"channel":0},{"pitch":58,"velocity":91,"channel":0},{"pitch":51,"velocity":96,"channel":0},{"pitch":51,"velocity":110,"channel":0},{"pitch":75,"velocity":97,"channel":0},{"pitch":15,"velocity":102,"channel":0},{"pitch":22,"velocity":105,"channel":0},{"pitch":22,"velocity":78,"channel":0},{"pitch":22,"velocity":105,"channel":0},{"pitch":82,"velocity":94,"channel":0},{"pitch":22,"velocity":103,"channel":0},{"pitch":51,"velocity":95,"channel":0},{"pitch":70,"velocity":99,"channel":0},{"pitch":58,"velocity":105,"channel":0},{"pitch":80,"velocity":89,"channel":0},{"pitch":32,"velocity":78,"channel":0},{"pitch":68,"velocity":82,"channel":0},{"pitch":68,"velocity":112,"channel":0},{"pitch":58,"velocity":88,"channel":0},{"pitch":46,"velocity":102,"channel":0},{"pitch":58,"velocity":99,"channel":0},{"pitch":94,"velocity":107,"channel":0},{"pitch":75,"velocity":98,"channel":0},{"pitch":63,"velocity":79,"channel":0},{"pitch":63,"velocity":80,"channel":0},{"pitch":75,"velocity":97,"channel":0},{"pitch":80,"velocity":83,"channel":0},{"pitch":58,"velocity":80,"channel":0},{"pitch":22,"velocity":103,"channel":0},{"pitch":68,"velocity":98,"channel":0},{"pitch":42,"velocity":103,"channel":0},{"pitch":42,"velocity":100,"channel":0},{"pitch":76,"velocity":112,"channel":0},{"pitch":39,"velocity":94,"channel":0},{"pitch":15,"velocity":103,"channel":0},{"pitch":22,"velocity":90,"channel":0},{"pitch":51,"velocity":89,"channel":0},{"pitch":56,"velocity":89,"channel":0},{"pitch":80,"velocity":103,"channel":0},{"pitch":20,"velocity":96,"channel":0},{"pitch":68,"velocity":77,"channel":0},{"pitch":20,"velocity":94,"channel":0},{"pitch":20,"velocity":78,"channel":0},{"pitch":80,"velocity":104,"channel":0},{"pitch":20,"velocity":98,"channel":0},{"pitch":20,"velocity":98,"channel":0},{"pitch":20,"velocity":98,"channel":0},{"pitch":8,"velocity":87,"channel":0},{"pitch":22,"velocity":82,"channel":0},{"pitch":68,"velocity":95,"channel":0},{"pitch":58,"velocity":93,"channel":0},{"pitch":80,"velocity":97,"channel":0},{"pitch":80,"velocity":82,"channel":0},{"pitch":20,"velocity":107,"channel":0},{"pitch":87,"velocity":107,"channel":0},{"pitch":44,"velocity":120,"channel":0},{"pitch":40,"velocity":115,"channel":0},{"pitch":51,"velocity":96,"channel":0},{"pitch":80,"velocity":118,"channel":0},{"pitch":56,"velocity":116,"channel":0},{"pitch":90,"velocity":96,"channel":0},{"pitch":58,"velocity":98,"channel":0},{"pitch":92,"velocity":112,"channel":0},{"pitch":75,"velocity":104,"channel":0},{"pitch":75,"velocity":98,"channel":0},{"pitch":51,"velocity":104,"channel":0},{"pitch":75,"velocity":105,"channel":0},{"pitch":94,"velocity":112,"channel":0},{"pitch":46,"velocity":106,"channel":0},{"pitch":51,"velocity":116,"channel":0},{"pitch":94,"velocity":113,"channel":0},{"pitch":51,"velocity":97,"channel":0},{"pitch":51,"velocity":111,"channel":0},{"pitch":75,"velocity":114,"channel":0},{"pitch":90,"velocity":121,"channel":0},{"pitch":78,"velocity":113,"channel":0},{"pitch":80,"velocity":113,"channel":0},{"pitch":80,"velocity":97,"channel":0},{"pitch":80,"velocity":93,"channel":0},{"pitch":22,"velocity":98,"channel":0},{"pitch":16,"velocity":120,"channel":0},{"pitch":22,"velocity":112,"channel":0},{"pitch":22,"velocity":108,"channel":0},{"pitch":90,"velocity":122,"channel":0},{"pitch":75,"velocity":127,"channel":0},{"pitch":4,"velocity":127,"channel":0}],"stageTiming":{"beat-setup":18.8209,"intent":0.0118,"entropy":0.0152,"phase":0.0305,"climax":0.0251,"envelope":0.0123,"silhouette":0.0156,"rest":0.0197,"complement":0.0022,"tension-cadence":0.022,"negotiation":0.0324,"probability-adjust":0.0059,"emission":7.0501,"post-beat":0.023},"iterBudget":{"raw":528,"capped":150,"wasCapped":true}}
{"layer":"L2","beatKey":"0:0:1:9","timeMs":4912.280701754386,"snap":{"key":"A#","mode":"locrian","quality":"minor","scale":["A#","B","C#","D#","E","F#","G#"],"chords":[],"tension":0.2858458816418885,"harmonicRhythm":0.33338377287365806,"harmonicMutationCount":8,"excursion":0,"sectionPhase":"opening","phrasePosition":0.8,"phrasePhase":"resolution","phraseDynamism":1,"registerBias":1.0534230275096785,"densityMultiplier":1.0351141009169893,"voiceIndependence":0.5,"compositeIntensity":0.34955546008782645,"playProb":0.3427583082730545,"stutterProb":0.47505733023765967,"flicker":1.1885495733762952,"textureMode":"flurry","textureFatigue":0,"densityBias":0,"crossModBias":1,"emissionRatio":0.8882997864076252,"extraDensityCorrection":1.022340042718475,"extraCoherenceDensityBias":1,"activeProfile":"restrained","journeyMove":"origin","journeyDistance":0,"journeyKey":"D#","journeyMode":"locrian","binauralFreqOffset":9,"binauralFlip":false,"tick":442500,"updatedAt":1772749134759},"negotiation":{"playProb":0.2664647236121116,"stutterProb":0.29419847427023404,"allowCadence":false,"conflict":0.14992738577519527,"phaseConfidence":0.3418859649122803},"trust":{"stutterContagion":{"score":0.41906237906152455,"samples":89,"weight":1.3142967842961433},"cadenceAlignment":{"score":0.23433577438741265,"samples":89,"weight":1.1757518307905594},"phaseLock":{"score":0.29507885611567125,"samples":89,"weight":1.2213091420867535},"convergence":{"score":0.23433577438741265,"samples":89,"weight":1.1757518307905594},"feedbackOscillator":{"score":0.27155722427518786,"samples":89,"weight":1.203667918206391},"coherenceMonitor":{"score":0.6886653976131614,"samples":89,"weight":1.516499048209871},"entropyRegulator":{"score":0.74925,"samples":89,"weight":1.5619375},"restSynchronizer":{"score":0.23486265839220474,"samples":89,"weight":1.1761469937941536}},"regime":"evolving","coupling":{"density-tension":-0.786,"density-flicker":0.98,"density-entropy":-0.768,"density-trust":-0.966,"density-phase":0,"tension-flicker":-0.88,"tension-entropy":0.6,"tension-trust":0.86,"tension-phase":0,"flicker-entropy":-0.739,"flicker-trust":-0.973,"flicker-phase":0,"entropy-trust":0.691,"entropy-phase":0},"couplingTargets":{"density-tension":{"baseline":0.15,"current":0.1477,"rollingAbsCorr":0.0297,"rawRollingAbsCorr":0.0297,"gain":0.3,"heatPenalty":0,"effectivenessEma":0.5012,"effMin":0.475,"effMax":0.5012,"effActiveBeats":2,"hpPromoted":false},"density-flicker":{"baseline":0.12,"current":0.1177,"rollingAbsCorr":0.0384,"rawRollingAbsCorr":0.0384,"gain":0.2416,"heatPenalty":0.036,"effectivenessEma":0.5012,"effMin":0.475,"effMax":0.5012,"effActiveBeats":2,"hpPromoted":false},"density-entropy":{"baseline":0.12,"current":0.1191,"rollingAbsCorr":0.0744,"rawRollingAbsCorr":0.0744,"gain":0.22,"heatPenalty":0,"effectivenessEma":0.5012,"effMin":0.475,"effMax":0.5012,"effActiveBeats":2,"hpPromoted":false},"density-trust":{"baseline":0.2,"current":0.1977,"rollingAbsCorr":0.0351,"rawRollingAbsCorr":0.0351,"gain":0.229,"heatPenalty":0.01,"effectivenessEma":0.5012,"effMin":0.475,"effMax":0.5012,"effActiveBeats":2,"hpPromoted":false},"density-phase":{"baseline":0.06,"current":0.06,"rollingAbsCorr":0,"rawRollingAbsCorr":0,"gain":0.16,"heatPenalty":0,"effectivenessEma":0.5,"effMin":1,"effMax":0,"effActiveBeats":0,"hpPromoted":false},"tension-flicker":{"baseline":0.15,"current":0.147,"rollingAbsCorr":0.0314,"rawRollingAbsCorr":0.0314,"gain":0.229,"heatPenalty":0.01,"effectivenessEma":0.5012,"effMin":0.475,"effMax":0.5012,"effActiveBeats":2,"hpPromoted":false},"tension-entropy":{"baseline":0.25,"current":0.247,"rollingAbsCorr":0.0508,"rawRollingAbsCorr":0.0508,"gain":0.22,"heatPenalty":0,"effectivenessEma":0.5012,"effMin":0.475,"effMax":0.5012,"effActiveBeats":2,"hpPromoted":false},"tension-trust":{"baseline":0.15,"current":0.147,"rollingAbsCorr":0.0342,"rawRollingAbsCorr":0.0342,"gain":0.229,"heatPenalty":0.01,"effectivenessEma":0.4512,"effMin":0.4512,"effMax":0.475,"effActiveBeats":2,"hpPromoted":false},"tension-phase":{"baseline":0.2,"current":0.197,"rollingAbsCorr":0,"rawRollingAbsCorr":0,"gain":0.16,"heatPenalty":0,"effectivenessEma":0.5,"effMin":1,"effMax":0,"effActiveBeats":0,"hpPromoted":false},"flicker-entropy":{"baseline":0.18,"current":0.177,"rollingAbsCorr":0.0733,"rawRollingAbsCorr":0.0733,"gain":0.22,"heatPenalty":0,"effectivenessEma":0.4512,"effMin":0.4512,"effMax":0.475,"effActiveBeats":2,"hpPromoted":false},"flicker-trust":{"baseline":0.12,"current":0.117,"rollingAbsCorr":0.0329,"rawRollingAbsCorr":0.0329,"gain":0.229,"heatPenalty":0.01,"effectivenessEma":0.5012,"effMin":0.475,"effMax":0.5012,"effActiveBeats":2,"hpPromoted":false},"flicker-phase":{"baseline":0.08,"current":0.08,"rollingAbsCorr":0,"rawRollingAbsCorr":0,"gain":0.16,"heatPenalty":0,"effectivenessEma":0.5,"effMin":1,"effMax":0,"effActiveBeats":0,"hpPromoted":false},"entropy-trust":{"baseline":0.25,"current":0.25,"rollingAbsCorr":0.0549,"rawRollingAbsCorr":0.0549,"gain":0.16,"heatPenalty":0,"effectivenessEma":0.5,"effMin":1,"effMax":0,"effActiveBeats":0,"hpPromoted":false},"entropy-phase":{"baseline":0.1,"current":0.1,"rollingAbsCorr":0,"rawRollingAbsCorr":0,"gain":0.16,"heatPenalty":0,"effectivenessEma":0.5,"effMin":1,"effMax":0,"effActiveBeats":0,"hpPromoted":false}},"axisCouplingTotals":{"density":0.9324,"tension":0.8085,"flicker":0.9236,"entropy":0.7182,"trust":0.8663,"phase":0},"axisEnergyShare":{"shares":{"density":0.2194,"tension":0.1903,"flicker":0.2174,"entropy":0.169,"trust":0.2039,"phase":0},"axisGini":0.2093},"couplingGates":{"gateD":1,"gateT":1,"gateF":1,"floorDampen":0.2,"bypassD":0.190994,"bypassT":-0.09245,"bypassF":0.140738,"gateMinD":1,"gateMinT":1,"gateMinF":1,"gateEmaD":1,"gateEmaT":1,"gateEmaF":1,"gateBeatCount":7},"couplingHomeostasis":{"totalEnergyEma":7.157,"energyBudget":3.5,"peakEnergyEma":8.2018,"totalEnergyFloor":7.4557,"floorDampen":0.31,"redistributionScore":0,"nudgeableRedistributionScore":0,"globalGainMultiplier":0.5805,"giniCoefficient":0.3699,"energyDeltaEma":0.6333,"pairTurbulenceEma":0.0082,"beatCount":2,"invokeCount":7,"tickCount":91,"emptyMatrixBeats":5,"multiplierMin":0.5805,"multiplierMax":1,"multiplierStdDev":0.148,"floorContactBeats":0,"ceilingContactBeats":61,"avgRecoveryDuration":0},"axisEnergyEquilibrator":{"beatCount":7,"pairAdjustments":0,"axisAdjustments":0,"smoothedShares":{"density":0.03317728,"tension":0.02917856,"flicker":0.03334112,"entropy":0.02600992,"trust":0.03189312,"phase":0},"perAxisAdj":{},"perPairAdj":{},"lastBaselines":{},"regimeBeats":{},"regimePairAdj":{},"regimeAxisAdj":{},"regimeTightenBudget":{}},"transitionReadiness":{"gap":0.5588,"couplingStrength":0.7245,"coherentThreshold":0.1658,"velocity":0.064212,"velThreshold":0.008,"thresholdScale":0.65,"velocityBlocked":false,"exploringBlock":"dimension","rawRegimeCounts":{"coherent":2},"rawRegimeMaxStreak":{"coherent":2},"effectiveDim":1.92},"notes":[{"pitch":87,"velocity":113,"channel":0},{"pitch":52,"velocity":106,"channel":0},{"pitch":51,"velocity":104,"channel":0},{"pitch":22,"velocity":119,"channel":0},{"pitch":82,"velocity":103,"channel":0},{"pitch":42,"velocity":102,"channel":0},{"pitch":20,"velocity":106,"channel":0},{"pitch":20,"velocity":114,"channel":0},{"pitch":20,"velocity":121,"channel":0},{"pitch":8,"velocity":97,"channel":0},{"pitch":92,"velocity":109,"channel":0},{"pitch":20,"velocity":127,"channel":0},{"pitch":54,"velocity":96,"channel":0},{"pitch":44,"velocity":110,"channel":0},{"pitch":56,"velocity":127,"channel":0},{"pitch":54,"velocity":99,"channel":0},{"pitch":54,"velocity":103,"channel":0},{"pitch":54,"velocity":105,"channel":0},{"pitch":44,"velocity":112,"channel":0},{"pitch":54,"velocity":110,"channel":0},{"pitch":44,"velocity":115,"channel":0},{"pitch":92,"velocity":118,"channel":0},{"pitch":80,"velocity":117,"channel":0},{"pitch":8,"velocity":118,"channel":0},{"pitch":76,"velocity":121,"channel":0},{"pitch":51,"velocity":110,"channel":0},{"pitch":51,"velocity":89,"channel":0},{"pitch":51,"velocity":84,"channel":0},{"pitch":58,"velocity":81,"channel":0},{"pitch":54,"velocity":79,"channel":0},{"pitch":54,"velocity":58,"channel":0},{"pitch":10,"velocity":83,"channel":0},{"pitch":51,"velocity":84,"channel":0},{"pitch":80,"velocity":69,"channel":0},{"pitch":20,"velocity":88,"channel":0},{"pitch":22,"velocity":87,"channel":0},{"pitch":58,"velocity":94,"channel":0},{"pitch":58,"velocity":76,"channel":0},{"pitch":15,"velocity":90,"channel":0},{"pitch":51,"velocity":106,"channel":0},{"pitch":75,"velocity":98,"channel":0},{"pitch":82,"velocity":100,"channel":0},{"pitch":82,"velocity":112,"channel":0},{"pitch":15,"velocity":118,"channel":0},{"pitch":76,"velocity":122,"channel":0},{"pitch":34,"velocity":106,"channel":0},{"pitch":46,"velocity":104,"channel":0},{"pitch":44,"velocity":100,"channel":0},{"pitch":8,"velocity":117,"channel":0},{"pitch":88,"velocity":107,"channel":0},{"pitch":54,"velocity":122,"channel":0},{"pitch":16,"velocity":119,"channel":0},{"pitch":16,"velocity":109,"channel":0},{"pitch":78,"velocity":96,"channel":0},{"pitch":56,"velocity":99,"channel":0},{"pitch":92,"velocity":104,"channel":0},{"pitch":20,"velocity":96,"channel":0},{"pitch":56,"velocity":76,"channel":0},{"pitch":92,"velocity":81,"channel":0},{"pitch":78,"velocity":83,"channel":0},{"pitch":92,"velocity":85,"channel":0},{"pitch":20,"velocity":81,"channel":0},{"pitch":54,"velocity":79,"channel":0},{"pitch":20,"velocity":84,"channel":0},{"pitch":92,"velocity":85,"channel":0},{"pitch":20,"velocity":91,"channel":0},{"pitch":92,"velocity":84,"channel":0},{"pitch":56,"velocity":84,"channel":0},{"pitch":20,"velocity":77,"channel":0},{"pitch":8,"velocity":96,"channel":0},{"pitch":92,"velocity":109,"channel":0},{"pitch":20,"velocity":103,"channel":0},{"pitch":20,"velocity":112,"channel":0},{"pitch":56,"velocity":118,"channel":0},{"pitch":20,"velocity":124,"channel":0},{"pitch":68,"velocity":105,"channel":0},{"pitch":51,"velocity":107,"channel":0},{"pitch":63,"velocity":100,"channel":0},{"pitch":63,"velocity":99,"channel":0},{"pitch":22,"velocity":105,"channel":0},{"pitch":20,"velocity":79,"channel":0},{"pitch":68,"velocity":76,"channel":0},{"pitch":68,"velocity":81,"channel":0},{"pitch":56,"velocity":75,"channel":0},{"pitch":56,"velocity":80,"channel":0},{"pitch":56,"velocity":94,"channel":0},{"pitch":56,"velocity":89,"channel":0},{"pitch":51,"velocity":97,"channel":0},{"pitch":90,"velocity":106,"channel":0},{"pitch":90,"velocity":99,"channel":0},{"pitch":51,"velocity":97,"channel":0},{"pitch":22,"velocity":90,"channel":0},{"pitch":8,"velocity":127,"channel":0},{"pitch":22,"velocity":110,"channel":0},{"pitch":92,"velocity":99,"channel":0},{"pitch":70,"velocity":118,"channel":0},{"pitch":94,"velocity":105,"channel":0},{"pitch":92,"velocity":112,"channel":0},{"pitch":82,"velocity":109,"channel":0},{"pitch":70,"velocity":99,"channel":0},{"pitch":92,"velocity":90,"channel":0},{"pitch":94,"velocity":107,"channel":0},{"pitch":22,"velocity":90,"channel":0},{"pitch":22,"velocity":83,"channel":0},{"pitch":15,"velocity":85,"channel":0},{"pitch":22,"velocity":99,"channel":0},{"pitch":22,"velocity":103,"channel":0},{"pitch":22,"velocity":99,"channel":0},{"pitch":94,"velocity":112,"channel":0},{"pitch":51,"velocity":127,"channel":0},{"pitch":22,"velocity":105,"channel":0},{"pitch":94,"velocity":124,"channel":0},{"pitch":22,"velocity":112,"channel":0},{"pitch":34,"velocity":89,"channel":0},{"pitch":46,"velocity":99,"channel":0}],"stageTiming":{"beat-setup":24.6077,"intent":0.0136,"entropy":0.016,"phase":0.0304,"climax":0.0251,"envelope":0.0122,"silhouette":0.0247,"rest":0.0276,"complement":0.0017,"tension-cadence":0.0225,"negotiation":0.0267,"probability-adjust":0.0068,"emission":7.512,"post-beat":0.0476},"iterBudget":{"raw":280,"capped":150,"wasCapped":true}}
{"layer":"L2","beatKey":"0:0:1:10","timeMs":5087.719298245614,"snap":{"key":"A#","mode":"locrian","quality":"minor","scale":["A#","B","C#","D#","E","F#","G#"],"chords":[],"tension":0.2858458816418885,"harmonicRhythm":0.33338377287365806,"harmonicMutationCount":8,"excursion":0,"sectionPhase":"opening","phrasePosition":0.8,"phrasePhase":"resolution","phraseDynamism":1,"registerBias":1.0534230275096785,"densityMultiplier":1.0351141009169893,"voiceIndependence":0.5,"compositeIntensity":0.34955546008782645,"playProb":0.3427583082730545,"stutterProb":0.47505733023765967,"flicker":1.1885495733762952,"textureMode":"flurry","textureFatigue":0,"densityBias":0,"crossModBias":1,"emissionRatio":0.8882997864076252,"extraDensityCorrection":1.022340042718475,"extraCoherenceDensityBias":1,"activeProfile":"restrained","journeyMove":"origin","journeyDistance":0,"journeyKey":"D#","journeyMode":"locrian","binauralFreqOffset":9,"binauralFlip":false,"tick":442500,"updatedAt":1772749134759},"negotiation":{"playProb":0.2681865696279123,"stutterProb":0.2956625663570335,"allowCadence":false,"conflict":0.13854495350558382,"phaseConfidence":0.33771929824561436},"trust":{"stutterContagion":{"score":0.40633424069959034,"samples":90,"weight":1.304750680524693},"cadenceAlignment":{"score":0.23314825064790207,"samples":90,"weight":1.1748611879859265},"phaseLock":{"score":0.2920987547967579,"samples":90,"weight":1.2190740660975683},"convergence":{"score":0.23366968292302798,"samples":90,"weight":1.175252262192271},"feedbackOscillator":{"score":0.26813310034582144,"samples":90,"weight":1.201099825259366},"coherenceMonitor":{"score":0.6921803400863897,"samples":90,"weight":1.5191352550647923},"entropyRegulator":{"score":0.74925,"samples":90,"weight":1.5619375},"restSynchronizer":{"score":0.23314825064790207,"samples":90,"weight":1.1748611879859265}},"regime":"evolving","coupling":{"density-tension":-0.786,"density-flicker":0.98,"density-entropy":-0.768,"density-trust":-0.966,"density-phase":0,"tension-flicker":-0.88,"tension-entropy":0.6,"tension-trust":0.86,"tension-phase":0,"flicker-entropy":-0.739,"flicker-trust":-0.973,"flicker-phase":0,"entropy-trust":0.691,"entropy-phase":0},"couplingTargets":{"density-tension":{"baseline":0.15,"current":0.1477,"rollingAbsCorr":0.0297,"rawRollingAbsCorr":0.0297,"gain":0.3,"heatPenalty":0,"effectivenessEma":0.5012,"effMin":0.475,"effMax":0.5012,"effActiveBeats":2,"hpPromoted":false},"density-flicker":{"baseline":0.12,"current":0.1177,"rollingAbsCorr":0.0384,"rawRollingAbsCorr":0.0384,"gain":0.2416,"heatPenalty":0.036,"effectivenessEma":0.5012,"effMin":0.475,"effMax":0.5012,"effActiveBeats":2,"hpPromoted":false},"density-entropy":{"baseline":0.12,"current":0.1191,"rollingAbsCorr":0.0744,"rawRollingAbsCorr":0.0744,"gain":0.22,"heatPenalty":0,"effectivenessEma":0.5012,"effMin":0.475,"effMax":0.5012,"effActiveBeats":2,"hpPromoted":false},"density-trust":{"baseline":0.2,"current":0.1977,"rollingAbsCorr":0.0351,"rawRollingAbsCorr":0.0351,"gain":0.229,"heatPenalty":0.01,"effectivenessEma":0.5012,"effMin":0.475,"effMax":0.5012,"effActiveBeats":2,"hpPromoted":false},"density-phase":{"baseline":0.06,"current":0.06,"rollingAbsCorr":0,"rawRollingAbsCorr":0,"gain":0.16,"heatPenalty":0,"effectivenessEma":0.5,"effMin":1,"effMax":0,"effActiveBeats":0,"hpPromoted":false},"tension-flicker":{"baseline":0.15,"current":0.147,"rollingAbsCorr":0.0314,"rawRollingAbsCorr":0.0314,"gain":0.229,"heatPenalty":0.01,"effectivenessEma":0.5012,"effMin":0.475,"effMax":0.5012,"effActiveBeats":2,"hpPromoted":false},"tension-entropy":{"baseline":0.25,"current":0.247,"rollingAbsCorr":0.0508,"rawRollingAbsCorr":0.0508,"gain":0.22,"heatPenalty":0,"effectivenessEma":0.5012,"effMin":0.475,"effMax":0.5012,"effActiveBeats":2,"hpPromoted":false},"tension-trust":{"baseline":0.15,"current":0.147,"rollingAbsCorr":0.0342,"rawRollingAbsCorr":0.0342,"gain":0.229,"heatPenalty":0.01,"effectivenessEma":0.4512,"effMin":0.4512,"effMax":0.475,"effActiveBeats":2,"hpPromoted":false},"tension-phase":{"baseline":0.2,"current":0.197,"rollingAbsCorr":0,"rawRollingAbsCorr":0,"gain":0.16,"heatPenalty":0,"effectivenessEma":0.5,"effMin":1,"effMax":0,"effActiveBeats":0,"hpPromoted":false},"flicker-entropy":{"baseline":0.18,"current":0.177,"rollingAbsCorr":0.0733,"rawRollingAbsCorr":0.0733,"gain":0.22,"heatPenalty":0,"effectivenessEma":0.4512,"effMin":0.4512,"effMax":0.475,"effActiveBeats":2,"hpPromoted":false},"flicker-trust":{"baseline":0.12,"current":0.117,"rollingAbsCorr":0.0329,"rawRollingAbsCorr":0.0329,"gain":0.229,"heatPenalty":0.01,"effectivenessEma":0.5012,"effMin":0.475,"effMax":0.5012,"effActiveBeats":2,"hpPromoted":false},"flicker-phase":{"baseline":0.08,"current":0.08,"rollingAbsCorr":0,"rawRollingAbsCorr":0,"gain":0.16,"heatPenalty":0,"effectivenessEma":0.5,"effMin":1,"effMax":0,"effActiveBeats":0,"hpPromoted":false},"entropy-trust":{"baseline":0.25,"current":0.25,"rollingAbsCorr":0.0549,"rawRollingAbsCorr":0.0549,"gain":0.16,"heatPenalty":0,"effectivenessEma":0.5,"effMin":1,"effMax":0,"effActiveBeats":0,"hpPromoted":false},"entropy-phase":{"baseline":0.1,"current":0.1,"rollingAbsCorr":0,"rawRollingAbsCorr":0,"gain":0.16,"heatPenalty":0,"effectivenessEma":0.5,"effMin":1,"effMax":0,"effActiveBeats":0,"hpPromoted":false}},"axisCouplingTotals":{"density":0.9324,"tension":0.8085,"flicker":0.9236,"entropy":0.7182,"trust":0.8663,"phase":0},"axisEnergyShare":{"shares":{"density":0.2194,"tension":0.1903,"flicker":0.2174,"entropy":0.169,"trust":0.2039,"phase":0},"axisGini":0.2093},"couplingGates":{"gateD":1,"gateT":1,"gateF":1,"floorDampen":0.2,"bypassD":0.190994,"bypassT":-0.09245,"bypassF":0.140738,"gateMinD":1,"gateMinT":1,"gateMinF":1,"gateEmaD":1,"gateEmaT":1,"gateEmaF":1,"gateBeatCount":7},"couplingHomeostasis":{"totalEnergyEma":7.157,"energyBudget":3.5,"peakEnergyEma":8.2018,"totalEnergyFloor":7.4185,"floorDampen":0.32,"redistributionScore":0,"nudgeableRedistributionScore":0,"globalGainMultiplier":0.5759,"giniCoefficient":0.3699,"energyDeltaEma":0.6333,"pairTurbulenceEma":0.0082,"beatCount":2,"invokeCount":7,"tickCount":92,"emptyMatrixBeats":5,"multiplierMin":0.5759,"multiplierMax":1,"multiplierStdDev":0.1512,"floorContactBeats":0,"ceilingContactBeats":61,"avgRecoveryDuration":0},"axisEnergyEquilibrator":{"beatCount":7,"pairAdjustments":0,"axisAdjustments":0,"smoothedShares":{"density":0.03317728,"tension":0.02917856,"flicker":0.03334112,"entropy":0.02600992,"trust":0.03189312,"phase":0},"perAxisAdj":{},"perPairAdj":{},"lastBaselines":{},"regimeBeats":{},"regimePairAdj":{},"regimeAxisAdj":{},"regimeTightenBudget":{}},"transitionReadiness":{"gap":0.5588,"couplingStrength":0.7245,"coherentThreshold":0.1658,"velocity":0.064212,"velThreshold":0.008,"thresholdScale":0.65,"velocityBlocked":false,"exploringBlock":"dimension","rawRegimeCounts":{"coherent":2},"rawRegimeMaxStreak":{"coherent":2},"effectiveDim":1.92},"notes":[{"pitch":46,"velocity":111,"channel":0},{"pitch":63,"velocity":116,"channel":0},{"pitch":63,"velocity":124,"channel":0},{"pitch":46,"velocity":110,"channel":0},{"pitch":46,"velocity":123,"channel":0},{"pitch":82,"velocity":101,"channel":0},{"pitch":46,"velocity":110,"channel":0},{"pitch":8,"velocity":102,"channel":0},{"pitch":54,"velocity":119,"channel":0},{"pitch":27,"velocity":105,"channel":0},{"pitch":51,"velocity":117,"channel":0},{"pitch":52,"velocity":113,"channel":0},{"pitch":87,"velocity":115,"channel":0},{"pitch":92,"velocity":115,"channel":0},{"pitch":54,"velocity":87,"channel":0},{"pitch":54,"velocity":101,"channel":0},{"pitch":44,"velocity":117,"channel":0},{"pitch":94,"velocity":92,"channel":0},{"pitch":22,"velocity":97,"channel":0},{"pitch":46,"velocity":106,"channel":0},{"pitch":82,"velocity":92,"channel":0},{"pitch":8,"velocity":90,"channel":0},{"pitch":39,"velocity":102,"channel":0},{"pitch":39,"velocity":70,"channel":0},{"pitch":46,"velocity":88,"channel":0},{"pitch":87,"velocity":106,"channel":0},{"pitch":22,"velocity":77,"channel":0},{"pitch":22,"velocity":81,"channel":0},{"pitch":51,"velocity":89,"channel":0},{"pitch":87,"velocity":96,"channel":0},{"pitch":51,"velocity":75,"channel":0},{"pitch":15,"velocity":88,"channel":0},{"pitch":46,"velocity":88,"channel":0},{"pitch":46,"velocity":89,"channel":0},{"pitch":82,"velocity":99,"channel":0},{"pitch":94,"velocity":106,"channel":0},{"pitch":51,"velocity":91,"channel":0},{"pitch":87,"velocity":95,"channel":0},{"pitch":51,"velocity":67,"channel":0},{"pitch":15,"velocity":87,"channel":0},{"pitch":51,"velocity":98,"channel":0},{"pitch":63,"velocity":84,"channel":0},{"pitch":51,"velocity":99,"channel":0},{"pitch":51,"velocity":82,"channel":0},{"pitch":54,"velocity":87,"channel":0},{"pitch":52,"velocity":95,"channel":0},{"pitch":46,"velocity":104,"channel":0},{"pitch":92,"velocity":90,"channel":0},{"pitch":63,"velocity":88,"channel":0},{"pitch":15,"velocity":84,"channel":0},{"pitch":52,"velocity":74,"channel":0},{"pitch":63,"velocity":80,"channel":0},{"pitch":63,"velocity":77,"channel":0},{"pitch":87,"velocity":69,"channel":0},{"pitch":87,"velocity":83,"channel":0},{"pitch":58,"velocity":71,"channel":0},{"pitch":58,"velocity":64,"channel":0},{"pitch":58,"velocity":109,"channel":0},{"pitch":15,"velocity":106,"channel":0},{"pitch":51,"velocity":95,"channel":0},{"pitch":87,"velocity":95,"channel":0},{"pitch":22,"velocity":115,"channel":0},{"pitch":51,"velocity":120,"channel":0},{"pitch":94,"velocity":78,"channel":0},{"pitch":46,"velocity":87,"channel":0},{"pitch":75,"velocity":80,"channel":0},{"pitch":51,"velocity":95,"channel":0},{"pitch":8,"velocity":106,"channel":0},{"pitch":40,"velocity":92,"channel":0},{"pitch":58,"velocity":109,"channel":0},{"pitch":44,"velocity":109,"channel":0},{"pitch":42,"velocity":90,"channel":0},{"pitch":44,"velocity":95,"channel":0},{"pitch":44,"velocity":95,"channel":0},{"pitch":80,"velocity":95,"channel":0},{"pitch":78,"velocity":82,"channel":0},{"pitch":44,"velocity":88,"channel":0},{"pitch":56,"velocity":123,"channel":0},{"pitch":80,"velocity":98,"channel":0},{"pitch":32,"velocity":82,"channel":0},{"pitch":42,"velocity":94,"channel":0},{"pitch":32,"velocity":90,"channel":0},{"pitch":32,"velocity":113,"channel":0},{"pitch":56,"velocity":120,"channel":0},{"pitch":80,"velocity":118,"channel":0},{"pitch":51,"velocity":115,"channel":0},{"pitch":75,"velocity":118,"channel":0},{"pitch":94,"velocity":104,"channel":0},{"pitch":51,"velocity":104,"channel":0},{"pitch":51,"velocity":94,"channel":0},{"pitch":51,"velocity":77,"channel":0},{"pitch":80,"velocity":105,"channel":0},{"pitch":30,"velocity":118,"channel":0},{"pitch":44,"velocity":113,"channel":0},{"pitch":32,"velocity":117,"channel":0},{"pitch":75,"velocity":115,"channel":0},{"pitch":34,"velocity":118,"channel":0},{"pitch":46,"velocity":126,"channel":0},{"pitch":32,"velocity":113,"channel":0},{"pitch":46,"velocity":102,"channel":0},{"pitch":46,"velocity":95,"channel":0},{"pitch":42,"velocity":101,"channel":0},{"pitch":51,"velocity":87,"channel":0},{"pitch":75,"velocity":90,"channel":0},{"pitch":39,"velocity":89,"channel":0},{"pitch":46,"velocity":116,"channel":0},{"pitch":46,"velocity":77,"channel":0},{"pitch":58,"velocity":109,"channel":0},{"pitch":52,"velocity":80,"channel":0},{"pitch":51,"velocity":105,"channel":0},{"pitch":51,"velocity":112,"channel":0},{"pitch":87,"velocity":84,"channel":0},{"pitch":46,"velocity":123,"channel":0},{"pitch":20,"velocity":88,"channel":0},{"pitch":56,"velocity":115,"channel":0},{"pitch":80,"velocity":98,"channel":0},{"pitch":20,"velocity":97,"channel":0},{"pitch":22,"velocity":112,"channel":0},{"pitch":3,"velocity":100,"channel":0},{"pitch":4,"velocity":113,"channel":0}],"stageTiming":{"beat-setup":19.1296,"intent":0.0117,"entropy":0.0147,"phase":0.0285,"climax":0.024,"envelope":0.0116,"silhouette":0.0155,"rest":0.0313,"complement":0.002,"tension-cadence":0.0202,"negotiation":0.0254,"probability-adjust":0.0063,"emission":14.9688,"post-beat":0.0251},"iterBudget":{"raw":792,"capped":80,"wasCapped":true}}
{"layer":"L2","beatKey":"0:0:1:11","timeMs":5263.1578947368425,"snap":{"key":"A#","mode":"locrian","quality":"minor","scale":["A#","B","C#","D#","E","F#","G#"],"chords":[],"tension":0.2858458816418885,"harmonicRhythm":0.33338377287365806,"harmonicMutationCount":8,"excursion":0,"sectionPhase":"opening","phrasePosition":0.8,"phrasePhase":"resolution","phraseDynamism":1,"registerBias":1.0534230275096785,"densityMultiplier":1.0351141009169893,"voiceIndependence":0.5,"compositeIntensity":0.34955546008782645,"playProb":0.3427583082730545,"stutterProb":0.47505733023765967,"flicker":1.1885495733762952,"textureMode":"flurry","textureFatigue":0,"densityBias":0,"crossModBias":1,"emissionRatio":0.8882997864076252,"extraDensityCorrection":1.022340042718475,"extraCoherenceDensityBias":1,"activeProfile":"restrained","journeyMove":"origin","journeyDistance":0,"journeyKey":"D#","journeyMode":"locrian","binauralFreqOffset":9,"binauralFlip":false,"tick":442500,"updatedAt":1772749134759},"negotiation":{"playProb":0.26927878571356634,"stutterProb":0.297118405627111,"allowCadence":false,"conflict":0.12988949253876636,"phaseConfidence":0.3232456140350881},"trust":{"stutterContagion":{"score":0.3938467939609483,"samples":91,"weight":1.2953850954707113},"cadenceAlignment":{"score":0.23153316020461703,"samples":91,"weight":1.1736498701534628},"phaseLock":{"score":0.28891327333250183,"samples":91,"weight":1.2166849549993763},"convergence":{"score":0.23261182921524248,"samples":91,"weight":1.174458871911432},"feedbackOscillator":{"score":0.26505447052092806,"samples":91,"weight":1.198790852890696},"coherenceMonitor":{"score":0.6935417293905924,"samples":91,"weight":1.5201562970429443},"entropyRegulator":{"score":0.74925,"samples":91,"weight":1.5619375},"restSynchronizer":{"score":0.23153316020461703,"samples":91,"weight":1.1736498701534628}},"regime":"evolving","coupling":{"density-tension":-0.786,"density-flicker":0.98,"density-entropy":-0.768,"density-trust":-0.966,"density-phase":0,"tension-flicker":-0.88,"tension-entropy":0.6,"tension-trust":0.86,"tension-phase":0,"flicker-entropy":-0.739,"flicker-trust":-0.973,"flicker-phase":0,"entropy-trust":0.691,"entropy-phase":0},"couplingTargets":{"density-tension":{"baseline":0.15,"current":0.1477,"rollingAbsCorr":0.0297,"rawRollingAbsCorr":0.0297,"gain":0.3,"heatPenalty":0,"effectivenessEma":0.5012,"effMin":0.475,"effMax":0.5012,"effActiveBeats":2,"hpPromoted":false},"density-flicker":{"baseline":0.12,"current":0.1177,"rollingAbsCorr":0.0384,"rawRollingAbsCorr":0.0384,"gain":0.2416,"heatPenalty":0.036,"effectivenessEma":0.5012,"effMin":0.475,"effMax":0.5012,"effActiveBeats":2,"hpPromoted":false},"density-entropy":{"baseline":0.12,"current":0.1191,"rollingAbsCorr":0.0744,"rawRollingAbsCorr":0.0744,"gain":0.22,"heatPenalty":0,"effectivenessEma":0.5012,"effMin":0.475,"effMax":0.5012,"effActiveBeats":2,"hpPromoted":false},"density-trust":{"baseline":0.2,"current":0.1977,"rollingAbsCorr":0.0351,"rawRollingAbsCorr":0.0351,"gain":0.229,"heatPenalty":0.01,"effectivenessEma":0.5012,"effMin":0.475,"effMax":0.5012,"effActiveBeats":2,"hpPromoted":false},"density-phase":{"baseline":0.06,"current":0.06,"rollingAbsCorr":0,"rawRollingAbsCorr":0,"gain":0.16,"heatPenalty":0,"effectivenessEma":0.5,"effMin":1,"effMax":0,"effActiveBeats":0,"hpPromoted":false},"tension-flicker":{"baseline":0.15,"current":0.147,"rollingAbsCorr":0.0314,"rawRollingAbsCorr":0.0314,"gain":0.229,"heatPenalty":0.01,"effectivenessEma":0.5012,"effMin":0.475,"effMax":0.5012,"effActiveBeats":2,"hpPromoted":false},"tension-entropy":{"baseline":0.25,"current":0.247,"rollingAbsCorr":0.0508,"rawRollingAbsCorr":0.0508,"gain":0.22,"heatPenalty":0,"effectivenessEma":0.5012,"effMin":0.475,"effMax":0.5012,"effActiveBeats":2,"hpPromoted":false},"tension-trust":{"baseline":0.15,"current":0.147,"rollingAbsCorr":0.0342,"rawRollingAbsCorr":0.0342,"gain":0.229,"heatPenalty":0.01,"effectivenessEma":0.4512,"effMin":0.4512,"effMax":0.475,"effActiveBeats":2,"hpPromoted":false},"tension-phase":{"baseline":0.2,"current":0.197,"rollingAbsCorr":0,"rawRollingAbsCorr":0,"gain":0.16,"heatPenalty":0,"effectivenessEma":0.5,"effMin":1,"effMax":0,"effActiveBeats":0,"hpPromoted":false},"flicker-entropy":{"baseline":0.18,"current":0.177,"rollingAbsCorr":0.0733,"rawRollingAbsCorr":0.0733,"gain":0.22,"heatPenalty":0,"effectivenessEma":0.4512,"effMin":0.4512,"effMax":0.475,"effActiveBeats":2,"hpPromoted":false},"flicker-trust":{"baseline":0.12,"current":0.117,"rollingAbsCorr":0.0329,"rawRollingAbsCorr":0.0329,"gain":0.229,"heatPenalty":0.01,"effectivenessEma":0.5012,"effMin":0.475,"effMax":0.5012,"effActiveBeats":2,"hpPromoted":false},"flicker-phase":{"baseline":0.08,"current":0.08,"rollingAbsCorr":0,"rawRollingAbsCorr":0,"gain":0.16,"heatPenalty":0,"effectivenessEma":0.5,"effMin":1,"effMax":0,"effActiveBeats":0,"hpPromoted":false},"entropy-trust":{"baseline":0.25,"current":0.25,"rollingAbsCorr":0.0549,"rawRollingAbsCorr":0.0549,"gain":0.16,"heatPenalty":0,"effectivenessEma":0.5,"effMin":1,"effMax":0,"effActiveBeats":0,"hpPromoted":false},"entropy-phase":{"baseline":0.1,"current":0.1,"rollingAbsCorr":0,"rawRollingAbsCorr":0,"gain":0.16,"heatPenalty":0,"effectivenessEma":0.5,"effMin":1,"effMax":0,"effActiveBeats":0,"hpPromoted":false}},"axisCouplingTotals":{"density":0.9324,"tension":0.8085,"flicker":0.9236,"entropy":0.7182,"trust":0.8663,"phase":0},"axisEnergyShare":{"shares":{"density":0.2194,"tension":0.1903,"flicker":0.2174,"entropy":0.169,"trust":0.2039,"phase":0},"axisGini":0.2093},"couplingGates":{"gateD":1,"gateT":1,"gateF":1,"floorDampen":0.2,"bypassD":0.190994,"bypassT":-0.09245,"bypassF":0.140738,"gateMinD":1,"gateMinT":1,"gateMinF":1,"gateEmaD":1,"gateEmaT":1,"gateEmaF":1,"gateBeatCount":7},"couplingHomeostasis":{"totalEnergyEma":7.157,"energyBudget":3.5,"peakEnergyEma":8.2018,"totalEnergyFloor":7.3814,"floorDampen":0.33,"redistributionScore":0,"nudgeableRedistributionScore":0,"globalGainMultiplier":0.5715,"giniCoefficient":0.3699,"energyDeltaEma":0.6333,"pairTurbulenceEma":0.0082,"beatCount":2,"invokeCount":7,"tickCount":93,"emptyMatrixBeats":5,"multiplierMin":0.5715,"multiplierMax":1,"multiplierStdDev":0.1542,"floorContactBeats":0,"ceilingContactBeats":61,"avgRecoveryDuration":0},"axisEnergyEquilibrator":{"beatCount":7,"pairAdjustments":0,"axisAdjustments":0,"smoothedShares":{"density":0.03317728,"tension":0.02917856,"flicker":0.03334112,"entropy":0.02600992,"trust":0.03189312,"phase":0},"perAxisAdj":{},"perPairAdj":{},"lastBaselines":{},"regimeBeats":{},"regimePairAdj":{},"regimeAxisAdj":{},"regimeTightenBudget":{}},"transitionReadiness":{"gap":0.5588,"couplingStrength":0.7245,"coherentThreshold":0.1658,"velocity":0.064212,"velThreshold":0.008,"thresholdScale":0.65,"velocityBlocked":false,"exploringBlock":"dimension","rawRegimeCounts":{"coherent":2},"rawRegimeMaxStreak":{"coherent":2},"effectiveDim":1.92},"notes":[{"pitch":4,"velocity":93,"channel":0},{"pitch":76,"velocity":116,"channel":0},{"pitch":92,"velocity":85,"channel":0},{"pitch":8,"velocity":91,"channel":0},{"pitch":76,"velocity":94,"channel":0},{"pitch":39,"velocity":100,"channel":0},{"pitch":75,"velocity":87,"channel":0},{"pitch":34,"velocity":94,"channel":0},{"pitch":39,"velocity":80,"channel":0},{"pitch":51,"velocity":99,"channel":0},{"pitch":94,"velocity":106,"channel":0},{"pitch":44,"velocity":75,"channel":0},{"pitch":54,"velocity":107,"channel":0},{"pitch":80,"velocity":112,"channel":0},{"pitch":78,"velocity":116,"channel":0},{"pitch":64,"velocity":115,"channel":0},{"pitch":75,"velocity":120,"channel":0},{"pitch":82,"velocity":85,"channel":0},{"pitch":8,"velocity":125,"channel":0},{"pitch":82,"velocity":100,"channel":0},{"pitch":22,"velocity":87,"channel":0},{"pitch":22,"velocity":83,"channel":0},{"pitch":10,"velocity":108,"channel":0},{"pitch":56,"velocity":113,"channel":0},{"pitch":80,"velocity":83,"channel":0},{"pitch":20,"velocity":113,"channel":0},{"pitch":8,"velocity":96,"channel":0},{"pitch":51,"velocity":95,"channel":0},{"pitch":82,"velocity":94,"channel":0},{"pitch":8,"velocity":116,"channel":0},{"pitch":80,"velocity":87,"channel":0},{"pitch":104,"velocity":101,"channel":0},{"pitch":20,"velocity":107,"channel":0},{"pitch":78,"velocity":103,"channel":0},{"pitch":51,"velocity":109,"channel":0},{"pitch":22,"velocity":97,"channel":0},{"pitch":58,"velocity":107,"channel":0},{"pitch":3,"velocity":80,"channel":0},{"pitch":4,"velocity":125,"channel":0},{"pitch":4,"velocity":72,"channel":0},{"pitch":90,"velocity":94,"channel":0},{"pitch":3,"velocity":113,"channel":0},{"pitch":70,"velocity":72,"channel":0},{"pitch":75,"velocity":85,"channel":0},{"pitch":75,"velocity":88,"channel":0},{"pitch":22,"velocity":90,"channel":0},{"pitch":20,"velocity":96,"channel":0},{"pitch":92,"velocity":106,"channel":0},{"pitch":22,"velocity":115,"channel":0},{"pitch":46,"velocity":96,"channel":0},{"pitch":82,"velocity":118,"channel":0},{"pitch":94,"velocity":99,"channel":0},{"pitch":10,"velocity":96,"channel":0},{"pitch":3,"velocity":83,"channel":0},{"pitch":10,"velocity":101,"channel":0},{"pitch":58,"velocity":97,"channel":0},{"pitch":94,"velocity":112,"channel":0},{"pitch":10,"velocity":100,"channel":0}],"stageTiming":{"beat-setup":23.2546,"intent":0.0115,"entropy":0.0162,"phase":0.0282,"climax":0.0251,"envelope":0.012,"silhouette":0.0176,"rest":0.0308,"complement":0.0013,"tension-cadence":0.0221,"negotiation":0.0277,"probability-adjust":0.0076,"emission":1.7757,"post-beat":0.0202},"iterBudget":{"raw":192,"capped":80,"wasCapped":true}}
{"layer":"L2","beatKey":"0:0:1:12","timeMs":5438.596491228071,"snap":{"key":"A#","mode":"locrian","quality":"minor","scale":["A#","B","C#","D#","E","F#","G#"],"chords":[],"tension":0.2858458816418885,"harmonicRhythm":0.33338377287365806,"harmonicMutationCount":8,"excursion":0,"sectionPhase":"opening","phrasePosition":0.8,"phrasePhase":"resolution","phraseDynamism":1,"registerBias":1.0534230275096785,"densityMultiplier":1.0351141009169893,"voiceIndependence":0.5,"compositeIntensity":0.34955546008782645,"playProb":0.3427583082730545,"stutterProb":0.47505733023765967,"flicker":1.1885495733762952,"textureMode":"flurry","textureFatigue":0,"densityBias":0,"crossModBias":1,"emissionRatio":0.8882997864076252,"extraDensityCorrection":1.022340042718475,"extraCoherenceDensityBias":1,"activeProfile":"restrained","journeyMove":"origin","journeyDistance":0,"journeyKey":"D#","journeyMode":"locrian","binauralFreqOffset":9,"binauralFlip":false,"tick":442500,"updatedAt":1772749134759},"negotiation":{"playProb":0.2703729042559754,"stutterProb":0.2985853134807942,"allowCadence":false,"conflict":0.12173522531724856,"phaseConfidence":0.31842105263157994},"trust":{"stutterContagion":{"score":0.38157447891907675,"samples":92,"weight":1.2861808591893076},"cadenceAlignment":{"score":0.23608257283396097,"samples":92,"weight":1.1770619296254707},"phaseLock":{"score":0.3208455161585156,"samples":92,"weight":1.2406341371188867},"convergence":{"score":0.2690812956474245,"samples":92,"weight":1.2018109717355685},"feedbackOscillator":{"score":0.26228647444536646,"samples":92,"weight":1.1967148558340248},"coherenceMonitor":{"score":0.6928009188968667,"samples":92,"weight":1.5196006891726501},"entropyRegulator":{"score":0.74925,"samples":92,"weight":1.5619375},"restSynchronizer":{"score":0.23608257283396097,"samples":92,"weight":1.1770619296254707}},"regime":"evolving","coupling":{"density-tension":-0.786,"density-flicker":0.98,"density-entropy":-0.768,"density-trust":-0.966,"density-phase":0,"tension-flicker":-0.88,"tension-entropy":0.6,"tension-trust":0.86,"tension-phase":0,"flicker-entropy":-0.739,"flicker-trust":-0.973,"flicker-phase":0,"entropy-trust":0.691,"entropy-phase":0},"couplingTargets":{"density-tension":{"baseline":0.15,"current":0.1477,"rollingAbsCorr":0.0297,"rawRollingAbsCorr":0.0297,"gain":0.3,"heatPenalty":0,"effectivenessEma":0.5012,"effMin":0.475,"effMax":0.5012,"effActiveBeats":2,"hpPromoted":false},"density-flicker":{"baseline":0.12,"current":0.1177,"rollingAbsCorr":0.0384,"rawRollingAbsCorr":0.0384,"gain":0.2416,"heatPenalty":0.036,"effectivenessEma":0.5012,"effMin":0.475,"effMax":0.5012,"effActiveBeats":2,"hpPromoted":false},"density-entropy":{"baseline":0.12,"current":0.1191,"rollingAbsCorr":0.0744,"rawRollingAbsCorr":0.0744,"gain":0.22,"heatPenalty":0,"effectivenessEma":0.5012,"effMin":0.475,"effMax":0.5012,"effActiveBeats":2,"hpPromoted":false},"density-trust":{"baseline":0.2,"current":0.1977,"rollingAbsCorr":0.0351,"rawRollingAbsCorr":0.0351,"gain":0.229,"heatPenalty":0.01,"effectivenessEma":0.5012,"effMin":0.475,"effMax":0.5012,"effActiveBeats":2,"hpPromoted":false},"density-phase":{"baseline":0.06,"current":0.06,"rollingAbsCorr":0,"rawRollingAbsCorr":0,"gain":0.16,"heatPenalty":0,"effectivenessEma":0.5,"effMin":1,"effMax":0,"effActiveBeats":0,"hpPromoted":false},"tension-flicker":{"baseline":0.15,"current":0.147,"rollingAbsCorr":0.0314,"rawRollingAbsCorr":0.0314,"gain":0.229,"heatPenalty":0.01,"effectivenessEma":0.5012,"effMin":0.475,"effMax":0.5012,"effActiveBeats":2,"hpPromoted":false},"tension-entropy":{"baseline":0.25,"current":0.247,"rollingAbsCorr":0.0508,"rawRollingAbsCorr":0.0508,"gain":0.22,"heatPenalty":0,"effectivenessEma":0.5012,"effMin":0.475,"effMax":0.5012,"effActiveBeats":2,"hpPromoted":false},"tension-trust":{"baseline":0.15,"current":0.147,"rollingAbsCorr":0.0342,"rawRollingAbsCorr":0.0342,"gain":0.229,"heatPenalty":0.01,"effectivenessEma":0.4512,"effMin":0.4512,"effMax":0.475,"effActiveBeats":2,"hpPromoted":false},"tension-phase":{"baseline":0.2,"current":0.197,"rollingAbsCorr":0,"rawRollingAbsCorr":0,"gain":0.16,"heatPenalty":0,"effectivenessEma":0.5,"effMin":1,"effMax":0,"effActiveBeats":0,"hpPromoted":false},"flicker-entropy":{"baseline":0.18,"current":0.177,"rollingAbsCorr":0.0733,"rawRollingAbsCorr":0.0733,"gain":0.22,"heatPenalty":0,"effectivenessEma":0.4512,"effMin":0.4512,"effMax":0.475,"effActiveBeats":2,"hpPromoted":false},"flicker-trust":{"baseline":0.12,"current":0.117,"rollingAbsCorr":0.0329,"rawRollingAbsCorr":0.0329,"gain":0.229,"heatPenalty":0.01,"effectivenessEma":0.5012,"effMin":0.475,"effMax":0.5012,"effActiveBeats":2,"hpPromoted":false},"flicker-phase":{"baseline":0.08,"current":0.08,"rollingAbsCorr":0,"rawRollingAbsCorr":0,"gain":0.16,"heatPenalty":0,"effectivenessEma":0.5,"effMin":1,"effMax":0,"effActiveBeats":0,"hpPromoted":false},"entropy-trust":{"baseline":0.25,"current":0.25,"rollingAbsCorr":0.0549,"rawRollingAbsCorr":0.0549,"gain":0.16,"heatPenalty":0,"effectivenessEma":0.5,"effMin":1,"effMax":0,"effActiveBeats":0,"hpPromoted":false},"entropy-phase":{"baseline":0.1,"current":0.1,"rollingAbsCorr":0,"rawRollingAbsCorr":0,"gain":0.16,"heatPenalty":0,"effectivenessEma":0.5,"effMin":1,"effMax":0,"effActiveBeats":0,"hpPromoted":false}},"axisCouplingTotals":{"density":0.9324,"tension":0.8085,"flicker":0.9236,"entropy":0.7182,"trust":0.8663,"phase":0},"axisEnergyShare":{"shares":{"density":0.2194,"tension":0.1903,"flicker":0.2174,"entropy":0.169,"trust":0.2039,"phase":0},"axisGini":0.2093},"couplingGates":{"gateD":1,"gateT":1,"gateF":1,"floorDampen":0.2,"bypassD":0.190994,"bypassT":-0.09245,"bypassF":0.140738,"gateMinD":1,"gateMinT":1,"gateMinF":1,"gateEmaD":1,"gateEmaT":1,"gateEmaF":1,"gateBeatCount":7},"couplingHomeostasis":{"totalEnergyEma":7.157,"energyBudget":3.5,"peakEnergyEma":8.2018,"totalEnergyFloor":7.3445,"floorDampen":0.34,"redistributionScore":0,"nudgeableRedistributionScore":0,"globalGainMultiplier":0.5674,"giniCoefficient":0.3699,"energyDeltaEma":0.6333,"pairTurbulenceEma":0.0082,"beatCount":2,"invokeCount":7,"tickCount":94,"emptyMatrixBeats":5,"multiplierMin":0.5674,"multiplierMax":1,"multiplierStdDev":0.1571,"floorContactBeats":0,"ceilingContactBeats":61,"avgRecoveryDuration":0},"axisEnergyEquilibrator":{"beatCount":7,"pairAdjustments":0,"axisAdjustments":0,"smoothedShares":{"density":0.03317728,"tension":0.02917856,"flicker":0.03334112,"entropy":0.02600992,"trust":0.03189312,"phase":0},"perAxisAdj":{},"perPairAdj":{},"lastBaselines":{},"regimeBeats":{},"regimePairAdj":{},"regimeAxisAdj":{},"regimeTightenBudget":{}},"transitionReadiness":{"gap":0.5588,"couplingStrength":0.7245,"coherentThreshold":0.1658,"velocity":0.064212,"velThreshold":0.008,"thresholdScale":0.65,"velocityBlocked":false,"exploringBlock":"dimension","rawRegimeCounts":{"coherent":2},"rawRegimeMaxStreak":{"coherent":2},"effectiveDim":1.92},"notes":[{"pitch":56,"velocity":110,"channel":0},{"pitch":92,"velocity":99,"channel":0},{"pitch":56,"velocity":118,"channel":0},{"pitch":8,"velocity":124,"channel":0},{"pitch":75,"velocity":86,"channel":0},{"pitch":75,"velocity":93,"channel":0},{"pitch":94,"velocity":99,"channel":0},{"pitch":3,"velocity":89,"channel":0},{"pitch":10,"velocity":103,"channel":0},{"pitch":94,"velocity":110,"channel":0},{"pitch":51,"velocity":105,"channel":0},{"pitch":82,"velocity":94,"channel":0},{"pitch":22,"velocity":110,"channel":0},{"pitch":94,"velocity":94,"channel":0},{"pitch":22,"velocity":115,"channel":0},{"pitch":3,"velocity":112,"channel":0},{"pitch":46,"velocity":100,"channel":0},{"pitch":56,"velocity":99,"channel":0},{"pitch":8,"velocity":104,"channel":0},{"pitch":58,"velocity":104,"channel":0},{"pitch":58,"velocity":103,"channel":0},{"pitch":94,"velocity":99,"channel":0},{"pitch":10,"velocity":97,"channel":0},{"pitch":22,"velocity":104,"channel":0},{"pitch":58,"velocity":89,"channel":0},{"pitch":82,"velocity":101,"channel":0},{"pitch":94,"velocity":82,"channel":0},{"pitch":8,"velocity":127,"channel":0},{"pitch":51,"velocity":119,"channel":0},{"pitch":52,"velocity":87,"channel":0},{"pitch":4,"velocity":99,"channel":0},{"pitch":76,"velocity":124,"channel":0},{"pitch":15,"velocity":82,"channel":0},{"pitch":3,"velocity":101,"channel":0},{"pitch":3,"velocity":81,"channel":0},{"pitch":51,"velocity":109,"channel":0},{"pitch":3,"velocity":115,"channel":0},{"pitch":4,"velocity":110,"channel":0},{"pitch":3,"velocity":98,"channel":0},{"pitch":3,"velocity":100,"channel":0},{"pitch":3,"velocity":100,"channel":0},{"pitch":4,"velocity":109,"channel":0},{"pitch":3,"velocity":111,"channel":0},{"pitch":3,"velocity":98,"channel":0},{"pitch":3,"velocity":105,"channel":0},{"pitch":75,"velocity":97,"channel":0},{"pitch":15,"velocity":78,"channel":0},{"pitch":32,"velocity":118,"channel":0},{"pitch":3,"velocity":123,"channel":0},{"pitch":4,"velocity":118,"channel":0},{"pitch":10,"velocity":110,"channel":0},{"pitch":15,"velocity":127,"channel":0},{"pitch":10,"velocity":104,"channel":0},{"pitch":76,"velocity":111,"channel":0},{"pitch":22,"velocity":121,"channel":0},{"pitch":10,"velocity":118,"channel":0},{"pitch":94,"velocity":112,"channel":0},{"pitch":82,"velocity":105,"channel":0},{"pitch":22,"velocity":111,"channel":0},{"pitch":22,"velocity":95,"channel":0},{"pitch":82,"velocity":111,"channel":0},{"pitch":22,"velocity":127,"channel":0},{"pitch":104,"velocity":104,"channel":0},{"pitch":20,"velocity":121,"channel":0}],"stageTiming":{"beat-setup":29.5764,"intent":0.0134,"entropy":0.0168,"phase":0.0314,"climax":0.0471,"envelope":0.0142,"silhouette":0.0239,"rest":0.0343,"complement":0.0016,"tension-cadence":0.0234,"negotiation":0.0302,"probability-adjust":0.0091,"emission":11.5364,"post-beat":0.0519},"iterBudget":{"raw":378,"capped":80,"wasCapped":true}}
{"layer":"L2","beatKey":"0:0:1:13","timeMs":5614.035087719298,"snap":{"key":"A#","mode":"locrian","quality":"minor","scale":["A#","B","C#","D#","E","F#","G#"],"chords":[],"tension":0.2858458816418885,"harmonicRhythm":0.33338377287365806,"harmonicMutationCount":8,"excursion":0,"sectionPhase":"opening","phrasePosition":0.8,"phrasePhase":"resolution","phraseDynamism":1,"registerBias":1.0534230275096785,"densityMultiplier":1.0351141009169893,"voiceIndependence":0.5,"compositeIntensity":0.34955546008782645,"playProb":0.3427583082730545,"stutterProb":0.47505733023765967,"flicker":1.1885495733762952,"textureMode":"flurry","textureFatigue":0,"densityBias":0,"crossModBias":1,"emissionRatio":0.8882997864076252,"extraDensityCorrection":1.022340042718475,"extraCoherenceDensityBias":1,"activeProfile":"restrained","journeyMove":"origin","journeyDistance":0,"journeyKey":"D#","journeyMode":"locrian","binauralFreqOffset":9,"binauralFlip":false,"tick":442500,"updatedAt":1772749134759},"negotiation":{"playProb":0.27203890731351954,"stutterProb":0.3000516619607747,"allowCadence":false,"conflict":0.10911892956383684,"phaseConfidence":0.3495614035087722},"trust":{"stutterContagion":{"score":0.3695005226803012,"samples":93,"weight":1.277125392010226},"cadenceAlignment":{"score":0.2366572795413419,"samples":93,"weight":1.1774929596560064},"phaseLock":{"score":0.3506446180518056,"samples":93,"weight":1.2629834635388542},"convergence":{"score":0.25691599291659933,"samples":93,"weight":1.1926869946874494},"feedbackOscillator":{"score":0.25979776917382896,"samples":93,"weight":1.1948483268803718},"coherenceMonitor":{"score":0.695763689279665,"samples":93,"weight":1.5218227669597488},"entropyRegulator":{"score":0.74925,"samples":93,"weight":1.5619375},"restSynchronizer":{"score":0.2366572795413419,"samples":93,"weight":1.1774929596560064}},"regime":"evolving","coupling":{"density-tension":-0.786,"density-flicker":0.98,"density-entropy":-0.768,"density-trust":-0.966,"density-phase":0,"tension-flicker":-0.88,"tension-entropy":0.6,"tension-trust":0.86,"tension-phase":0,"flicker-entropy":-0.739,"flicker-trust":-0.973,"flicker-phase":0,"entropy-trust":0.691,"entropy-phase":0},"couplingTargets":{"density-tension":{"baseline":0.15,"current":0.1477,"rollingAbsCorr":0.0297,"rawRollingAbsCorr":0.0297,"gain":0.3,"heatPenalty":0,"effectivenessEma":0.5012,"effMin":0.475,"effMax":0.5012,"effActiveBeats":2,"hpPromoted":false},"density-flicker":{"baseline":0.12,"current":0.1177,"rollingAbsCorr":0.0384,"rawRollingAbsCorr":0.0384,"gain":0.2416,"heatPenalty":0.036,"effectivenessEma":0.5012,"effMin":0.475,"effMax":0.5012,"effActiveBeats":2,"hpPromoted":false},"density-entropy":{"baseline":0.12,"current":0.1191,"rollingAbsCorr":0.0744,"rawRollingAbsCorr":0.0744,"gain":0.22,"heatPenalty":0,"effectivenessEma":0.5012,"effMin":0.475,"effMax":0.5012,"effActiveBeats":2,"hpPromoted":false},"density-trust":{"baseline":0.2,"current":0.1977,"rollingAbsCorr":0.0351,"rawRollingAbsCorr":0.0351,"gain":0.229,"heatPenalty":0.01,"effectivenessEma":0.5012,"effMin":0.475,"effMax":0.5012,"effActiveBeats":2,"hpPromoted":false},"density-phase":{"baseline":0.06,"current":0.06,"rollingAbsCorr":0,"rawRollingAbsCorr":0,"gain":0.16,"heatPenalty":0,"effectivenessEma":0.5,"effMin":1,"effMax":0,"effActiveBeats":0,"hpPromoted":false},"tension-flicker":{"baseline":0.15,"current":0.147,"rollingAbsCorr":0.0314,"rawRollingAbsCorr":0.0314,"gain":0.229,"heatPenalty":0.01,"effectivenessEma":0.5012,"effMin":0.475,"effMax":0.5012,"effActiveBeats":2,"hpPromoted":false},"tension-entropy":{"baseline":0.25,"current":0.247,"rollingAbsCorr":0.0508,"rawRollingAbsCorr":0.0508,"gain":0.22,"heatPenalty":0,"effectivenessEma":0.5012,"effMin":0.475,"effMax":0.5012,"effActiveBeats":2,"hpPromoted":false},"tension-trust":{"baseline":0.15,"current":0.147,"rollingAbsCorr":0.0342,"rawRollingAbsCorr":0.0342,"gain":0.229,"heatPenalty":0.01,"effectivenessEma":0.4512,"effMin":0.4512,"effMax":0.475,"effActiveBeats":2,"hpPromoted":false},"tension-phase":{"baseline":0.2,"current":0.197,"rollingAbsCorr":0,"rawRollingAbsCorr":0,"gain":0.16,"heatPenalty":0,"effectivenessEma":0.5,"effMin":1,"effMax":0,"effActiveBeats":0,"hpPromoted":false},"flicker-entropy":{"baseline":0.18,"current":0.177,"rollingAbsCorr":0.0733,"rawRollingAbsCorr":0.0733,"gain":0.22,"heatPenalty":0,"effectivenessEma":0.4512,"effMin":0.4512,"effMax":0.475,"effActiveBeats":2,"hpPromoted":false},"flicker-trust":{"baseline":0.12,"current":0.117,"rollingAbsCorr":0.0329,"rawRollingAbsCorr":0.0329,"gain":0.229,"heatPenalty":0.01,"effectivenessEma":0.5012,"effMin":0.475,"effMax":0.5012,"effActiveBeats":2,"hpPromoted":false},"flicker-phase":{"baseline":0.08,"current":0.08,"rollingAbsCorr":0,"rawRollingAbsCorr":0,"gain":0.16,"heatPenalty":0,"effectivenessEma":0.5,"effMin":1,"effMax":0,"effActiveBeats":0,"hpPromoted":false},"entropy-trust":{"baseline":0.25,"current":0.25,"rollingAbsCorr":0.0549,"rawRollingAbsCorr":0.0549,"gain":0.16,"heatPenalty":0,"effectivenessEma":0.5,"effMin":1,"effMax":0,"effActiveBeats":0,"hpPromoted":false},"entropy-phase":{"baseline":0.1,"current":0.1,"rollingAbsCorr":0,"rawRollingAbsCorr":0,"gain":0.16,"heatPenalty":0,"effectivenessEma":0.5,"effMin":1,"effMax":0,"effActiveBeats":0,"hpPromoted":false}},"axisCouplingTotals":{"density":0.9324,"tension":0.8085,"flicker":0.9236,"entropy":0.7182,"trust":0.8663,"phase":0},"axisEnergyShare":{"shares":{"density":0.2194,"tension":0.1903,"flicker":0.2174,"entropy":0.169,"trust":0.2039,"phase":0},"axisGini":0.2093},"couplingGates":{"gateD":1,"gateT":1,"gateF":1,"floorDampen":0.2,"bypassD":0.190994,"bypassT":-0.09245,"bypassF":0.140738,"gateMinD":1,"gateMinT":1,"gateMinF":1,"gateEmaD":1,"gateEmaT":1,"gateEmaF":1,"gateBeatCount":7},"couplingHomeostasis":{"totalEnergyEma":7.157,"energyBudget":3.5,"peakEnergyEma":8.2018,"totalEnergyFloor":7.3077,"floorDampen":0.35,"redistributionScore":0,"nudgeableRedistributionScore":0,"globalGainMultiplier":0.5635,"giniCoefficient":0.3699,"energyDeltaEma":0.6333,"pairTurbulenceEma":0.0082,"beatCount":2,"invokeCount":7,"tickCount":95,"emptyMatrixBeats":5,"multiplierMin":0.5635,"multiplierMax":1,"multiplierStdDev":0.16,"floorContactBeats":0,"ceilingContactBeats":61,"avgRecoveryDuration":0},"axisEnergyEquilibrator":{"beatCount":7,"pairAdjustments":0,"axisAdjustments":0,"smoothedShares":{"density":0.03317728,"tension":0.02917856,"flicker":0.03334112,"entropy":0.02600992,"trust":0.03189312,"phase":0},"perAxisAdj":{},"perPairAdj":{},"lastBaselines":{},"regimeBeats":{},"regimePairAdj":{},"regimeAxisAdj":{},"regimeTightenBudget":{}},"transitionReadiness":{"gap":0.5588,"couplingStrength":0.7245,"coherentThreshold":0.1658,"velocity":0.064212,"velThreshold":0.008,"thresholdScale":0.65,"velocityBlocked":false,"exploringBlock":"dimension","rawRegimeCounts":{"coherent":2},"rawRegimeMaxStreak":{"coherent":2},"effectiveDim":1.92},"notes":[{"pitch":76,"velocity":100,"channel":0},{"pitch":4,"velocity":101,"channel":0},{"pitch":16,"velocity":105,"channel":0},{"pitch":18,"velocity":119,"channel":0},{"pitch":51,"velocity":90,"channel":0},{"pitch":58,"velocity":89,"channel":0},{"pitch":22,"velocity":84,"channel":0},{"pitch":3,"velocity":94,"channel":0},{"pitch":39,"velocity":82,"channel":0},{"pitch":75,"velocity":97,"channel":0},{"pitch":87,"velocity":103,"channel":0},{"pitch":51,"velocity":111,"channel":0},{"pitch":63,"velocity":98,"channel":0},{"pitch":87,"velocity":82,"channel":0},{"pitch":82,"velocity":89,"channel":0},{"pitch":6,"velocity":88,"channel":0},{"pitch":104,"velocity":93,"channel":0},{"pitch":80,"velocity":86,"channel":0},{"pitch":15,"velocity":112,"channel":0},{"pitch":8,"velocity":93,"channel":0},{"pitch":51,"velocity":105,"channel":0},{"pitch":27,"velocity":100,"channel":0},{"pitch":75,"velocity":103,"channel":0},{"pitch":27,"velocity":81,"channel":0},{"pitch":3,"velocity":127,"channel":0},{"pitch":58,"velocity":95,"channel":0},{"pitch":10,"velocity":82,"channel":0},{"pitch":94,"velocity":103,"channel":0},{"pitch":58,"velocity":108,"channel":0},{"pitch":3,"velocity":64,"channel":0},{"pitch":22,"velocity":121,"channel":0},{"pitch":10,"velocity":83,"channel":0},{"pitch":46,"velocity":106,"channel":0},{"pitch":51,"velocity":116,"channel":0},{"pitch":51,"velocity":98,"channel":0},{"pitch":58,"velocity":111,"channel":0},{"pitch":10,"velocity":94,"channel":0},{"pitch":58,"velocity":92,"channel":0},{"pitch":58,"velocity":125,"channel":0},{"pitch":58,"velocity":100,"channel":0},{"pitch":94,"velocity":121,"channel":0},{"pitch":58,"velocity":94,"channel":0},{"pitch":10,"velocity":126,"channel":0},{"pitch":82,"velocity":108,"channel":0},{"pitch":10,"velocity":106,"channel":0},{"pitch":3,"velocity":109,"channel":0},{"pitch":20,"velocity":110,"channel":0},{"pitch":56,"velocity":88,"channel":0},{"pitch":8,"velocity":97,"channel":0},{"pitch":8,"velocity":98,"channel":0},{"pitch":46,"velocity":116,"channel":0},{"pitch":94,"velocity":90,"channel":0},{"pitch":15,"velocity":120,"channel":0},{"pitch":52,"velocity":86,"channel":0},{"pitch":70,"velocity":115,"channel":0},{"pitch":56,"velocity":77,"channel":0},{"pitch":54,"velocity":103,"channel":0},{"pitch":54,"velocity":115,"channel":0},{"pitch":46,"velocity":115,"channel":0},{"pitch":56,"velocity":120,"channel":0},{"pitch":92,"velocity":99,"channel":0},{"pitch":8,"velocity":98,"channel":0},{"pitch":15,"velocity":99,"channel":0},{"pitch":76,"velocity":94,"channel":0},{"pitch":18,"velocity":92,"channel":0}],"stageTiming":{"beat-setup":35.6061,"intent":0.0118,"entropy":0.0147,"phase":0.0292,"climax":0.0277,"envelope":0.0122,"silhouette":0.018,"rest":0.0257,"complement":0.0013,"tension-cadence":0.0219,"negotiation":0.0279,"probability-adjust":0.0084,"emission":18.1143,"post-beat":0.0292},"iterBudget":{"raw":297,"capped":75,"wasCapped":true}}
{"layer":"L2","beatKey":"0:0:1:14","timeMs":5789.473684210526,"snap":{"key":"A#","mode":"locrian","quality":"minor","scale":["A#","B","C#","D#","E","F#","G#"],"chords":[],"tension":0.2858458816418885,"harmonicRhythm":0.33338377287365806,"harmonicMutationCount":8,"excursion":0,"sectionPhase":"opening","phrasePosition":0.8,"phrasePhase":"resolution","phraseDynamism":1,"registerBias":1.0534230275096785,"densityMultiplier":1.0351141009169893,"voiceIndependence":0.5,"compositeIntensity":0.34955546008782645,"playProb":0.3427583082730545,"stutterProb":0.47505733023765967,"flicker":1.1885495733762952,"textureMode":"flurry","textureFatigue":0,"densityBias":0,"crossModBias":1,"emissionRatio":0.8882997864076252,"extraDensityCorrection":1.022340042718475,"extraCoherenceDensityBias":1,"activeProfile":"restrained","journeyMove":"origin","journeyDistance":0,"journeyKey":"D#","journeyMode":"locrian","binauralFreqOffset":9,"binauralFlip":false,"tick":442500,"updatedAt":1772749134759},"negotiation":{"playProb":0.27367177290089,"stutterProb":0.3015147959165938,"allowCadence":false,"conflict":0.09963243235421948,"phaseConfidence":0.3903508771929832},"trust":{"stutterContagion":{"score":0.2949587617506686,"samples":94,"weight":1.2212190713130013},"cadenceAlignment":{"score":0.235380498526088,"samples":94,"weight":1.176535373894566},"phaseLock":{"score":0.3438981945114311,"samples":94,"weight":1.2579236458835732},"convergence":{"score":0.25097316923131446,"samples":94,"weight":1.1882298769234858},"feedbackOscillator":{"score":0.25756017426418965,"samples":94,"weight":1.1931701306981422},"coherenceMonitor":{"score":0.6972647089653273,"samples":94,"weight":1.5229485317239955},"entropyRegulator":{"score":0.74925,"samples":94,"weight":1.5619375},"restSynchronizer":{"score":0.3126785600356205,"samples":94,"weight":1.2345089200267154}},"regime":"evolving","coupling":{"density-tension":-0.786,"density-flicker":0.98,"density-entropy":-0.768,"density-trust":-0.966,"density-phase":0,"tension-flicker":-0.88,"tension-entropy":0.6,"tension-trust":0.86,"tension-phase":0,"flicker-entropy":-0.739,"flicker-trust":-0.973,"flicker-phase":0,"entropy-trust":0.691,"entropy-phase":0},"couplingTargets":{"density-tension":{"baseline":0.15,"current":0.1477,"rollingAbsCorr":0.0297,"rawRollingAbsCorr":0.0297,"gain":0.3,"heatPenalty":0,"effectivenessEma":0.5012,"effMin":0.475,"effMax":0.5012,"effActiveBeats":2,"hpPromoted":false},"density-flicker":{"baseline":0.12,"current":0.1177,"rollingAbsCorr":0.0384,"rawRollingAbsCorr":0.0384,"gain":0.2416,"heatPenalty":0.036,"effectivenessEma":0.5012,"effMin":0.475,"effMax":0.5012,"effActiveBeats":2,"hpPromoted":false},"density-entropy":{"baseline":0.12,"current":0.1191,"rollingAbsCorr":0.0744,"rawRollingAbsCorr":0.0744,"gain":0.22,"heatPenalty":0,"effectivenessEma":0.5012,"effMin":0.475,"effMax":0.5012,"effActiveBeats":2,"hpPromoted":false},"density-trust":{"baseline":0.2,"current":0.1977,"rollingAbsCorr":0.0351,"rawRollingAbsCorr":0.0351,"gain":0.229,"heatPenalty":0.01,"effectivenessEma":0.5012,"effMin":0.475,"effMax":0.5012,"effActiveBeats":2,"hpPromoted":false},"density-phase":{"baseline":0.06,"current":0.06,"rollingAbsCorr":0,"rawRollingAbsCorr":0,"gain":0.16,"heatPenalty":0,"effectivenessEma":0.5,"effMin":1,"effMax":0,"effActiveBeats":0,"hpPromoted":false},"tension-flicker":{"baseline":0.15,"current":0.147,"rollingAbsCorr":0.0314,"rawRollingAbsCorr":0.0314,"gain":0.229,"heatPenalty":0.01,"effectivenessEma":0.5012,"effMin":0.475,"effMax":0.5012,"effActiveBeats":2,"hpPromoted":false},"tension-entropy":{"baseline":0.25,"current":0.247,"rollingAbsCorr":0.0508,"rawRollingAbsCorr":0.0508,"gain":0.22,"heatPenalty":0,"effectivenessEma":0.5012,"effMin":0.475,"effMax":0.5012,"effActiveBeats":2,"hpPromoted":false},"tension-trust":{"baseline":0.15,"current":0.147,"rollingAbsCorr":0.0342,"rawRollingAbsCorr":0.0342,"gain":0.229,"heatPenalty":0.01,"effectivenessEma":0.4512,"effMin":0.4512,"effMax":0.475,"effActiveBeats":2,"hpPromoted":false},"tension-phase":{"baseline":0.2,"current":0.197,"rollingAbsCorr":0,"rawRollingAbsCorr":0,"gain":0.16,"heatPenalty":0,"effectivenessEma":0.5,"effMin":1,"effMax":0,"effActiveBeats":0,"hpPromoted":false},"flicker-entropy":{"baseline":0.18,"current":0.177,"rollingAbsCorr":0.0733,"rawRollingAbsCorr":0.0733,"gain":0.22,"heatPenalty":0,"effectivenessEma":0.4512,"effMin":0.4512,"effMax":0.475,"effActiveBeats":2,"hpPromoted":false},"flicker-trust":{"baseline":0.12,"current":0.117,"rollingAbsCorr":0.0329,"rawRollingAbsCorr":0.0329,"gain":0.229,"heatPenalty":0.01,"effectivenessEma":0.5012,"effMin":0.475,"effMax":0.5012,"effActiveBeats":2,"hpPromoted":false},"flicker-phase":{"baseline":0.08,"current":0.08,"rollingAbsCorr":0,"rawRollingAbsCorr":0,"gain":0.16,"heatPenalty":0,"effectivenessEma":0.5,"effMin":1,"effMax":0,"effActiveBeats":0,"hpPromoted":false},"entropy-trust":{"baseline":0.25,"current":0.25,"rollingAbsCorr":0.0549,"rawRollingAbsCorr":0.0549,"gain":0.16,"heatPenalty":0,"effectivenessEma":0.5,"effMin":1,"effMax":0,"effActiveBeats":0,"hpPromoted":false},"entropy-phase":{"baseline":0.1,"current":0.1,"rollingAbsCorr":0,"rawRollingAbsCorr":0,"gain":0.16,"heatPenalty":0,"effectivenessEma":0.5,"effMin":1,"effMax":0,"effActiveBeats":0,"hpPromoted":false}},"axisCouplingTotals":{"density":0.9324,"tension":0.8085,"flicker":0.9236,"entropy":0.7182,"trust":0.8663,"phase":0},"axisEnergyShare":{"shares":{"density":0.2194,"tension":0.1903,"flicker":0.2174,"entropy":0.169,"trust":0.2039,"phase":0},"axisGini":0.2093},"couplingGates":{"gateD":1,"gateT":1,"gateF":1,"floorDampen":0.2,"bypassD":0.190994,"bypassT":-0.09245,"bypassF":0.140738,"gateMinD":1,"gateMinT":1,"gateMinF":1,"gateEmaD":1,"gateEmaT":1,"gateEmaF":1,"gateBeatCount":7},"couplingHomeostasis":{"totalEnergyEma":7.157,"energyBudget":3.5,"peakEnergyEma":8.2018,"totalEnergyFloor":7.2712,"floorDampen":0.36,"redistributionScore":0,"nudgeableRedistributionScore":0,"globalGainMultiplier":0.5598,"giniCoefficient":0.3699,"energyDeltaEma":0.6333,"pairTurbulenceEma":0.0082,"beatCount":2,"invokeCount":7,"tickCount":96,"emptyMatrixBeats":5,"multiplierMin":0.5598,"multiplierMax":1,"multiplierStdDev":0.1627,"floorContactBeats":0,"ceilingContactBeats":61,"avgRecoveryDuration":0},"axisEnergyEquilibrator":{"beatCount":7,"pairAdjustments":0,"axisAdjustments":0,"smoothedShares":{"density":0.03317728,"tension":0.02917856,"flicker":0.03334112,"entropy":0.02600992,"trust":0.03189312,"phase":0},"perAxisAdj":{},"perPairAdj":{},"lastBaselines":{},"regimeBeats":{},"regimePairAdj":{},"regimeAxisAdj":{},"regimeTightenBudget":{}},"transitionReadiness":{"gap":0.5588,"couplingStrength":0.7245,"coherentThreshold":0.1658,"velocity":0.064212,"velThreshold":0.008,"thresholdScale":0.65,"velocityBlocked":false,"exploringBlock":"dimension","rawRegimeCounts":{"coherent":2},"rawRegimeMaxStreak":{"coherent":2},"effectiveDim":1.92},"notes":[{"pitch":54,"velocity":102,"channel":0},{"pitch":8,"velocity":116,"channel":0},{"pitch":8,"velocity":81,"channel":0},{"pitch":54,"velocity":88,"channel":0},{"pitch":8,"velocity":94,"channel":0},{"pitch":78,"velocity":125,"channel":0},{"pitch":8,"velocity":100,"channel":0},{"pitch":82,"velocity":116,"channel":0},{"pitch":56,"velocity":127,"channel":0},{"pitch":6,"velocity":84,"channel":0},{"pitch":20,"velocity":77,"channel":0},{"pitch":32,"velocity":121,"channel":0},{"pitch":6,"velocity":115,"channel":0},{"pitch":15,"velocity":105,"channel":0},{"pitch":3,"velocity":103,"channel":0},{"pitch":4,"velocity":88,"channel":0},{"pitch":82,"velocity":100,"channel":0},{"pitch":8,"velocity":81,"channel":0},{"pitch":82,"velocity":93,"channel":0},{"pitch":87,"velocity":92,"channel":0},{"pitch":4,"velocity":104,"channel":0},{"pitch":58,"velocity":99,"channel":0},{"pitch":80,"velocity":103,"channel":0},{"pitch":87,"velocity":108,"channel":0},{"pitch":82,"velocity":121,"channel":0},{"pitch":22,"velocity":118,"channel":0},{"pitch":82,"velocity":109,"channel":0},{"pitch":10,"velocity":110,"channel":0},{"pitch":15,"velocity":104,"channel":0},{"pitch":8,"velocity":87,"channel":0},{"pitch":80,"velocity":89,"channel":0},{"pitch":15,"velocity":127,"channel":0},{"pitch":82,"velocity":90,"channel":0},{"pitch":104,"velocity":125,"channel":0},{"pitch":51,"velocity":108,"channel":0},{"pitch":100,"velocity":116,"channel":0},{"pitch":3,"velocity":103,"channel":0},{"pitch":15,"velocity":126,"channel":0},{"pitch":27,"velocity":98,"channel":0},{"pitch":78,"velocity":95,"channel":0},{"pitch":10,"velocity":89,"channel":0},{"pitch":22,"velocity":111,"channel":0},{"pitch":75,"velocity":109,"channel":0},{"pitch":10,"velocity":116,"channel":0},{"pitch":20,"velocity":94,"channel":0},{"pitch":58,"velocity":102,"channel":0},{"pitch":70,"velocity":83,"channel":0},{"pitch":94,"velocity":103,"channel":0},{"pitch":56,"velocity":94,"channel":0},{"pitch":8,"velocity":111,"channel":0},{"pitch":94,"velocity":88,"channel":0},{"pitch":32,"velocity":118,"channel":0},{"pitch":51,"velocity":94,"channel":0},{"pitch":10,"velocity":87,"channel":0}],"stageTiming":{"beat-setup":39.5805,"intent":0.0149,"entropy":0.0216,"phase":0.0342,"climax":0.11,"envelope":0.1022,"silhouette":0.075,"rest":0.3276,"complement":0.0028,"tension-cadence":0.0372,"negotiation":0.0372,"probability-adjust":0.0398,"emission":3.1556,"post-beat":0.0324},"iterBudget":{"raw":165,"capped":75,"wasCapped":true}}
{"layer":"L2","beatKey":"0:0:1:15","timeMs":5964.912280701754,"snap":{"key":"A#","mode":"locrian","quality":"minor","scale":["A#","B","C#","D#","E","F#","G#"],"chords":[],"tension":0.2858458816418885,"harmonicRhythm":0.33338377287365806,"harmonicMutationCount":8,"excursion":0,"sectionPhase":"opening","phrasePosition":0.8,"phrasePhase":"resolution","phraseDynamism":1,"registerBias":1.0534230275096785,"densityMultiplier":1.0351141009169893,"voiceIndependence":0.5,"compositeIntensity":0.34955546008782645,"playProb":0.3427583082730545,"stutterProb":0.47505733023765967,"flicker":1.1885495733762952,"textureMode":"flurry","textureFatigue":0,"densityBias":0,"crossModBias":1,"emissionRatio":0.8882997864076252,"extraDensityCorrection":1.022340042718475,"extraCoherenceDensityBias":1,"activeProfile":"restrained","journeyMove":"origin","journeyDistance":0,"journeyKey":"D#","journeyMode":"locrian","binauralFreqOffset":9,"binauralFlip":false,"tick":442500,"updatedAt":1772749134759},"negotiation":{"playProb":0.27470584768943646,"stutterProb":0.301519022294366,"allowCadence":false,"conflict":0.04468369741843525,"phaseConfidence":0.4276315789473677},"trust":{"stutterContagion":{"score":0.28925914357482096,"samples":95,"weight":1.2169443576811156},"cadenceAlignment":{"score":0.23612984012354665,"samples":95,"weight":1.17709738009266},"phaseLock":{"score":0.3741010048431224,"samples":95,"weight":1.2805757536323419},"convergence":{"score":0.24063497645587487,"samples":95,"weight":1.1804762323419062},"feedbackOscillator":{"score":0.28227160268093293,"samples":95,"weight":1.2117037020106998},"coherenceMonitor":{"score":0.6853097929938267,"samples":95,"weight":1.51398234474537},"entropyRegulator":{"score":0.74925,"samples":95,"weight":1.5619375},"restSynchronizer":{"score":0.28912129332802644,"samples":95,"weight":1.2168409699960199}},"regime":"evolving","coupling":{"density-tension":-0.786,"density-flicker":0.98,"density-entropy":-0.768,"density-trust":-0.966,"density-phase":0,"tension-flicker":-0.88,"tension-entropy":0.6,"tension-trust":0.86,"tension-phase":0,"flicker-entropy":-0.739,"flicker-trust":-0.973,"flicker-phase":0,"entropy-trust":0.691,"entropy-phase":0},"couplingTargets":{"density-tension":{"baseline":0.15,"current":0.1477,"rollingAbsCorr":0.0297,"rawRollingAbsCorr":0.0297,"gain":0.3,"heatPenalty":0,"effectivenessEma":0.5012,"effMin":0.475,"effMax":0.5012,"effActiveBeats":2,"hpPromoted":false},"density-flicker":{"baseline":0.12,"current":0.1177,"rollingAbsCorr":0.0384,"rawRollingAbsCorr":0.0384,"gain":0.2416,"heatPenalty":0.036,"effectivenessEma":0.5012,"effMin":0.475,"effMax":0.5012,"effActiveBeats":2,"hpPromoted":false},"density-entropy":{"baseline":0.12,"current":0.1191,"rollingAbsCorr":0.0744,"rawRollingAbsCorr":0.0744,"gain":0.22,"heatPenalty":0,"effectivenessEma":0.5012,"effMin":0.475,"effMax":0.5012,"effActiveBeats":2,"hpPromoted":false},"density-trust":{"baseline":0.2,"current":0.1977,"rollingAbsCorr":0.0351,"rawRollingAbsCorr":0.0351,"gain":0.229,"heatPenalty":0.01,"effectivenessEma":0.5012,"effMin":0.475,"effMax":0.5012,"effActiveBeats":2,"hpPromoted":false},"density-phase":{"baseline":0.06,"current":0.06,"rollingAbsCorr":0,"rawRollingAbsCorr":0,"gain":0.16,"heatPenalty":0,"effectivenessEma":0.5,"effMin":1,"effMax":0,"effActiveBeats":0,"hpPromoted":false},"tension-flicker":{"baseline":0.15,"current":0.147,"rollingAbsCorr":0.0314,"rawRollingAbsCorr":0.0314,"gain":0.229,"heatPenalty":0.01,"effectivenessEma":0.5012,"effMin":0.475,"effMax":0.5012,"effActiveBeats":2,"hpPromoted":false},"tension-entropy":{"baseline":0.25,"current":0.247,"rollingAbsCorr":0.0508,"rawRollingAbsCorr":0.0508,"gain":0.22,"heatPenalty":0,"effectivenessEma":0.5012,"effMin":0.475,"effMax":0.5012,"effActiveBeats":2,"hpPromoted":false},"tension-trust":{"baseline":0.15,"current":0.147,"rollingAbsCorr":0.0342,"rawRollingAbsCorr":0.0342,"gain":0.229,"heatPenalty":0.01,"effectivenessEma":0.4512,"effMin":0.4512,"effMax":0.475,"effActiveBeats":2,"hpPromoted":false},"tension-phase":{"baseline":0.2,"current":0.197,"rollingAbsCorr":0,"rawRollingAbsCorr":0,"gain":0.16,"heatPenalty":0,"effectivenessEma":0.5,"effMin":1,"effMax":0,"effActiveBeats":0,"hpPromoted":false},"flicker-entropy":{"baseline":0.18,"current":0.177,"rollingAbsCorr":0.0733,"rawRollingAbsCorr":0.0733,"gain":0.22,"heatPenalty":0,"effectivenessEma":0.4512,"effMin":0.4512,"effMax":0.475,"effActiveBeats":2,"hpPromoted":false},"flicker-trust":{"baseline":0.12,"current":0.117,"rollingAbsCorr":0.0329,"rawRollingAbsCorr":0.0329,"gain":0.229,"heatPenalty":0.01,"effectivenessEma":0.5012,"effMin":0.475,"effMax":0.5012,"effActiveBeats":2,"hpPromoted":false},"flicker-phase":{"baseline":0.08,"current":0.08,"rollingAbsCorr":0,"rawRollingAbsCorr":0,"gain":0.16,"heatPenalty":0,"effectivenessEma":0.5,"effMin":1,"effMax":0,"effActiveBeats":0,"hpPromoted":false},"entropy-trust":{"baseline":0.25,"current":0.25,"rollingAbsCorr":0.0549,"rawRollingAbsCorr":0.0549,"gain":0.16,"heatPenalty":0,"effectivenessEma":0.5,"effMin":1,"effMax":0,"effActiveBeats":0,"hpPromoted":false},"entropy-phase":{"baseline":0.1,"current":0.1,"rollingAbsCorr":0,"rawRollingAbsCorr":0,"gain":0.16,"heatPenalty":0,"effectivenessEma":0.5,"effMin":1,"effMax":0,"effActiveBeats":0,"hpPromoted":false}},"axisCouplingTotals":{"density":0.9324,"tension":0.8085,"flicker":0.9236,"entropy":0.7182,"trust":0.8663,"phase":0},"axisEnergyShare":{"shares":{"density":0.2194,"tension":0.1903,"flicker":0.2174,"entropy":0.169,"trust":0.2039,"phase":0},"axisGini":0.2093},"couplingGates":{"gateD":1,"gateT":1,"gateF":1,"floorDampen":0.2,"bypassD":0.190994,"bypassT":-0.09245,"bypassF":0.140738,"gateMinD":1,"gateMinT":1,"gateMinF":1,"gateEmaD":1,"gateEmaT":1,"gateEmaF":1,"gateBeatCount":7},"couplingHomeostasis":{"totalEnergyEma":7.157,"energyBudget":3.5,"peakEnergyEma":8.2018,"totalEnergyFloor":7.2348,"floorDampen":0.37,"redistributionScore":0,"nudgeableRedistributionScore":0,"globalGainMultiplier":0.5562,"giniCoefficient":0.3699,"energyDeltaEma":0.6333,"pairTurbulenceEma":0.0082,"beatCount":2,"invokeCount":7,"tickCount":97,"emptyMatrixBeats":5,"multiplierMin":0.5562,"multiplierMax":1,"multiplierStdDev":0.1653,"floorContactBeats":0,"ceilingContactBeats":61,"avgRecoveryDuration":0},"axisEnergyEquilibrator":{"beatCount":7,"pairAdjustments":0,"axisAdjustments":0,"smoothedShares":{"density":0.03317728,"tension":0.02917856,"flicker":0.03334112,"entropy":0.02600992,"trust":0.03189312,"phase":0},"perAxisAdj":{},"perPairAdj":{},"lastBaselines":{},"regimeBeats":{},"regimePairAdj":{},"regimeAxisAdj":{},"regimeTightenBudget":{}},"transitionReadiness":{"gap":0.5588,"couplingStrength":0.7245,"coherentThreshold":0.1658,"velocity":0.064212,"velThreshold":0.008,"thresholdScale":0.65,"velocityBlocked":false,"exploringBlock":"dimension","rawRegimeCounts":{"coherent":2},"rawRegimeMaxStreak":{"coherent":2},"effectiveDim":1.92},"notes":[{"pitch":78,"velocity":109,"channel":0},{"pitch":68,"velocity":93,"channel":0},{"pitch":18,"velocity":85,"channel":0},{"pitch":80,"velocity":95,"channel":0},{"pitch":87,"velocity":102,"channel":0},{"pitch":82,"velocity":86,"channel":0}],"stageTiming":{"beat-setup":25.9462,"intent":0.0131,"entropy":0.0188,"phase":0.0332,"climax":0.0283,"envelope":0.0131,"silhouette":0.0179,"rest":0.0241,"complement":0.0014,"tension-cadence":0.0248,"negotiation":0.0268,"probability-adjust":0.0065,"emission":10.28,"post-beat":0.0463},"iterBudget":{"raw":72,"capped":72,"wasCapped":false}}
{"layer":"L2","beatKey":"0:0:1:16","timeMs":6140.350877192983,"snap":{"key":"A#","mode":"locrian","quality":"minor","scale":["A#","B","C#","D#","E","F#","G#"],"chords":[],"tension":0.2858458816418885,"harmonicRhythm":0.33338377287365806,"harmonicMutationCount":8,"excursion":0,"sectionPhase":"opening","phrasePosition":0.8,"phrasePhase":"resolution","phraseDynamism":1,"registerBias":1.0534230275096785,"densityMultiplier":1.0351141009169893,"voiceIndependence":0.5,"compositeIntensity":0.34955546008782645,"playProb":0.3427583082730545,"stutterProb":0.47505733023765967,"flicker":1.1885495733762952,"textureMode":"flurry","textureFatigue":0,"densityBias":0,"crossModBias":1,"emissionRatio":0.8882997864076252,"extraDensityCorrection":1.022340042718475,"extraCoherenceDensityBias":1,"activeProfile":"restrained","journeyMove":"origin","journeyDistance":0,"journeyKey":"D#","journeyMode":"locrian","binauralFreqOffset":9,"binauralFlip":false,"tick":442500,"updatedAt":1772749134759},"negotiation":{"playProb":0.27636143992313933,"stutterProb":0.3031293028083123,"allowCadence":false,"conflict":0.03984697758845557,"phaseConfidence":0.48991228070175363},"trust":{"stutterContagion":{"score":0.2831285508115155,"samples":96,"weight":1.2123464131086366},"cadenceAlignment":{"score":0.2358635556295825,"samples":96,"weight":1.1768976667221869},"phaseLock":{"score":0.4034339963491882,"samples":96,"weight":1.3025754972618913},"convergence":{"score":0.23573142991927754,"samples":96,"weight":1.176798572439458},"feedbackOscillator":{"score":0.2777663979704268,"samples":96,"weight":1.20832479847782},"coherenceMonitor":{"score":0.6875184052679696,"samples":96,"weight":1.5156388039509772},"entropyRegulator":{"score":0.74925,"samples":96,"weight":1.5619375},"restSynchronizer":{"score":0.2679409548312286,"samples":96,"weight":1.2009557161234214}},"regime":"evolving","coupling":{"density-tension":-0.786,"density-flicker":0.98,"density-entropy":-0.768,"density-trust":-0.966,"density-phase":0,"tension-flicker":-0.88,"tension-entropy":0.6,"tension-trust":0.86,"tension-phase":0,"flicker-entropy":-0.739,"flicker-trust":-0.973,"flicker-phase":0,"entropy-trust":0.691,"entropy-phase":0},"couplingTargets":{"density-tension":{"baseline":0.15,"current":0.1477,"rollingAbsCorr":0.0297,"rawRollingAbsCorr":0.0297,"gain":0.3,"heatPenalty":0,"effectivenessEma":0.5012,"effMin":0.475,"effMax":0.5012,"effActiveBeats":2,"hpPromoted":false},"density-flicker":{"baseline":0.12,"current":0.1177,"rollingAbsCorr":0.0384,"rawRollingAbsCorr":0.0384,"gain":0.2416,"heatPenalty":0.036,"effectivenessEma":0.5012,"effMin":0.475,"effMax":0.5012,"effActiveBeats":2,"hpPromoted":false},"density-entropy":{"baseline":0.12,"current":0.1191,"rollingAbsCorr":0.0744,"rawRollingAbsCorr":0.0744,"gain":0.22,"heatPenalty":0,"effectivenessEma":0.5012,"effMin":0.475,"effMax":0.5012,"effActiveBeats":2,"hpPromoted":false},"density-trust":{"baseline":0.2,"current":0.1977,"rollingAbsCorr":0.0351,"rawRollingAbsCorr":0.0351,"gain":0.229,"heatPenalty":0.01,"effectivenessEma":0.5012,"effMin":0.475,"effMax":0.5012,"effActiveBeats":2,"hpPromoted":false},"density-phase":{"baseline":0.06,"current":0.06,"rollingAbsCorr":0,"rawRollingAbsCorr":0,"gain":0.16,"heatPenalty":0,"effectivenessEma":0.5,"effMin":1,"effMax":0,"effActiveBeats":0,"hpPromoted":false},"tension-flicker":{"baseline":0.15,"current":0.147,"rollingAbsCorr":0.0314,"rawRollingAbsCorr":0.0314,"gain":0.229,"heatPenalty":0.01,"effectivenessEma":0.5012,"effMin":0.475,"effMax":0.5012,"effActiveBeats":2,"hpPromoted":false},"tension-entropy":{"baseline":0.25,"current":0.247,"rollingAbsCorr":0.0508,"rawRollingAbsCorr":0.0508,"gain":0.22,"heatPenalty":0,"effectivenessEma":0.5012,"effMin":0.475,"effMax":0.5012,"effActiveBeats":2,"hpPromoted":false},"tension-trust":{"baseline":0.15,"current":0.147,"rollingAbsCorr":0.0342,"rawRollingAbsCorr":0.0342,"gain":0.229,"heatPenalty":0.01,"effectivenessEma":0.4512,"effMin":0.4512,"effMax":0.475,"effActiveBeats":2,"hpPromoted":false},"tension-phase":{"baseline":0.2,"current":0.197,"rollingAbsCorr":0,"rawRollingAbsCorr":0,"gain":0.16,"heatPenalty":0,"effectivenessEma":0.5,"effMin":1,"effMax":0,"effActiveBeats":0,"hpPromoted":false},"flicker-entropy":{"baseline":0.18,"current":0.177,"rollingAbsCorr":0.0733,"rawRollingAbsCorr":0.0733,"gain":0.22,"heatPenalty":0,"effectivenessEma":0.4512,"effMin":0.4512,"effMax":0.475,"effActiveBeats":2,"hpPromoted":false},"flicker-trust":{"baseline":0.12,"current":0.117,"rollingAbsCorr":0.0329,"rawRollingAbsCorr":0.0329,"gain":0.229,"heatPenalty":0.01,"effectivenessEma":0.5012,"effMin":0.475,"effMax":0.5012,"effActiveBeats":2,"hpPromoted":false},"flicker-phase":{"baseline":0.08,"current":0.08,"rollingAbsCorr":0,"rawRollingAbsCorr":0,"gain":0.16,"heatPenalty":0,"effectivenessEma":0.5,"effMin":1,"effMax":0,"effActiveBeats":0,"hpPromoted":false},"entropy-trust":{"baseline":0.25,"current":0.25,"rollingAbsCorr":0.0549,"rawRollingAbsCorr":0.0549,"gain":0.16,"heatPenalty":0,"effectivenessEma":0.5,"effMin":1,"effMax":0,"effActiveBeats":0,"hpPromoted":false},"entropy-phase":{"baseline":0.1,"current":0.1,"rollingAbsCorr":0,"rawRollingAbsCorr":0,"gain":0.16,"heatPenalty":0,"effectivenessEma":0.5,"effMin":1,"effMax":0,"effActiveBeats":0,"hpPromoted":false}},"axisCouplingTotals":{"density":0.9324,"tension":0.8085,"flicker":0.9236,"entropy":0.7182,"trust":0.8663,"phase":0},"axisEnergyShare":{"shares":{"density":0.2194,"tension":0.1903,"flicker":0.2174,"entropy":0.169,"trust":0.2039,"phase":0},"axisGini":0.2093},"couplingGates":{"gateD":1,"gateT":1,"gateF":1,"floorDampen":0.2,"bypassD":0.190994,"bypassT":-0.09245,"bypassF":0.140738,"gateMinD":1,"gateMinT":1,"gateMinF":1,"gateEmaD":1,"gateEmaT":1,"gateEmaF":1,"gateBeatCount":7},"couplingHomeostasis":{"totalEnergyEma":7.157,"energyBudget":3.5,"peakEnergyEma":8.2018,"totalEnergyFloor":7.1987,"floorDampen":0.38,"redistributionScore":0,"nudgeableRedistributionScore":0,"globalGainMultiplier":0.5529,"giniCoefficient":0.3699,"energyDeltaEma":0.6333,"pairTurbulenceEma":0.0082,"beatCount":2,"invokeCount":7,"tickCount":98,"emptyMatrixBeats":5,"multiplierMin":0.5529,"multiplierMax":1,"multiplierStdDev":0.1678,"floorContactBeats":0,"ceilingContactBeats":61,"avgRecoveryDuration":0},"axisEnergyEquilibrator":{"beatCount":7,"pairAdjustments":0,"axisAdjustments":0,"smoothedShares":{"density":0.03317728,"tension":0.02917856,"flicker":0.03334112,"entropy":0.02600992,"trust":0.03189312,"phase":0},"perAxisAdj":{},"perPairAdj":{},"lastBaselines":{},"regimeBeats":{},"regimePairAdj":{},"regimeAxisAdj":{},"regimeTightenBudget":{}},"transitionReadiness":{"gap":0.5588,"couplingStrength":0.7245,"coherentThreshold":0.1658,"velocity":0.064212,"velThreshold":0.008,"thresholdScale":0.65,"velocityBlocked":false,"exploringBlock":"dimension","rawRegimeCounts":{"coherent":2},"rawRegimeMaxStreak":{"coherent":2},"effectiveDim":1.92},"notes":[{"pitch":76,"velocity":113,"channel":0},{"pitch":58,"velocity":124,"channel":0},{"pitch":94,"velocity":127,"channel":0},{"pitch":70,"velocity":126,"channel":0},{"pitch":70,"velocity":112,"channel":0},{"pitch":70,"velocity":122,"channel":0},{"pitch":70,"velocity":117,"channel":0},{"pitch":70,"velocity":116,"channel":0},{"pitch":70,"velocity":124,"channel":0},{"pitch":51,"velocity":97,"channel":0},{"pitch":82,"velocity":86,"channel":0},{"pitch":70,"velocity":113,"channel":0},{"pitch":32,"velocity":84,"channel":0},{"pitch":54,"velocity":110,"channel":0},{"pitch":30,"velocity":101,"channel":0},{"pitch":70,"velocity":88,"channel":0},{"pitch":87,"velocity":97,"channel":0},{"pitch":75,"velocity":88,"channel":0},{"pitch":75,"velocity":115,"channel":0},{"pitch":75,"velocity":81,"channel":0},{"pitch":75,"velocity":127,"channel":0},{"pitch":51,"velocity":86,"channel":0},{"pitch":82,"velocity":111,"channel":0},{"pitch":75,"velocity":88,"channel":0},{"pitch":87,"velocity":116,"channel":0},{"pitch":75,"velocity":97,"channel":0},{"pitch":75,"velocity":106,"channel":0},{"pitch":75,"velocity":105,"channel":0},{"pitch":75,"velocity":106,"channel":0},{"pitch":10,"velocity":97,"channel":0},{"pitch":28,"velocity":91,"channel":0},{"pitch":27,"velocity":87,"channel":0},{"pitch":27,"velocity":108,"channel":0},{"pitch":51,"velocity":91,"channel":0},{"pitch":27,"velocity":91,"channel":0},{"pitch":15,"velocity":97,"channel":0},{"pitch":16,"velocity":95,"channel":0},{"pitch":58,"velocity":84,"channel":0},{"pitch":22,"velocity":98,"channel":0},{"pitch":15,"velocity":89,"channel":0},{"pitch":82,"velocity":82,"channel":0},{"pitch":22,"velocity":111,"channel":0},{"pitch":82,"velocity":83,"channel":0},{"pitch":58,"velocity":111,"channel":0},{"pitch":22,"velocity":88,"channel":0},{"pitch":22,"velocity":82,"channel":0},{"pitch":106,"velocity":120,"channel":0},{"pitch":15,"velocity":101,"channel":0},{"pitch":22,"velocity":97,"channel":0},{"pitch":27,"velocity":89,"channel":0},{"pitch":27,"velocity":106,"channel":0},{"pitch":15,"velocity":87,"channel":0},{"pitch":27,"velocity":88,"channel":0},{"pitch":22,"velocity":91,"channel":0},{"pitch":46,"velocity":91,"channel":0},{"pitch":22,"velocity":81,"channel":0},{"pitch":27,"velocity":112,"channel":0},{"pitch":27,"velocity":96,"channel":0},{"pitch":75,"velocity":87,"channel":0},{"pitch":75,"velocity":92,"channel":0},{"pitch":75,"velocity":79,"channel":0},{"pitch":27,"velocity":97,"channel":0},{"pitch":22,"velocity":96,"channel":0},{"pitch":27,"velocity":87,"channel":0},{"pitch":87,"velocity":112,"channel":0},{"pitch":27,"velocity":103,"channel":0},{"pitch":22,"velocity":83,"channel":0},{"pitch":75,"velocity":127,"channel":0},{"pitch":51,"velocity":96,"channel":0},{"pitch":106,"velocity":86,"channel":0},{"pitch":27,"velocity":100,"channel":0},{"pitch":27,"velocity":106,"channel":0},{"pitch":75,"velocity":103,"channel":0},{"pitch":58,"velocity":107,"channel":0},{"pitch":87,"velocity":100,"channel":0},{"pitch":15,"velocity":95,"channel":0},{"pitch":106,"velocity":86,"channel":0},{"pitch":18,"velocity":97,"channel":0},{"pitch":10,"velocity":101,"channel":0},{"pitch":15,"velocity":108,"channel":0},{"pitch":80,"velocity":82,"channel":0},{"pitch":78,"velocity":117,"channel":0},{"pitch":78,"velocity":97,"channel":0},{"pitch":78,"velocity":78,"channel":0},{"pitch":78,"velocity":124,"channel":0},{"pitch":22,"velocity":83,"channel":0},{"pitch":27,"velocity":79,"channel":0},{"pitch":27,"velocity":113,"channel":0},{"pitch":58,"velocity":88,"channel":0},{"pitch":27,"velocity":92,"channel":0},{"pitch":87,"velocity":97,"channel":0},{"pitch":27,"velocity":100,"channel":0},{"pitch":27,"velocity":107,"channel":0},{"pitch":70,"velocity":102,"channel":0},{"pitch":75,"velocity":91,"channel":0},{"pitch":75,"velocity":87,"channel":0},{"pitch":75,"velocity":92,"channel":0},{"pitch":82,"velocity":91,"channel":0},{"pitch":70,"velocity":97,"channel":0},{"pitch":34,"velocity":81,"channel":0},{"pitch":82,"velocity":110,"channel":0},{"pitch":34,"velocity":77,"channel":0},{"pitch":87,"velocity":108,"channel":0},{"pitch":27,"velocity":97,"channel":0},{"pitch":39,"velocity":101,"channel":0},{"pitch":27,"velocity":84,"channel":0},{"pitch":27,"velocity":108,"channel":0},{"pitch":22,"velocity":100,"channel":0},{"pitch":27,"velocity":95,"channel":0},{"pitch":75,"velocity":74,"channel":0},{"pitch":87,"velocity":126,"channel":0},{"pitch":27,"velocity":89,"channel":0},{"pitch":51,"velocity":100,"channel":0},{"pitch":27,"velocity":93,"channel":0},{"pitch":27,"velocity":92,"channel":0},{"pitch":75,"velocity":98,"channel":0},{"pitch":27,"velocity":89,"channel":0},{"pitch":27,"velocity":95,"channel":0},{"pitch":27,"velocity":92,"channel":0},{"pitch":87,"velocity":98,"channel":0},{"pitch":94,"velocity":96,"channel":0},{"pitch":27,"velocity":97,"channel":0},{"pitch":75,"velocity":81,"channel":0},{"pitch":51,"velocity":113,"channel":0},{"pitch":27,"velocity":88,"channel":0},{"pitch":99,"velocity":95,"channel":0},{"pitch":27,"velocity":101,"channel":0},{"pitch":87,"velocity":102,"channel":0},{"pitch":27,"velocity":101,"channel":0},{"pitch":27,"velocity":108,"channel":0},{"pitch":27,"velocity":107,"channel":0},{"pitch":63,"velocity":100,"channel":0},{"pitch":75,"velocity":108,"channel":0},{"pitch":51,"velocity":78,"channel":0},{"pitch":75,"velocity":127,"channel":0},{"pitch":51,"velocity":76,"channel":0},{"pitch":94,"velocity":116,"channel":0},{"pitch":75,"velocity":84,"channel":0},{"pitch":75,"velocity":103,"channel":0},{"pitch":75,"velocity":91,"channel":0},{"pitch":75,"velocity":86,"channel":0},{"pitch":58,"velocity":117,"channel":0},{"pitch":76,"velocity":101,"channel":0},{"pitch":51,"velocity":77,"channel":0},{"pitch":75,"velocity":89,"channel":0},{"pitch":75,"velocity":107,"channel":0},{"pitch":75,"velocity":112,"channel":0},{"pitch":76,"velocity":111,"channel":0},{"pitch":75,"velocity":111,"channel":0},{"pitch":75,"velocity":125,"channel":0},{"pitch":75,"velocity":115,"channel":0},{"pitch":75,"velocity":121,"channel":0},{"pitch":58,"velocity":122,"channel":0},{"pitch":63,"velocity":125,"channel":0},{"pitch":99,"velocity":93,"channel":0},{"pitch":63,"velocity":101,"channel":0},{"pitch":63,"velocity":121,"channel":0},{"pitch":87,"velocity":127,"channel":0},{"pitch":75,"velocity":113,"channel":0},{"pitch":99,"velocity":86,"channel":0},{"pitch":63,"velocity":98,"channel":0},{"pitch":63,"velocity":106,"channel":0},{"pitch":94,"velocity":86,"channel":0},{"pitch":94,"velocity":97,"channel":0},{"pitch":94,"velocity":95,"channel":0},{"pitch":10,"velocity":92,"channel":0},{"pitch":18,"velocity":83,"channel":0},{"pitch":20,"velocity":107,"channel":0},{"pitch":20,"velocity":97,"channel":0},{"pitch":20,"velocity":102,"channel":0},{"pitch":92,"velocity":95,"channel":0},{"pitch":75,"velocity":93,"channel":0},{"pitch":75,"velocity":96,"channel":0},{"pitch":75,"velocity":83,"channel":0},{"pitch":75,"velocity":105,"channel":0},{"pitch":90,"velocity":78,"channel":0},{"pitch":66,"velocity":102,"channel":0},{"pitch":92,"velocity":92,"channel":0},{"pitch":92,"velocity":95,"channel":0},{"pitch":92,"velocity":100,"channel":0},{"pitch":75,"velocity":98,"channel":0},{"pitch":94,"velocity":93,"channel":0},{"pitch":94,"velocity":76,"channel":0},{"pitch":70,"velocity":122,"channel":0},{"pitch":70,"velocity":92,"channel":0},{"pitch":92,"velocity":92,"channel":0},{"pitch":68,"velocity":127,"channel":0},{"pitch":68,"velocity":100,"channel":0},{"pitch":92,"velocity":87,"channel":0},{"pitch":78,"velocity":97,"channel":0},{"pitch":20,"velocity":115,"channel":0},{"pitch":22,"velocity":92,"channel":0},{"pitch":70,"velocity":112,"channel":0},{"pitch":22,"velocity":110,"channel":0},{"pitch":58,"velocity":100,"channel":0},{"pitch":10,"velocity":93,"channel":0},{"pitch":22,"velocity":89,"channel":0},{"pitch":92,"velocity":115,"channel":0},{"pitch":75,"velocity":92,"channel":0},{"pitch":75,"velocity":96,"channel":0},{"pitch":75,"velocity":115,"channel":0},{"pitch":75,"velocity":79,"channel":0},{"pitch":75,"velocity":125,"channel":0},{"pitch":52,"velocity":97,"channel":0},{"pitch":75,"velocity":127,"channel":0},{"pitch":68,"velocity":102,"channel":0},{"pitch":51,"velocity":122,"channel":0},{"pitch":68,"velocity":101,"channel":0},{"pitch":75,"velocity":116,"channel":0},{"pitch":99,"velocity":91,"channel":0},{"pitch":90,"velocity":122,"channel":0},{"pitch":56,"velocity":100,"channel":0},{"pitch":92,"velocity":118,"channel":0},{"pitch":20,"velocity":89,"channel":0},{"pitch":20,"velocity":127,"channel":0},{"pitch":92,"velocity":97,"channel":0},{"pitch":20,"velocity":110,"channel":0},{"pitch":20,"velocity":113,"channel":0},{"pitch":22,"velocity":108,"channel":0},{"pitch":22,"velocity":116,"channel":0},{"pitch":58,"velocity":96,"channel":0},{"pitch":32,"velocity":93,"channel":0},{"pitch":90,"velocity":127,"channel":0},{"pitch":56,"velocity":98,"channel":0},{"pitch":94,"velocity":122,"channel":0},{"pitch":15,"velocity":96,"channel":0},{"pitch":27,"velocity":127,"channel":0},{"pitch":87,"velocity":93,"channel":0},{"pitch":15,"velocity":103,"channel":0},{"pitch":82,"velocity":102,"channel":0},{"pitch":75,"velocity":105,"channel":0},{"pitch":51,"velocity":127,"channel":0},{"pitch":75,"velocity":103,"channel":0},{"pitch":27,"velocity":100,"channel":0},{"pitch":27,"velocity":110,"channel":0},{"pitch":56,"velocity":100,"channel":0},{"pitch":78,"velocity":122,"channel":0},{"pitch":56,"velocity":111,"channel":0},{"pitch":70,"velocity":120,"channel":0},{"pitch":75,"velocity":112,"channel":0},{"pitch":75,"velocity":118,"channel":0},{"pitch":75,"velocity":113,"channel":0},{"pitch":82,"velocity":103,"channel":0},{"pitch":75,"velocity":93,"channel":0},{"pitch":70,"velocity":115,"channel":0},{"pitch":75,"velocity":87,"channel":0},{"pitch":75,"velocity":117,"channel":0},{"pitch":75,"velocity":89,"channel":0},{"pitch":58,"velocity":127,"channel":0},{"pitch":75,"velocity":95,"channel":0},{"pitch":75,"velocity":127,"channel":0},{"pitch":75,"velocity":87,"channel":0},{"pitch":99,"velocity":113,"channel":0},{"pitch":58,"velocity":84,"channel":0},{"pitch":58,"velocity":125,"channel":0},{"pitch":58,"velocity":89,"channel":0},{"pitch":56,"velocity":127,"channel":0},{"pitch":80,"velocity":86,"channel":0},{"pitch":58,"velocity":108,"channel":0},{"pitch":75,"velocity":103,"channel":0},{"pitch":63,"velocity":116,"channel":0},{"pitch":75,"velocity":91,"channel":0},{"pitch":51,"velocity":120,"channel":0},{"pitch":52,"velocity":106,"channel":0},{"pitch":63,"velocity":81,"channel":0},{"pitch":75,"velocity":98,"channel":0},{"pitch":18,"velocity":102,"channel":0},{"pitch":80,"velocity":100,"channel":0},{"pitch":56,"velocity":111,"channel":0},{"pitch":99,"velocity":111,"channel":0},{"pitch":94,"velocity":111,"channel":0},{"pitch":22,"velocity":98,"channel":0},{"pitch":58,"velocity":93,"channel":0},{"pitch":18,"velocity":127,"channel":0},{"pitch":94,"velocity":107,"channel":0},{"pitch":22,"velocity":103,"channel":0},{"pitch":22,"velocity":97,"channel":0},{"pitch":15,"velocity":118,"channel":0},{"pitch":22,"velocity":87,"channel":0},{"pitch":22,"velocity":113,"channel":0},{"pitch":94,"velocity":96,"channel":0},{"pitch":34,"velocity":96,"channel":0},{"pitch":22,"velocity":108,"channel":0},{"pitch":58,"velocity":103,"channel":0},{"pitch":10,"velocity":101,"channel":0},{"pitch":51,"velocity":86,"channel":0},{"pitch":58,"velocity":92,"channel":0},{"pitch":82,"velocity":87,"channel":0},{"pitch":94,"velocity":98,"channel":0},{"pitch":22,"velocity":98,"channel":0},{"pitch":94,"velocity":100,"channel":0},{"pitch":22,"velocity":111,"channel":0},{"pitch":70,"velocity":106,"channel":0},{"pitch":15,"velocity":84,"channel":0},{"pitch":22,"velocity":83,"channel":0},{"pitch":82,"velocity":124,"channel":0},{"pitch":22,"velocity":71,"channel":0},{"pitch":22,"velocity":127,"channel":0},{"pitch":15,"velocity":102,"channel":0},{"pitch":75,"velocity":110,"channel":0},{"pitch":3,"velocity":97,"channel":0},{"pitch":15,"velocity":91,"channel":0},{"pitch":75,"velocity":95,"channel":0},{"pitch":15,"velocity":101,"channel":0},{"pitch":94,"velocity":100,"channel":0},{"pitch":75,"velocity":84,"channel":0},{"pitch":15,"velocity":102,"channel":0},{"pitch":22,"velocity":126,"channel":0},{"pitch":58,"velocity":93,"channel":0},{"pitch":15,"velocity":98,"channel":0},{"pitch":22,"velocity":122,"channel":0},{"pitch":22,"velocity":82,"channel":0},{"pitch":15,"velocity":125,"channel":0},{"pitch":28,"velocity":93,"channel":0},{"pitch":75,"velocity":127,"channel":0},{"pitch":94,"velocity":87,"channel":0},{"pitch":94,"velocity":127,"channel":0},{"pitch":27,"velocity":88,"channel":0},{"pitch":87,"velocity":126,"channel":0},{"pitch":75,"velocity":86,"channel":0},{"pitch":82,"velocity":124,"channel":0},{"pitch":22,"velocity":101,"channel":0},{"pitch":82,"velocity":118,"channel":0},{"pitch":75,"velocity":92,"channel":0},{"pitch":10,"velocity":110,"channel":0},{"pitch":34,"velocity":84,"channel":0},{"pitch":34,"velocity":113,"channel":0},{"pitch":22,"velocity":106,"channel":0},{"pitch":94,"velocity":107,"channel":0},{"pitch":82,"velocity":89,"channel":0},{"pitch":82,"velocity":117,"channel":0},{"pitch":75,"velocity":93,"channel":0},{"pitch":27,"velocity":117,"channel":0},{"pitch":22,"velocity":92,"channel":0},{"pitch":27,"velocity":118,"channel":0},{"pitch":87,"velocity":96,"channel":0},{"pitch":27,"velocity":127,"channel":0},{"pitch":87,"velocity":78,"channel":0},{"pitch":75,"velocity":124,"channel":0},{"pitch":51,"velocity":89,"channel":0}],"stageTiming":{"beat-setup":23.2448,"intent":0.0189,"entropy":0.0368,"phase":0.0421,"climax":0.0683,"envelope":0.018,"silhouette":0.0441,"rest":0.0656,"complement":0.004,"tension-cadence":0.0355,"negotiation":0.0403,"probability-adjust":0.0122,"emission":1.8852,"post-beat":0.0205},"iterBudget":{"raw":72,"capped":72,"wasCapped":false}}
{"layer":"L2","beatKey":"0:0:1:17","timeMs":6315.789473684211,"snap":{"key":"A#","mode":"locrian","quality":"minor","scale":["A#","B","C#","D#","E","F#","G#"],"chords":[],"tension":0.2858458816418885,"harmonicRhythm":0.33338377287365806,"harmonicMutationCount":8,"excursion":0,"sectionPhase":"opening","phrasePosition":0.8,"phrasePhase":"resolution","phraseDynamism":1,"registerBias":1.0534230275096785,"densityMultiplier":1.0351141009169893,"voiceIndependence":0.5,"compositeIntensity":0.34955546008782645,"playProb":0.3427583082730545,"stutterProb":0.47505733023765967,"flicker":1.1885495733762952,"textureMode":"flurry","textureFatigue":0,"densityBias":0,"crossModBias":1,"emissionRatio":0.8882997864076252,"extraDensityCorrection":1.022340042718475,"extraCoherenceDensityBias":1,"activeProfile":"restrained","journeyMove":"origin","journeyDistance":0,"journeyKey":"D#","journeyMode":"locrian","binauralFreqOffset":9,"binauralFlip":false,"tick":442500,"updatedAt":1772749134759},"negotiation":{"playProb":0.2779291659922774,"stutterProb":0.3046093848333552,"allowCadence":false,"conflict":0.03544874638644968,"phaseConfidence":0.5521929824561409},"trust":{"stutterContagion":{"score":0.27667783562609494,"samples":97,"weight":1.2075083767195711},"cadenceAlignment":{"score":0.23312199045947266,"samples":97,"weight":1.1748414928446045},"phaseLock":{"score":0.39701993374913414,"samples":97,"weight":1.2977649503118505},"convergence":{"score":0.23504423157296053,"samples":97,"weight":1.1762831736797204},"feedbackOscillator":{"score":0.2737157684152107,"samples":97,"weight":1.205286826311408},"coherenceMonitor":{"score":0.6923459320266682,"samples":97,"weight":1.519259449020001},"entropyRegulator":{"score":0.7482910832960504,"samples":97,"weight":1.5612183124720378},"restSynchronizer":{"score":0.24889771248875764,"samples":97,"weight":1.1866732843665682}},"regime":"evolving","coupling":{"density-tension":-0.786,"density-flicker":0.98,"density-entropy":-0.768,"density-trust":-0.966,"density-phase":0,"tension-flicker":-0.88,"tension-entropy":0.6,"tension-trust":0.86,"tension-phase":0,"flicker-entropy":-0.739,"flicker-trust":-0.973,"flicker-phase":0,"entropy-trust":0.691,"entropy-phase":0},"couplingTargets":{"density-tension":{"baseline":0.15,"current":0.1477,"rollingAbsCorr":0.0297,"rawRollingAbsCorr":0.0297,"gain":0.3,"heatPenalty":0,"effectivenessEma":0.5012,"effMin":0.475,"effMax":0.5012,"effActiveBeats":2,"hpPromoted":false},"density-flicker":{"baseline":0.12,"current":0.1177,"rollingAbsCorr":0.0384,"rawRollingAbsCorr":0.0384,"gain":0.2416,"heatPenalty":0.036,"effectivenessEma":0.5012,"effMin":0.475,"effMax":0.5012,"effActiveBeats":2,"hpPromoted":false},"density-entropy":{"baseline":0.12,"current":0.1191,"rollingAbsCorr":0.0744,"rawRollingAbsCorr":0.0744,"gain":0.22,"heatPenalty":0,"effectivenessEma":0.5012,"effMin":0.475,"effMax":0.5012,"effActiveBeats":2,"hpPromoted":false},"density-trust":{"baseline":0.2,"current":0.1977,"rollingAbsCorr":0.0351,"rawRollingAbsCorr":0.0351,"gain":0.229,"heatPenalty":0.01,"effectivenessEma":0.5012,"effMin":0.475,"effMax":0.5012,"effActiveBeats":2,"hpPromoted":false},"density-phase":{"baseline":0.06,"current":0.06,"rollingAbsCorr":0,"rawRollingAbsCorr":0,"gain":0.16,"heatPenalty":0,"effectivenessEma":0.5,"effMin":1,"effMax":0,"effActiveBeats":0,"hpPromoted":false},"tension-flicker":{"baseline":0.15,"current":0.147,"rollingAbsCorr":0.0314,"rawRollingAbsCorr":0.0314,"gain":0.229,"heatPenalty":0.01,"effectivenessEma":0.5012,"effMin":0.475,"effMax":0.5012,"effActiveBeats":2,"hpPromoted":false},"tension-entropy":{"baseline":0.25,"current":0.247,"rollingAbsCorr":0.0508,"rawRollingAbsCorr":0.0508,"gain":0.22,"heatPenalty":0,"effectivenessEma":0.5012,"effMin":0.475,"effMax":0.5012,"effActiveBeats":2,"hpPromoted":false},"tension-trust":{"baseline":0.15,"current":0.147,"rollingAbsCorr":0.0342,"rawRollingAbsCorr":0.0342,"gain":0.229,"heatPenalty":0.01,"effectivenessEma":0.4512,"effMin":0.4512,"effMax":0.475,"effActiveBeats":2,"hpPromoted":false},"tension-phase":{"baseline":0.2,"current":0.197,"rollingAbsCorr":0,"rawRollingAbsCorr":0,"gain":0.16,"heatPenalty":0,"effectivenessEma":0.5,"effMin":1,"effMax":0,"effActiveBeats":0,"hpPromoted":false},"flicker-entropy":{"baseline":0.18,"current":0.177,"rollingAbsCorr":0.0733,"rawRollingAbsCorr":0.0733,"gain":0.22,"heatPenalty":0,"effectivenessEma":0.4512,"effMin":0.4512,"effMax":0.475,"effActiveBeats":2,"hpPromoted":false},"flicker-trust":{"baseline":0.12,"current":0.117,"rollingAbsCorr":0.0329,"rawRollingAbsCorr":0.0329,"gain":0.229,"heatPenalty":0.01,"effectivenessEma":0.5012,"effMin":0.475,"effMax":0.5012,"effActiveBeats":2,"hpPromoted":false},"flicker-phase":{"baseline":0.08,"current":0.08,"rollingAbsCorr":0,"rawRollingAbsCorr":0,"gain":0.16,"heatPenalty":0,"effectivenessEma":0.5,"effMin":1,"effMax":0,"effActiveBeats":0,"hpPromoted":false},"entropy-trust":{"baseline":0.25,"current":0.25,"rollingAbsCorr":0.0549,"rawRollingAbsCorr":0.0549,"gain":0.16,"heatPenalty":0,"effectivenessEma":0.5,"effMin":1,"effMax":0,"effActiveBeats":0,"hpPromoted":false},"entropy-phase":{"baseline":0.1,"current":0.1,"rollingAbsCorr":0,"rawRollingAbsCorr":0,"gain":0.16,"heatPenalty":0,"effectivenessEma":0.5,"effMin":1,"effMax":0,"effActiveBeats":0,"hpPromoted":false}},"axisCouplingTotals":{"density":0.9324,"tension":0.8085,"flicker":0.9236,"entropy":0.7182,"trust":0.8663,"phase":0},"axisEnergyShare":{"shares":{"density":0.2194,"tension":0.1903,"flicker":0.2174,"entropy":0.169,"trust":0.2039,"phase":0},"axisGini":0.2093},"couplingGates":{"gateD":1,"gateT":1,"gateF":1,"floorDampen":0.2,"bypassD":0.190994,"bypassT":-0.09245,"bypassF":0.140738,"gateMinD":1,"gateMinT":1,"gateMinF":1,"gateEmaD":1,"gateEmaT":1,"gateEmaF":1,"gateBeatCount":7},"couplingHomeostasis":{"totalEnergyEma":7.157,"energyBudget":3.5,"peakEnergyEma":8.2018,"totalEnergyFloor":7.1627,"floorDampen":0.39,"redistributionScore":0,"nudgeableRedistributionScore":0,"globalGainMultiplier":0.5497,"giniCoefficient":0.3699,"energyDeltaEma":0.6333,"pairTurbulenceEma":0.0082,"beatCount":2,"invokeCount":7,"tickCount":99,"emptyMatrixBeats":5,"multiplierMin":0.5497,"multiplierMax":1,"multiplierStdDev":0.1703,"floorContactBeats":0,"ceilingContactBeats":61,"avgRecoveryDuration":0},"axisEnergyEquilibrator":{"beatCount":7,"pairAdjustments":0,"axisAdjustments":0,"smoothedShares":{"density":0.03317728,"tension":0.02917856,"flicker":0.03334112,"entropy":0.02600992,"trust":0.03189312,"phase":0},"perAxisAdj":{},"perPairAdj":{},"lastBaselines":{},"regimeBeats":{},"regimePairAdj":{},"regimeAxisAdj":{},"regimeTightenBudget":{}},"transitionReadiness":{"gap":0.5588,"couplingStrength":0.7245,"coherentThreshold":0.1658,"velocity":0.064212,"velThreshold":0.008,"thresholdScale":0.65,"velocityBlocked":false,"exploringBlock":"dimension","rawRegimeCounts":{"coherent":2},"rawRegimeMaxStreak":{"coherent":2},"effectiveDim":1.92},"notes":[{"pitch":42,"velocity":89,"channel":0},{"pitch":6,"velocity":112,"channel":0},{"pitch":15,"velocity":104,"channel":0},{"pitch":76,"velocity":93,"channel":0},{"pitch":51,"velocity":123,"channel":0},{"pitch":51,"velocity":91,"channel":0},{"pitch":75,"velocity":115,"channel":0},{"pitch":51,"velocity":84,"channel":0},{"pitch":46,"velocity":110,"channel":0},{"pitch":51,"velocity":86,"channel":0},{"pitch":82,"velocity":117,"channel":0},{"pitch":82,"velocity":86,"channel":0},{"pitch":51,"velocity":127,"channel":0},{"pitch":51,"velocity":76,"channel":0},{"pitch":51,"velocity":127,"channel":0},{"pitch":58,"velocity":98,"channel":0},{"pitch":51,"velocity":98,"channel":0},{"pitch":51,"velocity":108,"channel":0},{"pitch":58,"velocity":98,"channel":0},{"pitch":34,"velocity":109,"channel":0},{"pitch":22,"velocity":93,"channel":0},{"pitch":22,"velocity":94,"channel":0},{"pitch":22,"velocity":109,"channel":0},{"pitch":51,"velocity":114,"channel":0},{"pitch":52,"velocity":99,"channel":0},{"pitch":16,"velocity":106,"channel":0},{"pitch":75,"velocity":115,"channel":0},{"pitch":94,"velocity":106,"channel":0},{"pitch":94,"velocity":115,"channel":0},{"pitch":94,"velocity":96,"channel":0},{"pitch":27,"velocity":114,"channel":0},{"pitch":39,"velocity":99,"channel":0},{"pitch":34,"velocity":110,"channel":0},{"pitch":51,"velocity":89,"channel":0},{"pitch":75,"velocity":95,"channel":0},{"pitch":51,"velocity":120,"channel":0},{"pitch":39,"velocity":127,"channel":0},{"pitch":34,"velocity":96,"channel":0},{"pitch":34,"velocity":118,"channel":0},{"pitch":34,"velocity":84,"channel":0},{"pitch":82,"velocity":127,"channel":0},{"pitch":75,"velocity":127,"channel":0},{"pitch":22,"velocity":118,"channel":0},{"pitch":70,"velocity":103,"channel":0},{"pitch":87,"velocity":90,"channel":0},{"pitch":75,"velocity":86,"channel":0},{"pitch":15,"velocity":104,"channel":0},{"pitch":39,"velocity":96,"channel":0},{"pitch":75,"velocity":112,"channel":0},{"pitch":51,"velocity":112,"channel":0},{"pitch":94,"velocity":98,"channel":0}],"stageTiming":{"beat-setup":36.8047,"intent":0.015,"entropy":0.0189,"phase":0.0333,"climax":0.0324,"envelope":0.0133,"silhouette":0.0198,"rest":0.0401,"complement":0.002,"tension-cadence":0.0304,"negotiation":0.0296,"probability-adjust":0.0081,"emission":24.4492,"post-beat":0.033},"iterBudget":{"raw":252,"capped":48,"wasCapped":true}}
{"layer":"L2","beatKey":"0:0:1:18","timeMs":6491.228070175438,"snap":{"key":"A#","mode":"locrian","quality":"minor","scale":["A#","B","C#","D#","E","F#","G#"],"chords":[],"tension":0.2858458816418885,"harmonicRhythm":0.33338377287365806,"harmonicMutationCount":8,"excursion":0,"sectionPhase":"opening","phrasePosition":0.8,"phrasePhase":"resolution","phraseDynamism":1,"registerBias":1.0534230275096785,"densityMultiplier":1.0351141009169893,"voiceIndependence":0.5,"compositeIntensity":0.34955546008782645,"playProb":0.3427583082730545,"stutterProb":0.47505733023765967,"flicker":1.1885495733762952,"textureMode":"flurry","textureFatigue":0,"densityBias":0,"crossModBias":1,"emissionRatio":0.8882997864076252,"extraDensityCorrection":1.022340042718475,"extraCoherenceDensityBias":1,"activeProfile":"restrained","journeyMove":"origin","journeyDistance":0,"journeyKey":"D#","journeyMode":"locrian","binauralFreqOffset":9,"binauralFlip":false,"tick":442500,"updatedAt":1772749134759},"negotiation":{"playProb":0.2790034246543529,"stutterProb":0.3062255825192703,"allowCadence":false,"conflict":0.032666883874966635,"phaseConfidence":0.614473684210525},"trust":{"stutterContagion":{"score":0.2698596134922017,"samples":98,"weight":1.2023947101191512},"cadenceAlignment":{"score":0.23048880335459884,"samples":98,"weight":1.172866602515949},"phaseLock":{"score":0.3934306948022675,"samples":98,"weight":1.2950730211017007},"convergence":{"score":0.23201350908094323,"samples":98,"weight":1.1740101318107075},"feedbackOscillator":{"score":0.270073847382116,"samples":98,"weight":1.202555385536587},"coherenceMonitor":{"score":0.695444907106474,"samples":98,"weight":1.5215836803298555},"entropyRegulator":{"score":0.7459346510076892,"samples":98,"weight":1.559450988255767},"restSynchronizer":{"score":0.23177593329864202,"samples":98,"weight":1.1738319499739815}},"regime":"evolving","coupling":{"density-tension":-0.786,"density-flicker":0.98,"density-entropy":-0.768,"density-trust":-0.966,"density-phase":0,"tension-flicker":-0.88,"tension-entropy":0.6,"tension-trust":0.86,"tension-phase":0,"flicker-entropy":-0.739,"flicker-trust":-0.973,"flicker-phase":0,"entropy-trust":0.691,"entropy-phase":0},"couplingTargets":{"density-tension":{"baseline":0.15,"current":0.1477,"rollingAbsCorr":0.0297,"rawRollingAbsCorr":0.0297,"gain":0.3,"heatPenalty":0,"effectivenessEma":0.5012,"effMin":0.475,"effMax":0.5012,"effActiveBeats":2,"hpPromoted":false},"density-flicker":{"baseline":0.12,"current":0.1177,"rollingAbsCorr":0.0384,"rawRollingAbsCorr":0.0384,"gain":0.2416,"heatPenalty":0.036,"effectivenessEma":0.5012,"effMin":0.475,"effMax":0.5012,"effActiveBeats":2,"hpPromoted":false},"density-entropy":{"baseline":0.12,"current":0.1191,"rollingAbsCorr":0.0744,"rawRollingAbsCorr":0.0744,"gain":0.22,"heatPenalty":0,"effectivenessEma":0.5012,"effMin":0.475,"effMax":0.5012,"effActiveBeats":2,"hpPromoted":false},"density-trust":{"baseline":0.2,"current":0.1977,"rollingAbsCorr":0.0351,"rawRollingAbsCorr":0.0351,"gain":0.229,"heatPenalty":0.01,"effectivenessEma":0.5012,"effMin":0.475,"effMax":0.5012,"effActiveBeats":2,"hpPromoted":false},"density-phase":{"baseline":0.06,"current":0.06,"rollingAbsCorr":0,"rawRollingAbsCorr":0,"gain":0.16,"heatPenalty":0,"effectivenessEma":0.5,"effMin":1,"effMax":0,"effActiveBeats":0,"hpPromoted":false},"tension-flicker":{"baseline":0.15,"current":0.147,"rollingAbsCorr":0.0314,"rawRollingAbsCorr":0.0314,"gain":0.229,"heatPenalty":0.01,"effectivenessEma":0.5012,"effMin":0.475,"effMax":0.5012,"effActiveBeats":2,"hpPromoted":false},"tension-entropy":{"baseline":0.25,"current":0.247,"rollingAbsCorr":0.0508,"rawRollingAbsCorr":0.0508,"gain":0.22,"heatPenalty":0,"effectivenessEma":0.5012,"effMin":0.475,"effMax":0.5012,"effActiveBeats":2,"hpPromoted":false},"tension-trust":{"baseline":0.15,"current":0.147,"rollingAbsCorr":0.0342,"rawRollingAbsCorr":0.0342,"gain":0.229,"heatPenalty":0.01,"effectivenessEma":0.4512,"effMin":0.4512,"effMax":0.475,"effActiveBeats":2,"hpPromoted":false},"tension-phase":{"baseline":0.2,"current":0.197,"rollingAbsCorr":0,"rawRollingAbsCorr":0,"gain":0.16,"heatPenalty":0,"effectivenessEma":0.5,"effMin":1,"effMax":0,"effActiveBeats":0,"hpPromoted":false},"flicker-entropy":{"baseline":0.18,"current":0.177,"rollingAbsCorr":0.0733,"rawRollingAbsCorr":0.0733,"gain":0.22,"heatPenalty":0,"effectivenessEma":0.4512,"effMin":0.4512,"effMax":0.475,"effActiveBeats":2,"hpPromoted":false},"flicker-trust":{"baseline":0.12,"current":0.117,"rollingAbsCorr":0.0329,"rawRollingAbsCorr":0.0329,"gain":0.229,"heatPenalty":0.01,"effectivenessEma":0.5012,"effMin":0.475,"effMax":0.5012,"effActiveBeats":2,"hpPromoted":false},"flicker-phase":{"baseline":0.08,"current":0.08,"rollingAbsCorr":0,"rawRollingAbsCorr":0,"gain":0.16,"heatPenalty":0,"effectivenessEma":0.5,"effMin":1,"effMax":0,"effActiveBeats":0,"hpPromoted":false},"entropy-trust":{"baseline":0.25,"current":0.25,"rollingAbsCorr":0.0549,"rawRollingAbsCorr":0.0549,"gain":0.16,"heatPenalty":0,"effectivenessEma":0.5,"effMin":1,"effMax":0,"effActiveBeats":0,"hpPromoted":false},"entropy-phase":{"baseline":0.1,"current":0.1,"rollingAbsCorr":0,"rawRollingAbsCorr":0,"gain":0.16,"heatPenalty":0,"effectivenessEma":0.5,"effMin":1,"effMax":0,"effActiveBeats":0,"hpPromoted":false}},"axisCouplingTotals":{"density":0.9324,"tension":0.8085,"flicker":0.9236,"entropy":0.7182,"trust":0.8663,"phase":0},"axisEnergyShare":{"shares":{"density":0.2194,"tension":0.1903,"flicker":0.2174,"entropy":0.169,"trust":0.2039,"phase":0},"axisGini":0.2093},"couplingGates":{"gateD":1,"gateT":1,"gateF":1,"floorDampen":0.2,"bypassD":0.190994,"bypassT":-0.09245,"bypassF":0.140738,"gateMinD":1,"gateMinT":1,"gateMinF":1,"gateEmaD":1,"gateEmaT":1,"gateEmaF":1,"gateBeatCount":7},"couplingHomeostasis":{"totalEnergyEma":7.157,"energyBudget":3.5,"peakEnergyEma":8.2018,"totalEnergyFloor":7.1269,"floorDampen":0.4,"redistributionScore":0,"nudgeableRedistributionScore":0,"globalGainMultiplier":0.5467,"giniCoefficient":0.3699,"energyDeltaEma":0.6333,"pairTurbulenceEma":0.0082,"beatCount":2,"invokeCount":7,"tickCount":100,"emptyMatrixBeats":5,"multiplierMin":0.5467,"multiplierMax":1,"multiplierStdDev":0.1726,"floorContactBeats":0,"ceilingContactBeats":61,"avgRecoveryDuration":0},"axisEnergyEquilibrator":{"beatCount":7,"pairAdjustments":0,"axisAdjustments":0,"smoothedShares":{"density":0.03317728,"tension":0.02917856,"flicker":0.03334112,"entropy":0.02600992,"trust":0.03189312,"phase":0},"perAxisAdj":{},"perPairAdj":{},"lastBaselines":{},"regimeBeats":{},"regimePairAdj":{},"regimeAxisAdj":{},"regimeTightenBudget":{}},"transitionReadiness":{"gap":0.5588,"couplingStrength":0.7245,"coherentThreshold":0.1658,"velocity":0.064212,"velThreshold":0.008,"thresholdScale":0.65,"velocityBlocked":false,"exploringBlock":"dimension","rawRegimeCounts":{"coherent":2},"rawRegimeMaxStreak":{"coherent":2},"effectiveDim":1.92},"notes":[{"pitch":6,"velocity":113,"channel":0},{"pitch":8,"velocity":92,"channel":0},{"pitch":3,"velocity":103,"channel":0},{"pitch":75,"velocity":102,"channel":0},{"pitch":94,"velocity":94,"channel":0},{"pitch":8,"velocity":116,"channel":0},{"pitch":3,"velocity":87,"channel":0},{"pitch":22,"velocity":104,"channel":0},{"pitch":3,"velocity":97,"channel":0},{"pitch":75,"velocity":107,"channel":0},{"pitch":10,"velocity":98,"channel":0},{"pitch":82,"velocity":81,"channel":0},{"pitch":34,"velocity":116,"channel":0},{"pitch":46,"velocity":88,"channel":0},{"pitch":3,"velocity":109,"channel":0},{"pitch":40,"velocity":101,"channel":0},{"pitch":51,"velocity":111,"channel":0},{"pitch":82,"velocity":99,"channel":0},{"pitch":10,"velocity":98,"channel":0},{"pitch":82,"velocity":106,"channel":0},{"pitch":15,"velocity":80,"channel":0},{"pitch":3,"velocity":117,"channel":0},{"pitch":3,"velocity":93,"channel":0},{"pitch":51,"velocity":90,"channel":0},{"pitch":58,"velocity":75,"channel":0},{"pitch":70,"velocity":85,"channel":0},{"pitch":46,"velocity":127,"channel":0},{"pitch":82,"velocity":111,"channel":0},{"pitch":80,"velocity":101,"channel":0},{"pitch":51,"velocity":113,"channel":0},{"pitch":3,"velocity":92,"channel":0},{"pitch":34,"velocity":111,"channel":0},{"pitch":15,"velocity":79,"channel":0},{"pitch":46,"velocity":97,"channel":0},{"pitch":75,"velocity":115,"channel":0},{"pitch":75,"velocity":102,"channel":0},{"pitch":51,"velocity":101,"channel":0},{"pitch":22,"velocity":101,"channel":0},{"pitch":51,"velocity":112,"channel":0},{"pitch":46,"velocity":125,"channel":0}],"stageTiming":{"beat-setup":48.2815,"intent":0.0162,"entropy":0.0211,"phase":0.0355,"climax":0.0351,"envelope":0.0169,"silhouette":0.0243,"rest":0.0741,"complement":0.0035,"tension-cadence":0.0982,"negotiation":0.0583,"probability-adjust":0.2089,"emission":12.242,"post-beat":0.0328},"iterBudget":{"raw":154,"capped":50,"wasCapped":true}}
{"layer":"L2","beatKey":"0:0:2:0","timeMs":6666.666666666667,"snap":{"key":"A#","mode":"locrian","quality":"minor","scale":["A#","B","C#","D#","E","F#","G#"],"chords":[],"tension":0.2858458816418885,"harmonicRhythm":0.33338377287365806,"harmonicMutationCount":8,"excursion":0,"sectionPhase":"opening","phrasePosition":0.8,"phrasePhase":"resolution","phraseDynamism":1,"registerBias":1.0534230275096785,"densityMultiplier":1.0351141009169893,"voiceIndependence":0.5,"compositeIntensity":0.34955546008782645,"playProb":0.3427583082730545,"stutterProb":0.47505733023765967,"flicker":1.1885495733762952,"textureMode":"flurry","textureFatigue":0,"densityBias":0,"crossModBias":1,"emissionRatio":0.8882997864076252,"extraDensityCorrection":1.022340042718475,"extraCoherenceDensityBias":1,"activeProfile":"restrained","journeyMove":"origin","journeyDistance":0,"journeyKey":"D#","journeyMode":"locrian","binauralFreqOffset":9,"binauralFlip":false,"tick":442500,"updatedAt":1772749134759},"negotiation":{"playProb":0.27695639284736473,"stutterProb":0.3034289546994777,"allowCadence":false,"conflict":0.029528107603202125,"phaseConfidence":0.6767543859649123},"trust":{"stutterContagion":{"score":0.2618479180176498,"samples":99,"weight":1.1963859385132374},"cadenceAlignment":{"score":0.23179109967294487,"samples":99,"weight":1.1738433247547087},"phaseLock":{"score":0.42734625480198185,"samples":99,"weight":1.3205096911014864},"convergence":{"score":0.23179109967294487,"samples":99,"weight":1.1738433247547087},"feedbackOscillator":{"score":0.2667993961812605,"samples":99,"weight":1.2000995471359452},"coherenceMonitor":{"score":0.6987022856660882,"samples":99,"weight":1.5240267142495663},"entropyRegulator":{"score":0.7423763691117015,"samples":99,"weight":1.556782276833776},"restSynchronizer":{"score":0.23179109967294487,"samples":99,"weight":1.1738433247547087}},"regime":"evolving","coupling":{"density-tension":-0.786,"density-flicker":0.98,"density-entropy":-0.768,"density-trust":-0.966,"density-phase":0,"tension-flicker":-0.88,"tension-entropy":0.6,"tension-trust":0.86,"tension-phase":0,"flicker-entropy":-0.739,"flicker-trust":-0.973,"flicker-phase":0,"entropy-trust":0.691,"entropy-phase":0},"couplingTargets":{"density-tension":{"baseline":0.15,"current":0.1466,"rollingAbsCorr":0.0303,"rawRollingAbsCorr":0.0303,"gain":0.28,"heatPenalty":0,"effectivenessEma":0.5012,"effMin":0.475,"effMax":0.5012,"effActiveBeats":2,"hpPromoted":false},"density-flicker":{"baseline":0.12,"current":0.1166,"rollingAbsCorr":0.0567,"rawRollingAbsCorr":0.0567,"gain":0.2416,"heatPenalty":0.036,"effectivenessEma":0.5262,"effMin":0.475,"effMax":0.5262,"effActiveBeats":3,"hpPromoted":false},"density-entropy":{"baseline":0.12,"current":0.1191,"rollingAbsCorr":0.1139,"rawRollingAbsCorr":0.1139,"gain":0.22,"heatPenalty":0,"effectivenessEma":0.4762,"effMin":0.475,"effMax":0.5012,"effActiveBeats":3,"hpPromoted":false},"density-trust":{"baseline":0.2,"current":0.1966,"rollingAbsCorr":0.0456,"rawRollingAbsCorr":0.0456,"gain":0.229,"heatPenalty":0.01,"effectivenessEma":0.5262,"effMin":0.475,"effMax":0.5262,"effActiveBeats":3,"hpPromoted":false},"density-phase":{"baseline":0.06,"current":0.06,"rollingAbsCorr":0,"rawRollingAbsCorr":0,"gain":0.16,"heatPenalty":0,"effectivenessEma":0.5,"effMin":1,"effMax":0,"effActiveBeats":0,"hpPromoted":false},"tension-flicker":{"baseline":0.15,"current":0.1455,"rollingAbsCorr":0.0365,"rawRollingAbsCorr":0.0365,"gain":0.229,"heatPenalty":0.01,"effectivenessEma":0.5262,"effMin":0.475,"effMax":0.5262,"effActiveBeats":3,"hpPromoted":false},"tension-entropy":{"baseline":0.25,"current":0.2455,"rollingAbsCorr":0.0499,"rawRollingAbsCorr":0.0499,"gain":0.206,"heatPenalty":0,"effectivenessEma":0.5012,"effMin":0.475,"effMax":0.5012,"effActiveBeats":2,"hpPromoted":false},"tension-trust":{"baseline":0.15,"current":0.1455,"rollingAbsCorr":0.0472,"rawRollingAbsCorr":0.0472,"gain":0.229,"heatPenalty":0.01,"effectivenessEma":0.4787,"effMin":0.4512,"effMax":0.4787,"effActiveBeats":3,"hpPromoted":false},"tension-phase":{"baseline":0.2,"current":0.1955,"rollingAbsCorr":0,"rawRollingAbsCorr":0,"gain":0.16,"heatPenalty":0,"effectivenessEma":0.5,"effMin":1,"effMax":0,"effActiveBeats":0,"hpPromoted":false},"flicker-entropy":{"baseline":0.18,"current":0.177,"rollingAbsCorr":0.1079,"rawRollingAbsCorr":0.1079,"gain":0.2321,"heatPenalty":0,"effectivenessEma":0.4287,"effMin":0.4287,"effMax":0.475,"effActiveBeats":3,"hpPromoted":false},"flicker-trust":{"baseline":0.12,"current":0.1155,"rollingAbsCorr":0.039,"rawRollingAbsCorr":0.039,"gain":0.229,"heatPenalty":0.01,"effectivenessEma":0.5262,"effMin":0.475,"effMax":0.5262,"effActiveBeats":3,"hpPromoted":false},"flicker-phase":{"baseline":0.08,"current":0.08,"rollingAbsCorr":0,"rawRollingAbsCorr":0,"gain":0.16,"heatPenalty":0,"effectivenessEma":0.5,"effMin":1,"effMax":0,"effActiveBeats":0,"hpPromoted":false},"entropy-trust":{"baseline":0.25,"current":0.25,"rollingAbsCorr":0.0764,"rawRollingAbsCorr":0.0764,"gain":0.16,"heatPenalty":0,"effectivenessEma":0.5,"effMin":1,"effMax":0,"effActiveBeats":0,"hpPromoted":false},"entropy-phase":{"baseline":0.1,"current":0.1,"rollingAbsCorr":0,"rawRollingAbsCorr":0,"gain":0.16,"heatPenalty":0,"effectivenessEma":0.5,"effMin":1,"effMax":0,"effActiveBeats":0,"hpPromoted":false}},"axisCouplingTotals":{"density":1.1582,"tension":0.8474,"flicker":1.1363,"entropy":0.9324,"trust":1.046,"phase":0},"axisEnergyShare":{"shares":{"density":0.2262,"tension":0.1655,"flicker":0.2219,"entropy":0.1821,"trust":0.2043,"phase":0},"axisGini":0.2204},"couplingGates":{"gateD":1,"gateT":1,"gateF":1,"floorDampen":0.41,"bypassD":0.380112,"bypassT":-0.134474,"bypassF":0.078396,"gateMinD":1,"gateMinT":1,"gateMinF":1,"gateEmaD":1,"gateEmaT":1,"gateEmaF":1,"gateBeatCount":8},"couplingHomeostasis":{"totalEnergyEma":6.9442,"energyBudget":3.5,"peakEnergyEma":8.1608,"totalEnergyFloor":7.0052,"floorDampen":0.43,"redistributionScore":0.1,"nudgeableRedistributionScore":0.1,"globalGainMultiplier":0.5425,"giniCoefficient":0.5326,"energyDeltaEma":0.3571,"pairTurbulenceEma":0.0247,"beatCount":3,"invokeCount":8,"tickCount":102,"emptyMatrixBeats":5,"multiplierMin":0.5425,"multiplierMax":1,"multiplierStdDev":0.177,"floorContactBeats":0,"ceilingContactBeats":61,"avgRecoveryDuration":0},"axisEnergyEquilibrator":{"beatCount":8,"pairAdjustments":0,"axisAdjustments":0,"smoothedShares":{"density":0.04861909760000001,"tension":0.0400842752,"flicker":0.0484258304,"entropy":0.0384971264,"trust":0.045685670399999996,"phase":0},"perAxisAdj":{},"perPairAdj":{},"lastBaselines":{},"regimeBeats":{},"regimePairAdj":{},"regimeAxisAdj":{},"regimeTightenBudget":{}},"transitionReadiness":{"gap":0.3283,"couplingStrength":0.494,"coherentThreshold":0.1658,"velocity":0.06794,"velThreshold":0.008,"thresholdScale":0.65,"velocityBlocked":false,"exploringBlock":"dimension","rawRegimeCounts":{"coherent":3},"rawRegimeMaxStreak":{"coherent":3},"effectiveDim":2.1813},"notes":[{"pitch":6,"velocity":115,"channel":0},{"pitch":22,"velocity":87,"channel":0},{"pitch":80,"velocity":73,"channel":0},{"pitch":22,"velocity":99,"channel":0},{"pitch":44,"velocity":118,"channel":0},{"pitch":22,"velocity":94,"channel":0},{"pitch":3,"velocity":104,"channel":0},{"pitch":22,"velocity":116,"channel":0},{"pitch":10,"velocity":127,"channel":0},{"pitch":54,"velocity":117,"channel":0},{"pitch":99,"velocity":109,"channel":0},{"pitch":27,"velocity":127,"channel":0},{"pitch":58,"velocity":127,"channel":0},{"pitch":39,"velocity":118,"channel":0},{"pitch":82,"velocity":80,"channel":0},{"pitch":75,"velocity":98,"channel":0},{"pitch":27,"velocity":109,"channel":0},{"pitch":15,"velocity":127,"channel":0},{"pitch":88,"velocity":127,"channel":0},{"pitch":10,"velocity":101,"channel":0},{"pitch":27,"velocity":93,"channel":0},{"pitch":75,"velocity":89,"channel":0},{"pitch":15,"velocity":127,"channel":0},{"pitch":82,"velocity":90,"channel":0},{"pitch":51,"velocity":98,"channel":0},{"pitch":15,"velocity":109,"channel":0},{"pitch":56,"velocity":121,"channel":0},{"pitch":46,"velocity":127,"channel":0},{"pitch":10,"velocity":108,"channel":0},{"pitch":46,"velocity":107,"channel":0},{"pitch":15,"velocity":101,"channel":0},{"pitch":92,"velocity":90,"channel":0},{"pitch":6,"velocity":102,"channel":0},{"pitch":3,"velocity":85,"channel":0},{"pitch":87,"velocity":93,"channel":0},{"pitch":75,"velocity":106,"channel":0},{"pitch":99,"velocity":90,"channel":0},{"pitch":58,"velocity":127,"channel":0},{"pitch":75,"velocity":93,"channel":0},{"pitch":70,"velocity":127,"channel":0},{"pitch":58,"velocity":106,"channel":0},{"pitch":80,"velocity":118,"channel":0},{"pitch":13,"velocity":127,"channel":0},{"pitch":11,"velocity":119,"channel":0}],"stageTiming":{"beat-setup":31.6659,"intent":0.0139,"entropy":0.0167,"phase":0.0325,"climax":0.0304,"envelope":0.0131,"silhouette":0.022,"rest":0.0254,"complement":0.0014,"tension-cadence":0.0234,"negotiation":0.0218,"probability-adjust":0.0067,"emission":14.9955,"post-beat":0.0559},"iterBudget":{"raw":240,"capped":240,"wasCapped":false}}
{"layer":"L2","beatKey":"0:0:2:1","timeMs":6842.105263157895,"snap":{"key":"A#","mode":"locrian","quality":"minor","scale":["A#","B","C#","D#","E","F#","G#"],"chords":[],"tension":0.2858458816418885,"harmonicRhythm":0.33338377287365806,"harmonicMutationCount":8,"excursion":0,"sectionPhase":"opening","phrasePosition":0.8,"phrasePhase":"resolution","phraseDynamism":1,"registerBias":1.0534230275096785,"densityMultiplier":1.0351141009169893,"voiceIndependence":0.5,"compositeIntensity":0.34955546008782645,"playProb":0.3427583082730545,"stutterProb":0.47505733023765967,"flicker":1.1885495733762952,"textureMode":"flurry","textureFatigue":0,"densityBias":0,"crossModBias":1,"emissionRatio":0.8882997864076252,"extraDensityCorrection":1.022340042718475,"extraCoherenceDensityBias":1,"activeProfile":"restrained","journeyMove":"origin","journeyDistance":0,"journeyKey":"D#","journeyMode":"locrian","binauralFreqOffset":9,"binauralFlip":false,"tick":442500,"updatedAt":1772749134759},"negotiation":{"playProb":0.2786592150286684,"stutterProb":0.3049327468151203,"allowCadence":false,"conflict":0.02254261375852873,"phaseConfidence":0.703070175438596},"trust":{"stutterContagion":{"score":0.25364839762961366,"samples":100,"weight":1.1902362982222103},"cadenceAlignment":{"score":0.2306541808103784,"samples":100,"weight":1.1729906356077837},"phaseLock":{"score":0.42379486637667235,"samples":100,"weight":1.3178461497825043},"convergence":{"score":0.23146328598130436,"samples":100,"weight":1.1735974644859783},"feedbackOscillator":{"score":0.26385533710657133,"samples":100,"weight":1.1978915028299286},"coherenceMonitor":{"score":0.7027313987680175,"samples":100,"weight":1.527048549076013},"entropyRegulator":{"score":0.737723153277367,"samples":100,"weight":1.5532923649580253},"restSynchronizer":{"score":0.2306541808103784,"samples":100,"weight":1.1729906356077837}},"regime":"evolving","coupling":{"density-tension":-0.786,"density-flicker":0.98,"density-entropy":-0.768,"density-trust":-0.966,"density-phase":0,"tension-flicker":-0.88,"tension-entropy":0.6,"tension-trust":0.86,"tension-phase":0,"flicker-entropy":-0.739,"flicker-trust":-0.973,"flicker-phase":0,"entropy-trust":0.691,"entropy-phase":0},"couplingTargets":{"density-tension":{"baseline":0.15,"current":0.1466,"rollingAbsCorr":0.0303,"rawRollingAbsCorr":0.0303,"gain":0.28,"heatPenalty":0,"effectivenessEma":0.5012,"effMin":0.475,"effMax":0.5012,"effActiveBeats":2,"hpPromoted":false},"density-flicker":{"baseline":0.12,"current":0.1166,"rollingAbsCorr":0.0567,"rawRollingAbsCorr":0.0567,"gain":0.2416,"heatPenalty":0.036,"effectivenessEma":0.5262,"effMin":0.475,"effMax":0.5262,"effActiveBeats":3,"hpPromoted":false},"density-entropy":{"baseline":0.12,"current":0.1191,"rollingAbsCorr":0.1139,"rawRollingAbsCorr":0.1139,"gain":0.22,"heatPenalty":0,"effectivenessEma":0.4762,"effMin":0.475,"effMax":0.5012,"effActiveBeats":3,"hpPromoted":false},"density-trust":{"baseline":0.2,"current":0.1966,"rollingAbsCorr":0.0456,"rawRollingAbsCorr":0.0456,"gain":0.229,"heatPenalty":0.01,"effectivenessEma":0.5262,"effMin":0.475,"effMax":0.5262,"effActiveBeats":3,"hpPromoted":false},"density-phase":{"baseline":0.06,"current":0.06,"rollingAbsCorr":0,"rawRollingAbsCorr":0,"gain":0.16,"heatPenalty":0,"effectivenessEma":0.5,"effMin":1,"effMax":0,"effActiveBeats":0,"hpPromoted":false},"tension-flicker":{"baseline":0.15,"current":0.1455,"rollingAbsCorr":0.0365,"rawRollingAbsCorr":0.0365,"gain":0.229,"heatPenalty":0.01,"effectivenessEma":0.5262,"effMin":0.475,"effMax":0.5262,"effActiveBeats":3,"hpPromoted":false},"tension-entropy":{"baseline":0.25,"current":0.2455,"rollingAbsCorr":0.0499,"rawRollingAbsCorr":0.0499,"gain":0.206,"heatPenalty":0,"effectivenessEma":0.5012,"effMin":0.475,"effMax":0.5012,"effActiveBeats":2,"hpPromoted":false},"tension-trust":{"baseline":0.15,"current":0.1455,"rollingAbsCorr":0.0472,"rawRollingAbsCorr":0.0472,"gain":0.229,"heatPenalty":0.01,"effectivenessEma":0.4787,"effMin":0.4512,"effMax":0.4787,"effActiveBeats":3,"hpPromoted":false},"tension-phase":{"baseline":0.2,"current":0.1955,"rollingAbsCorr":0,"rawRollingAbsCorr":0,"gain":0.16,"heatPenalty":0,"effectivenessEma":0.5,"effMin":1,"effMax":0,"effActiveBeats":0,"hpPromoted":false},"flicker-entropy":{"baseline":0.18,"current":0.177,"rollingAbsCorr":0.1079,"rawRollingAbsCorr":0.1079,"gain":0.2321,"heatPenalty":0,"effectivenessEma":0.4287,"effMin":0.4287,"effMax":0.475,"effActiveBeats":3,"hpPromoted":false},"flicker-trust":{"baseline":0.12,"current":0.1155,"rollingAbsCorr":0.039,"rawRollingAbsCorr":0.039,"gain":0.229,"heatPenalty":0.01,"effectivenessEma":0.5262,"effMin":0.475,"effMax":0.5262,"effActiveBeats":3,"hpPromoted":false},"flicker-phase":{"baseline":0.08,"current":0.08,"rollingAbsCorr":0,"rawRollingAbsCorr":0,"gain":0.16,"heatPenalty":0,"effectivenessEma":0.5,"effMin":1,"effMax":0,"effActiveBeats":0,"hpPromoted":false},"entropy-trust":{"baseline":0.25,"current":0.25,"rollingAbsCorr":0.0764,"rawRollingAbsCorr":0.0764,"gain":0.16,"heatPenalty":0,"effectivenessEma":0.5,"effMin":1,"effMax":0,"effActiveBeats":0,"hpPromoted":false},"entropy-phase":{"baseline":0.1,"current":0.1,"rollingAbsCorr":0,"rawRollingAbsCorr":0,"gain":0.16,"heatPenalty":0,"effectivenessEma":0.5,"effMin":1,"effMax":0,"effActiveBeats":0,"hpPromoted":false}},"axisCouplingTotals":{"density":1.1582,"tension":0.8474,"flicker":1.1363,"entropy":0.9324,"trust":1.046,"phase":0},"axisEnergyShare":{"shares":{"density":0.2262,"tension":0.1655,"flicker":0.2219,"entropy":0.1821,"trust":0.2043,"phase":0},"axisGini":0.2204},"couplingGates":{"gateD":1,"gateT":1,"gateF":1,"floorDampen":0.41,"bypassD":0.380112,"bypassT":-0.134474,"bypassF":0.078396,"gateMinD":1,"gateMinT":1,"gateMinF":1,"gateEmaD":1,"gateEmaT":1,"gateEmaF":1,"gateBeatCount":8},"couplingHomeostasis":{"totalEnergyEma":6.9442,"energyBudget":3.5,"peakEnergyEma":8.1608,"totalEnergyFloor":6.9702,"floorDampen":0.44,"redistributionScore":0.1,"nudgeableRedistributionScore":0.1,"globalGainMultiplier":0.5386,"giniCoefficient":0.5326,"energyDeltaEma":0.3571,"pairTurbulenceEma":0.0247,"beatCount":3,"invokeCount":8,"tickCount":103,"emptyMatrixBeats":5,"multiplierMin":0.5386,"multiplierMax":1,"multiplierStdDev":0.1791,"floorContactBeats":0,"ceilingContactBeats":61,"avgRecoveryDuration":0},"axisEnergyEquilibrator":{"beatCount":8,"pairAdjustments":0,"axisAdjustments":0,"smoothedShares":{"density":0.04861909760000001,"tension":0.0400842752,"flicker":0.0484258304,"entropy":0.0384971264,"trust":0.045685670399999996,"phase":0},"perAxisAdj":{},"perPairAdj":{},"lastBaselines":{},"regimeBeats":{},"regimePairAdj":{},"regimeAxisAdj":{},"regimeTightenBudget":{}},"transitionReadiness":{"gap":0.3283,"couplingStrength":0.494,"coherentThreshold":0.1658,"velocity":0.06794,"velThreshold":0.008,"thresholdScale":0.65,"velocityBlocked":false,"exploringBlock":"dimension","rawRegimeCounts":{"coherent":3},"rawRegimeMaxStreak":{"coherent":3},"effectiveDim":2.1813},"notes":[{"pitch":49,"velocity":127,"channel":0},{"pitch":49,"velocity":105,"channel":0},{"pitch":35,"velocity":119,"channel":0},{"pitch":59,"velocity":125,"channel":0},{"pitch":18,"velocity":121,"channel":0},{"pitch":8,"velocity":125,"channel":0},{"pitch":73,"velocity":105,"channel":0},{"pitch":37,"velocity":103,"channel":0},{"pitch":25,"velocity":112,"channel":0},{"pitch":6,"velocity":97,"channel":0},{"pitch":25,"velocity":113,"channel":0},{"pitch":6,"velocity":127,"channel":0},{"pitch":23,"velocity":100,"channel":0},{"pitch":85,"velocity":112,"channel":0},{"pitch":8,"velocity":85,"channel":0},{"pitch":78,"velocity":109,"channel":0},{"pitch":8,"velocity":97,"channel":0},{"pitch":85,"velocity":98,"channel":0},{"pitch":49,"velocity":94,"channel":0},{"pitch":73,"velocity":117,"channel":0},{"pitch":49,"velocity":90,"channel":0},{"pitch":6,"velocity":108,"channel":0},{"pitch":6,"velocity":94,"channel":0},{"pitch":6,"velocity":127,"channel":0},{"pitch":6,"velocity":108,"channel":0},{"pitch":6,"velocity":95,"channel":0},{"pitch":78,"velocity":127,"channel":0},{"pitch":6,"velocity":98,"channel":0},{"pitch":37,"velocity":113,"channel":0},{"pitch":32,"velocity":99,"channel":0},{"pitch":30,"velocity":116,"channel":0},{"pitch":80,"velocity":93,"channel":0},{"pitch":78,"velocity":89,"channel":0},{"pitch":44,"velocity":89,"channel":0},{"pitch":11,"velocity":116,"channel":0},{"pitch":80,"velocity":98,"channel":0},{"pitch":85,"velocity":119,"channel":0},{"pitch":1,"velocity":109,"channel":0},{"pitch":18,"velocity":127,"channel":0},{"pitch":54,"velocity":88,"channel":0},{"pitch":80,"velocity":108,"channel":0},{"pitch":47,"velocity":117,"channel":0},{"pitch":95,"velocity":123,"channel":0},{"pitch":18,"velocity":80,"channel":0},{"pitch":6,"velocity":109,"channel":0},{"pitch":18,"velocity":100,"channel":0},{"pitch":23,"velocity":113,"channel":0},{"pitch":56,"velocity":103,"channel":0},{"pitch":37,"velocity":112,"channel":0},{"pitch":6,"velocity":88,"channel":0},{"pitch":6,"velocity":113,"channel":0},{"pitch":35,"velocity":99,"channel":0},{"pitch":13,"velocity":109,"channel":0},{"pitch":6,"velocity":90,"channel":0},{"pitch":54,"velocity":127,"channel":0},{"pitch":78,"velocity":127,"channel":0},{"pitch":90,"velocity":127,"channel":0},{"pitch":6,"velocity":90,"channel":0},{"pitch":11,"velocity":114,"channel":0},{"pitch":6,"velocity":85,"channel":0},{"pitch":6,"velocity":93,"channel":0},{"pitch":40,"velocity":127,"channel":0},{"pitch":13,"velocity":86,"channel":0},{"pitch":49,"velocity":91,"channel":0},{"pitch":68,"velocity":126,"channel":0},{"pitch":13,"velocity":127,"channel":0},{"pitch":52,"velocity":121,"channel":0},{"pitch":73,"velocity":97,"channel":0},{"pitch":54,"velocity":102,"channel":0},{"pitch":1,"velocity":97,"channel":0},{"pitch":13,"velocity":105,"channel":0},{"pitch":104,"velocity":79,"channel":0},{"pitch":54,"velocity":116,"channel":0},{"pitch":80,"velocity":113,"channel":0},{"pitch":23,"velocity":94,"channel":0},{"pitch":80,"velocity":86,"channel":0},{"pitch":13,"velocity":89,"channel":0},{"pitch":8,"velocity":88,"channel":0},{"pitch":25,"velocity":126,"channel":0},{"pitch":78,"velocity":81,"channel":0},{"pitch":30,"velocity":116,"channel":0},{"pitch":78,"velocity":112,"channel":0},{"pitch":54,"velocity":122,"channel":0},{"pitch":80,"velocity":113,"channel":0},{"pitch":32,"velocity":79,"channel":0},{"pitch":32,"velocity":127,"channel":0},{"pitch":49,"velocity":95,"channel":0},{"pitch":20,"velocity":105,"channel":0},{"pitch":18,"velocity":88,"channel":0},{"pitch":18,"velocity":93,"channel":0},{"pitch":18,"velocity":85,"channel":0},{"pitch":18,"velocity":119,"channel":0},{"pitch":54,"velocity":91,"channel":0},{"pitch":18,"velocity":93,"channel":0},{"pitch":78,"velocity":113,"channel":0},{"pitch":85,"velocity":109,"channel":0},{"pitch":25,"velocity":91,"channel":0},{"pitch":49,"velocity":98,"channel":0},{"pitch":30,"velocity":105,"channel":0},{"pitch":30,"velocity":113,"channel":0},{"pitch":25,"velocity":98,"channel":0},{"pitch":52,"velocity":118,"channel":0},{"pitch":76,"velocity":103,"channel":0},{"pitch":66,"velocity":99,"channel":0},{"pitch":54,"velocity":94,"channel":0},{"pitch":37,"velocity":97,"channel":0},{"pitch":37,"velocity":83,"channel":0},{"pitch":25,"velocity":127,"channel":0},{"pitch":83,"velocity":127,"channel":0}],"stageTiming":{"beat-setup":21.146,"intent":0.0126,"entropy":0.0183,"phase":0.0313,"climax":0.0312,"envelope":0.0134,"silhouette":0.0979,"rest":0.034,"complement":0.0016,"tension-cadence":0.0272,"negotiation":0.0267,"probability-adjust":0.0104,"emission":14.8687,"post-beat":0.0256},"iterBudget":{"raw":120,"capped":120,"wasCapped":false}}
